%
M48
M72
T01C0.01378
T02C0.02165
T03C0.03200
T04C0.03819
T05C0.03900
T06C0.03937
T07C0.04300
T08C0.05906
T09C0.07087
T10C0.07874
T11C0.11811
T12C0.12850
T13C0.13386
%
T01
X140478Y115183
X168603Y90183
X177978Y83933
X202978Y83933
X224228Y90183
X227353Y90808
X246728Y71433
X265478Y65183
X196728Y133933
X202978Y149558
X190478Y202683
X181103Y202683
X196728Y221433
X184228Y240183
X146728Y280808
X140478Y246433
X140478Y227683
X215478Y346433
X202978Y396433
X168603Y415183
X102978Y421433
X259228Y396433
X280728Y339683
X284228Y324558
X276728Y304683
X277978Y296433
X265478Y290183
X259228Y290183
X340478Y240183
X352978Y183933
X318603Y158933
X271728Y202683
X371728Y93933
X352978Y71433
X343603Y83933
X406103Y296433
X409228Y327683
X340478Y346433
X340478Y358933
X331103Y408933
X331103Y418308
X371728Y418308
X371728Y408933
T02
X165478Y246433
X115478Y77683
T03
X192978Y177683
X212978Y177683
X234228Y178933
X234228Y188933
X246728Y198933
X259228Y198933
X246728Y212683
X234228Y212683
X221728Y210183
X221728Y220183
X234228Y242683
X246728Y242683
X259228Y242058
X259228Y232058
X229853Y258933
X219853Y258933
X202978Y275183
X190478Y275183
X190478Y305183
X202978Y305183
X196728Y316433
X196728Y326433
X215478Y331433
X231103Y335183
X231103Y345183
X256103Y342058
X256103Y332058
X256228Y319183
X256228Y309183
X240478Y317683
X227728Y316683
X215478Y311433
X240478Y287683
X227728Y286683
X274853Y185808
X274853Y175808
X279228Y162058
X289228Y162058
X304228Y168308
X314228Y168308
X314228Y149558
X304228Y149558
X309853Y133308
X319853Y133308
X329853Y133308
X339853Y133308
X352978Y123308
X352978Y113308
X339853Y103308
X329853Y103308
X319853Y103308
X309853Y103308
X271728Y122683
X271728Y132683
X252978Y142683
X254228Y152683
X264228Y152683
X259228Y168933
X246728Y168933
X239228Y152683
X229228Y152683
X240478Y142683
X224853Y120808
X240478Y112683
X252978Y112683
X224853Y90808
X293478Y187058
X312478Y187058
T04
X365978Y182683
X365978Y172683
X365978Y162683
X365978Y152683
X365978Y142683
X365978Y132683
X365978Y122683
X365978Y112683
X395978Y112683
X395978Y122683
X395978Y132683
X395978Y142683
X395978Y152683
X395978Y162683
X395978Y172683
X395978Y182683
T05
X356728Y202683
X346728Y202683
X336728Y202683
X326728Y202683
X316728Y202683
X306728Y202683
X296728Y202683
X296728Y232683
X306728Y232683
X316728Y232683
X326728Y232683
X336728Y232683
X346728Y232683
X356728Y232683
T06
X196374Y257683
X176374Y257683
X176374Y197683
X196374Y197683
X196374Y163933
X176374Y163933
X176374Y103933
X196374Y103933
X116374Y103933
X106374Y103933
X96374Y103933
X106374Y163933
X116374Y163933
X116374Y197683
X106374Y197683
X96374Y197683
X106374Y257683
X116374Y257683
T07
X74478Y130183
X74478Y120183
X74478Y110183
X74478Y100183
T08
X99228Y292683
X99228Y322683
X99228Y352683
X299228Y337683
X299228Y322683
X299228Y307683
T09
X340085Y313165
X340085Y329701
X361738Y329701
X361738Y313165
X97122Y390183
X75469Y390183
T10
X299228Y352683
X299228Y292683
T11
X390478Y321433
X46728Y390183
T12
X34228Y421433
X409228Y421433
T13
X40478Y94683
X40478Y135683
M30
