G75*
%MOIN*%
%OFA0B0*%
%FSLAX25Y25*%
%IPPOS*%
%LPD*%
%AMOC8*
5,1,8,0,0,1.08239X$1,22.5*
%
%ADD10R,0.06500X0.25000*%
%ADD11R,0.09843X0.01969*%
%ADD12R,0.09843X0.07874*%
%ADD13R,0.09449X0.05906*%
%ADD14R,0.01181X0.05709*%
%ADD15R,0.05709X0.01181*%
%ADD16R,0.03937X0.04331*%
%ADD17R,0.04331X0.03937*%
%ADD18R,0.05512X0.07087*%
%ADD19R,0.07480X0.05512*%
%ADD20R,0.05906X0.03150*%
D10*
X0067150Y0017500D03*
X0077150Y0017500D03*
X0087150Y0017500D03*
X0097150Y0017500D03*
X0107150Y0017500D03*
X0117150Y0017500D03*
X0127150Y0017500D03*
X0137150Y0017500D03*
X0147150Y0017500D03*
X0157150Y0017500D03*
X0167150Y0017500D03*
X0177150Y0017500D03*
X0187150Y0017500D03*
X0197150Y0017500D03*
X0207150Y0017500D03*
X0217150Y0017500D03*
X0227150Y0017500D03*
X0237150Y0017500D03*
X0247150Y0017500D03*
X0257150Y0017500D03*
X0267150Y0017500D03*
X0277150Y0017500D03*
X0287150Y0017500D03*
X0297150Y0017500D03*
X0307150Y0017500D03*
X0317150Y0017500D03*
X0327150Y0017500D03*
X0337150Y0017500D03*
D11*
X0039166Y0340225D03*
X0039166Y0343375D03*
X0039166Y0346524D03*
X0039166Y0349674D03*
X0039166Y0352823D03*
D12*
X0039166Y0364241D03*
X0017513Y0364241D03*
X0017513Y0328808D03*
X0039166Y0328808D03*
D13*
X0022807Y0051752D03*
X0022807Y0075768D03*
X0067689Y0075768D03*
X0067689Y0051752D03*
D14*
X0166164Y0239400D03*
X0168132Y0239400D03*
X0170101Y0239400D03*
X0172069Y0239400D03*
X0174038Y0239400D03*
X0176006Y0239400D03*
X0177975Y0239400D03*
X0179943Y0239400D03*
X0181912Y0239400D03*
X0183880Y0239400D03*
X0185849Y0239400D03*
X0187817Y0239400D03*
X0189786Y0239400D03*
X0191754Y0239400D03*
X0193723Y0239400D03*
X0195691Y0239400D03*
X0195691Y0284675D03*
X0193723Y0284675D03*
X0191754Y0284675D03*
X0189786Y0284675D03*
X0187817Y0284675D03*
X0185849Y0284675D03*
X0183880Y0284675D03*
X0181912Y0284675D03*
X0179943Y0284675D03*
X0177975Y0284675D03*
X0176006Y0284675D03*
X0174038Y0284675D03*
X0172069Y0284675D03*
X0170101Y0284675D03*
X0168132Y0284675D03*
X0166164Y0284675D03*
D15*
X0158290Y0276801D03*
X0158290Y0274833D03*
X0158290Y0272864D03*
X0158290Y0270896D03*
X0158290Y0268927D03*
X0158290Y0266959D03*
X0158290Y0264990D03*
X0158290Y0263022D03*
X0158290Y0261053D03*
X0158290Y0259085D03*
X0158290Y0257116D03*
X0158290Y0255148D03*
X0158290Y0253179D03*
X0158290Y0251211D03*
X0158290Y0249242D03*
X0158290Y0247274D03*
X0203565Y0247274D03*
X0203565Y0249242D03*
X0203565Y0251211D03*
X0203565Y0253179D03*
X0203565Y0255148D03*
X0203565Y0257116D03*
X0203565Y0259085D03*
X0203565Y0261053D03*
X0203565Y0263022D03*
X0203565Y0264990D03*
X0203565Y0266959D03*
X0203565Y0268927D03*
X0203565Y0270896D03*
X0203565Y0272864D03*
X0203565Y0274833D03*
X0203565Y0276801D03*
D16*
X0202187Y0291024D03*
X0202187Y0297717D03*
X0168255Y0298184D03*
X0168255Y0304877D03*
X0157896Y0298701D03*
X0157896Y0292008D03*
X0146592Y0291956D03*
X0146592Y0298649D03*
X0160849Y0232756D03*
X0160849Y0226063D03*
X0326094Y0220956D03*
X0326094Y0214263D03*
X0326324Y0190780D03*
X0326324Y0184088D03*
X0326100Y0160391D03*
X0326100Y0153698D03*
X0326443Y0121093D03*
X0326443Y0114400D03*
X0326646Y0092185D03*
X0326646Y0085492D03*
X0325483Y0247034D03*
X0325483Y0253727D03*
X0325760Y0275287D03*
X0325760Y0281979D03*
X0325411Y0306215D03*
X0325411Y0312908D03*
X0325427Y0333977D03*
X0325427Y0340670D03*
X0325619Y0364384D03*
X0325619Y0371077D03*
D17*
X0332637Y0356289D03*
X0339330Y0356289D03*
X0340786Y0368075D03*
X0347479Y0368075D03*
X0347215Y0336161D03*
X0340522Y0336161D03*
X0340215Y0326663D03*
X0333522Y0326663D03*
X0338520Y0308134D03*
X0345213Y0308134D03*
X0337216Y0296916D03*
X0330523Y0296916D03*
X0338522Y0276819D03*
X0345215Y0276819D03*
X0337216Y0266623D03*
X0330523Y0266623D03*
X0338813Y0245840D03*
X0345506Y0245840D03*
X0336549Y0235512D03*
X0329856Y0235512D03*
X0338522Y0214431D03*
X0345215Y0214431D03*
X0335549Y0204584D03*
X0328856Y0204584D03*
X0338597Y0182816D03*
X0345290Y0182816D03*
X0336231Y0173822D03*
X0329538Y0173822D03*
X0337855Y0152741D03*
X0344548Y0152741D03*
X0336549Y0143560D03*
X0329856Y0143560D03*
X0338689Y0114156D03*
X0345382Y0114156D03*
X0336549Y0103435D03*
X0329856Y0103435D03*
X0339385Y0085796D03*
X0346078Y0085796D03*
X0334538Y0074408D03*
X0327845Y0074408D03*
X0217293Y0232087D03*
X0210600Y0232087D03*
X0210652Y0242205D03*
X0217345Y0242205D03*
X0217345Y0284528D03*
X0210652Y0284528D03*
X0151400Y0242205D03*
X0144707Y0242205D03*
D18*
X0066976Y0284232D03*
X0066976Y0306673D03*
D19*
X0015204Y0313071D03*
X0011267Y0261299D03*
D20*
X0026425Y0279547D03*
X0027999Y0283878D03*
X0026425Y0288209D03*
X0025637Y0292539D03*
X0026425Y0296870D03*
X0025637Y0301201D03*
X0026425Y0305531D03*
X0026425Y0309862D03*
M02*
