G75*
%MOIN*%
%OFA0B0*%
%FSLAX25Y25*%
%IPPOS*%
%LPD*%
%AMOC8*
5,1,8,0,0,1.08239X$1,22.5*
%
%ADD10C,0.13650*%
%ADD11R,0.07300X0.25800*%
%ADD12R,0.10643X0.02769*%
%ADD13R,0.10643X0.08674*%
%ADD14C,0.04343*%
%ADD15R,0.05162X0.05162*%
%ADD16C,0.05162*%
%ADD17R,0.10249X0.06706*%
%ADD18C,0.07099*%
%ADD19C,0.07887*%
%ADD20C,0.06000*%
%ADD21C,0.08200*%
%ADD22R,0.06737X0.06737*%
%ADD23C,0.06737*%
%ADD24R,0.01981X0.06509*%
%ADD25R,0.06509X0.01981*%
%ADD26R,0.04737X0.05131*%
%ADD27R,0.05131X0.04737*%
%ADD28R,0.06312X0.07887*%
%ADD29R,0.08280X0.06312*%
%ADD30R,0.06706X0.03950*%
%ADD31C,0.06000*%
%ADD32C,0.06800*%
%ADD33R,0.08300X0.08300*%
%ADD34C,0.08300*%
%ADD35C,0.07300*%
%ADD36OC8,0.10800*%
%ADD37R,0.10800X0.10800*%
%ADD38C,0.12611*%
%ADD39OC8,0.06000*%
%ADD40C,0.03778*%
%ADD41C,0.04369*%
%ADD42C,0.06706*%
D10*
X0013900Y0392500D03*
X0388900Y0392500D03*
D11*
X0337150Y0017500D03*
X0327150Y0017500D03*
X0317150Y0017500D03*
X0307150Y0017500D03*
X0297150Y0017500D03*
X0287150Y0017500D03*
X0277150Y0017500D03*
X0267150Y0017500D03*
X0257150Y0017500D03*
X0247150Y0017500D03*
X0237150Y0017500D03*
X0227150Y0017500D03*
X0217150Y0017500D03*
X0207150Y0017500D03*
X0197150Y0017500D03*
X0187150Y0017500D03*
X0177150Y0017500D03*
X0167150Y0017500D03*
X0157150Y0017500D03*
X0147150Y0017500D03*
X0137150Y0017500D03*
X0127150Y0017500D03*
X0117150Y0017500D03*
X0107150Y0017500D03*
X0097150Y0017500D03*
X0087150Y0017500D03*
X0077150Y0017500D03*
X0067150Y0017500D03*
D12*
X0039166Y0340225D03*
X0039166Y0343375D03*
X0039166Y0346524D03*
X0039166Y0349674D03*
X0039166Y0352823D03*
D13*
X0039166Y0364241D03*
X0017513Y0364241D03*
X0017513Y0328808D03*
X0039166Y0328808D03*
D14*
X0029324Y0337863D03*
X0029324Y0355186D03*
D15*
X0077973Y0179123D03*
D16*
X0082894Y0179123D03*
X0087815Y0179123D03*
X0092737Y0179123D03*
D17*
X0022807Y0051752D03*
X0022807Y0075768D03*
X0067689Y0075768D03*
X0067689Y0051752D03*
D18*
X0045248Y0051752D03*
D19*
X0045248Y0069469D03*
D20*
X0272877Y0074217D02*
X0278077Y0074217D01*
X0278077Y0084217D02*
X0272877Y0084217D01*
X0272309Y0103367D02*
X0277509Y0103367D01*
X0277509Y0113367D02*
X0272309Y0113367D01*
X0272642Y0143544D02*
X0277842Y0143544D01*
X0277842Y0153544D02*
X0272642Y0153544D01*
X0272642Y0174056D02*
X0277842Y0174056D01*
X0277842Y0184056D02*
X0272642Y0184056D01*
X0272642Y0204568D02*
X0277842Y0204568D01*
X0277842Y0214568D02*
X0272642Y0214568D01*
X0272642Y0236064D02*
X0277842Y0236064D01*
X0277842Y0246064D02*
X0272642Y0246064D01*
X0272642Y0266576D02*
X0277842Y0266576D01*
X0277842Y0276576D02*
X0272642Y0276576D01*
X0272642Y0297088D02*
X0277842Y0297088D01*
X0277842Y0307088D02*
X0272642Y0307088D01*
X0272642Y0326615D02*
X0277842Y0326615D01*
X0277842Y0336615D02*
X0272642Y0336615D01*
X0272642Y0356143D02*
X0277842Y0356143D01*
X0277842Y0366143D02*
X0272642Y0366143D01*
X0307842Y0366143D02*
X0313042Y0366143D01*
X0313042Y0356143D02*
X0307842Y0356143D01*
X0307842Y0336615D02*
X0313042Y0336615D01*
X0313042Y0326615D02*
X0307842Y0326615D01*
X0307842Y0307088D02*
X0313042Y0307088D01*
X0313042Y0297088D02*
X0307842Y0297088D01*
X0307842Y0276576D02*
X0313042Y0276576D01*
X0313042Y0266576D02*
X0307842Y0266576D01*
X0307842Y0246064D02*
X0313042Y0246064D01*
X0313042Y0236064D02*
X0307842Y0236064D01*
X0307842Y0214568D02*
X0313042Y0214568D01*
X0313042Y0204568D02*
X0307842Y0204568D01*
X0307842Y0184056D02*
X0313042Y0184056D01*
X0313042Y0174056D02*
X0307842Y0174056D01*
X0307842Y0153544D02*
X0313042Y0153544D01*
X0313042Y0143544D02*
X0307842Y0143544D01*
X0307509Y0113367D02*
X0312709Y0113367D01*
X0312709Y0103367D02*
X0307509Y0103367D01*
X0308077Y0084217D02*
X0313277Y0084217D01*
X0313277Y0074217D02*
X0308077Y0074217D01*
D21*
X0262227Y0092520D03*
X0262227Y0102520D03*
X0262227Y0123031D03*
X0262227Y0133031D03*
X0262227Y0152559D03*
X0262227Y0162559D03*
X0262227Y0182087D03*
X0262227Y0192087D03*
X0262227Y0211614D03*
X0262227Y0221614D03*
X0261940Y0236142D03*
X0261940Y0246142D03*
X0261893Y0265113D03*
X0261893Y0275113D03*
X0262227Y0294291D03*
X0262227Y0304291D03*
X0262227Y0319882D03*
X0262227Y0329882D03*
X0262227Y0349409D03*
X0262227Y0359409D03*
X0184562Y0335630D03*
X0182895Y0324549D03*
X0154562Y0335630D03*
X0152895Y0324549D03*
X0137054Y0335634D03*
X0127054Y0335634D03*
X0129054Y0324635D03*
X0119054Y0324635D03*
X0117734Y0204970D03*
X0117734Y0194970D03*
X0103574Y0194652D03*
X0103574Y0204652D03*
X0391164Y0208740D03*
X0391164Y0220236D03*
X0391164Y0230236D03*
X0391164Y0240236D03*
X0391164Y0251732D03*
X0391164Y0261732D03*
X0391164Y0271732D03*
X0391164Y0283228D03*
X0391164Y0293228D03*
X0391164Y0303228D03*
X0391164Y0314724D03*
X0391164Y0324724D03*
X0391164Y0334724D03*
X0391164Y0346220D03*
X0391164Y0356220D03*
X0391164Y0366220D03*
X0391164Y0198740D03*
X0391164Y0188740D03*
X0391164Y0177244D03*
X0391164Y0167244D03*
X0391164Y0157244D03*
X0391164Y0145748D03*
X0391164Y0135748D03*
X0391164Y0125748D03*
X0391164Y0114252D03*
X0391164Y0104252D03*
X0391164Y0094252D03*
X0391213Y0083002D03*
X0391213Y0073002D03*
X0391213Y0063002D03*
D22*
X0115384Y0239744D03*
D23*
X0105384Y0239744D03*
X0105384Y0229744D03*
X0115384Y0229744D03*
X0095384Y0229744D03*
X0095384Y0239744D03*
X0085384Y0239744D03*
X0085384Y0229744D03*
X0075384Y0229744D03*
X0075384Y0239744D03*
X0065384Y0239744D03*
X0065384Y0229744D03*
X0055384Y0229744D03*
X0055384Y0239744D03*
X0045384Y0239744D03*
X0045384Y0229744D03*
X0035384Y0229744D03*
X0035384Y0239744D03*
X0025384Y0239744D03*
X0025384Y0229744D03*
D24*
X0166164Y0239400D03*
X0168132Y0239400D03*
X0170101Y0239400D03*
X0172069Y0239400D03*
X0174038Y0239400D03*
X0176006Y0239400D03*
X0177975Y0239400D03*
X0179943Y0239400D03*
X0181912Y0239400D03*
X0183880Y0239400D03*
X0185849Y0239400D03*
X0187817Y0239400D03*
X0189786Y0239400D03*
X0191754Y0239400D03*
X0193723Y0239400D03*
X0195691Y0239400D03*
X0195691Y0284675D03*
X0193723Y0284675D03*
X0191754Y0284675D03*
X0189786Y0284675D03*
X0187817Y0284675D03*
X0185849Y0284675D03*
X0183880Y0284675D03*
X0181912Y0284675D03*
X0179943Y0284675D03*
X0177975Y0284675D03*
X0176006Y0284675D03*
X0174038Y0284675D03*
X0172069Y0284675D03*
X0170101Y0284675D03*
X0168132Y0284675D03*
X0166164Y0284675D03*
D25*
X0158290Y0276801D03*
X0158290Y0274833D03*
X0158290Y0272864D03*
X0158290Y0270896D03*
X0158290Y0268927D03*
X0158290Y0266959D03*
X0158290Y0264990D03*
X0158290Y0263022D03*
X0158290Y0261053D03*
X0158290Y0259085D03*
X0158290Y0257116D03*
X0158290Y0255148D03*
X0158290Y0253179D03*
X0158290Y0251211D03*
X0158290Y0249242D03*
X0158290Y0247274D03*
X0203565Y0247274D03*
X0203565Y0249242D03*
X0203565Y0251211D03*
X0203565Y0253179D03*
X0203565Y0255148D03*
X0203565Y0257116D03*
X0203565Y0259085D03*
X0203565Y0261053D03*
X0203565Y0263022D03*
X0203565Y0264990D03*
X0203565Y0266959D03*
X0203565Y0268927D03*
X0203565Y0270896D03*
X0203565Y0272864D03*
X0203565Y0274833D03*
X0203565Y0276801D03*
D26*
X0202187Y0291024D03*
X0202187Y0297717D03*
X0168255Y0298184D03*
X0168255Y0304877D03*
X0157896Y0298701D03*
X0157896Y0292008D03*
X0146592Y0291956D03*
X0146592Y0298649D03*
X0160849Y0232756D03*
X0160849Y0226063D03*
X0326094Y0220956D03*
X0326094Y0214263D03*
X0326324Y0190780D03*
X0326324Y0184088D03*
X0326100Y0160391D03*
X0326100Y0153698D03*
X0326443Y0121093D03*
X0326443Y0114400D03*
X0326646Y0092185D03*
X0326646Y0085492D03*
X0325483Y0247034D03*
X0325483Y0253727D03*
X0325760Y0275287D03*
X0325760Y0281979D03*
X0325411Y0306215D03*
X0325411Y0312908D03*
X0325427Y0333977D03*
X0325427Y0340670D03*
X0325619Y0364384D03*
X0325619Y0371077D03*
D27*
X0332637Y0356289D03*
X0339330Y0356289D03*
X0340786Y0368075D03*
X0347479Y0368075D03*
X0347215Y0336161D03*
X0340522Y0336161D03*
X0340215Y0326663D03*
X0333522Y0326663D03*
X0338520Y0308134D03*
X0345213Y0308134D03*
X0337216Y0296916D03*
X0330523Y0296916D03*
X0338522Y0276819D03*
X0345215Y0276819D03*
X0337216Y0266623D03*
X0330523Y0266623D03*
X0338813Y0245840D03*
X0345506Y0245840D03*
X0336549Y0235512D03*
X0329856Y0235512D03*
X0338522Y0214431D03*
X0345215Y0214431D03*
X0335549Y0204584D03*
X0328856Y0204584D03*
X0338597Y0182816D03*
X0345290Y0182816D03*
X0336231Y0173822D03*
X0329538Y0173822D03*
X0337855Y0152741D03*
X0344548Y0152741D03*
X0336549Y0143560D03*
X0329856Y0143560D03*
X0338689Y0114156D03*
X0345382Y0114156D03*
X0336549Y0103435D03*
X0329856Y0103435D03*
X0339385Y0085796D03*
X0346078Y0085796D03*
X0334538Y0074408D03*
X0327845Y0074408D03*
X0217293Y0232087D03*
X0210600Y0232087D03*
X0210652Y0242205D03*
X0217345Y0242205D03*
X0217345Y0284528D03*
X0210652Y0284528D03*
X0151400Y0242205D03*
X0144707Y0242205D03*
D28*
X0066976Y0284232D03*
X0066976Y0306673D03*
D29*
X0015204Y0313071D03*
X0011267Y0261299D03*
D30*
X0026425Y0279547D03*
X0027999Y0283878D03*
X0026425Y0288209D03*
X0025637Y0292539D03*
X0026425Y0296870D03*
X0025637Y0301201D03*
X0026425Y0305531D03*
X0026425Y0309862D03*
D31*
X0137446Y0166771D03*
X0156446Y0166771D03*
D32*
X0059529Y0184081D02*
X0053529Y0184081D01*
X0053529Y0201881D02*
X0059529Y0201881D01*
X0033929Y0201881D02*
X0027929Y0201881D01*
X0027929Y0184081D02*
X0033929Y0184081D01*
X0354307Y0194836D02*
X0354307Y0200836D01*
X0363307Y0200836D02*
X0363307Y0194836D01*
X0372307Y0194836D02*
X0372307Y0200836D01*
X0372641Y0226410D02*
X0372641Y0232410D01*
X0363641Y0232410D02*
X0363641Y0226410D01*
X0354641Y0226410D02*
X0354641Y0232410D01*
X0354641Y0258224D02*
X0354641Y0264224D01*
X0363641Y0264224D02*
X0363641Y0258224D01*
X0372641Y0258224D02*
X0372641Y0264224D01*
X0372307Y0289845D02*
X0372307Y0295845D01*
X0363307Y0295845D02*
X0363307Y0289845D01*
X0354307Y0289845D02*
X0354307Y0295845D01*
X0354641Y0321580D02*
X0354641Y0327580D01*
X0363641Y0327580D02*
X0363641Y0321580D01*
X0372641Y0321580D02*
X0372641Y0327580D01*
X0372605Y0353342D02*
X0372605Y0359342D01*
X0363605Y0359342D02*
X0363605Y0353342D01*
X0354605Y0353342D02*
X0354605Y0359342D01*
X0354641Y0170100D02*
X0354641Y0164100D01*
X0363641Y0164100D02*
X0363641Y0170100D01*
X0372641Y0170100D02*
X0372641Y0164100D01*
X0372641Y0137797D02*
X0372641Y0131797D01*
X0363641Y0131797D02*
X0363641Y0137797D01*
X0354641Y0137797D02*
X0354641Y0131797D01*
X0353974Y0105618D02*
X0353974Y0099618D01*
X0362974Y0099618D02*
X0362974Y0105618D01*
X0371974Y0105618D02*
X0371974Y0099618D01*
X0371111Y0075610D02*
X0371111Y0069610D01*
X0362111Y0069610D02*
X0362111Y0075610D01*
X0353111Y0075610D02*
X0353111Y0069610D01*
D33*
X0343849Y0047173D03*
D34*
X0353849Y0047173D03*
X0363849Y0047173D03*
D35*
X0166361Y0182197D03*
X0156361Y0182197D03*
X0137692Y0181769D03*
X0127692Y0181769D03*
D36*
X0084427Y0150405D03*
X0084427Y0133905D03*
X0084427Y0117405D03*
X0084427Y0100905D03*
X0062727Y0117405D03*
X0062727Y0133905D03*
X0062727Y0150405D03*
D37*
X0062727Y0100905D03*
D38*
X0033987Y0100905D03*
X0033987Y0150405D03*
D39*
X0195714Y0301302D03*
X0195714Y0331302D03*
X0184383Y0350965D03*
X0154383Y0350965D03*
X0140721Y0346299D03*
X0110721Y0346299D03*
X0098390Y0345967D03*
X0080725Y0350634D03*
X0080725Y0320634D03*
X0098390Y0315967D03*
D40*
X0091391Y0296638D03*
X0099723Y0288638D03*
X0117116Y0271174D03*
X0112687Y0266744D03*
X0108389Y0254975D03*
X0126082Y0267013D03*
X0130337Y0270748D03*
X0133053Y0292638D03*
X0155051Y0304637D03*
X0183048Y0266641D03*
X0181715Y0261974D03*
X0185382Y0247642D03*
X0181715Y0221645D03*
X0160849Y0212787D03*
X0151385Y0217645D03*
X0096724Y0220645D03*
X0026064Y0316302D03*
X0052728Y0328634D03*
X0051728Y0364297D03*
X0184715Y0342300D03*
X0202187Y0304213D03*
X0242709Y0260308D03*
X0248042Y0259974D03*
X0298704Y0069994D03*
X0303037Y0054995D03*
X0306370Y0041996D03*
X0316369Y0041996D03*
X0156051Y0037330D03*
X0144386Y0041996D03*
X0123721Y0047662D03*
X0107389Y0040330D03*
D41*
X0066361Y0060118D03*
X0058487Y0075866D03*
X0210463Y0217636D03*
X0225809Y0236950D03*
X0213998Y0251063D03*
X0223841Y0290433D03*
X0194838Y0310118D03*
X0147132Y0249094D03*
X0036833Y0302113D03*
X0013211Y0268780D03*
D42*
X0076203Y0040433D03*
M02*
