G75*
%MOIN*%
%OFA0B0*%
%FSLAX25Y25*%
%IPPOS*%
%LPD*%
%AMOC8*
5,1,8,0,0,1.08239X$1,22.5*
%
%ADD10C,0.00400*%
%ADD11C,0.00600*%
%ADD12C,0.00800*%
%ADD13C,0.01100*%
%ADD14R,0.05906X0.09843*%
%ADD15C,0.01000*%
%ADD16C,0.01682*%
%ADD17C,0.00500*%
D10*
X0182796Y0215830D02*
X0182796Y0219233D01*
X0182796Y0220894D02*
X0187900Y0220894D01*
X0190195Y0221745D02*
X0191046Y0221745D01*
X0192747Y0221745D02*
X0196150Y0221745D01*
X0196150Y0220894D02*
X0196150Y0222596D01*
X0196150Y0224270D02*
X0196150Y0226823D01*
X0195299Y0227673D01*
X0193598Y0227673D01*
X0192747Y0226823D01*
X0192747Y0224270D01*
X0197851Y0224270D01*
X0195299Y0230186D02*
X0196150Y0231036D01*
X0195299Y0230186D02*
X0191896Y0230186D01*
X0192747Y0231036D02*
X0192747Y0229335D01*
X0192747Y0232711D02*
X0192747Y0233562D01*
X0196150Y0233562D01*
X0196150Y0234412D02*
X0196150Y0232711D01*
X0195299Y0236087D02*
X0193598Y0236087D01*
X0192747Y0236938D01*
X0192747Y0239490D01*
X0191046Y0239490D02*
X0196150Y0239490D01*
X0196150Y0236938D01*
X0195299Y0236087D01*
X0191046Y0233562D02*
X0190195Y0233562D01*
X0187049Y0236087D02*
X0187900Y0236938D01*
X0187900Y0238639D01*
X0187049Y0239490D01*
X0182796Y0239490D01*
X0184497Y0241152D02*
X0184497Y0243704D01*
X0185348Y0244554D01*
X0187900Y0244554D01*
X0187049Y0246216D02*
X0185348Y0246216D01*
X0184497Y0247067D01*
X0184497Y0249619D01*
X0182796Y0249619D02*
X0187900Y0249619D01*
X0187900Y0247067D01*
X0187049Y0246216D01*
X0187049Y0251280D02*
X0185348Y0251280D01*
X0184497Y0252131D01*
X0184497Y0253832D01*
X0185348Y0254683D01*
X0186199Y0254683D01*
X0186199Y0251280D01*
X0187049Y0251280D02*
X0187900Y0252131D01*
X0187900Y0253832D01*
X0187900Y0256344D02*
X0184497Y0256344D01*
X0186199Y0256344D02*
X0184497Y0258046D01*
X0184497Y0258897D01*
X0184497Y0260565D02*
X0187049Y0260565D01*
X0187900Y0261415D01*
X0187049Y0262266D01*
X0187900Y0263117D01*
X0187049Y0263968D01*
X0184497Y0263968D01*
X0184497Y0266480D02*
X0184497Y0268181D01*
X0185348Y0269032D01*
X0187900Y0269032D01*
X0187900Y0266480D01*
X0187049Y0265629D01*
X0186199Y0266480D01*
X0186199Y0269032D01*
X0184497Y0270693D02*
X0184497Y0272395D01*
X0183646Y0271544D02*
X0187049Y0271544D01*
X0187900Y0272395D01*
X0187049Y0274070D02*
X0185348Y0274070D01*
X0184497Y0274920D01*
X0184497Y0276622D01*
X0185348Y0277473D01*
X0186199Y0277473D01*
X0186199Y0274070D01*
X0187049Y0274070D02*
X0187900Y0274920D01*
X0187900Y0276622D01*
X0187900Y0279134D02*
X0184497Y0279134D01*
X0184497Y0280835D02*
X0184497Y0281686D01*
X0184497Y0280835D02*
X0186199Y0279134D01*
X0191896Y0277453D02*
X0195299Y0277453D01*
X0196150Y0278303D01*
X0195299Y0280829D02*
X0191896Y0280829D01*
X0192747Y0281679D02*
X0192747Y0279978D01*
X0192747Y0278303D02*
X0192747Y0276602D01*
X0193598Y0274940D02*
X0192747Y0274090D01*
X0192747Y0272388D01*
X0194449Y0272388D02*
X0195299Y0271537D01*
X0196150Y0272388D01*
X0196150Y0274940D01*
X0193598Y0274940D01*
X0194449Y0274940D02*
X0194449Y0272388D01*
X0194449Y0269876D02*
X0195299Y0269876D01*
X0196150Y0269025D01*
X0196150Y0266473D01*
X0191046Y0266473D01*
X0191046Y0269025D01*
X0191896Y0269876D01*
X0192747Y0269876D01*
X0193598Y0269025D01*
X0193598Y0266473D01*
X0193598Y0269025D02*
X0194449Y0269876D01*
X0193598Y0259747D02*
X0193598Y0256345D01*
X0193598Y0254683D02*
X0193598Y0251280D01*
X0193598Y0244554D02*
X0194449Y0244554D01*
X0194449Y0241152D01*
X0195299Y0241152D02*
X0193598Y0241152D01*
X0192747Y0242002D01*
X0192747Y0243704D01*
X0193598Y0244554D01*
X0196150Y0243704D02*
X0196150Y0242002D01*
X0195299Y0241152D01*
X0187900Y0241152D02*
X0184497Y0241152D01*
X0182796Y0236087D02*
X0187049Y0236087D01*
X0186199Y0229361D02*
X0186199Y0225959D01*
X0187049Y0225959D02*
X0185348Y0225959D01*
X0184497Y0226809D01*
X0184497Y0228511D01*
X0185348Y0229361D01*
X0186199Y0229361D01*
X0187900Y0228511D02*
X0187900Y0226809D01*
X0187049Y0225959D01*
X0187900Y0224297D02*
X0185348Y0224297D01*
X0184497Y0223446D01*
X0184497Y0221745D01*
X0185348Y0220894D01*
X0187900Y0217531D02*
X0182796Y0217531D01*
X0191046Y0218382D02*
X0191896Y0219233D01*
X0193598Y0219233D01*
X0194449Y0218382D01*
X0194449Y0215830D01*
X0196150Y0215830D02*
X0191046Y0215830D01*
X0191046Y0218382D01*
X0192747Y0220894D02*
X0192747Y0221745D01*
X0196150Y0219233D02*
X0194449Y0217531D01*
X0209796Y0217531D02*
X0214900Y0217531D01*
X0218046Y0216681D02*
X0218896Y0215830D01*
X0222299Y0215830D01*
X0223150Y0216681D01*
X0223150Y0218382D01*
X0222299Y0219233D01*
X0222299Y0220894D02*
X0220598Y0220894D01*
X0219747Y0221745D01*
X0219747Y0223446D01*
X0220598Y0224297D01*
X0221449Y0224297D01*
X0221449Y0220894D01*
X0222299Y0220894D02*
X0223150Y0221745D01*
X0223150Y0223446D01*
X0223150Y0225959D02*
X0219747Y0225959D01*
X0219747Y0228511D01*
X0220598Y0229361D01*
X0223150Y0229361D01*
X0222299Y0231874D02*
X0218896Y0231874D01*
X0219747Y0232724D02*
X0219747Y0231023D01*
X0222299Y0231874D02*
X0223150Y0232724D01*
X0222299Y0234399D02*
X0220598Y0234399D01*
X0219747Y0235250D01*
X0219747Y0236951D01*
X0220598Y0237802D01*
X0221449Y0237802D01*
X0221449Y0234399D01*
X0222299Y0234399D02*
X0223150Y0235250D01*
X0223150Y0236951D01*
X0223150Y0239463D02*
X0219747Y0239463D01*
X0221449Y0239463D02*
X0219747Y0241165D01*
X0219747Y0242016D01*
X0214900Y0241152D02*
X0209796Y0241152D01*
X0210646Y0239490D02*
X0209796Y0238639D01*
X0209796Y0236938D01*
X0210646Y0236087D01*
X0214049Y0236087D01*
X0214900Y0236938D01*
X0214900Y0238639D01*
X0214049Y0239490D01*
X0210646Y0239490D01*
X0212348Y0241152D02*
X0211497Y0242002D01*
X0211497Y0243704D01*
X0212348Y0244554D01*
X0214900Y0244554D01*
X0214900Y0246216D02*
X0214900Y0247917D01*
X0214900Y0247067D02*
X0211497Y0247067D01*
X0211497Y0246216D01*
X0209796Y0247067D02*
X0208945Y0247067D01*
X0211497Y0250443D02*
X0212348Y0249592D01*
X0214049Y0249592D01*
X0214900Y0250443D01*
X0214900Y0252144D01*
X0214049Y0252995D01*
X0212348Y0252995D01*
X0211497Y0252144D01*
X0211497Y0250443D01*
X0218046Y0250449D02*
X0218896Y0249599D01*
X0223150Y0249599D01*
X0222299Y0252124D02*
X0220598Y0252124D01*
X0219747Y0252975D01*
X0219747Y0254676D01*
X0220598Y0255527D01*
X0222299Y0255527D01*
X0223150Y0254676D01*
X0223150Y0252975D01*
X0222299Y0252124D01*
X0220598Y0250449D02*
X0220598Y0248748D01*
X0221449Y0257189D02*
X0219747Y0258890D01*
X0219747Y0259741D01*
X0219747Y0257189D02*
X0223150Y0257189D01*
X0214900Y0260571D02*
X0214049Y0259721D01*
X0214900Y0260571D02*
X0214900Y0262273D01*
X0214049Y0263124D01*
X0213199Y0263124D01*
X0212348Y0262273D01*
X0212348Y0260571D01*
X0211497Y0259721D01*
X0210646Y0259721D01*
X0209796Y0260571D01*
X0209796Y0262273D01*
X0210646Y0263124D01*
X0211497Y0264785D02*
X0211497Y0266486D01*
X0210646Y0265636D02*
X0214049Y0265636D01*
X0214900Y0266486D01*
X0214049Y0268161D02*
X0213199Y0269012D01*
X0213199Y0271564D01*
X0212348Y0271564D02*
X0214900Y0271564D01*
X0214900Y0269012D01*
X0214049Y0268161D01*
X0211497Y0269012D02*
X0211497Y0270713D01*
X0212348Y0271564D01*
X0211497Y0273226D02*
X0211497Y0274927D01*
X0210646Y0274076D02*
X0214049Y0274076D01*
X0214900Y0274927D01*
X0214049Y0276602D02*
X0212348Y0276602D01*
X0211497Y0277453D01*
X0211497Y0279154D01*
X0212348Y0280005D01*
X0213199Y0280005D01*
X0213199Y0276602D01*
X0214049Y0276602D02*
X0214900Y0277453D01*
X0214900Y0279154D01*
X0218896Y0277452D02*
X0222299Y0277452D01*
X0223150Y0278303D01*
X0222299Y0279978D02*
X0223150Y0280829D01*
X0223150Y0282530D01*
X0222299Y0283381D01*
X0220598Y0283381D01*
X0219747Y0282530D01*
X0219747Y0280829D01*
X0220598Y0279978D01*
X0222299Y0279978D01*
X0219747Y0278303D02*
X0219747Y0276602D01*
X0219747Y0274940D02*
X0223150Y0274940D01*
X0223150Y0272388D01*
X0222299Y0271537D01*
X0219747Y0271537D01*
X0219747Y0269876D02*
X0223150Y0269876D01*
X0220598Y0269876D02*
X0220598Y0266473D01*
X0219747Y0266473D02*
X0218046Y0268175D01*
X0219747Y0269876D01*
X0219747Y0266473D02*
X0223150Y0266473D01*
X0223150Y0285042D02*
X0219747Y0285042D01*
X0219747Y0285893D01*
X0220598Y0286744D01*
X0219747Y0287594D01*
X0220598Y0288445D01*
X0223150Y0288445D01*
X0223150Y0286744D02*
X0220598Y0286744D01*
X0220598Y0290107D02*
X0222299Y0290107D01*
X0223150Y0290957D01*
X0223150Y0292659D01*
X0222299Y0293510D01*
X0220598Y0293510D01*
X0219747Y0292659D01*
X0219747Y0290957D01*
X0220598Y0290107D01*
X0219747Y0295171D02*
X0219747Y0296872D01*
X0218896Y0296022D02*
X0222299Y0296022D01*
X0223150Y0296872D01*
X0223150Y0298547D02*
X0223150Y0300249D01*
X0223150Y0299398D02*
X0219747Y0299398D01*
X0219747Y0298547D01*
X0218046Y0299398D02*
X0217195Y0299398D01*
X0214900Y0298561D02*
X0214900Y0296859D01*
X0214900Y0297710D02*
X0211497Y0297710D01*
X0211497Y0296859D01*
X0212348Y0295198D02*
X0214900Y0295198D01*
X0212348Y0295198D02*
X0211497Y0294347D01*
X0211497Y0291795D01*
X0214900Y0291795D01*
X0214049Y0290133D02*
X0209796Y0290133D01*
X0209796Y0286730D02*
X0214049Y0286730D01*
X0214900Y0287581D01*
X0214900Y0289283D01*
X0214049Y0290133D01*
X0209796Y0297710D02*
X0208945Y0297710D01*
X0211497Y0300235D02*
X0214900Y0301937D01*
X0211497Y0303638D01*
X0212348Y0305300D02*
X0211497Y0306150D01*
X0211497Y0307852D01*
X0212348Y0308703D01*
X0213199Y0308703D01*
X0213199Y0305300D01*
X0214049Y0305300D02*
X0212348Y0305300D01*
X0214049Y0305300D02*
X0214900Y0306150D01*
X0214900Y0307852D01*
X0214900Y0310364D02*
X0211497Y0310364D01*
X0211497Y0312065D02*
X0211497Y0312916D01*
X0211497Y0312065D02*
X0213199Y0310364D01*
X0214900Y0314584D02*
X0214900Y0316286D01*
X0214900Y0315435D02*
X0211497Y0315435D01*
X0211497Y0314584D01*
X0209796Y0315435D02*
X0208945Y0315435D01*
X0211497Y0317960D02*
X0211497Y0319662D01*
X0210646Y0318811D02*
X0214049Y0318811D01*
X0214900Y0319662D01*
X0214049Y0321337D02*
X0211497Y0321337D01*
X0214049Y0321337D02*
X0214900Y0322187D01*
X0214900Y0324740D01*
X0215751Y0324740D02*
X0216601Y0323889D01*
X0216601Y0323038D01*
X0215751Y0324740D02*
X0211497Y0324740D01*
X0219747Y0324733D02*
X0220598Y0325584D01*
X0221449Y0325584D01*
X0221449Y0322181D01*
X0222299Y0322181D02*
X0220598Y0322181D01*
X0219747Y0323031D01*
X0219747Y0324733D01*
X0220598Y0327245D02*
X0219747Y0328096D01*
X0219747Y0330648D01*
X0220598Y0332309D02*
X0219747Y0333160D01*
X0219747Y0334861D01*
X0220598Y0335712D01*
X0221449Y0335712D01*
X0221449Y0332309D01*
X0222299Y0332309D02*
X0220598Y0332309D01*
X0222299Y0332309D02*
X0223150Y0333160D01*
X0223150Y0334861D01*
X0222299Y0337374D02*
X0221449Y0338224D01*
X0221449Y0340777D01*
X0220598Y0340777D02*
X0223150Y0340777D01*
X0223150Y0338224D01*
X0222299Y0337374D01*
X0219747Y0338224D02*
X0219747Y0339926D01*
X0220598Y0340777D01*
X0221449Y0342438D02*
X0219747Y0344139D01*
X0219747Y0344990D01*
X0220598Y0346658D02*
X0222299Y0346658D01*
X0223150Y0347509D01*
X0223150Y0350061D01*
X0223150Y0351723D02*
X0218046Y0351723D01*
X0219747Y0352573D02*
X0219747Y0354275D01*
X0220598Y0355125D01*
X0223150Y0355125D01*
X0220598Y0351723D02*
X0219747Y0352573D01*
X0219747Y0350061D02*
X0219747Y0347509D01*
X0220598Y0346658D01*
X0219747Y0342438D02*
X0223150Y0342438D01*
X0222299Y0330648D02*
X0221449Y0329797D01*
X0221449Y0328096D01*
X0220598Y0327245D01*
X0223150Y0327245D02*
X0223150Y0329797D01*
X0222299Y0330648D01*
X0223150Y0324733D02*
X0223150Y0323031D01*
X0222299Y0322181D01*
X0223150Y0320519D02*
X0221449Y0318818D01*
X0221449Y0319669D02*
X0221449Y0317116D01*
X0223150Y0317116D02*
X0218046Y0317116D01*
X0218046Y0319669D01*
X0218896Y0320519D01*
X0220598Y0320519D01*
X0221449Y0319669D01*
X0221449Y0310391D02*
X0221449Y0306988D01*
X0222299Y0306988D02*
X0220598Y0306988D01*
X0219747Y0307838D01*
X0219747Y0309540D01*
X0220598Y0310391D01*
X0221449Y0310391D01*
X0223150Y0309540D02*
X0223150Y0307838D01*
X0222299Y0306988D01*
X0219747Y0305326D02*
X0223150Y0303625D01*
X0219747Y0301923D01*
X0197851Y0295191D02*
X0197851Y0294340D01*
X0197851Y0295191D02*
X0197001Y0296042D01*
X0192747Y0296042D01*
X0196150Y0296042D02*
X0196150Y0293490D01*
X0195299Y0292639D01*
X0192747Y0292639D01*
X0192747Y0290971D02*
X0192747Y0290120D01*
X0194449Y0288419D01*
X0194449Y0286757D02*
X0194449Y0283354D01*
X0195299Y0283354D02*
X0193598Y0283354D01*
X0192747Y0284205D01*
X0192747Y0285906D01*
X0193598Y0286757D01*
X0194449Y0286757D01*
X0196150Y0285906D02*
X0196150Y0284205D01*
X0195299Y0283354D01*
X0196150Y0281679D02*
X0195299Y0280829D01*
X0196150Y0288419D02*
X0192747Y0288419D01*
X0187900Y0288419D02*
X0182796Y0288419D01*
X0182796Y0290971D01*
X0183646Y0291821D01*
X0185348Y0291821D01*
X0186199Y0290971D01*
X0186199Y0288419D01*
X0186199Y0290120D02*
X0187900Y0291821D01*
X0187049Y0293483D02*
X0187900Y0294334D01*
X0187900Y0296035D01*
X0187049Y0296886D01*
X0185348Y0296886D01*
X0184497Y0296035D01*
X0184497Y0294334D01*
X0185348Y0293483D01*
X0187049Y0293483D01*
X0187900Y0298547D02*
X0182796Y0298547D01*
X0184497Y0298547D02*
X0184497Y0301099D01*
X0185348Y0301950D01*
X0187049Y0301950D01*
X0187900Y0301099D01*
X0187900Y0298547D01*
X0187049Y0303611D02*
X0187900Y0304462D01*
X0187900Y0306164D01*
X0187049Y0307014D01*
X0185348Y0307014D01*
X0184497Y0306164D01*
X0184497Y0304462D01*
X0185348Y0303611D01*
X0187049Y0303611D01*
X0191046Y0302767D02*
X0191046Y0305320D01*
X0191896Y0306170D01*
X0192747Y0306170D01*
X0193598Y0305320D01*
X0193598Y0302767D01*
X0196150Y0302767D02*
X0196150Y0305320D01*
X0195299Y0306170D01*
X0194449Y0306170D01*
X0193598Y0305320D01*
X0195299Y0307832D02*
X0194449Y0308682D01*
X0194449Y0311235D01*
X0193598Y0311235D02*
X0196150Y0311235D01*
X0196150Y0308682D01*
X0195299Y0307832D01*
X0192747Y0308682D02*
X0192747Y0310384D01*
X0193598Y0311235D01*
X0196150Y0312896D02*
X0196150Y0314598D01*
X0196150Y0313747D02*
X0191046Y0313747D01*
X0191046Y0312896D01*
X0187900Y0312903D02*
X0184497Y0312903D01*
X0184497Y0312052D01*
X0184497Y0310377D02*
X0184497Y0308676D01*
X0183646Y0309527D02*
X0187049Y0309527D01*
X0187900Y0310377D01*
X0187900Y0312052D02*
X0187900Y0313753D01*
X0187049Y0315428D02*
X0187900Y0316279D01*
X0187900Y0318831D01*
X0187900Y0320493D02*
X0187900Y0323045D01*
X0187049Y0323895D01*
X0186199Y0323045D01*
X0186199Y0321343D01*
X0185348Y0320493D01*
X0184497Y0321343D01*
X0184497Y0323895D01*
X0184497Y0318831D02*
X0184497Y0316279D01*
X0185348Y0315428D01*
X0187049Y0315428D01*
X0182796Y0312903D02*
X0181945Y0312903D01*
X0192747Y0317123D02*
X0192747Y0318824D01*
X0193598Y0319675D01*
X0196150Y0319675D01*
X0196150Y0317123D01*
X0195299Y0316272D01*
X0194449Y0317123D01*
X0194449Y0319675D01*
X0196150Y0321337D02*
X0192747Y0321337D01*
X0192747Y0323889D01*
X0193598Y0324740D01*
X0196150Y0324740D01*
X0195299Y0326401D02*
X0196150Y0327252D01*
X0196150Y0329804D01*
X0195299Y0331465D02*
X0193598Y0331465D01*
X0192747Y0332316D01*
X0192747Y0334017D01*
X0193598Y0334868D01*
X0194449Y0334868D01*
X0194449Y0331465D01*
X0195299Y0331465D02*
X0196150Y0332316D01*
X0196150Y0334017D01*
X0196150Y0336530D02*
X0192747Y0336530D01*
X0192747Y0338231D02*
X0192747Y0339082D01*
X0192747Y0338231D02*
X0194449Y0336530D01*
X0192747Y0329804D02*
X0192747Y0327252D01*
X0193598Y0326401D01*
X0195299Y0326401D01*
X0187900Y0332323D02*
X0182796Y0332323D01*
X0182796Y0334024D02*
X0182796Y0330621D01*
X0185348Y0335686D02*
X0184497Y0336536D01*
X0184497Y0338238D01*
X0185348Y0339088D01*
X0186199Y0339088D01*
X0186199Y0335686D01*
X0187049Y0335686D02*
X0185348Y0335686D01*
X0187049Y0335686D02*
X0187900Y0336536D01*
X0187900Y0338238D01*
X0187049Y0340750D02*
X0186199Y0341601D01*
X0186199Y0344153D01*
X0185348Y0344153D02*
X0187900Y0344153D01*
X0187900Y0341601D01*
X0187049Y0340750D01*
X0184497Y0341601D02*
X0184497Y0343302D01*
X0185348Y0344153D01*
X0184497Y0345814D02*
X0184497Y0346665D01*
X0185348Y0347516D01*
X0184497Y0348366D01*
X0185348Y0349217D01*
X0187900Y0349217D01*
X0187900Y0347516D02*
X0185348Y0347516D01*
X0184497Y0345814D02*
X0187900Y0345814D01*
X0186654Y0380700D02*
X0187521Y0381567D01*
X0187521Y0384170D01*
X0189208Y0383302D02*
X0190075Y0384170D01*
X0191810Y0384170D01*
X0192678Y0383302D01*
X0192678Y0382435D01*
X0189208Y0382435D01*
X0189208Y0383302D02*
X0189208Y0381567D01*
X0190075Y0380700D01*
X0191810Y0380700D01*
X0194364Y0380700D02*
X0194364Y0384170D01*
X0196099Y0384170D02*
X0196967Y0384170D01*
X0196099Y0384170D02*
X0194364Y0382435D01*
X0186654Y0380700D02*
X0185786Y0381567D01*
X0184919Y0380700D01*
X0184052Y0381567D01*
X0184052Y0384170D01*
X0182365Y0383302D02*
X0181497Y0384170D01*
X0179763Y0384170D01*
X0178895Y0383302D01*
X0178895Y0381567D01*
X0179763Y0380700D01*
X0181497Y0380700D01*
X0182365Y0381567D01*
X0182365Y0383302D01*
X0177208Y0383302D02*
X0176341Y0382435D01*
X0173739Y0382435D01*
X0173739Y0380700D02*
X0173739Y0385904D01*
X0176341Y0385904D01*
X0177208Y0385037D01*
X0177208Y0383302D01*
X0166896Y0384170D02*
X0164293Y0384170D01*
X0163426Y0383302D01*
X0163426Y0381567D01*
X0164293Y0380700D01*
X0166896Y0380700D01*
X0166896Y0385904D01*
X0161739Y0383302D02*
X0161739Y0382435D01*
X0158270Y0382435D01*
X0158270Y0383302D02*
X0159137Y0384170D01*
X0160872Y0384170D01*
X0161739Y0383302D01*
X0160872Y0380700D02*
X0159137Y0380700D01*
X0158270Y0381567D01*
X0158270Y0383302D01*
X0156583Y0384170D02*
X0153981Y0384170D01*
X0153113Y0383302D01*
X0153113Y0381567D01*
X0153981Y0380700D01*
X0156583Y0380700D01*
X0151426Y0380700D02*
X0151426Y0383302D01*
X0150559Y0384170D01*
X0147957Y0384170D01*
X0147957Y0380700D01*
X0146270Y0380700D02*
X0143668Y0380700D01*
X0142800Y0381567D01*
X0143668Y0382435D01*
X0146270Y0382435D01*
X0146270Y0383302D02*
X0146270Y0380700D01*
X0146270Y0383302D02*
X0145403Y0384170D01*
X0143668Y0384170D01*
X0140230Y0385904D02*
X0140230Y0380700D01*
X0139363Y0380700D02*
X0141098Y0380700D01*
X0137676Y0380700D02*
X0137676Y0383302D01*
X0136809Y0384170D01*
X0135074Y0384170D01*
X0135074Y0382435D02*
X0137676Y0382435D01*
X0137676Y0380700D02*
X0135074Y0380700D01*
X0134206Y0381567D01*
X0135074Y0382435D01*
X0132520Y0382435D02*
X0132520Y0381567D01*
X0131652Y0380700D01*
X0129050Y0380700D01*
X0129050Y0385904D01*
X0131652Y0385904D01*
X0132520Y0385037D01*
X0132520Y0384170D01*
X0131652Y0383302D01*
X0129050Y0383302D01*
X0131652Y0383302D02*
X0132520Y0382435D01*
X0139363Y0385904D02*
X0140230Y0385904D01*
X0084982Y0386170D02*
X0084114Y0386170D01*
X0082379Y0384435D01*
X0080693Y0384435D02*
X0077223Y0384435D01*
X0077223Y0385302D02*
X0078090Y0386170D01*
X0079825Y0386170D01*
X0080693Y0385302D01*
X0080693Y0384435D01*
X0079825Y0382700D02*
X0078090Y0382700D01*
X0077223Y0383567D01*
X0077223Y0385302D01*
X0075536Y0386170D02*
X0075536Y0383567D01*
X0074669Y0382700D01*
X0073801Y0383567D01*
X0072934Y0382700D01*
X0072067Y0383567D01*
X0072067Y0386170D01*
X0070380Y0385302D02*
X0069512Y0386170D01*
X0067778Y0386170D01*
X0066910Y0385302D01*
X0066910Y0383567D01*
X0067778Y0382700D01*
X0069512Y0382700D01*
X0070380Y0383567D01*
X0070380Y0385302D01*
X0065223Y0385302D02*
X0065223Y0387037D01*
X0064356Y0387904D01*
X0061754Y0387904D01*
X0061754Y0382700D01*
X0061754Y0384435D02*
X0064356Y0384435D01*
X0065223Y0385302D01*
X0054903Y0386170D02*
X0054035Y0386170D01*
X0052300Y0384435D01*
X0050614Y0384435D02*
X0048011Y0384435D01*
X0047144Y0383567D01*
X0048011Y0382700D01*
X0050614Y0382700D01*
X0050614Y0385302D01*
X0049746Y0386170D01*
X0048011Y0386170D01*
X0045441Y0386170D02*
X0043706Y0386170D01*
X0044574Y0387037D02*
X0044574Y0383567D01*
X0045441Y0382700D01*
X0042020Y0383567D02*
X0041152Y0382700D01*
X0039417Y0382700D01*
X0038550Y0383567D01*
X0039417Y0385302D02*
X0041152Y0385302D01*
X0042020Y0384435D01*
X0042020Y0383567D01*
X0039417Y0385302D02*
X0038550Y0386170D01*
X0038550Y0387037D01*
X0039417Y0387904D01*
X0041152Y0387904D01*
X0042020Y0387037D01*
X0052300Y0386170D02*
X0052300Y0382700D01*
X0082379Y0382700D02*
X0082379Y0386170D01*
X0191046Y0302767D02*
X0196150Y0302767D01*
X0212348Y0229361D02*
X0213199Y0229361D01*
X0213199Y0225959D01*
X0214049Y0225959D02*
X0212348Y0225959D01*
X0211497Y0226809D01*
X0211497Y0228511D01*
X0212348Y0229361D01*
X0214900Y0228511D02*
X0214900Y0226809D01*
X0214049Y0225959D01*
X0214900Y0224297D02*
X0212348Y0224297D01*
X0211497Y0223446D01*
X0211497Y0221745D01*
X0212348Y0220894D01*
X0209796Y0220894D02*
X0214900Y0220894D01*
X0218046Y0218382D02*
X0218046Y0216681D01*
X0218046Y0218382D02*
X0218896Y0219233D01*
X0209796Y0219233D02*
X0209796Y0215830D01*
X0276567Y0132172D02*
X0275800Y0131405D01*
X0275800Y0129870D01*
X0276567Y0129103D01*
X0279637Y0129103D01*
X0280404Y0129870D01*
X0280404Y0131405D01*
X0279637Y0132172D01*
X0279637Y0127568D02*
X0276567Y0127568D01*
X0275800Y0126801D01*
X0275800Y0124499D01*
X0280404Y0124499D01*
X0280404Y0126801D01*
X0279637Y0127568D01*
X0280404Y0122964D02*
X0277335Y0122964D01*
X0275800Y0121430D01*
X0277335Y0119895D01*
X0280404Y0119895D01*
X0278102Y0119895D02*
X0278102Y0122964D01*
X0270783Y0104982D02*
X0268180Y0104982D01*
X0270783Y0104982D02*
X0271650Y0104115D01*
X0270783Y0103248D01*
X0271650Y0102380D01*
X0270783Y0101513D01*
X0268180Y0101513D01*
X0269048Y0099826D02*
X0268180Y0098959D01*
X0268180Y0097224D01*
X0269048Y0096356D01*
X0270783Y0096356D01*
X0271650Y0097224D01*
X0271650Y0098959D01*
X0270783Y0099826D01*
X0269048Y0099826D01*
X0271650Y0094670D02*
X0271650Y0091200D01*
X0266446Y0091200D01*
X0269048Y0080420D02*
X0271650Y0080420D01*
X0269048Y0080420D02*
X0268180Y0079553D01*
X0268180Y0077818D01*
X0269048Y0076950D01*
X0268180Y0075264D02*
X0268180Y0072661D01*
X0269048Y0071794D01*
X0270783Y0071794D01*
X0271650Y0072661D01*
X0271650Y0075264D01*
X0272517Y0075264D02*
X0268180Y0075264D01*
X0266446Y0076950D02*
X0271650Y0076950D01*
X0272517Y0075264D02*
X0273385Y0074396D01*
X0273385Y0073529D01*
X0271650Y0070091D02*
X0271650Y0068356D01*
X0271650Y0069224D02*
X0268180Y0069224D01*
X0268180Y0068356D01*
X0269048Y0066670D02*
X0269048Y0063200D01*
X0271650Y0063200D02*
X0266446Y0063200D01*
X0266446Y0066670D02*
X0271650Y0066670D01*
X0266446Y0069224D02*
X0265578Y0069224D01*
X0279446Y0054959D02*
X0280313Y0055826D01*
X0283783Y0052356D01*
X0284650Y0053224D01*
X0284650Y0054959D01*
X0283783Y0055826D01*
X0280313Y0055826D01*
X0279446Y0054959D02*
X0279446Y0053224D01*
X0280313Y0052356D01*
X0283783Y0052356D01*
X0284650Y0050670D02*
X0281180Y0050670D01*
X0279446Y0048935D01*
X0281180Y0047200D01*
X0284650Y0047200D01*
X0282048Y0047200D02*
X0282048Y0050670D01*
X0290946Y0048935D02*
X0292680Y0047200D01*
X0296150Y0047200D01*
X0293548Y0047200D02*
X0293548Y0050670D01*
X0292680Y0050670D02*
X0296150Y0050670D01*
X0296150Y0052356D02*
X0296150Y0055826D01*
X0296150Y0054091D02*
X0290946Y0054091D01*
X0292680Y0052356D01*
X0292680Y0050670D02*
X0290946Y0048935D01*
X0305946Y0050935D02*
X0307680Y0052670D01*
X0311150Y0052670D01*
X0310283Y0054356D02*
X0308548Y0054356D01*
X0307680Y0055224D01*
X0307680Y0057826D01*
X0305946Y0057826D02*
X0311150Y0057826D01*
X0311150Y0055224D01*
X0310283Y0054356D01*
X0308548Y0052670D02*
X0308548Y0049200D01*
X0307680Y0049200D02*
X0305946Y0050935D01*
X0307680Y0049200D02*
X0311150Y0049200D01*
X0310283Y0059513D02*
X0308548Y0059513D01*
X0307680Y0060380D01*
X0307680Y0062982D01*
X0307680Y0064669D02*
X0311150Y0064669D01*
X0311150Y0062982D02*
X0311150Y0060380D01*
X0310283Y0059513D01*
X0311150Y0062982D02*
X0305946Y0062982D01*
X0307680Y0066404D02*
X0307680Y0067271D01*
X0307680Y0066404D02*
X0309415Y0064669D01*
X0309415Y0068966D02*
X0309415Y0072436D01*
X0308548Y0072436D01*
X0307680Y0071568D01*
X0307680Y0069834D01*
X0308548Y0068966D01*
X0310283Y0068966D01*
X0311150Y0069834D01*
X0311150Y0071568D01*
X0311150Y0074123D02*
X0311150Y0076725D01*
X0310283Y0077592D01*
X0309415Y0076725D01*
X0309415Y0074990D01*
X0308548Y0074123D01*
X0307680Y0074990D01*
X0307680Y0077592D01*
X0308548Y0079279D02*
X0307680Y0080146D01*
X0307680Y0082749D01*
X0309415Y0081881D02*
X0309415Y0080146D01*
X0308548Y0079279D01*
X0311150Y0079279D02*
X0311150Y0081881D01*
X0310283Y0082749D01*
X0309415Y0081881D01*
X0309415Y0089592D02*
X0309415Y0092194D01*
X0308548Y0093061D01*
X0306813Y0093061D01*
X0305946Y0092194D01*
X0305946Y0089592D01*
X0311150Y0089592D01*
X0309415Y0091327D02*
X0311150Y0093061D01*
X0310283Y0094748D02*
X0308548Y0094748D01*
X0307680Y0095616D01*
X0307680Y0097350D01*
X0308548Y0098218D01*
X0309415Y0098218D01*
X0309415Y0094748D01*
X0310283Y0094748D02*
X0311150Y0095616D01*
X0311150Y0097350D01*
X0311150Y0099905D02*
X0311150Y0102507D01*
X0310283Y0103374D01*
X0309415Y0102507D01*
X0309415Y0100772D01*
X0308548Y0099905D01*
X0307680Y0100772D01*
X0307680Y0103374D01*
X0307680Y0105061D02*
X0307680Y0105928D01*
X0311150Y0105928D01*
X0311150Y0105061D02*
X0311150Y0106796D01*
X0311150Y0108499D02*
X0311150Y0111101D01*
X0310283Y0111968D01*
X0309415Y0111101D01*
X0309415Y0109366D01*
X0308548Y0108499D01*
X0307680Y0109366D01*
X0307680Y0111968D01*
X0307680Y0113655D02*
X0307680Y0115390D01*
X0306813Y0114522D02*
X0310283Y0114522D01*
X0311150Y0115390D01*
X0310283Y0117093D02*
X0311150Y0117960D01*
X0311150Y0119695D01*
X0310283Y0120562D01*
X0308548Y0120562D01*
X0307680Y0119695D01*
X0307680Y0117960D01*
X0308548Y0117093D01*
X0310283Y0117093D01*
X0311150Y0122249D02*
X0307680Y0122249D01*
X0307680Y0123984D02*
X0307680Y0124851D01*
X0307680Y0123984D02*
X0309415Y0122249D01*
X0308548Y0126546D02*
X0307680Y0127413D01*
X0307680Y0130016D01*
X0309415Y0129148D02*
X0309415Y0127413D01*
X0308548Y0126546D01*
X0311150Y0126546D02*
X0311150Y0129148D01*
X0310283Y0130016D01*
X0309415Y0129148D01*
X0305946Y0105928D02*
X0305078Y0105928D01*
X0294490Y0381700D02*
X0294490Y0384302D01*
X0293622Y0385170D01*
X0291887Y0385170D01*
X0291020Y0384302D01*
X0289333Y0385170D02*
X0286731Y0385170D01*
X0285864Y0384302D01*
X0285864Y0382567D01*
X0286731Y0381700D01*
X0289333Y0381700D01*
X0291020Y0381700D02*
X0291020Y0386904D01*
X0284161Y0385170D02*
X0282426Y0385170D01*
X0283293Y0386037D02*
X0283293Y0382567D01*
X0284161Y0381700D01*
X0280723Y0381700D02*
X0278988Y0381700D01*
X0279856Y0381700D02*
X0279856Y0385170D01*
X0278988Y0385170D01*
X0277302Y0385170D02*
X0277302Y0382567D01*
X0276434Y0381700D01*
X0275567Y0382567D01*
X0274699Y0381700D01*
X0273832Y0382567D01*
X0273832Y0385170D01*
X0272145Y0386037D02*
X0271278Y0386904D01*
X0269543Y0386904D01*
X0268676Y0386037D01*
X0268676Y0385170D01*
X0269543Y0384302D01*
X0271278Y0384302D01*
X0272145Y0383435D01*
X0272145Y0382567D01*
X0271278Y0381700D01*
X0269543Y0381700D01*
X0268676Y0382567D01*
X0261816Y0381700D02*
X0260082Y0381700D01*
X0260949Y0381700D02*
X0260949Y0386904D01*
X0260082Y0386904D01*
X0257511Y0386904D02*
X0257511Y0381700D01*
X0256644Y0381700D02*
X0258379Y0381700D01*
X0254941Y0381700D02*
X0253206Y0381700D01*
X0254074Y0381700D02*
X0254074Y0385170D01*
X0253206Y0385170D01*
X0254074Y0386904D02*
X0254074Y0387772D01*
X0251520Y0386904D02*
X0248050Y0383435D01*
X0248917Y0384302D02*
X0251520Y0381700D01*
X0248050Y0381700D02*
X0248050Y0386904D01*
X0256644Y0386904D02*
X0257511Y0386904D01*
X0279856Y0386904D02*
X0279856Y0387772D01*
X0331050Y0385904D02*
X0331050Y0380700D01*
X0331050Y0382435D02*
X0333652Y0382435D01*
X0334520Y0383302D01*
X0334520Y0385037D01*
X0333652Y0385904D01*
X0331050Y0385904D01*
X0336206Y0383302D02*
X0336206Y0381567D01*
X0337074Y0380700D01*
X0338809Y0380700D01*
X0339676Y0381567D01*
X0339676Y0383302D01*
X0338809Y0384170D01*
X0337074Y0384170D01*
X0336206Y0383302D01*
X0341363Y0382435D02*
X0343098Y0384170D01*
X0343965Y0384170D01*
X0345660Y0384170D02*
X0347395Y0384170D01*
X0346527Y0385037D02*
X0346527Y0381567D01*
X0347395Y0380700D01*
X0354254Y0380700D02*
X0354254Y0385904D01*
X0356856Y0385904D01*
X0357723Y0385037D01*
X0357723Y0383302D01*
X0356856Y0382435D01*
X0354254Y0382435D01*
X0359410Y0383302D02*
X0359410Y0381567D01*
X0360278Y0380700D01*
X0362012Y0380700D01*
X0362880Y0381567D01*
X0362880Y0383302D01*
X0362012Y0384170D01*
X0360278Y0384170D01*
X0359410Y0383302D01*
X0364567Y0384170D02*
X0364567Y0381567D01*
X0365434Y0380700D01*
X0366301Y0381567D01*
X0367169Y0380700D01*
X0368036Y0381567D01*
X0368036Y0384170D01*
X0369723Y0383302D02*
X0370590Y0384170D01*
X0372325Y0384170D01*
X0373193Y0383302D01*
X0373193Y0382435D01*
X0369723Y0382435D01*
X0369723Y0383302D02*
X0369723Y0381567D01*
X0370590Y0380700D01*
X0372325Y0380700D01*
X0374879Y0380700D02*
X0374879Y0384170D01*
X0376614Y0384170D02*
X0377482Y0384170D01*
X0376614Y0384170D02*
X0374879Y0382435D01*
X0341363Y0380700D02*
X0341363Y0384170D01*
D11*
X0336970Y0375593D02*
X0335470Y0375593D01*
X0335410Y0375591D01*
X0335349Y0375586D01*
X0335290Y0375577D01*
X0335231Y0375564D01*
X0335172Y0375548D01*
X0335115Y0375528D01*
X0335060Y0375505D01*
X0335005Y0375478D01*
X0334953Y0375449D01*
X0334902Y0375416D01*
X0334853Y0375380D01*
X0334807Y0375342D01*
X0334763Y0375300D01*
X0334721Y0375256D01*
X0334683Y0375210D01*
X0334647Y0375161D01*
X0334614Y0375110D01*
X0334585Y0375058D01*
X0334558Y0375003D01*
X0334535Y0374948D01*
X0334515Y0374891D01*
X0334499Y0374832D01*
X0334486Y0374773D01*
X0334477Y0374714D01*
X0334472Y0374653D01*
X0334470Y0374593D01*
X0336970Y0375593D02*
X0337470Y0375093D01*
X0356470Y0375093D01*
X0356970Y0375593D01*
X0358470Y0375593D01*
X0358530Y0375591D01*
X0358591Y0375586D01*
X0358650Y0375577D01*
X0358709Y0375564D01*
X0358768Y0375548D01*
X0358825Y0375528D01*
X0358880Y0375505D01*
X0358935Y0375478D01*
X0358987Y0375449D01*
X0359038Y0375416D01*
X0359087Y0375380D01*
X0359133Y0375342D01*
X0359177Y0375300D01*
X0359219Y0375256D01*
X0359257Y0375210D01*
X0359293Y0375161D01*
X0359326Y0375110D01*
X0359355Y0375058D01*
X0359382Y0375003D01*
X0359405Y0374948D01*
X0359425Y0374891D01*
X0359441Y0374832D01*
X0359454Y0374773D01*
X0359463Y0374714D01*
X0359468Y0374653D01*
X0359470Y0374593D01*
X0359470Y0367593D02*
X0359468Y0367533D01*
X0359463Y0367472D01*
X0359454Y0367413D01*
X0359441Y0367354D01*
X0359425Y0367295D01*
X0359405Y0367238D01*
X0359382Y0367183D01*
X0359355Y0367128D01*
X0359326Y0367076D01*
X0359293Y0367025D01*
X0359257Y0366976D01*
X0359219Y0366930D01*
X0359177Y0366886D01*
X0359133Y0366844D01*
X0359087Y0366806D01*
X0359038Y0366770D01*
X0358987Y0366737D01*
X0358935Y0366708D01*
X0358880Y0366681D01*
X0358825Y0366658D01*
X0358768Y0366638D01*
X0358709Y0366622D01*
X0358650Y0366609D01*
X0358591Y0366600D01*
X0358530Y0366595D01*
X0358470Y0366593D01*
X0356970Y0366593D01*
X0356470Y0367093D01*
X0337470Y0367093D01*
X0336970Y0366593D01*
X0335470Y0366593D01*
X0335410Y0366595D01*
X0335349Y0366600D01*
X0335290Y0366609D01*
X0335231Y0366622D01*
X0335172Y0366638D01*
X0335115Y0366658D01*
X0335060Y0366681D01*
X0335005Y0366708D01*
X0334953Y0366737D01*
X0334902Y0366770D01*
X0334853Y0366806D01*
X0334807Y0366844D01*
X0334763Y0366886D01*
X0334721Y0366930D01*
X0334683Y0366976D01*
X0334647Y0367025D01*
X0334614Y0367076D01*
X0334585Y0367128D01*
X0334558Y0367183D01*
X0334535Y0367238D01*
X0334515Y0367295D01*
X0334499Y0367354D01*
X0334486Y0367413D01*
X0334477Y0367472D01*
X0334472Y0367533D01*
X0334470Y0367593D01*
X0349283Y0391073D02*
X0365031Y0391073D01*
X0365031Y0398947D01*
X0349283Y0398947D02*
X0349283Y0391073D01*
X0307836Y0378258D02*
X0277836Y0378258D01*
X0277836Y0213258D01*
X0307836Y0213258D01*
X0307836Y0378258D01*
X0274972Y0390827D02*
X0274972Y0398701D01*
X0274972Y0390827D02*
X0259224Y0390827D01*
X0259224Y0398701D01*
X0258913Y0375642D02*
X0257413Y0375642D01*
X0256913Y0375142D01*
X0237913Y0375142D01*
X0237413Y0375642D01*
X0235913Y0375642D01*
X0235853Y0375640D01*
X0235792Y0375635D01*
X0235733Y0375626D01*
X0235674Y0375613D01*
X0235615Y0375597D01*
X0235558Y0375577D01*
X0235503Y0375554D01*
X0235448Y0375527D01*
X0235396Y0375498D01*
X0235345Y0375465D01*
X0235296Y0375429D01*
X0235250Y0375391D01*
X0235206Y0375349D01*
X0235164Y0375305D01*
X0235126Y0375259D01*
X0235090Y0375210D01*
X0235057Y0375159D01*
X0235028Y0375107D01*
X0235001Y0375052D01*
X0234978Y0374997D01*
X0234958Y0374940D01*
X0234942Y0374881D01*
X0234929Y0374822D01*
X0234920Y0374763D01*
X0234915Y0374702D01*
X0234913Y0374642D01*
X0234913Y0367642D02*
X0234915Y0367582D01*
X0234920Y0367521D01*
X0234929Y0367462D01*
X0234942Y0367403D01*
X0234958Y0367344D01*
X0234978Y0367287D01*
X0235001Y0367232D01*
X0235028Y0367177D01*
X0235057Y0367125D01*
X0235090Y0367074D01*
X0235126Y0367025D01*
X0235164Y0366979D01*
X0235206Y0366935D01*
X0235250Y0366893D01*
X0235296Y0366855D01*
X0235345Y0366819D01*
X0235396Y0366786D01*
X0235448Y0366757D01*
X0235503Y0366730D01*
X0235558Y0366707D01*
X0235615Y0366687D01*
X0235674Y0366671D01*
X0235733Y0366658D01*
X0235792Y0366649D01*
X0235853Y0366644D01*
X0235913Y0366642D01*
X0237413Y0366642D01*
X0237913Y0367142D01*
X0256913Y0367142D01*
X0257413Y0366642D01*
X0258913Y0366642D01*
X0258973Y0366644D01*
X0259034Y0366649D01*
X0259093Y0366658D01*
X0259152Y0366671D01*
X0259211Y0366687D01*
X0259268Y0366707D01*
X0259323Y0366730D01*
X0259378Y0366757D01*
X0259430Y0366786D01*
X0259481Y0366819D01*
X0259530Y0366855D01*
X0259576Y0366893D01*
X0259620Y0366935D01*
X0259662Y0366979D01*
X0259700Y0367025D01*
X0259736Y0367074D01*
X0259769Y0367125D01*
X0259798Y0367177D01*
X0259825Y0367232D01*
X0259848Y0367287D01*
X0259868Y0367344D01*
X0259884Y0367403D01*
X0259897Y0367462D01*
X0259906Y0367521D01*
X0259911Y0367582D01*
X0259913Y0367642D01*
X0259913Y0374642D02*
X0259911Y0374702D01*
X0259906Y0374763D01*
X0259897Y0374822D01*
X0259884Y0374881D01*
X0259868Y0374940D01*
X0259848Y0374997D01*
X0259825Y0375052D01*
X0259798Y0375107D01*
X0259769Y0375159D01*
X0259736Y0375210D01*
X0259700Y0375259D01*
X0259662Y0375305D01*
X0259620Y0375349D01*
X0259576Y0375391D01*
X0259530Y0375429D01*
X0259481Y0375465D01*
X0259430Y0375498D01*
X0259378Y0375527D01*
X0259323Y0375554D01*
X0259268Y0375577D01*
X0259211Y0375597D01*
X0259152Y0375613D01*
X0259093Y0375626D01*
X0259034Y0375635D01*
X0258973Y0375640D01*
X0258913Y0375642D01*
X0216311Y0372638D02*
X0216311Y0368368D01*
X0215244Y0367300D01*
X0212041Y0367300D01*
X0212041Y0373705D01*
X0215244Y0373705D01*
X0216311Y0372638D01*
X0209866Y0373705D02*
X0209866Y0367300D01*
X0205595Y0373705D01*
X0205595Y0367300D01*
X0203420Y0368368D02*
X0203420Y0370503D01*
X0201285Y0370503D01*
X0199150Y0372638D02*
X0199150Y0368368D01*
X0200218Y0367300D01*
X0202353Y0367300D01*
X0203420Y0368368D01*
X0203420Y0372638D02*
X0202353Y0373705D01*
X0200218Y0373705D01*
X0199150Y0372638D01*
X0168525Y0374494D02*
X0168523Y0374554D01*
X0168518Y0374615D01*
X0168509Y0374674D01*
X0168496Y0374733D01*
X0168480Y0374792D01*
X0168460Y0374849D01*
X0168437Y0374904D01*
X0168410Y0374959D01*
X0168381Y0375011D01*
X0168348Y0375062D01*
X0168312Y0375111D01*
X0168274Y0375157D01*
X0168232Y0375201D01*
X0168188Y0375243D01*
X0168142Y0375281D01*
X0168093Y0375317D01*
X0168042Y0375350D01*
X0167990Y0375379D01*
X0167935Y0375406D01*
X0167880Y0375429D01*
X0167823Y0375449D01*
X0167764Y0375465D01*
X0167705Y0375478D01*
X0167646Y0375487D01*
X0167585Y0375492D01*
X0167525Y0375494D01*
X0166025Y0375494D01*
X0165525Y0374994D01*
X0146525Y0374994D01*
X0146025Y0375494D01*
X0144525Y0375494D01*
X0144465Y0375492D01*
X0144404Y0375487D01*
X0144345Y0375478D01*
X0144286Y0375465D01*
X0144227Y0375449D01*
X0144170Y0375429D01*
X0144115Y0375406D01*
X0144060Y0375379D01*
X0144008Y0375350D01*
X0143957Y0375317D01*
X0143908Y0375281D01*
X0143862Y0375243D01*
X0143818Y0375201D01*
X0143776Y0375157D01*
X0143738Y0375111D01*
X0143702Y0375062D01*
X0143669Y0375011D01*
X0143640Y0374959D01*
X0143613Y0374904D01*
X0143590Y0374849D01*
X0143570Y0374792D01*
X0143554Y0374733D01*
X0143541Y0374674D01*
X0143532Y0374615D01*
X0143527Y0374554D01*
X0143525Y0374494D01*
X0143525Y0367494D02*
X0143527Y0367434D01*
X0143532Y0367373D01*
X0143541Y0367314D01*
X0143554Y0367255D01*
X0143570Y0367196D01*
X0143590Y0367139D01*
X0143613Y0367084D01*
X0143640Y0367029D01*
X0143669Y0366977D01*
X0143702Y0366926D01*
X0143738Y0366877D01*
X0143776Y0366831D01*
X0143818Y0366787D01*
X0143862Y0366745D01*
X0143908Y0366707D01*
X0143957Y0366671D01*
X0144008Y0366638D01*
X0144060Y0366609D01*
X0144115Y0366582D01*
X0144170Y0366559D01*
X0144227Y0366539D01*
X0144286Y0366523D01*
X0144345Y0366510D01*
X0144404Y0366501D01*
X0144465Y0366496D01*
X0144525Y0366494D01*
X0146025Y0366494D01*
X0146525Y0366994D01*
X0165525Y0366994D01*
X0166025Y0366494D01*
X0167525Y0366494D01*
X0167585Y0366496D01*
X0167646Y0366501D01*
X0167705Y0366510D01*
X0167764Y0366523D01*
X0167823Y0366539D01*
X0167880Y0366559D01*
X0167935Y0366582D01*
X0167990Y0366609D01*
X0168042Y0366638D01*
X0168093Y0366671D01*
X0168142Y0366707D01*
X0168188Y0366745D01*
X0168232Y0366787D01*
X0168274Y0366831D01*
X0168312Y0366877D01*
X0168348Y0366926D01*
X0168381Y0366977D01*
X0168410Y0367029D01*
X0168437Y0367084D01*
X0168460Y0367139D01*
X0168480Y0367196D01*
X0168496Y0367255D01*
X0168509Y0367314D01*
X0168518Y0367373D01*
X0168523Y0367434D01*
X0168525Y0367494D01*
X0160307Y0390285D02*
X0144559Y0390285D01*
X0144559Y0398159D01*
X0160307Y0398159D02*
X0160307Y0390285D01*
X0120533Y0377569D02*
X0090533Y0377569D01*
X0090533Y0212569D01*
X0120533Y0212569D01*
X0120533Y0377569D01*
X0084173Y0368841D02*
X0084173Y0354644D01*
X0065574Y0354644D02*
X0065574Y0368841D01*
X0050415Y0368528D02*
X0050413Y0368468D01*
X0050408Y0368407D01*
X0050399Y0368348D01*
X0050386Y0368289D01*
X0050370Y0368230D01*
X0050350Y0368173D01*
X0050327Y0368118D01*
X0050300Y0368063D01*
X0050271Y0368011D01*
X0050238Y0367960D01*
X0050202Y0367911D01*
X0050164Y0367865D01*
X0050122Y0367821D01*
X0050078Y0367779D01*
X0050032Y0367741D01*
X0049983Y0367705D01*
X0049932Y0367672D01*
X0049880Y0367643D01*
X0049825Y0367616D01*
X0049770Y0367593D01*
X0049713Y0367573D01*
X0049654Y0367557D01*
X0049595Y0367544D01*
X0049536Y0367535D01*
X0049475Y0367530D01*
X0049415Y0367528D01*
X0047915Y0367528D01*
X0047415Y0368028D01*
X0028415Y0368028D01*
X0027915Y0367528D01*
X0026415Y0367528D01*
X0026355Y0367530D01*
X0026294Y0367535D01*
X0026235Y0367544D01*
X0026176Y0367557D01*
X0026117Y0367573D01*
X0026060Y0367593D01*
X0026005Y0367616D01*
X0025950Y0367643D01*
X0025898Y0367672D01*
X0025847Y0367705D01*
X0025798Y0367741D01*
X0025752Y0367779D01*
X0025708Y0367821D01*
X0025666Y0367865D01*
X0025628Y0367911D01*
X0025592Y0367960D01*
X0025559Y0368011D01*
X0025530Y0368063D01*
X0025503Y0368118D01*
X0025480Y0368173D01*
X0025460Y0368230D01*
X0025444Y0368289D01*
X0025431Y0368348D01*
X0025422Y0368407D01*
X0025417Y0368468D01*
X0025415Y0368528D01*
X0025415Y0375528D02*
X0025417Y0375588D01*
X0025422Y0375649D01*
X0025431Y0375708D01*
X0025444Y0375767D01*
X0025460Y0375826D01*
X0025480Y0375883D01*
X0025503Y0375938D01*
X0025530Y0375993D01*
X0025559Y0376045D01*
X0025592Y0376096D01*
X0025628Y0376145D01*
X0025666Y0376191D01*
X0025708Y0376235D01*
X0025752Y0376277D01*
X0025798Y0376315D01*
X0025847Y0376351D01*
X0025898Y0376384D01*
X0025950Y0376413D01*
X0026005Y0376440D01*
X0026060Y0376463D01*
X0026117Y0376483D01*
X0026176Y0376499D01*
X0026235Y0376512D01*
X0026294Y0376521D01*
X0026355Y0376526D01*
X0026415Y0376528D01*
X0027915Y0376528D01*
X0028415Y0376028D01*
X0047415Y0376028D01*
X0047915Y0376528D01*
X0049415Y0376528D01*
X0049475Y0376526D01*
X0049536Y0376521D01*
X0049595Y0376512D01*
X0049654Y0376499D01*
X0049713Y0376483D01*
X0049770Y0376463D01*
X0049825Y0376440D01*
X0049880Y0376413D01*
X0049932Y0376384D01*
X0049983Y0376351D01*
X0050032Y0376315D01*
X0050078Y0376277D01*
X0050122Y0376235D01*
X0050164Y0376191D01*
X0050202Y0376145D01*
X0050238Y0376096D01*
X0050271Y0376045D01*
X0050300Y0375993D01*
X0050327Y0375938D01*
X0050350Y0375883D01*
X0050370Y0375826D01*
X0050386Y0375767D01*
X0050399Y0375708D01*
X0050408Y0375649D01*
X0050413Y0375588D01*
X0050415Y0375528D01*
X0044165Y0391663D02*
X0059913Y0391663D01*
X0059913Y0399537D01*
X0044165Y0399537D02*
X0044165Y0391663D01*
X0144765Y0310285D02*
X0174765Y0310285D01*
X0174765Y0225285D01*
X0144765Y0225285D01*
X0144765Y0310285D01*
X0199106Y0330709D02*
X0201106Y0330709D01*
X0199106Y0330709D02*
X0199106Y0332709D01*
X0199106Y0338709D02*
X0199106Y0340709D01*
X0201106Y0340709D01*
X0207106Y0340709D02*
X0209106Y0340709D01*
X0209106Y0338709D01*
X0209106Y0332709D02*
X0209106Y0330709D01*
X0207106Y0330709D01*
X0228968Y0310285D02*
X0258968Y0310285D01*
X0258968Y0225285D01*
X0228968Y0225285D01*
X0228968Y0310285D01*
X0315328Y0265937D02*
X0315328Y0251740D01*
X0333927Y0251740D02*
X0333927Y0265937D01*
X0246202Y0210492D02*
X0246202Y0055492D01*
X0216202Y0055492D01*
X0216202Y0210492D01*
X0246202Y0210492D01*
X0204421Y0210738D02*
X0204421Y0055738D01*
X0174421Y0055738D01*
X0174421Y0210738D01*
X0204421Y0210738D01*
X0163082Y0210738D02*
X0163082Y0055738D01*
X0133082Y0055738D01*
X0133082Y0210738D01*
X0163082Y0210738D01*
X0122728Y0210689D02*
X0122728Y0055689D01*
X0092728Y0055689D01*
X0092728Y0210689D01*
X0122728Y0210689D01*
X0278460Y0104307D02*
X0278460Y0103307D01*
X0278960Y0102807D01*
X0278960Y0093807D01*
X0278460Y0093307D01*
X0278460Y0092307D01*
X0278462Y0092247D01*
X0278467Y0092186D01*
X0278476Y0092127D01*
X0278489Y0092068D01*
X0278505Y0092009D01*
X0278525Y0091952D01*
X0278548Y0091897D01*
X0278575Y0091842D01*
X0278604Y0091790D01*
X0278637Y0091739D01*
X0278673Y0091690D01*
X0278711Y0091644D01*
X0278753Y0091600D01*
X0278797Y0091558D01*
X0278843Y0091520D01*
X0278892Y0091484D01*
X0278943Y0091451D01*
X0278995Y0091422D01*
X0279050Y0091395D01*
X0279105Y0091372D01*
X0279162Y0091352D01*
X0279221Y0091336D01*
X0279280Y0091323D01*
X0279339Y0091314D01*
X0279400Y0091309D01*
X0279460Y0091307D01*
X0284460Y0091307D02*
X0284520Y0091309D01*
X0284581Y0091314D01*
X0284640Y0091323D01*
X0284699Y0091336D01*
X0284758Y0091352D01*
X0284815Y0091372D01*
X0284870Y0091395D01*
X0284925Y0091422D01*
X0284977Y0091451D01*
X0285028Y0091484D01*
X0285077Y0091520D01*
X0285123Y0091558D01*
X0285167Y0091600D01*
X0285209Y0091644D01*
X0285247Y0091690D01*
X0285283Y0091739D01*
X0285316Y0091790D01*
X0285345Y0091842D01*
X0285372Y0091897D01*
X0285395Y0091952D01*
X0285415Y0092009D01*
X0285431Y0092068D01*
X0285444Y0092127D01*
X0285453Y0092186D01*
X0285458Y0092247D01*
X0285460Y0092307D01*
X0285460Y0093307D01*
X0284960Y0093807D01*
X0284960Y0102807D01*
X0285460Y0103307D01*
X0285460Y0104307D01*
X0285458Y0104367D01*
X0285453Y0104428D01*
X0285444Y0104487D01*
X0285431Y0104546D01*
X0285415Y0104605D01*
X0285395Y0104662D01*
X0285372Y0104717D01*
X0285345Y0104772D01*
X0285316Y0104824D01*
X0285283Y0104875D01*
X0285247Y0104924D01*
X0285209Y0104970D01*
X0285167Y0105014D01*
X0285123Y0105056D01*
X0285077Y0105094D01*
X0285028Y0105130D01*
X0284977Y0105163D01*
X0284925Y0105192D01*
X0284870Y0105219D01*
X0284815Y0105242D01*
X0284758Y0105262D01*
X0284699Y0105278D01*
X0284640Y0105291D01*
X0284581Y0105300D01*
X0284520Y0105305D01*
X0284460Y0105307D01*
X0279460Y0105307D02*
X0279400Y0105305D01*
X0279339Y0105300D01*
X0279280Y0105291D01*
X0279221Y0105278D01*
X0279162Y0105262D01*
X0279105Y0105242D01*
X0279050Y0105219D01*
X0278995Y0105192D01*
X0278943Y0105163D01*
X0278892Y0105130D01*
X0278843Y0105094D01*
X0278797Y0105056D01*
X0278753Y0105014D01*
X0278711Y0104970D01*
X0278673Y0104924D01*
X0278637Y0104875D01*
X0278604Y0104824D01*
X0278575Y0104772D01*
X0278548Y0104717D01*
X0278525Y0104662D01*
X0278505Y0104605D01*
X0278489Y0104546D01*
X0278476Y0104487D01*
X0278467Y0104428D01*
X0278462Y0104367D01*
X0278460Y0104307D01*
X0290320Y0104258D02*
X0290320Y0103258D01*
X0290820Y0102758D01*
X0290820Y0093758D01*
X0290320Y0093258D01*
X0290320Y0092258D01*
X0290322Y0092198D01*
X0290327Y0092137D01*
X0290336Y0092078D01*
X0290349Y0092019D01*
X0290365Y0091960D01*
X0290385Y0091903D01*
X0290408Y0091848D01*
X0290435Y0091793D01*
X0290464Y0091741D01*
X0290497Y0091690D01*
X0290533Y0091641D01*
X0290571Y0091595D01*
X0290613Y0091551D01*
X0290657Y0091509D01*
X0290703Y0091471D01*
X0290752Y0091435D01*
X0290803Y0091402D01*
X0290855Y0091373D01*
X0290910Y0091346D01*
X0290965Y0091323D01*
X0291022Y0091303D01*
X0291081Y0091287D01*
X0291140Y0091274D01*
X0291199Y0091265D01*
X0291260Y0091260D01*
X0291320Y0091258D01*
X0296320Y0091258D02*
X0296380Y0091260D01*
X0296441Y0091265D01*
X0296500Y0091274D01*
X0296559Y0091287D01*
X0296618Y0091303D01*
X0296675Y0091323D01*
X0296730Y0091346D01*
X0296785Y0091373D01*
X0296837Y0091402D01*
X0296888Y0091435D01*
X0296937Y0091471D01*
X0296983Y0091509D01*
X0297027Y0091551D01*
X0297069Y0091595D01*
X0297107Y0091641D01*
X0297143Y0091690D01*
X0297176Y0091741D01*
X0297205Y0091793D01*
X0297232Y0091848D01*
X0297255Y0091903D01*
X0297275Y0091960D01*
X0297291Y0092019D01*
X0297304Y0092078D01*
X0297313Y0092137D01*
X0297318Y0092198D01*
X0297320Y0092258D01*
X0297320Y0093258D01*
X0296820Y0093758D01*
X0296820Y0102758D01*
X0297320Y0103258D01*
X0297320Y0104258D01*
X0297318Y0104318D01*
X0297313Y0104379D01*
X0297304Y0104438D01*
X0297291Y0104497D01*
X0297275Y0104556D01*
X0297255Y0104613D01*
X0297232Y0104668D01*
X0297205Y0104723D01*
X0297176Y0104775D01*
X0297143Y0104826D01*
X0297107Y0104875D01*
X0297069Y0104921D01*
X0297027Y0104965D01*
X0296983Y0105007D01*
X0296937Y0105045D01*
X0296888Y0105081D01*
X0296837Y0105114D01*
X0296785Y0105143D01*
X0296730Y0105170D01*
X0296675Y0105193D01*
X0296618Y0105213D01*
X0296559Y0105229D01*
X0296500Y0105242D01*
X0296441Y0105251D01*
X0296380Y0105256D01*
X0296320Y0105258D01*
X0291320Y0105258D02*
X0291260Y0105256D01*
X0291199Y0105251D01*
X0291140Y0105242D01*
X0291081Y0105229D01*
X0291022Y0105213D01*
X0290965Y0105193D01*
X0290910Y0105170D01*
X0290855Y0105143D01*
X0290803Y0105114D01*
X0290752Y0105081D01*
X0290703Y0105045D01*
X0290657Y0105007D01*
X0290613Y0104965D01*
X0290571Y0104921D01*
X0290533Y0104875D01*
X0290497Y0104826D01*
X0290464Y0104775D01*
X0290435Y0104723D01*
X0290408Y0104668D01*
X0290385Y0104613D01*
X0290365Y0104556D01*
X0290349Y0104497D01*
X0290336Y0104438D01*
X0290327Y0104379D01*
X0290322Y0104318D01*
X0290320Y0104258D01*
X0290320Y0076945D02*
X0290320Y0075945D01*
X0290820Y0075445D01*
X0290820Y0066445D01*
X0290320Y0065945D01*
X0290320Y0064945D01*
X0290322Y0064885D01*
X0290327Y0064824D01*
X0290336Y0064765D01*
X0290349Y0064706D01*
X0290365Y0064647D01*
X0290385Y0064590D01*
X0290408Y0064535D01*
X0290435Y0064480D01*
X0290464Y0064428D01*
X0290497Y0064377D01*
X0290533Y0064328D01*
X0290571Y0064282D01*
X0290613Y0064238D01*
X0290657Y0064196D01*
X0290703Y0064158D01*
X0290752Y0064122D01*
X0290803Y0064089D01*
X0290855Y0064060D01*
X0290910Y0064033D01*
X0290965Y0064010D01*
X0291022Y0063990D01*
X0291081Y0063974D01*
X0291140Y0063961D01*
X0291199Y0063952D01*
X0291260Y0063947D01*
X0291320Y0063945D01*
X0296320Y0063945D02*
X0296380Y0063947D01*
X0296441Y0063952D01*
X0296500Y0063961D01*
X0296559Y0063974D01*
X0296618Y0063990D01*
X0296675Y0064010D01*
X0296730Y0064033D01*
X0296785Y0064060D01*
X0296837Y0064089D01*
X0296888Y0064122D01*
X0296937Y0064158D01*
X0296983Y0064196D01*
X0297027Y0064238D01*
X0297069Y0064282D01*
X0297107Y0064328D01*
X0297143Y0064377D01*
X0297176Y0064428D01*
X0297205Y0064480D01*
X0297232Y0064535D01*
X0297255Y0064590D01*
X0297275Y0064647D01*
X0297291Y0064706D01*
X0297304Y0064765D01*
X0297313Y0064824D01*
X0297318Y0064885D01*
X0297320Y0064945D01*
X0297320Y0065945D01*
X0296820Y0066445D01*
X0296820Y0075445D01*
X0297320Y0075945D01*
X0297320Y0076945D01*
X0297318Y0077005D01*
X0297313Y0077066D01*
X0297304Y0077125D01*
X0297291Y0077184D01*
X0297275Y0077243D01*
X0297255Y0077300D01*
X0297232Y0077355D01*
X0297205Y0077410D01*
X0297176Y0077462D01*
X0297143Y0077513D01*
X0297107Y0077562D01*
X0297069Y0077608D01*
X0297027Y0077652D01*
X0296983Y0077694D01*
X0296937Y0077732D01*
X0296888Y0077768D01*
X0296837Y0077801D01*
X0296785Y0077830D01*
X0296730Y0077857D01*
X0296675Y0077880D01*
X0296618Y0077900D01*
X0296559Y0077916D01*
X0296500Y0077929D01*
X0296441Y0077938D01*
X0296380Y0077943D01*
X0296320Y0077945D01*
X0291320Y0077945D02*
X0291260Y0077943D01*
X0291199Y0077938D01*
X0291140Y0077929D01*
X0291081Y0077916D01*
X0291022Y0077900D01*
X0290965Y0077880D01*
X0290910Y0077857D01*
X0290855Y0077830D01*
X0290803Y0077801D01*
X0290752Y0077768D01*
X0290703Y0077732D01*
X0290657Y0077694D01*
X0290613Y0077652D01*
X0290571Y0077608D01*
X0290533Y0077562D01*
X0290497Y0077513D01*
X0290464Y0077462D01*
X0290435Y0077410D01*
X0290408Y0077355D01*
X0290385Y0077300D01*
X0290365Y0077243D01*
X0290349Y0077184D01*
X0290336Y0077125D01*
X0290327Y0077066D01*
X0290322Y0077005D01*
X0290320Y0076945D01*
X0285460Y0076945D02*
X0285460Y0075945D01*
X0284960Y0075445D01*
X0284960Y0066445D01*
X0285460Y0065945D01*
X0285460Y0064945D01*
X0285458Y0064885D01*
X0285453Y0064824D01*
X0285444Y0064765D01*
X0285431Y0064706D01*
X0285415Y0064647D01*
X0285395Y0064590D01*
X0285372Y0064535D01*
X0285345Y0064480D01*
X0285316Y0064428D01*
X0285283Y0064377D01*
X0285247Y0064328D01*
X0285209Y0064282D01*
X0285167Y0064238D01*
X0285123Y0064196D01*
X0285077Y0064158D01*
X0285028Y0064122D01*
X0284977Y0064089D01*
X0284925Y0064060D01*
X0284870Y0064033D01*
X0284815Y0064010D01*
X0284758Y0063990D01*
X0284699Y0063974D01*
X0284640Y0063961D01*
X0284581Y0063952D01*
X0284520Y0063947D01*
X0284460Y0063945D01*
X0279460Y0063945D02*
X0279400Y0063947D01*
X0279339Y0063952D01*
X0279280Y0063961D01*
X0279221Y0063974D01*
X0279162Y0063990D01*
X0279105Y0064010D01*
X0279050Y0064033D01*
X0278995Y0064060D01*
X0278943Y0064089D01*
X0278892Y0064122D01*
X0278843Y0064158D01*
X0278797Y0064196D01*
X0278753Y0064238D01*
X0278711Y0064282D01*
X0278673Y0064328D01*
X0278637Y0064377D01*
X0278604Y0064428D01*
X0278575Y0064480D01*
X0278548Y0064535D01*
X0278525Y0064590D01*
X0278505Y0064647D01*
X0278489Y0064706D01*
X0278476Y0064765D01*
X0278467Y0064824D01*
X0278462Y0064885D01*
X0278460Y0064945D01*
X0278460Y0065945D01*
X0278960Y0066445D01*
X0278960Y0075445D01*
X0278460Y0075945D01*
X0278460Y0076945D01*
X0278462Y0077005D01*
X0278467Y0077066D01*
X0278476Y0077125D01*
X0278489Y0077184D01*
X0278505Y0077243D01*
X0278525Y0077300D01*
X0278548Y0077355D01*
X0278575Y0077410D01*
X0278604Y0077462D01*
X0278637Y0077513D01*
X0278673Y0077562D01*
X0278711Y0077608D01*
X0278753Y0077652D01*
X0278797Y0077694D01*
X0278843Y0077732D01*
X0278892Y0077768D01*
X0278943Y0077801D01*
X0278995Y0077830D01*
X0279050Y0077857D01*
X0279105Y0077880D01*
X0279162Y0077900D01*
X0279221Y0077916D01*
X0279280Y0077929D01*
X0279339Y0077938D01*
X0279400Y0077943D01*
X0279460Y0077945D01*
X0284460Y0077945D02*
X0284520Y0077943D01*
X0284581Y0077938D01*
X0284640Y0077929D01*
X0284699Y0077916D01*
X0284758Y0077900D01*
X0284815Y0077880D01*
X0284870Y0077857D01*
X0284925Y0077830D01*
X0284977Y0077801D01*
X0285028Y0077768D01*
X0285077Y0077732D01*
X0285123Y0077694D01*
X0285167Y0077652D01*
X0285209Y0077608D01*
X0285247Y0077562D01*
X0285283Y0077513D01*
X0285316Y0077462D01*
X0285345Y0077410D01*
X0285372Y0077355D01*
X0285395Y0077300D01*
X0285415Y0077243D01*
X0285431Y0077184D01*
X0285444Y0077125D01*
X0285453Y0077066D01*
X0285458Y0077005D01*
X0285460Y0076945D01*
D12*
X0052252Y0065441D02*
X0002646Y0065441D01*
X0002646Y0087559D01*
X0053039Y0087559D01*
X0053039Y0083228D01*
X0052252Y0069772D02*
X0052252Y0065441D01*
X0052252Y0117943D02*
X0002646Y0117943D01*
X0002646Y0173061D01*
X0053039Y0173061D01*
X0053039Y0168730D01*
X0052252Y0122274D02*
X0052252Y0117943D01*
X0052259Y0284183D02*
X0002653Y0284183D01*
X0002653Y0339301D01*
X0053046Y0339301D01*
X0053046Y0334970D01*
X0067209Y0357842D02*
X0067211Y0357889D01*
X0067217Y0357936D01*
X0067227Y0357983D01*
X0067240Y0358028D01*
X0067258Y0358072D01*
X0067279Y0358114D01*
X0067303Y0358155D01*
X0067331Y0358193D01*
X0067362Y0358229D01*
X0067396Y0358262D01*
X0067432Y0358292D01*
X0067471Y0358319D01*
X0067512Y0358343D01*
X0067555Y0358363D01*
X0067599Y0358379D01*
X0067645Y0358392D01*
X0067691Y0358401D01*
X0067739Y0358406D01*
X0067786Y0358407D01*
X0067833Y0358404D01*
X0067880Y0358397D01*
X0067926Y0358386D01*
X0067971Y0358372D01*
X0068015Y0358353D01*
X0068056Y0358331D01*
X0068096Y0358306D01*
X0068134Y0358277D01*
X0068169Y0358246D01*
X0068202Y0358211D01*
X0068231Y0358174D01*
X0068257Y0358135D01*
X0068280Y0358093D01*
X0068299Y0358050D01*
X0068315Y0358005D01*
X0068327Y0357959D01*
X0068335Y0357913D01*
X0068339Y0357866D01*
X0068339Y0357818D01*
X0068335Y0357771D01*
X0068327Y0357725D01*
X0068315Y0357679D01*
X0068299Y0357634D01*
X0068280Y0357591D01*
X0068257Y0357549D01*
X0068231Y0357510D01*
X0068202Y0357473D01*
X0068169Y0357438D01*
X0068134Y0357407D01*
X0068096Y0357378D01*
X0068057Y0357353D01*
X0068015Y0357331D01*
X0067971Y0357312D01*
X0067926Y0357298D01*
X0067880Y0357287D01*
X0067833Y0357280D01*
X0067786Y0357277D01*
X0067739Y0357278D01*
X0067691Y0357283D01*
X0067645Y0357292D01*
X0067599Y0357305D01*
X0067555Y0357321D01*
X0067512Y0357341D01*
X0067471Y0357365D01*
X0067432Y0357392D01*
X0067396Y0357422D01*
X0067362Y0357455D01*
X0067331Y0357491D01*
X0067303Y0357529D01*
X0067279Y0357570D01*
X0067258Y0357612D01*
X0067240Y0357656D01*
X0067227Y0357701D01*
X0067217Y0357748D01*
X0067211Y0357795D01*
X0067209Y0357842D01*
X0052259Y0288514D02*
X0052259Y0284183D01*
X0157411Y0321250D02*
X0157411Y0321624D01*
X0157411Y0321250D02*
X0163793Y0321250D01*
X0163793Y0321624D01*
X0163793Y0332077D02*
X0163793Y0332450D01*
X0157411Y0332450D01*
X0157411Y0332077D01*
X0241073Y0330531D02*
X0241073Y0330158D01*
X0241073Y0330531D02*
X0247454Y0330531D01*
X0247454Y0330158D01*
X0247454Y0319704D02*
X0247454Y0319331D01*
X0241073Y0319331D01*
X0241073Y0319704D01*
X0331163Y0262739D02*
X0331165Y0262786D01*
X0331171Y0262833D01*
X0331181Y0262880D01*
X0331194Y0262925D01*
X0331212Y0262969D01*
X0331233Y0263011D01*
X0331257Y0263052D01*
X0331285Y0263090D01*
X0331316Y0263126D01*
X0331350Y0263159D01*
X0331386Y0263189D01*
X0331425Y0263216D01*
X0331466Y0263240D01*
X0331509Y0263260D01*
X0331553Y0263276D01*
X0331599Y0263289D01*
X0331645Y0263298D01*
X0331693Y0263303D01*
X0331740Y0263304D01*
X0331787Y0263301D01*
X0331834Y0263294D01*
X0331880Y0263283D01*
X0331925Y0263269D01*
X0331969Y0263250D01*
X0332010Y0263228D01*
X0332050Y0263203D01*
X0332088Y0263174D01*
X0332123Y0263143D01*
X0332156Y0263108D01*
X0332185Y0263071D01*
X0332211Y0263032D01*
X0332234Y0262990D01*
X0332253Y0262947D01*
X0332269Y0262902D01*
X0332281Y0262856D01*
X0332289Y0262810D01*
X0332293Y0262763D01*
X0332293Y0262715D01*
X0332289Y0262668D01*
X0332281Y0262622D01*
X0332269Y0262576D01*
X0332253Y0262531D01*
X0332234Y0262488D01*
X0332211Y0262446D01*
X0332185Y0262407D01*
X0332156Y0262370D01*
X0332123Y0262335D01*
X0332088Y0262304D01*
X0332050Y0262275D01*
X0332011Y0262250D01*
X0331969Y0262228D01*
X0331925Y0262209D01*
X0331880Y0262195D01*
X0331834Y0262184D01*
X0331787Y0262177D01*
X0331740Y0262174D01*
X0331693Y0262175D01*
X0331645Y0262180D01*
X0331599Y0262189D01*
X0331553Y0262202D01*
X0331509Y0262218D01*
X0331466Y0262238D01*
X0331425Y0262262D01*
X0331386Y0262289D01*
X0331350Y0262319D01*
X0331316Y0262352D01*
X0331285Y0262388D01*
X0331257Y0262426D01*
X0331233Y0262467D01*
X0331212Y0262509D01*
X0331194Y0262553D01*
X0331181Y0262598D01*
X0331171Y0262645D01*
X0331165Y0262692D01*
X0331163Y0262739D01*
X0349555Y0280246D02*
X0399949Y0280246D01*
X0399949Y0335364D01*
X0350343Y0335364D01*
X0350343Y0331033D01*
X0349555Y0284577D02*
X0349555Y0280246D01*
X0350343Y0173947D02*
X0350343Y0169616D01*
X0350343Y0173947D02*
X0399949Y0173947D01*
X0399949Y0118829D01*
X0349555Y0118829D01*
X0349555Y0123159D01*
X0350343Y0102998D02*
X0350343Y0098667D01*
X0350343Y0102998D02*
X0399949Y0102998D01*
X0399949Y0047880D01*
X0349555Y0047880D01*
X0349555Y0052211D01*
X0273046Y0118737D02*
X0254161Y0118737D01*
X0254161Y0135653D01*
X0273046Y0135653D01*
X0273046Y0118737D01*
D13*
X0333848Y0115842D02*
X0333848Y0110938D01*
X0337117Y0110938D02*
X0337117Y0115842D01*
X0335483Y0114207D01*
X0333848Y0115842D01*
X0339373Y0115025D02*
X0339373Y0111755D01*
X0340190Y0110938D01*
X0341825Y0110938D01*
X0342642Y0111755D01*
X0342642Y0115025D01*
X0341825Y0115842D01*
X0340190Y0115842D01*
X0339373Y0115025D01*
X0344897Y0115842D02*
X0348167Y0115842D01*
X0346532Y0115842D02*
X0346532Y0110938D01*
X0350422Y0111755D02*
X0350422Y0115025D01*
X0351239Y0115842D01*
X0352874Y0115842D01*
X0353691Y0115025D01*
X0353691Y0111755D01*
X0352874Y0110938D01*
X0351239Y0110938D01*
X0350422Y0111755D01*
X0355947Y0110938D02*
X0355947Y0115842D01*
X0358399Y0115842D01*
X0359216Y0115025D01*
X0359216Y0113390D01*
X0358399Y0112573D01*
X0355947Y0112573D01*
X0357581Y0112573D02*
X0359216Y0110938D01*
X0361471Y0110120D02*
X0364741Y0110120D01*
X0366996Y0110938D02*
X0366996Y0115842D01*
X0369448Y0115842D01*
X0370266Y0115025D01*
X0370266Y0113390D01*
X0369448Y0112573D01*
X0366996Y0112573D01*
X0372521Y0111755D02*
X0372521Y0115025D01*
X0373338Y0115842D01*
X0374973Y0115842D01*
X0375790Y0115025D01*
X0375790Y0111755D01*
X0374973Y0110938D01*
X0373338Y0110938D01*
X0372521Y0111755D01*
X0378046Y0110938D02*
X0378046Y0115842D01*
X0381315Y0115842D02*
X0381315Y0110938D01*
X0379680Y0112573D01*
X0378046Y0110938D01*
X0383570Y0110938D02*
X0386840Y0110938D01*
X0389095Y0110938D02*
X0389095Y0115842D01*
X0391547Y0115842D01*
X0392364Y0115025D01*
X0392364Y0113390D01*
X0391547Y0112573D01*
X0389095Y0112573D01*
X0390730Y0112573D02*
X0392364Y0110938D01*
X0394620Y0110938D02*
X0397889Y0110938D01*
X0396254Y0110938D02*
X0396254Y0115842D01*
X0394620Y0114207D01*
X0386840Y0115842D02*
X0383570Y0115842D01*
X0383570Y0110938D01*
X0383570Y0113390D02*
X0385205Y0113390D01*
X0383570Y0044893D02*
X0383570Y0039989D01*
X0386840Y0039989D01*
X0389095Y0039989D02*
X0389095Y0044893D01*
X0391547Y0044893D01*
X0392364Y0044076D01*
X0392364Y0042441D01*
X0391547Y0041624D01*
X0389095Y0041624D01*
X0390730Y0041624D02*
X0392364Y0039989D01*
X0394620Y0039989D02*
X0397889Y0043258D01*
X0397889Y0044076D01*
X0397072Y0044893D01*
X0395437Y0044893D01*
X0394620Y0044076D01*
X0394620Y0039989D02*
X0397889Y0039989D01*
X0386840Y0044893D02*
X0383570Y0044893D01*
X0381315Y0044893D02*
X0381315Y0039989D01*
X0379680Y0041624D01*
X0378046Y0039989D01*
X0378046Y0044893D01*
X0375790Y0044076D02*
X0374973Y0044893D01*
X0373338Y0044893D01*
X0372521Y0044076D01*
X0372521Y0040806D01*
X0373338Y0039989D01*
X0374973Y0039989D01*
X0375790Y0040806D01*
X0375790Y0044076D01*
X0370266Y0044076D02*
X0370266Y0042441D01*
X0369448Y0041624D01*
X0366996Y0041624D01*
X0366996Y0039989D02*
X0366996Y0044893D01*
X0369448Y0044893D01*
X0370266Y0044076D01*
X0364741Y0039172D02*
X0361471Y0039172D01*
X0359216Y0039989D02*
X0357581Y0041624D01*
X0358399Y0041624D02*
X0355947Y0041624D01*
X0355947Y0039989D02*
X0355947Y0044893D01*
X0358399Y0044893D01*
X0359216Y0044076D01*
X0359216Y0042441D01*
X0358399Y0041624D01*
X0353691Y0040806D02*
X0352874Y0039989D01*
X0351239Y0039989D01*
X0350422Y0040806D01*
X0350422Y0044076D01*
X0351239Y0044893D01*
X0352874Y0044893D01*
X0353691Y0044076D01*
X0353691Y0040806D01*
X0348167Y0044893D02*
X0344897Y0044893D01*
X0346532Y0044893D02*
X0346532Y0039989D01*
X0342642Y0040806D02*
X0342642Y0044076D01*
X0341825Y0044893D01*
X0340190Y0044893D01*
X0339373Y0044076D01*
X0339373Y0040806D01*
X0340190Y0039989D01*
X0341825Y0039989D01*
X0342642Y0040806D01*
X0337117Y0039989D02*
X0337117Y0044893D01*
X0335483Y0043258D01*
X0333848Y0044893D01*
X0333848Y0039989D01*
X0383570Y0042441D02*
X0385205Y0042441D01*
X0375790Y0271538D02*
X0372521Y0271538D01*
X0368631Y0272355D02*
X0368631Y0274807D01*
X0370266Y0276442D01*
X0370266Y0277259D01*
X0368631Y0274807D02*
X0366996Y0276442D01*
X0366996Y0277259D01*
X0364741Y0276442D02*
X0364741Y0274807D01*
X0363924Y0273990D01*
X0361471Y0273990D01*
X0361471Y0272355D02*
X0361471Y0277259D01*
X0363924Y0277259D01*
X0364741Y0276442D01*
X0363106Y0273990D02*
X0364741Y0272355D01*
X0359216Y0272355D02*
X0355947Y0272355D01*
X0355947Y0277259D01*
X0359216Y0277259D01*
X0357581Y0274807D02*
X0355947Y0274807D01*
X0353691Y0277259D02*
X0350422Y0277259D01*
X0352057Y0277259D02*
X0352057Y0272355D01*
X0346532Y0272355D02*
X0346532Y0277259D01*
X0344897Y0277259D02*
X0348167Y0277259D01*
X0342642Y0275625D02*
X0342642Y0272355D01*
X0342642Y0274807D02*
X0339373Y0274807D01*
X0339373Y0275625D02*
X0341007Y0277259D01*
X0342642Y0275625D01*
X0339373Y0275625D02*
X0339373Y0272355D01*
X0337117Y0273172D02*
X0336300Y0272355D01*
X0333848Y0272355D01*
X0333848Y0277259D01*
X0336300Y0277259D01*
X0337117Y0276442D01*
X0337117Y0275625D01*
X0336300Y0274807D01*
X0333848Y0274807D01*
X0336300Y0274807D02*
X0337117Y0273990D01*
X0337117Y0273172D01*
X0378046Y0272355D02*
X0378046Y0277259D01*
X0380498Y0277259D01*
X0381315Y0276442D01*
X0381315Y0274807D01*
X0380498Y0273990D01*
X0378046Y0273990D01*
X0383570Y0273172D02*
X0384388Y0272355D01*
X0386022Y0272355D01*
X0386840Y0273172D01*
X0386840Y0276442D01*
X0386022Y0277259D01*
X0384388Y0277259D01*
X0383570Y0276442D01*
X0383570Y0273172D01*
X0389095Y0272355D02*
X0389095Y0277259D01*
X0391547Y0277259D01*
X0392364Y0276442D01*
X0392364Y0274807D01*
X0391547Y0273990D01*
X0389095Y0273990D01*
X0390730Y0273990D02*
X0392364Y0272355D01*
X0396254Y0272355D02*
X0396254Y0277259D01*
X0394620Y0277259D02*
X0397889Y0277259D01*
X0089690Y0180139D02*
X0089690Y0176869D01*
X0088873Y0176052D01*
X0086421Y0176052D01*
X0086421Y0180956D01*
X0088873Y0180956D01*
X0089690Y0180139D01*
X0084165Y0180956D02*
X0080896Y0180956D01*
X0080896Y0176052D01*
X0084165Y0176052D01*
X0082531Y0178504D02*
X0080896Y0178504D01*
X0078641Y0176869D02*
X0077823Y0176052D01*
X0076189Y0176052D01*
X0075371Y0176869D01*
X0075371Y0180139D01*
X0076189Y0180956D01*
X0077823Y0180956D01*
X0078641Y0180139D01*
X0073116Y0180956D02*
X0073116Y0176052D01*
X0069847Y0180956D01*
X0069847Y0176052D01*
X0067591Y0176052D02*
X0067591Y0179321D01*
X0065957Y0180956D01*
X0064322Y0179321D01*
X0064322Y0176052D01*
X0062067Y0176052D02*
X0058797Y0176052D01*
X0058797Y0180956D01*
X0056542Y0179321D02*
X0056542Y0176052D01*
X0056542Y0178504D02*
X0053272Y0178504D01*
X0053272Y0179321D02*
X0053272Y0176052D01*
X0051017Y0176869D02*
X0050200Y0176052D01*
X0047748Y0176052D01*
X0047748Y0180956D01*
X0050200Y0180956D01*
X0051017Y0180139D01*
X0051017Y0179321D01*
X0050200Y0178504D01*
X0047748Y0178504D01*
X0050200Y0178504D02*
X0051017Y0177687D01*
X0051017Y0176869D01*
X0053272Y0179321D02*
X0054907Y0180956D01*
X0056542Y0179321D01*
X0064322Y0178504D02*
X0067591Y0178504D01*
X0045492Y0175235D02*
X0042223Y0175235D01*
X0038333Y0176052D02*
X0038333Y0178504D01*
X0039968Y0180139D01*
X0039968Y0180956D01*
X0038333Y0178504D02*
X0036698Y0180139D01*
X0036698Y0180956D01*
X0034443Y0180139D02*
X0034443Y0178504D01*
X0033626Y0177687D01*
X0031174Y0177687D01*
X0032808Y0177687D02*
X0034443Y0176052D01*
X0031174Y0176052D02*
X0031174Y0180956D01*
X0033626Y0180956D01*
X0034443Y0180139D01*
X0028918Y0180956D02*
X0025649Y0180956D01*
X0025649Y0176052D01*
X0028918Y0176052D01*
X0027284Y0178504D02*
X0025649Y0178504D01*
X0023394Y0180956D02*
X0020124Y0180956D01*
X0021759Y0180956D02*
X0021759Y0176052D01*
X0016234Y0176052D02*
X0016234Y0180956D01*
X0014599Y0180956D02*
X0017869Y0180956D01*
X0012344Y0179321D02*
X0012344Y0176052D01*
X0012344Y0178504D02*
X0009075Y0178504D01*
X0009075Y0179321D02*
X0009075Y0176052D01*
X0006819Y0176869D02*
X0006002Y0176052D01*
X0003550Y0176052D01*
X0003550Y0180956D01*
X0006002Y0180956D01*
X0006819Y0180139D01*
X0006819Y0179321D01*
X0006002Y0178504D01*
X0003550Y0178504D01*
X0006002Y0178504D02*
X0006819Y0177687D01*
X0006819Y0176869D01*
X0009075Y0179321D02*
X0010709Y0180956D01*
X0012344Y0179321D01*
X0012613Y0095360D02*
X0012613Y0090550D01*
X0015819Y0090550D01*
X0018051Y0090550D02*
X0018051Y0095360D01*
X0018051Y0090550D02*
X0021257Y0090550D01*
X0023488Y0089748D02*
X0026695Y0089748D01*
X0028926Y0091352D02*
X0029728Y0090550D01*
X0031331Y0090550D01*
X0032132Y0091352D01*
X0032132Y0092153D01*
X0031331Y0092955D01*
X0029728Y0092955D01*
X0028926Y0093756D01*
X0028926Y0094558D01*
X0029728Y0095360D01*
X0031331Y0095360D01*
X0032132Y0094558D01*
X0034364Y0095360D02*
X0034364Y0090550D01*
X0035967Y0092153D01*
X0037570Y0090550D01*
X0037570Y0095360D01*
X0039801Y0095360D02*
X0041405Y0095360D01*
X0040603Y0095360D02*
X0040603Y0090550D01*
X0039801Y0090550D02*
X0041405Y0090550D01*
X0045030Y0090550D02*
X0045030Y0095360D01*
X0043427Y0095360D02*
X0046633Y0095360D01*
X0048864Y0094558D02*
X0048864Y0091352D01*
X0049666Y0090550D01*
X0051269Y0090550D01*
X0052071Y0091352D01*
X0054302Y0090550D02*
X0054302Y0095360D01*
X0052071Y0094558D02*
X0051269Y0095360D01*
X0049666Y0095360D01*
X0048864Y0094558D01*
X0054302Y0092955D02*
X0057508Y0092955D01*
X0057508Y0095360D02*
X0057508Y0090550D01*
X0010591Y0090550D02*
X0008988Y0090550D01*
X0009789Y0090550D02*
X0009789Y0095360D01*
X0008988Y0095360D02*
X0010591Y0095360D01*
X0006756Y0095360D02*
X0003550Y0092153D01*
X0004352Y0092955D02*
X0006756Y0090550D01*
X0003550Y0090550D02*
X0003550Y0095360D01*
X0003557Y0342292D02*
X0006009Y0342292D01*
X0006827Y0343109D01*
X0006827Y0343927D01*
X0006009Y0344744D01*
X0003557Y0344744D01*
X0003557Y0342292D02*
X0003557Y0347196D01*
X0006009Y0347196D01*
X0006827Y0346379D01*
X0006827Y0345562D01*
X0006009Y0344744D01*
X0009082Y0344744D02*
X0012351Y0344744D01*
X0012351Y0345562D02*
X0012351Y0342292D01*
X0009082Y0342292D02*
X0009082Y0345562D01*
X0010717Y0347196D01*
X0012351Y0345562D01*
X0014607Y0347196D02*
X0017876Y0347196D01*
X0016241Y0347196D02*
X0016241Y0342292D01*
X0021766Y0342292D02*
X0021766Y0347196D01*
X0020131Y0347196D02*
X0023401Y0347196D01*
X0025656Y0347196D02*
X0025656Y0342292D01*
X0028925Y0342292D01*
X0031181Y0342292D02*
X0031181Y0347196D01*
X0033633Y0347196D01*
X0034450Y0346379D01*
X0034450Y0344744D01*
X0033633Y0343927D01*
X0031181Y0343927D01*
X0032815Y0343927D02*
X0034450Y0342292D01*
X0038340Y0342292D02*
X0038340Y0344744D01*
X0039975Y0346379D01*
X0039975Y0347196D01*
X0038340Y0344744D02*
X0036705Y0346379D01*
X0036705Y0347196D01*
X0042230Y0341475D02*
X0045500Y0341475D01*
X0047755Y0343109D02*
X0048572Y0342292D01*
X0050207Y0342292D01*
X0051024Y0343109D01*
X0051024Y0343927D01*
X0050207Y0344744D01*
X0048572Y0344744D01*
X0047755Y0345562D01*
X0047755Y0346379D01*
X0048572Y0347196D01*
X0050207Y0347196D01*
X0051024Y0346379D01*
X0053280Y0347196D02*
X0056549Y0347196D01*
X0054914Y0347196D02*
X0054914Y0342292D01*
X0058804Y0342292D02*
X0058804Y0347196D01*
X0061256Y0347196D01*
X0062074Y0346379D01*
X0062074Y0345562D01*
X0061256Y0344744D01*
X0058804Y0344744D01*
X0058804Y0342292D02*
X0061256Y0342292D01*
X0062074Y0343109D01*
X0062074Y0343927D01*
X0061256Y0344744D01*
X0064329Y0342292D02*
X0066781Y0342292D01*
X0067598Y0343109D01*
X0067598Y0346379D01*
X0066781Y0347196D01*
X0064329Y0347196D01*
X0064329Y0342292D01*
X0028925Y0347196D02*
X0025656Y0347196D01*
X0025656Y0344744D02*
X0027291Y0344744D01*
D14*
X0005999Y0311742D03*
X0005992Y0145502D03*
X0005992Y0076500D03*
X0396602Y0075439D03*
X0396602Y0146388D03*
X0396602Y0307805D03*
D15*
X0274515Y0169217D02*
X0264515Y0169217D01*
X0264515Y0148217D01*
X0274515Y0148217D01*
X0274515Y0169217D01*
X0272015Y0158717D02*
X0267015Y0158717D01*
X0275299Y0146811D02*
X0275299Y0136811D01*
X0296299Y0136811D01*
X0296299Y0146811D01*
X0275299Y0146811D01*
X0285799Y0144311D02*
X0285799Y0139311D01*
X0161936Y0322550D02*
X0161938Y0322573D01*
X0161944Y0322596D01*
X0161953Y0322617D01*
X0161966Y0322637D01*
X0161982Y0322654D01*
X0162000Y0322668D01*
X0162020Y0322679D01*
X0162042Y0322687D01*
X0162065Y0322691D01*
X0162089Y0322691D01*
X0162112Y0322687D01*
X0162134Y0322679D01*
X0162154Y0322668D01*
X0162172Y0322654D01*
X0162188Y0322637D01*
X0162201Y0322617D01*
X0162210Y0322596D01*
X0162216Y0322573D01*
X0162218Y0322550D01*
X0162216Y0322527D01*
X0162210Y0322504D01*
X0162201Y0322483D01*
X0162188Y0322463D01*
X0162172Y0322446D01*
X0162154Y0322432D01*
X0162134Y0322421D01*
X0162112Y0322413D01*
X0162089Y0322409D01*
X0162065Y0322409D01*
X0162042Y0322413D01*
X0162020Y0322421D01*
X0162000Y0322432D01*
X0161982Y0322446D01*
X0161966Y0322463D01*
X0161953Y0322483D01*
X0161944Y0322504D01*
X0161938Y0322527D01*
X0161936Y0322550D01*
X0242647Y0329231D02*
X0242649Y0329254D01*
X0242655Y0329277D01*
X0242664Y0329298D01*
X0242677Y0329318D01*
X0242693Y0329335D01*
X0242711Y0329349D01*
X0242731Y0329360D01*
X0242753Y0329368D01*
X0242776Y0329372D01*
X0242800Y0329372D01*
X0242823Y0329368D01*
X0242845Y0329360D01*
X0242865Y0329349D01*
X0242883Y0329335D01*
X0242899Y0329318D01*
X0242912Y0329298D01*
X0242921Y0329277D01*
X0242927Y0329254D01*
X0242929Y0329231D01*
X0242927Y0329208D01*
X0242921Y0329185D01*
X0242912Y0329164D01*
X0242899Y0329144D01*
X0242883Y0329127D01*
X0242865Y0329113D01*
X0242845Y0329102D01*
X0242823Y0329094D01*
X0242800Y0329090D01*
X0242776Y0329090D01*
X0242753Y0329094D01*
X0242731Y0329102D01*
X0242711Y0329113D01*
X0242693Y0329127D01*
X0242677Y0329144D01*
X0242664Y0329164D01*
X0242655Y0329185D01*
X0242649Y0329208D01*
X0242647Y0329231D01*
X0085779Y0214762D02*
X0085779Y0193762D01*
X0075779Y0193762D01*
X0075779Y0214762D01*
X0085779Y0214762D01*
X0083279Y0204262D02*
X0078279Y0204262D01*
D16*
X0256025Y0120994D03*
D17*
X0208564Y0341959D02*
X0208564Y0346462D01*
X0211566Y0346462D01*
X0210065Y0344211D02*
X0208564Y0344211D01*
X0206962Y0346462D02*
X0203960Y0346462D01*
X0203960Y0341959D01*
X0202358Y0342709D02*
X0202358Y0345712D01*
X0201608Y0346462D01*
X0200107Y0346462D01*
X0199356Y0345712D01*
X0199356Y0342709D01*
X0200107Y0341959D01*
X0201608Y0341959D01*
X0202358Y0342709D01*
X0203960Y0344211D02*
X0205461Y0344211D01*
M02*
