G75*
%MOIN*%
%OFA0B0*%
%FSLAX25Y25*%
%IPPOS*%
%LPD*%
%AMOC8*
5,1,8,0,0,1.08239X$1,22.5*
%
%ADD10C,0.00600*%
%ADD11C,0.00000*%
%ADD12OC8,0.13780*%
%ADD13R,0.13780X0.13780*%
%ADD14R,0.04724X0.02165*%
%ADD15OC8,0.05200*%
%ADD16C,0.08000*%
%ADD17C,0.16000*%
%ADD18R,0.15748X0.15748*%
%ADD19R,0.15000X0.15000*%
%ADD20R,0.01378X0.03543*%
%ADD21R,0.02400X0.08700*%
%ADD22R,0.04331X0.04331*%
%ADD23R,0.06500X0.25000*%
%ADD24C,0.00500*%
%ADD25OC8,0.10000*%
%ADD26C,0.09449*%
%ADD27OC8,0.11811*%
%ADD28R,0.11811X0.11811*%
%ADD29C,0.02978*%
%ADD30C,0.01600*%
%ADD31C,0.01200*%
%ADD32C,0.04000*%
%ADD33C,0.03200*%
%ADD34C,0.11811*%
%ADD35C,0.00787*%
%ADD36C,0.27559*%
%ADD37C,0.19685*%
%ADD38C,0.00800*%
D10*
X0001350Y0035709D02*
X0056468Y0035709D01*
X0056468Y0005000D01*
X0346232Y0005000D01*
X0346232Y0035709D01*
X0401350Y0035709D01*
X0401350Y0405000D01*
X0001350Y0405000D01*
X0001350Y0035709D01*
X0041704Y0066516D02*
X0063850Y0044370D01*
X0068279Y0044370D01*
X0076153Y0036496D01*
X0076411Y0036238D01*
X0076411Y0017500D01*
X0065326Y0014843D02*
X0064342Y0015827D01*
X0064342Y0036496D01*
X0067295Y0039449D01*
X0085996Y0039449D01*
X0088948Y0036496D01*
X0088948Y0015827D01*
X0087964Y0014843D01*
X0065326Y0014843D01*
X0064994Y0015175D02*
X0088296Y0015175D01*
X0088895Y0015773D02*
X0064396Y0015773D01*
X0064342Y0016372D02*
X0088948Y0016372D01*
X0088948Y0016970D02*
X0064342Y0016970D01*
X0064342Y0017569D02*
X0088948Y0017569D01*
X0088948Y0018167D02*
X0064342Y0018167D01*
X0064342Y0018766D02*
X0088948Y0018766D01*
X0088948Y0019364D02*
X0064342Y0019364D01*
X0064342Y0019963D02*
X0088948Y0019963D01*
X0088948Y0020561D02*
X0064342Y0020561D01*
X0064342Y0021160D02*
X0088948Y0021160D01*
X0088948Y0021758D02*
X0064342Y0021758D01*
X0064342Y0022357D02*
X0088948Y0022357D01*
X0088948Y0022955D02*
X0064342Y0022955D01*
X0064342Y0023554D02*
X0088948Y0023554D01*
X0088948Y0024152D02*
X0064342Y0024152D01*
X0064342Y0024751D02*
X0088948Y0024751D01*
X0088948Y0025349D02*
X0064342Y0025349D01*
X0064342Y0025948D02*
X0088948Y0025948D01*
X0088948Y0026546D02*
X0064342Y0026546D01*
X0064342Y0027145D02*
X0088948Y0027145D01*
X0088948Y0027743D02*
X0064342Y0027743D01*
X0064342Y0028342D02*
X0088948Y0028342D01*
X0088948Y0028940D02*
X0064342Y0028940D01*
X0064342Y0029539D02*
X0088948Y0029539D01*
X0088948Y0030137D02*
X0064342Y0030137D01*
X0064342Y0030736D02*
X0088948Y0030736D01*
X0088948Y0031334D02*
X0064342Y0031334D01*
X0064342Y0031933D02*
X0088948Y0031933D01*
X0088948Y0032532D02*
X0064342Y0032532D01*
X0064342Y0033130D02*
X0088948Y0033130D01*
X0088948Y0033729D02*
X0064342Y0033729D01*
X0064342Y0034327D02*
X0088948Y0034327D01*
X0088948Y0034926D02*
X0064342Y0034926D01*
X0064342Y0035524D02*
X0088948Y0035524D01*
X0088948Y0036123D02*
X0064342Y0036123D01*
X0064567Y0036721D02*
X0088723Y0036721D01*
X0088125Y0037320D02*
X0065166Y0037320D01*
X0065764Y0037918D02*
X0087526Y0037918D01*
X0086928Y0038517D02*
X0066363Y0038517D01*
X0066961Y0039115D02*
X0086329Y0039115D01*
X0093870Y0036496D02*
X0096822Y0039449D01*
X0115523Y0039449D01*
X0118476Y0036496D01*
X0118476Y0015827D01*
X0117492Y0014843D01*
X0094854Y0014843D01*
X0093870Y0015827D01*
X0093870Y0036496D01*
X0094095Y0036721D02*
X0118251Y0036721D01*
X0118476Y0036123D02*
X0093870Y0036123D01*
X0093870Y0035524D02*
X0118476Y0035524D01*
X0118476Y0034926D02*
X0093870Y0034926D01*
X0093870Y0034327D02*
X0118476Y0034327D01*
X0118476Y0033729D02*
X0093870Y0033729D01*
X0093870Y0033130D02*
X0118476Y0033130D01*
X0118476Y0032532D02*
X0093870Y0032532D01*
X0093870Y0031933D02*
X0118476Y0031933D01*
X0118476Y0031334D02*
X0093870Y0031334D01*
X0093870Y0030736D02*
X0118476Y0030736D01*
X0118476Y0030137D02*
X0093870Y0030137D01*
X0093870Y0029539D02*
X0118476Y0029539D01*
X0118476Y0028940D02*
X0093870Y0028940D01*
X0093870Y0028342D02*
X0118476Y0028342D01*
X0118476Y0027743D02*
X0093870Y0027743D01*
X0093870Y0027145D02*
X0118476Y0027145D01*
X0118476Y0026546D02*
X0093870Y0026546D01*
X0093870Y0025948D02*
X0118476Y0025948D01*
X0118476Y0025349D02*
X0093870Y0025349D01*
X0093870Y0024751D02*
X0118476Y0024751D01*
X0118476Y0024152D02*
X0093870Y0024152D01*
X0093870Y0023554D02*
X0118476Y0023554D01*
X0118476Y0022955D02*
X0093870Y0022955D01*
X0093870Y0022357D02*
X0118476Y0022357D01*
X0118476Y0021758D02*
X0093870Y0021758D01*
X0093870Y0021160D02*
X0118476Y0021160D01*
X0118476Y0020561D02*
X0093870Y0020561D01*
X0093870Y0019963D02*
X0118476Y0019963D01*
X0118476Y0019364D02*
X0093870Y0019364D01*
X0093870Y0018766D02*
X0118476Y0018766D01*
X0118476Y0018167D02*
X0093870Y0018167D01*
X0093870Y0017569D02*
X0118476Y0017569D01*
X0118476Y0016970D02*
X0093870Y0016970D01*
X0093870Y0016372D02*
X0118476Y0016372D01*
X0118422Y0015773D02*
X0093923Y0015773D01*
X0094522Y0015175D02*
X0117824Y0015175D01*
X0106411Y0017500D02*
X0106411Y0036496D01*
X0106411Y0044370D02*
X0102474Y0048307D01*
X0062374Y0048307D01*
X0043673Y0067008D01*
X0043673Y0345551D01*
X0064707Y0366585D01*
X0069032Y0366585D01*
X0070067Y0367619D01*
X0070067Y0376851D01*
X0072232Y0379016D01*
X0076153Y0379016D01*
X0077374Y0377795D01*
X0077374Y0372042D01*
X0082374Y0372042D01*
X0072374Y0372042D02*
X0071474Y0371142D01*
X0071474Y0367037D01*
X0069615Y0365178D01*
X0066252Y0365178D01*
X0045641Y0344567D01*
X0045641Y0119173D01*
X0049578Y0115236D01*
X0083043Y0115236D01*
X0089933Y0122126D01*
X0089933Y0150669D01*
X0097807Y0158543D01*
X0219854Y0158543D01*
X0254647Y0144124D02*
X0254647Y0138514D01*
X0257206Y0138514D02*
X0257256Y0138563D01*
X0257256Y0142795D01*
X0259224Y0144764D01*
X0264145Y0144764D01*
X0277346Y0144764D01*
X0280299Y0141811D01*
X0269515Y0153217D02*
X0303515Y0153217D01*
X0313358Y0143374D01*
X0313358Y0126063D01*
X0320248Y0119173D01*
X0352728Y0119173D01*
X0356242Y0122687D01*
X0356242Y0193415D01*
X0314820Y0234837D01*
X0314820Y0253347D01*
X0315469Y0253996D01*
X0323786Y0253996D01*
X0324435Y0253347D01*
X0324435Y0251231D01*
X0327128Y0248539D01*
X0322216Y0248450D02*
X0322128Y0248539D01*
X0317128Y0248539D01*
X0322216Y0248450D02*
X0322216Y0242205D01*
X0329820Y0234600D01*
X0329820Y0254285D01*
X0328122Y0255984D01*
X0316311Y0255984D01*
X0279893Y0292402D01*
X0279893Y0362283D01*
X0277925Y0364252D01*
X0278909Y0380984D02*
X0259224Y0361299D01*
X0244224Y0361299D01*
X0234381Y0371142D01*
X0232413Y0371142D01*
X0255287Y0385906D02*
X0255287Y0390827D01*
X0259224Y0394764D01*
X0263161Y0394764D01*
X0271035Y0394764D02*
X0262413Y0386142D01*
X0262413Y0371142D01*
X0278909Y0380984D02*
X0333043Y0380984D01*
X0360463Y0353564D01*
X0360463Y0052063D01*
X0350379Y0041979D01*
X0344941Y0041979D01*
X0340443Y0037480D01*
X0341498Y0037480D01*
X0341901Y0043386D02*
X0333043Y0034528D01*
X0324185Y0034528D01*
X0318279Y0040433D01*
X0313358Y0045354D01*
X0297551Y0045354D01*
X0281960Y0060945D01*
X0293820Y0060945D01*
X0267098Y0087667D01*
X0267098Y0110252D01*
X0264850Y0112500D01*
X0264850Y0115843D01*
X0264883Y0115876D01*
X0262324Y0115876D02*
X0262324Y0118214D01*
X0264145Y0120035D01*
X0272428Y0120035D01*
X0274357Y0118106D01*
X0274357Y0115960D01*
X0281960Y0108307D01*
X0282059Y0108258D01*
X0293820Y0108258D01*
X0295730Y0108258D01*
X0302531Y0101457D01*
X0302531Y0053228D01*
X0307452Y0048307D01*
X0314342Y0048307D01*
X0325169Y0037480D01*
X0332059Y0037480D01*
X0339933Y0045354D01*
X0349775Y0045354D01*
X0357649Y0053228D01*
X0357649Y0206772D01*
X0329820Y0234600D01*
X0332128Y0248539D02*
X0359056Y0221610D01*
X0359056Y0052645D01*
X0349797Y0043386D01*
X0341901Y0043386D01*
X0316411Y0034427D02*
X0316411Y0017500D01*
X0316311Y0017600D01*
X0306468Y0017557D02*
X0306411Y0017500D01*
X0306468Y0017557D01*
X0306468Y0032559D01*
X0303515Y0035512D01*
X0290720Y0035512D01*
X0257206Y0069026D01*
X0257206Y0115876D01*
X0259765Y0115876D02*
X0259765Y0112726D01*
X0262177Y0110315D01*
X0262177Y0072913D01*
X0295641Y0039449D01*
X0311389Y0039449D01*
X0316411Y0034427D01*
X0293820Y0080945D02*
X0293820Y0088258D01*
X0272561Y0109518D01*
X0272561Y0115876D01*
X0270002Y0115876D02*
X0270002Y0106427D01*
X0281862Y0094567D01*
X0281862Y0088455D01*
X0281960Y0088307D01*
X0281960Y0080945D01*
X0254647Y0144124D02*
X0263740Y0153217D01*
X0269515Y0153217D01*
X0272309Y0248785D02*
X0268328Y0252766D01*
X0234618Y0272254D02*
X0232649Y0270285D01*
X0219391Y0270285D02*
X0219391Y0279085D01*
X0173594Y0270285D02*
X0171886Y0271993D01*
X0176350Y0351457D02*
X0176405Y0351512D01*
X0176405Y0360315D01*
X0067374Y0372042D02*
X0041704Y0346373D01*
X0041704Y0066516D01*
X0094693Y0037320D02*
X0117652Y0037320D01*
X0117054Y0037918D02*
X0095292Y0037918D01*
X0095890Y0038517D02*
X0116455Y0038517D01*
X0115857Y0039115D02*
X0096489Y0039115D01*
X0105681Y0017500D02*
X0106411Y0017500D01*
D11*
X0022504Y0076500D02*
X0022506Y0076653D01*
X0022512Y0076807D01*
X0022522Y0076960D01*
X0022536Y0077112D01*
X0022554Y0077265D01*
X0022576Y0077416D01*
X0022601Y0077567D01*
X0022631Y0077718D01*
X0022665Y0077868D01*
X0022702Y0078016D01*
X0022743Y0078164D01*
X0022788Y0078310D01*
X0022837Y0078456D01*
X0022890Y0078600D01*
X0022946Y0078742D01*
X0023006Y0078883D01*
X0023070Y0079023D01*
X0023137Y0079161D01*
X0023208Y0079297D01*
X0023283Y0079431D01*
X0023360Y0079563D01*
X0023442Y0079693D01*
X0023526Y0079821D01*
X0023614Y0079947D01*
X0023705Y0080070D01*
X0023799Y0080191D01*
X0023897Y0080309D01*
X0023997Y0080425D01*
X0024101Y0080538D01*
X0024207Y0080649D01*
X0024316Y0080757D01*
X0024428Y0080862D01*
X0024542Y0080963D01*
X0024660Y0081062D01*
X0024779Y0081158D01*
X0024901Y0081251D01*
X0025026Y0081340D01*
X0025153Y0081427D01*
X0025282Y0081509D01*
X0025413Y0081589D01*
X0025546Y0081665D01*
X0025681Y0081738D01*
X0025818Y0081807D01*
X0025957Y0081872D01*
X0026097Y0081934D01*
X0026239Y0081992D01*
X0026382Y0082047D01*
X0026527Y0082098D01*
X0026673Y0082145D01*
X0026820Y0082188D01*
X0026968Y0082227D01*
X0027117Y0082263D01*
X0027267Y0082294D01*
X0027418Y0082322D01*
X0027569Y0082346D01*
X0027722Y0082366D01*
X0027874Y0082382D01*
X0028027Y0082394D01*
X0028180Y0082402D01*
X0028333Y0082406D01*
X0028487Y0082406D01*
X0028640Y0082402D01*
X0028793Y0082394D01*
X0028946Y0082382D01*
X0029098Y0082366D01*
X0029251Y0082346D01*
X0029402Y0082322D01*
X0029553Y0082294D01*
X0029703Y0082263D01*
X0029852Y0082227D01*
X0030000Y0082188D01*
X0030147Y0082145D01*
X0030293Y0082098D01*
X0030438Y0082047D01*
X0030581Y0081992D01*
X0030723Y0081934D01*
X0030863Y0081872D01*
X0031002Y0081807D01*
X0031139Y0081738D01*
X0031274Y0081665D01*
X0031407Y0081589D01*
X0031538Y0081509D01*
X0031667Y0081427D01*
X0031794Y0081340D01*
X0031919Y0081251D01*
X0032041Y0081158D01*
X0032160Y0081062D01*
X0032278Y0080963D01*
X0032392Y0080862D01*
X0032504Y0080757D01*
X0032613Y0080649D01*
X0032719Y0080538D01*
X0032823Y0080425D01*
X0032923Y0080309D01*
X0033021Y0080191D01*
X0033115Y0080070D01*
X0033206Y0079947D01*
X0033294Y0079821D01*
X0033378Y0079693D01*
X0033460Y0079563D01*
X0033537Y0079431D01*
X0033612Y0079297D01*
X0033683Y0079161D01*
X0033750Y0079023D01*
X0033814Y0078883D01*
X0033874Y0078742D01*
X0033930Y0078600D01*
X0033983Y0078456D01*
X0034032Y0078310D01*
X0034077Y0078164D01*
X0034118Y0078016D01*
X0034155Y0077868D01*
X0034189Y0077718D01*
X0034219Y0077567D01*
X0034244Y0077416D01*
X0034266Y0077265D01*
X0034284Y0077112D01*
X0034298Y0076960D01*
X0034308Y0076807D01*
X0034314Y0076653D01*
X0034316Y0076500D01*
X0034314Y0076347D01*
X0034308Y0076193D01*
X0034298Y0076040D01*
X0034284Y0075888D01*
X0034266Y0075735D01*
X0034244Y0075584D01*
X0034219Y0075433D01*
X0034189Y0075282D01*
X0034155Y0075132D01*
X0034118Y0074984D01*
X0034077Y0074836D01*
X0034032Y0074690D01*
X0033983Y0074544D01*
X0033930Y0074400D01*
X0033874Y0074258D01*
X0033814Y0074117D01*
X0033750Y0073977D01*
X0033683Y0073839D01*
X0033612Y0073703D01*
X0033537Y0073569D01*
X0033460Y0073437D01*
X0033378Y0073307D01*
X0033294Y0073179D01*
X0033206Y0073053D01*
X0033115Y0072930D01*
X0033021Y0072809D01*
X0032923Y0072691D01*
X0032823Y0072575D01*
X0032719Y0072462D01*
X0032613Y0072351D01*
X0032504Y0072243D01*
X0032392Y0072138D01*
X0032278Y0072037D01*
X0032160Y0071938D01*
X0032041Y0071842D01*
X0031919Y0071749D01*
X0031794Y0071660D01*
X0031667Y0071573D01*
X0031538Y0071491D01*
X0031407Y0071411D01*
X0031274Y0071335D01*
X0031139Y0071262D01*
X0031002Y0071193D01*
X0030863Y0071128D01*
X0030723Y0071066D01*
X0030581Y0071008D01*
X0030438Y0070953D01*
X0030293Y0070902D01*
X0030147Y0070855D01*
X0030000Y0070812D01*
X0029852Y0070773D01*
X0029703Y0070737D01*
X0029553Y0070706D01*
X0029402Y0070678D01*
X0029251Y0070654D01*
X0029098Y0070634D01*
X0028946Y0070618D01*
X0028793Y0070606D01*
X0028640Y0070598D01*
X0028487Y0070594D01*
X0028333Y0070594D01*
X0028180Y0070598D01*
X0028027Y0070606D01*
X0027874Y0070618D01*
X0027722Y0070634D01*
X0027569Y0070654D01*
X0027418Y0070678D01*
X0027267Y0070706D01*
X0027117Y0070737D01*
X0026968Y0070773D01*
X0026820Y0070812D01*
X0026673Y0070855D01*
X0026527Y0070902D01*
X0026382Y0070953D01*
X0026239Y0071008D01*
X0026097Y0071066D01*
X0025957Y0071128D01*
X0025818Y0071193D01*
X0025681Y0071262D01*
X0025546Y0071335D01*
X0025413Y0071411D01*
X0025282Y0071491D01*
X0025153Y0071573D01*
X0025026Y0071660D01*
X0024901Y0071749D01*
X0024779Y0071842D01*
X0024660Y0071938D01*
X0024542Y0072037D01*
X0024428Y0072138D01*
X0024316Y0072243D01*
X0024207Y0072351D01*
X0024101Y0072462D01*
X0023997Y0072575D01*
X0023897Y0072691D01*
X0023799Y0072809D01*
X0023705Y0072930D01*
X0023614Y0073053D01*
X0023526Y0073179D01*
X0023442Y0073307D01*
X0023360Y0073437D01*
X0023283Y0073569D01*
X0023208Y0073703D01*
X0023137Y0073839D01*
X0023070Y0073977D01*
X0023006Y0074117D01*
X0022946Y0074258D01*
X0022890Y0074400D01*
X0022837Y0074544D01*
X0022788Y0074690D01*
X0022743Y0074836D01*
X0022702Y0074984D01*
X0022665Y0075132D01*
X0022631Y0075282D01*
X0022601Y0075433D01*
X0022576Y0075584D01*
X0022554Y0075735D01*
X0022536Y0075888D01*
X0022522Y0076040D01*
X0022512Y0076193D01*
X0022506Y0076347D01*
X0022504Y0076500D01*
X0022504Y0129002D02*
X0022506Y0129155D01*
X0022512Y0129309D01*
X0022522Y0129462D01*
X0022536Y0129614D01*
X0022554Y0129767D01*
X0022576Y0129918D01*
X0022601Y0130069D01*
X0022631Y0130220D01*
X0022665Y0130370D01*
X0022702Y0130518D01*
X0022743Y0130666D01*
X0022788Y0130812D01*
X0022837Y0130958D01*
X0022890Y0131102D01*
X0022946Y0131244D01*
X0023006Y0131385D01*
X0023070Y0131525D01*
X0023137Y0131663D01*
X0023208Y0131799D01*
X0023283Y0131933D01*
X0023360Y0132065D01*
X0023442Y0132195D01*
X0023526Y0132323D01*
X0023614Y0132449D01*
X0023705Y0132572D01*
X0023799Y0132693D01*
X0023897Y0132811D01*
X0023997Y0132927D01*
X0024101Y0133040D01*
X0024207Y0133151D01*
X0024316Y0133259D01*
X0024428Y0133364D01*
X0024542Y0133465D01*
X0024660Y0133564D01*
X0024779Y0133660D01*
X0024901Y0133753D01*
X0025026Y0133842D01*
X0025153Y0133929D01*
X0025282Y0134011D01*
X0025413Y0134091D01*
X0025546Y0134167D01*
X0025681Y0134240D01*
X0025818Y0134309D01*
X0025957Y0134374D01*
X0026097Y0134436D01*
X0026239Y0134494D01*
X0026382Y0134549D01*
X0026527Y0134600D01*
X0026673Y0134647D01*
X0026820Y0134690D01*
X0026968Y0134729D01*
X0027117Y0134765D01*
X0027267Y0134796D01*
X0027418Y0134824D01*
X0027569Y0134848D01*
X0027722Y0134868D01*
X0027874Y0134884D01*
X0028027Y0134896D01*
X0028180Y0134904D01*
X0028333Y0134908D01*
X0028487Y0134908D01*
X0028640Y0134904D01*
X0028793Y0134896D01*
X0028946Y0134884D01*
X0029098Y0134868D01*
X0029251Y0134848D01*
X0029402Y0134824D01*
X0029553Y0134796D01*
X0029703Y0134765D01*
X0029852Y0134729D01*
X0030000Y0134690D01*
X0030147Y0134647D01*
X0030293Y0134600D01*
X0030438Y0134549D01*
X0030581Y0134494D01*
X0030723Y0134436D01*
X0030863Y0134374D01*
X0031002Y0134309D01*
X0031139Y0134240D01*
X0031274Y0134167D01*
X0031407Y0134091D01*
X0031538Y0134011D01*
X0031667Y0133929D01*
X0031794Y0133842D01*
X0031919Y0133753D01*
X0032041Y0133660D01*
X0032160Y0133564D01*
X0032278Y0133465D01*
X0032392Y0133364D01*
X0032504Y0133259D01*
X0032613Y0133151D01*
X0032719Y0133040D01*
X0032823Y0132927D01*
X0032923Y0132811D01*
X0033021Y0132693D01*
X0033115Y0132572D01*
X0033206Y0132449D01*
X0033294Y0132323D01*
X0033378Y0132195D01*
X0033460Y0132065D01*
X0033537Y0131933D01*
X0033612Y0131799D01*
X0033683Y0131663D01*
X0033750Y0131525D01*
X0033814Y0131385D01*
X0033874Y0131244D01*
X0033930Y0131102D01*
X0033983Y0130958D01*
X0034032Y0130812D01*
X0034077Y0130666D01*
X0034118Y0130518D01*
X0034155Y0130370D01*
X0034189Y0130220D01*
X0034219Y0130069D01*
X0034244Y0129918D01*
X0034266Y0129767D01*
X0034284Y0129614D01*
X0034298Y0129462D01*
X0034308Y0129309D01*
X0034314Y0129155D01*
X0034316Y0129002D01*
X0034314Y0128849D01*
X0034308Y0128695D01*
X0034298Y0128542D01*
X0034284Y0128390D01*
X0034266Y0128237D01*
X0034244Y0128086D01*
X0034219Y0127935D01*
X0034189Y0127784D01*
X0034155Y0127634D01*
X0034118Y0127486D01*
X0034077Y0127338D01*
X0034032Y0127192D01*
X0033983Y0127046D01*
X0033930Y0126902D01*
X0033874Y0126760D01*
X0033814Y0126619D01*
X0033750Y0126479D01*
X0033683Y0126341D01*
X0033612Y0126205D01*
X0033537Y0126071D01*
X0033460Y0125939D01*
X0033378Y0125809D01*
X0033294Y0125681D01*
X0033206Y0125555D01*
X0033115Y0125432D01*
X0033021Y0125311D01*
X0032923Y0125193D01*
X0032823Y0125077D01*
X0032719Y0124964D01*
X0032613Y0124853D01*
X0032504Y0124745D01*
X0032392Y0124640D01*
X0032278Y0124539D01*
X0032160Y0124440D01*
X0032041Y0124344D01*
X0031919Y0124251D01*
X0031794Y0124162D01*
X0031667Y0124075D01*
X0031538Y0123993D01*
X0031407Y0123913D01*
X0031274Y0123837D01*
X0031139Y0123764D01*
X0031002Y0123695D01*
X0030863Y0123630D01*
X0030723Y0123568D01*
X0030581Y0123510D01*
X0030438Y0123455D01*
X0030293Y0123404D01*
X0030147Y0123357D01*
X0030000Y0123314D01*
X0029852Y0123275D01*
X0029703Y0123239D01*
X0029553Y0123208D01*
X0029402Y0123180D01*
X0029251Y0123156D01*
X0029098Y0123136D01*
X0028946Y0123120D01*
X0028793Y0123108D01*
X0028640Y0123100D01*
X0028487Y0123096D01*
X0028333Y0123096D01*
X0028180Y0123100D01*
X0028027Y0123108D01*
X0027874Y0123120D01*
X0027722Y0123136D01*
X0027569Y0123156D01*
X0027418Y0123180D01*
X0027267Y0123208D01*
X0027117Y0123239D01*
X0026968Y0123275D01*
X0026820Y0123314D01*
X0026673Y0123357D01*
X0026527Y0123404D01*
X0026382Y0123455D01*
X0026239Y0123510D01*
X0026097Y0123568D01*
X0025957Y0123630D01*
X0025818Y0123695D01*
X0025681Y0123764D01*
X0025546Y0123837D01*
X0025413Y0123913D01*
X0025282Y0123993D01*
X0025153Y0124075D01*
X0025026Y0124162D01*
X0024901Y0124251D01*
X0024779Y0124344D01*
X0024660Y0124440D01*
X0024542Y0124539D01*
X0024428Y0124640D01*
X0024316Y0124745D01*
X0024207Y0124853D01*
X0024101Y0124964D01*
X0023997Y0125077D01*
X0023897Y0125193D01*
X0023799Y0125311D01*
X0023705Y0125432D01*
X0023614Y0125555D01*
X0023526Y0125681D01*
X0023442Y0125809D01*
X0023360Y0125939D01*
X0023283Y0126071D01*
X0023208Y0126205D01*
X0023137Y0126341D01*
X0023070Y0126479D01*
X0023006Y0126619D01*
X0022946Y0126760D01*
X0022890Y0126902D01*
X0022837Y0127046D01*
X0022788Y0127192D01*
X0022743Y0127338D01*
X0022702Y0127486D01*
X0022665Y0127634D01*
X0022631Y0127784D01*
X0022601Y0127935D01*
X0022576Y0128086D01*
X0022554Y0128237D01*
X0022536Y0128390D01*
X0022522Y0128542D01*
X0022512Y0128695D01*
X0022506Y0128849D01*
X0022504Y0129002D01*
X0022504Y0162002D02*
X0022506Y0162155D01*
X0022512Y0162309D01*
X0022522Y0162462D01*
X0022536Y0162614D01*
X0022554Y0162767D01*
X0022576Y0162918D01*
X0022601Y0163069D01*
X0022631Y0163220D01*
X0022665Y0163370D01*
X0022702Y0163518D01*
X0022743Y0163666D01*
X0022788Y0163812D01*
X0022837Y0163958D01*
X0022890Y0164102D01*
X0022946Y0164244D01*
X0023006Y0164385D01*
X0023070Y0164525D01*
X0023137Y0164663D01*
X0023208Y0164799D01*
X0023283Y0164933D01*
X0023360Y0165065D01*
X0023442Y0165195D01*
X0023526Y0165323D01*
X0023614Y0165449D01*
X0023705Y0165572D01*
X0023799Y0165693D01*
X0023897Y0165811D01*
X0023997Y0165927D01*
X0024101Y0166040D01*
X0024207Y0166151D01*
X0024316Y0166259D01*
X0024428Y0166364D01*
X0024542Y0166465D01*
X0024660Y0166564D01*
X0024779Y0166660D01*
X0024901Y0166753D01*
X0025026Y0166842D01*
X0025153Y0166929D01*
X0025282Y0167011D01*
X0025413Y0167091D01*
X0025546Y0167167D01*
X0025681Y0167240D01*
X0025818Y0167309D01*
X0025957Y0167374D01*
X0026097Y0167436D01*
X0026239Y0167494D01*
X0026382Y0167549D01*
X0026527Y0167600D01*
X0026673Y0167647D01*
X0026820Y0167690D01*
X0026968Y0167729D01*
X0027117Y0167765D01*
X0027267Y0167796D01*
X0027418Y0167824D01*
X0027569Y0167848D01*
X0027722Y0167868D01*
X0027874Y0167884D01*
X0028027Y0167896D01*
X0028180Y0167904D01*
X0028333Y0167908D01*
X0028487Y0167908D01*
X0028640Y0167904D01*
X0028793Y0167896D01*
X0028946Y0167884D01*
X0029098Y0167868D01*
X0029251Y0167848D01*
X0029402Y0167824D01*
X0029553Y0167796D01*
X0029703Y0167765D01*
X0029852Y0167729D01*
X0030000Y0167690D01*
X0030147Y0167647D01*
X0030293Y0167600D01*
X0030438Y0167549D01*
X0030581Y0167494D01*
X0030723Y0167436D01*
X0030863Y0167374D01*
X0031002Y0167309D01*
X0031139Y0167240D01*
X0031274Y0167167D01*
X0031407Y0167091D01*
X0031538Y0167011D01*
X0031667Y0166929D01*
X0031794Y0166842D01*
X0031919Y0166753D01*
X0032041Y0166660D01*
X0032160Y0166564D01*
X0032278Y0166465D01*
X0032392Y0166364D01*
X0032504Y0166259D01*
X0032613Y0166151D01*
X0032719Y0166040D01*
X0032823Y0165927D01*
X0032923Y0165811D01*
X0033021Y0165693D01*
X0033115Y0165572D01*
X0033206Y0165449D01*
X0033294Y0165323D01*
X0033378Y0165195D01*
X0033460Y0165065D01*
X0033537Y0164933D01*
X0033612Y0164799D01*
X0033683Y0164663D01*
X0033750Y0164525D01*
X0033814Y0164385D01*
X0033874Y0164244D01*
X0033930Y0164102D01*
X0033983Y0163958D01*
X0034032Y0163812D01*
X0034077Y0163666D01*
X0034118Y0163518D01*
X0034155Y0163370D01*
X0034189Y0163220D01*
X0034219Y0163069D01*
X0034244Y0162918D01*
X0034266Y0162767D01*
X0034284Y0162614D01*
X0034298Y0162462D01*
X0034308Y0162309D01*
X0034314Y0162155D01*
X0034316Y0162002D01*
X0034314Y0161849D01*
X0034308Y0161695D01*
X0034298Y0161542D01*
X0034284Y0161390D01*
X0034266Y0161237D01*
X0034244Y0161086D01*
X0034219Y0160935D01*
X0034189Y0160784D01*
X0034155Y0160634D01*
X0034118Y0160486D01*
X0034077Y0160338D01*
X0034032Y0160192D01*
X0033983Y0160046D01*
X0033930Y0159902D01*
X0033874Y0159760D01*
X0033814Y0159619D01*
X0033750Y0159479D01*
X0033683Y0159341D01*
X0033612Y0159205D01*
X0033537Y0159071D01*
X0033460Y0158939D01*
X0033378Y0158809D01*
X0033294Y0158681D01*
X0033206Y0158555D01*
X0033115Y0158432D01*
X0033021Y0158311D01*
X0032923Y0158193D01*
X0032823Y0158077D01*
X0032719Y0157964D01*
X0032613Y0157853D01*
X0032504Y0157745D01*
X0032392Y0157640D01*
X0032278Y0157539D01*
X0032160Y0157440D01*
X0032041Y0157344D01*
X0031919Y0157251D01*
X0031794Y0157162D01*
X0031667Y0157075D01*
X0031538Y0156993D01*
X0031407Y0156913D01*
X0031274Y0156837D01*
X0031139Y0156764D01*
X0031002Y0156695D01*
X0030863Y0156630D01*
X0030723Y0156568D01*
X0030581Y0156510D01*
X0030438Y0156455D01*
X0030293Y0156404D01*
X0030147Y0156357D01*
X0030000Y0156314D01*
X0029852Y0156275D01*
X0029703Y0156239D01*
X0029553Y0156208D01*
X0029402Y0156180D01*
X0029251Y0156156D01*
X0029098Y0156136D01*
X0028946Y0156120D01*
X0028793Y0156108D01*
X0028640Y0156100D01*
X0028487Y0156096D01*
X0028333Y0156096D01*
X0028180Y0156100D01*
X0028027Y0156108D01*
X0027874Y0156120D01*
X0027722Y0156136D01*
X0027569Y0156156D01*
X0027418Y0156180D01*
X0027267Y0156208D01*
X0027117Y0156239D01*
X0026968Y0156275D01*
X0026820Y0156314D01*
X0026673Y0156357D01*
X0026527Y0156404D01*
X0026382Y0156455D01*
X0026239Y0156510D01*
X0026097Y0156568D01*
X0025957Y0156630D01*
X0025818Y0156695D01*
X0025681Y0156764D01*
X0025546Y0156837D01*
X0025413Y0156913D01*
X0025282Y0156993D01*
X0025153Y0157075D01*
X0025026Y0157162D01*
X0024901Y0157251D01*
X0024779Y0157344D01*
X0024660Y0157440D01*
X0024542Y0157539D01*
X0024428Y0157640D01*
X0024316Y0157745D01*
X0024207Y0157853D01*
X0024101Y0157964D01*
X0023997Y0158077D01*
X0023897Y0158193D01*
X0023799Y0158311D01*
X0023705Y0158432D01*
X0023614Y0158555D01*
X0023526Y0158681D01*
X0023442Y0158809D01*
X0023360Y0158939D01*
X0023283Y0159071D01*
X0023208Y0159205D01*
X0023137Y0159341D01*
X0023070Y0159479D01*
X0023006Y0159619D01*
X0022946Y0159760D01*
X0022890Y0159902D01*
X0022837Y0160046D01*
X0022788Y0160192D01*
X0022743Y0160338D01*
X0022702Y0160486D01*
X0022665Y0160634D01*
X0022631Y0160784D01*
X0022601Y0160935D01*
X0022576Y0161086D01*
X0022554Y0161237D01*
X0022536Y0161390D01*
X0022522Y0161542D01*
X0022512Y0161695D01*
X0022506Y0161849D01*
X0022504Y0162002D01*
X0022511Y0295242D02*
X0022513Y0295395D01*
X0022519Y0295549D01*
X0022529Y0295702D01*
X0022543Y0295854D01*
X0022561Y0296007D01*
X0022583Y0296158D01*
X0022608Y0296309D01*
X0022638Y0296460D01*
X0022672Y0296610D01*
X0022709Y0296758D01*
X0022750Y0296906D01*
X0022795Y0297052D01*
X0022844Y0297198D01*
X0022897Y0297342D01*
X0022953Y0297484D01*
X0023013Y0297625D01*
X0023077Y0297765D01*
X0023144Y0297903D01*
X0023215Y0298039D01*
X0023290Y0298173D01*
X0023367Y0298305D01*
X0023449Y0298435D01*
X0023533Y0298563D01*
X0023621Y0298689D01*
X0023712Y0298812D01*
X0023806Y0298933D01*
X0023904Y0299051D01*
X0024004Y0299167D01*
X0024108Y0299280D01*
X0024214Y0299391D01*
X0024323Y0299499D01*
X0024435Y0299604D01*
X0024549Y0299705D01*
X0024667Y0299804D01*
X0024786Y0299900D01*
X0024908Y0299993D01*
X0025033Y0300082D01*
X0025160Y0300169D01*
X0025289Y0300251D01*
X0025420Y0300331D01*
X0025553Y0300407D01*
X0025688Y0300480D01*
X0025825Y0300549D01*
X0025964Y0300614D01*
X0026104Y0300676D01*
X0026246Y0300734D01*
X0026389Y0300789D01*
X0026534Y0300840D01*
X0026680Y0300887D01*
X0026827Y0300930D01*
X0026975Y0300969D01*
X0027124Y0301005D01*
X0027274Y0301036D01*
X0027425Y0301064D01*
X0027576Y0301088D01*
X0027729Y0301108D01*
X0027881Y0301124D01*
X0028034Y0301136D01*
X0028187Y0301144D01*
X0028340Y0301148D01*
X0028494Y0301148D01*
X0028647Y0301144D01*
X0028800Y0301136D01*
X0028953Y0301124D01*
X0029105Y0301108D01*
X0029258Y0301088D01*
X0029409Y0301064D01*
X0029560Y0301036D01*
X0029710Y0301005D01*
X0029859Y0300969D01*
X0030007Y0300930D01*
X0030154Y0300887D01*
X0030300Y0300840D01*
X0030445Y0300789D01*
X0030588Y0300734D01*
X0030730Y0300676D01*
X0030870Y0300614D01*
X0031009Y0300549D01*
X0031146Y0300480D01*
X0031281Y0300407D01*
X0031414Y0300331D01*
X0031545Y0300251D01*
X0031674Y0300169D01*
X0031801Y0300082D01*
X0031926Y0299993D01*
X0032048Y0299900D01*
X0032167Y0299804D01*
X0032285Y0299705D01*
X0032399Y0299604D01*
X0032511Y0299499D01*
X0032620Y0299391D01*
X0032726Y0299280D01*
X0032830Y0299167D01*
X0032930Y0299051D01*
X0033028Y0298933D01*
X0033122Y0298812D01*
X0033213Y0298689D01*
X0033301Y0298563D01*
X0033385Y0298435D01*
X0033467Y0298305D01*
X0033544Y0298173D01*
X0033619Y0298039D01*
X0033690Y0297903D01*
X0033757Y0297765D01*
X0033821Y0297625D01*
X0033881Y0297484D01*
X0033937Y0297342D01*
X0033990Y0297198D01*
X0034039Y0297052D01*
X0034084Y0296906D01*
X0034125Y0296758D01*
X0034162Y0296610D01*
X0034196Y0296460D01*
X0034226Y0296309D01*
X0034251Y0296158D01*
X0034273Y0296007D01*
X0034291Y0295854D01*
X0034305Y0295702D01*
X0034315Y0295549D01*
X0034321Y0295395D01*
X0034323Y0295242D01*
X0034321Y0295089D01*
X0034315Y0294935D01*
X0034305Y0294782D01*
X0034291Y0294630D01*
X0034273Y0294477D01*
X0034251Y0294326D01*
X0034226Y0294175D01*
X0034196Y0294024D01*
X0034162Y0293874D01*
X0034125Y0293726D01*
X0034084Y0293578D01*
X0034039Y0293432D01*
X0033990Y0293286D01*
X0033937Y0293142D01*
X0033881Y0293000D01*
X0033821Y0292859D01*
X0033757Y0292719D01*
X0033690Y0292581D01*
X0033619Y0292445D01*
X0033544Y0292311D01*
X0033467Y0292179D01*
X0033385Y0292049D01*
X0033301Y0291921D01*
X0033213Y0291795D01*
X0033122Y0291672D01*
X0033028Y0291551D01*
X0032930Y0291433D01*
X0032830Y0291317D01*
X0032726Y0291204D01*
X0032620Y0291093D01*
X0032511Y0290985D01*
X0032399Y0290880D01*
X0032285Y0290779D01*
X0032167Y0290680D01*
X0032048Y0290584D01*
X0031926Y0290491D01*
X0031801Y0290402D01*
X0031674Y0290315D01*
X0031545Y0290233D01*
X0031414Y0290153D01*
X0031281Y0290077D01*
X0031146Y0290004D01*
X0031009Y0289935D01*
X0030870Y0289870D01*
X0030730Y0289808D01*
X0030588Y0289750D01*
X0030445Y0289695D01*
X0030300Y0289644D01*
X0030154Y0289597D01*
X0030007Y0289554D01*
X0029859Y0289515D01*
X0029710Y0289479D01*
X0029560Y0289448D01*
X0029409Y0289420D01*
X0029258Y0289396D01*
X0029105Y0289376D01*
X0028953Y0289360D01*
X0028800Y0289348D01*
X0028647Y0289340D01*
X0028494Y0289336D01*
X0028340Y0289336D01*
X0028187Y0289340D01*
X0028034Y0289348D01*
X0027881Y0289360D01*
X0027729Y0289376D01*
X0027576Y0289396D01*
X0027425Y0289420D01*
X0027274Y0289448D01*
X0027124Y0289479D01*
X0026975Y0289515D01*
X0026827Y0289554D01*
X0026680Y0289597D01*
X0026534Y0289644D01*
X0026389Y0289695D01*
X0026246Y0289750D01*
X0026104Y0289808D01*
X0025964Y0289870D01*
X0025825Y0289935D01*
X0025688Y0290004D01*
X0025553Y0290077D01*
X0025420Y0290153D01*
X0025289Y0290233D01*
X0025160Y0290315D01*
X0025033Y0290402D01*
X0024908Y0290491D01*
X0024786Y0290584D01*
X0024667Y0290680D01*
X0024549Y0290779D01*
X0024435Y0290880D01*
X0024323Y0290985D01*
X0024214Y0291093D01*
X0024108Y0291204D01*
X0024004Y0291317D01*
X0023904Y0291433D01*
X0023806Y0291551D01*
X0023712Y0291672D01*
X0023621Y0291795D01*
X0023533Y0291921D01*
X0023449Y0292049D01*
X0023367Y0292179D01*
X0023290Y0292311D01*
X0023215Y0292445D01*
X0023144Y0292581D01*
X0023077Y0292719D01*
X0023013Y0292859D01*
X0022953Y0293000D01*
X0022897Y0293142D01*
X0022844Y0293286D01*
X0022795Y0293432D01*
X0022750Y0293578D01*
X0022709Y0293726D01*
X0022672Y0293874D01*
X0022638Y0294024D01*
X0022608Y0294175D01*
X0022583Y0294326D01*
X0022561Y0294477D01*
X0022543Y0294630D01*
X0022529Y0294782D01*
X0022519Y0294935D01*
X0022513Y0295089D01*
X0022511Y0295242D01*
X0022511Y0328242D02*
X0022513Y0328395D01*
X0022519Y0328549D01*
X0022529Y0328702D01*
X0022543Y0328854D01*
X0022561Y0329007D01*
X0022583Y0329158D01*
X0022608Y0329309D01*
X0022638Y0329460D01*
X0022672Y0329610D01*
X0022709Y0329758D01*
X0022750Y0329906D01*
X0022795Y0330052D01*
X0022844Y0330198D01*
X0022897Y0330342D01*
X0022953Y0330484D01*
X0023013Y0330625D01*
X0023077Y0330765D01*
X0023144Y0330903D01*
X0023215Y0331039D01*
X0023290Y0331173D01*
X0023367Y0331305D01*
X0023449Y0331435D01*
X0023533Y0331563D01*
X0023621Y0331689D01*
X0023712Y0331812D01*
X0023806Y0331933D01*
X0023904Y0332051D01*
X0024004Y0332167D01*
X0024108Y0332280D01*
X0024214Y0332391D01*
X0024323Y0332499D01*
X0024435Y0332604D01*
X0024549Y0332705D01*
X0024667Y0332804D01*
X0024786Y0332900D01*
X0024908Y0332993D01*
X0025033Y0333082D01*
X0025160Y0333169D01*
X0025289Y0333251D01*
X0025420Y0333331D01*
X0025553Y0333407D01*
X0025688Y0333480D01*
X0025825Y0333549D01*
X0025964Y0333614D01*
X0026104Y0333676D01*
X0026246Y0333734D01*
X0026389Y0333789D01*
X0026534Y0333840D01*
X0026680Y0333887D01*
X0026827Y0333930D01*
X0026975Y0333969D01*
X0027124Y0334005D01*
X0027274Y0334036D01*
X0027425Y0334064D01*
X0027576Y0334088D01*
X0027729Y0334108D01*
X0027881Y0334124D01*
X0028034Y0334136D01*
X0028187Y0334144D01*
X0028340Y0334148D01*
X0028494Y0334148D01*
X0028647Y0334144D01*
X0028800Y0334136D01*
X0028953Y0334124D01*
X0029105Y0334108D01*
X0029258Y0334088D01*
X0029409Y0334064D01*
X0029560Y0334036D01*
X0029710Y0334005D01*
X0029859Y0333969D01*
X0030007Y0333930D01*
X0030154Y0333887D01*
X0030300Y0333840D01*
X0030445Y0333789D01*
X0030588Y0333734D01*
X0030730Y0333676D01*
X0030870Y0333614D01*
X0031009Y0333549D01*
X0031146Y0333480D01*
X0031281Y0333407D01*
X0031414Y0333331D01*
X0031545Y0333251D01*
X0031674Y0333169D01*
X0031801Y0333082D01*
X0031926Y0332993D01*
X0032048Y0332900D01*
X0032167Y0332804D01*
X0032285Y0332705D01*
X0032399Y0332604D01*
X0032511Y0332499D01*
X0032620Y0332391D01*
X0032726Y0332280D01*
X0032830Y0332167D01*
X0032930Y0332051D01*
X0033028Y0331933D01*
X0033122Y0331812D01*
X0033213Y0331689D01*
X0033301Y0331563D01*
X0033385Y0331435D01*
X0033467Y0331305D01*
X0033544Y0331173D01*
X0033619Y0331039D01*
X0033690Y0330903D01*
X0033757Y0330765D01*
X0033821Y0330625D01*
X0033881Y0330484D01*
X0033937Y0330342D01*
X0033990Y0330198D01*
X0034039Y0330052D01*
X0034084Y0329906D01*
X0034125Y0329758D01*
X0034162Y0329610D01*
X0034196Y0329460D01*
X0034226Y0329309D01*
X0034251Y0329158D01*
X0034273Y0329007D01*
X0034291Y0328854D01*
X0034305Y0328702D01*
X0034315Y0328549D01*
X0034321Y0328395D01*
X0034323Y0328242D01*
X0034321Y0328089D01*
X0034315Y0327935D01*
X0034305Y0327782D01*
X0034291Y0327630D01*
X0034273Y0327477D01*
X0034251Y0327326D01*
X0034226Y0327175D01*
X0034196Y0327024D01*
X0034162Y0326874D01*
X0034125Y0326726D01*
X0034084Y0326578D01*
X0034039Y0326432D01*
X0033990Y0326286D01*
X0033937Y0326142D01*
X0033881Y0326000D01*
X0033821Y0325859D01*
X0033757Y0325719D01*
X0033690Y0325581D01*
X0033619Y0325445D01*
X0033544Y0325311D01*
X0033467Y0325179D01*
X0033385Y0325049D01*
X0033301Y0324921D01*
X0033213Y0324795D01*
X0033122Y0324672D01*
X0033028Y0324551D01*
X0032930Y0324433D01*
X0032830Y0324317D01*
X0032726Y0324204D01*
X0032620Y0324093D01*
X0032511Y0323985D01*
X0032399Y0323880D01*
X0032285Y0323779D01*
X0032167Y0323680D01*
X0032048Y0323584D01*
X0031926Y0323491D01*
X0031801Y0323402D01*
X0031674Y0323315D01*
X0031545Y0323233D01*
X0031414Y0323153D01*
X0031281Y0323077D01*
X0031146Y0323004D01*
X0031009Y0322935D01*
X0030870Y0322870D01*
X0030730Y0322808D01*
X0030588Y0322750D01*
X0030445Y0322695D01*
X0030300Y0322644D01*
X0030154Y0322597D01*
X0030007Y0322554D01*
X0029859Y0322515D01*
X0029710Y0322479D01*
X0029560Y0322448D01*
X0029409Y0322420D01*
X0029258Y0322396D01*
X0029105Y0322376D01*
X0028953Y0322360D01*
X0028800Y0322348D01*
X0028647Y0322340D01*
X0028494Y0322336D01*
X0028340Y0322336D01*
X0028187Y0322340D01*
X0028034Y0322348D01*
X0027881Y0322360D01*
X0027729Y0322376D01*
X0027576Y0322396D01*
X0027425Y0322420D01*
X0027274Y0322448D01*
X0027124Y0322479D01*
X0026975Y0322515D01*
X0026827Y0322554D01*
X0026680Y0322597D01*
X0026534Y0322644D01*
X0026389Y0322695D01*
X0026246Y0322750D01*
X0026104Y0322808D01*
X0025964Y0322870D01*
X0025825Y0322935D01*
X0025688Y0323004D01*
X0025553Y0323077D01*
X0025420Y0323153D01*
X0025289Y0323233D01*
X0025160Y0323315D01*
X0025033Y0323402D01*
X0024908Y0323491D01*
X0024786Y0323584D01*
X0024667Y0323680D01*
X0024549Y0323779D01*
X0024435Y0323880D01*
X0024323Y0323985D01*
X0024214Y0324093D01*
X0024108Y0324204D01*
X0024004Y0324317D01*
X0023904Y0324433D01*
X0023806Y0324551D01*
X0023712Y0324672D01*
X0023621Y0324795D01*
X0023533Y0324921D01*
X0023449Y0325049D01*
X0023367Y0325179D01*
X0023290Y0325311D01*
X0023215Y0325445D01*
X0023144Y0325581D01*
X0023077Y0325719D01*
X0023013Y0325859D01*
X0022953Y0326000D01*
X0022897Y0326142D01*
X0022844Y0326286D01*
X0022795Y0326432D01*
X0022750Y0326578D01*
X0022709Y0326726D01*
X0022672Y0326874D01*
X0022638Y0327024D01*
X0022608Y0327175D01*
X0022583Y0327326D01*
X0022561Y0327477D01*
X0022543Y0327630D01*
X0022529Y0327782D01*
X0022519Y0327935D01*
X0022513Y0328089D01*
X0022511Y0328242D01*
X0007425Y0392500D02*
X0007427Y0392660D01*
X0007433Y0392820D01*
X0007443Y0392980D01*
X0007457Y0393140D01*
X0007475Y0393299D01*
X0007497Y0393458D01*
X0007523Y0393616D01*
X0007552Y0393773D01*
X0007586Y0393930D01*
X0007624Y0394085D01*
X0007665Y0394240D01*
X0007710Y0394394D01*
X0007760Y0394546D01*
X0007812Y0394697D01*
X0007869Y0394847D01*
X0007930Y0394996D01*
X0007994Y0395143D01*
X0008061Y0395288D01*
X0008133Y0395431D01*
X0008207Y0395573D01*
X0008286Y0395713D01*
X0008368Y0395850D01*
X0008453Y0395986D01*
X0008541Y0396119D01*
X0008633Y0396251D01*
X0008728Y0396379D01*
X0008827Y0396506D01*
X0008928Y0396630D01*
X0009033Y0396751D01*
X0009140Y0396870D01*
X0009251Y0396986D01*
X0009364Y0397099D01*
X0009480Y0397210D01*
X0009599Y0397317D01*
X0009720Y0397422D01*
X0009844Y0397523D01*
X0009971Y0397622D01*
X0010099Y0397717D01*
X0010231Y0397809D01*
X0010364Y0397897D01*
X0010500Y0397982D01*
X0010638Y0398064D01*
X0010777Y0398143D01*
X0010919Y0398217D01*
X0011062Y0398289D01*
X0011207Y0398356D01*
X0011354Y0398420D01*
X0011503Y0398481D01*
X0011653Y0398538D01*
X0011804Y0398590D01*
X0011956Y0398640D01*
X0012110Y0398685D01*
X0012265Y0398726D01*
X0012420Y0398764D01*
X0012577Y0398798D01*
X0012734Y0398827D01*
X0012892Y0398853D01*
X0013051Y0398875D01*
X0013210Y0398893D01*
X0013370Y0398907D01*
X0013530Y0398917D01*
X0013690Y0398923D01*
X0013850Y0398925D01*
X0014010Y0398923D01*
X0014170Y0398917D01*
X0014330Y0398907D01*
X0014490Y0398893D01*
X0014649Y0398875D01*
X0014808Y0398853D01*
X0014966Y0398827D01*
X0015123Y0398798D01*
X0015280Y0398764D01*
X0015435Y0398726D01*
X0015590Y0398685D01*
X0015744Y0398640D01*
X0015896Y0398590D01*
X0016047Y0398538D01*
X0016197Y0398481D01*
X0016346Y0398420D01*
X0016493Y0398356D01*
X0016638Y0398289D01*
X0016781Y0398217D01*
X0016923Y0398143D01*
X0017063Y0398064D01*
X0017200Y0397982D01*
X0017336Y0397897D01*
X0017469Y0397809D01*
X0017601Y0397717D01*
X0017729Y0397622D01*
X0017856Y0397523D01*
X0017980Y0397422D01*
X0018101Y0397317D01*
X0018220Y0397210D01*
X0018336Y0397099D01*
X0018449Y0396986D01*
X0018560Y0396870D01*
X0018667Y0396751D01*
X0018772Y0396630D01*
X0018873Y0396506D01*
X0018972Y0396379D01*
X0019067Y0396251D01*
X0019159Y0396119D01*
X0019247Y0395986D01*
X0019332Y0395850D01*
X0019414Y0395712D01*
X0019493Y0395573D01*
X0019567Y0395431D01*
X0019639Y0395288D01*
X0019706Y0395143D01*
X0019770Y0394996D01*
X0019831Y0394847D01*
X0019888Y0394697D01*
X0019940Y0394546D01*
X0019990Y0394394D01*
X0020035Y0394240D01*
X0020076Y0394085D01*
X0020114Y0393930D01*
X0020148Y0393773D01*
X0020177Y0393616D01*
X0020203Y0393458D01*
X0020225Y0393299D01*
X0020243Y0393140D01*
X0020257Y0392980D01*
X0020267Y0392820D01*
X0020273Y0392660D01*
X0020275Y0392500D01*
X0020273Y0392340D01*
X0020267Y0392180D01*
X0020257Y0392020D01*
X0020243Y0391860D01*
X0020225Y0391701D01*
X0020203Y0391542D01*
X0020177Y0391384D01*
X0020148Y0391227D01*
X0020114Y0391070D01*
X0020076Y0390915D01*
X0020035Y0390760D01*
X0019990Y0390606D01*
X0019940Y0390454D01*
X0019888Y0390303D01*
X0019831Y0390153D01*
X0019770Y0390004D01*
X0019706Y0389857D01*
X0019639Y0389712D01*
X0019567Y0389569D01*
X0019493Y0389427D01*
X0019414Y0389287D01*
X0019332Y0389150D01*
X0019247Y0389014D01*
X0019159Y0388881D01*
X0019067Y0388749D01*
X0018972Y0388621D01*
X0018873Y0388494D01*
X0018772Y0388370D01*
X0018667Y0388249D01*
X0018560Y0388130D01*
X0018449Y0388014D01*
X0018336Y0387901D01*
X0018220Y0387790D01*
X0018101Y0387683D01*
X0017980Y0387578D01*
X0017856Y0387477D01*
X0017729Y0387378D01*
X0017601Y0387283D01*
X0017469Y0387191D01*
X0017336Y0387103D01*
X0017200Y0387018D01*
X0017062Y0386936D01*
X0016923Y0386857D01*
X0016781Y0386783D01*
X0016638Y0386711D01*
X0016493Y0386644D01*
X0016346Y0386580D01*
X0016197Y0386519D01*
X0016047Y0386462D01*
X0015896Y0386410D01*
X0015744Y0386360D01*
X0015590Y0386315D01*
X0015435Y0386274D01*
X0015280Y0386236D01*
X0015123Y0386202D01*
X0014966Y0386173D01*
X0014808Y0386147D01*
X0014649Y0386125D01*
X0014490Y0386107D01*
X0014330Y0386093D01*
X0014170Y0386083D01*
X0014010Y0386077D01*
X0013850Y0386075D01*
X0013690Y0386077D01*
X0013530Y0386083D01*
X0013370Y0386093D01*
X0013210Y0386107D01*
X0013051Y0386125D01*
X0012892Y0386147D01*
X0012734Y0386173D01*
X0012577Y0386202D01*
X0012420Y0386236D01*
X0012265Y0386274D01*
X0012110Y0386315D01*
X0011956Y0386360D01*
X0011804Y0386410D01*
X0011653Y0386462D01*
X0011503Y0386519D01*
X0011354Y0386580D01*
X0011207Y0386644D01*
X0011062Y0386711D01*
X0010919Y0386783D01*
X0010777Y0386857D01*
X0010637Y0386936D01*
X0010500Y0387018D01*
X0010364Y0387103D01*
X0010231Y0387191D01*
X0010099Y0387283D01*
X0009971Y0387378D01*
X0009844Y0387477D01*
X0009720Y0387578D01*
X0009599Y0387683D01*
X0009480Y0387790D01*
X0009364Y0387901D01*
X0009251Y0388014D01*
X0009140Y0388130D01*
X0009033Y0388249D01*
X0008928Y0388370D01*
X0008827Y0388494D01*
X0008728Y0388621D01*
X0008633Y0388749D01*
X0008541Y0388881D01*
X0008453Y0389014D01*
X0008368Y0389150D01*
X0008286Y0389288D01*
X0008207Y0389427D01*
X0008133Y0389569D01*
X0008061Y0389712D01*
X0007994Y0389857D01*
X0007930Y0390004D01*
X0007869Y0390153D01*
X0007812Y0390303D01*
X0007760Y0390454D01*
X0007710Y0390606D01*
X0007665Y0390760D01*
X0007624Y0390915D01*
X0007586Y0391070D01*
X0007552Y0391227D01*
X0007523Y0391384D01*
X0007497Y0391542D01*
X0007475Y0391701D01*
X0007457Y0391860D01*
X0007443Y0392020D01*
X0007433Y0392180D01*
X0007427Y0392340D01*
X0007425Y0392500D01*
X0368279Y0324305D02*
X0368281Y0324458D01*
X0368287Y0324612D01*
X0368297Y0324765D01*
X0368311Y0324917D01*
X0368329Y0325070D01*
X0368351Y0325221D01*
X0368376Y0325372D01*
X0368406Y0325523D01*
X0368440Y0325673D01*
X0368477Y0325821D01*
X0368518Y0325969D01*
X0368563Y0326115D01*
X0368612Y0326261D01*
X0368665Y0326405D01*
X0368721Y0326547D01*
X0368781Y0326688D01*
X0368845Y0326828D01*
X0368912Y0326966D01*
X0368983Y0327102D01*
X0369058Y0327236D01*
X0369135Y0327368D01*
X0369217Y0327498D01*
X0369301Y0327626D01*
X0369389Y0327752D01*
X0369480Y0327875D01*
X0369574Y0327996D01*
X0369672Y0328114D01*
X0369772Y0328230D01*
X0369876Y0328343D01*
X0369982Y0328454D01*
X0370091Y0328562D01*
X0370203Y0328667D01*
X0370317Y0328768D01*
X0370435Y0328867D01*
X0370554Y0328963D01*
X0370676Y0329056D01*
X0370801Y0329145D01*
X0370928Y0329232D01*
X0371057Y0329314D01*
X0371188Y0329394D01*
X0371321Y0329470D01*
X0371456Y0329543D01*
X0371593Y0329612D01*
X0371732Y0329677D01*
X0371872Y0329739D01*
X0372014Y0329797D01*
X0372157Y0329852D01*
X0372302Y0329903D01*
X0372448Y0329950D01*
X0372595Y0329993D01*
X0372743Y0330032D01*
X0372892Y0330068D01*
X0373042Y0330099D01*
X0373193Y0330127D01*
X0373344Y0330151D01*
X0373497Y0330171D01*
X0373649Y0330187D01*
X0373802Y0330199D01*
X0373955Y0330207D01*
X0374108Y0330211D01*
X0374262Y0330211D01*
X0374415Y0330207D01*
X0374568Y0330199D01*
X0374721Y0330187D01*
X0374873Y0330171D01*
X0375026Y0330151D01*
X0375177Y0330127D01*
X0375328Y0330099D01*
X0375478Y0330068D01*
X0375627Y0330032D01*
X0375775Y0329993D01*
X0375922Y0329950D01*
X0376068Y0329903D01*
X0376213Y0329852D01*
X0376356Y0329797D01*
X0376498Y0329739D01*
X0376638Y0329677D01*
X0376777Y0329612D01*
X0376914Y0329543D01*
X0377049Y0329470D01*
X0377182Y0329394D01*
X0377313Y0329314D01*
X0377442Y0329232D01*
X0377569Y0329145D01*
X0377694Y0329056D01*
X0377816Y0328963D01*
X0377935Y0328867D01*
X0378053Y0328768D01*
X0378167Y0328667D01*
X0378279Y0328562D01*
X0378388Y0328454D01*
X0378494Y0328343D01*
X0378598Y0328230D01*
X0378698Y0328114D01*
X0378796Y0327996D01*
X0378890Y0327875D01*
X0378981Y0327752D01*
X0379069Y0327626D01*
X0379153Y0327498D01*
X0379235Y0327368D01*
X0379312Y0327236D01*
X0379387Y0327102D01*
X0379458Y0326966D01*
X0379525Y0326828D01*
X0379589Y0326688D01*
X0379649Y0326547D01*
X0379705Y0326405D01*
X0379758Y0326261D01*
X0379807Y0326115D01*
X0379852Y0325969D01*
X0379893Y0325821D01*
X0379930Y0325673D01*
X0379964Y0325523D01*
X0379994Y0325372D01*
X0380019Y0325221D01*
X0380041Y0325070D01*
X0380059Y0324917D01*
X0380073Y0324765D01*
X0380083Y0324612D01*
X0380089Y0324458D01*
X0380091Y0324305D01*
X0380089Y0324152D01*
X0380083Y0323998D01*
X0380073Y0323845D01*
X0380059Y0323693D01*
X0380041Y0323540D01*
X0380019Y0323389D01*
X0379994Y0323238D01*
X0379964Y0323087D01*
X0379930Y0322937D01*
X0379893Y0322789D01*
X0379852Y0322641D01*
X0379807Y0322495D01*
X0379758Y0322349D01*
X0379705Y0322205D01*
X0379649Y0322063D01*
X0379589Y0321922D01*
X0379525Y0321782D01*
X0379458Y0321644D01*
X0379387Y0321508D01*
X0379312Y0321374D01*
X0379235Y0321242D01*
X0379153Y0321112D01*
X0379069Y0320984D01*
X0378981Y0320858D01*
X0378890Y0320735D01*
X0378796Y0320614D01*
X0378698Y0320496D01*
X0378598Y0320380D01*
X0378494Y0320267D01*
X0378388Y0320156D01*
X0378279Y0320048D01*
X0378167Y0319943D01*
X0378053Y0319842D01*
X0377935Y0319743D01*
X0377816Y0319647D01*
X0377694Y0319554D01*
X0377569Y0319465D01*
X0377442Y0319378D01*
X0377313Y0319296D01*
X0377182Y0319216D01*
X0377049Y0319140D01*
X0376914Y0319067D01*
X0376777Y0318998D01*
X0376638Y0318933D01*
X0376498Y0318871D01*
X0376356Y0318813D01*
X0376213Y0318758D01*
X0376068Y0318707D01*
X0375922Y0318660D01*
X0375775Y0318617D01*
X0375627Y0318578D01*
X0375478Y0318542D01*
X0375328Y0318511D01*
X0375177Y0318483D01*
X0375026Y0318459D01*
X0374873Y0318439D01*
X0374721Y0318423D01*
X0374568Y0318411D01*
X0374415Y0318403D01*
X0374262Y0318399D01*
X0374108Y0318399D01*
X0373955Y0318403D01*
X0373802Y0318411D01*
X0373649Y0318423D01*
X0373497Y0318439D01*
X0373344Y0318459D01*
X0373193Y0318483D01*
X0373042Y0318511D01*
X0372892Y0318542D01*
X0372743Y0318578D01*
X0372595Y0318617D01*
X0372448Y0318660D01*
X0372302Y0318707D01*
X0372157Y0318758D01*
X0372014Y0318813D01*
X0371872Y0318871D01*
X0371732Y0318933D01*
X0371593Y0318998D01*
X0371456Y0319067D01*
X0371321Y0319140D01*
X0371188Y0319216D01*
X0371057Y0319296D01*
X0370928Y0319378D01*
X0370801Y0319465D01*
X0370676Y0319554D01*
X0370554Y0319647D01*
X0370435Y0319743D01*
X0370317Y0319842D01*
X0370203Y0319943D01*
X0370091Y0320048D01*
X0369982Y0320156D01*
X0369876Y0320267D01*
X0369772Y0320380D01*
X0369672Y0320496D01*
X0369574Y0320614D01*
X0369480Y0320735D01*
X0369389Y0320858D01*
X0369301Y0320984D01*
X0369217Y0321112D01*
X0369135Y0321242D01*
X0369058Y0321374D01*
X0368983Y0321508D01*
X0368912Y0321644D01*
X0368845Y0321782D01*
X0368781Y0321922D01*
X0368721Y0322063D01*
X0368665Y0322205D01*
X0368612Y0322349D01*
X0368563Y0322495D01*
X0368518Y0322641D01*
X0368477Y0322789D01*
X0368440Y0322937D01*
X0368406Y0323087D01*
X0368376Y0323238D01*
X0368351Y0323389D01*
X0368329Y0323540D01*
X0368311Y0323693D01*
X0368297Y0323845D01*
X0368287Y0323998D01*
X0368281Y0324152D01*
X0368279Y0324305D01*
X0368279Y0291305D02*
X0368281Y0291458D01*
X0368287Y0291612D01*
X0368297Y0291765D01*
X0368311Y0291917D01*
X0368329Y0292070D01*
X0368351Y0292221D01*
X0368376Y0292372D01*
X0368406Y0292523D01*
X0368440Y0292673D01*
X0368477Y0292821D01*
X0368518Y0292969D01*
X0368563Y0293115D01*
X0368612Y0293261D01*
X0368665Y0293405D01*
X0368721Y0293547D01*
X0368781Y0293688D01*
X0368845Y0293828D01*
X0368912Y0293966D01*
X0368983Y0294102D01*
X0369058Y0294236D01*
X0369135Y0294368D01*
X0369217Y0294498D01*
X0369301Y0294626D01*
X0369389Y0294752D01*
X0369480Y0294875D01*
X0369574Y0294996D01*
X0369672Y0295114D01*
X0369772Y0295230D01*
X0369876Y0295343D01*
X0369982Y0295454D01*
X0370091Y0295562D01*
X0370203Y0295667D01*
X0370317Y0295768D01*
X0370435Y0295867D01*
X0370554Y0295963D01*
X0370676Y0296056D01*
X0370801Y0296145D01*
X0370928Y0296232D01*
X0371057Y0296314D01*
X0371188Y0296394D01*
X0371321Y0296470D01*
X0371456Y0296543D01*
X0371593Y0296612D01*
X0371732Y0296677D01*
X0371872Y0296739D01*
X0372014Y0296797D01*
X0372157Y0296852D01*
X0372302Y0296903D01*
X0372448Y0296950D01*
X0372595Y0296993D01*
X0372743Y0297032D01*
X0372892Y0297068D01*
X0373042Y0297099D01*
X0373193Y0297127D01*
X0373344Y0297151D01*
X0373497Y0297171D01*
X0373649Y0297187D01*
X0373802Y0297199D01*
X0373955Y0297207D01*
X0374108Y0297211D01*
X0374262Y0297211D01*
X0374415Y0297207D01*
X0374568Y0297199D01*
X0374721Y0297187D01*
X0374873Y0297171D01*
X0375026Y0297151D01*
X0375177Y0297127D01*
X0375328Y0297099D01*
X0375478Y0297068D01*
X0375627Y0297032D01*
X0375775Y0296993D01*
X0375922Y0296950D01*
X0376068Y0296903D01*
X0376213Y0296852D01*
X0376356Y0296797D01*
X0376498Y0296739D01*
X0376638Y0296677D01*
X0376777Y0296612D01*
X0376914Y0296543D01*
X0377049Y0296470D01*
X0377182Y0296394D01*
X0377313Y0296314D01*
X0377442Y0296232D01*
X0377569Y0296145D01*
X0377694Y0296056D01*
X0377816Y0295963D01*
X0377935Y0295867D01*
X0378053Y0295768D01*
X0378167Y0295667D01*
X0378279Y0295562D01*
X0378388Y0295454D01*
X0378494Y0295343D01*
X0378598Y0295230D01*
X0378698Y0295114D01*
X0378796Y0294996D01*
X0378890Y0294875D01*
X0378981Y0294752D01*
X0379069Y0294626D01*
X0379153Y0294498D01*
X0379235Y0294368D01*
X0379312Y0294236D01*
X0379387Y0294102D01*
X0379458Y0293966D01*
X0379525Y0293828D01*
X0379589Y0293688D01*
X0379649Y0293547D01*
X0379705Y0293405D01*
X0379758Y0293261D01*
X0379807Y0293115D01*
X0379852Y0292969D01*
X0379893Y0292821D01*
X0379930Y0292673D01*
X0379964Y0292523D01*
X0379994Y0292372D01*
X0380019Y0292221D01*
X0380041Y0292070D01*
X0380059Y0291917D01*
X0380073Y0291765D01*
X0380083Y0291612D01*
X0380089Y0291458D01*
X0380091Y0291305D01*
X0380089Y0291152D01*
X0380083Y0290998D01*
X0380073Y0290845D01*
X0380059Y0290693D01*
X0380041Y0290540D01*
X0380019Y0290389D01*
X0379994Y0290238D01*
X0379964Y0290087D01*
X0379930Y0289937D01*
X0379893Y0289789D01*
X0379852Y0289641D01*
X0379807Y0289495D01*
X0379758Y0289349D01*
X0379705Y0289205D01*
X0379649Y0289063D01*
X0379589Y0288922D01*
X0379525Y0288782D01*
X0379458Y0288644D01*
X0379387Y0288508D01*
X0379312Y0288374D01*
X0379235Y0288242D01*
X0379153Y0288112D01*
X0379069Y0287984D01*
X0378981Y0287858D01*
X0378890Y0287735D01*
X0378796Y0287614D01*
X0378698Y0287496D01*
X0378598Y0287380D01*
X0378494Y0287267D01*
X0378388Y0287156D01*
X0378279Y0287048D01*
X0378167Y0286943D01*
X0378053Y0286842D01*
X0377935Y0286743D01*
X0377816Y0286647D01*
X0377694Y0286554D01*
X0377569Y0286465D01*
X0377442Y0286378D01*
X0377313Y0286296D01*
X0377182Y0286216D01*
X0377049Y0286140D01*
X0376914Y0286067D01*
X0376777Y0285998D01*
X0376638Y0285933D01*
X0376498Y0285871D01*
X0376356Y0285813D01*
X0376213Y0285758D01*
X0376068Y0285707D01*
X0375922Y0285660D01*
X0375775Y0285617D01*
X0375627Y0285578D01*
X0375478Y0285542D01*
X0375328Y0285511D01*
X0375177Y0285483D01*
X0375026Y0285459D01*
X0374873Y0285439D01*
X0374721Y0285423D01*
X0374568Y0285411D01*
X0374415Y0285403D01*
X0374262Y0285399D01*
X0374108Y0285399D01*
X0373955Y0285403D01*
X0373802Y0285411D01*
X0373649Y0285423D01*
X0373497Y0285439D01*
X0373344Y0285459D01*
X0373193Y0285483D01*
X0373042Y0285511D01*
X0372892Y0285542D01*
X0372743Y0285578D01*
X0372595Y0285617D01*
X0372448Y0285660D01*
X0372302Y0285707D01*
X0372157Y0285758D01*
X0372014Y0285813D01*
X0371872Y0285871D01*
X0371732Y0285933D01*
X0371593Y0285998D01*
X0371456Y0286067D01*
X0371321Y0286140D01*
X0371188Y0286216D01*
X0371057Y0286296D01*
X0370928Y0286378D01*
X0370801Y0286465D01*
X0370676Y0286554D01*
X0370554Y0286647D01*
X0370435Y0286743D01*
X0370317Y0286842D01*
X0370203Y0286943D01*
X0370091Y0287048D01*
X0369982Y0287156D01*
X0369876Y0287267D01*
X0369772Y0287380D01*
X0369672Y0287496D01*
X0369574Y0287614D01*
X0369480Y0287735D01*
X0369389Y0287858D01*
X0369301Y0287984D01*
X0369217Y0288112D01*
X0369135Y0288242D01*
X0369058Y0288374D01*
X0368983Y0288508D01*
X0368912Y0288644D01*
X0368845Y0288782D01*
X0368781Y0288922D01*
X0368721Y0289063D01*
X0368665Y0289205D01*
X0368612Y0289349D01*
X0368563Y0289495D01*
X0368518Y0289641D01*
X0368477Y0289789D01*
X0368440Y0289937D01*
X0368406Y0290087D01*
X0368376Y0290238D01*
X0368351Y0290389D01*
X0368329Y0290540D01*
X0368311Y0290693D01*
X0368297Y0290845D01*
X0368287Y0290998D01*
X0368281Y0291152D01*
X0368279Y0291305D01*
X0382425Y0392500D02*
X0382427Y0392660D01*
X0382433Y0392820D01*
X0382443Y0392980D01*
X0382457Y0393140D01*
X0382475Y0393299D01*
X0382497Y0393458D01*
X0382523Y0393616D01*
X0382552Y0393773D01*
X0382586Y0393930D01*
X0382624Y0394085D01*
X0382665Y0394240D01*
X0382710Y0394394D01*
X0382760Y0394546D01*
X0382812Y0394697D01*
X0382869Y0394847D01*
X0382930Y0394996D01*
X0382994Y0395143D01*
X0383061Y0395288D01*
X0383133Y0395431D01*
X0383207Y0395573D01*
X0383286Y0395713D01*
X0383368Y0395850D01*
X0383453Y0395986D01*
X0383541Y0396119D01*
X0383633Y0396251D01*
X0383728Y0396379D01*
X0383827Y0396506D01*
X0383928Y0396630D01*
X0384033Y0396751D01*
X0384140Y0396870D01*
X0384251Y0396986D01*
X0384364Y0397099D01*
X0384480Y0397210D01*
X0384599Y0397317D01*
X0384720Y0397422D01*
X0384844Y0397523D01*
X0384971Y0397622D01*
X0385099Y0397717D01*
X0385231Y0397809D01*
X0385364Y0397897D01*
X0385500Y0397982D01*
X0385638Y0398064D01*
X0385777Y0398143D01*
X0385919Y0398217D01*
X0386062Y0398289D01*
X0386207Y0398356D01*
X0386354Y0398420D01*
X0386503Y0398481D01*
X0386653Y0398538D01*
X0386804Y0398590D01*
X0386956Y0398640D01*
X0387110Y0398685D01*
X0387265Y0398726D01*
X0387420Y0398764D01*
X0387577Y0398798D01*
X0387734Y0398827D01*
X0387892Y0398853D01*
X0388051Y0398875D01*
X0388210Y0398893D01*
X0388370Y0398907D01*
X0388530Y0398917D01*
X0388690Y0398923D01*
X0388850Y0398925D01*
X0389010Y0398923D01*
X0389170Y0398917D01*
X0389330Y0398907D01*
X0389490Y0398893D01*
X0389649Y0398875D01*
X0389808Y0398853D01*
X0389966Y0398827D01*
X0390123Y0398798D01*
X0390280Y0398764D01*
X0390435Y0398726D01*
X0390590Y0398685D01*
X0390744Y0398640D01*
X0390896Y0398590D01*
X0391047Y0398538D01*
X0391197Y0398481D01*
X0391346Y0398420D01*
X0391493Y0398356D01*
X0391638Y0398289D01*
X0391781Y0398217D01*
X0391923Y0398143D01*
X0392063Y0398064D01*
X0392200Y0397982D01*
X0392336Y0397897D01*
X0392469Y0397809D01*
X0392601Y0397717D01*
X0392729Y0397622D01*
X0392856Y0397523D01*
X0392980Y0397422D01*
X0393101Y0397317D01*
X0393220Y0397210D01*
X0393336Y0397099D01*
X0393449Y0396986D01*
X0393560Y0396870D01*
X0393667Y0396751D01*
X0393772Y0396630D01*
X0393873Y0396506D01*
X0393972Y0396379D01*
X0394067Y0396251D01*
X0394159Y0396119D01*
X0394247Y0395986D01*
X0394332Y0395850D01*
X0394414Y0395712D01*
X0394493Y0395573D01*
X0394567Y0395431D01*
X0394639Y0395288D01*
X0394706Y0395143D01*
X0394770Y0394996D01*
X0394831Y0394847D01*
X0394888Y0394697D01*
X0394940Y0394546D01*
X0394990Y0394394D01*
X0395035Y0394240D01*
X0395076Y0394085D01*
X0395114Y0393930D01*
X0395148Y0393773D01*
X0395177Y0393616D01*
X0395203Y0393458D01*
X0395225Y0393299D01*
X0395243Y0393140D01*
X0395257Y0392980D01*
X0395267Y0392820D01*
X0395273Y0392660D01*
X0395275Y0392500D01*
X0395273Y0392340D01*
X0395267Y0392180D01*
X0395257Y0392020D01*
X0395243Y0391860D01*
X0395225Y0391701D01*
X0395203Y0391542D01*
X0395177Y0391384D01*
X0395148Y0391227D01*
X0395114Y0391070D01*
X0395076Y0390915D01*
X0395035Y0390760D01*
X0394990Y0390606D01*
X0394940Y0390454D01*
X0394888Y0390303D01*
X0394831Y0390153D01*
X0394770Y0390004D01*
X0394706Y0389857D01*
X0394639Y0389712D01*
X0394567Y0389569D01*
X0394493Y0389427D01*
X0394414Y0389287D01*
X0394332Y0389150D01*
X0394247Y0389014D01*
X0394159Y0388881D01*
X0394067Y0388749D01*
X0393972Y0388621D01*
X0393873Y0388494D01*
X0393772Y0388370D01*
X0393667Y0388249D01*
X0393560Y0388130D01*
X0393449Y0388014D01*
X0393336Y0387901D01*
X0393220Y0387790D01*
X0393101Y0387683D01*
X0392980Y0387578D01*
X0392856Y0387477D01*
X0392729Y0387378D01*
X0392601Y0387283D01*
X0392469Y0387191D01*
X0392336Y0387103D01*
X0392200Y0387018D01*
X0392062Y0386936D01*
X0391923Y0386857D01*
X0391781Y0386783D01*
X0391638Y0386711D01*
X0391493Y0386644D01*
X0391346Y0386580D01*
X0391197Y0386519D01*
X0391047Y0386462D01*
X0390896Y0386410D01*
X0390744Y0386360D01*
X0390590Y0386315D01*
X0390435Y0386274D01*
X0390280Y0386236D01*
X0390123Y0386202D01*
X0389966Y0386173D01*
X0389808Y0386147D01*
X0389649Y0386125D01*
X0389490Y0386107D01*
X0389330Y0386093D01*
X0389170Y0386083D01*
X0389010Y0386077D01*
X0388850Y0386075D01*
X0388690Y0386077D01*
X0388530Y0386083D01*
X0388370Y0386093D01*
X0388210Y0386107D01*
X0388051Y0386125D01*
X0387892Y0386147D01*
X0387734Y0386173D01*
X0387577Y0386202D01*
X0387420Y0386236D01*
X0387265Y0386274D01*
X0387110Y0386315D01*
X0386956Y0386360D01*
X0386804Y0386410D01*
X0386653Y0386462D01*
X0386503Y0386519D01*
X0386354Y0386580D01*
X0386207Y0386644D01*
X0386062Y0386711D01*
X0385919Y0386783D01*
X0385777Y0386857D01*
X0385637Y0386936D01*
X0385500Y0387018D01*
X0385364Y0387103D01*
X0385231Y0387191D01*
X0385099Y0387283D01*
X0384971Y0387378D01*
X0384844Y0387477D01*
X0384720Y0387578D01*
X0384599Y0387683D01*
X0384480Y0387790D01*
X0384364Y0387901D01*
X0384251Y0388014D01*
X0384140Y0388130D01*
X0384033Y0388249D01*
X0383928Y0388370D01*
X0383827Y0388494D01*
X0383728Y0388621D01*
X0383633Y0388749D01*
X0383541Y0388881D01*
X0383453Y0389014D01*
X0383368Y0389150D01*
X0383286Y0389288D01*
X0383207Y0389427D01*
X0383133Y0389569D01*
X0383061Y0389712D01*
X0382994Y0389857D01*
X0382930Y0390004D01*
X0382869Y0390153D01*
X0382812Y0390303D01*
X0382760Y0390454D01*
X0382710Y0390606D01*
X0382665Y0390760D01*
X0382624Y0390915D01*
X0382586Y0391070D01*
X0382552Y0391227D01*
X0382523Y0391384D01*
X0382497Y0391542D01*
X0382475Y0391701D01*
X0382457Y0391860D01*
X0382443Y0392020D01*
X0382433Y0392180D01*
X0382427Y0392340D01*
X0382425Y0392500D01*
X0368279Y0162888D02*
X0368281Y0163041D01*
X0368287Y0163195D01*
X0368297Y0163348D01*
X0368311Y0163500D01*
X0368329Y0163653D01*
X0368351Y0163804D01*
X0368376Y0163955D01*
X0368406Y0164106D01*
X0368440Y0164256D01*
X0368477Y0164404D01*
X0368518Y0164552D01*
X0368563Y0164698D01*
X0368612Y0164844D01*
X0368665Y0164988D01*
X0368721Y0165130D01*
X0368781Y0165271D01*
X0368845Y0165411D01*
X0368912Y0165549D01*
X0368983Y0165685D01*
X0369058Y0165819D01*
X0369135Y0165951D01*
X0369217Y0166081D01*
X0369301Y0166209D01*
X0369389Y0166335D01*
X0369480Y0166458D01*
X0369574Y0166579D01*
X0369672Y0166697D01*
X0369772Y0166813D01*
X0369876Y0166926D01*
X0369982Y0167037D01*
X0370091Y0167145D01*
X0370203Y0167250D01*
X0370317Y0167351D01*
X0370435Y0167450D01*
X0370554Y0167546D01*
X0370676Y0167639D01*
X0370801Y0167728D01*
X0370928Y0167815D01*
X0371057Y0167897D01*
X0371188Y0167977D01*
X0371321Y0168053D01*
X0371456Y0168126D01*
X0371593Y0168195D01*
X0371732Y0168260D01*
X0371872Y0168322D01*
X0372014Y0168380D01*
X0372157Y0168435D01*
X0372302Y0168486D01*
X0372448Y0168533D01*
X0372595Y0168576D01*
X0372743Y0168615D01*
X0372892Y0168651D01*
X0373042Y0168682D01*
X0373193Y0168710D01*
X0373344Y0168734D01*
X0373497Y0168754D01*
X0373649Y0168770D01*
X0373802Y0168782D01*
X0373955Y0168790D01*
X0374108Y0168794D01*
X0374262Y0168794D01*
X0374415Y0168790D01*
X0374568Y0168782D01*
X0374721Y0168770D01*
X0374873Y0168754D01*
X0375026Y0168734D01*
X0375177Y0168710D01*
X0375328Y0168682D01*
X0375478Y0168651D01*
X0375627Y0168615D01*
X0375775Y0168576D01*
X0375922Y0168533D01*
X0376068Y0168486D01*
X0376213Y0168435D01*
X0376356Y0168380D01*
X0376498Y0168322D01*
X0376638Y0168260D01*
X0376777Y0168195D01*
X0376914Y0168126D01*
X0377049Y0168053D01*
X0377182Y0167977D01*
X0377313Y0167897D01*
X0377442Y0167815D01*
X0377569Y0167728D01*
X0377694Y0167639D01*
X0377816Y0167546D01*
X0377935Y0167450D01*
X0378053Y0167351D01*
X0378167Y0167250D01*
X0378279Y0167145D01*
X0378388Y0167037D01*
X0378494Y0166926D01*
X0378598Y0166813D01*
X0378698Y0166697D01*
X0378796Y0166579D01*
X0378890Y0166458D01*
X0378981Y0166335D01*
X0379069Y0166209D01*
X0379153Y0166081D01*
X0379235Y0165951D01*
X0379312Y0165819D01*
X0379387Y0165685D01*
X0379458Y0165549D01*
X0379525Y0165411D01*
X0379589Y0165271D01*
X0379649Y0165130D01*
X0379705Y0164988D01*
X0379758Y0164844D01*
X0379807Y0164698D01*
X0379852Y0164552D01*
X0379893Y0164404D01*
X0379930Y0164256D01*
X0379964Y0164106D01*
X0379994Y0163955D01*
X0380019Y0163804D01*
X0380041Y0163653D01*
X0380059Y0163500D01*
X0380073Y0163348D01*
X0380083Y0163195D01*
X0380089Y0163041D01*
X0380091Y0162888D01*
X0380089Y0162735D01*
X0380083Y0162581D01*
X0380073Y0162428D01*
X0380059Y0162276D01*
X0380041Y0162123D01*
X0380019Y0161972D01*
X0379994Y0161821D01*
X0379964Y0161670D01*
X0379930Y0161520D01*
X0379893Y0161372D01*
X0379852Y0161224D01*
X0379807Y0161078D01*
X0379758Y0160932D01*
X0379705Y0160788D01*
X0379649Y0160646D01*
X0379589Y0160505D01*
X0379525Y0160365D01*
X0379458Y0160227D01*
X0379387Y0160091D01*
X0379312Y0159957D01*
X0379235Y0159825D01*
X0379153Y0159695D01*
X0379069Y0159567D01*
X0378981Y0159441D01*
X0378890Y0159318D01*
X0378796Y0159197D01*
X0378698Y0159079D01*
X0378598Y0158963D01*
X0378494Y0158850D01*
X0378388Y0158739D01*
X0378279Y0158631D01*
X0378167Y0158526D01*
X0378053Y0158425D01*
X0377935Y0158326D01*
X0377816Y0158230D01*
X0377694Y0158137D01*
X0377569Y0158048D01*
X0377442Y0157961D01*
X0377313Y0157879D01*
X0377182Y0157799D01*
X0377049Y0157723D01*
X0376914Y0157650D01*
X0376777Y0157581D01*
X0376638Y0157516D01*
X0376498Y0157454D01*
X0376356Y0157396D01*
X0376213Y0157341D01*
X0376068Y0157290D01*
X0375922Y0157243D01*
X0375775Y0157200D01*
X0375627Y0157161D01*
X0375478Y0157125D01*
X0375328Y0157094D01*
X0375177Y0157066D01*
X0375026Y0157042D01*
X0374873Y0157022D01*
X0374721Y0157006D01*
X0374568Y0156994D01*
X0374415Y0156986D01*
X0374262Y0156982D01*
X0374108Y0156982D01*
X0373955Y0156986D01*
X0373802Y0156994D01*
X0373649Y0157006D01*
X0373497Y0157022D01*
X0373344Y0157042D01*
X0373193Y0157066D01*
X0373042Y0157094D01*
X0372892Y0157125D01*
X0372743Y0157161D01*
X0372595Y0157200D01*
X0372448Y0157243D01*
X0372302Y0157290D01*
X0372157Y0157341D01*
X0372014Y0157396D01*
X0371872Y0157454D01*
X0371732Y0157516D01*
X0371593Y0157581D01*
X0371456Y0157650D01*
X0371321Y0157723D01*
X0371188Y0157799D01*
X0371057Y0157879D01*
X0370928Y0157961D01*
X0370801Y0158048D01*
X0370676Y0158137D01*
X0370554Y0158230D01*
X0370435Y0158326D01*
X0370317Y0158425D01*
X0370203Y0158526D01*
X0370091Y0158631D01*
X0369982Y0158739D01*
X0369876Y0158850D01*
X0369772Y0158963D01*
X0369672Y0159079D01*
X0369574Y0159197D01*
X0369480Y0159318D01*
X0369389Y0159441D01*
X0369301Y0159567D01*
X0369217Y0159695D01*
X0369135Y0159825D01*
X0369058Y0159957D01*
X0368983Y0160091D01*
X0368912Y0160227D01*
X0368845Y0160365D01*
X0368781Y0160505D01*
X0368721Y0160646D01*
X0368665Y0160788D01*
X0368612Y0160932D01*
X0368563Y0161078D01*
X0368518Y0161224D01*
X0368477Y0161372D01*
X0368440Y0161520D01*
X0368406Y0161670D01*
X0368376Y0161821D01*
X0368351Y0161972D01*
X0368329Y0162123D01*
X0368311Y0162276D01*
X0368297Y0162428D01*
X0368287Y0162581D01*
X0368281Y0162735D01*
X0368279Y0162888D01*
X0368279Y0129888D02*
X0368281Y0130041D01*
X0368287Y0130195D01*
X0368297Y0130348D01*
X0368311Y0130500D01*
X0368329Y0130653D01*
X0368351Y0130804D01*
X0368376Y0130955D01*
X0368406Y0131106D01*
X0368440Y0131256D01*
X0368477Y0131404D01*
X0368518Y0131552D01*
X0368563Y0131698D01*
X0368612Y0131844D01*
X0368665Y0131988D01*
X0368721Y0132130D01*
X0368781Y0132271D01*
X0368845Y0132411D01*
X0368912Y0132549D01*
X0368983Y0132685D01*
X0369058Y0132819D01*
X0369135Y0132951D01*
X0369217Y0133081D01*
X0369301Y0133209D01*
X0369389Y0133335D01*
X0369480Y0133458D01*
X0369574Y0133579D01*
X0369672Y0133697D01*
X0369772Y0133813D01*
X0369876Y0133926D01*
X0369982Y0134037D01*
X0370091Y0134145D01*
X0370203Y0134250D01*
X0370317Y0134351D01*
X0370435Y0134450D01*
X0370554Y0134546D01*
X0370676Y0134639D01*
X0370801Y0134728D01*
X0370928Y0134815D01*
X0371057Y0134897D01*
X0371188Y0134977D01*
X0371321Y0135053D01*
X0371456Y0135126D01*
X0371593Y0135195D01*
X0371732Y0135260D01*
X0371872Y0135322D01*
X0372014Y0135380D01*
X0372157Y0135435D01*
X0372302Y0135486D01*
X0372448Y0135533D01*
X0372595Y0135576D01*
X0372743Y0135615D01*
X0372892Y0135651D01*
X0373042Y0135682D01*
X0373193Y0135710D01*
X0373344Y0135734D01*
X0373497Y0135754D01*
X0373649Y0135770D01*
X0373802Y0135782D01*
X0373955Y0135790D01*
X0374108Y0135794D01*
X0374262Y0135794D01*
X0374415Y0135790D01*
X0374568Y0135782D01*
X0374721Y0135770D01*
X0374873Y0135754D01*
X0375026Y0135734D01*
X0375177Y0135710D01*
X0375328Y0135682D01*
X0375478Y0135651D01*
X0375627Y0135615D01*
X0375775Y0135576D01*
X0375922Y0135533D01*
X0376068Y0135486D01*
X0376213Y0135435D01*
X0376356Y0135380D01*
X0376498Y0135322D01*
X0376638Y0135260D01*
X0376777Y0135195D01*
X0376914Y0135126D01*
X0377049Y0135053D01*
X0377182Y0134977D01*
X0377313Y0134897D01*
X0377442Y0134815D01*
X0377569Y0134728D01*
X0377694Y0134639D01*
X0377816Y0134546D01*
X0377935Y0134450D01*
X0378053Y0134351D01*
X0378167Y0134250D01*
X0378279Y0134145D01*
X0378388Y0134037D01*
X0378494Y0133926D01*
X0378598Y0133813D01*
X0378698Y0133697D01*
X0378796Y0133579D01*
X0378890Y0133458D01*
X0378981Y0133335D01*
X0379069Y0133209D01*
X0379153Y0133081D01*
X0379235Y0132951D01*
X0379312Y0132819D01*
X0379387Y0132685D01*
X0379458Y0132549D01*
X0379525Y0132411D01*
X0379589Y0132271D01*
X0379649Y0132130D01*
X0379705Y0131988D01*
X0379758Y0131844D01*
X0379807Y0131698D01*
X0379852Y0131552D01*
X0379893Y0131404D01*
X0379930Y0131256D01*
X0379964Y0131106D01*
X0379994Y0130955D01*
X0380019Y0130804D01*
X0380041Y0130653D01*
X0380059Y0130500D01*
X0380073Y0130348D01*
X0380083Y0130195D01*
X0380089Y0130041D01*
X0380091Y0129888D01*
X0380089Y0129735D01*
X0380083Y0129581D01*
X0380073Y0129428D01*
X0380059Y0129276D01*
X0380041Y0129123D01*
X0380019Y0128972D01*
X0379994Y0128821D01*
X0379964Y0128670D01*
X0379930Y0128520D01*
X0379893Y0128372D01*
X0379852Y0128224D01*
X0379807Y0128078D01*
X0379758Y0127932D01*
X0379705Y0127788D01*
X0379649Y0127646D01*
X0379589Y0127505D01*
X0379525Y0127365D01*
X0379458Y0127227D01*
X0379387Y0127091D01*
X0379312Y0126957D01*
X0379235Y0126825D01*
X0379153Y0126695D01*
X0379069Y0126567D01*
X0378981Y0126441D01*
X0378890Y0126318D01*
X0378796Y0126197D01*
X0378698Y0126079D01*
X0378598Y0125963D01*
X0378494Y0125850D01*
X0378388Y0125739D01*
X0378279Y0125631D01*
X0378167Y0125526D01*
X0378053Y0125425D01*
X0377935Y0125326D01*
X0377816Y0125230D01*
X0377694Y0125137D01*
X0377569Y0125048D01*
X0377442Y0124961D01*
X0377313Y0124879D01*
X0377182Y0124799D01*
X0377049Y0124723D01*
X0376914Y0124650D01*
X0376777Y0124581D01*
X0376638Y0124516D01*
X0376498Y0124454D01*
X0376356Y0124396D01*
X0376213Y0124341D01*
X0376068Y0124290D01*
X0375922Y0124243D01*
X0375775Y0124200D01*
X0375627Y0124161D01*
X0375478Y0124125D01*
X0375328Y0124094D01*
X0375177Y0124066D01*
X0375026Y0124042D01*
X0374873Y0124022D01*
X0374721Y0124006D01*
X0374568Y0123994D01*
X0374415Y0123986D01*
X0374262Y0123982D01*
X0374108Y0123982D01*
X0373955Y0123986D01*
X0373802Y0123994D01*
X0373649Y0124006D01*
X0373497Y0124022D01*
X0373344Y0124042D01*
X0373193Y0124066D01*
X0373042Y0124094D01*
X0372892Y0124125D01*
X0372743Y0124161D01*
X0372595Y0124200D01*
X0372448Y0124243D01*
X0372302Y0124290D01*
X0372157Y0124341D01*
X0372014Y0124396D01*
X0371872Y0124454D01*
X0371732Y0124516D01*
X0371593Y0124581D01*
X0371456Y0124650D01*
X0371321Y0124723D01*
X0371188Y0124799D01*
X0371057Y0124879D01*
X0370928Y0124961D01*
X0370801Y0125048D01*
X0370676Y0125137D01*
X0370554Y0125230D01*
X0370435Y0125326D01*
X0370317Y0125425D01*
X0370203Y0125526D01*
X0370091Y0125631D01*
X0369982Y0125739D01*
X0369876Y0125850D01*
X0369772Y0125963D01*
X0369672Y0126079D01*
X0369574Y0126197D01*
X0369480Y0126318D01*
X0369389Y0126441D01*
X0369301Y0126567D01*
X0369217Y0126695D01*
X0369135Y0126825D01*
X0369058Y0126957D01*
X0368983Y0127091D01*
X0368912Y0127227D01*
X0368845Y0127365D01*
X0368781Y0127505D01*
X0368721Y0127646D01*
X0368665Y0127788D01*
X0368612Y0127932D01*
X0368563Y0128078D01*
X0368518Y0128224D01*
X0368477Y0128372D01*
X0368440Y0128520D01*
X0368406Y0128670D01*
X0368376Y0128821D01*
X0368351Y0128972D01*
X0368329Y0129123D01*
X0368311Y0129276D01*
X0368297Y0129428D01*
X0368287Y0129581D01*
X0368281Y0129735D01*
X0368279Y0129888D01*
X0368279Y0091939D02*
X0368281Y0092092D01*
X0368287Y0092246D01*
X0368297Y0092399D01*
X0368311Y0092551D01*
X0368329Y0092704D01*
X0368351Y0092855D01*
X0368376Y0093006D01*
X0368406Y0093157D01*
X0368440Y0093307D01*
X0368477Y0093455D01*
X0368518Y0093603D01*
X0368563Y0093749D01*
X0368612Y0093895D01*
X0368665Y0094039D01*
X0368721Y0094181D01*
X0368781Y0094322D01*
X0368845Y0094462D01*
X0368912Y0094600D01*
X0368983Y0094736D01*
X0369058Y0094870D01*
X0369135Y0095002D01*
X0369217Y0095132D01*
X0369301Y0095260D01*
X0369389Y0095386D01*
X0369480Y0095509D01*
X0369574Y0095630D01*
X0369672Y0095748D01*
X0369772Y0095864D01*
X0369876Y0095977D01*
X0369982Y0096088D01*
X0370091Y0096196D01*
X0370203Y0096301D01*
X0370317Y0096402D01*
X0370435Y0096501D01*
X0370554Y0096597D01*
X0370676Y0096690D01*
X0370801Y0096779D01*
X0370928Y0096866D01*
X0371057Y0096948D01*
X0371188Y0097028D01*
X0371321Y0097104D01*
X0371456Y0097177D01*
X0371593Y0097246D01*
X0371732Y0097311D01*
X0371872Y0097373D01*
X0372014Y0097431D01*
X0372157Y0097486D01*
X0372302Y0097537D01*
X0372448Y0097584D01*
X0372595Y0097627D01*
X0372743Y0097666D01*
X0372892Y0097702D01*
X0373042Y0097733D01*
X0373193Y0097761D01*
X0373344Y0097785D01*
X0373497Y0097805D01*
X0373649Y0097821D01*
X0373802Y0097833D01*
X0373955Y0097841D01*
X0374108Y0097845D01*
X0374262Y0097845D01*
X0374415Y0097841D01*
X0374568Y0097833D01*
X0374721Y0097821D01*
X0374873Y0097805D01*
X0375026Y0097785D01*
X0375177Y0097761D01*
X0375328Y0097733D01*
X0375478Y0097702D01*
X0375627Y0097666D01*
X0375775Y0097627D01*
X0375922Y0097584D01*
X0376068Y0097537D01*
X0376213Y0097486D01*
X0376356Y0097431D01*
X0376498Y0097373D01*
X0376638Y0097311D01*
X0376777Y0097246D01*
X0376914Y0097177D01*
X0377049Y0097104D01*
X0377182Y0097028D01*
X0377313Y0096948D01*
X0377442Y0096866D01*
X0377569Y0096779D01*
X0377694Y0096690D01*
X0377816Y0096597D01*
X0377935Y0096501D01*
X0378053Y0096402D01*
X0378167Y0096301D01*
X0378279Y0096196D01*
X0378388Y0096088D01*
X0378494Y0095977D01*
X0378598Y0095864D01*
X0378698Y0095748D01*
X0378796Y0095630D01*
X0378890Y0095509D01*
X0378981Y0095386D01*
X0379069Y0095260D01*
X0379153Y0095132D01*
X0379235Y0095002D01*
X0379312Y0094870D01*
X0379387Y0094736D01*
X0379458Y0094600D01*
X0379525Y0094462D01*
X0379589Y0094322D01*
X0379649Y0094181D01*
X0379705Y0094039D01*
X0379758Y0093895D01*
X0379807Y0093749D01*
X0379852Y0093603D01*
X0379893Y0093455D01*
X0379930Y0093307D01*
X0379964Y0093157D01*
X0379994Y0093006D01*
X0380019Y0092855D01*
X0380041Y0092704D01*
X0380059Y0092551D01*
X0380073Y0092399D01*
X0380083Y0092246D01*
X0380089Y0092092D01*
X0380091Y0091939D01*
X0380089Y0091786D01*
X0380083Y0091632D01*
X0380073Y0091479D01*
X0380059Y0091327D01*
X0380041Y0091174D01*
X0380019Y0091023D01*
X0379994Y0090872D01*
X0379964Y0090721D01*
X0379930Y0090571D01*
X0379893Y0090423D01*
X0379852Y0090275D01*
X0379807Y0090129D01*
X0379758Y0089983D01*
X0379705Y0089839D01*
X0379649Y0089697D01*
X0379589Y0089556D01*
X0379525Y0089416D01*
X0379458Y0089278D01*
X0379387Y0089142D01*
X0379312Y0089008D01*
X0379235Y0088876D01*
X0379153Y0088746D01*
X0379069Y0088618D01*
X0378981Y0088492D01*
X0378890Y0088369D01*
X0378796Y0088248D01*
X0378698Y0088130D01*
X0378598Y0088014D01*
X0378494Y0087901D01*
X0378388Y0087790D01*
X0378279Y0087682D01*
X0378167Y0087577D01*
X0378053Y0087476D01*
X0377935Y0087377D01*
X0377816Y0087281D01*
X0377694Y0087188D01*
X0377569Y0087099D01*
X0377442Y0087012D01*
X0377313Y0086930D01*
X0377182Y0086850D01*
X0377049Y0086774D01*
X0376914Y0086701D01*
X0376777Y0086632D01*
X0376638Y0086567D01*
X0376498Y0086505D01*
X0376356Y0086447D01*
X0376213Y0086392D01*
X0376068Y0086341D01*
X0375922Y0086294D01*
X0375775Y0086251D01*
X0375627Y0086212D01*
X0375478Y0086176D01*
X0375328Y0086145D01*
X0375177Y0086117D01*
X0375026Y0086093D01*
X0374873Y0086073D01*
X0374721Y0086057D01*
X0374568Y0086045D01*
X0374415Y0086037D01*
X0374262Y0086033D01*
X0374108Y0086033D01*
X0373955Y0086037D01*
X0373802Y0086045D01*
X0373649Y0086057D01*
X0373497Y0086073D01*
X0373344Y0086093D01*
X0373193Y0086117D01*
X0373042Y0086145D01*
X0372892Y0086176D01*
X0372743Y0086212D01*
X0372595Y0086251D01*
X0372448Y0086294D01*
X0372302Y0086341D01*
X0372157Y0086392D01*
X0372014Y0086447D01*
X0371872Y0086505D01*
X0371732Y0086567D01*
X0371593Y0086632D01*
X0371456Y0086701D01*
X0371321Y0086774D01*
X0371188Y0086850D01*
X0371057Y0086930D01*
X0370928Y0087012D01*
X0370801Y0087099D01*
X0370676Y0087188D01*
X0370554Y0087281D01*
X0370435Y0087377D01*
X0370317Y0087476D01*
X0370203Y0087577D01*
X0370091Y0087682D01*
X0369982Y0087790D01*
X0369876Y0087901D01*
X0369772Y0088014D01*
X0369672Y0088130D01*
X0369574Y0088248D01*
X0369480Y0088369D01*
X0369389Y0088492D01*
X0369301Y0088618D01*
X0369217Y0088746D01*
X0369135Y0088876D01*
X0369058Y0089008D01*
X0368983Y0089142D01*
X0368912Y0089278D01*
X0368845Y0089416D01*
X0368781Y0089556D01*
X0368721Y0089697D01*
X0368665Y0089839D01*
X0368612Y0089983D01*
X0368563Y0090129D01*
X0368518Y0090275D01*
X0368477Y0090423D01*
X0368440Y0090571D01*
X0368406Y0090721D01*
X0368376Y0090872D01*
X0368351Y0091023D01*
X0368329Y0091174D01*
X0368311Y0091327D01*
X0368297Y0091479D01*
X0368287Y0091632D01*
X0368281Y0091786D01*
X0368279Y0091939D01*
X0368279Y0058939D02*
X0368281Y0059092D01*
X0368287Y0059246D01*
X0368297Y0059399D01*
X0368311Y0059551D01*
X0368329Y0059704D01*
X0368351Y0059855D01*
X0368376Y0060006D01*
X0368406Y0060157D01*
X0368440Y0060307D01*
X0368477Y0060455D01*
X0368518Y0060603D01*
X0368563Y0060749D01*
X0368612Y0060895D01*
X0368665Y0061039D01*
X0368721Y0061181D01*
X0368781Y0061322D01*
X0368845Y0061462D01*
X0368912Y0061600D01*
X0368983Y0061736D01*
X0369058Y0061870D01*
X0369135Y0062002D01*
X0369217Y0062132D01*
X0369301Y0062260D01*
X0369389Y0062386D01*
X0369480Y0062509D01*
X0369574Y0062630D01*
X0369672Y0062748D01*
X0369772Y0062864D01*
X0369876Y0062977D01*
X0369982Y0063088D01*
X0370091Y0063196D01*
X0370203Y0063301D01*
X0370317Y0063402D01*
X0370435Y0063501D01*
X0370554Y0063597D01*
X0370676Y0063690D01*
X0370801Y0063779D01*
X0370928Y0063866D01*
X0371057Y0063948D01*
X0371188Y0064028D01*
X0371321Y0064104D01*
X0371456Y0064177D01*
X0371593Y0064246D01*
X0371732Y0064311D01*
X0371872Y0064373D01*
X0372014Y0064431D01*
X0372157Y0064486D01*
X0372302Y0064537D01*
X0372448Y0064584D01*
X0372595Y0064627D01*
X0372743Y0064666D01*
X0372892Y0064702D01*
X0373042Y0064733D01*
X0373193Y0064761D01*
X0373344Y0064785D01*
X0373497Y0064805D01*
X0373649Y0064821D01*
X0373802Y0064833D01*
X0373955Y0064841D01*
X0374108Y0064845D01*
X0374262Y0064845D01*
X0374415Y0064841D01*
X0374568Y0064833D01*
X0374721Y0064821D01*
X0374873Y0064805D01*
X0375026Y0064785D01*
X0375177Y0064761D01*
X0375328Y0064733D01*
X0375478Y0064702D01*
X0375627Y0064666D01*
X0375775Y0064627D01*
X0375922Y0064584D01*
X0376068Y0064537D01*
X0376213Y0064486D01*
X0376356Y0064431D01*
X0376498Y0064373D01*
X0376638Y0064311D01*
X0376777Y0064246D01*
X0376914Y0064177D01*
X0377049Y0064104D01*
X0377182Y0064028D01*
X0377313Y0063948D01*
X0377442Y0063866D01*
X0377569Y0063779D01*
X0377694Y0063690D01*
X0377816Y0063597D01*
X0377935Y0063501D01*
X0378053Y0063402D01*
X0378167Y0063301D01*
X0378279Y0063196D01*
X0378388Y0063088D01*
X0378494Y0062977D01*
X0378598Y0062864D01*
X0378698Y0062748D01*
X0378796Y0062630D01*
X0378890Y0062509D01*
X0378981Y0062386D01*
X0379069Y0062260D01*
X0379153Y0062132D01*
X0379235Y0062002D01*
X0379312Y0061870D01*
X0379387Y0061736D01*
X0379458Y0061600D01*
X0379525Y0061462D01*
X0379589Y0061322D01*
X0379649Y0061181D01*
X0379705Y0061039D01*
X0379758Y0060895D01*
X0379807Y0060749D01*
X0379852Y0060603D01*
X0379893Y0060455D01*
X0379930Y0060307D01*
X0379964Y0060157D01*
X0379994Y0060006D01*
X0380019Y0059855D01*
X0380041Y0059704D01*
X0380059Y0059551D01*
X0380073Y0059399D01*
X0380083Y0059246D01*
X0380089Y0059092D01*
X0380091Y0058939D01*
X0380089Y0058786D01*
X0380083Y0058632D01*
X0380073Y0058479D01*
X0380059Y0058327D01*
X0380041Y0058174D01*
X0380019Y0058023D01*
X0379994Y0057872D01*
X0379964Y0057721D01*
X0379930Y0057571D01*
X0379893Y0057423D01*
X0379852Y0057275D01*
X0379807Y0057129D01*
X0379758Y0056983D01*
X0379705Y0056839D01*
X0379649Y0056697D01*
X0379589Y0056556D01*
X0379525Y0056416D01*
X0379458Y0056278D01*
X0379387Y0056142D01*
X0379312Y0056008D01*
X0379235Y0055876D01*
X0379153Y0055746D01*
X0379069Y0055618D01*
X0378981Y0055492D01*
X0378890Y0055369D01*
X0378796Y0055248D01*
X0378698Y0055130D01*
X0378598Y0055014D01*
X0378494Y0054901D01*
X0378388Y0054790D01*
X0378279Y0054682D01*
X0378167Y0054577D01*
X0378053Y0054476D01*
X0377935Y0054377D01*
X0377816Y0054281D01*
X0377694Y0054188D01*
X0377569Y0054099D01*
X0377442Y0054012D01*
X0377313Y0053930D01*
X0377182Y0053850D01*
X0377049Y0053774D01*
X0376914Y0053701D01*
X0376777Y0053632D01*
X0376638Y0053567D01*
X0376498Y0053505D01*
X0376356Y0053447D01*
X0376213Y0053392D01*
X0376068Y0053341D01*
X0375922Y0053294D01*
X0375775Y0053251D01*
X0375627Y0053212D01*
X0375478Y0053176D01*
X0375328Y0053145D01*
X0375177Y0053117D01*
X0375026Y0053093D01*
X0374873Y0053073D01*
X0374721Y0053057D01*
X0374568Y0053045D01*
X0374415Y0053037D01*
X0374262Y0053033D01*
X0374108Y0053033D01*
X0373955Y0053037D01*
X0373802Y0053045D01*
X0373649Y0053057D01*
X0373497Y0053073D01*
X0373344Y0053093D01*
X0373193Y0053117D01*
X0373042Y0053145D01*
X0372892Y0053176D01*
X0372743Y0053212D01*
X0372595Y0053251D01*
X0372448Y0053294D01*
X0372302Y0053341D01*
X0372157Y0053392D01*
X0372014Y0053447D01*
X0371872Y0053505D01*
X0371732Y0053567D01*
X0371593Y0053632D01*
X0371456Y0053701D01*
X0371321Y0053774D01*
X0371188Y0053850D01*
X0371057Y0053930D01*
X0370928Y0054012D01*
X0370801Y0054099D01*
X0370676Y0054188D01*
X0370554Y0054281D01*
X0370435Y0054377D01*
X0370317Y0054476D01*
X0370203Y0054577D01*
X0370091Y0054682D01*
X0369982Y0054790D01*
X0369876Y0054901D01*
X0369772Y0055014D01*
X0369672Y0055130D01*
X0369574Y0055248D01*
X0369480Y0055369D01*
X0369389Y0055492D01*
X0369301Y0055618D01*
X0369217Y0055746D01*
X0369135Y0055876D01*
X0369058Y0056008D01*
X0368983Y0056142D01*
X0368912Y0056278D01*
X0368845Y0056416D01*
X0368781Y0056556D01*
X0368721Y0056697D01*
X0368665Y0056839D01*
X0368612Y0056983D01*
X0368563Y0057129D01*
X0368518Y0057275D01*
X0368477Y0057423D01*
X0368440Y0057571D01*
X0368406Y0057721D01*
X0368376Y0057872D01*
X0368351Y0058023D01*
X0368329Y0058174D01*
X0368311Y0058327D01*
X0368297Y0058479D01*
X0368287Y0058632D01*
X0368281Y0058786D01*
X0368279Y0058939D01*
D12*
X0345444Y0058939D03*
X0345444Y0075439D03*
X0323744Y0075439D03*
X0323744Y0091939D03*
X0323744Y0058939D03*
X0323744Y0129888D03*
X0323744Y0146388D03*
X0323744Y0162888D03*
X0345444Y0146388D03*
X0345444Y0129888D03*
X0345444Y0291305D03*
X0345444Y0307805D03*
X0323744Y0307805D03*
X0323744Y0291305D03*
X0323744Y0324305D03*
X0078857Y0328242D03*
X0078857Y0311742D03*
X0078857Y0295242D03*
X0057157Y0311742D03*
X0057157Y0328242D03*
X0057150Y0162002D03*
X0057150Y0145502D03*
X0078850Y0145502D03*
X0078850Y0162002D03*
X0078850Y0129002D03*
D13*
X0057150Y0129002D03*
X0057157Y0295242D03*
X0345444Y0324305D03*
X0345444Y0162888D03*
X0345444Y0091939D03*
D14*
X0249382Y0321191D03*
X0249382Y0324931D03*
X0249382Y0328671D03*
X0239145Y0328671D03*
X0239145Y0324931D03*
X0239145Y0321191D03*
X0165720Y0323110D03*
X0165720Y0326850D03*
X0165720Y0330591D03*
X0155483Y0330591D03*
X0155483Y0326850D03*
X0155483Y0323110D03*
D15*
X0141025Y0370994D03*
X0171025Y0370994D03*
X0232413Y0371142D03*
X0262413Y0371142D03*
X0331970Y0371093D03*
X0361970Y0371093D03*
X0293820Y0108258D03*
X0281960Y0108307D03*
X0281960Y0088307D03*
X0281960Y0080945D03*
X0293820Y0080945D03*
X0293820Y0088258D03*
X0293820Y0060945D03*
X0281960Y0060945D03*
X0052915Y0372028D03*
X0022915Y0372028D03*
D16*
X0080779Y0209762D03*
X0080779Y0198762D03*
X0269515Y0164217D03*
X0269515Y0153217D03*
X0280299Y0141811D03*
X0291299Y0141811D03*
D17*
X0243968Y0248785D03*
X0243968Y0270285D03*
X0243968Y0291285D03*
X0159765Y0291285D03*
X0159765Y0270285D03*
X0159765Y0248785D03*
D18*
X0143082Y0185581D03*
X0143082Y0145817D03*
X0102728Y0145768D03*
X0102728Y0185531D03*
X0184421Y0185581D03*
X0184421Y0145817D03*
X0226202Y0145571D03*
X0226202Y0185335D03*
X0226202Y0095571D03*
X0226202Y0075492D03*
X0184421Y0075738D03*
X0184421Y0095817D03*
X0143082Y0095817D03*
X0143082Y0075738D03*
X0102728Y0075689D03*
X0102728Y0095768D03*
D19*
X0105533Y0227569D03*
X0105533Y0257569D03*
X0105533Y0332569D03*
X0105533Y0362569D03*
X0292836Y0363258D03*
X0292836Y0333258D03*
X0292836Y0258258D03*
X0292836Y0228258D03*
D20*
X0272561Y0138514D03*
X0270002Y0138514D03*
X0267443Y0138514D03*
X0264883Y0138514D03*
X0262324Y0138514D03*
X0259765Y0138514D03*
X0257206Y0138514D03*
X0254647Y0138514D03*
X0254647Y0115876D03*
X0257206Y0115876D03*
X0259765Y0115876D03*
X0262324Y0115876D03*
X0264883Y0115876D03*
X0267443Y0115876D03*
X0270002Y0115876D03*
X0272561Y0115876D03*
D21*
X0317128Y0248539D03*
X0322128Y0248539D03*
X0327128Y0248539D03*
X0332128Y0248539D03*
X0332128Y0269139D03*
X0327128Y0269139D03*
X0322128Y0269139D03*
X0317128Y0269139D03*
X0082374Y0351442D03*
X0077374Y0351442D03*
X0072374Y0351442D03*
X0067374Y0351442D03*
X0067374Y0372042D03*
X0072374Y0372042D03*
X0077374Y0372042D03*
X0082374Y0372042D03*
D22*
X0055976Y0395600D03*
X0048102Y0395600D03*
X0148496Y0394222D03*
X0156370Y0394222D03*
X0263161Y0394764D03*
X0271035Y0394764D03*
X0353220Y0395010D03*
X0361094Y0395010D03*
D23*
X0336411Y0017500D03*
X0326411Y0017500D03*
X0316411Y0017500D03*
X0306411Y0017500D03*
X0296411Y0017500D03*
X0286411Y0017500D03*
X0276411Y0017500D03*
X0266411Y0017500D03*
X0256411Y0017500D03*
X0246411Y0017500D03*
X0236411Y0017500D03*
X0226411Y0017500D03*
X0216411Y0017500D03*
X0206411Y0017500D03*
X0196411Y0017500D03*
X0186411Y0017500D03*
X0176411Y0017500D03*
X0166411Y0017500D03*
X0156411Y0017500D03*
X0146411Y0017500D03*
X0136411Y0017500D03*
X0126411Y0017500D03*
X0116411Y0017500D03*
X0106411Y0017500D03*
X0096411Y0017500D03*
X0086411Y0017500D03*
X0076411Y0017500D03*
X0066411Y0017500D03*
D24*
X0056411Y0005000D02*
X0056411Y0035000D01*
X0056411Y0005000D02*
X0346411Y0005000D01*
X0346686Y0005000D02*
X0346686Y0035000D01*
D25*
X0204106Y0335709D03*
D26*
X0219854Y0360315D03*
X0176405Y0360315D03*
X0322216Y0360315D03*
X0021035Y0360315D03*
D27*
X0078850Y0076500D03*
D28*
X0057150Y0076500D03*
D29*
X0076153Y0036496D03*
X0106411Y0036496D03*
X0126411Y0034000D03*
X0136411Y0034000D03*
X0136350Y0049500D03*
X0126350Y0049500D03*
X0219854Y0158543D03*
X0264145Y0144764D03*
X0318279Y0040433D03*
X0325169Y0037480D03*
X0340443Y0037480D03*
X0256411Y0033543D03*
X0256271Y0324882D03*
X0232649Y0331772D03*
X0277925Y0364252D03*
X0255287Y0385906D03*
X0345259Y0384874D03*
X0159815Y0333740D03*
X0138456Y0384874D03*
X0034236Y0388280D03*
D30*
X0034236Y0391386D01*
X0038450Y0395600D01*
X0048102Y0395600D01*
X0051202Y0390827D02*
X0041714Y0390827D01*
X0022915Y0372028D01*
X0051202Y0390827D02*
X0055976Y0395600D01*
X0066311Y0381969D02*
X0117492Y0381969D01*
X0125366Y0374094D01*
X0125366Y0317992D01*
X0130779Y0312579D01*
X0125750Y0307549D01*
X0125750Y0257569D01*
X0159765Y0291285D02*
X0159765Y0291467D01*
X0149972Y0301260D01*
X0149972Y0324882D01*
X0151941Y0326850D01*
X0155483Y0326850D01*
X0155483Y0323110D02*
X0155582Y0323012D01*
X0165819Y0323012D01*
X0165720Y0323110D02*
X0168476Y0323110D01*
X0171626Y0319961D01*
X0171626Y0272254D01*
X0171886Y0271993D01*
X0130779Y0312579D02*
X0148791Y0330591D01*
X0155483Y0330591D01*
X0159815Y0327835D02*
X0159815Y0333740D01*
X0159815Y0327835D02*
X0160799Y0326850D01*
X0165720Y0326850D01*
X0165720Y0330591D02*
X0170839Y0335709D01*
X0204106Y0335709D01*
X0216901Y0335709D01*
X0231419Y0321191D01*
X0239145Y0321191D01*
X0239145Y0324931D02*
X0235553Y0324931D01*
X0232649Y0327835D01*
X0232649Y0331772D01*
X0239145Y0328671D02*
X0243476Y0328671D01*
X0243476Y0334577D01*
X0226596Y0351457D01*
X0176350Y0351457D01*
X0160563Y0351457D01*
X0141025Y0370994D01*
X0138456Y0384874D02*
X0138350Y0384980D01*
X0138350Y0391500D01*
X0141072Y0394222D01*
X0148496Y0394222D01*
X0156370Y0394222D02*
X0171025Y0379567D01*
X0171025Y0370994D01*
X0243476Y0328671D02*
X0243476Y0312087D01*
X0230681Y0299291D01*
X0230681Y0272254D01*
X0232649Y0270285D01*
X0266114Y0248785D02*
X0268328Y0251000D01*
X0268328Y0321191D01*
X0271035Y0323898D01*
X0271035Y0365236D01*
X0279893Y0374094D01*
X0319263Y0374094D01*
X0328968Y0374094D01*
X0331970Y0371093D01*
X0345259Y0384874D02*
X0345350Y0384965D01*
X0345350Y0392000D01*
X0348360Y0395010D01*
X0353220Y0395010D01*
X0361094Y0395010D02*
X0361970Y0394134D01*
X0361970Y0371093D01*
X0268328Y0321191D02*
X0249382Y0321191D01*
X0249431Y0324882D02*
X0256271Y0324882D01*
X0249431Y0324882D02*
X0249382Y0324931D01*
X0249382Y0328671D02*
X0243476Y0328671D01*
X0066311Y0381969D02*
X0056370Y0372028D01*
X0052915Y0372028D01*
D31*
X0126350Y0049500D02*
X0126411Y0049439D01*
X0126411Y0034000D01*
X0126411Y0017500D01*
X0136411Y0017500D02*
X0136411Y0034000D01*
X0136411Y0049439D01*
X0136350Y0049500D01*
D32*
X0143082Y0075738D02*
X0109618Y0075738D01*
X0106411Y0072531D01*
X0106411Y0044370D01*
X0106411Y0036496D01*
X0102728Y0075689D02*
X0102777Y0075738D01*
X0109618Y0075738D01*
X0102728Y0095768D02*
X0073115Y0095768D01*
X0057150Y0079803D01*
X0057150Y0076500D01*
X0102728Y0095768D02*
X0143033Y0095768D01*
X0143082Y0095817D01*
X0184421Y0095817D01*
X0184667Y0095571D01*
X0226202Y0095571D01*
X0240523Y0081250D01*
X0240523Y0058150D01*
X0256411Y0042262D01*
X0256411Y0033543D01*
X0256411Y0017500D01*
X0226202Y0075492D02*
X0225956Y0075738D01*
X0184421Y0075738D01*
X0143082Y0075738D01*
X0085996Y0185531D02*
X0080779Y0190748D01*
X0080779Y0198762D01*
D33*
X0082374Y0351442D02*
X0077374Y0351442D01*
X0072374Y0351442D02*
X0067374Y0351442D01*
X0317128Y0269139D02*
X0322128Y0269139D01*
X0327128Y0269139D02*
X0332128Y0269139D01*
D34*
X0345444Y0282456D01*
X0345444Y0291305D01*
X0345444Y0307805D01*
X0345444Y0324305D01*
X0292836Y0333258D02*
X0292836Y0293430D01*
X0317128Y0269139D01*
X0292836Y0258258D02*
X0292836Y0228258D01*
X0272309Y0248785D01*
X0266114Y0248785D01*
X0243968Y0248785D01*
X0258860Y0178228D02*
X0330990Y0178228D01*
X0345444Y0163774D01*
X0345444Y0162888D01*
X0345444Y0146388D01*
X0345444Y0129888D01*
X0328332Y0109331D02*
X0345444Y0092219D01*
X0345444Y0091939D01*
X0345444Y0075439D01*
X0345444Y0058939D01*
X0328332Y0109331D02*
X0311389Y0109331D01*
X0292689Y0128031D01*
X0160769Y0128031D01*
X0143033Y0145768D01*
X0143082Y0145817D01*
X0143033Y0145768D02*
X0102728Y0145768D01*
X0102728Y0185531D02*
X0085996Y0185531D01*
X0062787Y0185531D01*
X0056850Y0179594D01*
X0056850Y0162302D01*
X0057150Y0162002D01*
X0057150Y0145502D01*
X0057150Y0129002D01*
X0105533Y0227569D02*
X0105533Y0257569D01*
X0125750Y0257569D01*
X0134224Y0249094D01*
X0159456Y0249094D01*
X0159765Y0248785D01*
X0105533Y0332569D02*
X0105533Y0351457D01*
X0082388Y0351457D01*
X0082374Y0351442D01*
X0067374Y0351442D02*
X0057157Y0341226D01*
X0057157Y0328242D01*
X0057157Y0311742D01*
X0057157Y0295242D01*
X0105533Y0351457D02*
X0105533Y0362569D01*
X0292836Y0363258D02*
X0292836Y0333258D01*
X0258860Y0178228D02*
X0226202Y0145571D01*
X0184667Y0145571D01*
X0184421Y0145817D01*
D35*
X0322216Y0360315D02*
X0322216Y0371142D01*
X0319263Y0374094D01*
X0052915Y0372028D02*
X0041202Y0360315D01*
X0021035Y0360315D01*
D36*
X0102777Y0185581D02*
X0143082Y0185581D01*
X0184421Y0185581D01*
X0203122Y0204281D01*
X0203122Y0254016D01*
X0184421Y0185581D02*
X0225956Y0185581D01*
X0226202Y0185335D01*
X0102777Y0185581D02*
X0102728Y0185531D01*
D37*
X0159765Y0270285D02*
X0173594Y0270285D01*
X0186852Y0270285D01*
X0203122Y0254016D01*
X0219391Y0270285D01*
X0232649Y0270285D01*
X0243968Y0270285D01*
D38*
X0219391Y0279085D02*
X0216439Y0279085D01*
X0165917Y0322913D02*
X0165819Y0323012D01*
X0165720Y0323110D01*
M02*
