G75*
%MOIN*%
%OFA0B0*%
%FSLAX25Y25*%
%IPPOS*%
%LPD*%
%AMOC8*
5,1,8,0,0,1.08239X$1,22.5*
%
%ADD10C,0.00000*%
%ADD11R,0.02165X0.04724*%
%ADD12C,0.15000*%
%ADD13R,0.06500X0.25000*%
%ADD14C,0.00500*%
%ADD15OC8,0.10000*%
%ADD16R,0.10000X0.10000*%
%ADD17C,0.08000*%
%ADD18C,0.03569*%
%ADD19C,0.01000*%
%ADD20C,0.06600*%
%ADD21C,0.03000*%
%ADD22C,0.02200*%
%ADD23C,0.02400*%
%ADD24C,0.03200*%
%ADD25C,0.02700*%
%ADD26C,0.08000*%
%ADD27C,0.02500*%
D10*
X0001000Y0035000D02*
X0001000Y0405000D01*
X0401000Y0405000D01*
X0408500Y0035000D01*
X0001000Y0035000D01*
X0038854Y0158500D02*
X0038856Y0158653D01*
X0038862Y0158807D01*
X0038872Y0158960D01*
X0038886Y0159112D01*
X0038904Y0159265D01*
X0038926Y0159416D01*
X0038951Y0159567D01*
X0038981Y0159718D01*
X0039015Y0159868D01*
X0039052Y0160016D01*
X0039093Y0160164D01*
X0039138Y0160310D01*
X0039187Y0160456D01*
X0039240Y0160600D01*
X0039296Y0160742D01*
X0039356Y0160883D01*
X0039420Y0161023D01*
X0039487Y0161161D01*
X0039558Y0161297D01*
X0039633Y0161431D01*
X0039710Y0161563D01*
X0039792Y0161693D01*
X0039876Y0161821D01*
X0039964Y0161947D01*
X0040055Y0162070D01*
X0040149Y0162191D01*
X0040247Y0162309D01*
X0040347Y0162425D01*
X0040451Y0162538D01*
X0040557Y0162649D01*
X0040666Y0162757D01*
X0040778Y0162862D01*
X0040892Y0162963D01*
X0041010Y0163062D01*
X0041129Y0163158D01*
X0041251Y0163251D01*
X0041376Y0163340D01*
X0041503Y0163427D01*
X0041632Y0163509D01*
X0041763Y0163589D01*
X0041896Y0163665D01*
X0042031Y0163738D01*
X0042168Y0163807D01*
X0042307Y0163872D01*
X0042447Y0163934D01*
X0042589Y0163992D01*
X0042732Y0164047D01*
X0042877Y0164098D01*
X0043023Y0164145D01*
X0043170Y0164188D01*
X0043318Y0164227D01*
X0043467Y0164263D01*
X0043617Y0164294D01*
X0043768Y0164322D01*
X0043919Y0164346D01*
X0044072Y0164366D01*
X0044224Y0164382D01*
X0044377Y0164394D01*
X0044530Y0164402D01*
X0044683Y0164406D01*
X0044837Y0164406D01*
X0044990Y0164402D01*
X0045143Y0164394D01*
X0045296Y0164382D01*
X0045448Y0164366D01*
X0045601Y0164346D01*
X0045752Y0164322D01*
X0045903Y0164294D01*
X0046053Y0164263D01*
X0046202Y0164227D01*
X0046350Y0164188D01*
X0046497Y0164145D01*
X0046643Y0164098D01*
X0046788Y0164047D01*
X0046931Y0163992D01*
X0047073Y0163934D01*
X0047213Y0163872D01*
X0047352Y0163807D01*
X0047489Y0163738D01*
X0047624Y0163665D01*
X0047757Y0163589D01*
X0047888Y0163509D01*
X0048017Y0163427D01*
X0048144Y0163340D01*
X0048269Y0163251D01*
X0048391Y0163158D01*
X0048510Y0163062D01*
X0048628Y0162963D01*
X0048742Y0162862D01*
X0048854Y0162757D01*
X0048963Y0162649D01*
X0049069Y0162538D01*
X0049173Y0162425D01*
X0049273Y0162309D01*
X0049371Y0162191D01*
X0049465Y0162070D01*
X0049556Y0161947D01*
X0049644Y0161821D01*
X0049728Y0161693D01*
X0049810Y0161563D01*
X0049887Y0161431D01*
X0049962Y0161297D01*
X0050033Y0161161D01*
X0050100Y0161023D01*
X0050164Y0160883D01*
X0050224Y0160742D01*
X0050280Y0160600D01*
X0050333Y0160456D01*
X0050382Y0160310D01*
X0050427Y0160164D01*
X0050468Y0160016D01*
X0050505Y0159868D01*
X0050539Y0159718D01*
X0050569Y0159567D01*
X0050594Y0159416D01*
X0050616Y0159265D01*
X0050634Y0159112D01*
X0050648Y0158960D01*
X0050658Y0158807D01*
X0050664Y0158653D01*
X0050666Y0158500D01*
X0050664Y0158347D01*
X0050658Y0158193D01*
X0050648Y0158040D01*
X0050634Y0157888D01*
X0050616Y0157735D01*
X0050594Y0157584D01*
X0050569Y0157433D01*
X0050539Y0157282D01*
X0050505Y0157132D01*
X0050468Y0156984D01*
X0050427Y0156836D01*
X0050382Y0156690D01*
X0050333Y0156544D01*
X0050280Y0156400D01*
X0050224Y0156258D01*
X0050164Y0156117D01*
X0050100Y0155977D01*
X0050033Y0155839D01*
X0049962Y0155703D01*
X0049887Y0155569D01*
X0049810Y0155437D01*
X0049728Y0155307D01*
X0049644Y0155179D01*
X0049556Y0155053D01*
X0049465Y0154930D01*
X0049371Y0154809D01*
X0049273Y0154691D01*
X0049173Y0154575D01*
X0049069Y0154462D01*
X0048963Y0154351D01*
X0048854Y0154243D01*
X0048742Y0154138D01*
X0048628Y0154037D01*
X0048510Y0153938D01*
X0048391Y0153842D01*
X0048269Y0153749D01*
X0048144Y0153660D01*
X0048017Y0153573D01*
X0047888Y0153491D01*
X0047757Y0153411D01*
X0047624Y0153335D01*
X0047489Y0153262D01*
X0047352Y0153193D01*
X0047213Y0153128D01*
X0047073Y0153066D01*
X0046931Y0153008D01*
X0046788Y0152953D01*
X0046643Y0152902D01*
X0046497Y0152855D01*
X0046350Y0152812D01*
X0046202Y0152773D01*
X0046053Y0152737D01*
X0045903Y0152706D01*
X0045752Y0152678D01*
X0045601Y0152654D01*
X0045448Y0152634D01*
X0045296Y0152618D01*
X0045143Y0152606D01*
X0044990Y0152598D01*
X0044837Y0152594D01*
X0044683Y0152594D01*
X0044530Y0152598D01*
X0044377Y0152606D01*
X0044224Y0152618D01*
X0044072Y0152634D01*
X0043919Y0152654D01*
X0043768Y0152678D01*
X0043617Y0152706D01*
X0043467Y0152737D01*
X0043318Y0152773D01*
X0043170Y0152812D01*
X0043023Y0152855D01*
X0042877Y0152902D01*
X0042732Y0152953D01*
X0042589Y0153008D01*
X0042447Y0153066D01*
X0042307Y0153128D01*
X0042168Y0153193D01*
X0042031Y0153262D01*
X0041896Y0153335D01*
X0041763Y0153411D01*
X0041632Y0153491D01*
X0041503Y0153573D01*
X0041376Y0153660D01*
X0041251Y0153749D01*
X0041129Y0153842D01*
X0041010Y0153938D01*
X0040892Y0154037D01*
X0040778Y0154138D01*
X0040666Y0154243D01*
X0040557Y0154351D01*
X0040451Y0154462D01*
X0040347Y0154575D01*
X0040247Y0154691D01*
X0040149Y0154809D01*
X0040055Y0154930D01*
X0039964Y0155053D01*
X0039876Y0155179D01*
X0039792Y0155307D01*
X0039710Y0155437D01*
X0039633Y0155569D01*
X0039558Y0155703D01*
X0039487Y0155839D01*
X0039420Y0155977D01*
X0039356Y0156117D01*
X0039296Y0156258D01*
X0039240Y0156400D01*
X0039187Y0156544D01*
X0039138Y0156690D01*
X0039093Y0156836D01*
X0039052Y0156984D01*
X0039015Y0157132D01*
X0038981Y0157282D01*
X0038951Y0157433D01*
X0038926Y0157584D01*
X0038904Y0157735D01*
X0038886Y0157888D01*
X0038872Y0158040D01*
X0038862Y0158193D01*
X0038856Y0158347D01*
X0038854Y0158500D01*
X0038854Y0191500D02*
X0038856Y0191653D01*
X0038862Y0191807D01*
X0038872Y0191960D01*
X0038886Y0192112D01*
X0038904Y0192265D01*
X0038926Y0192416D01*
X0038951Y0192567D01*
X0038981Y0192718D01*
X0039015Y0192868D01*
X0039052Y0193016D01*
X0039093Y0193164D01*
X0039138Y0193310D01*
X0039187Y0193456D01*
X0039240Y0193600D01*
X0039296Y0193742D01*
X0039356Y0193883D01*
X0039420Y0194023D01*
X0039487Y0194161D01*
X0039558Y0194297D01*
X0039633Y0194431D01*
X0039710Y0194563D01*
X0039792Y0194693D01*
X0039876Y0194821D01*
X0039964Y0194947D01*
X0040055Y0195070D01*
X0040149Y0195191D01*
X0040247Y0195309D01*
X0040347Y0195425D01*
X0040451Y0195538D01*
X0040557Y0195649D01*
X0040666Y0195757D01*
X0040778Y0195862D01*
X0040892Y0195963D01*
X0041010Y0196062D01*
X0041129Y0196158D01*
X0041251Y0196251D01*
X0041376Y0196340D01*
X0041503Y0196427D01*
X0041632Y0196509D01*
X0041763Y0196589D01*
X0041896Y0196665D01*
X0042031Y0196738D01*
X0042168Y0196807D01*
X0042307Y0196872D01*
X0042447Y0196934D01*
X0042589Y0196992D01*
X0042732Y0197047D01*
X0042877Y0197098D01*
X0043023Y0197145D01*
X0043170Y0197188D01*
X0043318Y0197227D01*
X0043467Y0197263D01*
X0043617Y0197294D01*
X0043768Y0197322D01*
X0043919Y0197346D01*
X0044072Y0197366D01*
X0044224Y0197382D01*
X0044377Y0197394D01*
X0044530Y0197402D01*
X0044683Y0197406D01*
X0044837Y0197406D01*
X0044990Y0197402D01*
X0045143Y0197394D01*
X0045296Y0197382D01*
X0045448Y0197366D01*
X0045601Y0197346D01*
X0045752Y0197322D01*
X0045903Y0197294D01*
X0046053Y0197263D01*
X0046202Y0197227D01*
X0046350Y0197188D01*
X0046497Y0197145D01*
X0046643Y0197098D01*
X0046788Y0197047D01*
X0046931Y0196992D01*
X0047073Y0196934D01*
X0047213Y0196872D01*
X0047352Y0196807D01*
X0047489Y0196738D01*
X0047624Y0196665D01*
X0047757Y0196589D01*
X0047888Y0196509D01*
X0048017Y0196427D01*
X0048144Y0196340D01*
X0048269Y0196251D01*
X0048391Y0196158D01*
X0048510Y0196062D01*
X0048628Y0195963D01*
X0048742Y0195862D01*
X0048854Y0195757D01*
X0048963Y0195649D01*
X0049069Y0195538D01*
X0049173Y0195425D01*
X0049273Y0195309D01*
X0049371Y0195191D01*
X0049465Y0195070D01*
X0049556Y0194947D01*
X0049644Y0194821D01*
X0049728Y0194693D01*
X0049810Y0194563D01*
X0049887Y0194431D01*
X0049962Y0194297D01*
X0050033Y0194161D01*
X0050100Y0194023D01*
X0050164Y0193883D01*
X0050224Y0193742D01*
X0050280Y0193600D01*
X0050333Y0193456D01*
X0050382Y0193310D01*
X0050427Y0193164D01*
X0050468Y0193016D01*
X0050505Y0192868D01*
X0050539Y0192718D01*
X0050569Y0192567D01*
X0050594Y0192416D01*
X0050616Y0192265D01*
X0050634Y0192112D01*
X0050648Y0191960D01*
X0050658Y0191807D01*
X0050664Y0191653D01*
X0050666Y0191500D01*
X0050664Y0191347D01*
X0050658Y0191193D01*
X0050648Y0191040D01*
X0050634Y0190888D01*
X0050616Y0190735D01*
X0050594Y0190584D01*
X0050569Y0190433D01*
X0050539Y0190282D01*
X0050505Y0190132D01*
X0050468Y0189984D01*
X0050427Y0189836D01*
X0050382Y0189690D01*
X0050333Y0189544D01*
X0050280Y0189400D01*
X0050224Y0189258D01*
X0050164Y0189117D01*
X0050100Y0188977D01*
X0050033Y0188839D01*
X0049962Y0188703D01*
X0049887Y0188569D01*
X0049810Y0188437D01*
X0049728Y0188307D01*
X0049644Y0188179D01*
X0049556Y0188053D01*
X0049465Y0187930D01*
X0049371Y0187809D01*
X0049273Y0187691D01*
X0049173Y0187575D01*
X0049069Y0187462D01*
X0048963Y0187351D01*
X0048854Y0187243D01*
X0048742Y0187138D01*
X0048628Y0187037D01*
X0048510Y0186938D01*
X0048391Y0186842D01*
X0048269Y0186749D01*
X0048144Y0186660D01*
X0048017Y0186573D01*
X0047888Y0186491D01*
X0047757Y0186411D01*
X0047624Y0186335D01*
X0047489Y0186262D01*
X0047352Y0186193D01*
X0047213Y0186128D01*
X0047073Y0186066D01*
X0046931Y0186008D01*
X0046788Y0185953D01*
X0046643Y0185902D01*
X0046497Y0185855D01*
X0046350Y0185812D01*
X0046202Y0185773D01*
X0046053Y0185737D01*
X0045903Y0185706D01*
X0045752Y0185678D01*
X0045601Y0185654D01*
X0045448Y0185634D01*
X0045296Y0185618D01*
X0045143Y0185606D01*
X0044990Y0185598D01*
X0044837Y0185594D01*
X0044683Y0185594D01*
X0044530Y0185598D01*
X0044377Y0185606D01*
X0044224Y0185618D01*
X0044072Y0185634D01*
X0043919Y0185654D01*
X0043768Y0185678D01*
X0043617Y0185706D01*
X0043467Y0185737D01*
X0043318Y0185773D01*
X0043170Y0185812D01*
X0043023Y0185855D01*
X0042877Y0185902D01*
X0042732Y0185953D01*
X0042589Y0186008D01*
X0042447Y0186066D01*
X0042307Y0186128D01*
X0042168Y0186193D01*
X0042031Y0186262D01*
X0041896Y0186335D01*
X0041763Y0186411D01*
X0041632Y0186491D01*
X0041503Y0186573D01*
X0041376Y0186660D01*
X0041251Y0186749D01*
X0041129Y0186842D01*
X0041010Y0186938D01*
X0040892Y0187037D01*
X0040778Y0187138D01*
X0040666Y0187243D01*
X0040557Y0187351D01*
X0040451Y0187462D01*
X0040347Y0187575D01*
X0040247Y0187691D01*
X0040149Y0187809D01*
X0040055Y0187930D01*
X0039964Y0188053D01*
X0039876Y0188179D01*
X0039792Y0188307D01*
X0039710Y0188437D01*
X0039633Y0188569D01*
X0039558Y0188703D01*
X0039487Y0188839D01*
X0039420Y0188977D01*
X0039356Y0189117D01*
X0039296Y0189258D01*
X0039240Y0189400D01*
X0039187Y0189544D01*
X0039138Y0189690D01*
X0039093Y0189836D01*
X0039052Y0189984D01*
X0039015Y0190132D01*
X0038981Y0190282D01*
X0038951Y0190433D01*
X0038926Y0190584D01*
X0038904Y0190735D01*
X0038886Y0190888D01*
X0038872Y0191040D01*
X0038862Y0191193D01*
X0038856Y0191347D01*
X0038854Y0191500D01*
X0038854Y0276000D02*
X0038856Y0276153D01*
X0038862Y0276307D01*
X0038872Y0276460D01*
X0038886Y0276612D01*
X0038904Y0276765D01*
X0038926Y0276916D01*
X0038951Y0277067D01*
X0038981Y0277218D01*
X0039015Y0277368D01*
X0039052Y0277516D01*
X0039093Y0277664D01*
X0039138Y0277810D01*
X0039187Y0277956D01*
X0039240Y0278100D01*
X0039296Y0278242D01*
X0039356Y0278383D01*
X0039420Y0278523D01*
X0039487Y0278661D01*
X0039558Y0278797D01*
X0039633Y0278931D01*
X0039710Y0279063D01*
X0039792Y0279193D01*
X0039876Y0279321D01*
X0039964Y0279447D01*
X0040055Y0279570D01*
X0040149Y0279691D01*
X0040247Y0279809D01*
X0040347Y0279925D01*
X0040451Y0280038D01*
X0040557Y0280149D01*
X0040666Y0280257D01*
X0040778Y0280362D01*
X0040892Y0280463D01*
X0041010Y0280562D01*
X0041129Y0280658D01*
X0041251Y0280751D01*
X0041376Y0280840D01*
X0041503Y0280927D01*
X0041632Y0281009D01*
X0041763Y0281089D01*
X0041896Y0281165D01*
X0042031Y0281238D01*
X0042168Y0281307D01*
X0042307Y0281372D01*
X0042447Y0281434D01*
X0042589Y0281492D01*
X0042732Y0281547D01*
X0042877Y0281598D01*
X0043023Y0281645D01*
X0043170Y0281688D01*
X0043318Y0281727D01*
X0043467Y0281763D01*
X0043617Y0281794D01*
X0043768Y0281822D01*
X0043919Y0281846D01*
X0044072Y0281866D01*
X0044224Y0281882D01*
X0044377Y0281894D01*
X0044530Y0281902D01*
X0044683Y0281906D01*
X0044837Y0281906D01*
X0044990Y0281902D01*
X0045143Y0281894D01*
X0045296Y0281882D01*
X0045448Y0281866D01*
X0045601Y0281846D01*
X0045752Y0281822D01*
X0045903Y0281794D01*
X0046053Y0281763D01*
X0046202Y0281727D01*
X0046350Y0281688D01*
X0046497Y0281645D01*
X0046643Y0281598D01*
X0046788Y0281547D01*
X0046931Y0281492D01*
X0047073Y0281434D01*
X0047213Y0281372D01*
X0047352Y0281307D01*
X0047489Y0281238D01*
X0047624Y0281165D01*
X0047757Y0281089D01*
X0047888Y0281009D01*
X0048017Y0280927D01*
X0048144Y0280840D01*
X0048269Y0280751D01*
X0048391Y0280658D01*
X0048510Y0280562D01*
X0048628Y0280463D01*
X0048742Y0280362D01*
X0048854Y0280257D01*
X0048963Y0280149D01*
X0049069Y0280038D01*
X0049173Y0279925D01*
X0049273Y0279809D01*
X0049371Y0279691D01*
X0049465Y0279570D01*
X0049556Y0279447D01*
X0049644Y0279321D01*
X0049728Y0279193D01*
X0049810Y0279063D01*
X0049887Y0278931D01*
X0049962Y0278797D01*
X0050033Y0278661D01*
X0050100Y0278523D01*
X0050164Y0278383D01*
X0050224Y0278242D01*
X0050280Y0278100D01*
X0050333Y0277956D01*
X0050382Y0277810D01*
X0050427Y0277664D01*
X0050468Y0277516D01*
X0050505Y0277368D01*
X0050539Y0277218D01*
X0050569Y0277067D01*
X0050594Y0276916D01*
X0050616Y0276765D01*
X0050634Y0276612D01*
X0050648Y0276460D01*
X0050658Y0276307D01*
X0050664Y0276153D01*
X0050666Y0276000D01*
X0050664Y0275847D01*
X0050658Y0275693D01*
X0050648Y0275540D01*
X0050634Y0275388D01*
X0050616Y0275235D01*
X0050594Y0275084D01*
X0050569Y0274933D01*
X0050539Y0274782D01*
X0050505Y0274632D01*
X0050468Y0274484D01*
X0050427Y0274336D01*
X0050382Y0274190D01*
X0050333Y0274044D01*
X0050280Y0273900D01*
X0050224Y0273758D01*
X0050164Y0273617D01*
X0050100Y0273477D01*
X0050033Y0273339D01*
X0049962Y0273203D01*
X0049887Y0273069D01*
X0049810Y0272937D01*
X0049728Y0272807D01*
X0049644Y0272679D01*
X0049556Y0272553D01*
X0049465Y0272430D01*
X0049371Y0272309D01*
X0049273Y0272191D01*
X0049173Y0272075D01*
X0049069Y0271962D01*
X0048963Y0271851D01*
X0048854Y0271743D01*
X0048742Y0271638D01*
X0048628Y0271537D01*
X0048510Y0271438D01*
X0048391Y0271342D01*
X0048269Y0271249D01*
X0048144Y0271160D01*
X0048017Y0271073D01*
X0047888Y0270991D01*
X0047757Y0270911D01*
X0047624Y0270835D01*
X0047489Y0270762D01*
X0047352Y0270693D01*
X0047213Y0270628D01*
X0047073Y0270566D01*
X0046931Y0270508D01*
X0046788Y0270453D01*
X0046643Y0270402D01*
X0046497Y0270355D01*
X0046350Y0270312D01*
X0046202Y0270273D01*
X0046053Y0270237D01*
X0045903Y0270206D01*
X0045752Y0270178D01*
X0045601Y0270154D01*
X0045448Y0270134D01*
X0045296Y0270118D01*
X0045143Y0270106D01*
X0044990Y0270098D01*
X0044837Y0270094D01*
X0044683Y0270094D01*
X0044530Y0270098D01*
X0044377Y0270106D01*
X0044224Y0270118D01*
X0044072Y0270134D01*
X0043919Y0270154D01*
X0043768Y0270178D01*
X0043617Y0270206D01*
X0043467Y0270237D01*
X0043318Y0270273D01*
X0043170Y0270312D01*
X0043023Y0270355D01*
X0042877Y0270402D01*
X0042732Y0270453D01*
X0042589Y0270508D01*
X0042447Y0270566D01*
X0042307Y0270628D01*
X0042168Y0270693D01*
X0042031Y0270762D01*
X0041896Y0270835D01*
X0041763Y0270911D01*
X0041632Y0270991D01*
X0041503Y0271073D01*
X0041376Y0271160D01*
X0041251Y0271249D01*
X0041129Y0271342D01*
X0041010Y0271438D01*
X0040892Y0271537D01*
X0040778Y0271638D01*
X0040666Y0271743D01*
X0040557Y0271851D01*
X0040451Y0271962D01*
X0040347Y0272075D01*
X0040247Y0272191D01*
X0040149Y0272309D01*
X0040055Y0272430D01*
X0039964Y0272553D01*
X0039876Y0272679D01*
X0039792Y0272807D01*
X0039710Y0272937D01*
X0039633Y0273069D01*
X0039558Y0273203D01*
X0039487Y0273339D01*
X0039420Y0273477D01*
X0039356Y0273617D01*
X0039296Y0273758D01*
X0039240Y0273900D01*
X0039187Y0274044D01*
X0039138Y0274190D01*
X0039093Y0274336D01*
X0039052Y0274484D01*
X0039015Y0274632D01*
X0038981Y0274782D01*
X0038951Y0274933D01*
X0038926Y0275084D01*
X0038904Y0275235D01*
X0038886Y0275388D01*
X0038872Y0275540D01*
X0038862Y0275693D01*
X0038856Y0275847D01*
X0038854Y0276000D01*
X0038854Y0309000D02*
X0038856Y0309153D01*
X0038862Y0309307D01*
X0038872Y0309460D01*
X0038886Y0309612D01*
X0038904Y0309765D01*
X0038926Y0309916D01*
X0038951Y0310067D01*
X0038981Y0310218D01*
X0039015Y0310368D01*
X0039052Y0310516D01*
X0039093Y0310664D01*
X0039138Y0310810D01*
X0039187Y0310956D01*
X0039240Y0311100D01*
X0039296Y0311242D01*
X0039356Y0311383D01*
X0039420Y0311523D01*
X0039487Y0311661D01*
X0039558Y0311797D01*
X0039633Y0311931D01*
X0039710Y0312063D01*
X0039792Y0312193D01*
X0039876Y0312321D01*
X0039964Y0312447D01*
X0040055Y0312570D01*
X0040149Y0312691D01*
X0040247Y0312809D01*
X0040347Y0312925D01*
X0040451Y0313038D01*
X0040557Y0313149D01*
X0040666Y0313257D01*
X0040778Y0313362D01*
X0040892Y0313463D01*
X0041010Y0313562D01*
X0041129Y0313658D01*
X0041251Y0313751D01*
X0041376Y0313840D01*
X0041503Y0313927D01*
X0041632Y0314009D01*
X0041763Y0314089D01*
X0041896Y0314165D01*
X0042031Y0314238D01*
X0042168Y0314307D01*
X0042307Y0314372D01*
X0042447Y0314434D01*
X0042589Y0314492D01*
X0042732Y0314547D01*
X0042877Y0314598D01*
X0043023Y0314645D01*
X0043170Y0314688D01*
X0043318Y0314727D01*
X0043467Y0314763D01*
X0043617Y0314794D01*
X0043768Y0314822D01*
X0043919Y0314846D01*
X0044072Y0314866D01*
X0044224Y0314882D01*
X0044377Y0314894D01*
X0044530Y0314902D01*
X0044683Y0314906D01*
X0044837Y0314906D01*
X0044990Y0314902D01*
X0045143Y0314894D01*
X0045296Y0314882D01*
X0045448Y0314866D01*
X0045601Y0314846D01*
X0045752Y0314822D01*
X0045903Y0314794D01*
X0046053Y0314763D01*
X0046202Y0314727D01*
X0046350Y0314688D01*
X0046497Y0314645D01*
X0046643Y0314598D01*
X0046788Y0314547D01*
X0046931Y0314492D01*
X0047073Y0314434D01*
X0047213Y0314372D01*
X0047352Y0314307D01*
X0047489Y0314238D01*
X0047624Y0314165D01*
X0047757Y0314089D01*
X0047888Y0314009D01*
X0048017Y0313927D01*
X0048144Y0313840D01*
X0048269Y0313751D01*
X0048391Y0313658D01*
X0048510Y0313562D01*
X0048628Y0313463D01*
X0048742Y0313362D01*
X0048854Y0313257D01*
X0048963Y0313149D01*
X0049069Y0313038D01*
X0049173Y0312925D01*
X0049273Y0312809D01*
X0049371Y0312691D01*
X0049465Y0312570D01*
X0049556Y0312447D01*
X0049644Y0312321D01*
X0049728Y0312193D01*
X0049810Y0312063D01*
X0049887Y0311931D01*
X0049962Y0311797D01*
X0050033Y0311661D01*
X0050100Y0311523D01*
X0050164Y0311383D01*
X0050224Y0311242D01*
X0050280Y0311100D01*
X0050333Y0310956D01*
X0050382Y0310810D01*
X0050427Y0310664D01*
X0050468Y0310516D01*
X0050505Y0310368D01*
X0050539Y0310218D01*
X0050569Y0310067D01*
X0050594Y0309916D01*
X0050616Y0309765D01*
X0050634Y0309612D01*
X0050648Y0309460D01*
X0050658Y0309307D01*
X0050664Y0309153D01*
X0050666Y0309000D01*
X0050664Y0308847D01*
X0050658Y0308693D01*
X0050648Y0308540D01*
X0050634Y0308388D01*
X0050616Y0308235D01*
X0050594Y0308084D01*
X0050569Y0307933D01*
X0050539Y0307782D01*
X0050505Y0307632D01*
X0050468Y0307484D01*
X0050427Y0307336D01*
X0050382Y0307190D01*
X0050333Y0307044D01*
X0050280Y0306900D01*
X0050224Y0306758D01*
X0050164Y0306617D01*
X0050100Y0306477D01*
X0050033Y0306339D01*
X0049962Y0306203D01*
X0049887Y0306069D01*
X0049810Y0305937D01*
X0049728Y0305807D01*
X0049644Y0305679D01*
X0049556Y0305553D01*
X0049465Y0305430D01*
X0049371Y0305309D01*
X0049273Y0305191D01*
X0049173Y0305075D01*
X0049069Y0304962D01*
X0048963Y0304851D01*
X0048854Y0304743D01*
X0048742Y0304638D01*
X0048628Y0304537D01*
X0048510Y0304438D01*
X0048391Y0304342D01*
X0048269Y0304249D01*
X0048144Y0304160D01*
X0048017Y0304073D01*
X0047888Y0303991D01*
X0047757Y0303911D01*
X0047624Y0303835D01*
X0047489Y0303762D01*
X0047352Y0303693D01*
X0047213Y0303628D01*
X0047073Y0303566D01*
X0046931Y0303508D01*
X0046788Y0303453D01*
X0046643Y0303402D01*
X0046497Y0303355D01*
X0046350Y0303312D01*
X0046202Y0303273D01*
X0046053Y0303237D01*
X0045903Y0303206D01*
X0045752Y0303178D01*
X0045601Y0303154D01*
X0045448Y0303134D01*
X0045296Y0303118D01*
X0045143Y0303106D01*
X0044990Y0303098D01*
X0044837Y0303094D01*
X0044683Y0303094D01*
X0044530Y0303098D01*
X0044377Y0303106D01*
X0044224Y0303118D01*
X0044072Y0303134D01*
X0043919Y0303154D01*
X0043768Y0303178D01*
X0043617Y0303206D01*
X0043467Y0303237D01*
X0043318Y0303273D01*
X0043170Y0303312D01*
X0043023Y0303355D01*
X0042877Y0303402D01*
X0042732Y0303453D01*
X0042589Y0303508D01*
X0042447Y0303566D01*
X0042307Y0303628D01*
X0042168Y0303693D01*
X0042031Y0303762D01*
X0041896Y0303835D01*
X0041763Y0303911D01*
X0041632Y0303991D01*
X0041503Y0304073D01*
X0041376Y0304160D01*
X0041251Y0304249D01*
X0041129Y0304342D01*
X0041010Y0304438D01*
X0040892Y0304537D01*
X0040778Y0304638D01*
X0040666Y0304743D01*
X0040557Y0304851D01*
X0040451Y0304962D01*
X0040347Y0305075D01*
X0040247Y0305191D01*
X0040149Y0305309D01*
X0040055Y0305430D01*
X0039964Y0305553D01*
X0039876Y0305679D01*
X0039792Y0305807D01*
X0039710Y0305937D01*
X0039633Y0306069D01*
X0039558Y0306203D01*
X0039487Y0306339D01*
X0039420Y0306477D01*
X0039356Y0306617D01*
X0039296Y0306758D01*
X0039240Y0306900D01*
X0039187Y0307044D01*
X0039138Y0307190D01*
X0039093Y0307336D01*
X0039052Y0307484D01*
X0039015Y0307632D01*
X0038981Y0307782D01*
X0038951Y0307933D01*
X0038926Y0308084D01*
X0038904Y0308235D01*
X0038886Y0308388D01*
X0038872Y0308540D01*
X0038862Y0308693D01*
X0038856Y0308847D01*
X0038854Y0309000D01*
X0007075Y0392500D02*
X0007077Y0392660D01*
X0007083Y0392820D01*
X0007093Y0392980D01*
X0007107Y0393140D01*
X0007125Y0393299D01*
X0007147Y0393458D01*
X0007173Y0393616D01*
X0007202Y0393773D01*
X0007236Y0393930D01*
X0007274Y0394085D01*
X0007315Y0394240D01*
X0007360Y0394394D01*
X0007410Y0394546D01*
X0007462Y0394697D01*
X0007519Y0394847D01*
X0007580Y0394996D01*
X0007644Y0395143D01*
X0007711Y0395288D01*
X0007783Y0395431D01*
X0007857Y0395573D01*
X0007936Y0395713D01*
X0008018Y0395850D01*
X0008103Y0395986D01*
X0008191Y0396119D01*
X0008283Y0396251D01*
X0008378Y0396379D01*
X0008477Y0396506D01*
X0008578Y0396630D01*
X0008683Y0396751D01*
X0008790Y0396870D01*
X0008901Y0396986D01*
X0009014Y0397099D01*
X0009130Y0397210D01*
X0009249Y0397317D01*
X0009370Y0397422D01*
X0009494Y0397523D01*
X0009621Y0397622D01*
X0009749Y0397717D01*
X0009881Y0397809D01*
X0010014Y0397897D01*
X0010150Y0397982D01*
X0010288Y0398064D01*
X0010427Y0398143D01*
X0010569Y0398217D01*
X0010712Y0398289D01*
X0010857Y0398356D01*
X0011004Y0398420D01*
X0011153Y0398481D01*
X0011303Y0398538D01*
X0011454Y0398590D01*
X0011606Y0398640D01*
X0011760Y0398685D01*
X0011915Y0398726D01*
X0012070Y0398764D01*
X0012227Y0398798D01*
X0012384Y0398827D01*
X0012542Y0398853D01*
X0012701Y0398875D01*
X0012860Y0398893D01*
X0013020Y0398907D01*
X0013180Y0398917D01*
X0013340Y0398923D01*
X0013500Y0398925D01*
X0013660Y0398923D01*
X0013820Y0398917D01*
X0013980Y0398907D01*
X0014140Y0398893D01*
X0014299Y0398875D01*
X0014458Y0398853D01*
X0014616Y0398827D01*
X0014773Y0398798D01*
X0014930Y0398764D01*
X0015085Y0398726D01*
X0015240Y0398685D01*
X0015394Y0398640D01*
X0015546Y0398590D01*
X0015697Y0398538D01*
X0015847Y0398481D01*
X0015996Y0398420D01*
X0016143Y0398356D01*
X0016288Y0398289D01*
X0016431Y0398217D01*
X0016573Y0398143D01*
X0016713Y0398064D01*
X0016850Y0397982D01*
X0016986Y0397897D01*
X0017119Y0397809D01*
X0017251Y0397717D01*
X0017379Y0397622D01*
X0017506Y0397523D01*
X0017630Y0397422D01*
X0017751Y0397317D01*
X0017870Y0397210D01*
X0017986Y0397099D01*
X0018099Y0396986D01*
X0018210Y0396870D01*
X0018317Y0396751D01*
X0018422Y0396630D01*
X0018523Y0396506D01*
X0018622Y0396379D01*
X0018717Y0396251D01*
X0018809Y0396119D01*
X0018897Y0395986D01*
X0018982Y0395850D01*
X0019064Y0395712D01*
X0019143Y0395573D01*
X0019217Y0395431D01*
X0019289Y0395288D01*
X0019356Y0395143D01*
X0019420Y0394996D01*
X0019481Y0394847D01*
X0019538Y0394697D01*
X0019590Y0394546D01*
X0019640Y0394394D01*
X0019685Y0394240D01*
X0019726Y0394085D01*
X0019764Y0393930D01*
X0019798Y0393773D01*
X0019827Y0393616D01*
X0019853Y0393458D01*
X0019875Y0393299D01*
X0019893Y0393140D01*
X0019907Y0392980D01*
X0019917Y0392820D01*
X0019923Y0392660D01*
X0019925Y0392500D01*
X0019923Y0392340D01*
X0019917Y0392180D01*
X0019907Y0392020D01*
X0019893Y0391860D01*
X0019875Y0391701D01*
X0019853Y0391542D01*
X0019827Y0391384D01*
X0019798Y0391227D01*
X0019764Y0391070D01*
X0019726Y0390915D01*
X0019685Y0390760D01*
X0019640Y0390606D01*
X0019590Y0390454D01*
X0019538Y0390303D01*
X0019481Y0390153D01*
X0019420Y0390004D01*
X0019356Y0389857D01*
X0019289Y0389712D01*
X0019217Y0389569D01*
X0019143Y0389427D01*
X0019064Y0389287D01*
X0018982Y0389150D01*
X0018897Y0389014D01*
X0018809Y0388881D01*
X0018717Y0388749D01*
X0018622Y0388621D01*
X0018523Y0388494D01*
X0018422Y0388370D01*
X0018317Y0388249D01*
X0018210Y0388130D01*
X0018099Y0388014D01*
X0017986Y0387901D01*
X0017870Y0387790D01*
X0017751Y0387683D01*
X0017630Y0387578D01*
X0017506Y0387477D01*
X0017379Y0387378D01*
X0017251Y0387283D01*
X0017119Y0387191D01*
X0016986Y0387103D01*
X0016850Y0387018D01*
X0016712Y0386936D01*
X0016573Y0386857D01*
X0016431Y0386783D01*
X0016288Y0386711D01*
X0016143Y0386644D01*
X0015996Y0386580D01*
X0015847Y0386519D01*
X0015697Y0386462D01*
X0015546Y0386410D01*
X0015394Y0386360D01*
X0015240Y0386315D01*
X0015085Y0386274D01*
X0014930Y0386236D01*
X0014773Y0386202D01*
X0014616Y0386173D01*
X0014458Y0386147D01*
X0014299Y0386125D01*
X0014140Y0386107D01*
X0013980Y0386093D01*
X0013820Y0386083D01*
X0013660Y0386077D01*
X0013500Y0386075D01*
X0013340Y0386077D01*
X0013180Y0386083D01*
X0013020Y0386093D01*
X0012860Y0386107D01*
X0012701Y0386125D01*
X0012542Y0386147D01*
X0012384Y0386173D01*
X0012227Y0386202D01*
X0012070Y0386236D01*
X0011915Y0386274D01*
X0011760Y0386315D01*
X0011606Y0386360D01*
X0011454Y0386410D01*
X0011303Y0386462D01*
X0011153Y0386519D01*
X0011004Y0386580D01*
X0010857Y0386644D01*
X0010712Y0386711D01*
X0010569Y0386783D01*
X0010427Y0386857D01*
X0010287Y0386936D01*
X0010150Y0387018D01*
X0010014Y0387103D01*
X0009881Y0387191D01*
X0009749Y0387283D01*
X0009621Y0387378D01*
X0009494Y0387477D01*
X0009370Y0387578D01*
X0009249Y0387683D01*
X0009130Y0387790D01*
X0009014Y0387901D01*
X0008901Y0388014D01*
X0008790Y0388130D01*
X0008683Y0388249D01*
X0008578Y0388370D01*
X0008477Y0388494D01*
X0008378Y0388621D01*
X0008283Y0388749D01*
X0008191Y0388881D01*
X0008103Y0389014D01*
X0008018Y0389150D01*
X0007936Y0389288D01*
X0007857Y0389427D01*
X0007783Y0389569D01*
X0007711Y0389712D01*
X0007644Y0389857D01*
X0007580Y0390004D01*
X0007519Y0390153D01*
X0007462Y0390303D01*
X0007410Y0390454D01*
X0007360Y0390606D01*
X0007315Y0390760D01*
X0007274Y0390915D01*
X0007236Y0391070D01*
X0007202Y0391227D01*
X0007173Y0391384D01*
X0007147Y0391542D01*
X0007125Y0391701D01*
X0007107Y0391860D01*
X0007093Y0392020D01*
X0007083Y0392180D01*
X0007077Y0392340D01*
X0007075Y0392500D01*
X0346334Y0246500D02*
X0346336Y0246653D01*
X0346342Y0246807D01*
X0346352Y0246960D01*
X0346366Y0247112D01*
X0346384Y0247265D01*
X0346406Y0247416D01*
X0346431Y0247567D01*
X0346461Y0247718D01*
X0346495Y0247868D01*
X0346532Y0248016D01*
X0346573Y0248164D01*
X0346618Y0248310D01*
X0346667Y0248456D01*
X0346720Y0248600D01*
X0346776Y0248742D01*
X0346836Y0248883D01*
X0346900Y0249023D01*
X0346967Y0249161D01*
X0347038Y0249297D01*
X0347113Y0249431D01*
X0347190Y0249563D01*
X0347272Y0249693D01*
X0347356Y0249821D01*
X0347444Y0249947D01*
X0347535Y0250070D01*
X0347629Y0250191D01*
X0347727Y0250309D01*
X0347827Y0250425D01*
X0347931Y0250538D01*
X0348037Y0250649D01*
X0348146Y0250757D01*
X0348258Y0250862D01*
X0348372Y0250963D01*
X0348490Y0251062D01*
X0348609Y0251158D01*
X0348731Y0251251D01*
X0348856Y0251340D01*
X0348983Y0251427D01*
X0349112Y0251509D01*
X0349243Y0251589D01*
X0349376Y0251665D01*
X0349511Y0251738D01*
X0349648Y0251807D01*
X0349787Y0251872D01*
X0349927Y0251934D01*
X0350069Y0251992D01*
X0350212Y0252047D01*
X0350357Y0252098D01*
X0350503Y0252145D01*
X0350650Y0252188D01*
X0350798Y0252227D01*
X0350947Y0252263D01*
X0351097Y0252294D01*
X0351248Y0252322D01*
X0351399Y0252346D01*
X0351552Y0252366D01*
X0351704Y0252382D01*
X0351857Y0252394D01*
X0352010Y0252402D01*
X0352163Y0252406D01*
X0352317Y0252406D01*
X0352470Y0252402D01*
X0352623Y0252394D01*
X0352776Y0252382D01*
X0352928Y0252366D01*
X0353081Y0252346D01*
X0353232Y0252322D01*
X0353383Y0252294D01*
X0353533Y0252263D01*
X0353682Y0252227D01*
X0353830Y0252188D01*
X0353977Y0252145D01*
X0354123Y0252098D01*
X0354268Y0252047D01*
X0354411Y0251992D01*
X0354553Y0251934D01*
X0354693Y0251872D01*
X0354832Y0251807D01*
X0354969Y0251738D01*
X0355104Y0251665D01*
X0355237Y0251589D01*
X0355368Y0251509D01*
X0355497Y0251427D01*
X0355624Y0251340D01*
X0355749Y0251251D01*
X0355871Y0251158D01*
X0355990Y0251062D01*
X0356108Y0250963D01*
X0356222Y0250862D01*
X0356334Y0250757D01*
X0356443Y0250649D01*
X0356549Y0250538D01*
X0356653Y0250425D01*
X0356753Y0250309D01*
X0356851Y0250191D01*
X0356945Y0250070D01*
X0357036Y0249947D01*
X0357124Y0249821D01*
X0357208Y0249693D01*
X0357290Y0249563D01*
X0357367Y0249431D01*
X0357442Y0249297D01*
X0357513Y0249161D01*
X0357580Y0249023D01*
X0357644Y0248883D01*
X0357704Y0248742D01*
X0357760Y0248600D01*
X0357813Y0248456D01*
X0357862Y0248310D01*
X0357907Y0248164D01*
X0357948Y0248016D01*
X0357985Y0247868D01*
X0358019Y0247718D01*
X0358049Y0247567D01*
X0358074Y0247416D01*
X0358096Y0247265D01*
X0358114Y0247112D01*
X0358128Y0246960D01*
X0358138Y0246807D01*
X0358144Y0246653D01*
X0358146Y0246500D01*
X0358144Y0246347D01*
X0358138Y0246193D01*
X0358128Y0246040D01*
X0358114Y0245888D01*
X0358096Y0245735D01*
X0358074Y0245584D01*
X0358049Y0245433D01*
X0358019Y0245282D01*
X0357985Y0245132D01*
X0357948Y0244984D01*
X0357907Y0244836D01*
X0357862Y0244690D01*
X0357813Y0244544D01*
X0357760Y0244400D01*
X0357704Y0244258D01*
X0357644Y0244117D01*
X0357580Y0243977D01*
X0357513Y0243839D01*
X0357442Y0243703D01*
X0357367Y0243569D01*
X0357290Y0243437D01*
X0357208Y0243307D01*
X0357124Y0243179D01*
X0357036Y0243053D01*
X0356945Y0242930D01*
X0356851Y0242809D01*
X0356753Y0242691D01*
X0356653Y0242575D01*
X0356549Y0242462D01*
X0356443Y0242351D01*
X0356334Y0242243D01*
X0356222Y0242138D01*
X0356108Y0242037D01*
X0355990Y0241938D01*
X0355871Y0241842D01*
X0355749Y0241749D01*
X0355624Y0241660D01*
X0355497Y0241573D01*
X0355368Y0241491D01*
X0355237Y0241411D01*
X0355104Y0241335D01*
X0354969Y0241262D01*
X0354832Y0241193D01*
X0354693Y0241128D01*
X0354553Y0241066D01*
X0354411Y0241008D01*
X0354268Y0240953D01*
X0354123Y0240902D01*
X0353977Y0240855D01*
X0353830Y0240812D01*
X0353682Y0240773D01*
X0353533Y0240737D01*
X0353383Y0240706D01*
X0353232Y0240678D01*
X0353081Y0240654D01*
X0352928Y0240634D01*
X0352776Y0240618D01*
X0352623Y0240606D01*
X0352470Y0240598D01*
X0352317Y0240594D01*
X0352163Y0240594D01*
X0352010Y0240598D01*
X0351857Y0240606D01*
X0351704Y0240618D01*
X0351552Y0240634D01*
X0351399Y0240654D01*
X0351248Y0240678D01*
X0351097Y0240706D01*
X0350947Y0240737D01*
X0350798Y0240773D01*
X0350650Y0240812D01*
X0350503Y0240855D01*
X0350357Y0240902D01*
X0350212Y0240953D01*
X0350069Y0241008D01*
X0349927Y0241066D01*
X0349787Y0241128D01*
X0349648Y0241193D01*
X0349511Y0241262D01*
X0349376Y0241335D01*
X0349243Y0241411D01*
X0349112Y0241491D01*
X0348983Y0241573D01*
X0348856Y0241660D01*
X0348731Y0241749D01*
X0348609Y0241842D01*
X0348490Y0241938D01*
X0348372Y0242037D01*
X0348258Y0242138D01*
X0348146Y0242243D01*
X0348037Y0242351D01*
X0347931Y0242462D01*
X0347827Y0242575D01*
X0347727Y0242691D01*
X0347629Y0242809D01*
X0347535Y0242930D01*
X0347444Y0243053D01*
X0347356Y0243179D01*
X0347272Y0243307D01*
X0347190Y0243437D01*
X0347113Y0243569D01*
X0347038Y0243703D01*
X0346967Y0243839D01*
X0346900Y0243977D01*
X0346836Y0244117D01*
X0346776Y0244258D01*
X0346720Y0244400D01*
X0346667Y0244544D01*
X0346618Y0244690D01*
X0346573Y0244836D01*
X0346532Y0244984D01*
X0346495Y0245132D01*
X0346461Y0245282D01*
X0346431Y0245433D01*
X0346406Y0245584D01*
X0346384Y0245735D01*
X0346366Y0245888D01*
X0346352Y0246040D01*
X0346342Y0246193D01*
X0346336Y0246347D01*
X0346334Y0246500D01*
X0346334Y0213500D02*
X0346336Y0213653D01*
X0346342Y0213807D01*
X0346352Y0213960D01*
X0346366Y0214112D01*
X0346384Y0214265D01*
X0346406Y0214416D01*
X0346431Y0214567D01*
X0346461Y0214718D01*
X0346495Y0214868D01*
X0346532Y0215016D01*
X0346573Y0215164D01*
X0346618Y0215310D01*
X0346667Y0215456D01*
X0346720Y0215600D01*
X0346776Y0215742D01*
X0346836Y0215883D01*
X0346900Y0216023D01*
X0346967Y0216161D01*
X0347038Y0216297D01*
X0347113Y0216431D01*
X0347190Y0216563D01*
X0347272Y0216693D01*
X0347356Y0216821D01*
X0347444Y0216947D01*
X0347535Y0217070D01*
X0347629Y0217191D01*
X0347727Y0217309D01*
X0347827Y0217425D01*
X0347931Y0217538D01*
X0348037Y0217649D01*
X0348146Y0217757D01*
X0348258Y0217862D01*
X0348372Y0217963D01*
X0348490Y0218062D01*
X0348609Y0218158D01*
X0348731Y0218251D01*
X0348856Y0218340D01*
X0348983Y0218427D01*
X0349112Y0218509D01*
X0349243Y0218589D01*
X0349376Y0218665D01*
X0349511Y0218738D01*
X0349648Y0218807D01*
X0349787Y0218872D01*
X0349927Y0218934D01*
X0350069Y0218992D01*
X0350212Y0219047D01*
X0350357Y0219098D01*
X0350503Y0219145D01*
X0350650Y0219188D01*
X0350798Y0219227D01*
X0350947Y0219263D01*
X0351097Y0219294D01*
X0351248Y0219322D01*
X0351399Y0219346D01*
X0351552Y0219366D01*
X0351704Y0219382D01*
X0351857Y0219394D01*
X0352010Y0219402D01*
X0352163Y0219406D01*
X0352317Y0219406D01*
X0352470Y0219402D01*
X0352623Y0219394D01*
X0352776Y0219382D01*
X0352928Y0219366D01*
X0353081Y0219346D01*
X0353232Y0219322D01*
X0353383Y0219294D01*
X0353533Y0219263D01*
X0353682Y0219227D01*
X0353830Y0219188D01*
X0353977Y0219145D01*
X0354123Y0219098D01*
X0354268Y0219047D01*
X0354411Y0218992D01*
X0354553Y0218934D01*
X0354693Y0218872D01*
X0354832Y0218807D01*
X0354969Y0218738D01*
X0355104Y0218665D01*
X0355237Y0218589D01*
X0355368Y0218509D01*
X0355497Y0218427D01*
X0355624Y0218340D01*
X0355749Y0218251D01*
X0355871Y0218158D01*
X0355990Y0218062D01*
X0356108Y0217963D01*
X0356222Y0217862D01*
X0356334Y0217757D01*
X0356443Y0217649D01*
X0356549Y0217538D01*
X0356653Y0217425D01*
X0356753Y0217309D01*
X0356851Y0217191D01*
X0356945Y0217070D01*
X0357036Y0216947D01*
X0357124Y0216821D01*
X0357208Y0216693D01*
X0357290Y0216563D01*
X0357367Y0216431D01*
X0357442Y0216297D01*
X0357513Y0216161D01*
X0357580Y0216023D01*
X0357644Y0215883D01*
X0357704Y0215742D01*
X0357760Y0215600D01*
X0357813Y0215456D01*
X0357862Y0215310D01*
X0357907Y0215164D01*
X0357948Y0215016D01*
X0357985Y0214868D01*
X0358019Y0214718D01*
X0358049Y0214567D01*
X0358074Y0214416D01*
X0358096Y0214265D01*
X0358114Y0214112D01*
X0358128Y0213960D01*
X0358138Y0213807D01*
X0358144Y0213653D01*
X0358146Y0213500D01*
X0358144Y0213347D01*
X0358138Y0213193D01*
X0358128Y0213040D01*
X0358114Y0212888D01*
X0358096Y0212735D01*
X0358074Y0212584D01*
X0358049Y0212433D01*
X0358019Y0212282D01*
X0357985Y0212132D01*
X0357948Y0211984D01*
X0357907Y0211836D01*
X0357862Y0211690D01*
X0357813Y0211544D01*
X0357760Y0211400D01*
X0357704Y0211258D01*
X0357644Y0211117D01*
X0357580Y0210977D01*
X0357513Y0210839D01*
X0357442Y0210703D01*
X0357367Y0210569D01*
X0357290Y0210437D01*
X0357208Y0210307D01*
X0357124Y0210179D01*
X0357036Y0210053D01*
X0356945Y0209930D01*
X0356851Y0209809D01*
X0356753Y0209691D01*
X0356653Y0209575D01*
X0356549Y0209462D01*
X0356443Y0209351D01*
X0356334Y0209243D01*
X0356222Y0209138D01*
X0356108Y0209037D01*
X0355990Y0208938D01*
X0355871Y0208842D01*
X0355749Y0208749D01*
X0355624Y0208660D01*
X0355497Y0208573D01*
X0355368Y0208491D01*
X0355237Y0208411D01*
X0355104Y0208335D01*
X0354969Y0208262D01*
X0354832Y0208193D01*
X0354693Y0208128D01*
X0354553Y0208066D01*
X0354411Y0208008D01*
X0354268Y0207953D01*
X0354123Y0207902D01*
X0353977Y0207855D01*
X0353830Y0207812D01*
X0353682Y0207773D01*
X0353533Y0207737D01*
X0353383Y0207706D01*
X0353232Y0207678D01*
X0353081Y0207654D01*
X0352928Y0207634D01*
X0352776Y0207618D01*
X0352623Y0207606D01*
X0352470Y0207598D01*
X0352317Y0207594D01*
X0352163Y0207594D01*
X0352010Y0207598D01*
X0351857Y0207606D01*
X0351704Y0207618D01*
X0351552Y0207634D01*
X0351399Y0207654D01*
X0351248Y0207678D01*
X0351097Y0207706D01*
X0350947Y0207737D01*
X0350798Y0207773D01*
X0350650Y0207812D01*
X0350503Y0207855D01*
X0350357Y0207902D01*
X0350212Y0207953D01*
X0350069Y0208008D01*
X0349927Y0208066D01*
X0349787Y0208128D01*
X0349648Y0208193D01*
X0349511Y0208262D01*
X0349376Y0208335D01*
X0349243Y0208411D01*
X0349112Y0208491D01*
X0348983Y0208573D01*
X0348856Y0208660D01*
X0348731Y0208749D01*
X0348609Y0208842D01*
X0348490Y0208938D01*
X0348372Y0209037D01*
X0348258Y0209138D01*
X0348146Y0209243D01*
X0348037Y0209351D01*
X0347931Y0209462D01*
X0347827Y0209575D01*
X0347727Y0209691D01*
X0347629Y0209809D01*
X0347535Y0209930D01*
X0347444Y0210053D01*
X0347356Y0210179D01*
X0347272Y0210307D01*
X0347190Y0210437D01*
X0347113Y0210569D01*
X0347038Y0210703D01*
X0346967Y0210839D01*
X0346900Y0210977D01*
X0346836Y0211117D01*
X0346776Y0211258D01*
X0346720Y0211400D01*
X0346667Y0211544D01*
X0346618Y0211690D01*
X0346573Y0211836D01*
X0346532Y0211984D01*
X0346495Y0212132D01*
X0346461Y0212282D01*
X0346431Y0212433D01*
X0346406Y0212584D01*
X0346384Y0212735D01*
X0346366Y0212888D01*
X0346352Y0213040D01*
X0346342Y0213193D01*
X0346336Y0213347D01*
X0346334Y0213500D01*
X0382075Y0392500D02*
X0382077Y0392660D01*
X0382083Y0392820D01*
X0382093Y0392980D01*
X0382107Y0393140D01*
X0382125Y0393299D01*
X0382147Y0393458D01*
X0382173Y0393616D01*
X0382202Y0393773D01*
X0382236Y0393930D01*
X0382274Y0394085D01*
X0382315Y0394240D01*
X0382360Y0394394D01*
X0382410Y0394546D01*
X0382462Y0394697D01*
X0382519Y0394847D01*
X0382580Y0394996D01*
X0382644Y0395143D01*
X0382711Y0395288D01*
X0382783Y0395431D01*
X0382857Y0395573D01*
X0382936Y0395713D01*
X0383018Y0395850D01*
X0383103Y0395986D01*
X0383191Y0396119D01*
X0383283Y0396251D01*
X0383378Y0396379D01*
X0383477Y0396506D01*
X0383578Y0396630D01*
X0383683Y0396751D01*
X0383790Y0396870D01*
X0383901Y0396986D01*
X0384014Y0397099D01*
X0384130Y0397210D01*
X0384249Y0397317D01*
X0384370Y0397422D01*
X0384494Y0397523D01*
X0384621Y0397622D01*
X0384749Y0397717D01*
X0384881Y0397809D01*
X0385014Y0397897D01*
X0385150Y0397982D01*
X0385288Y0398064D01*
X0385427Y0398143D01*
X0385569Y0398217D01*
X0385712Y0398289D01*
X0385857Y0398356D01*
X0386004Y0398420D01*
X0386153Y0398481D01*
X0386303Y0398538D01*
X0386454Y0398590D01*
X0386606Y0398640D01*
X0386760Y0398685D01*
X0386915Y0398726D01*
X0387070Y0398764D01*
X0387227Y0398798D01*
X0387384Y0398827D01*
X0387542Y0398853D01*
X0387701Y0398875D01*
X0387860Y0398893D01*
X0388020Y0398907D01*
X0388180Y0398917D01*
X0388340Y0398923D01*
X0388500Y0398925D01*
X0388660Y0398923D01*
X0388820Y0398917D01*
X0388980Y0398907D01*
X0389140Y0398893D01*
X0389299Y0398875D01*
X0389458Y0398853D01*
X0389616Y0398827D01*
X0389773Y0398798D01*
X0389930Y0398764D01*
X0390085Y0398726D01*
X0390240Y0398685D01*
X0390394Y0398640D01*
X0390546Y0398590D01*
X0390697Y0398538D01*
X0390847Y0398481D01*
X0390996Y0398420D01*
X0391143Y0398356D01*
X0391288Y0398289D01*
X0391431Y0398217D01*
X0391573Y0398143D01*
X0391713Y0398064D01*
X0391850Y0397982D01*
X0391986Y0397897D01*
X0392119Y0397809D01*
X0392251Y0397717D01*
X0392379Y0397622D01*
X0392506Y0397523D01*
X0392630Y0397422D01*
X0392751Y0397317D01*
X0392870Y0397210D01*
X0392986Y0397099D01*
X0393099Y0396986D01*
X0393210Y0396870D01*
X0393317Y0396751D01*
X0393422Y0396630D01*
X0393523Y0396506D01*
X0393622Y0396379D01*
X0393717Y0396251D01*
X0393809Y0396119D01*
X0393897Y0395986D01*
X0393982Y0395850D01*
X0394064Y0395712D01*
X0394143Y0395573D01*
X0394217Y0395431D01*
X0394289Y0395288D01*
X0394356Y0395143D01*
X0394420Y0394996D01*
X0394481Y0394847D01*
X0394538Y0394697D01*
X0394590Y0394546D01*
X0394640Y0394394D01*
X0394685Y0394240D01*
X0394726Y0394085D01*
X0394764Y0393930D01*
X0394798Y0393773D01*
X0394827Y0393616D01*
X0394853Y0393458D01*
X0394875Y0393299D01*
X0394893Y0393140D01*
X0394907Y0392980D01*
X0394917Y0392820D01*
X0394923Y0392660D01*
X0394925Y0392500D01*
X0394923Y0392340D01*
X0394917Y0392180D01*
X0394907Y0392020D01*
X0394893Y0391860D01*
X0394875Y0391701D01*
X0394853Y0391542D01*
X0394827Y0391384D01*
X0394798Y0391227D01*
X0394764Y0391070D01*
X0394726Y0390915D01*
X0394685Y0390760D01*
X0394640Y0390606D01*
X0394590Y0390454D01*
X0394538Y0390303D01*
X0394481Y0390153D01*
X0394420Y0390004D01*
X0394356Y0389857D01*
X0394289Y0389712D01*
X0394217Y0389569D01*
X0394143Y0389427D01*
X0394064Y0389287D01*
X0393982Y0389150D01*
X0393897Y0389014D01*
X0393809Y0388881D01*
X0393717Y0388749D01*
X0393622Y0388621D01*
X0393523Y0388494D01*
X0393422Y0388370D01*
X0393317Y0388249D01*
X0393210Y0388130D01*
X0393099Y0388014D01*
X0392986Y0387901D01*
X0392870Y0387790D01*
X0392751Y0387683D01*
X0392630Y0387578D01*
X0392506Y0387477D01*
X0392379Y0387378D01*
X0392251Y0387283D01*
X0392119Y0387191D01*
X0391986Y0387103D01*
X0391850Y0387018D01*
X0391712Y0386936D01*
X0391573Y0386857D01*
X0391431Y0386783D01*
X0391288Y0386711D01*
X0391143Y0386644D01*
X0390996Y0386580D01*
X0390847Y0386519D01*
X0390697Y0386462D01*
X0390546Y0386410D01*
X0390394Y0386360D01*
X0390240Y0386315D01*
X0390085Y0386274D01*
X0389930Y0386236D01*
X0389773Y0386202D01*
X0389616Y0386173D01*
X0389458Y0386147D01*
X0389299Y0386125D01*
X0389140Y0386107D01*
X0388980Y0386093D01*
X0388820Y0386083D01*
X0388660Y0386077D01*
X0388500Y0386075D01*
X0388340Y0386077D01*
X0388180Y0386083D01*
X0388020Y0386093D01*
X0387860Y0386107D01*
X0387701Y0386125D01*
X0387542Y0386147D01*
X0387384Y0386173D01*
X0387227Y0386202D01*
X0387070Y0386236D01*
X0386915Y0386274D01*
X0386760Y0386315D01*
X0386606Y0386360D01*
X0386454Y0386410D01*
X0386303Y0386462D01*
X0386153Y0386519D01*
X0386004Y0386580D01*
X0385857Y0386644D01*
X0385712Y0386711D01*
X0385569Y0386783D01*
X0385427Y0386857D01*
X0385287Y0386936D01*
X0385150Y0387018D01*
X0385014Y0387103D01*
X0384881Y0387191D01*
X0384749Y0387283D01*
X0384621Y0387378D01*
X0384494Y0387477D01*
X0384370Y0387578D01*
X0384249Y0387683D01*
X0384130Y0387790D01*
X0384014Y0387901D01*
X0383901Y0388014D01*
X0383790Y0388130D01*
X0383683Y0388249D01*
X0383578Y0388370D01*
X0383477Y0388494D01*
X0383378Y0388621D01*
X0383283Y0388749D01*
X0383191Y0388881D01*
X0383103Y0389014D01*
X0383018Y0389150D01*
X0382936Y0389288D01*
X0382857Y0389427D01*
X0382783Y0389569D01*
X0382711Y0389712D01*
X0382644Y0389857D01*
X0382580Y0390004D01*
X0382519Y0390153D01*
X0382462Y0390303D01*
X0382410Y0390454D01*
X0382360Y0390606D01*
X0382315Y0390760D01*
X0382274Y0390915D01*
X0382236Y0391070D01*
X0382202Y0391227D01*
X0382173Y0391384D01*
X0382147Y0391542D01*
X0382125Y0391701D01*
X0382107Y0391860D01*
X0382093Y0392020D01*
X0382083Y0392180D01*
X0382077Y0392340D01*
X0382075Y0392500D01*
D11*
X0192240Y0277619D03*
X0188500Y0277619D03*
X0184760Y0277619D03*
X0184760Y0267381D03*
X0188500Y0267381D03*
X0192240Y0267381D03*
X0192240Y0137619D03*
X0188500Y0137619D03*
X0184760Y0137619D03*
X0184760Y0127381D03*
X0188500Y0127381D03*
X0192240Y0127381D03*
D12*
X0187000Y0192500D03*
X0208500Y0192500D03*
X0230000Y0192500D03*
X0230000Y0317500D03*
X0208500Y0317500D03*
X0187000Y0317500D03*
D13*
X0186750Y0017500D03*
X0176750Y0017500D03*
X0166750Y0017500D03*
X0156750Y0017500D03*
X0146750Y0017500D03*
X0136750Y0017500D03*
X0126750Y0017500D03*
X0116750Y0017500D03*
X0106750Y0017500D03*
X0096750Y0017500D03*
X0086750Y0017500D03*
X0076750Y0017500D03*
X0066750Y0017500D03*
X0196750Y0017500D03*
X0206750Y0017500D03*
X0216750Y0017500D03*
X0226750Y0017500D03*
X0236750Y0017500D03*
X0246750Y0017500D03*
X0256750Y0017500D03*
X0266750Y0017500D03*
X0276750Y0017500D03*
X0286750Y0017500D03*
X0296750Y0017500D03*
X0306750Y0017500D03*
X0316750Y0017500D03*
X0326750Y0017500D03*
X0336750Y0017500D03*
D14*
X0346750Y0005000D02*
X0056750Y0005000D01*
X0056750Y0035000D01*
X0347025Y0035000D02*
X0347025Y0005000D01*
D15*
X0323500Y0213500D03*
X0323500Y0230000D03*
X0301800Y0230000D03*
X0301800Y0213500D03*
X0301800Y0246500D03*
X0095200Y0276000D03*
X0095200Y0292500D03*
X0095200Y0309000D03*
X0073500Y0309000D03*
X0073500Y0292500D03*
X0073500Y0191500D03*
X0073500Y0175000D03*
X0095200Y0175000D03*
X0095200Y0158500D03*
X0095200Y0191500D03*
D16*
X0073500Y0158500D03*
X0073500Y0276000D03*
X0323500Y0246500D03*
D17*
X0328500Y0142500D03*
X0328500Y0117500D03*
X0298500Y0117500D03*
X0298500Y0142500D03*
X0169000Y0155000D03*
X0158000Y0155000D03*
X0123500Y0157500D03*
X0123500Y0127500D03*
X0123500Y0100000D03*
X0123500Y0070000D03*
X0123500Y0195000D03*
X0123500Y0225000D03*
X0123500Y0245000D03*
X0123500Y0275000D03*
D18*
X0188500Y0257500D03*
X0188500Y0120000D03*
D19*
X0188500Y0127381D01*
X0188500Y0190000D02*
X0187000Y0191500D01*
X0187000Y0192500D01*
X0188500Y0257500D02*
X0188500Y0267381D01*
D20*
X0208500Y0275000D02*
X0208500Y0242500D01*
X0156000Y0242500D01*
X0123500Y0275000D01*
X0122500Y0276000D01*
X0095200Y0276000D01*
X0095200Y0292500D01*
X0095200Y0309000D01*
X0123500Y0245000D02*
X0123500Y0225000D01*
X0095200Y0191500D02*
X0095200Y0175000D01*
X0095200Y0158500D01*
X0115000Y0158500D01*
X0123500Y0157500D01*
X0133500Y0157500D01*
X0183500Y0107500D01*
X0208500Y0107500D01*
X0208500Y0137500D01*
X0208500Y0192500D01*
X0230000Y0192500D02*
X0301000Y0192500D01*
X0301000Y0213500D01*
X0301800Y0213500D01*
X0301800Y0230000D01*
X0301800Y0246500D01*
X0301800Y0317500D01*
X0230000Y0317500D01*
X0208500Y0317500D02*
X0208500Y0275000D01*
X0298500Y0142500D02*
X0298500Y0117500D01*
X0123500Y0127500D02*
X0123500Y0100000D01*
D21*
X0171000Y0145000D02*
X0171000Y0155000D01*
X0169000Y0155000D01*
X0171000Y0155000D02*
X0171000Y0192500D01*
X0183500Y0205000D01*
X0221000Y0205000D01*
X0230000Y0196000D01*
X0230000Y0192500D01*
X0208500Y0137500D02*
X0193619Y0137619D01*
X0192240Y0137619D01*
X0184760Y0137619D02*
X0184760Y0127381D01*
X0178381Y0137619D02*
X0171000Y0145000D01*
X0184760Y0267381D02*
X0184760Y0277619D01*
X0171000Y0291378D01*
X0188500Y0277619D02*
X0188500Y0316000D01*
D22*
X0192240Y0277619D02*
X0208500Y0277619D01*
X0192359Y0277500D02*
X0192240Y0277619D01*
D23*
X0208500Y0277619D02*
X0208500Y0275000D01*
D24*
X0171000Y0291378D02*
X0171000Y0325000D01*
X0178500Y0332500D01*
X0228500Y0332500D01*
X0230000Y0331000D01*
X0230000Y0317500D01*
X0188500Y0316000D02*
X0187000Y0317500D01*
X0184760Y0137619D02*
X0184760Y0137500D01*
D25*
X0184760Y0137619D02*
X0178381Y0137619D01*
D26*
X0156626Y0116979D02*
X0135800Y0116979D01*
X0135800Y0123176D02*
X0136500Y0125789D01*
X0136500Y0129211D01*
X0135614Y0132518D01*
X0133903Y0135482D01*
X0131482Y0137903D01*
X0128518Y0139614D01*
X0125211Y0140500D01*
X0121789Y0140500D01*
X0118482Y0139614D01*
X0115518Y0137903D01*
X0113097Y0135482D01*
X0111386Y0132518D01*
X0110500Y0129211D01*
X0110500Y0125789D01*
X0111200Y0123176D01*
X0111200Y0104324D01*
X0110500Y0101711D01*
X0110500Y0098289D01*
X0111386Y0094982D01*
X0113097Y0092018D01*
X0115518Y0089597D01*
X0118482Y0087886D01*
X0121789Y0087000D01*
X0125211Y0087000D01*
X0128518Y0087886D01*
X0131482Y0089597D01*
X0133903Y0092018D01*
X0135614Y0094982D01*
X0136500Y0098289D01*
X0136500Y0101711D01*
X0135800Y0104324D01*
X0135800Y0123176D01*
X0136283Y0124978D02*
X0148627Y0124978D01*
X0140629Y0132976D02*
X0135349Y0132976D01*
X0132630Y0140975D02*
X0010000Y0140975D01*
X0010000Y0148973D02*
X0033207Y0148973D01*
X0032832Y0149348D02*
X0035608Y0146573D01*
X0039007Y0144610D01*
X0042797Y0143594D01*
X0046722Y0143594D01*
X0050513Y0144610D01*
X0053912Y0146573D01*
X0056687Y0149348D01*
X0058650Y0152747D01*
X0059500Y0155921D01*
X0059500Y0151710D01*
X0060870Y0148402D01*
X0063402Y0145870D01*
X0066710Y0144500D01*
X0080290Y0144500D01*
X0083598Y0145870D01*
X0085814Y0148087D01*
X0089401Y0144500D01*
X0100999Y0144500D01*
X0102699Y0146200D01*
X0114279Y0146200D01*
X0117787Y0145787D01*
X0118482Y0145386D01*
X0121789Y0144500D01*
X0125211Y0144500D01*
X0127824Y0145200D01*
X0128405Y0145200D01*
X0173658Y0099948D01*
X0175948Y0097658D01*
X0178752Y0096038D01*
X0181881Y0095200D01*
X0210119Y0095200D01*
X0213248Y0096038D01*
X0216052Y0097658D01*
X0218342Y0099948D01*
X0219962Y0102752D01*
X0220800Y0105881D01*
X0220800Y0178759D01*
X0223631Y0177124D01*
X0227828Y0176000D01*
X0232172Y0176000D01*
X0236369Y0177124D01*
X0240131Y0179297D01*
X0241035Y0180200D01*
X0302619Y0180200D01*
X0305748Y0181038D01*
X0308552Y0182658D01*
X0310842Y0184948D01*
X0312462Y0187752D01*
X0313300Y0190881D01*
X0313300Y0203901D01*
X0317701Y0199500D01*
X0329299Y0199500D01*
X0337500Y0207701D01*
X0337500Y0210921D01*
X0338350Y0207747D01*
X0340313Y0204348D01*
X0343088Y0201573D01*
X0346487Y0199610D01*
X0350278Y0198594D01*
X0354203Y0198594D01*
X0357993Y0199610D01*
X0361392Y0201573D01*
X0364168Y0204348D01*
X0366130Y0207747D01*
X0367146Y0211538D01*
X0367146Y0215462D01*
X0366130Y0219253D01*
X0364168Y0222652D01*
X0361392Y0225427D01*
X0357993Y0227390D01*
X0354203Y0228405D01*
X0350278Y0228405D01*
X0346487Y0227390D01*
X0343088Y0225427D01*
X0340313Y0222652D01*
X0338350Y0219253D01*
X0337500Y0216079D01*
X0337500Y0219299D01*
X0335049Y0221750D01*
X0337500Y0224201D01*
X0337500Y0235799D01*
X0336355Y0236944D01*
X0337500Y0239710D01*
X0337500Y0243921D01*
X0338350Y0240747D01*
X0340313Y0237348D01*
X0343088Y0234573D01*
X0346487Y0232610D01*
X0350278Y0231594D01*
X0354203Y0231594D01*
X0357993Y0232610D01*
X0361392Y0234573D01*
X0364168Y0237348D01*
X0366130Y0240747D01*
X0367146Y0244538D01*
X0367146Y0248462D01*
X0366130Y0252253D01*
X0364168Y0255652D01*
X0361392Y0258427D01*
X0357993Y0260390D01*
X0354203Y0261405D01*
X0350278Y0261405D01*
X0346487Y0260390D01*
X0343088Y0258427D01*
X0340313Y0255652D01*
X0338350Y0252253D01*
X0337500Y0249079D01*
X0337500Y0253290D01*
X0336130Y0256598D01*
X0333598Y0259130D01*
X0330290Y0260500D01*
X0316710Y0260500D01*
X0314100Y0259419D01*
X0314100Y0319119D01*
X0313262Y0322248D01*
X0311642Y0325052D01*
X0309352Y0327342D01*
X0306548Y0328962D01*
X0303419Y0329800D01*
X0241035Y0329800D01*
X0240600Y0330235D01*
X0240600Y0332396D01*
X0239878Y0335091D01*
X0238482Y0337509D01*
X0236982Y0339009D01*
X0235009Y0340982D01*
X0232591Y0342378D01*
X0229896Y0343100D01*
X0177104Y0343100D01*
X0174409Y0342378D01*
X0171991Y0340982D01*
X0164491Y0333482D01*
X0162518Y0331509D01*
X0161122Y0329091D01*
X0160400Y0326396D01*
X0160400Y0289983D01*
X0161122Y0287287D01*
X0162518Y0284870D01*
X0164491Y0282896D01*
X0164826Y0282703D01*
X0174260Y0273269D01*
X0174260Y0265999D01*
X0174677Y0264442D01*
X0174677Y0263229D01*
X0176047Y0259921D01*
X0177716Y0258253D01*
X0177716Y0256080D01*
X0178059Y0254800D01*
X0161095Y0254800D01*
X0135255Y0280640D01*
X0133903Y0282982D01*
X0131482Y0285403D01*
X0128518Y0287114D01*
X0127271Y0287448D01*
X0127248Y0287462D01*
X0124119Y0288300D01*
X0109200Y0288300D01*
X0109200Y0298299D01*
X0107500Y0299999D01*
X0107500Y0301501D01*
X0109200Y0303201D01*
X0109200Y0314799D01*
X0100999Y0323000D01*
X0089401Y0323000D01*
X0084350Y0317949D01*
X0079299Y0323000D01*
X0067701Y0323000D01*
X0059500Y0314799D01*
X0059500Y0311579D01*
X0058650Y0314753D01*
X0056687Y0318152D01*
X0053912Y0320927D01*
X0050513Y0322890D01*
X0046722Y0323905D01*
X0042797Y0323905D01*
X0039007Y0322890D01*
X0035608Y0320927D01*
X0032832Y0318152D01*
X0030870Y0314753D01*
X0029854Y0310962D01*
X0029854Y0307038D01*
X0030870Y0303247D01*
X0032832Y0299848D01*
X0035608Y0297073D01*
X0039007Y0295110D01*
X0042797Y0294094D01*
X0046722Y0294094D01*
X0050513Y0295110D01*
X0053912Y0297073D01*
X0056687Y0299848D01*
X0058650Y0303247D01*
X0059500Y0306421D01*
X0059500Y0303201D01*
X0061951Y0300750D01*
X0059500Y0298299D01*
X0059500Y0286701D01*
X0060645Y0285556D01*
X0059500Y0282790D01*
X0059500Y0278579D01*
X0058650Y0281753D01*
X0056687Y0285152D01*
X0053912Y0287927D01*
X0050513Y0289890D01*
X0046722Y0290905D01*
X0042797Y0290905D01*
X0039007Y0289890D01*
X0035608Y0287927D01*
X0032832Y0285152D01*
X0030870Y0281753D01*
X0029854Y0277962D01*
X0029854Y0274038D01*
X0030870Y0270247D01*
X0032832Y0266848D01*
X0035608Y0264073D01*
X0039007Y0262110D01*
X0042797Y0261094D01*
X0046722Y0261094D01*
X0050513Y0262110D01*
X0053912Y0264073D01*
X0056687Y0266848D01*
X0058650Y0270247D01*
X0059500Y0273421D01*
X0059500Y0269210D01*
X0060870Y0265902D01*
X0063402Y0263370D01*
X0066710Y0262000D01*
X0080290Y0262000D01*
X0083598Y0263370D01*
X0085814Y0265587D01*
X0089401Y0262000D01*
X0100999Y0262000D01*
X0102699Y0263700D01*
X0117072Y0263700D01*
X0117860Y0263245D01*
X0123105Y0258000D01*
X0121789Y0258000D01*
X0118482Y0257114D01*
X0115518Y0255403D01*
X0113097Y0252982D01*
X0111386Y0250018D01*
X0110500Y0246711D01*
X0110500Y0243289D01*
X0111200Y0240676D01*
X0111200Y0229324D01*
X0110500Y0226711D01*
X0110500Y0223289D01*
X0111386Y0219982D01*
X0113097Y0217018D01*
X0115518Y0214597D01*
X0118482Y0212886D01*
X0121789Y0212000D01*
X0125211Y0212000D01*
X0128518Y0212886D01*
X0131482Y0214597D01*
X0133903Y0217018D01*
X0135614Y0219982D01*
X0136500Y0223289D01*
X0136500Y0226711D01*
X0135800Y0229324D01*
X0135800Y0240676D01*
X0136500Y0243289D01*
X0136500Y0244605D01*
X0148448Y0232658D01*
X0151252Y0231038D01*
X0154381Y0230200D01*
X0210119Y0230200D01*
X0213248Y0231038D01*
X0216052Y0232658D01*
X0218342Y0234948D01*
X0219962Y0237752D01*
X0220800Y0240881D01*
X0220800Y0303759D01*
X0223631Y0302124D01*
X0227828Y0301000D01*
X0232172Y0301000D01*
X0236369Y0302124D01*
X0240131Y0304297D01*
X0241035Y0305200D01*
X0289500Y0305200D01*
X0289500Y0253999D01*
X0287800Y0252299D01*
X0287800Y0240701D01*
X0289500Y0239001D01*
X0289500Y0237499D01*
X0287800Y0235799D01*
X0287800Y0224201D01*
X0289500Y0222501D01*
X0289500Y0220999D01*
X0287800Y0219299D01*
X0287800Y0207701D01*
X0288700Y0206801D01*
X0288700Y0204800D01*
X0241035Y0204800D01*
X0240131Y0205703D01*
X0236369Y0207876D01*
X0232172Y0209000D01*
X0231849Y0209000D01*
X0229402Y0211447D01*
X0227447Y0213402D01*
X0225053Y0214784D01*
X0222382Y0215500D01*
X0182118Y0215500D01*
X0179447Y0214784D01*
X0177053Y0213402D01*
X0164553Y0200902D01*
X0162598Y0198947D01*
X0161216Y0196553D01*
X0160500Y0193882D01*
X0160500Y0167789D01*
X0159711Y0168000D01*
X0156289Y0168000D01*
X0152982Y0167114D01*
X0150018Y0165403D01*
X0147597Y0162982D01*
X0146798Y0161597D01*
X0141052Y0167342D01*
X0138248Y0168962D01*
X0135119Y0169800D01*
X0127824Y0169800D01*
X0125211Y0170500D01*
X0121789Y0170500D01*
X0120715Y0170212D01*
X0117322Y0170612D01*
X0116619Y0170800D01*
X0115721Y0170800D01*
X0114829Y0170905D01*
X0114109Y0170800D01*
X0109200Y0170800D01*
X0109200Y0180799D01*
X0107500Y0182499D01*
X0107500Y0184001D01*
X0109200Y0185701D01*
X0109200Y0197299D01*
X0100999Y0205500D01*
X0089401Y0205500D01*
X0084350Y0200449D01*
X0079299Y0205500D01*
X0067701Y0205500D01*
X0059500Y0197299D01*
X0059500Y0194079D01*
X0058650Y0197253D01*
X0056687Y0200652D01*
X0053912Y0203427D01*
X0050513Y0205390D01*
X0046722Y0206405D01*
X0042797Y0206405D01*
X0039007Y0205390D01*
X0035608Y0203427D01*
X0032832Y0200652D01*
X0030870Y0197253D01*
X0029854Y0193462D01*
X0029854Y0189538D01*
X0030870Y0185747D01*
X0032832Y0182348D01*
X0035608Y0179573D01*
X0039007Y0177610D01*
X0042797Y0176594D01*
X0046722Y0176594D01*
X0050513Y0177610D01*
X0053912Y0179573D01*
X0056687Y0182348D01*
X0058650Y0185747D01*
X0059500Y0188921D01*
X0059500Y0185701D01*
X0061951Y0183250D01*
X0059500Y0180799D01*
X0059500Y0169201D01*
X0060645Y0168056D01*
X0059500Y0165290D01*
X0059500Y0161079D01*
X0058650Y0164253D01*
X0056687Y0167652D01*
X0053912Y0170427D01*
X0050513Y0172390D01*
X0046722Y0173405D01*
X0042797Y0173405D01*
X0039007Y0172390D01*
X0035608Y0170427D01*
X0032832Y0167652D01*
X0030870Y0164253D01*
X0029854Y0160462D01*
X0029854Y0156538D01*
X0030870Y0152747D01*
X0032832Y0149348D01*
X0029854Y0156972D02*
X0010000Y0156972D01*
X0010000Y0164970D02*
X0031284Y0164970D01*
X0041167Y0172969D02*
X0010000Y0172969D01*
X0010000Y0180967D02*
X0034213Y0180967D01*
X0030008Y0188966D02*
X0010000Y0188966D01*
X0010000Y0196964D02*
X0030793Y0196964D01*
X0038267Y0204963D02*
X0010000Y0204963D01*
X0010000Y0212961D02*
X0118352Y0212961D01*
X0118482Y0207114D02*
X0115518Y0205403D01*
X0113097Y0202982D01*
X0111386Y0200018D01*
X0110500Y0196711D01*
X0110500Y0193289D01*
X0111386Y0189982D01*
X0113097Y0187018D01*
X0115518Y0184597D01*
X0118482Y0182886D01*
X0121789Y0182000D01*
X0125211Y0182000D01*
X0128518Y0182886D01*
X0131482Y0184597D01*
X0133903Y0187018D01*
X0135614Y0189982D01*
X0136500Y0193289D01*
X0136500Y0196711D01*
X0135614Y0200018D01*
X0133903Y0202982D01*
X0131482Y0205403D01*
X0128518Y0207114D01*
X0125211Y0208000D01*
X0121789Y0208000D01*
X0118482Y0207114D01*
X0115078Y0204963D02*
X0101536Y0204963D01*
X0109200Y0196964D02*
X0110568Y0196964D01*
X0109200Y0188966D02*
X0111973Y0188966D01*
X0109032Y0180967D02*
X0160500Y0180967D01*
X0160500Y0172969D02*
X0109200Y0172969D01*
X0135027Y0188966D02*
X0160500Y0188966D01*
X0161453Y0196964D02*
X0136432Y0196964D01*
X0131922Y0204963D02*
X0168614Y0204963D01*
X0176612Y0212961D02*
X0128648Y0212961D01*
X0135876Y0220960D02*
X0289461Y0220960D01*
X0287800Y0228958D02*
X0135898Y0228958D01*
X0135800Y0236957D02*
X0144148Y0236957D01*
X0154942Y0260952D02*
X0175620Y0260952D01*
X0174260Y0268951D02*
X0146944Y0268951D01*
X0138945Y0276949D02*
X0170580Y0276949D01*
X0162473Y0284948D02*
X0131937Y0284948D01*
X0109200Y0292946D02*
X0160400Y0292946D01*
X0160400Y0300945D02*
X0107500Y0300945D01*
X0109200Y0308943D02*
X0160400Y0308943D01*
X0160400Y0316942D02*
X0107057Y0316942D01*
X0061643Y0316942D02*
X0057386Y0316942D01*
X0057321Y0300945D02*
X0061756Y0300945D01*
X0059500Y0292946D02*
X0010000Y0292946D01*
X0010000Y0284948D02*
X0032715Y0284948D01*
X0029854Y0276949D02*
X0010000Y0276949D01*
X0010000Y0268951D02*
X0031618Y0268951D01*
X0010000Y0260952D02*
X0120153Y0260952D01*
X0113081Y0252954D02*
X0010000Y0252954D01*
X0010000Y0244955D02*
X0110500Y0244955D01*
X0111200Y0236957D02*
X0010000Y0236957D01*
X0010000Y0228958D02*
X0111102Y0228958D01*
X0111124Y0220960D02*
X0010000Y0220960D01*
X0051253Y0204963D02*
X0067164Y0204963D01*
X0059500Y0196964D02*
X0058727Y0196964D01*
X0059668Y0180967D02*
X0055307Y0180967D01*
X0059500Y0172969D02*
X0048352Y0172969D01*
X0058236Y0164970D02*
X0059500Y0164970D01*
X0060634Y0148973D02*
X0056313Y0148973D01*
X0010000Y0132976D02*
X0111651Y0132976D01*
X0110717Y0124978D02*
X0010000Y0124978D01*
X0010000Y0116979D02*
X0111200Y0116979D01*
X0111200Y0108981D02*
X0010000Y0108981D01*
X0010000Y0100982D02*
X0110500Y0100982D01*
X0112540Y0092984D02*
X0010000Y0092984D01*
X0010000Y0084985D02*
X0391000Y0084985D01*
X0391000Y0076987D02*
X0134477Y0076987D01*
X0133903Y0077982D02*
X0131482Y0080403D01*
X0128518Y0082114D01*
X0125211Y0083000D01*
X0121789Y0083000D01*
X0118482Y0082114D01*
X0115518Y0080403D01*
X0113097Y0077982D01*
X0111386Y0075018D01*
X0110500Y0071711D01*
X0110500Y0068289D01*
X0111386Y0064982D01*
X0113097Y0062018D01*
X0115518Y0059597D01*
X0118482Y0057886D01*
X0121789Y0057000D01*
X0125211Y0057000D01*
X0128518Y0057886D01*
X0131482Y0059597D01*
X0133903Y0062018D01*
X0135614Y0064982D01*
X0136500Y0068289D01*
X0136500Y0071711D01*
X0135614Y0075018D01*
X0133903Y0077982D01*
X0136500Y0068988D02*
X0391000Y0068988D01*
X0391000Y0060990D02*
X0132874Y0060990D01*
X0114126Y0060990D02*
X0010000Y0060990D01*
X0010000Y0068988D02*
X0110500Y0068988D01*
X0112523Y0076987D02*
X0010000Y0076987D01*
X0010000Y0052991D02*
X0391000Y0052991D01*
X0391000Y0047500D02*
X0391000Y0377201D01*
X0390531Y0377075D01*
X0386469Y0377075D01*
X0382546Y0378126D01*
X0379029Y0380157D01*
X0376157Y0383029D01*
X0374126Y0386546D01*
X0373075Y0390469D01*
X0373075Y0394531D01*
X0373469Y0396000D01*
X0028531Y0396000D01*
X0028925Y0394531D01*
X0028925Y0390469D01*
X0027874Y0386546D01*
X0025843Y0383029D01*
X0022971Y0380157D01*
X0019454Y0378126D01*
X0015531Y0377075D01*
X0011469Y0377075D01*
X0010000Y0377469D01*
X0010000Y0047500D01*
X0391000Y0047500D01*
X0391000Y0092984D02*
X0134460Y0092984D01*
X0136500Y0100982D02*
X0172623Y0100982D01*
X0164625Y0108981D02*
X0135800Y0108981D01*
X0143425Y0164970D02*
X0149585Y0164970D01*
X0088864Y0204963D02*
X0079836Y0204963D01*
X0059607Y0268951D02*
X0057901Y0268951D01*
X0056805Y0284948D02*
X0060394Y0284948D01*
X0032199Y0300945D02*
X0010000Y0300945D01*
X0010000Y0308943D02*
X0029854Y0308943D01*
X0032134Y0316942D02*
X0010000Y0316942D01*
X0010000Y0324940D02*
X0160400Y0324940D01*
X0163948Y0332939D02*
X0010000Y0332939D01*
X0010000Y0340937D02*
X0171947Y0340937D01*
X0220800Y0300945D02*
X0289500Y0300945D01*
X0289500Y0292946D02*
X0220800Y0292946D01*
X0220800Y0284948D02*
X0289500Y0284948D01*
X0289500Y0276949D02*
X0220800Y0276949D01*
X0220800Y0268951D02*
X0289500Y0268951D01*
X0289500Y0260952D02*
X0220800Y0260952D01*
X0220800Y0252954D02*
X0288455Y0252954D01*
X0287800Y0244955D02*
X0220800Y0244955D01*
X0219502Y0236957D02*
X0288958Y0236957D01*
X0287800Y0212961D02*
X0227888Y0212961D01*
X0240872Y0204963D02*
X0288700Y0204963D01*
X0313300Y0196964D02*
X0391000Y0196964D01*
X0391000Y0188966D02*
X0312787Y0188966D01*
X0305483Y0180967D02*
X0391000Y0180967D01*
X0391000Y0172969D02*
X0220800Y0172969D01*
X0220800Y0164970D02*
X0391000Y0164970D01*
X0391000Y0156972D02*
X0220800Y0156972D01*
X0220800Y0148973D02*
X0287226Y0148973D01*
X0286386Y0147518D02*
X0285500Y0144211D01*
X0285500Y0140789D01*
X0286200Y0138176D01*
X0286200Y0121824D01*
X0285500Y0119211D01*
X0285500Y0115789D01*
X0286386Y0112482D01*
X0288097Y0109518D01*
X0290518Y0107097D01*
X0293482Y0105386D01*
X0296789Y0104500D01*
X0300211Y0104500D01*
X0303518Y0105386D01*
X0306482Y0107097D01*
X0308903Y0109518D01*
X0310614Y0112482D01*
X0311500Y0115789D01*
X0311500Y0119211D01*
X0310800Y0121824D01*
X0310800Y0138176D01*
X0311500Y0140789D01*
X0311500Y0144211D01*
X0310614Y0147518D01*
X0308903Y0150482D01*
X0306482Y0152903D01*
X0303518Y0154614D01*
X0300211Y0155500D01*
X0296789Y0155500D01*
X0293482Y0154614D01*
X0290518Y0152903D01*
X0288097Y0150482D01*
X0286386Y0147518D01*
X0285500Y0140975D02*
X0220800Y0140975D01*
X0220800Y0132976D02*
X0286200Y0132976D01*
X0286200Y0124978D02*
X0220800Y0124978D01*
X0220800Y0116979D02*
X0285500Y0116979D01*
X0288635Y0108981D02*
X0220800Y0108981D01*
X0218940Y0100982D02*
X0391000Y0100982D01*
X0391000Y0108981D02*
X0338365Y0108981D01*
X0338903Y0109518D02*
X0340614Y0112482D01*
X0341500Y0115789D01*
X0341500Y0119211D01*
X0340614Y0122518D01*
X0338903Y0125482D01*
X0336482Y0127903D01*
X0333518Y0129614D01*
X0332077Y0130000D01*
X0333518Y0130386D01*
X0336482Y0132097D01*
X0338903Y0134518D01*
X0340614Y0137482D01*
X0341500Y0140789D01*
X0341500Y0144211D01*
X0340614Y0147518D01*
X0338903Y0150482D01*
X0336482Y0152903D01*
X0333518Y0154614D01*
X0330211Y0155500D01*
X0326789Y0155500D01*
X0323482Y0154614D01*
X0320518Y0152903D01*
X0318097Y0150482D01*
X0316386Y0147518D01*
X0315500Y0144211D01*
X0315500Y0140789D01*
X0316386Y0137482D01*
X0318097Y0134518D01*
X0320518Y0132097D01*
X0323482Y0130386D01*
X0324923Y0130000D01*
X0323482Y0129614D01*
X0320518Y0127903D01*
X0318097Y0125482D01*
X0316386Y0122518D01*
X0315500Y0119211D01*
X0315500Y0115789D01*
X0316386Y0112482D01*
X0318097Y0109518D01*
X0320518Y0107097D01*
X0323482Y0105386D01*
X0326789Y0104500D01*
X0330211Y0104500D01*
X0333518Y0105386D01*
X0336482Y0107097D01*
X0338903Y0109518D01*
X0341500Y0116979D02*
X0391000Y0116979D01*
X0391000Y0124978D02*
X0339194Y0124978D01*
X0337361Y0132976D02*
X0391000Y0132976D01*
X0391000Y0140975D02*
X0341500Y0140975D01*
X0339774Y0148973D02*
X0391000Y0148973D01*
X0391000Y0204963D02*
X0364523Y0204963D01*
X0367146Y0212961D02*
X0391000Y0212961D01*
X0391000Y0220960D02*
X0365145Y0220960D01*
X0363777Y0236957D02*
X0391000Y0236957D01*
X0391000Y0244955D02*
X0367146Y0244955D01*
X0365725Y0252954D02*
X0391000Y0252954D01*
X0391000Y0260952D02*
X0355894Y0260952D01*
X0348587Y0260952D02*
X0314100Y0260952D01*
X0314100Y0268951D02*
X0391000Y0268951D01*
X0391000Y0276949D02*
X0314100Y0276949D01*
X0314100Y0284948D02*
X0391000Y0284948D01*
X0391000Y0292946D02*
X0314100Y0292946D01*
X0314100Y0300945D02*
X0391000Y0300945D01*
X0391000Y0308943D02*
X0314100Y0308943D01*
X0314100Y0316942D02*
X0391000Y0316942D01*
X0391000Y0324940D02*
X0311707Y0324940D01*
X0373488Y0388929D02*
X0028512Y0388929D01*
X0023744Y0380930D02*
X0378256Y0380930D01*
X0391000Y0372932D02*
X0010000Y0372932D01*
X0010000Y0364933D02*
X0391000Y0364933D01*
X0391000Y0356934D02*
X0010000Y0356934D01*
X0010000Y0348936D02*
X0391000Y0348936D01*
X0391000Y0340937D02*
X0235053Y0340937D01*
X0240454Y0332939D02*
X0391000Y0332939D01*
X0338755Y0252954D02*
X0337500Y0252954D01*
X0336360Y0236957D02*
X0340704Y0236957D01*
X0337500Y0228958D02*
X0391000Y0228958D01*
X0339958Y0204963D02*
X0334762Y0204963D01*
X0335839Y0220960D02*
X0339336Y0220960D01*
X0317226Y0148973D02*
X0309774Y0148973D01*
X0311500Y0140975D02*
X0315500Y0140975D01*
X0319639Y0132976D02*
X0310800Y0132976D01*
X0310800Y0124978D02*
X0317806Y0124978D01*
X0315500Y0116979D02*
X0311500Y0116979D01*
X0308365Y0108981D02*
X0318635Y0108981D01*
D27*
X0188500Y0137619D02*
X0188500Y0190000D01*
M02*
