G75*
%MOIN*%
%OFA0B0*%
%FSLAX25Y25*%
%IPPOS*%
%LPD*%
%AMOC8*
5,1,8,0,0,1.08239X$1,22.5*
%
%ADD10C,0.00600*%
%ADD11C,0.00400*%
%ADD12C,0.00800*%
%ADD13C,0.01000*%
%ADD14C,0.00500*%
%ADD15R,0.05906X0.09843*%
%ADD16C,0.00700*%
D10*
X0288800Y0095300D02*
X0288800Y0101705D01*
X0292003Y0101705D01*
X0293070Y0100638D01*
X0293070Y0098503D01*
X0292003Y0097435D01*
X0288800Y0097435D01*
X0295245Y0096368D02*
X0296313Y0095300D01*
X0298448Y0095300D01*
X0299516Y0096368D01*
X0299516Y0100638D01*
X0298448Y0101705D01*
X0296313Y0101705D01*
X0295245Y0100638D01*
X0295245Y0096368D01*
X0301691Y0095300D02*
X0301691Y0101705D01*
X0305961Y0101705D02*
X0305961Y0095300D01*
X0303826Y0097435D01*
X0301691Y0095300D01*
X0308136Y0095300D02*
X0312407Y0095300D01*
X0314582Y0095300D02*
X0314582Y0101705D01*
X0317785Y0101705D01*
X0318852Y0100638D01*
X0318852Y0098503D01*
X0317785Y0097435D01*
X0314582Y0097435D01*
X0316717Y0097435D02*
X0318852Y0095300D01*
X0327473Y0096368D02*
X0328541Y0095300D01*
X0330676Y0095300D01*
X0331743Y0096368D01*
X0331743Y0100638D01*
X0330676Y0101705D01*
X0328541Y0101705D01*
X0327473Y0100638D01*
X0327473Y0096368D01*
X0333918Y0095300D02*
X0333918Y0101705D01*
X0338189Y0095300D01*
X0338189Y0101705D01*
X0312407Y0101705D02*
X0308136Y0101705D01*
X0308136Y0095300D01*
X0308136Y0098503D02*
X0310272Y0098503D01*
X0310341Y0355300D02*
X0310341Y0361705D01*
X0310341Y0358503D02*
X0306071Y0358503D01*
X0303896Y0360638D02*
X0302828Y0361705D01*
X0300693Y0361705D01*
X0299625Y0360638D01*
X0299625Y0356368D01*
X0300693Y0355300D01*
X0302828Y0355300D01*
X0303896Y0356368D01*
X0306071Y0355300D02*
X0306071Y0361705D01*
X0297450Y0360638D02*
X0297450Y0358503D01*
X0296383Y0357435D01*
X0293180Y0357435D01*
X0293180Y0355300D02*
X0293180Y0361705D01*
X0296383Y0361705D01*
X0297450Y0360638D01*
X0295315Y0357435D02*
X0297450Y0355300D01*
X0291005Y0355300D02*
X0291005Y0359570D01*
X0288870Y0361705D01*
X0286734Y0359570D01*
X0286734Y0355300D01*
X0284559Y0355300D02*
X0280289Y0355300D01*
X0280289Y0361705D01*
X0284559Y0361705D01*
X0282424Y0358503D02*
X0280289Y0358503D01*
X0278114Y0357435D02*
X0278114Y0356368D01*
X0277046Y0355300D01*
X0274911Y0355300D01*
X0273843Y0356368D01*
X0274911Y0358503D02*
X0277046Y0358503D01*
X0278114Y0357435D01*
X0278114Y0360638D02*
X0277046Y0361705D01*
X0274911Y0361705D01*
X0273843Y0360638D01*
X0273843Y0359570D01*
X0274911Y0358503D01*
X0271668Y0361705D02*
X0267398Y0361705D01*
X0267398Y0355300D01*
X0271668Y0355300D01*
X0269533Y0358503D02*
X0267398Y0358503D01*
X0265223Y0358503D02*
X0264155Y0357435D01*
X0260952Y0357435D01*
X0260952Y0355300D02*
X0260952Y0361705D01*
X0264155Y0361705D01*
X0265223Y0360638D01*
X0265223Y0358503D01*
X0263088Y0357435D02*
X0265223Y0355300D01*
X0263373Y0367800D02*
X0261238Y0367800D01*
X0260170Y0368868D01*
X0257995Y0368868D02*
X0256928Y0367800D01*
X0254793Y0367800D01*
X0253725Y0368868D01*
X0253725Y0373138D01*
X0254793Y0374205D01*
X0256928Y0374205D01*
X0257995Y0373138D01*
X0260170Y0373138D02*
X0260170Y0372070D01*
X0261238Y0371003D01*
X0263373Y0371003D01*
X0264441Y0369935D01*
X0264441Y0368868D01*
X0263373Y0367800D01*
X0264441Y0373138D02*
X0263373Y0374205D01*
X0261238Y0374205D01*
X0260170Y0373138D01*
X0260170Y0380300D02*
X0260170Y0386705D01*
X0263373Y0386705D01*
X0264441Y0385638D01*
X0264441Y0383503D01*
X0263373Y0382435D01*
X0260170Y0382435D01*
X0262306Y0382435D02*
X0264441Y0380300D01*
X0266616Y0380300D02*
X0269819Y0380300D01*
X0270886Y0381368D01*
X0270886Y0385638D01*
X0269819Y0386705D01*
X0266616Y0386705D01*
X0266616Y0380300D01*
X0257995Y0380300D02*
X0257995Y0384570D01*
X0255860Y0386705D01*
X0253725Y0384570D01*
X0253725Y0380300D01*
X0251550Y0381368D02*
X0251550Y0385638D01*
X0250482Y0386705D01*
X0248347Y0386705D01*
X0247279Y0385638D01*
X0247279Y0381368D01*
X0248347Y0380300D01*
X0250482Y0380300D01*
X0251550Y0381368D01*
X0253725Y0383503D02*
X0257995Y0383503D01*
X0251563Y0374205D02*
X0249428Y0374205D01*
X0250496Y0374205D02*
X0250496Y0367800D01*
X0251563Y0367800D02*
X0249428Y0367800D01*
X0248061Y0361705D02*
X0248061Y0355300D01*
X0252332Y0355300D01*
X0250197Y0358503D02*
X0248061Y0358503D01*
X0245886Y0357435D02*
X0245886Y0361705D01*
X0248061Y0361705D02*
X0252332Y0361705D01*
X0245886Y0357435D02*
X0243751Y0355300D01*
X0241616Y0357435D01*
X0241616Y0361705D01*
X0239454Y0361705D02*
X0237319Y0361705D01*
X0238387Y0361705D02*
X0238387Y0355300D01*
X0239454Y0355300D02*
X0237319Y0355300D01*
X0233009Y0355300D02*
X0233009Y0361705D01*
X0235144Y0361705D02*
X0230873Y0361705D01*
X0228698Y0360638D02*
X0227631Y0361705D01*
X0225496Y0361705D01*
X0224428Y0360638D01*
X0224428Y0356368D01*
X0225496Y0355300D01*
X0227631Y0355300D01*
X0228698Y0356368D01*
X0228698Y0360638D01*
X0222253Y0361705D02*
X0222253Y0355300D01*
X0217982Y0355300D02*
X0217982Y0361705D01*
X0220118Y0359570D01*
X0222253Y0361705D01*
X0221471Y0367800D02*
X0219336Y0369935D01*
X0220403Y0369935D02*
X0217200Y0369935D01*
X0217200Y0367800D02*
X0217200Y0374205D01*
X0220403Y0374205D01*
X0221471Y0373138D01*
X0221471Y0371003D01*
X0220403Y0369935D01*
X0223646Y0368868D02*
X0224714Y0367800D01*
X0226849Y0367800D01*
X0227916Y0368868D01*
X0227916Y0373138D01*
X0226849Y0374205D01*
X0224714Y0374205D01*
X0223646Y0373138D01*
X0223646Y0368868D01*
X0230091Y0367800D02*
X0230091Y0374205D01*
X0233294Y0374205D01*
X0234362Y0373138D01*
X0234362Y0372070D01*
X0233294Y0371003D01*
X0230091Y0371003D01*
X0230091Y0367800D02*
X0233294Y0367800D01*
X0234362Y0368868D01*
X0234362Y0369935D01*
X0233294Y0371003D01*
X0236537Y0373138D02*
X0236537Y0368868D01*
X0237605Y0367800D01*
X0239740Y0367800D01*
X0240807Y0368868D01*
X0240807Y0373138D01*
X0239740Y0374205D01*
X0237605Y0374205D01*
X0236537Y0373138D01*
X0242982Y0374205D02*
X0247253Y0374205D01*
X0245118Y0374205D02*
X0245118Y0367800D01*
X0244037Y0380300D02*
X0240834Y0380300D01*
X0240834Y0386705D01*
X0244037Y0386705D01*
X0245104Y0385638D01*
X0245104Y0384570D01*
X0244037Y0383503D01*
X0240834Y0383503D01*
X0244037Y0383503D02*
X0245104Y0382435D01*
X0245104Y0381368D01*
X0244037Y0380300D01*
X0232213Y0381368D02*
X0232213Y0383503D01*
X0230078Y0383503D01*
X0227943Y0385638D02*
X0227943Y0381368D01*
X0229011Y0380300D01*
X0231146Y0380300D01*
X0232213Y0381368D01*
X0232213Y0385638D02*
X0231146Y0386705D01*
X0229011Y0386705D01*
X0227943Y0385638D01*
X0225768Y0386705D02*
X0225768Y0380300D01*
X0221497Y0386705D01*
X0221497Y0380300D01*
X0219336Y0380300D02*
X0217200Y0380300D01*
X0218268Y0380300D02*
X0218268Y0386705D01*
X0217200Y0386705D02*
X0219336Y0386705D01*
X0215025Y0385638D02*
X0213958Y0386705D01*
X0211823Y0386705D01*
X0210755Y0385638D01*
X0210755Y0381368D01*
X0211823Y0380300D01*
X0213958Y0380300D01*
X0215025Y0381368D01*
X0208580Y0380300D02*
X0208580Y0386705D01*
X0204309Y0386705D02*
X0208580Y0380300D01*
X0204309Y0380300D02*
X0204309Y0386705D01*
X0202134Y0386705D02*
X0197864Y0386705D01*
X0197864Y0380300D01*
X0202134Y0380300D01*
X0199999Y0383503D02*
X0197864Y0383503D01*
X0195689Y0380300D02*
X0191418Y0380300D01*
X0191418Y0386705D01*
X0189243Y0384570D02*
X0189243Y0380300D01*
X0189243Y0383503D02*
X0184973Y0383503D01*
X0184973Y0384570D02*
X0187108Y0386705D01*
X0189243Y0384570D01*
X0184973Y0384570D02*
X0184973Y0380300D01*
X0182798Y0381368D02*
X0182798Y0382435D01*
X0181730Y0383503D01*
X0178527Y0383503D01*
X0178527Y0386705D02*
X0178527Y0380300D01*
X0181730Y0380300D01*
X0182798Y0381368D01*
X0181730Y0383503D02*
X0182798Y0384570D01*
X0182798Y0385638D01*
X0181730Y0386705D01*
X0178527Y0386705D01*
X0169907Y0385638D02*
X0169907Y0381368D01*
X0168839Y0380300D01*
X0165636Y0380300D01*
X0165636Y0386705D01*
X0168839Y0386705D01*
X0169907Y0385638D01*
X0163461Y0384570D02*
X0163461Y0380300D01*
X0163461Y0383503D02*
X0159191Y0383503D01*
X0159191Y0384570D02*
X0161326Y0386705D01*
X0163461Y0384570D01*
X0159191Y0384570D02*
X0159191Y0380300D01*
X0157016Y0381368D02*
X0157016Y0385638D01*
X0155948Y0386705D01*
X0153813Y0386705D01*
X0152745Y0385638D01*
X0152745Y0381368D01*
X0153813Y0380300D01*
X0155948Y0380300D01*
X0157016Y0381368D01*
X0157016Y0374205D02*
X0157016Y0367800D01*
X0152745Y0374205D01*
X0152745Y0367800D01*
X0150570Y0368868D02*
X0150570Y0374205D01*
X0146300Y0374205D02*
X0146300Y0368868D01*
X0147368Y0367800D01*
X0149503Y0367800D01*
X0150570Y0368868D01*
X0151352Y0361705D02*
X0147082Y0361705D01*
X0147082Y0355300D01*
X0151352Y0355300D01*
X0153527Y0355300D02*
X0153527Y0361705D01*
X0156730Y0361705D01*
X0157798Y0360638D01*
X0157798Y0358503D01*
X0156730Y0357435D01*
X0153527Y0357435D01*
X0155663Y0357435D02*
X0157798Y0355300D01*
X0166418Y0355300D02*
X0166418Y0361705D01*
X0170689Y0361705D01*
X0172864Y0360638D02*
X0172864Y0356368D01*
X0173932Y0355300D01*
X0176067Y0355300D01*
X0177134Y0356368D01*
X0177134Y0360638D01*
X0176067Y0361705D01*
X0173932Y0361705D01*
X0172864Y0360638D01*
X0179309Y0361705D02*
X0179309Y0355300D01*
X0179309Y0357435D02*
X0182512Y0357435D01*
X0183580Y0358503D01*
X0183580Y0360638D01*
X0182512Y0361705D01*
X0179309Y0361705D01*
X0181445Y0357435D02*
X0183580Y0355300D01*
X0192200Y0355300D02*
X0192200Y0359570D01*
X0194336Y0361705D01*
X0196471Y0359570D01*
X0196471Y0355300D01*
X0198646Y0356368D02*
X0199714Y0355300D01*
X0201849Y0355300D01*
X0202916Y0356368D01*
X0202916Y0361705D01*
X0205091Y0361705D02*
X0209362Y0361705D01*
X0207227Y0361705D02*
X0207227Y0355300D01*
X0211537Y0356368D02*
X0211537Y0360638D01*
X0212605Y0361705D01*
X0214740Y0361705D01*
X0215807Y0360638D01*
X0215807Y0356368D01*
X0214740Y0355300D01*
X0212605Y0355300D01*
X0211537Y0356368D01*
X0208580Y0367800D02*
X0206445Y0369935D01*
X0207512Y0369935D02*
X0204309Y0369935D01*
X0204309Y0367800D02*
X0204309Y0374205D01*
X0207512Y0374205D01*
X0208580Y0373138D01*
X0208580Y0371003D01*
X0207512Y0369935D01*
X0202134Y0367800D02*
X0197864Y0367800D01*
X0197864Y0374205D01*
X0202134Y0374205D01*
X0199999Y0371003D02*
X0197864Y0371003D01*
X0195689Y0374205D02*
X0191418Y0374205D01*
X0193554Y0374205D02*
X0193554Y0367800D01*
X0189243Y0367800D02*
X0189243Y0372070D01*
X0187108Y0374205D01*
X0184973Y0372070D01*
X0184973Y0367800D01*
X0182798Y0367800D02*
X0182798Y0374205D01*
X0184973Y0371003D02*
X0189243Y0371003D01*
X0182798Y0367800D02*
X0180663Y0369935D01*
X0178527Y0367800D01*
X0178527Y0374205D01*
X0176352Y0373138D02*
X0176352Y0371003D01*
X0175285Y0369935D01*
X0172082Y0369935D01*
X0172082Y0367800D02*
X0172082Y0374205D01*
X0175285Y0374205D01*
X0176352Y0373138D01*
X0174217Y0369935D02*
X0176352Y0367800D01*
X0169907Y0367800D02*
X0165636Y0367800D01*
X0165636Y0374205D01*
X0169907Y0374205D01*
X0167772Y0371003D02*
X0165636Y0371003D01*
X0163461Y0368868D02*
X0163461Y0373138D01*
X0162394Y0374205D01*
X0159191Y0374205D01*
X0159191Y0367800D01*
X0162394Y0367800D01*
X0163461Y0368868D01*
X0166418Y0358503D02*
X0168554Y0358503D01*
X0149217Y0358503D02*
X0147082Y0358503D01*
X0144907Y0361705D02*
X0140636Y0361705D01*
X0142772Y0361705D02*
X0142772Y0355300D01*
X0138461Y0355300D02*
X0138461Y0361705D01*
X0134191Y0361705D02*
X0138461Y0355300D01*
X0134191Y0355300D02*
X0134191Y0361705D01*
X0132016Y0361705D02*
X0127745Y0361705D01*
X0127745Y0355300D01*
X0132016Y0355300D01*
X0129881Y0358503D02*
X0127745Y0358503D01*
X0125570Y0360638D02*
X0124503Y0361705D01*
X0122368Y0361705D01*
X0121300Y0360638D01*
X0121300Y0356368D01*
X0122368Y0355300D01*
X0124503Y0355300D01*
X0125570Y0356368D01*
X0146300Y0380300D02*
X0150570Y0380300D01*
X0146300Y0380300D02*
X0146300Y0386705D01*
X0192200Y0358503D02*
X0196471Y0358503D01*
X0198646Y0356368D02*
X0198646Y0361705D01*
X0286734Y0358503D02*
X0291005Y0358503D01*
D11*
X0236274Y0341537D02*
X0236274Y0340769D01*
X0235507Y0340002D01*
X0236274Y0339235D01*
X0236274Y0338467D01*
X0235507Y0337700D01*
X0233972Y0337700D01*
X0233205Y0338467D01*
X0234739Y0340002D02*
X0235507Y0340002D01*
X0236274Y0341537D02*
X0235507Y0342304D01*
X0233972Y0342304D01*
X0233205Y0341537D01*
X0231670Y0341537D02*
X0231670Y0340002D01*
X0230903Y0339235D01*
X0228601Y0339235D01*
X0228601Y0337700D02*
X0228601Y0342304D01*
X0230903Y0342304D01*
X0231670Y0341537D01*
X0227066Y0341537D02*
X0227066Y0338467D01*
X0226299Y0337700D01*
X0224764Y0337700D01*
X0223997Y0338467D01*
X0227066Y0341537D01*
X0226299Y0342304D01*
X0224764Y0342304D01*
X0223997Y0341537D01*
X0223997Y0338467D01*
X0222462Y0338467D02*
X0222462Y0339235D01*
X0221695Y0340002D01*
X0219393Y0340002D01*
X0219393Y0338467D01*
X0220160Y0337700D01*
X0221695Y0337700D01*
X0222462Y0338467D01*
X0219393Y0340002D02*
X0220927Y0341537D01*
X0222462Y0342304D01*
X0217858Y0342304D02*
X0217858Y0337700D01*
X0214789Y0342304D01*
X0214789Y0337700D01*
X0212487Y0337700D02*
X0212487Y0342304D01*
X0210185Y0340002D01*
X0213254Y0340002D01*
X0208650Y0339235D02*
X0207883Y0340002D01*
X0205581Y0340002D01*
X0205581Y0338467D01*
X0206348Y0337700D01*
X0207883Y0337700D01*
X0208650Y0338467D01*
X0208650Y0339235D01*
X0207116Y0341537D02*
X0205581Y0340002D01*
X0207116Y0341537D02*
X0208650Y0342304D01*
X0204046Y0342304D02*
X0200977Y0339235D01*
X0201744Y0340002D02*
X0204046Y0337700D01*
X0200977Y0337700D02*
X0200977Y0342304D01*
X0199442Y0342304D02*
X0196373Y0342304D01*
X0196373Y0337700D01*
X0194839Y0337700D02*
X0191769Y0342304D01*
X0190235Y0342304D02*
X0188700Y0342304D01*
X0189467Y0342304D02*
X0189467Y0337700D01*
X0188700Y0337700D02*
X0190235Y0337700D01*
X0191769Y0337700D02*
X0194839Y0342304D01*
X0196373Y0340002D02*
X0197908Y0340002D01*
X0221200Y0297304D02*
X0222735Y0295769D01*
X0224269Y0297304D01*
X0224269Y0292700D01*
X0225804Y0293467D02*
X0225804Y0296537D01*
X0226571Y0297304D01*
X0228106Y0297304D01*
X0228873Y0296537D01*
X0228873Y0293467D01*
X0228106Y0292700D01*
X0226571Y0292700D01*
X0225804Y0293467D01*
X0230408Y0293467D02*
X0231175Y0292700D01*
X0232710Y0292700D01*
X0233477Y0293467D01*
X0233477Y0294235D01*
X0232710Y0295002D01*
X0231175Y0295002D01*
X0230408Y0295769D01*
X0230408Y0296537D01*
X0231175Y0297304D01*
X0232710Y0297304D01*
X0233477Y0296537D01*
X0239616Y0296537D02*
X0239616Y0295769D01*
X0240383Y0295002D01*
X0241918Y0295002D01*
X0242685Y0294235D01*
X0242685Y0293467D01*
X0241918Y0292700D01*
X0240383Y0292700D01*
X0239616Y0293467D01*
X0238081Y0291933D02*
X0235012Y0291933D01*
X0239616Y0296537D02*
X0240383Y0297304D01*
X0241918Y0297304D01*
X0242685Y0296537D01*
X0244220Y0297304D02*
X0247289Y0297304D01*
X0248824Y0297304D02*
X0251126Y0297304D01*
X0251893Y0296537D01*
X0251893Y0295769D01*
X0251126Y0295002D01*
X0248824Y0295002D01*
X0251126Y0295002D02*
X0251893Y0294235D01*
X0251893Y0293467D01*
X0251126Y0292700D01*
X0248824Y0292700D01*
X0248824Y0297304D01*
X0245754Y0297304D02*
X0245754Y0292700D01*
X0253427Y0292700D02*
X0255729Y0292700D01*
X0256497Y0293467D01*
X0256497Y0296537D01*
X0255729Y0297304D01*
X0253427Y0297304D01*
X0253427Y0292700D01*
X0221200Y0292700D02*
X0221200Y0297304D01*
X0181769Y0264037D02*
X0178700Y0260967D01*
X0180235Y0260967D02*
X0180235Y0264037D01*
X0178700Y0264037D02*
X0181769Y0260967D01*
X0181769Y0262502D02*
X0178700Y0262502D01*
X0188700Y0217304D02*
X0190235Y0217304D01*
X0189467Y0217304D02*
X0189467Y0212700D01*
X0188700Y0212700D02*
X0190235Y0212700D01*
X0191769Y0212700D02*
X0194839Y0217304D01*
X0196373Y0217304D02*
X0199442Y0217304D01*
X0200977Y0217304D02*
X0200977Y0212700D01*
X0200977Y0214235D02*
X0204046Y0217304D01*
X0205581Y0215002D02*
X0207883Y0215002D01*
X0208650Y0214235D01*
X0208650Y0213467D01*
X0207883Y0212700D01*
X0206348Y0212700D01*
X0205581Y0213467D01*
X0205581Y0215002D01*
X0207116Y0216537D01*
X0208650Y0217304D01*
X0210185Y0215002D02*
X0213254Y0215002D01*
X0212487Y0217304D02*
X0210185Y0215002D01*
X0212487Y0212700D02*
X0212487Y0217304D01*
X0214789Y0217304D02*
X0214789Y0212700D01*
X0217858Y0212700D02*
X0214789Y0217304D01*
X0217858Y0217304D02*
X0217858Y0212700D01*
X0219393Y0213467D02*
X0220160Y0212700D01*
X0221695Y0212700D01*
X0222462Y0213467D01*
X0222462Y0214235D01*
X0221695Y0215002D01*
X0219393Y0215002D01*
X0219393Y0213467D01*
X0219393Y0215002D02*
X0220927Y0216537D01*
X0222462Y0217304D01*
X0223997Y0216537D02*
X0224764Y0217304D01*
X0226299Y0217304D01*
X0227066Y0216537D01*
X0223997Y0213467D01*
X0224764Y0212700D01*
X0226299Y0212700D01*
X0227066Y0213467D01*
X0227066Y0216537D01*
X0228601Y0217304D02*
X0230903Y0217304D01*
X0231670Y0216537D01*
X0231670Y0215002D01*
X0230903Y0214235D01*
X0228601Y0214235D01*
X0228601Y0212700D02*
X0228601Y0217304D01*
X0223997Y0216537D02*
X0223997Y0213467D01*
X0233205Y0213467D02*
X0233972Y0212700D01*
X0235507Y0212700D01*
X0236274Y0213467D01*
X0236274Y0214235D01*
X0235507Y0215002D01*
X0234739Y0215002D01*
X0235507Y0215002D02*
X0236274Y0215769D01*
X0236274Y0216537D01*
X0235507Y0217304D01*
X0233972Y0217304D01*
X0233205Y0216537D01*
X0204046Y0212700D02*
X0201744Y0215002D01*
X0197908Y0215002D02*
X0196373Y0215002D01*
X0196373Y0212700D02*
X0196373Y0217304D01*
X0191769Y0217304D02*
X0194839Y0212700D01*
X0221200Y0174804D02*
X0222735Y0173269D01*
X0224269Y0174804D01*
X0224269Y0170200D01*
X0225804Y0170967D02*
X0226571Y0170200D01*
X0228106Y0170200D01*
X0228873Y0170967D01*
X0228873Y0174037D01*
X0228106Y0174804D01*
X0226571Y0174804D01*
X0225804Y0174037D01*
X0225804Y0170967D01*
X0230408Y0170967D02*
X0231175Y0170200D01*
X0232710Y0170200D01*
X0233477Y0170967D01*
X0233477Y0171735D01*
X0232710Y0172502D01*
X0231175Y0172502D01*
X0230408Y0173269D01*
X0230408Y0174037D01*
X0231175Y0174804D01*
X0232710Y0174804D01*
X0233477Y0174037D01*
X0235012Y0169433D02*
X0238081Y0169433D01*
X0239616Y0170200D02*
X0239616Y0174804D01*
X0241918Y0174804D01*
X0242685Y0174037D01*
X0242685Y0172502D01*
X0241918Y0171735D01*
X0239616Y0171735D01*
X0244220Y0170967D02*
X0244987Y0170200D01*
X0246522Y0170200D01*
X0247289Y0170967D01*
X0247289Y0174037D01*
X0246522Y0174804D01*
X0244987Y0174804D01*
X0244220Y0174037D01*
X0244220Y0170967D01*
X0248824Y0170200D02*
X0248824Y0174804D01*
X0251126Y0174804D01*
X0251893Y0174037D01*
X0251893Y0172502D01*
X0251126Y0171735D01*
X0248824Y0171735D01*
X0250358Y0171735D02*
X0251893Y0170200D01*
X0254962Y0170200D02*
X0254962Y0174804D01*
X0253427Y0174804D02*
X0256497Y0174804D01*
X0221200Y0174804D02*
X0221200Y0170200D01*
X0181769Y0121537D02*
X0178700Y0118467D01*
X0180235Y0118467D02*
X0180235Y0121537D01*
X0178700Y0121537D02*
X0181769Y0118467D01*
X0181769Y0120002D02*
X0178700Y0120002D01*
D12*
X0182900Y0129309D02*
X0183273Y0129309D01*
X0182900Y0129309D02*
X0182900Y0135691D01*
X0183273Y0135691D01*
X0193727Y0135691D02*
X0194100Y0135691D01*
X0194100Y0129309D01*
X0193727Y0129309D01*
X0068602Y0147441D02*
X0068602Y0151772D01*
X0068602Y0147441D02*
X0018996Y0147441D01*
X0018996Y0202559D01*
X0069389Y0202559D01*
X0069389Y0198228D01*
X0068602Y0264941D02*
X0018996Y0264941D01*
X0018996Y0320059D01*
X0069389Y0320059D01*
X0069389Y0315728D01*
X0068602Y0269272D02*
X0068602Y0264941D01*
X0182900Y0269309D02*
X0183273Y0269309D01*
X0182900Y0269309D02*
X0182900Y0275691D01*
X0183273Y0275691D01*
X0193727Y0275691D02*
X0194100Y0275691D01*
X0194100Y0269309D01*
X0193727Y0269309D01*
X0328398Y0257559D02*
X0328398Y0253228D01*
X0328398Y0257559D02*
X0378004Y0257559D01*
X0378004Y0202441D01*
X0327611Y0202441D01*
X0327611Y0206772D01*
D13*
X0123500Y0075000D02*
X0118500Y0075000D01*
X0118500Y0095000D01*
X0123500Y0095000D01*
X0123500Y0096000D01*
X0123500Y0095000D02*
X0128500Y0095000D01*
X0128500Y0075000D01*
X0123500Y0075000D01*
X0123500Y0074000D01*
X0123500Y0131500D02*
X0123500Y0132500D01*
X0118500Y0132500D01*
X0118500Y0152500D01*
X0123500Y0152500D01*
X0123500Y0153500D01*
X0123500Y0152500D02*
X0128500Y0152500D01*
X0128500Y0132500D01*
X0123500Y0132500D01*
X0153000Y0150000D02*
X0153000Y0160000D01*
X0174000Y0160000D01*
X0174000Y0150000D01*
X0153000Y0150000D01*
X0163500Y0152500D02*
X0163500Y0157500D01*
X0184059Y0131025D02*
X0184061Y0131048D01*
X0184067Y0131071D01*
X0184076Y0131092D01*
X0184089Y0131112D01*
X0184105Y0131129D01*
X0184123Y0131143D01*
X0184143Y0131154D01*
X0184165Y0131162D01*
X0184188Y0131166D01*
X0184212Y0131166D01*
X0184235Y0131162D01*
X0184257Y0131154D01*
X0184277Y0131143D01*
X0184295Y0131129D01*
X0184311Y0131112D01*
X0184324Y0131092D01*
X0184333Y0131071D01*
X0184339Y0131048D01*
X0184341Y0131025D01*
X0184339Y0131002D01*
X0184333Y0130979D01*
X0184324Y0130958D01*
X0184311Y0130938D01*
X0184295Y0130921D01*
X0184277Y0130907D01*
X0184257Y0130896D01*
X0184235Y0130888D01*
X0184212Y0130884D01*
X0184188Y0130884D01*
X0184165Y0130888D01*
X0184143Y0130896D01*
X0184123Y0130907D01*
X0184105Y0130921D01*
X0184089Y0130938D01*
X0184076Y0130958D01*
X0184067Y0130979D01*
X0184061Y0131002D01*
X0184059Y0131025D01*
X0128500Y0200000D02*
X0123500Y0200000D01*
X0123500Y0199000D01*
X0123500Y0200000D02*
X0118500Y0200000D01*
X0118500Y0220000D01*
X0123500Y0220000D01*
X0123500Y0221000D01*
X0123500Y0220000D02*
X0128500Y0220000D01*
X0128500Y0200000D01*
X0123500Y0249000D02*
X0123500Y0250000D01*
X0118500Y0250000D01*
X0118500Y0270000D01*
X0123500Y0270000D01*
X0123500Y0271000D01*
X0123500Y0270000D02*
X0128500Y0270000D01*
X0128500Y0250000D01*
X0123500Y0250000D01*
X0184059Y0271025D02*
X0184061Y0271048D01*
X0184067Y0271071D01*
X0184076Y0271092D01*
X0184089Y0271112D01*
X0184105Y0271129D01*
X0184123Y0271143D01*
X0184143Y0271154D01*
X0184165Y0271162D01*
X0184188Y0271166D01*
X0184212Y0271166D01*
X0184235Y0271162D01*
X0184257Y0271154D01*
X0184277Y0271143D01*
X0184295Y0271129D01*
X0184311Y0271112D01*
X0184324Y0271092D01*
X0184333Y0271071D01*
X0184339Y0271048D01*
X0184341Y0271025D01*
X0184339Y0271002D01*
X0184333Y0270979D01*
X0184324Y0270958D01*
X0184311Y0270938D01*
X0184295Y0270921D01*
X0184277Y0270907D01*
X0184257Y0270896D01*
X0184235Y0270888D01*
X0184212Y0270884D01*
X0184188Y0270884D01*
X0184165Y0270888D01*
X0184143Y0270896D01*
X0184123Y0270907D01*
X0184105Y0270921D01*
X0184089Y0270938D01*
X0184076Y0270958D01*
X0184067Y0270979D01*
X0184061Y0271002D01*
X0184059Y0271025D01*
X0303500Y0147500D02*
X0303500Y0142500D01*
X0302500Y0142500D01*
X0303500Y0142500D02*
X0303500Y0137500D01*
X0323500Y0137500D01*
X0323500Y0142500D01*
X0324500Y0142500D01*
X0323500Y0142500D02*
X0323500Y0147500D01*
X0303500Y0147500D01*
X0303500Y0122500D02*
X0323500Y0122500D01*
X0323500Y0117500D01*
X0324500Y0117500D01*
X0323500Y0117500D02*
X0323500Y0112500D01*
X0303500Y0112500D01*
X0303500Y0117500D01*
X0302500Y0117500D01*
X0303500Y0117500D02*
X0303500Y0122500D01*
D14*
X0253500Y0177500D02*
X0253500Y0207500D01*
X0168500Y0207500D01*
X0168500Y0177500D01*
X0253500Y0177500D01*
X0253500Y0302500D02*
X0168500Y0302500D01*
X0168500Y0332500D01*
X0253500Y0332500D01*
X0253500Y0302500D01*
D15*
X0374658Y0230000D03*
X0022342Y0175000D03*
X0022342Y0292500D03*
D16*
X0021351Y0322850D02*
X0019700Y0322850D01*
X0019700Y0326153D01*
X0021351Y0326153D01*
X0021902Y0325602D01*
X0021902Y0325052D01*
X0021351Y0324501D01*
X0019700Y0324501D01*
X0021351Y0324501D02*
X0021902Y0323951D01*
X0021902Y0323400D01*
X0021351Y0322850D01*
X0023383Y0322850D02*
X0023383Y0325052D01*
X0024484Y0326153D01*
X0025585Y0325052D01*
X0025585Y0322850D01*
X0025585Y0324501D02*
X0023383Y0324501D01*
X0027066Y0326153D02*
X0029268Y0326153D01*
X0028167Y0326153D02*
X0028167Y0322850D01*
X0031850Y0322850D02*
X0031850Y0326153D01*
X0030749Y0326153D02*
X0032951Y0326153D01*
X0034433Y0326153D02*
X0034433Y0322850D01*
X0036634Y0322850D01*
X0038116Y0322850D02*
X0038116Y0326153D01*
X0039767Y0326153D01*
X0040318Y0325602D01*
X0040318Y0324501D01*
X0039767Y0323951D01*
X0038116Y0323951D01*
X0039217Y0323951D02*
X0040318Y0322850D01*
X0042900Y0322850D02*
X0042900Y0324501D01*
X0044001Y0325602D01*
X0044001Y0326153D01*
X0042900Y0324501D02*
X0041799Y0325602D01*
X0041799Y0326153D01*
X0036634Y0326153D02*
X0034433Y0326153D01*
X0034433Y0324501D02*
X0035534Y0324501D01*
X0045482Y0322300D02*
X0047684Y0322300D01*
X0049165Y0323400D02*
X0049716Y0322850D01*
X0050817Y0322850D01*
X0051367Y0323400D01*
X0051367Y0323951D01*
X0050817Y0324501D01*
X0049716Y0324501D01*
X0049165Y0325052D01*
X0049165Y0325602D01*
X0049716Y0326153D01*
X0050817Y0326153D01*
X0051367Y0325602D01*
X0052848Y0326153D02*
X0055050Y0326153D01*
X0053949Y0326153D02*
X0053949Y0322850D01*
X0056531Y0322850D02*
X0056531Y0326153D01*
X0058183Y0326153D01*
X0058733Y0325602D01*
X0058733Y0325052D01*
X0058183Y0324501D01*
X0056531Y0324501D01*
X0056531Y0322850D02*
X0058183Y0322850D01*
X0058733Y0323400D01*
X0058733Y0323951D01*
X0058183Y0324501D01*
X0060215Y0322850D02*
X0061866Y0322850D01*
X0062416Y0323400D01*
X0062416Y0325602D01*
X0061866Y0326153D01*
X0060215Y0326153D01*
X0060215Y0322850D01*
X0060215Y0208653D02*
X0062416Y0208653D01*
X0061316Y0208653D02*
X0061316Y0205350D01*
X0058733Y0205350D02*
X0057632Y0206451D01*
X0058183Y0206451D02*
X0056531Y0206451D01*
X0056531Y0205350D02*
X0056531Y0208653D01*
X0058183Y0208653D01*
X0058733Y0208102D01*
X0058733Y0207001D01*
X0058183Y0206451D01*
X0055050Y0205900D02*
X0055050Y0208102D01*
X0054500Y0208653D01*
X0053399Y0208653D01*
X0052848Y0208102D01*
X0052848Y0205900D01*
X0053399Y0205350D01*
X0054500Y0205350D01*
X0055050Y0205900D01*
X0051367Y0207001D02*
X0051367Y0208102D01*
X0050817Y0208653D01*
X0049165Y0208653D01*
X0049165Y0205350D01*
X0049165Y0206451D02*
X0050817Y0206451D01*
X0051367Y0207001D01*
X0047684Y0204800D02*
X0045482Y0204800D01*
X0042900Y0205350D02*
X0042900Y0207001D01*
X0044001Y0208102D01*
X0044001Y0208653D01*
X0042900Y0207001D02*
X0041799Y0208102D01*
X0041799Y0208653D01*
X0040318Y0208102D02*
X0040318Y0207001D01*
X0039767Y0206451D01*
X0038116Y0206451D01*
X0039217Y0206451D02*
X0040318Y0205350D01*
X0038116Y0205350D02*
X0038116Y0208653D01*
X0039767Y0208653D01*
X0040318Y0208102D01*
X0036634Y0208653D02*
X0034433Y0208653D01*
X0034433Y0205350D01*
X0036634Y0205350D01*
X0035534Y0207001D02*
X0034433Y0207001D01*
X0032951Y0208653D02*
X0030749Y0208653D01*
X0031850Y0208653D02*
X0031850Y0205350D01*
X0028167Y0205350D02*
X0028167Y0208653D01*
X0027066Y0208653D02*
X0029268Y0208653D01*
X0025585Y0207552D02*
X0025585Y0205350D01*
X0025585Y0207001D02*
X0023383Y0207001D01*
X0023383Y0207552D02*
X0023383Y0205350D01*
X0021902Y0205900D02*
X0021351Y0205350D01*
X0019700Y0205350D01*
X0019700Y0208653D01*
X0021351Y0208653D01*
X0021902Y0208102D01*
X0021902Y0207552D01*
X0021351Y0207001D01*
X0019700Y0207001D01*
X0021351Y0207001D02*
X0021902Y0206451D01*
X0021902Y0205900D01*
X0023383Y0207552D02*
X0024484Y0208653D01*
X0025585Y0207552D01*
M02*
