G75*
%MOIN*%
%OFA0B0*%
%FSLAX25Y25*%
%IPPOS*%
%LPD*%
%AMOC8*
5,1,8,0,0,1.08239X$1,22.5*
%
%ADD10C,0.15000*%
%ADD11R,0.06500X0.25000*%
%ADD12OC8,0.10000*%
%ADD13R,0.10000X0.10000*%
%ADD14C,0.08000*%
%ADD15C,0.08000*%
%ADD16C,0.03569*%
D10*
X0187000Y0192500D03*
X0208500Y0192500D03*
X0230000Y0192500D03*
X0230000Y0317500D03*
X0208500Y0317500D03*
X0187000Y0317500D03*
D11*
X0186750Y0017500D03*
X0196750Y0017500D03*
X0206750Y0017500D03*
X0216750Y0017500D03*
X0226750Y0017500D03*
X0236750Y0017500D03*
X0246750Y0017500D03*
X0256750Y0017500D03*
X0266750Y0017500D03*
X0276750Y0017500D03*
X0286750Y0017500D03*
X0296750Y0017500D03*
X0306750Y0017500D03*
X0316750Y0017500D03*
X0326750Y0017500D03*
X0336750Y0017500D03*
X0176750Y0017500D03*
X0166750Y0017500D03*
X0156750Y0017500D03*
X0146750Y0017500D03*
X0136750Y0017500D03*
X0126750Y0017500D03*
X0116750Y0017500D03*
X0106750Y0017500D03*
X0096750Y0017500D03*
X0086750Y0017500D03*
X0076750Y0017500D03*
X0066750Y0017500D03*
D12*
X0095200Y0158500D03*
X0095200Y0175000D03*
X0095200Y0191500D03*
X0073500Y0191500D03*
X0073500Y0175000D03*
X0095200Y0276000D03*
X0095200Y0292500D03*
X0095200Y0309000D03*
X0073500Y0309000D03*
X0073500Y0292500D03*
X0301800Y0246500D03*
X0301800Y0230000D03*
X0301800Y0213500D03*
X0323500Y0213500D03*
X0323500Y0230000D03*
D13*
X0323500Y0246500D03*
X0073500Y0276000D03*
X0073500Y0158500D03*
D14*
X0123500Y0157500D03*
X0123500Y0127500D03*
X0123500Y0100000D03*
X0123500Y0070000D03*
X0158000Y0155000D03*
X0169000Y0155000D03*
X0123500Y0195000D03*
X0123500Y0225000D03*
X0123500Y0245000D03*
X0123500Y0275000D03*
X0298500Y0142500D03*
X0298500Y0117500D03*
X0328500Y0117500D03*
X0328500Y0142500D03*
D15*
X0009000Y0047500D02*
X0009000Y0378772D01*
X0011601Y0378075D01*
X0015399Y0378075D01*
X0019068Y0379058D01*
X0022357Y0380957D01*
X0025043Y0383643D01*
X0026942Y0386932D01*
X0027925Y0390601D01*
X0027925Y0394399D01*
X0027228Y0397000D01*
X0374772Y0397000D01*
X0374075Y0394399D01*
X0374075Y0390601D01*
X0375058Y0386932D01*
X0376957Y0383643D01*
X0379643Y0380957D01*
X0382932Y0379058D01*
X0386601Y0378075D01*
X0390399Y0378075D01*
X0391000Y0378236D01*
X0391000Y0047500D01*
X0009000Y0047500D01*
X0009000Y0052991D02*
X0391000Y0052991D01*
X0391000Y0060990D02*
X0009000Y0060990D01*
X0009000Y0068988D02*
X0114556Y0068988D01*
X0114500Y0069410D02*
X0114654Y0068240D01*
X0114959Y0067101D01*
X0115411Y0066011D01*
X0116001Y0064989D01*
X0116719Y0064053D01*
X0117553Y0063219D01*
X0118489Y0062501D01*
X0119511Y0061911D01*
X0120601Y0061459D01*
X0121740Y0061154D01*
X0122910Y0061000D01*
X0123500Y0061000D01*
X0124090Y0061000D01*
X0125260Y0061154D01*
X0126399Y0061459D01*
X0127489Y0061911D01*
X0128511Y0062501D01*
X0129447Y0063219D01*
X0130281Y0064053D01*
X0130999Y0064989D01*
X0131589Y0066011D01*
X0132041Y0067101D01*
X0132346Y0068240D01*
X0132500Y0069410D01*
X0132500Y0070000D01*
X0132500Y0070590D01*
X0132346Y0071760D01*
X0132041Y0072899D01*
X0131589Y0073989D01*
X0130999Y0075011D01*
X0130281Y0075947D01*
X0129447Y0076781D01*
X0128511Y0077499D01*
X0127489Y0078089D01*
X0126399Y0078541D01*
X0125260Y0078846D01*
X0124090Y0079000D01*
X0123500Y0079000D01*
X0123500Y0070000D01*
X0123500Y0070000D01*
X0132500Y0070000D01*
X0123500Y0070000D01*
X0123500Y0070000D01*
X0123500Y0070000D01*
X0114500Y0070000D01*
X0114500Y0070590D01*
X0114654Y0071760D01*
X0114959Y0072899D01*
X0115411Y0073989D01*
X0116001Y0075011D01*
X0116719Y0075947D01*
X0117553Y0076781D01*
X0118489Y0077499D01*
X0119511Y0078089D01*
X0120601Y0078541D01*
X0121740Y0078846D01*
X0122910Y0079000D01*
X0123500Y0079000D01*
X0123500Y0070000D01*
X0123500Y0061000D01*
X0123500Y0070000D01*
X0123500Y0070000D01*
X0114500Y0070000D01*
X0114500Y0069410D01*
X0117821Y0076987D02*
X0009000Y0076987D01*
X0009000Y0084985D02*
X0391000Y0084985D01*
X0391000Y0076987D02*
X0129179Y0076987D01*
X0123500Y0076987D02*
X0123500Y0076987D01*
X0123500Y0068988D02*
X0123500Y0068988D01*
X0132444Y0068988D02*
X0391000Y0068988D01*
X0391000Y0092984D02*
X0128929Y0092984D01*
X0128485Y0092540D02*
X0130960Y0095015D01*
X0132300Y0098250D01*
X0132300Y0101750D01*
X0130960Y0104985D01*
X0128485Y0107460D01*
X0125250Y0108800D01*
X0121750Y0108800D01*
X0118515Y0107460D01*
X0116040Y0104985D01*
X0114700Y0101750D01*
X0114700Y0098250D01*
X0116040Y0095015D01*
X0118515Y0092540D01*
X0121750Y0091200D01*
X0125250Y0091200D01*
X0128485Y0092540D01*
X0132300Y0100982D02*
X0391000Y0100982D01*
X0391000Y0108981D02*
X0331451Y0108981D01*
X0331399Y0108959D02*
X0332489Y0109411D01*
X0333511Y0110001D01*
X0334447Y0110719D01*
X0335281Y0111553D01*
X0335999Y0112489D01*
X0336589Y0113511D01*
X0337041Y0114601D01*
X0337346Y0115740D01*
X0337500Y0116910D01*
X0337500Y0117500D01*
X0337500Y0118090D01*
X0337346Y0119260D01*
X0337041Y0120399D01*
X0336589Y0121489D01*
X0335999Y0122511D01*
X0335281Y0123447D01*
X0334447Y0124281D01*
X0333511Y0124999D01*
X0332489Y0125589D01*
X0331399Y0126041D01*
X0330260Y0126346D01*
X0329090Y0126500D01*
X0328500Y0126500D01*
X0328500Y0117500D01*
X0337500Y0117500D01*
X0328500Y0117500D01*
X0328500Y0117500D01*
X0328500Y0117500D01*
X0328500Y0108500D01*
X0329090Y0108500D01*
X0330260Y0108654D01*
X0331399Y0108959D01*
X0328500Y0108981D02*
X0328500Y0108981D01*
X0328500Y0108500D02*
X0328500Y0117500D01*
X0328500Y0117500D01*
X0328500Y0117500D01*
X0319500Y0117500D01*
X0319500Y0118090D01*
X0319654Y0119260D01*
X0319959Y0120399D01*
X0320411Y0121489D01*
X0321001Y0122511D01*
X0321719Y0123447D01*
X0322553Y0124281D01*
X0323489Y0124999D01*
X0324511Y0125589D01*
X0325601Y0126041D01*
X0326740Y0126346D01*
X0327910Y0126500D01*
X0328500Y0126500D01*
X0328500Y0117500D01*
X0319500Y0117500D01*
X0319500Y0116910D01*
X0319654Y0115740D01*
X0319959Y0114601D01*
X0320411Y0113511D01*
X0321001Y0112489D01*
X0321719Y0111553D01*
X0322553Y0110719D01*
X0323489Y0110001D01*
X0324511Y0109411D01*
X0325601Y0108959D01*
X0326740Y0108654D01*
X0327910Y0108500D01*
X0328500Y0108500D01*
X0325549Y0108981D02*
X0300928Y0108981D01*
X0300250Y0108700D02*
X0303485Y0110040D01*
X0305960Y0112515D01*
X0307300Y0115750D01*
X0307300Y0119250D01*
X0305960Y0122485D01*
X0303485Y0124960D01*
X0300250Y0126300D01*
X0296750Y0126300D01*
X0293515Y0124960D01*
X0291040Y0122485D01*
X0289700Y0119250D01*
X0289700Y0115750D01*
X0291040Y0112515D01*
X0293515Y0110040D01*
X0296750Y0108700D01*
X0300250Y0108700D01*
X0296072Y0108981D02*
X0009000Y0108981D01*
X0009000Y0116979D02*
X0289700Y0116979D01*
X0293557Y0124978D02*
X0131980Y0124978D01*
X0132300Y0125750D02*
X0130960Y0122515D01*
X0128485Y0120040D01*
X0125250Y0118700D01*
X0121750Y0118700D01*
X0118515Y0120040D01*
X0116040Y0122515D01*
X0114700Y0125750D01*
X0114700Y0129250D01*
X0116040Y0132485D01*
X0118515Y0134960D01*
X0121750Y0136300D01*
X0125250Y0136300D01*
X0128485Y0134960D01*
X0130960Y0132485D01*
X0132300Y0129250D01*
X0132300Y0125750D01*
X0130469Y0132976D02*
X0391000Y0132976D01*
X0391000Y0124978D02*
X0333539Y0124978D01*
X0328500Y0124978D02*
X0328500Y0124978D01*
X0323461Y0124978D02*
X0303443Y0124978D01*
X0307300Y0116979D02*
X0319500Y0116979D01*
X0328500Y0116979D02*
X0328500Y0116979D01*
X0337500Y0116979D02*
X0391000Y0116979D01*
X0391000Y0140975D02*
X0337377Y0140975D01*
X0337346Y0140740D02*
X0337500Y0141910D01*
X0337500Y0142500D01*
X0337500Y0143090D01*
X0337346Y0144260D01*
X0337041Y0145399D01*
X0336589Y0146489D01*
X0335999Y0147511D01*
X0335281Y0148447D01*
X0334447Y0149281D01*
X0333511Y0149999D01*
X0332489Y0150589D01*
X0331399Y0151041D01*
X0330260Y0151346D01*
X0329090Y0151500D01*
X0328500Y0151500D01*
X0328500Y0142500D01*
X0337500Y0142500D01*
X0328500Y0142500D01*
X0328500Y0142500D01*
X0328500Y0142500D01*
X0328500Y0133500D01*
X0329090Y0133500D01*
X0330260Y0133654D01*
X0331399Y0133959D01*
X0332489Y0134411D01*
X0333511Y0135001D01*
X0334447Y0135719D01*
X0335281Y0136553D01*
X0335999Y0137489D01*
X0336589Y0138511D01*
X0337041Y0139601D01*
X0337346Y0140740D01*
X0334755Y0148973D02*
X0391000Y0148973D01*
X0391000Y0156972D02*
X0177708Y0156972D01*
X0177800Y0156750D02*
X0176460Y0159985D01*
X0173985Y0162460D01*
X0170750Y0163800D01*
X0167250Y0163800D01*
X0164015Y0162460D01*
X0163601Y0162046D01*
X0163011Y0162499D01*
X0161989Y0163089D01*
X0160899Y0163541D01*
X0159760Y0163846D01*
X0158590Y0164000D01*
X0158000Y0164000D01*
X0158000Y0155000D01*
X0158000Y0155000D01*
X0158000Y0164000D01*
X0157410Y0164000D01*
X0156240Y0163846D01*
X0155101Y0163541D01*
X0154011Y0163089D01*
X0152989Y0162499D01*
X0152053Y0161781D01*
X0151219Y0160947D01*
X0150501Y0160011D01*
X0149911Y0158989D01*
X0149459Y0157899D01*
X0149154Y0156760D01*
X0149000Y0155590D01*
X0149000Y0155000D01*
X0158000Y0155000D01*
X0158000Y0146000D01*
X0158590Y0146000D01*
X0159760Y0146154D01*
X0160899Y0146459D01*
X0161989Y0146911D01*
X0163011Y0147501D01*
X0163601Y0147954D01*
X0164015Y0147540D01*
X0167250Y0146200D01*
X0170750Y0146200D01*
X0173985Y0147540D01*
X0176460Y0150015D01*
X0177800Y0153250D01*
X0177800Y0156750D01*
X0175418Y0148973D02*
X0292528Y0148973D01*
X0293515Y0149960D02*
X0291040Y0147485D01*
X0289700Y0144250D01*
X0289700Y0140750D01*
X0291040Y0137515D01*
X0293515Y0135040D01*
X0296750Y0133700D01*
X0300250Y0133700D01*
X0303485Y0135040D01*
X0305960Y0137515D01*
X0307300Y0140750D01*
X0307300Y0144250D01*
X0305960Y0147485D01*
X0303485Y0149960D01*
X0300250Y0151300D01*
X0296750Y0151300D01*
X0293515Y0149960D01*
X0289700Y0140975D02*
X0009000Y0140975D01*
X0009000Y0148973D02*
X0034621Y0148973D01*
X0033633Y0149962D02*
X0036222Y0147373D01*
X0039393Y0145542D01*
X0042929Y0144594D01*
X0046591Y0144594D01*
X0050127Y0145542D01*
X0053298Y0147373D01*
X0055887Y0149962D01*
X0057718Y0153133D01*
X0058665Y0156669D01*
X0058665Y0160331D01*
X0057718Y0163867D01*
X0055887Y0167038D01*
X0053298Y0169627D01*
X0050127Y0171458D01*
X0046591Y0172405D01*
X0042929Y0172405D01*
X0039393Y0171458D01*
X0036222Y0169627D01*
X0033633Y0167038D01*
X0031802Y0163867D01*
X0030854Y0160331D01*
X0030854Y0156669D01*
X0031802Y0153133D01*
X0033633Y0149962D01*
X0030854Y0156972D02*
X0009000Y0156972D01*
X0009000Y0164970D02*
X0032439Y0164970D01*
X0039393Y0178542D02*
X0042929Y0177594D01*
X0046591Y0177594D01*
X0050127Y0178542D01*
X0053298Y0180373D01*
X0055887Y0182962D01*
X0057718Y0186133D01*
X0058665Y0189669D01*
X0058665Y0193331D01*
X0057718Y0196867D01*
X0055887Y0200038D01*
X0053298Y0202627D01*
X0050127Y0204458D01*
X0046591Y0205405D01*
X0042929Y0205405D01*
X0039393Y0204458D01*
X0036222Y0202627D01*
X0033633Y0200038D01*
X0031802Y0196867D01*
X0030854Y0193331D01*
X0030854Y0189669D01*
X0031802Y0186133D01*
X0033633Y0182962D01*
X0036222Y0180373D01*
X0039393Y0178542D01*
X0035627Y0180967D02*
X0009000Y0180967D01*
X0009000Y0172969D02*
X0063500Y0172969D01*
X0063500Y0175000D02*
X0063500Y0170858D01*
X0066345Y0168013D01*
X0065879Y0167776D01*
X0065243Y0167314D01*
X0064686Y0166757D01*
X0064224Y0166121D01*
X0063866Y0165419D01*
X0063623Y0164671D01*
X0063500Y0163894D01*
X0063500Y0158500D01*
X0073500Y0158500D01*
X0083500Y0158500D01*
X0083500Y0163894D01*
X0083377Y0164671D01*
X0083134Y0165419D01*
X0082776Y0166121D01*
X0082314Y0166757D01*
X0081757Y0167314D01*
X0081121Y0167776D01*
X0080655Y0168013D01*
X0083500Y0170858D01*
X0083500Y0175000D01*
X0083500Y0179142D01*
X0079392Y0183250D01*
X0083500Y0187358D01*
X0083500Y0191500D01*
X0083500Y0195642D01*
X0077642Y0201500D01*
X0073500Y0201500D01*
X0073500Y0191500D01*
X0073500Y0191500D01*
X0083500Y0191500D01*
X0073500Y0191500D01*
X0073500Y0191500D01*
X0073500Y0191500D01*
X0063500Y0191500D01*
X0063500Y0195642D01*
X0069358Y0201500D01*
X0073500Y0201500D01*
X0073500Y0191500D01*
X0073500Y0175000D01*
X0083500Y0175000D01*
X0073500Y0175000D01*
X0073500Y0175000D01*
X0073500Y0175000D01*
X0073500Y0175000D01*
X0063500Y0175000D01*
X0063500Y0179142D01*
X0067608Y0183250D01*
X0063500Y0187358D01*
X0063500Y0191500D01*
X0073500Y0191500D01*
X0073500Y0191500D01*
X0073500Y0181500D01*
X0073500Y0175000D01*
X0073500Y0158500D01*
X0073500Y0158500D01*
X0073500Y0158500D01*
X0073500Y0158500D01*
X0083500Y0158500D01*
X0083500Y0153106D01*
X0083377Y0152329D01*
X0083134Y0151581D01*
X0082776Y0150879D01*
X0082314Y0150243D01*
X0081757Y0149686D01*
X0081121Y0149224D01*
X0080419Y0148866D01*
X0079671Y0148623D01*
X0078894Y0148500D01*
X0073500Y0148500D01*
X0073500Y0158500D01*
X0073500Y0158500D01*
X0073500Y0168500D01*
X0073500Y0175000D01*
X0073500Y0175000D01*
X0063500Y0175000D01*
X0065325Y0180967D02*
X0053892Y0180967D01*
X0058477Y0188966D02*
X0063500Y0188966D01*
X0064822Y0196964D02*
X0057662Y0196964D01*
X0048243Y0204963D02*
X0296478Y0204963D01*
X0297741Y0203700D02*
X0292000Y0209441D01*
X0292000Y0217559D01*
X0296191Y0221750D01*
X0292000Y0225941D01*
X0292000Y0234059D01*
X0296191Y0238250D01*
X0292000Y0242441D01*
X0292000Y0250559D01*
X0297741Y0256300D01*
X0305859Y0256300D01*
X0311600Y0250559D01*
X0311600Y0242441D01*
X0307409Y0238250D01*
X0311600Y0234059D01*
X0311600Y0225941D01*
X0307409Y0221750D01*
X0311600Y0217559D01*
X0311600Y0209441D01*
X0305859Y0203700D01*
X0297741Y0203700D01*
X0307122Y0204963D02*
X0317895Y0204963D01*
X0319358Y0203500D02*
X0323500Y0203500D01*
X0327642Y0203500D01*
X0333500Y0209358D01*
X0333500Y0213500D01*
X0333500Y0217642D01*
X0329392Y0221750D01*
X0333500Y0225858D01*
X0333500Y0230000D01*
X0333500Y0234142D01*
X0330655Y0236987D01*
X0331121Y0237224D01*
X0331757Y0237686D01*
X0332314Y0238243D01*
X0332776Y0238879D01*
X0333134Y0239581D01*
X0333377Y0240329D01*
X0333500Y0241106D01*
X0333500Y0246500D01*
X0333500Y0251894D01*
X0333377Y0252671D01*
X0333134Y0253419D01*
X0332776Y0254121D01*
X0332314Y0254757D01*
X0331757Y0255314D01*
X0331121Y0255776D01*
X0330419Y0256134D01*
X0329671Y0256377D01*
X0328894Y0256500D01*
X0323500Y0256500D01*
X0323500Y0246500D01*
X0333500Y0246500D01*
X0323500Y0246500D01*
X0323500Y0246500D01*
X0323500Y0246500D01*
X0323500Y0246500D01*
X0313500Y0246500D01*
X0313500Y0251894D01*
X0313623Y0252671D01*
X0313866Y0253419D01*
X0314224Y0254121D01*
X0314686Y0254757D01*
X0315243Y0255314D01*
X0315879Y0255776D01*
X0316581Y0256134D01*
X0317329Y0256377D01*
X0318106Y0256500D01*
X0323500Y0256500D01*
X0323500Y0246500D01*
X0323500Y0236500D01*
X0323500Y0230000D01*
X0333500Y0230000D01*
X0323500Y0230000D01*
X0323500Y0230000D01*
X0323500Y0230000D01*
X0323500Y0230000D01*
X0313500Y0230000D01*
X0313500Y0234142D01*
X0316345Y0236987D01*
X0315879Y0237224D01*
X0315243Y0237686D01*
X0314686Y0238243D01*
X0314224Y0238879D01*
X0313866Y0239581D01*
X0313623Y0240329D01*
X0313500Y0241106D01*
X0313500Y0246500D01*
X0323500Y0246500D01*
X0323500Y0246500D01*
X0323500Y0230000D01*
X0323500Y0220000D01*
X0323500Y0213500D01*
X0333500Y0213500D01*
X0323500Y0213500D01*
X0323500Y0213500D01*
X0323500Y0213500D01*
X0323500Y0203500D01*
X0323500Y0213500D01*
X0323500Y0213500D01*
X0323500Y0213500D01*
X0313500Y0213500D01*
X0313500Y0217642D01*
X0317608Y0221750D01*
X0313500Y0225858D01*
X0313500Y0230000D01*
X0323500Y0230000D01*
X0323500Y0230000D01*
X0323500Y0213500D01*
X0313500Y0213500D01*
X0313500Y0209358D01*
X0319358Y0203500D01*
X0323500Y0204963D02*
X0323500Y0204963D01*
X0329105Y0204963D02*
X0341112Y0204963D01*
X0341113Y0204962D02*
X0343702Y0202373D01*
X0346873Y0200542D01*
X0350409Y0199594D01*
X0354071Y0199594D01*
X0357607Y0200542D01*
X0360778Y0202373D01*
X0363367Y0204962D01*
X0365198Y0208133D01*
X0366146Y0211669D01*
X0366146Y0215331D01*
X0365198Y0218867D01*
X0363367Y0222038D01*
X0360778Y0224627D01*
X0357607Y0226458D01*
X0354071Y0227405D01*
X0350409Y0227405D01*
X0346873Y0226458D01*
X0343702Y0224627D01*
X0341113Y0222038D01*
X0339282Y0218867D01*
X0338335Y0215331D01*
X0338335Y0211669D01*
X0339282Y0208133D01*
X0341113Y0204962D01*
X0338335Y0212961D02*
X0333500Y0212961D01*
X0330182Y0220960D02*
X0340490Y0220960D01*
X0333500Y0228958D02*
X0391000Y0228958D01*
X0391000Y0220960D02*
X0363990Y0220960D01*
X0366146Y0212961D02*
X0391000Y0212961D01*
X0391000Y0204963D02*
X0363368Y0204963D01*
X0391000Y0196964D02*
X0241538Y0196964D01*
X0241462Y0197248D02*
X0239842Y0200052D01*
X0237552Y0202342D01*
X0234748Y0203962D01*
X0231619Y0204800D01*
X0228381Y0204800D01*
X0225252Y0203962D01*
X0222448Y0202342D01*
X0220158Y0200052D01*
X0219250Y0198480D01*
X0218342Y0200052D01*
X0216052Y0202342D01*
X0213248Y0203962D01*
X0210119Y0204800D01*
X0206881Y0204800D01*
X0203752Y0203962D01*
X0200948Y0202342D01*
X0198658Y0200052D01*
X0197750Y0198480D01*
X0196842Y0200052D01*
X0194552Y0202342D01*
X0191748Y0203962D01*
X0188619Y0204800D01*
X0185381Y0204800D01*
X0182252Y0203962D01*
X0179448Y0202342D01*
X0177158Y0200052D01*
X0175538Y0197248D01*
X0174700Y0194119D01*
X0174700Y0190881D01*
X0175538Y0187752D01*
X0177158Y0184948D01*
X0179448Y0182658D01*
X0182252Y0181038D01*
X0185381Y0180200D01*
X0188619Y0180200D01*
X0191748Y0181038D01*
X0194552Y0182658D01*
X0196842Y0184948D01*
X0197750Y0186520D01*
X0198658Y0184948D01*
X0200948Y0182658D01*
X0203752Y0181038D01*
X0206881Y0180200D01*
X0210119Y0180200D01*
X0213248Y0181038D01*
X0216052Y0182658D01*
X0218342Y0184948D01*
X0219250Y0186520D01*
X0220158Y0184948D01*
X0222448Y0182658D01*
X0225252Y0181038D01*
X0228381Y0180200D01*
X0231619Y0180200D01*
X0234748Y0181038D01*
X0237552Y0182658D01*
X0239842Y0184948D01*
X0241462Y0187752D01*
X0242300Y0190881D01*
X0242300Y0194119D01*
X0241462Y0197248D01*
X0241787Y0188966D02*
X0391000Y0188966D01*
X0391000Y0180967D02*
X0234483Y0180967D01*
X0225517Y0180967D02*
X0212983Y0180967D01*
X0204017Y0180967D02*
X0191483Y0180967D01*
X0182517Y0180967D02*
X0103092Y0180967D01*
X0105000Y0179059D02*
X0100809Y0183250D01*
X0105000Y0187441D01*
X0105000Y0195559D01*
X0099259Y0201300D01*
X0091141Y0201300D01*
X0085400Y0195559D01*
X0085400Y0187441D01*
X0089591Y0183250D01*
X0085400Y0179059D01*
X0085400Y0170941D01*
X0089591Y0166750D01*
X0085400Y0162559D01*
X0085400Y0154441D01*
X0091141Y0148700D01*
X0099259Y0148700D01*
X0105000Y0154441D01*
X0105000Y0162559D01*
X0100809Y0166750D01*
X0105000Y0170941D01*
X0105000Y0179059D01*
X0105000Y0172969D02*
X0391000Y0172969D01*
X0391000Y0164970D02*
X0128461Y0164970D01*
X0128485Y0164960D02*
X0125250Y0166300D01*
X0121750Y0166300D01*
X0118515Y0164960D01*
X0116040Y0162485D01*
X0114700Y0159250D01*
X0114700Y0155750D01*
X0116040Y0152515D01*
X0118515Y0150040D01*
X0121750Y0148700D01*
X0125250Y0148700D01*
X0128485Y0150040D01*
X0130960Y0152515D01*
X0132300Y0155750D01*
X0132300Y0159250D01*
X0130960Y0162485D01*
X0128485Y0164960D01*
X0132300Y0156972D02*
X0149211Y0156972D01*
X0149000Y0155000D02*
X0149000Y0154410D01*
X0149154Y0153240D01*
X0149459Y0152101D01*
X0149911Y0151011D01*
X0150501Y0149989D01*
X0151219Y0149053D01*
X0152053Y0148219D01*
X0152989Y0147501D01*
X0154011Y0146911D01*
X0155101Y0146459D01*
X0156240Y0146154D01*
X0157410Y0146000D01*
X0158000Y0146000D01*
X0158000Y0155000D01*
X0158000Y0155000D01*
X0158000Y0155000D01*
X0149000Y0155000D01*
X0151299Y0148973D02*
X0125910Y0148973D01*
X0121090Y0148973D02*
X0099532Y0148973D01*
X0090868Y0148973D02*
X0080629Y0148973D01*
X0073500Y0148973D02*
X0073500Y0148973D01*
X0073500Y0148500D02*
X0073500Y0158500D01*
X0063500Y0158500D01*
X0063500Y0153106D01*
X0063623Y0152329D01*
X0063866Y0151581D01*
X0064224Y0150879D01*
X0064686Y0150243D01*
X0065243Y0149686D01*
X0065879Y0149224D01*
X0066581Y0148866D01*
X0067329Y0148623D01*
X0068106Y0148500D01*
X0073500Y0148500D01*
X0066371Y0148973D02*
X0054898Y0148973D01*
X0058665Y0156972D02*
X0063500Y0156972D01*
X0063720Y0164970D02*
X0057081Y0164970D01*
X0073500Y0164970D02*
X0073500Y0164970D01*
X0073500Y0156972D02*
X0073500Y0156972D01*
X0083500Y0156972D02*
X0085400Y0156972D01*
X0083280Y0164970D02*
X0087811Y0164970D01*
X0085400Y0172969D02*
X0083500Y0172969D01*
X0081675Y0180967D02*
X0087308Y0180967D01*
X0085400Y0188966D02*
X0083500Y0188966D01*
X0082178Y0196964D02*
X0086805Y0196964D01*
X0073500Y0196964D02*
X0073500Y0196964D01*
X0073500Y0188966D02*
X0073500Y0188966D01*
X0073500Y0180967D02*
X0073500Y0180967D01*
X0073500Y0172969D02*
X0073500Y0172969D01*
X0102589Y0164970D02*
X0118539Y0164970D01*
X0114700Y0156972D02*
X0105000Y0156972D01*
X0116531Y0132976D02*
X0009000Y0132976D01*
X0009000Y0124978D02*
X0115020Y0124978D01*
X0114700Y0100982D02*
X0009000Y0100982D01*
X0009000Y0092984D02*
X0118071Y0092984D01*
X0158000Y0148973D02*
X0158000Y0148973D01*
X0158000Y0156972D02*
X0158000Y0156972D01*
X0175213Y0188966D02*
X0130194Y0188966D01*
X0130281Y0189053D02*
X0130999Y0189989D01*
X0131589Y0191011D01*
X0132041Y0192101D01*
X0132346Y0193240D01*
X0132500Y0194410D01*
X0132500Y0195000D01*
X0132500Y0195590D01*
X0132346Y0196760D01*
X0132041Y0197899D01*
X0131589Y0198989D01*
X0130999Y0200011D01*
X0130281Y0200947D01*
X0129447Y0201781D01*
X0128511Y0202499D01*
X0127489Y0203089D01*
X0126399Y0203541D01*
X0125260Y0203846D01*
X0124090Y0204000D01*
X0123500Y0204000D01*
X0123500Y0195000D01*
X0123500Y0195000D01*
X0132500Y0195000D01*
X0123500Y0195000D01*
X0123500Y0195000D01*
X0123500Y0195000D01*
X0114500Y0195000D01*
X0114500Y0195590D01*
X0114654Y0196760D01*
X0114959Y0197899D01*
X0115411Y0198989D01*
X0116001Y0200011D01*
X0116719Y0200947D01*
X0117553Y0201781D01*
X0118489Y0202499D01*
X0119511Y0203089D01*
X0120601Y0203541D01*
X0121740Y0203846D01*
X0122910Y0204000D01*
X0123500Y0204000D01*
X0123500Y0195000D01*
X0123500Y0186000D01*
X0124090Y0186000D01*
X0125260Y0186154D01*
X0126399Y0186459D01*
X0127489Y0186911D01*
X0128511Y0187501D01*
X0129447Y0188219D01*
X0130281Y0189053D01*
X0123500Y0188966D02*
X0123500Y0188966D01*
X0123500Y0186000D02*
X0123500Y0195000D01*
X0123500Y0195000D01*
X0114500Y0195000D01*
X0114500Y0194410D01*
X0114654Y0193240D01*
X0114959Y0192101D01*
X0115411Y0191011D01*
X0116001Y0189989D01*
X0116719Y0189053D01*
X0117553Y0188219D01*
X0118489Y0187501D01*
X0119511Y0186911D01*
X0120601Y0186459D01*
X0121740Y0186154D01*
X0122910Y0186000D01*
X0123500Y0186000D01*
X0116806Y0188966D02*
X0105000Y0188966D01*
X0103595Y0196964D02*
X0114709Y0196964D01*
X0123500Y0196964D02*
X0123500Y0196964D01*
X0132291Y0196964D02*
X0175462Y0196964D01*
X0130960Y0220015D02*
X0132300Y0223250D01*
X0132300Y0226750D01*
X0130960Y0229985D01*
X0128485Y0232460D01*
X0125250Y0233800D01*
X0121750Y0233800D01*
X0118515Y0232460D01*
X0116040Y0229985D01*
X0114700Y0226750D01*
X0114700Y0223250D01*
X0116040Y0220015D01*
X0118515Y0217540D01*
X0121750Y0216200D01*
X0125250Y0216200D01*
X0128485Y0217540D01*
X0130960Y0220015D01*
X0131352Y0220960D02*
X0295401Y0220960D01*
X0292000Y0228958D02*
X0131385Y0228958D01*
X0128485Y0237540D02*
X0130960Y0240015D01*
X0132300Y0243250D01*
X0132300Y0246750D01*
X0130960Y0249985D01*
X0128485Y0252460D01*
X0125250Y0253800D01*
X0121750Y0253800D01*
X0118515Y0252460D01*
X0116040Y0249985D01*
X0114700Y0246750D01*
X0114700Y0243250D01*
X0116040Y0240015D01*
X0118515Y0237540D01*
X0121750Y0236200D01*
X0125250Y0236200D01*
X0128485Y0237540D01*
X0127078Y0236957D02*
X0294898Y0236957D01*
X0292000Y0244955D02*
X0132300Y0244955D01*
X0127293Y0252954D02*
X0294395Y0252954D01*
X0309205Y0252954D02*
X0313715Y0252954D01*
X0313500Y0244955D02*
X0311600Y0244955D01*
X0308702Y0236957D02*
X0316315Y0236957D01*
X0323500Y0236957D02*
X0323500Y0236957D01*
X0330685Y0236957D02*
X0342118Y0236957D01*
X0341113Y0237962D02*
X0339282Y0241133D01*
X0338335Y0244669D01*
X0338335Y0248331D01*
X0339282Y0251867D01*
X0341113Y0255038D01*
X0343702Y0257627D01*
X0346873Y0259458D01*
X0350409Y0260405D01*
X0354071Y0260405D01*
X0357607Y0259458D01*
X0360778Y0257627D01*
X0363367Y0255038D01*
X0365198Y0251867D01*
X0366146Y0248331D01*
X0366146Y0244669D01*
X0365198Y0241133D01*
X0363367Y0237962D01*
X0360778Y0235373D01*
X0357607Y0233542D01*
X0354071Y0232594D01*
X0350409Y0232594D01*
X0346873Y0233542D01*
X0343702Y0235373D01*
X0341113Y0237962D01*
X0338335Y0244955D02*
X0333500Y0244955D01*
X0333285Y0252954D02*
X0339910Y0252954D01*
X0323500Y0252954D02*
X0323500Y0252954D01*
X0323500Y0244955D02*
X0323500Y0244955D01*
X0323500Y0228958D02*
X0323500Y0228958D01*
X0323500Y0220960D02*
X0323500Y0220960D01*
X0316818Y0220960D02*
X0308199Y0220960D01*
X0311600Y0228958D02*
X0313500Y0228958D01*
X0313500Y0212961D02*
X0311600Y0212961D01*
X0323500Y0212961D02*
X0323500Y0212961D01*
X0292000Y0212961D02*
X0009000Y0212961D01*
X0009000Y0204963D02*
X0041277Y0204963D01*
X0031858Y0196964D02*
X0009000Y0196964D01*
X0009000Y0188966D02*
X0031043Y0188966D01*
X0009000Y0220960D02*
X0115648Y0220960D01*
X0115615Y0228958D02*
X0009000Y0228958D01*
X0009000Y0236957D02*
X0119922Y0236957D01*
X0114700Y0244955D02*
X0009000Y0244955D01*
X0009000Y0252954D02*
X0119707Y0252954D01*
X0121750Y0266200D02*
X0118515Y0267540D01*
X0116040Y0270015D01*
X0114700Y0273250D01*
X0114700Y0276750D01*
X0116040Y0279985D01*
X0118515Y0282460D01*
X0121750Y0283800D01*
X0125250Y0283800D01*
X0128485Y0282460D01*
X0130960Y0279985D01*
X0132300Y0276750D01*
X0132300Y0273250D01*
X0130960Y0270015D01*
X0128485Y0267540D01*
X0125250Y0266200D01*
X0121750Y0266200D01*
X0117104Y0268951D02*
X0102010Y0268951D01*
X0099259Y0266200D02*
X0105000Y0271941D01*
X0105000Y0280059D01*
X0100809Y0284250D01*
X0105000Y0288441D01*
X0105000Y0296559D01*
X0100809Y0300750D01*
X0105000Y0304941D01*
X0105000Y0313059D01*
X0099259Y0318800D01*
X0091141Y0318800D01*
X0085400Y0313059D01*
X0085400Y0304941D01*
X0089591Y0300750D01*
X0085400Y0296559D01*
X0085400Y0288441D01*
X0089591Y0284250D01*
X0085400Y0280059D01*
X0085400Y0271941D01*
X0091141Y0266200D01*
X0099259Y0266200D01*
X0088390Y0268951D02*
X0083068Y0268951D01*
X0083134Y0269081D02*
X0083377Y0269829D01*
X0083500Y0270606D01*
X0083500Y0276000D01*
X0083500Y0281394D01*
X0083377Y0282171D01*
X0083134Y0282919D01*
X0082776Y0283621D01*
X0082314Y0284257D01*
X0081757Y0284814D01*
X0081121Y0285276D01*
X0080655Y0285513D01*
X0083500Y0288358D01*
X0083500Y0292500D01*
X0083500Y0296642D01*
X0079392Y0300750D01*
X0083500Y0304858D01*
X0083500Y0309000D01*
X0083500Y0313142D01*
X0077642Y0319000D01*
X0073500Y0319000D01*
X0073500Y0309000D01*
X0073500Y0309000D01*
X0083500Y0309000D01*
X0073500Y0309000D01*
X0073500Y0309000D01*
X0073500Y0309000D01*
X0063500Y0309000D01*
X0063500Y0313142D01*
X0069358Y0319000D01*
X0073500Y0319000D01*
X0073500Y0309000D01*
X0073500Y0292500D01*
X0083500Y0292500D01*
X0073500Y0292500D01*
X0073500Y0292500D01*
X0073500Y0292500D01*
X0073500Y0292500D01*
X0063500Y0292500D01*
X0063500Y0296642D01*
X0067608Y0300750D01*
X0063500Y0304858D01*
X0063500Y0309000D01*
X0073500Y0309000D01*
X0073500Y0309000D01*
X0073500Y0302500D01*
X0073500Y0292500D01*
X0073500Y0276000D01*
X0083500Y0276000D01*
X0073500Y0276000D01*
X0073500Y0276000D01*
X0073500Y0276000D01*
X0073500Y0276000D01*
X0063500Y0276000D01*
X0063500Y0281394D01*
X0063623Y0282171D01*
X0063866Y0282919D01*
X0064224Y0283621D01*
X0064686Y0284257D01*
X0065243Y0284814D01*
X0065879Y0285276D01*
X0066345Y0285513D01*
X0063500Y0288358D01*
X0063500Y0292500D01*
X0073500Y0292500D01*
X0073500Y0292500D01*
X0073500Y0286000D01*
X0073500Y0276000D01*
X0073500Y0266000D01*
X0078894Y0266000D01*
X0079671Y0266123D01*
X0080419Y0266366D01*
X0081121Y0266724D01*
X0081757Y0267186D01*
X0082314Y0267743D01*
X0082776Y0268379D01*
X0083134Y0269081D01*
X0083500Y0276949D02*
X0085400Y0276949D01*
X0088893Y0284948D02*
X0081573Y0284948D01*
X0073500Y0284948D02*
X0073500Y0284948D01*
X0073500Y0292946D02*
X0073500Y0292946D01*
X0073500Y0300945D02*
X0073500Y0300945D01*
X0079587Y0300945D02*
X0089396Y0300945D01*
X0085400Y0308943D02*
X0083500Y0308943D01*
X0079700Y0316942D02*
X0089283Y0316942D01*
X0101117Y0316942D02*
X0174700Y0316942D01*
X0174700Y0315881D02*
X0174700Y0319119D01*
X0175538Y0322248D01*
X0177158Y0325052D01*
X0179448Y0327342D01*
X0182252Y0328962D01*
X0185381Y0329800D01*
X0188619Y0329800D01*
X0191748Y0328962D01*
X0194552Y0327342D01*
X0196842Y0325052D01*
X0197750Y0323480D01*
X0198658Y0325052D01*
X0200948Y0327342D01*
X0203752Y0328962D01*
X0206881Y0329800D01*
X0210119Y0329800D01*
X0213248Y0328962D01*
X0216052Y0327342D01*
X0218342Y0325052D01*
X0219250Y0323480D01*
X0220158Y0325052D01*
X0222448Y0327342D01*
X0225252Y0328962D01*
X0228381Y0329800D01*
X0231619Y0329800D01*
X0234748Y0328962D01*
X0237552Y0327342D01*
X0239842Y0325052D01*
X0241462Y0322248D01*
X0242300Y0319119D01*
X0242300Y0315881D01*
X0241462Y0312752D01*
X0239842Y0309948D01*
X0237552Y0307658D01*
X0234748Y0306038D01*
X0231619Y0305200D01*
X0228381Y0305200D01*
X0225252Y0306038D01*
X0222448Y0307658D01*
X0220158Y0309948D01*
X0219250Y0311520D01*
X0218342Y0309948D01*
X0216052Y0307658D01*
X0213248Y0306038D01*
X0210119Y0305200D01*
X0206881Y0305200D01*
X0203752Y0306038D01*
X0200948Y0307658D01*
X0198658Y0309948D01*
X0197750Y0311520D01*
X0196842Y0309948D01*
X0194552Y0307658D01*
X0191748Y0306038D01*
X0188619Y0305200D01*
X0185381Y0305200D01*
X0182252Y0306038D01*
X0179448Y0307658D01*
X0177158Y0309948D01*
X0175538Y0312752D01*
X0174700Y0315881D01*
X0178162Y0308943D02*
X0105000Y0308943D01*
X0101004Y0300945D02*
X0391000Y0300945D01*
X0391000Y0308943D02*
X0238838Y0308943D01*
X0242300Y0316942D02*
X0391000Y0316942D01*
X0391000Y0324940D02*
X0239907Y0324940D01*
X0221162Y0308943D02*
X0217338Y0308943D01*
X0218407Y0324940D02*
X0220093Y0324940D01*
X0198593Y0324940D02*
X0196907Y0324940D01*
X0195838Y0308943D02*
X0199662Y0308943D01*
X0177093Y0324940D02*
X0009000Y0324940D01*
X0009000Y0316942D02*
X0033288Y0316942D01*
X0033633Y0317538D02*
X0031802Y0314367D01*
X0030854Y0310831D01*
X0030854Y0307169D01*
X0031802Y0303633D01*
X0033633Y0300462D01*
X0036222Y0297873D01*
X0039393Y0296042D01*
X0042929Y0295094D01*
X0046591Y0295094D01*
X0050127Y0296042D01*
X0053298Y0297873D01*
X0055887Y0300462D01*
X0057718Y0303633D01*
X0058665Y0307169D01*
X0058665Y0310831D01*
X0057718Y0314367D01*
X0055887Y0317538D01*
X0053298Y0320127D01*
X0050127Y0321958D01*
X0046591Y0322905D01*
X0042929Y0322905D01*
X0039393Y0321958D01*
X0036222Y0320127D01*
X0033633Y0317538D01*
X0030854Y0308943D02*
X0009000Y0308943D01*
X0009000Y0300945D02*
X0033354Y0300945D01*
X0039393Y0288958D02*
X0036222Y0287127D01*
X0033633Y0284538D01*
X0031802Y0281367D01*
X0030854Y0277831D01*
X0030854Y0274169D01*
X0031802Y0270633D01*
X0033633Y0267462D01*
X0036222Y0264873D01*
X0039393Y0263042D01*
X0042929Y0262094D01*
X0046591Y0262094D01*
X0050127Y0263042D01*
X0053298Y0264873D01*
X0055887Y0267462D01*
X0057718Y0270633D01*
X0058665Y0274169D01*
X0058665Y0277831D01*
X0057718Y0281367D01*
X0055887Y0284538D01*
X0053298Y0287127D01*
X0050127Y0288958D01*
X0046591Y0289905D01*
X0042929Y0289905D01*
X0039393Y0288958D01*
X0034042Y0284948D02*
X0009000Y0284948D01*
X0009000Y0292946D02*
X0063500Y0292946D01*
X0065427Y0284948D02*
X0055477Y0284948D01*
X0058665Y0276949D02*
X0063500Y0276949D01*
X0063500Y0276000D02*
X0063500Y0270606D01*
X0063623Y0269829D01*
X0063866Y0269081D01*
X0064224Y0268379D01*
X0064686Y0267743D01*
X0065243Y0267186D01*
X0065879Y0266724D01*
X0066581Y0266366D01*
X0067329Y0266123D01*
X0068106Y0266000D01*
X0073500Y0266000D01*
X0073500Y0276000D01*
X0073500Y0276000D01*
X0063500Y0276000D01*
X0063932Y0268951D02*
X0056747Y0268951D01*
X0073500Y0268951D02*
X0073500Y0268951D01*
X0073500Y0276949D02*
X0073500Y0276949D01*
X0083500Y0292946D02*
X0085400Y0292946D01*
X0101507Y0284948D02*
X0391000Y0284948D01*
X0391000Y0292946D02*
X0105000Y0292946D01*
X0105000Y0276949D02*
X0114782Y0276949D01*
X0129896Y0268951D02*
X0391000Y0268951D01*
X0391000Y0276949D02*
X0132218Y0276949D01*
X0073500Y0308943D02*
X0073500Y0308943D01*
X0073500Y0316942D02*
X0073500Y0316942D01*
X0067300Y0316942D02*
X0056231Y0316942D01*
X0058665Y0308943D02*
X0063500Y0308943D01*
X0067413Y0300945D02*
X0056166Y0300945D01*
X0030854Y0276949D02*
X0009000Y0276949D01*
X0009000Y0268951D02*
X0032773Y0268951D01*
X0009000Y0260952D02*
X0391000Y0260952D01*
X0391000Y0252954D02*
X0364571Y0252954D01*
X0366146Y0244955D02*
X0391000Y0244955D01*
X0391000Y0236957D02*
X0362362Y0236957D01*
X0328500Y0151500D02*
X0327910Y0151500D01*
X0326740Y0151346D01*
X0325601Y0151041D01*
X0324511Y0150589D01*
X0323489Y0149999D01*
X0322553Y0149281D01*
X0321719Y0148447D01*
X0321001Y0147511D01*
X0320411Y0146489D01*
X0319959Y0145399D01*
X0319654Y0144260D01*
X0319500Y0143090D01*
X0319500Y0142500D01*
X0328500Y0142500D01*
X0328500Y0142500D01*
X0328500Y0142500D01*
X0328500Y0151500D01*
X0328500Y0148973D02*
X0328500Y0148973D01*
X0322245Y0148973D02*
X0304472Y0148973D01*
X0307300Y0140975D02*
X0319623Y0140975D01*
X0319654Y0140740D02*
X0319959Y0139601D01*
X0320411Y0138511D01*
X0321001Y0137489D01*
X0321719Y0136553D01*
X0322553Y0135719D01*
X0323489Y0135001D01*
X0324511Y0134411D01*
X0325601Y0133959D01*
X0326740Y0133654D01*
X0327910Y0133500D01*
X0328500Y0133500D01*
X0328500Y0142500D01*
X0319500Y0142500D01*
X0319500Y0141910D01*
X0319654Y0140740D01*
X0328500Y0140975D02*
X0328500Y0140975D01*
X0391000Y0332939D02*
X0009000Y0332939D01*
X0009000Y0340937D02*
X0391000Y0340937D01*
X0391000Y0348936D02*
X0009000Y0348936D01*
X0009000Y0356934D02*
X0391000Y0356934D01*
X0391000Y0364933D02*
X0009000Y0364933D01*
X0009000Y0372932D02*
X0391000Y0372932D01*
X0379690Y0380930D02*
X0022310Y0380930D01*
X0027477Y0388929D02*
X0374523Y0388929D01*
X0374752Y0396927D02*
X0027248Y0396927D01*
D16*
X0188500Y0257500D03*
X0188500Y0120000D03*
M02*
