G75*
%MOIN*%
%OFA0B0*%
%FSLAX25Y25*%
%IPPOS*%
%LPD*%
%AMOC8*
5,1,8,0,0,1.08239X$1,22.5*
%
%ADD10C,0.00800*%
%ADD11C,0.00600*%
%ADD12C,0.01200*%
%ADD13C,0.00500*%
%ADD14C,0.00394*%
%ADD15C,0.00400*%
%ADD16C,0.00197*%
%ADD17C,0.00787*%
%ADD18C,0.00984*%
%ADD19C,0.01600*%
%ADD20R,0.03000X0.01500*%
%ADD21R,0.02000X0.01500*%
%ADD22R,0.05906X0.09843*%
%ADD23C,0.00200*%
%ADD24C,0.00700*%
%ADD25R,0.01500X0.02000*%
D10*
X0008223Y0089846D02*
X0057829Y0089846D01*
X0057829Y0094176D01*
X0008223Y0089846D02*
X0008223Y0161464D01*
X0058617Y0161464D01*
X0058617Y0157133D01*
X0100574Y0199652D02*
X0103574Y0199652D01*
X0103574Y0200652D01*
X0103574Y0199652D02*
X0103574Y0198652D01*
X0103574Y0199652D02*
X0106574Y0199652D01*
X0114734Y0199970D02*
X0117734Y0199970D01*
X0117734Y0200970D01*
X0117734Y0199970D02*
X0117734Y0198970D01*
X0117734Y0199970D02*
X0120734Y0199970D01*
X0132692Y0184269D02*
X0132692Y0179269D01*
X0161361Y0179697D02*
X0161361Y0184697D01*
X0069338Y0258839D02*
X0069338Y0279311D01*
X0069338Y0289154D02*
X0069338Y0301752D01*
X0069338Y0311594D02*
X0069338Y0315531D01*
X0020125Y0315531D01*
X0024206Y0331564D02*
X0032473Y0331564D01*
X0042316Y0334319D02*
X0042316Y0337863D01*
X0042316Y0355186D02*
X0042316Y0358729D01*
X0032473Y0361485D02*
X0024206Y0361485D01*
X0124054Y0327635D02*
X0124054Y0324635D01*
X0125054Y0324635D01*
X0124054Y0324635D02*
X0124054Y0321635D01*
X0124054Y0324635D02*
X0123054Y0324635D01*
X0132054Y0332634D02*
X0132054Y0335634D01*
X0133054Y0335634D01*
X0132054Y0335634D02*
X0132054Y0338634D01*
X0132054Y0335634D02*
X0131054Y0335634D01*
X0156895Y0324549D02*
X0157895Y0324549D01*
X0157895Y0327549D01*
X0177895Y0327549D01*
X0177895Y0324549D01*
X0178895Y0324549D01*
X0177895Y0324549D02*
X0177895Y0321549D01*
X0157895Y0321549D01*
X0157895Y0324549D01*
X0159562Y0332630D02*
X0159562Y0335630D01*
X0158562Y0335630D01*
X0159562Y0335630D02*
X0159562Y0338630D01*
X0179562Y0338630D01*
X0179562Y0335630D01*
X0180562Y0335630D01*
X0179562Y0335630D02*
X0179562Y0332630D01*
X0159562Y0332630D01*
X0069338Y0258839D02*
X0016188Y0258839D01*
X0258893Y0270113D02*
X0261893Y0270113D01*
X0261893Y0269113D01*
X0261893Y0270113D02*
X0261893Y0271113D01*
X0261893Y0270113D02*
X0264893Y0270113D01*
X0261940Y0242142D02*
X0261940Y0241142D01*
X0261940Y0240142D01*
X0261940Y0241142D02*
X0258940Y0241142D01*
X0261940Y0241142D02*
X0264940Y0241142D01*
X0262227Y0217614D02*
X0262227Y0216614D01*
X0262227Y0215614D01*
X0262227Y0216614D02*
X0259227Y0216614D01*
X0262227Y0216614D02*
X0265227Y0216614D01*
X0262227Y0188087D02*
X0262227Y0187087D01*
X0262227Y0186087D01*
X0262227Y0187087D02*
X0265227Y0187087D01*
X0262227Y0187087D02*
X0259227Y0187087D01*
X0262227Y0158559D02*
X0262227Y0157559D01*
X0262227Y0156559D01*
X0262227Y0157559D02*
X0265227Y0157559D01*
X0262227Y0157559D02*
X0259227Y0157559D01*
X0262227Y0129031D02*
X0262227Y0128031D01*
X0262227Y0127031D01*
X0262227Y0128031D02*
X0265227Y0128031D01*
X0262227Y0128031D02*
X0259227Y0128031D01*
X0262227Y0098520D02*
X0262227Y0097520D01*
X0262227Y0096520D01*
X0262227Y0097520D02*
X0265227Y0097520D01*
X0262227Y0097520D02*
X0259227Y0097520D01*
X0351098Y0088732D02*
X0351098Y0087198D01*
X0352633Y0085663D01*
X0355702Y0085663D01*
X0357237Y0084128D01*
X0357237Y0082594D01*
X0355702Y0081059D01*
X0352633Y0081059D01*
X0351098Y0082594D01*
X0351098Y0088732D02*
X0352633Y0090267D01*
X0355702Y0090267D01*
X0357237Y0088732D01*
X0360306Y0088732D02*
X0361841Y0090267D01*
X0364910Y0090267D01*
X0366445Y0088732D01*
X0364910Y0085663D02*
X0361841Y0085663D01*
X0360306Y0087198D01*
X0360306Y0088732D01*
X0364910Y0085663D02*
X0366445Y0084128D01*
X0366445Y0082594D01*
X0364910Y0081059D01*
X0361841Y0081059D01*
X0360306Y0082594D01*
X0369514Y0081059D02*
X0369514Y0090267D01*
X0369514Y0085663D02*
X0375653Y0085663D01*
X0375653Y0090267D02*
X0375653Y0081059D01*
X0386213Y0080502D02*
X0386213Y0085502D01*
X0388713Y0088002D01*
X0393713Y0088002D01*
X0396213Y0085502D01*
X0396213Y0080502D01*
X0393713Y0078002D01*
X0396213Y0075502D01*
X0396213Y0070502D01*
X0393713Y0068002D01*
X0396213Y0065502D01*
X0396213Y0060502D01*
X0393713Y0058002D01*
X0388713Y0058002D01*
X0386213Y0060502D01*
X0386213Y0065502D01*
X0388713Y0068002D01*
X0386213Y0070502D01*
X0386213Y0075502D01*
X0388713Y0078002D01*
X0386213Y0080502D01*
X0388664Y0089252D02*
X0393664Y0089252D01*
X0396164Y0091752D01*
X0396164Y0096752D01*
X0393664Y0099252D01*
X0396164Y0101752D01*
X0396164Y0106752D01*
X0393664Y0109252D01*
X0396164Y0111752D01*
X0396164Y0116752D01*
X0393664Y0119252D01*
X0388664Y0119252D01*
X0386164Y0116752D01*
X0386164Y0111752D01*
X0388664Y0109252D01*
X0386164Y0106752D01*
X0386164Y0101752D01*
X0388664Y0099252D01*
X0386164Y0096752D01*
X0386164Y0091752D01*
X0388664Y0089252D01*
X0376986Y0112056D02*
X0370847Y0112056D01*
X0370847Y0121264D01*
X0367778Y0119729D02*
X0366243Y0121264D01*
X0363174Y0121264D01*
X0361639Y0119729D01*
X0361639Y0118195D01*
X0363174Y0116660D01*
X0366243Y0116660D01*
X0367778Y0115125D01*
X0367778Y0113591D01*
X0366243Y0112056D01*
X0363174Y0112056D01*
X0361639Y0113591D01*
X0358570Y0113591D02*
X0358570Y0115125D01*
X0357036Y0116660D01*
X0353966Y0116660D01*
X0352432Y0118195D01*
X0352432Y0119729D01*
X0353966Y0121264D01*
X0357036Y0121264D01*
X0358570Y0119729D01*
X0358570Y0113591D02*
X0357036Y0112056D01*
X0353966Y0112056D01*
X0352432Y0113591D01*
X0353300Y0144386D02*
X0351765Y0145921D01*
X0353300Y0144386D02*
X0356369Y0144386D01*
X0357904Y0145921D01*
X0357904Y0147455D01*
X0356369Y0148990D01*
X0353300Y0148990D01*
X0351765Y0150525D01*
X0351765Y0152059D01*
X0353300Y0153594D01*
X0356369Y0153594D01*
X0357904Y0152059D01*
X0360973Y0153594D02*
X0365577Y0153594D01*
X0367111Y0152059D01*
X0367111Y0148990D01*
X0365577Y0147455D01*
X0360973Y0147455D01*
X0360973Y0144386D02*
X0360973Y0153594D01*
X0370181Y0153594D02*
X0370181Y0144386D01*
X0370181Y0148990D02*
X0376319Y0148990D01*
X0376319Y0153594D02*
X0376319Y0144386D01*
X0386164Y0143248D02*
X0386164Y0148248D01*
X0388664Y0150748D01*
X0393664Y0150748D01*
X0396164Y0148248D01*
X0396164Y0143248D01*
X0393664Y0140748D01*
X0396164Y0138248D01*
X0396164Y0133248D01*
X0393664Y0130748D01*
X0396164Y0128248D01*
X0396164Y0123248D01*
X0393664Y0120748D01*
X0388664Y0120748D01*
X0386164Y0123248D01*
X0386164Y0128248D01*
X0388664Y0130748D01*
X0386164Y0133248D01*
X0386164Y0138248D01*
X0388664Y0140748D01*
X0386164Y0143248D01*
X0388664Y0152244D02*
X0386164Y0154744D01*
X0386164Y0159744D01*
X0388664Y0162244D01*
X0386164Y0164744D01*
X0386164Y0169744D01*
X0388664Y0172244D01*
X0386164Y0174744D01*
X0386164Y0179744D01*
X0388664Y0182244D01*
X0393664Y0182244D01*
X0396164Y0179744D01*
X0396164Y0174744D01*
X0393664Y0172244D01*
X0396164Y0169744D01*
X0396164Y0164744D01*
X0393664Y0162244D01*
X0396164Y0159744D01*
X0396164Y0154744D01*
X0393664Y0152244D01*
X0388664Y0152244D01*
X0377986Y0176050D02*
X0371847Y0176050D01*
X0371847Y0185257D01*
X0368778Y0183723D02*
X0368778Y0180654D01*
X0367243Y0179119D01*
X0362639Y0179119D01*
X0359570Y0179119D02*
X0359570Y0177584D01*
X0358035Y0176050D01*
X0354966Y0176050D01*
X0353431Y0177584D01*
X0354966Y0180654D02*
X0353431Y0182188D01*
X0353431Y0183723D01*
X0354966Y0185257D01*
X0358035Y0185257D01*
X0359570Y0183723D01*
X0362639Y0185257D02*
X0367243Y0185257D01*
X0368778Y0183723D01*
X0362639Y0185257D02*
X0362639Y0176050D01*
X0359570Y0179119D02*
X0358035Y0180654D01*
X0354966Y0180654D01*
X0352098Y0206713D02*
X0352098Y0215921D01*
X0352098Y0211317D02*
X0358237Y0211317D01*
X0361306Y0212852D02*
X0362841Y0211317D01*
X0365910Y0211317D01*
X0367445Y0209782D01*
X0367445Y0208248D01*
X0365910Y0206713D01*
X0362841Y0206713D01*
X0361306Y0208248D01*
X0358237Y0206713D02*
X0358237Y0215921D01*
X0361306Y0214386D02*
X0361306Y0212852D01*
X0361306Y0214386D02*
X0362841Y0215921D01*
X0365910Y0215921D01*
X0367445Y0214386D01*
X0370514Y0215921D02*
X0376653Y0215921D01*
X0373583Y0211317D02*
X0370514Y0211317D01*
X0370514Y0206713D02*
X0370514Y0215921D01*
X0386164Y0217736D02*
X0386164Y0222736D01*
X0388664Y0225236D01*
X0386164Y0227736D01*
X0386164Y0232736D01*
X0388664Y0235236D01*
X0386164Y0237736D01*
X0386164Y0242736D01*
X0388664Y0245236D01*
X0393664Y0245236D01*
X0396164Y0242736D01*
X0396164Y0237736D01*
X0393664Y0235236D01*
X0396164Y0232736D01*
X0396164Y0227736D01*
X0393664Y0225236D01*
X0396164Y0222736D01*
X0396164Y0217736D01*
X0393664Y0215236D01*
X0388664Y0215236D01*
X0386164Y0217736D01*
X0388664Y0213740D02*
X0386164Y0211240D01*
X0386164Y0206240D01*
X0388664Y0203740D01*
X0386164Y0201240D01*
X0386164Y0196240D01*
X0388664Y0193740D01*
X0386164Y0191240D01*
X0386164Y0186240D01*
X0388664Y0183740D01*
X0393664Y0183740D01*
X0396164Y0186240D01*
X0396164Y0191240D01*
X0393664Y0193740D01*
X0396164Y0196240D01*
X0396164Y0201240D01*
X0393664Y0203740D01*
X0396164Y0206240D01*
X0396164Y0211240D01*
X0393664Y0213740D01*
X0388664Y0213740D01*
X0374986Y0238710D02*
X0374986Y0244849D01*
X0371917Y0247918D01*
X0368848Y0244849D01*
X0368848Y0238710D01*
X0365778Y0240245D02*
X0365778Y0241779D01*
X0364244Y0243314D01*
X0361174Y0243314D01*
X0359640Y0244849D01*
X0359640Y0246383D01*
X0361174Y0247918D01*
X0364244Y0247918D01*
X0365778Y0246383D01*
X0368848Y0243314D02*
X0374986Y0243314D01*
X0386164Y0249232D02*
X0386164Y0254232D01*
X0388664Y0256732D01*
X0386164Y0259232D01*
X0386164Y0264232D01*
X0388664Y0266732D01*
X0386164Y0269232D01*
X0386164Y0274232D01*
X0388664Y0276732D01*
X0393664Y0276732D01*
X0396164Y0274232D01*
X0396164Y0269232D01*
X0393664Y0266732D01*
X0396164Y0264232D01*
X0396164Y0259232D01*
X0393664Y0256732D01*
X0396164Y0254232D01*
X0396164Y0249232D01*
X0393664Y0246732D01*
X0388664Y0246732D01*
X0386164Y0249232D01*
X0365778Y0240245D02*
X0364244Y0238710D01*
X0361174Y0238710D01*
X0359640Y0240245D01*
X0356570Y0238710D02*
X0356570Y0247918D01*
X0356570Y0243314D02*
X0350432Y0243314D01*
X0350432Y0238710D02*
X0350432Y0247918D01*
X0351098Y0269707D02*
X0351098Y0278915D01*
X0351098Y0274311D02*
X0357237Y0274311D01*
X0360306Y0272776D02*
X0364910Y0272776D01*
X0366445Y0274311D01*
X0366445Y0277380D01*
X0364910Y0278915D01*
X0360306Y0278915D01*
X0360306Y0269707D01*
X0357237Y0269707D02*
X0357237Y0278915D01*
X0369514Y0278915D02*
X0369514Y0269707D01*
X0369514Y0274311D02*
X0372583Y0274311D01*
X0369514Y0278915D02*
X0375653Y0278915D01*
X0386164Y0280728D02*
X0386164Y0285728D01*
X0388664Y0288228D01*
X0386164Y0290728D01*
X0386164Y0295728D01*
X0388664Y0298228D01*
X0386164Y0300728D01*
X0386164Y0305728D01*
X0388664Y0308228D01*
X0393664Y0308228D01*
X0396164Y0305728D01*
X0396164Y0300728D01*
X0393664Y0298228D01*
X0396164Y0295728D01*
X0396164Y0290728D01*
X0393664Y0288228D01*
X0396164Y0285728D01*
X0396164Y0280728D01*
X0393664Y0278228D01*
X0388664Y0278228D01*
X0386164Y0280728D01*
X0376319Y0301037D02*
X0376319Y0307176D01*
X0373250Y0310245D01*
X0370181Y0307176D01*
X0370181Y0301037D01*
X0370181Y0305641D02*
X0376319Y0305641D01*
X0367111Y0305641D02*
X0365577Y0304106D01*
X0360973Y0304106D01*
X0360973Y0301037D02*
X0360973Y0310245D01*
X0365577Y0310245D01*
X0367111Y0308710D01*
X0367111Y0305641D01*
X0357904Y0305641D02*
X0351765Y0305641D01*
X0351765Y0301037D02*
X0351765Y0310245D01*
X0357904Y0310245D02*
X0357904Y0301037D01*
X0386164Y0312224D02*
X0386164Y0317224D01*
X0388664Y0319724D01*
X0386164Y0322224D01*
X0386164Y0327224D01*
X0388664Y0329724D01*
X0386164Y0332224D01*
X0386164Y0337224D01*
X0388664Y0339724D01*
X0393664Y0339724D01*
X0396164Y0337224D01*
X0396164Y0332224D01*
X0393664Y0329724D01*
X0396164Y0327224D01*
X0396164Y0322224D01*
X0393664Y0319724D01*
X0396164Y0317224D01*
X0396164Y0312224D01*
X0393664Y0309724D01*
X0388664Y0309724D01*
X0386164Y0312224D01*
X0376986Y0333034D02*
X0376986Y0339172D01*
X0373917Y0342242D01*
X0370847Y0339172D01*
X0370847Y0333034D01*
X0367778Y0333034D02*
X0367778Y0342242D01*
X0370847Y0337638D02*
X0376986Y0337638D01*
X0367778Y0333034D02*
X0364709Y0336103D01*
X0361639Y0333034D01*
X0361639Y0342242D01*
X0358570Y0340707D02*
X0357036Y0342242D01*
X0353966Y0342242D01*
X0352432Y0340707D01*
X0352432Y0339172D01*
X0353966Y0337638D01*
X0357036Y0337638D01*
X0358570Y0336103D01*
X0358570Y0334569D01*
X0357036Y0333034D01*
X0353966Y0333034D01*
X0352432Y0334569D01*
X0354633Y0365364D02*
X0353098Y0366899D01*
X0354633Y0365364D02*
X0357702Y0365364D01*
X0359237Y0366899D01*
X0359237Y0368433D01*
X0357702Y0369968D01*
X0354633Y0369968D01*
X0353098Y0371503D01*
X0353098Y0373037D01*
X0354633Y0374572D01*
X0357702Y0374572D01*
X0359237Y0373037D01*
X0362306Y0374572D02*
X0362306Y0365364D01*
X0365375Y0368433D01*
X0368445Y0365364D01*
X0368445Y0374572D01*
X0371514Y0374572D02*
X0377652Y0374572D01*
X0374583Y0369968D02*
X0371514Y0369968D01*
X0371514Y0365364D02*
X0371514Y0374572D01*
X0386164Y0368720D02*
X0386164Y0363720D01*
X0388664Y0361220D01*
X0386164Y0358720D01*
X0386164Y0353720D01*
X0388664Y0351220D01*
X0386164Y0348720D01*
X0386164Y0343720D01*
X0388664Y0341220D01*
X0393664Y0341220D01*
X0396164Y0343720D01*
X0396164Y0348720D01*
X0393664Y0351220D01*
X0396164Y0353720D01*
X0396164Y0358720D01*
X0393664Y0361220D01*
X0396164Y0363720D01*
X0396164Y0368720D01*
X0393664Y0371220D01*
X0388664Y0371220D01*
X0386164Y0368720D01*
X0265227Y0354409D02*
X0262227Y0354409D01*
X0262227Y0353409D01*
X0262227Y0354409D02*
X0262227Y0355409D01*
X0262227Y0354409D02*
X0259227Y0354409D01*
X0262227Y0325882D02*
X0262227Y0324882D01*
X0262227Y0323882D01*
X0262227Y0324882D02*
X0259227Y0324882D01*
X0262227Y0324882D02*
X0265227Y0324882D01*
X0262227Y0300291D02*
X0262227Y0299291D01*
X0262227Y0298291D01*
X0262227Y0299291D02*
X0259227Y0299291D01*
X0262227Y0299291D02*
X0265227Y0299291D01*
D11*
X0281342Y0292088D02*
X0304342Y0292088D01*
X0304342Y0312088D01*
X0296842Y0312088D01*
X0296840Y0311962D01*
X0296834Y0311837D01*
X0296824Y0311712D01*
X0296810Y0311587D01*
X0296793Y0311462D01*
X0296771Y0311338D01*
X0296746Y0311215D01*
X0296716Y0311093D01*
X0296683Y0310972D01*
X0296646Y0310852D01*
X0296606Y0310733D01*
X0296561Y0310616D01*
X0296513Y0310499D01*
X0296461Y0310385D01*
X0296406Y0310272D01*
X0296347Y0310161D01*
X0296285Y0310052D01*
X0296219Y0309945D01*
X0296150Y0309840D01*
X0296078Y0309737D01*
X0296003Y0309636D01*
X0295924Y0309538D01*
X0295842Y0309443D01*
X0295758Y0309350D01*
X0295670Y0309260D01*
X0295580Y0309172D01*
X0295487Y0309088D01*
X0295392Y0309006D01*
X0295294Y0308927D01*
X0295193Y0308852D01*
X0295090Y0308780D01*
X0294985Y0308711D01*
X0294878Y0308645D01*
X0294769Y0308583D01*
X0294658Y0308524D01*
X0294545Y0308469D01*
X0294431Y0308417D01*
X0294314Y0308369D01*
X0294197Y0308324D01*
X0294078Y0308284D01*
X0293958Y0308247D01*
X0293837Y0308214D01*
X0293715Y0308184D01*
X0293592Y0308159D01*
X0293468Y0308137D01*
X0293343Y0308120D01*
X0293218Y0308106D01*
X0293093Y0308096D01*
X0292968Y0308090D01*
X0292842Y0308088D01*
X0292716Y0308090D01*
X0292591Y0308096D01*
X0292466Y0308106D01*
X0292341Y0308120D01*
X0292216Y0308137D01*
X0292092Y0308159D01*
X0291969Y0308184D01*
X0291847Y0308214D01*
X0291726Y0308247D01*
X0291606Y0308284D01*
X0291487Y0308324D01*
X0291370Y0308369D01*
X0291253Y0308417D01*
X0291139Y0308469D01*
X0291026Y0308524D01*
X0290915Y0308583D01*
X0290806Y0308645D01*
X0290699Y0308711D01*
X0290594Y0308780D01*
X0290491Y0308852D01*
X0290390Y0308927D01*
X0290292Y0309006D01*
X0290197Y0309088D01*
X0290104Y0309172D01*
X0290014Y0309260D01*
X0289926Y0309350D01*
X0289842Y0309443D01*
X0289760Y0309538D01*
X0289681Y0309636D01*
X0289606Y0309737D01*
X0289534Y0309840D01*
X0289465Y0309945D01*
X0289399Y0310052D01*
X0289337Y0310161D01*
X0289278Y0310272D01*
X0289223Y0310385D01*
X0289171Y0310499D01*
X0289123Y0310616D01*
X0289078Y0310733D01*
X0289038Y0310852D01*
X0289001Y0310972D01*
X0288968Y0311093D01*
X0288938Y0311215D01*
X0288913Y0311338D01*
X0288891Y0311462D01*
X0288874Y0311587D01*
X0288860Y0311712D01*
X0288850Y0311837D01*
X0288844Y0311962D01*
X0288842Y0312088D01*
X0281342Y0312088D01*
X0281342Y0292088D01*
X0281342Y0281576D02*
X0288842Y0281576D01*
X0288844Y0281450D01*
X0288850Y0281325D01*
X0288860Y0281200D01*
X0288874Y0281075D01*
X0288891Y0280950D01*
X0288913Y0280826D01*
X0288938Y0280703D01*
X0288968Y0280581D01*
X0289001Y0280460D01*
X0289038Y0280340D01*
X0289078Y0280221D01*
X0289123Y0280104D01*
X0289171Y0279987D01*
X0289223Y0279873D01*
X0289278Y0279760D01*
X0289337Y0279649D01*
X0289399Y0279540D01*
X0289465Y0279433D01*
X0289534Y0279328D01*
X0289606Y0279225D01*
X0289681Y0279124D01*
X0289760Y0279026D01*
X0289842Y0278931D01*
X0289926Y0278838D01*
X0290014Y0278748D01*
X0290104Y0278660D01*
X0290197Y0278576D01*
X0290292Y0278494D01*
X0290390Y0278415D01*
X0290491Y0278340D01*
X0290594Y0278268D01*
X0290699Y0278199D01*
X0290806Y0278133D01*
X0290915Y0278071D01*
X0291026Y0278012D01*
X0291139Y0277957D01*
X0291253Y0277905D01*
X0291370Y0277857D01*
X0291487Y0277812D01*
X0291606Y0277772D01*
X0291726Y0277735D01*
X0291847Y0277702D01*
X0291969Y0277672D01*
X0292092Y0277647D01*
X0292216Y0277625D01*
X0292341Y0277608D01*
X0292466Y0277594D01*
X0292591Y0277584D01*
X0292716Y0277578D01*
X0292842Y0277576D01*
X0292968Y0277578D01*
X0293093Y0277584D01*
X0293218Y0277594D01*
X0293343Y0277608D01*
X0293468Y0277625D01*
X0293592Y0277647D01*
X0293715Y0277672D01*
X0293837Y0277702D01*
X0293958Y0277735D01*
X0294078Y0277772D01*
X0294197Y0277812D01*
X0294314Y0277857D01*
X0294431Y0277905D01*
X0294545Y0277957D01*
X0294658Y0278012D01*
X0294769Y0278071D01*
X0294878Y0278133D01*
X0294985Y0278199D01*
X0295090Y0278268D01*
X0295193Y0278340D01*
X0295294Y0278415D01*
X0295392Y0278494D01*
X0295487Y0278576D01*
X0295580Y0278660D01*
X0295670Y0278748D01*
X0295758Y0278838D01*
X0295842Y0278931D01*
X0295924Y0279026D01*
X0296003Y0279124D01*
X0296078Y0279225D01*
X0296150Y0279328D01*
X0296219Y0279433D01*
X0296285Y0279540D01*
X0296347Y0279649D01*
X0296406Y0279760D01*
X0296461Y0279873D01*
X0296513Y0279987D01*
X0296561Y0280104D01*
X0296606Y0280221D01*
X0296646Y0280340D01*
X0296683Y0280460D01*
X0296716Y0280581D01*
X0296746Y0280703D01*
X0296771Y0280826D01*
X0296793Y0280950D01*
X0296810Y0281075D01*
X0296824Y0281200D01*
X0296834Y0281325D01*
X0296840Y0281450D01*
X0296842Y0281576D01*
X0304342Y0281576D01*
X0304342Y0261576D01*
X0281342Y0261576D01*
X0281342Y0281576D01*
X0281342Y0251064D02*
X0288842Y0251064D01*
X0288844Y0250938D01*
X0288850Y0250813D01*
X0288860Y0250688D01*
X0288874Y0250563D01*
X0288891Y0250438D01*
X0288913Y0250314D01*
X0288938Y0250191D01*
X0288968Y0250069D01*
X0289001Y0249948D01*
X0289038Y0249828D01*
X0289078Y0249709D01*
X0289123Y0249592D01*
X0289171Y0249475D01*
X0289223Y0249361D01*
X0289278Y0249248D01*
X0289337Y0249137D01*
X0289399Y0249028D01*
X0289465Y0248921D01*
X0289534Y0248816D01*
X0289606Y0248713D01*
X0289681Y0248612D01*
X0289760Y0248514D01*
X0289842Y0248419D01*
X0289926Y0248326D01*
X0290014Y0248236D01*
X0290104Y0248148D01*
X0290197Y0248064D01*
X0290292Y0247982D01*
X0290390Y0247903D01*
X0290491Y0247828D01*
X0290594Y0247756D01*
X0290699Y0247687D01*
X0290806Y0247621D01*
X0290915Y0247559D01*
X0291026Y0247500D01*
X0291139Y0247445D01*
X0291253Y0247393D01*
X0291370Y0247345D01*
X0291487Y0247300D01*
X0291606Y0247260D01*
X0291726Y0247223D01*
X0291847Y0247190D01*
X0291969Y0247160D01*
X0292092Y0247135D01*
X0292216Y0247113D01*
X0292341Y0247096D01*
X0292466Y0247082D01*
X0292591Y0247072D01*
X0292716Y0247066D01*
X0292842Y0247064D01*
X0292968Y0247066D01*
X0293093Y0247072D01*
X0293218Y0247082D01*
X0293343Y0247096D01*
X0293468Y0247113D01*
X0293592Y0247135D01*
X0293715Y0247160D01*
X0293837Y0247190D01*
X0293958Y0247223D01*
X0294078Y0247260D01*
X0294197Y0247300D01*
X0294314Y0247345D01*
X0294431Y0247393D01*
X0294545Y0247445D01*
X0294658Y0247500D01*
X0294769Y0247559D01*
X0294878Y0247621D01*
X0294985Y0247687D01*
X0295090Y0247756D01*
X0295193Y0247828D01*
X0295294Y0247903D01*
X0295392Y0247982D01*
X0295487Y0248064D01*
X0295580Y0248148D01*
X0295670Y0248236D01*
X0295758Y0248326D01*
X0295842Y0248419D01*
X0295924Y0248514D01*
X0296003Y0248612D01*
X0296078Y0248713D01*
X0296150Y0248816D01*
X0296219Y0248921D01*
X0296285Y0249028D01*
X0296347Y0249137D01*
X0296406Y0249248D01*
X0296461Y0249361D01*
X0296513Y0249475D01*
X0296561Y0249592D01*
X0296606Y0249709D01*
X0296646Y0249828D01*
X0296683Y0249948D01*
X0296716Y0250069D01*
X0296746Y0250191D01*
X0296771Y0250314D01*
X0296793Y0250438D01*
X0296810Y0250563D01*
X0296824Y0250688D01*
X0296834Y0250813D01*
X0296840Y0250938D01*
X0296842Y0251064D01*
X0304342Y0251064D01*
X0304342Y0231064D01*
X0281342Y0231064D01*
X0281342Y0251064D01*
X0281342Y0219568D02*
X0288842Y0219568D01*
X0288844Y0219442D01*
X0288850Y0219317D01*
X0288860Y0219192D01*
X0288874Y0219067D01*
X0288891Y0218942D01*
X0288913Y0218818D01*
X0288938Y0218695D01*
X0288968Y0218573D01*
X0289001Y0218452D01*
X0289038Y0218332D01*
X0289078Y0218213D01*
X0289123Y0218096D01*
X0289171Y0217979D01*
X0289223Y0217865D01*
X0289278Y0217752D01*
X0289337Y0217641D01*
X0289399Y0217532D01*
X0289465Y0217425D01*
X0289534Y0217320D01*
X0289606Y0217217D01*
X0289681Y0217116D01*
X0289760Y0217018D01*
X0289842Y0216923D01*
X0289926Y0216830D01*
X0290014Y0216740D01*
X0290104Y0216652D01*
X0290197Y0216568D01*
X0290292Y0216486D01*
X0290390Y0216407D01*
X0290491Y0216332D01*
X0290594Y0216260D01*
X0290699Y0216191D01*
X0290806Y0216125D01*
X0290915Y0216063D01*
X0291026Y0216004D01*
X0291139Y0215949D01*
X0291253Y0215897D01*
X0291370Y0215849D01*
X0291487Y0215804D01*
X0291606Y0215764D01*
X0291726Y0215727D01*
X0291847Y0215694D01*
X0291969Y0215664D01*
X0292092Y0215639D01*
X0292216Y0215617D01*
X0292341Y0215600D01*
X0292466Y0215586D01*
X0292591Y0215576D01*
X0292716Y0215570D01*
X0292842Y0215568D01*
X0292968Y0215570D01*
X0293093Y0215576D01*
X0293218Y0215586D01*
X0293343Y0215600D01*
X0293468Y0215617D01*
X0293592Y0215639D01*
X0293715Y0215664D01*
X0293837Y0215694D01*
X0293958Y0215727D01*
X0294078Y0215764D01*
X0294197Y0215804D01*
X0294314Y0215849D01*
X0294431Y0215897D01*
X0294545Y0215949D01*
X0294658Y0216004D01*
X0294769Y0216063D01*
X0294878Y0216125D01*
X0294985Y0216191D01*
X0295090Y0216260D01*
X0295193Y0216332D01*
X0295294Y0216407D01*
X0295392Y0216486D01*
X0295487Y0216568D01*
X0295580Y0216652D01*
X0295670Y0216740D01*
X0295758Y0216830D01*
X0295842Y0216923D01*
X0295924Y0217018D01*
X0296003Y0217116D01*
X0296078Y0217217D01*
X0296150Y0217320D01*
X0296219Y0217425D01*
X0296285Y0217532D01*
X0296347Y0217641D01*
X0296406Y0217752D01*
X0296461Y0217865D01*
X0296513Y0217979D01*
X0296561Y0218096D01*
X0296606Y0218213D01*
X0296646Y0218332D01*
X0296683Y0218452D01*
X0296716Y0218573D01*
X0296746Y0218695D01*
X0296771Y0218818D01*
X0296793Y0218942D01*
X0296810Y0219067D01*
X0296824Y0219192D01*
X0296834Y0219317D01*
X0296840Y0219442D01*
X0296842Y0219568D01*
X0304342Y0219568D01*
X0304342Y0199568D01*
X0281342Y0199568D01*
X0281342Y0219568D01*
X0281342Y0189056D02*
X0288842Y0189056D01*
X0288844Y0188930D01*
X0288850Y0188805D01*
X0288860Y0188680D01*
X0288874Y0188555D01*
X0288891Y0188430D01*
X0288913Y0188306D01*
X0288938Y0188183D01*
X0288968Y0188061D01*
X0289001Y0187940D01*
X0289038Y0187820D01*
X0289078Y0187701D01*
X0289123Y0187584D01*
X0289171Y0187467D01*
X0289223Y0187353D01*
X0289278Y0187240D01*
X0289337Y0187129D01*
X0289399Y0187020D01*
X0289465Y0186913D01*
X0289534Y0186808D01*
X0289606Y0186705D01*
X0289681Y0186604D01*
X0289760Y0186506D01*
X0289842Y0186411D01*
X0289926Y0186318D01*
X0290014Y0186228D01*
X0290104Y0186140D01*
X0290197Y0186056D01*
X0290292Y0185974D01*
X0290390Y0185895D01*
X0290491Y0185820D01*
X0290594Y0185748D01*
X0290699Y0185679D01*
X0290806Y0185613D01*
X0290915Y0185551D01*
X0291026Y0185492D01*
X0291139Y0185437D01*
X0291253Y0185385D01*
X0291370Y0185337D01*
X0291487Y0185292D01*
X0291606Y0185252D01*
X0291726Y0185215D01*
X0291847Y0185182D01*
X0291969Y0185152D01*
X0292092Y0185127D01*
X0292216Y0185105D01*
X0292341Y0185088D01*
X0292466Y0185074D01*
X0292591Y0185064D01*
X0292716Y0185058D01*
X0292842Y0185056D01*
X0292968Y0185058D01*
X0293093Y0185064D01*
X0293218Y0185074D01*
X0293343Y0185088D01*
X0293468Y0185105D01*
X0293592Y0185127D01*
X0293715Y0185152D01*
X0293837Y0185182D01*
X0293958Y0185215D01*
X0294078Y0185252D01*
X0294197Y0185292D01*
X0294314Y0185337D01*
X0294431Y0185385D01*
X0294545Y0185437D01*
X0294658Y0185492D01*
X0294769Y0185551D01*
X0294878Y0185613D01*
X0294985Y0185679D01*
X0295090Y0185748D01*
X0295193Y0185820D01*
X0295294Y0185895D01*
X0295392Y0185974D01*
X0295487Y0186056D01*
X0295580Y0186140D01*
X0295670Y0186228D01*
X0295758Y0186318D01*
X0295842Y0186411D01*
X0295924Y0186506D01*
X0296003Y0186604D01*
X0296078Y0186705D01*
X0296150Y0186808D01*
X0296219Y0186913D01*
X0296285Y0187020D01*
X0296347Y0187129D01*
X0296406Y0187240D01*
X0296461Y0187353D01*
X0296513Y0187467D01*
X0296561Y0187584D01*
X0296606Y0187701D01*
X0296646Y0187820D01*
X0296683Y0187940D01*
X0296716Y0188061D01*
X0296746Y0188183D01*
X0296771Y0188306D01*
X0296793Y0188430D01*
X0296810Y0188555D01*
X0296824Y0188680D01*
X0296834Y0188805D01*
X0296840Y0188930D01*
X0296842Y0189056D01*
X0304342Y0189056D01*
X0304342Y0169056D01*
X0281342Y0169056D01*
X0281342Y0189056D01*
X0281342Y0158544D02*
X0288842Y0158544D01*
X0288844Y0158418D01*
X0288850Y0158293D01*
X0288860Y0158168D01*
X0288874Y0158043D01*
X0288891Y0157918D01*
X0288913Y0157794D01*
X0288938Y0157671D01*
X0288968Y0157549D01*
X0289001Y0157428D01*
X0289038Y0157308D01*
X0289078Y0157189D01*
X0289123Y0157072D01*
X0289171Y0156955D01*
X0289223Y0156841D01*
X0289278Y0156728D01*
X0289337Y0156617D01*
X0289399Y0156508D01*
X0289465Y0156401D01*
X0289534Y0156296D01*
X0289606Y0156193D01*
X0289681Y0156092D01*
X0289760Y0155994D01*
X0289842Y0155899D01*
X0289926Y0155806D01*
X0290014Y0155716D01*
X0290104Y0155628D01*
X0290197Y0155544D01*
X0290292Y0155462D01*
X0290390Y0155383D01*
X0290491Y0155308D01*
X0290594Y0155236D01*
X0290699Y0155167D01*
X0290806Y0155101D01*
X0290915Y0155039D01*
X0291026Y0154980D01*
X0291139Y0154925D01*
X0291253Y0154873D01*
X0291370Y0154825D01*
X0291487Y0154780D01*
X0291606Y0154740D01*
X0291726Y0154703D01*
X0291847Y0154670D01*
X0291969Y0154640D01*
X0292092Y0154615D01*
X0292216Y0154593D01*
X0292341Y0154576D01*
X0292466Y0154562D01*
X0292591Y0154552D01*
X0292716Y0154546D01*
X0292842Y0154544D01*
X0292968Y0154546D01*
X0293093Y0154552D01*
X0293218Y0154562D01*
X0293343Y0154576D01*
X0293468Y0154593D01*
X0293592Y0154615D01*
X0293715Y0154640D01*
X0293837Y0154670D01*
X0293958Y0154703D01*
X0294078Y0154740D01*
X0294197Y0154780D01*
X0294314Y0154825D01*
X0294431Y0154873D01*
X0294545Y0154925D01*
X0294658Y0154980D01*
X0294769Y0155039D01*
X0294878Y0155101D01*
X0294985Y0155167D01*
X0295090Y0155236D01*
X0295193Y0155308D01*
X0295294Y0155383D01*
X0295392Y0155462D01*
X0295487Y0155544D01*
X0295580Y0155628D01*
X0295670Y0155716D01*
X0295758Y0155806D01*
X0295842Y0155899D01*
X0295924Y0155994D01*
X0296003Y0156092D01*
X0296078Y0156193D01*
X0296150Y0156296D01*
X0296219Y0156401D01*
X0296285Y0156508D01*
X0296347Y0156617D01*
X0296406Y0156728D01*
X0296461Y0156841D01*
X0296513Y0156955D01*
X0296561Y0157072D01*
X0296606Y0157189D01*
X0296646Y0157308D01*
X0296683Y0157428D01*
X0296716Y0157549D01*
X0296746Y0157671D01*
X0296771Y0157794D01*
X0296793Y0157918D01*
X0296810Y0158043D01*
X0296824Y0158168D01*
X0296834Y0158293D01*
X0296840Y0158418D01*
X0296842Y0158544D01*
X0304342Y0158544D01*
X0304342Y0138544D01*
X0281342Y0138544D01*
X0281342Y0158544D01*
X0281009Y0118367D02*
X0288509Y0118367D01*
X0288511Y0118241D01*
X0288517Y0118116D01*
X0288527Y0117991D01*
X0288541Y0117866D01*
X0288558Y0117741D01*
X0288580Y0117617D01*
X0288605Y0117494D01*
X0288635Y0117372D01*
X0288668Y0117251D01*
X0288705Y0117131D01*
X0288745Y0117012D01*
X0288790Y0116895D01*
X0288838Y0116778D01*
X0288890Y0116664D01*
X0288945Y0116551D01*
X0289004Y0116440D01*
X0289066Y0116331D01*
X0289132Y0116224D01*
X0289201Y0116119D01*
X0289273Y0116016D01*
X0289348Y0115915D01*
X0289427Y0115817D01*
X0289509Y0115722D01*
X0289593Y0115629D01*
X0289681Y0115539D01*
X0289771Y0115451D01*
X0289864Y0115367D01*
X0289959Y0115285D01*
X0290057Y0115206D01*
X0290158Y0115131D01*
X0290261Y0115059D01*
X0290366Y0114990D01*
X0290473Y0114924D01*
X0290582Y0114862D01*
X0290693Y0114803D01*
X0290806Y0114748D01*
X0290920Y0114696D01*
X0291037Y0114648D01*
X0291154Y0114603D01*
X0291273Y0114563D01*
X0291393Y0114526D01*
X0291514Y0114493D01*
X0291636Y0114463D01*
X0291759Y0114438D01*
X0291883Y0114416D01*
X0292008Y0114399D01*
X0292133Y0114385D01*
X0292258Y0114375D01*
X0292383Y0114369D01*
X0292509Y0114367D01*
X0292635Y0114369D01*
X0292760Y0114375D01*
X0292885Y0114385D01*
X0293010Y0114399D01*
X0293135Y0114416D01*
X0293259Y0114438D01*
X0293382Y0114463D01*
X0293504Y0114493D01*
X0293625Y0114526D01*
X0293745Y0114563D01*
X0293864Y0114603D01*
X0293981Y0114648D01*
X0294098Y0114696D01*
X0294212Y0114748D01*
X0294325Y0114803D01*
X0294436Y0114862D01*
X0294545Y0114924D01*
X0294652Y0114990D01*
X0294757Y0115059D01*
X0294860Y0115131D01*
X0294961Y0115206D01*
X0295059Y0115285D01*
X0295154Y0115367D01*
X0295247Y0115451D01*
X0295337Y0115539D01*
X0295425Y0115629D01*
X0295509Y0115722D01*
X0295591Y0115817D01*
X0295670Y0115915D01*
X0295745Y0116016D01*
X0295817Y0116119D01*
X0295886Y0116224D01*
X0295952Y0116331D01*
X0296014Y0116440D01*
X0296073Y0116551D01*
X0296128Y0116664D01*
X0296180Y0116778D01*
X0296228Y0116895D01*
X0296273Y0117012D01*
X0296313Y0117131D01*
X0296350Y0117251D01*
X0296383Y0117372D01*
X0296413Y0117494D01*
X0296438Y0117617D01*
X0296460Y0117741D01*
X0296477Y0117866D01*
X0296491Y0117991D01*
X0296501Y0118116D01*
X0296507Y0118241D01*
X0296509Y0118367D01*
X0304009Y0118367D01*
X0304009Y0098367D01*
X0281009Y0098367D01*
X0281009Y0118367D01*
X0281577Y0089217D02*
X0289077Y0089217D01*
X0289079Y0089091D01*
X0289085Y0088966D01*
X0289095Y0088841D01*
X0289109Y0088716D01*
X0289126Y0088591D01*
X0289148Y0088467D01*
X0289173Y0088344D01*
X0289203Y0088222D01*
X0289236Y0088101D01*
X0289273Y0087981D01*
X0289313Y0087862D01*
X0289358Y0087745D01*
X0289406Y0087628D01*
X0289458Y0087514D01*
X0289513Y0087401D01*
X0289572Y0087290D01*
X0289634Y0087181D01*
X0289700Y0087074D01*
X0289769Y0086969D01*
X0289841Y0086866D01*
X0289916Y0086765D01*
X0289995Y0086667D01*
X0290077Y0086572D01*
X0290161Y0086479D01*
X0290249Y0086389D01*
X0290339Y0086301D01*
X0290432Y0086217D01*
X0290527Y0086135D01*
X0290625Y0086056D01*
X0290726Y0085981D01*
X0290829Y0085909D01*
X0290934Y0085840D01*
X0291041Y0085774D01*
X0291150Y0085712D01*
X0291261Y0085653D01*
X0291374Y0085598D01*
X0291488Y0085546D01*
X0291605Y0085498D01*
X0291722Y0085453D01*
X0291841Y0085413D01*
X0291961Y0085376D01*
X0292082Y0085343D01*
X0292204Y0085313D01*
X0292327Y0085288D01*
X0292451Y0085266D01*
X0292576Y0085249D01*
X0292701Y0085235D01*
X0292826Y0085225D01*
X0292951Y0085219D01*
X0293077Y0085217D01*
X0293203Y0085219D01*
X0293328Y0085225D01*
X0293453Y0085235D01*
X0293578Y0085249D01*
X0293703Y0085266D01*
X0293827Y0085288D01*
X0293950Y0085313D01*
X0294072Y0085343D01*
X0294193Y0085376D01*
X0294313Y0085413D01*
X0294432Y0085453D01*
X0294549Y0085498D01*
X0294666Y0085546D01*
X0294780Y0085598D01*
X0294893Y0085653D01*
X0295004Y0085712D01*
X0295113Y0085774D01*
X0295220Y0085840D01*
X0295325Y0085909D01*
X0295428Y0085981D01*
X0295529Y0086056D01*
X0295627Y0086135D01*
X0295722Y0086217D01*
X0295815Y0086301D01*
X0295905Y0086389D01*
X0295993Y0086479D01*
X0296077Y0086572D01*
X0296159Y0086667D01*
X0296238Y0086765D01*
X0296313Y0086866D01*
X0296385Y0086969D01*
X0296454Y0087074D01*
X0296520Y0087181D01*
X0296582Y0087290D01*
X0296641Y0087401D01*
X0296696Y0087514D01*
X0296748Y0087628D01*
X0296796Y0087745D01*
X0296841Y0087862D01*
X0296881Y0087981D01*
X0296918Y0088101D01*
X0296951Y0088222D01*
X0296981Y0088344D01*
X0297006Y0088467D01*
X0297028Y0088591D01*
X0297045Y0088716D01*
X0297059Y0088841D01*
X0297069Y0088966D01*
X0297075Y0089091D01*
X0297077Y0089217D01*
X0304577Y0089217D01*
X0304577Y0069217D01*
X0281577Y0069217D01*
X0281577Y0089217D01*
X0280547Y0083731D02*
X0281614Y0082663D01*
X0281614Y0079460D01*
X0278411Y0079460D01*
X0277344Y0080528D01*
X0278411Y0081595D01*
X0281614Y0081595D01*
X0280547Y0083731D02*
X0278411Y0083731D01*
X0275169Y0082663D02*
X0275169Y0081595D01*
X0270898Y0081595D01*
X0270898Y0080528D02*
X0270898Y0082663D01*
X0271966Y0083731D01*
X0274101Y0083731D01*
X0275169Y0082663D01*
X0274101Y0079460D02*
X0271966Y0079460D01*
X0270898Y0080528D01*
X0266588Y0079460D02*
X0266588Y0085866D01*
X0264453Y0085866D02*
X0268723Y0085866D01*
X0255832Y0083731D02*
X0252630Y0083731D01*
X0251562Y0082663D01*
X0252630Y0081595D01*
X0254765Y0081595D01*
X0255832Y0080528D01*
X0254765Y0079460D01*
X0251562Y0079460D01*
X0249387Y0079460D02*
X0246184Y0079460D01*
X0245116Y0080528D01*
X0245116Y0082663D01*
X0246184Y0083731D01*
X0249387Y0083731D01*
X0241887Y0083731D02*
X0241887Y0079460D01*
X0240819Y0079460D02*
X0242955Y0079460D01*
X0238658Y0079460D02*
X0237590Y0080528D01*
X0237590Y0084798D01*
X0236522Y0083731D02*
X0238658Y0083731D01*
X0240819Y0083731D02*
X0241887Y0083731D01*
X0241887Y0085866D02*
X0241887Y0086933D01*
X0234347Y0082663D02*
X0234347Y0080528D01*
X0233280Y0079460D01*
X0231145Y0079460D01*
X0230077Y0080528D01*
X0230077Y0082663D01*
X0231145Y0083731D01*
X0233280Y0083731D01*
X0234347Y0082663D01*
X0227902Y0082663D02*
X0227902Y0080528D01*
X0226834Y0079460D01*
X0223631Y0079460D01*
X0223631Y0085866D01*
X0223631Y0083731D02*
X0226834Y0083731D01*
X0227902Y0082663D01*
X0226848Y0076433D02*
X0226848Y0075366D01*
X0226848Y0073231D02*
X0226848Y0068960D01*
X0227915Y0068960D02*
X0225780Y0068960D01*
X0223618Y0068960D02*
X0222551Y0070028D01*
X0222551Y0074298D01*
X0223618Y0073231D02*
X0221483Y0073231D01*
X0219308Y0072163D02*
X0218240Y0073231D01*
X0216105Y0073231D01*
X0215037Y0072163D01*
X0215037Y0070028D01*
X0216105Y0068960D01*
X0218240Y0068960D01*
X0219308Y0070028D01*
X0219308Y0072163D01*
X0212862Y0072163D02*
X0212862Y0068960D01*
X0210727Y0068960D02*
X0210727Y0072163D01*
X0211795Y0073231D01*
X0212862Y0072163D01*
X0210727Y0072163D02*
X0209660Y0073231D01*
X0208592Y0073231D01*
X0208592Y0068960D01*
X0206417Y0070028D02*
X0206417Y0072163D01*
X0205349Y0073231D01*
X0203214Y0073231D01*
X0202146Y0072163D01*
X0202146Y0070028D01*
X0203214Y0068960D01*
X0205349Y0068960D01*
X0206417Y0070028D01*
X0199985Y0068960D02*
X0198917Y0070028D01*
X0198917Y0074298D01*
X0197849Y0073231D02*
X0199985Y0073231D01*
X0195674Y0073231D02*
X0195674Y0068960D01*
X0192472Y0068960D01*
X0191404Y0070028D01*
X0191404Y0073231D01*
X0189229Y0073231D02*
X0189229Y0068960D01*
X0189229Y0072163D02*
X0184958Y0072163D01*
X0184958Y0073231D02*
X0187094Y0075366D01*
X0189229Y0073231D01*
X0184958Y0073231D02*
X0184958Y0068960D01*
X0176344Y0073231D02*
X0175277Y0073231D01*
X0173142Y0071095D01*
X0173142Y0068960D02*
X0173142Y0073231D01*
X0170967Y0072163D02*
X0169899Y0073231D01*
X0167764Y0073231D01*
X0166696Y0072163D01*
X0166696Y0070028D01*
X0167764Y0068960D01*
X0169899Y0068960D01*
X0170967Y0070028D01*
X0170967Y0072163D01*
X0164521Y0075366D02*
X0160251Y0075366D01*
X0160251Y0068960D01*
X0160251Y0072163D02*
X0162386Y0072163D01*
X0161298Y0079460D02*
X0158096Y0079460D01*
X0157028Y0080528D01*
X0157028Y0082663D01*
X0158096Y0083731D01*
X0161298Y0083731D01*
X0161298Y0085866D02*
X0161298Y0079460D01*
X0163473Y0080528D02*
X0163473Y0082663D01*
X0164541Y0083731D01*
X0166676Y0083731D01*
X0167744Y0082663D01*
X0167744Y0081595D01*
X0163473Y0081595D01*
X0163473Y0080528D02*
X0164541Y0079460D01*
X0166676Y0079460D01*
X0169919Y0079460D02*
X0169919Y0083731D01*
X0172054Y0083731D02*
X0173122Y0083731D01*
X0172054Y0083731D02*
X0169919Y0081595D01*
X0175290Y0080528D02*
X0176358Y0079460D01*
X0177425Y0080528D01*
X0178493Y0079460D01*
X0179561Y0080528D01*
X0179561Y0083731D01*
X0182803Y0083731D02*
X0184938Y0083731D01*
X0186006Y0082663D01*
X0186006Y0079460D01*
X0182803Y0079460D01*
X0181736Y0080528D01*
X0182803Y0081595D01*
X0186006Y0081595D01*
X0188181Y0083731D02*
X0190316Y0083731D01*
X0189249Y0084798D02*
X0189249Y0080528D01*
X0190316Y0079460D01*
X0192478Y0080528D02*
X0192478Y0082663D01*
X0193546Y0083731D01*
X0195681Y0083731D01*
X0196749Y0082663D01*
X0196749Y0081595D01*
X0192478Y0081595D01*
X0192478Y0080528D02*
X0193546Y0079460D01*
X0195681Y0079460D01*
X0198924Y0079460D02*
X0198924Y0083731D01*
X0201059Y0083731D02*
X0202126Y0083731D01*
X0201059Y0083731D02*
X0198924Y0081595D01*
X0210740Y0081595D02*
X0213943Y0081595D01*
X0215011Y0082663D01*
X0215011Y0084798D01*
X0213943Y0085866D01*
X0210740Y0085866D01*
X0210740Y0079460D01*
X0212876Y0081595D02*
X0215011Y0079460D01*
X0217186Y0080528D02*
X0218254Y0079460D01*
X0220389Y0079460D01*
X0221456Y0080528D01*
X0221456Y0082663D01*
X0220389Y0083731D01*
X0218254Y0083731D01*
X0217186Y0082663D01*
X0217186Y0080528D01*
X0225780Y0073231D02*
X0226848Y0073231D01*
X0230077Y0073231D02*
X0232212Y0068960D01*
X0234347Y0073231D01*
X0236522Y0072163D02*
X0237590Y0073231D01*
X0239725Y0073231D01*
X0240793Y0072163D01*
X0240793Y0071095D01*
X0236522Y0071095D01*
X0236522Y0070028D02*
X0236522Y0072163D01*
X0236522Y0070028D02*
X0237590Y0068960D01*
X0239725Y0068960D01*
X0249413Y0068960D02*
X0249413Y0075366D01*
X0252616Y0075366D01*
X0253684Y0074298D01*
X0253684Y0072163D01*
X0252616Y0071095D01*
X0249413Y0071095D01*
X0251549Y0071095D02*
X0253684Y0068960D01*
X0255859Y0070028D02*
X0255859Y0072163D01*
X0256927Y0073231D01*
X0259062Y0073231D01*
X0260129Y0072163D01*
X0260129Y0071095D01*
X0255859Y0071095D01*
X0255859Y0070028D02*
X0256927Y0068960D01*
X0259062Y0068960D01*
X0262304Y0068960D02*
X0265507Y0068960D01*
X0266575Y0070028D01*
X0265507Y0071095D01*
X0263372Y0071095D01*
X0262304Y0072163D01*
X0263372Y0073231D01*
X0266575Y0073231D01*
X0268750Y0072163D02*
X0269817Y0073231D01*
X0271953Y0073231D01*
X0273020Y0072163D01*
X0273020Y0071095D01*
X0268750Y0071095D01*
X0268750Y0070028D02*
X0268750Y0072163D01*
X0268750Y0070028D02*
X0269817Y0068960D01*
X0271953Y0068960D01*
X0275195Y0070028D02*
X0276263Y0071095D01*
X0279466Y0071095D01*
X0279466Y0072163D02*
X0279466Y0068960D01*
X0276263Y0068960D01*
X0275195Y0070028D01*
X0276263Y0073231D02*
X0278398Y0073231D01*
X0279466Y0072163D01*
X0281641Y0071095D02*
X0283776Y0073231D01*
X0284844Y0073231D01*
X0287012Y0072163D02*
X0287012Y0070028D01*
X0288080Y0068960D01*
X0291282Y0068960D01*
X0293458Y0068960D02*
X0293458Y0075366D01*
X0294525Y0073231D02*
X0293458Y0072163D01*
X0294525Y0073231D02*
X0296660Y0073231D01*
X0297728Y0072163D01*
X0297728Y0068960D01*
X0291282Y0073231D02*
X0288080Y0073231D01*
X0287012Y0072163D01*
X0281641Y0073231D02*
X0281641Y0068960D01*
X0283789Y0079460D02*
X0283789Y0083731D01*
X0284857Y0083731D01*
X0285925Y0082663D01*
X0286992Y0083731D01*
X0288060Y0082663D01*
X0288060Y0079460D01*
X0285925Y0079460D02*
X0285925Y0082663D01*
X0333349Y0058373D02*
X0333349Y0040273D01*
X0369749Y0040273D01*
X0374349Y0044773D01*
X0374349Y0058373D01*
X0333349Y0058373D01*
X0175290Y0080528D02*
X0175290Y0083731D01*
X0154853Y0082663D02*
X0154853Y0079460D01*
X0154853Y0082663D02*
X0153785Y0083731D01*
X0150582Y0083731D01*
X0150582Y0079460D01*
X0148407Y0080528D02*
X0148407Y0085866D01*
X0144137Y0085866D02*
X0144137Y0080528D01*
X0145205Y0079460D01*
X0147340Y0079460D01*
X0148407Y0080528D01*
X0148434Y0073231D02*
X0148434Y0068960D01*
X0148434Y0071095D02*
X0150569Y0073231D01*
X0151637Y0073231D01*
X0146259Y0072163D02*
X0146259Y0071095D01*
X0141988Y0071095D01*
X0141988Y0070028D02*
X0141988Y0072163D01*
X0143056Y0073231D01*
X0145191Y0073231D01*
X0146259Y0072163D01*
X0145191Y0068960D02*
X0143056Y0068960D01*
X0141988Y0070028D01*
X0139827Y0068960D02*
X0138759Y0070028D01*
X0138759Y0074298D01*
X0137691Y0073231D02*
X0139827Y0073231D01*
X0135516Y0072163D02*
X0135516Y0068960D01*
X0135516Y0072163D02*
X0134449Y0073231D01*
X0131246Y0073231D01*
X0131246Y0068960D01*
X0129071Y0071095D02*
X0124800Y0071095D01*
X0124800Y0070028D02*
X0124800Y0072163D01*
X0125868Y0073231D01*
X0128003Y0073231D01*
X0129071Y0072163D01*
X0129071Y0071095D01*
X0128003Y0068960D02*
X0125868Y0068960D01*
X0124800Y0070028D01*
X0122625Y0070028D02*
X0121558Y0068960D01*
X0119423Y0068960D01*
X0118355Y0070028D01*
X0118355Y0074298D01*
X0119423Y0075366D01*
X0121558Y0075366D01*
X0122625Y0074298D01*
X0120490Y0079460D02*
X0120490Y0085866D01*
X0118355Y0085866D02*
X0122625Y0085866D01*
X0124800Y0085866D02*
X0124800Y0079460D01*
X0124800Y0082663D02*
X0125868Y0083731D01*
X0128003Y0083731D01*
X0129071Y0082663D01*
X0129071Y0079460D01*
X0131246Y0080528D02*
X0131246Y0082663D01*
X0132314Y0083731D01*
X0134449Y0083731D01*
X0135516Y0082663D01*
X0135516Y0081595D01*
X0131246Y0081595D01*
X0131246Y0080528D02*
X0132314Y0079460D01*
X0134449Y0079460D01*
X0110186Y0103691D02*
X0109118Y0102624D01*
X0106983Y0102624D01*
X0105915Y0103691D01*
X0105915Y0105826D02*
X0108050Y0106894D01*
X0109118Y0106894D01*
X0110186Y0105826D01*
X0110186Y0103691D01*
X0105915Y0105826D02*
X0105915Y0109029D01*
X0110186Y0109029D01*
X0103740Y0109029D02*
X0103740Y0102624D01*
X0101605Y0104759D01*
X0099470Y0102624D01*
X0099470Y0109029D01*
X0097295Y0107961D02*
X0096227Y0109029D01*
X0094092Y0109029D01*
X0093024Y0107961D01*
X0093024Y0106894D01*
X0094092Y0105826D01*
X0096227Y0105826D01*
X0097295Y0104759D01*
X0097295Y0103691D01*
X0096227Y0102624D01*
X0094092Y0102624D01*
X0093024Y0103691D01*
X0094425Y0119289D02*
X0093358Y0120356D01*
X0094425Y0119289D02*
X0096560Y0119289D01*
X0097628Y0120356D01*
X0097628Y0121424D01*
X0096560Y0122491D01*
X0094425Y0122491D01*
X0093358Y0123559D01*
X0093358Y0124626D01*
X0094425Y0125694D01*
X0096560Y0125694D01*
X0097628Y0124626D01*
X0099803Y0125694D02*
X0099803Y0119289D01*
X0101938Y0121424D01*
X0104073Y0119289D01*
X0104073Y0125694D01*
X0106248Y0122491D02*
X0110519Y0122491D01*
X0109451Y0119289D02*
X0109451Y0125694D01*
X0106248Y0122491D01*
X0105073Y0135620D02*
X0102938Y0137755D01*
X0100803Y0135620D01*
X0100803Y0142026D01*
X0098628Y0140958D02*
X0097560Y0142026D01*
X0095425Y0142026D01*
X0094357Y0140958D01*
X0094357Y0139891D01*
X0095425Y0138823D01*
X0097560Y0138823D01*
X0098628Y0137755D01*
X0098628Y0136688D01*
X0097560Y0135620D01*
X0095425Y0135620D01*
X0094357Y0136688D01*
X0105073Y0135620D02*
X0105073Y0142026D01*
X0107248Y0140958D02*
X0108316Y0142026D01*
X0110451Y0142026D01*
X0111519Y0140958D01*
X0111519Y0139891D01*
X0110451Y0138823D01*
X0111519Y0137755D01*
X0111519Y0136688D01*
X0110451Y0135620D01*
X0108316Y0135620D01*
X0107248Y0136688D01*
X0109384Y0138823D02*
X0110451Y0138823D01*
X0111185Y0151285D02*
X0111185Y0155556D01*
X0109050Y0157691D01*
X0106915Y0155556D01*
X0106915Y0151285D01*
X0106915Y0154488D02*
X0111185Y0154488D01*
X0113361Y0153421D02*
X0116563Y0153421D01*
X0117631Y0154488D01*
X0117631Y0156623D01*
X0116563Y0157691D01*
X0113361Y0157691D01*
X0113361Y0151285D01*
X0115496Y0153421D02*
X0117631Y0151285D01*
X0121941Y0151285D02*
X0121941Y0157691D01*
X0119806Y0157691D02*
X0124076Y0157691D01*
X0134946Y0160271D02*
X0158946Y0160271D01*
X0159106Y0160273D01*
X0159265Y0160279D01*
X0159424Y0160289D01*
X0159583Y0160302D01*
X0159742Y0160320D01*
X0159900Y0160341D01*
X0160057Y0160367D01*
X0160214Y0160396D01*
X0160370Y0160429D01*
X0160525Y0160466D01*
X0160680Y0160506D01*
X0160833Y0160551D01*
X0160985Y0160599D01*
X0161136Y0160651D01*
X0161285Y0160707D01*
X0161433Y0160766D01*
X0161580Y0160829D01*
X0161725Y0160895D01*
X0161868Y0160965D01*
X0162010Y0161039D01*
X0162150Y0161115D01*
X0162288Y0161196D01*
X0162423Y0161279D01*
X0162557Y0161366D01*
X0162689Y0161457D01*
X0162818Y0161550D01*
X0162945Y0161647D01*
X0163070Y0161746D01*
X0163192Y0161849D01*
X0163311Y0161955D01*
X0163428Y0162063D01*
X0163542Y0162175D01*
X0163654Y0162289D01*
X0163762Y0162406D01*
X0163868Y0162525D01*
X0163971Y0162647D01*
X0164070Y0162772D01*
X0164167Y0162899D01*
X0164260Y0163028D01*
X0164351Y0163160D01*
X0164438Y0163294D01*
X0164521Y0163429D01*
X0164602Y0163567D01*
X0164678Y0163707D01*
X0164752Y0163849D01*
X0164822Y0163992D01*
X0164888Y0164137D01*
X0164951Y0164284D01*
X0165010Y0164432D01*
X0165066Y0164581D01*
X0165118Y0164732D01*
X0165166Y0164884D01*
X0165211Y0165037D01*
X0165251Y0165192D01*
X0165288Y0165347D01*
X0165321Y0165503D01*
X0165350Y0165660D01*
X0165376Y0165817D01*
X0165397Y0165975D01*
X0165415Y0166134D01*
X0165428Y0166293D01*
X0165438Y0166452D01*
X0165444Y0166611D01*
X0165446Y0166771D01*
X0165444Y0166931D01*
X0165438Y0167090D01*
X0165428Y0167249D01*
X0165415Y0167408D01*
X0165397Y0167567D01*
X0165376Y0167725D01*
X0165350Y0167882D01*
X0165321Y0168039D01*
X0165288Y0168195D01*
X0165251Y0168350D01*
X0165211Y0168505D01*
X0165166Y0168658D01*
X0165118Y0168810D01*
X0165066Y0168961D01*
X0165010Y0169110D01*
X0164951Y0169258D01*
X0164888Y0169405D01*
X0164822Y0169550D01*
X0164752Y0169693D01*
X0164678Y0169835D01*
X0164602Y0169975D01*
X0164521Y0170113D01*
X0164438Y0170248D01*
X0164351Y0170382D01*
X0164260Y0170514D01*
X0164167Y0170643D01*
X0164070Y0170770D01*
X0163971Y0170895D01*
X0163868Y0171017D01*
X0163762Y0171136D01*
X0163654Y0171253D01*
X0163542Y0171367D01*
X0163428Y0171479D01*
X0163311Y0171587D01*
X0163192Y0171693D01*
X0163070Y0171796D01*
X0162945Y0171895D01*
X0162818Y0171992D01*
X0162689Y0172085D01*
X0162557Y0172176D01*
X0162423Y0172263D01*
X0162288Y0172346D01*
X0162150Y0172427D01*
X0162010Y0172503D01*
X0161868Y0172577D01*
X0161725Y0172647D01*
X0161580Y0172713D01*
X0161433Y0172776D01*
X0161285Y0172835D01*
X0161136Y0172891D01*
X0160985Y0172943D01*
X0160833Y0172991D01*
X0160680Y0173036D01*
X0160525Y0173076D01*
X0160370Y0173113D01*
X0160214Y0173146D01*
X0160057Y0173175D01*
X0159900Y0173201D01*
X0159742Y0173222D01*
X0159583Y0173240D01*
X0159424Y0173253D01*
X0159265Y0173263D01*
X0159106Y0173269D01*
X0158946Y0173271D01*
X0134946Y0173271D01*
X0134786Y0173269D01*
X0134627Y0173263D01*
X0134468Y0173253D01*
X0134309Y0173240D01*
X0134150Y0173222D01*
X0133992Y0173201D01*
X0133835Y0173175D01*
X0133678Y0173146D01*
X0133522Y0173113D01*
X0133367Y0173076D01*
X0133212Y0173036D01*
X0133059Y0172991D01*
X0132907Y0172943D01*
X0132756Y0172891D01*
X0132607Y0172835D01*
X0132459Y0172776D01*
X0132312Y0172713D01*
X0132167Y0172647D01*
X0132024Y0172577D01*
X0131882Y0172503D01*
X0131742Y0172427D01*
X0131604Y0172346D01*
X0131469Y0172263D01*
X0131335Y0172176D01*
X0131203Y0172085D01*
X0131074Y0171992D01*
X0130947Y0171895D01*
X0130822Y0171796D01*
X0130700Y0171693D01*
X0130581Y0171587D01*
X0130464Y0171479D01*
X0130350Y0171367D01*
X0130238Y0171253D01*
X0130130Y0171136D01*
X0130024Y0171017D01*
X0129921Y0170895D01*
X0129822Y0170770D01*
X0129725Y0170643D01*
X0129632Y0170514D01*
X0129541Y0170382D01*
X0129454Y0170248D01*
X0129371Y0170113D01*
X0129290Y0169975D01*
X0129214Y0169835D01*
X0129140Y0169693D01*
X0129070Y0169550D01*
X0129004Y0169405D01*
X0128941Y0169258D01*
X0128882Y0169110D01*
X0128826Y0168961D01*
X0128774Y0168810D01*
X0128726Y0168658D01*
X0128681Y0168505D01*
X0128641Y0168350D01*
X0128604Y0168195D01*
X0128571Y0168039D01*
X0128542Y0167882D01*
X0128516Y0167725D01*
X0128495Y0167567D01*
X0128477Y0167408D01*
X0128464Y0167249D01*
X0128454Y0167090D01*
X0128448Y0166931D01*
X0128446Y0166771D01*
X0128448Y0166611D01*
X0128454Y0166452D01*
X0128464Y0166293D01*
X0128477Y0166134D01*
X0128495Y0165975D01*
X0128516Y0165817D01*
X0128542Y0165660D01*
X0128571Y0165503D01*
X0128604Y0165347D01*
X0128641Y0165192D01*
X0128681Y0165037D01*
X0128726Y0164884D01*
X0128774Y0164732D01*
X0128826Y0164581D01*
X0128882Y0164432D01*
X0128941Y0164284D01*
X0129004Y0164137D01*
X0129070Y0163992D01*
X0129140Y0163849D01*
X0129214Y0163707D01*
X0129290Y0163567D01*
X0129371Y0163429D01*
X0129454Y0163294D01*
X0129541Y0163160D01*
X0129632Y0163028D01*
X0129725Y0162899D01*
X0129822Y0162772D01*
X0129921Y0162647D01*
X0130024Y0162525D01*
X0130130Y0162406D01*
X0130238Y0162289D01*
X0130350Y0162175D01*
X0130464Y0162063D01*
X0130581Y0161955D01*
X0130700Y0161849D01*
X0130822Y0161746D01*
X0130947Y0161647D01*
X0131074Y0161550D01*
X0131203Y0161457D01*
X0131335Y0161366D01*
X0131469Y0161279D01*
X0131604Y0161196D01*
X0131742Y0161115D01*
X0131882Y0161039D01*
X0132024Y0160965D01*
X0132167Y0160895D01*
X0132312Y0160829D01*
X0132459Y0160766D01*
X0132607Y0160707D01*
X0132756Y0160651D01*
X0132907Y0160599D01*
X0133059Y0160551D01*
X0133212Y0160506D01*
X0133367Y0160466D01*
X0133522Y0160429D01*
X0133678Y0160396D01*
X0133835Y0160367D01*
X0133992Y0160341D01*
X0134150Y0160320D01*
X0134309Y0160302D01*
X0134468Y0160289D01*
X0134627Y0160279D01*
X0134786Y0160273D01*
X0134946Y0160271D01*
X0141946Y0166771D02*
X0144446Y0166771D01*
X0144446Y0169771D01*
X0145946Y0169771D02*
X0145946Y0163771D01*
X0147946Y0163771D01*
X0147946Y0169771D01*
X0145946Y0169771D01*
X0144446Y0166771D02*
X0144446Y0163771D01*
X0149446Y0163771D02*
X0149446Y0166771D01*
X0151946Y0166771D01*
X0149446Y0166771D02*
X0149446Y0169771D01*
X0104740Y0157691D02*
X0100470Y0157691D01*
X0102605Y0157691D02*
X0102605Y0151285D01*
X0098294Y0152353D02*
X0097227Y0151285D01*
X0095092Y0151285D01*
X0094024Y0152353D01*
X0095092Y0154488D02*
X0097227Y0154488D01*
X0098294Y0153421D01*
X0098294Y0152353D01*
X0095092Y0154488D02*
X0094024Y0155556D01*
X0094024Y0156623D01*
X0095092Y0157691D01*
X0097227Y0157691D01*
X0098294Y0156623D01*
X0056729Y0189981D02*
X0056729Y0195981D01*
X0055729Y0195981D01*
X0055729Y0196981D01*
X0055729Y0189981D02*
X0055729Y0188981D01*
X0055729Y0189981D02*
X0056729Y0189981D01*
X0052229Y0180981D02*
X0048729Y0180981D01*
X0038729Y0180981D01*
X0035229Y0180981D01*
X0031729Y0188981D02*
X0031729Y0189981D01*
X0030729Y0189981D01*
X0030729Y0195981D01*
X0031729Y0195981D01*
X0031729Y0196981D01*
X0035229Y0204981D02*
X0039229Y0204981D01*
X0048729Y0204981D01*
X0052229Y0204981D01*
X0042729Y0192981D02*
X0042731Y0193044D01*
X0042737Y0193106D01*
X0042747Y0193168D01*
X0042760Y0193230D01*
X0042778Y0193290D01*
X0042799Y0193349D01*
X0042824Y0193407D01*
X0042853Y0193463D01*
X0042885Y0193517D01*
X0042920Y0193569D01*
X0042958Y0193618D01*
X0043000Y0193666D01*
X0043044Y0193710D01*
X0043092Y0193752D01*
X0043141Y0193790D01*
X0043193Y0193825D01*
X0043247Y0193857D01*
X0043303Y0193886D01*
X0043361Y0193911D01*
X0043420Y0193932D01*
X0043480Y0193950D01*
X0043542Y0193963D01*
X0043604Y0193973D01*
X0043666Y0193979D01*
X0043729Y0193981D01*
X0043792Y0193979D01*
X0043854Y0193973D01*
X0043916Y0193963D01*
X0043978Y0193950D01*
X0044038Y0193932D01*
X0044097Y0193911D01*
X0044155Y0193886D01*
X0044211Y0193857D01*
X0044265Y0193825D01*
X0044317Y0193790D01*
X0044366Y0193752D01*
X0044414Y0193710D01*
X0044458Y0193666D01*
X0044500Y0193618D01*
X0044538Y0193569D01*
X0044573Y0193517D01*
X0044605Y0193463D01*
X0044634Y0193407D01*
X0044659Y0193349D01*
X0044680Y0193290D01*
X0044698Y0193230D01*
X0044711Y0193168D01*
X0044721Y0193106D01*
X0044727Y0193044D01*
X0044729Y0192981D01*
X0044727Y0192918D01*
X0044721Y0192856D01*
X0044711Y0192794D01*
X0044698Y0192732D01*
X0044680Y0192672D01*
X0044659Y0192613D01*
X0044634Y0192555D01*
X0044605Y0192499D01*
X0044573Y0192445D01*
X0044538Y0192393D01*
X0044500Y0192344D01*
X0044458Y0192296D01*
X0044414Y0192252D01*
X0044366Y0192210D01*
X0044317Y0192172D01*
X0044265Y0192137D01*
X0044211Y0192105D01*
X0044155Y0192076D01*
X0044097Y0192051D01*
X0044038Y0192030D01*
X0043978Y0192012D01*
X0043916Y0191999D01*
X0043854Y0191989D01*
X0043792Y0191983D01*
X0043729Y0191981D01*
X0043666Y0191983D01*
X0043604Y0191989D01*
X0043542Y0191999D01*
X0043480Y0192012D01*
X0043420Y0192030D01*
X0043361Y0192051D01*
X0043303Y0192076D01*
X0043247Y0192105D01*
X0043193Y0192137D01*
X0043141Y0192172D01*
X0043092Y0192210D01*
X0043044Y0192252D01*
X0043000Y0192296D01*
X0042958Y0192344D01*
X0042920Y0192393D01*
X0042885Y0192445D01*
X0042853Y0192499D01*
X0042824Y0192555D01*
X0042799Y0192613D01*
X0042778Y0192672D01*
X0042760Y0192732D01*
X0042747Y0192794D01*
X0042737Y0192856D01*
X0042731Y0192918D01*
X0042729Y0192981D01*
X0036729Y0192981D02*
X0036731Y0193153D01*
X0036737Y0193324D01*
X0036748Y0193496D01*
X0036763Y0193667D01*
X0036782Y0193838D01*
X0036805Y0194008D01*
X0036832Y0194178D01*
X0036864Y0194347D01*
X0036899Y0194515D01*
X0036939Y0194682D01*
X0036983Y0194848D01*
X0037030Y0195013D01*
X0037082Y0195177D01*
X0037138Y0195339D01*
X0037198Y0195500D01*
X0037262Y0195660D01*
X0037330Y0195818D01*
X0037401Y0195974D01*
X0037476Y0196128D01*
X0037556Y0196281D01*
X0037638Y0196431D01*
X0037725Y0196580D01*
X0037815Y0196726D01*
X0037909Y0196870D01*
X0038006Y0197012D01*
X0038107Y0197151D01*
X0038211Y0197288D01*
X0038318Y0197422D01*
X0038429Y0197553D01*
X0038542Y0197682D01*
X0038659Y0197808D01*
X0038779Y0197931D01*
X0038902Y0198051D01*
X0039028Y0198168D01*
X0039157Y0198281D01*
X0039288Y0198392D01*
X0039422Y0198499D01*
X0039559Y0198603D01*
X0039698Y0198704D01*
X0039840Y0198801D01*
X0039984Y0198895D01*
X0040130Y0198985D01*
X0040279Y0199072D01*
X0040429Y0199154D01*
X0040582Y0199234D01*
X0040736Y0199309D01*
X0040892Y0199380D01*
X0041050Y0199448D01*
X0041210Y0199512D01*
X0041371Y0199572D01*
X0041533Y0199628D01*
X0041697Y0199680D01*
X0041862Y0199727D01*
X0042028Y0199771D01*
X0042195Y0199811D01*
X0042363Y0199846D01*
X0042532Y0199878D01*
X0042702Y0199905D01*
X0042872Y0199928D01*
X0043043Y0199947D01*
X0043214Y0199962D01*
X0043386Y0199973D01*
X0043557Y0199979D01*
X0043729Y0199981D01*
X0043901Y0199979D01*
X0044072Y0199973D01*
X0044244Y0199962D01*
X0044415Y0199947D01*
X0044586Y0199928D01*
X0044756Y0199905D01*
X0044926Y0199878D01*
X0045095Y0199846D01*
X0045263Y0199811D01*
X0045430Y0199771D01*
X0045596Y0199727D01*
X0045761Y0199680D01*
X0045925Y0199628D01*
X0046087Y0199572D01*
X0046248Y0199512D01*
X0046408Y0199448D01*
X0046566Y0199380D01*
X0046722Y0199309D01*
X0046876Y0199234D01*
X0047029Y0199154D01*
X0047179Y0199072D01*
X0047328Y0198985D01*
X0047474Y0198895D01*
X0047618Y0198801D01*
X0047760Y0198704D01*
X0047899Y0198603D01*
X0048036Y0198499D01*
X0048170Y0198392D01*
X0048301Y0198281D01*
X0048430Y0198168D01*
X0048556Y0198051D01*
X0048679Y0197931D01*
X0048799Y0197808D01*
X0048916Y0197682D01*
X0049029Y0197553D01*
X0049140Y0197422D01*
X0049247Y0197288D01*
X0049351Y0197151D01*
X0049452Y0197012D01*
X0049549Y0196870D01*
X0049643Y0196726D01*
X0049733Y0196580D01*
X0049820Y0196431D01*
X0049902Y0196281D01*
X0049982Y0196128D01*
X0050057Y0195974D01*
X0050128Y0195818D01*
X0050196Y0195660D01*
X0050260Y0195500D01*
X0050320Y0195339D01*
X0050376Y0195177D01*
X0050428Y0195013D01*
X0050475Y0194848D01*
X0050519Y0194682D01*
X0050559Y0194515D01*
X0050594Y0194347D01*
X0050626Y0194178D01*
X0050653Y0194008D01*
X0050676Y0193838D01*
X0050695Y0193667D01*
X0050710Y0193496D01*
X0050721Y0193324D01*
X0050727Y0193153D01*
X0050729Y0192981D01*
X0050727Y0192809D01*
X0050721Y0192638D01*
X0050710Y0192466D01*
X0050695Y0192295D01*
X0050676Y0192124D01*
X0050653Y0191954D01*
X0050626Y0191784D01*
X0050594Y0191615D01*
X0050559Y0191447D01*
X0050519Y0191280D01*
X0050475Y0191114D01*
X0050428Y0190949D01*
X0050376Y0190785D01*
X0050320Y0190623D01*
X0050260Y0190462D01*
X0050196Y0190302D01*
X0050128Y0190144D01*
X0050057Y0189988D01*
X0049982Y0189834D01*
X0049902Y0189681D01*
X0049820Y0189531D01*
X0049733Y0189382D01*
X0049643Y0189236D01*
X0049549Y0189092D01*
X0049452Y0188950D01*
X0049351Y0188811D01*
X0049247Y0188674D01*
X0049140Y0188540D01*
X0049029Y0188409D01*
X0048916Y0188280D01*
X0048799Y0188154D01*
X0048679Y0188031D01*
X0048556Y0187911D01*
X0048430Y0187794D01*
X0048301Y0187681D01*
X0048170Y0187570D01*
X0048036Y0187463D01*
X0047899Y0187359D01*
X0047760Y0187258D01*
X0047618Y0187161D01*
X0047474Y0187067D01*
X0047328Y0186977D01*
X0047179Y0186890D01*
X0047029Y0186808D01*
X0046876Y0186728D01*
X0046722Y0186653D01*
X0046566Y0186582D01*
X0046408Y0186514D01*
X0046248Y0186450D01*
X0046087Y0186390D01*
X0045925Y0186334D01*
X0045761Y0186282D01*
X0045596Y0186235D01*
X0045430Y0186191D01*
X0045263Y0186151D01*
X0045095Y0186116D01*
X0044926Y0186084D01*
X0044756Y0186057D01*
X0044586Y0186034D01*
X0044415Y0186015D01*
X0044244Y0186000D01*
X0044072Y0185989D01*
X0043901Y0185983D01*
X0043729Y0185981D01*
X0043557Y0185983D01*
X0043386Y0185989D01*
X0043214Y0186000D01*
X0043043Y0186015D01*
X0042872Y0186034D01*
X0042702Y0186057D01*
X0042532Y0186084D01*
X0042363Y0186116D01*
X0042195Y0186151D01*
X0042028Y0186191D01*
X0041862Y0186235D01*
X0041697Y0186282D01*
X0041533Y0186334D01*
X0041371Y0186390D01*
X0041210Y0186450D01*
X0041050Y0186514D01*
X0040892Y0186582D01*
X0040736Y0186653D01*
X0040582Y0186728D01*
X0040429Y0186808D01*
X0040279Y0186890D01*
X0040130Y0186977D01*
X0039984Y0187067D01*
X0039840Y0187161D01*
X0039698Y0187258D01*
X0039559Y0187359D01*
X0039422Y0187463D01*
X0039288Y0187570D01*
X0039157Y0187681D01*
X0039028Y0187794D01*
X0038902Y0187911D01*
X0038779Y0188031D01*
X0038659Y0188154D01*
X0038542Y0188280D01*
X0038429Y0188409D01*
X0038318Y0188540D01*
X0038211Y0188674D01*
X0038107Y0188811D01*
X0038006Y0188950D01*
X0037909Y0189092D01*
X0037815Y0189236D01*
X0037725Y0189382D01*
X0037638Y0189531D01*
X0037556Y0189681D01*
X0037476Y0189834D01*
X0037401Y0189988D01*
X0037330Y0190144D01*
X0037262Y0190302D01*
X0037198Y0190462D01*
X0037138Y0190623D01*
X0037082Y0190785D01*
X0037030Y0190949D01*
X0036983Y0191114D01*
X0036939Y0191280D01*
X0036899Y0191447D01*
X0036864Y0191615D01*
X0036832Y0191784D01*
X0036805Y0191954D01*
X0036782Y0192124D01*
X0036763Y0192295D01*
X0036748Y0192466D01*
X0036737Y0192638D01*
X0036731Y0192809D01*
X0036729Y0192981D01*
X0095390Y0320967D02*
X0101390Y0320967D01*
X0101450Y0320969D01*
X0101511Y0320974D01*
X0101570Y0320983D01*
X0101629Y0320996D01*
X0101688Y0321012D01*
X0101745Y0321032D01*
X0101800Y0321055D01*
X0101855Y0321082D01*
X0101907Y0321111D01*
X0101958Y0321144D01*
X0102007Y0321180D01*
X0102053Y0321218D01*
X0102097Y0321260D01*
X0102139Y0321304D01*
X0102177Y0321350D01*
X0102213Y0321399D01*
X0102246Y0321450D01*
X0102275Y0321502D01*
X0102302Y0321557D01*
X0102325Y0321612D01*
X0102345Y0321669D01*
X0102361Y0321728D01*
X0102374Y0321787D01*
X0102383Y0321846D01*
X0102388Y0321907D01*
X0102390Y0321967D01*
X0102390Y0323467D01*
X0101890Y0323967D01*
X0101890Y0337967D01*
X0102390Y0338467D01*
X0102390Y0339967D01*
X0102388Y0340027D01*
X0102383Y0340088D01*
X0102374Y0340147D01*
X0102361Y0340206D01*
X0102345Y0340265D01*
X0102325Y0340322D01*
X0102302Y0340377D01*
X0102275Y0340432D01*
X0102246Y0340484D01*
X0102213Y0340535D01*
X0102177Y0340584D01*
X0102139Y0340630D01*
X0102097Y0340674D01*
X0102053Y0340716D01*
X0102007Y0340754D01*
X0101958Y0340790D01*
X0101907Y0340823D01*
X0101855Y0340852D01*
X0101800Y0340879D01*
X0101745Y0340902D01*
X0101688Y0340922D01*
X0101629Y0340938D01*
X0101570Y0340951D01*
X0101511Y0340960D01*
X0101450Y0340965D01*
X0101390Y0340967D01*
X0095390Y0340967D01*
X0095330Y0340965D01*
X0095269Y0340960D01*
X0095210Y0340951D01*
X0095151Y0340938D01*
X0095092Y0340922D01*
X0095035Y0340902D01*
X0094980Y0340879D01*
X0094925Y0340852D01*
X0094873Y0340823D01*
X0094822Y0340790D01*
X0094773Y0340754D01*
X0094727Y0340716D01*
X0094683Y0340674D01*
X0094641Y0340630D01*
X0094603Y0340584D01*
X0094567Y0340535D01*
X0094534Y0340484D01*
X0094505Y0340432D01*
X0094478Y0340377D01*
X0094455Y0340322D01*
X0094435Y0340265D01*
X0094419Y0340206D01*
X0094406Y0340147D01*
X0094397Y0340088D01*
X0094392Y0340027D01*
X0094390Y0339967D01*
X0094390Y0338467D01*
X0094890Y0337967D01*
X0094890Y0323967D01*
X0094390Y0323467D01*
X0094390Y0321967D01*
X0094392Y0321907D01*
X0094397Y0321846D01*
X0094406Y0321787D01*
X0094419Y0321728D01*
X0094435Y0321669D01*
X0094455Y0321612D01*
X0094478Y0321557D01*
X0094505Y0321502D01*
X0094534Y0321450D01*
X0094567Y0321399D01*
X0094603Y0321350D01*
X0094641Y0321304D01*
X0094683Y0321260D01*
X0094727Y0321218D01*
X0094773Y0321180D01*
X0094822Y0321144D01*
X0094873Y0321111D01*
X0094925Y0321082D01*
X0094980Y0321055D01*
X0095035Y0321032D01*
X0095092Y0321012D01*
X0095151Y0320996D01*
X0095210Y0320983D01*
X0095269Y0320974D01*
X0095330Y0320969D01*
X0095390Y0320967D01*
X0084725Y0326634D02*
X0084725Y0328134D01*
X0084225Y0328634D01*
X0084225Y0342634D01*
X0084725Y0343134D01*
X0084725Y0344634D01*
X0084723Y0344694D01*
X0084718Y0344755D01*
X0084709Y0344814D01*
X0084696Y0344873D01*
X0084680Y0344932D01*
X0084660Y0344989D01*
X0084637Y0345044D01*
X0084610Y0345099D01*
X0084581Y0345151D01*
X0084548Y0345202D01*
X0084512Y0345251D01*
X0084474Y0345297D01*
X0084432Y0345341D01*
X0084388Y0345383D01*
X0084342Y0345421D01*
X0084293Y0345457D01*
X0084242Y0345490D01*
X0084190Y0345519D01*
X0084135Y0345546D01*
X0084080Y0345569D01*
X0084023Y0345589D01*
X0083964Y0345605D01*
X0083905Y0345618D01*
X0083846Y0345627D01*
X0083785Y0345632D01*
X0083725Y0345634D01*
X0077725Y0345634D01*
X0077665Y0345632D01*
X0077604Y0345627D01*
X0077545Y0345618D01*
X0077486Y0345605D01*
X0077427Y0345589D01*
X0077370Y0345569D01*
X0077315Y0345546D01*
X0077260Y0345519D01*
X0077208Y0345490D01*
X0077157Y0345457D01*
X0077108Y0345421D01*
X0077062Y0345383D01*
X0077018Y0345341D01*
X0076976Y0345297D01*
X0076938Y0345251D01*
X0076902Y0345202D01*
X0076869Y0345151D01*
X0076840Y0345099D01*
X0076813Y0345044D01*
X0076790Y0344989D01*
X0076770Y0344932D01*
X0076754Y0344873D01*
X0076741Y0344814D01*
X0076732Y0344755D01*
X0076727Y0344694D01*
X0076725Y0344634D01*
X0076725Y0343134D01*
X0077225Y0342634D01*
X0077225Y0328634D01*
X0076725Y0328134D01*
X0076725Y0326634D01*
X0076727Y0326574D01*
X0076732Y0326513D01*
X0076741Y0326454D01*
X0076754Y0326395D01*
X0076770Y0326336D01*
X0076790Y0326279D01*
X0076813Y0326224D01*
X0076840Y0326169D01*
X0076869Y0326117D01*
X0076902Y0326066D01*
X0076938Y0326017D01*
X0076976Y0325971D01*
X0077018Y0325927D01*
X0077062Y0325885D01*
X0077108Y0325847D01*
X0077157Y0325811D01*
X0077208Y0325778D01*
X0077260Y0325749D01*
X0077315Y0325722D01*
X0077370Y0325699D01*
X0077427Y0325679D01*
X0077486Y0325663D01*
X0077545Y0325650D01*
X0077604Y0325641D01*
X0077665Y0325636D01*
X0077725Y0325634D01*
X0083725Y0325634D01*
X0083785Y0325636D01*
X0083846Y0325641D01*
X0083905Y0325650D01*
X0083964Y0325663D01*
X0084023Y0325679D01*
X0084080Y0325699D01*
X0084135Y0325722D01*
X0084190Y0325749D01*
X0084242Y0325778D01*
X0084293Y0325811D01*
X0084342Y0325847D01*
X0084388Y0325885D01*
X0084432Y0325927D01*
X0084474Y0325971D01*
X0084512Y0326017D01*
X0084548Y0326066D01*
X0084581Y0326117D01*
X0084610Y0326169D01*
X0084637Y0326224D01*
X0084660Y0326279D01*
X0084680Y0326336D01*
X0084696Y0326395D01*
X0084709Y0326454D01*
X0084718Y0326513D01*
X0084723Y0326574D01*
X0084725Y0326634D01*
X0115721Y0343299D02*
X0115721Y0349299D01*
X0115723Y0349359D01*
X0115728Y0349420D01*
X0115737Y0349479D01*
X0115750Y0349538D01*
X0115766Y0349597D01*
X0115786Y0349654D01*
X0115809Y0349709D01*
X0115836Y0349764D01*
X0115865Y0349816D01*
X0115898Y0349867D01*
X0115934Y0349916D01*
X0115972Y0349962D01*
X0116014Y0350006D01*
X0116058Y0350048D01*
X0116104Y0350086D01*
X0116153Y0350122D01*
X0116204Y0350155D01*
X0116256Y0350184D01*
X0116311Y0350211D01*
X0116366Y0350234D01*
X0116423Y0350254D01*
X0116482Y0350270D01*
X0116541Y0350283D01*
X0116600Y0350292D01*
X0116661Y0350297D01*
X0116721Y0350299D01*
X0118221Y0350299D01*
X0118721Y0349799D01*
X0132721Y0349799D01*
X0133221Y0350299D01*
X0134721Y0350299D01*
X0134781Y0350297D01*
X0134842Y0350292D01*
X0134901Y0350283D01*
X0134960Y0350270D01*
X0135019Y0350254D01*
X0135076Y0350234D01*
X0135131Y0350211D01*
X0135186Y0350184D01*
X0135238Y0350155D01*
X0135289Y0350122D01*
X0135338Y0350086D01*
X0135384Y0350048D01*
X0135428Y0350006D01*
X0135470Y0349962D01*
X0135508Y0349916D01*
X0135544Y0349867D01*
X0135577Y0349816D01*
X0135606Y0349764D01*
X0135633Y0349709D01*
X0135656Y0349654D01*
X0135676Y0349597D01*
X0135692Y0349538D01*
X0135705Y0349479D01*
X0135714Y0349420D01*
X0135719Y0349359D01*
X0135721Y0349299D01*
X0135721Y0343299D01*
X0135719Y0343239D01*
X0135714Y0343178D01*
X0135705Y0343119D01*
X0135692Y0343060D01*
X0135676Y0343001D01*
X0135656Y0342944D01*
X0135633Y0342889D01*
X0135606Y0342834D01*
X0135577Y0342782D01*
X0135544Y0342731D01*
X0135508Y0342682D01*
X0135470Y0342636D01*
X0135428Y0342592D01*
X0135384Y0342550D01*
X0135338Y0342512D01*
X0135289Y0342476D01*
X0135238Y0342443D01*
X0135186Y0342414D01*
X0135131Y0342387D01*
X0135076Y0342364D01*
X0135019Y0342344D01*
X0134960Y0342328D01*
X0134901Y0342315D01*
X0134842Y0342306D01*
X0134781Y0342301D01*
X0134721Y0342299D01*
X0133221Y0342299D01*
X0132721Y0342799D01*
X0118721Y0342799D01*
X0118221Y0342299D01*
X0116721Y0342299D01*
X0116661Y0342301D01*
X0116600Y0342306D01*
X0116541Y0342315D01*
X0116482Y0342328D01*
X0116423Y0342344D01*
X0116366Y0342364D01*
X0116311Y0342387D01*
X0116256Y0342414D01*
X0116204Y0342443D01*
X0116153Y0342476D01*
X0116104Y0342512D01*
X0116058Y0342550D01*
X0116014Y0342592D01*
X0115972Y0342636D01*
X0115934Y0342682D01*
X0115898Y0342731D01*
X0115865Y0342782D01*
X0115836Y0342834D01*
X0115809Y0342889D01*
X0115786Y0342944D01*
X0115766Y0343001D01*
X0115750Y0343060D01*
X0115737Y0343119D01*
X0115728Y0343178D01*
X0115723Y0343239D01*
X0115721Y0343299D01*
X0159383Y0347965D02*
X0159383Y0353965D01*
X0159385Y0354025D01*
X0159390Y0354086D01*
X0159399Y0354145D01*
X0159412Y0354204D01*
X0159428Y0354263D01*
X0159448Y0354320D01*
X0159471Y0354375D01*
X0159498Y0354430D01*
X0159527Y0354482D01*
X0159560Y0354533D01*
X0159596Y0354582D01*
X0159634Y0354628D01*
X0159676Y0354672D01*
X0159720Y0354714D01*
X0159766Y0354752D01*
X0159815Y0354788D01*
X0159866Y0354821D01*
X0159918Y0354850D01*
X0159973Y0354877D01*
X0160028Y0354900D01*
X0160085Y0354920D01*
X0160144Y0354936D01*
X0160203Y0354949D01*
X0160262Y0354958D01*
X0160323Y0354963D01*
X0160383Y0354965D01*
X0161883Y0354965D01*
X0162383Y0354465D01*
X0176383Y0354465D01*
X0176883Y0354965D01*
X0178383Y0354965D01*
X0178443Y0354963D01*
X0178504Y0354958D01*
X0178563Y0354949D01*
X0178622Y0354936D01*
X0178681Y0354920D01*
X0178738Y0354900D01*
X0178793Y0354877D01*
X0178848Y0354850D01*
X0178900Y0354821D01*
X0178951Y0354788D01*
X0179000Y0354752D01*
X0179046Y0354714D01*
X0179090Y0354672D01*
X0179132Y0354628D01*
X0179170Y0354582D01*
X0179206Y0354533D01*
X0179239Y0354482D01*
X0179268Y0354430D01*
X0179295Y0354375D01*
X0179318Y0354320D01*
X0179338Y0354263D01*
X0179354Y0354204D01*
X0179367Y0354145D01*
X0179376Y0354086D01*
X0179381Y0354025D01*
X0179383Y0353965D01*
X0179383Y0347965D01*
X0179381Y0347905D01*
X0179376Y0347844D01*
X0179367Y0347785D01*
X0179354Y0347726D01*
X0179338Y0347667D01*
X0179318Y0347610D01*
X0179295Y0347555D01*
X0179268Y0347500D01*
X0179239Y0347448D01*
X0179206Y0347397D01*
X0179170Y0347348D01*
X0179132Y0347302D01*
X0179090Y0347258D01*
X0179046Y0347216D01*
X0179000Y0347178D01*
X0178951Y0347142D01*
X0178900Y0347109D01*
X0178848Y0347080D01*
X0178793Y0347053D01*
X0178738Y0347030D01*
X0178681Y0347010D01*
X0178622Y0346994D01*
X0178563Y0346981D01*
X0178504Y0346972D01*
X0178443Y0346967D01*
X0178383Y0346965D01*
X0176883Y0346965D01*
X0176383Y0347465D01*
X0162383Y0347465D01*
X0161883Y0346965D01*
X0160383Y0346965D01*
X0160323Y0346967D01*
X0160262Y0346972D01*
X0160203Y0346981D01*
X0160144Y0346994D01*
X0160085Y0347010D01*
X0160028Y0347030D01*
X0159973Y0347053D01*
X0159918Y0347080D01*
X0159866Y0347109D01*
X0159815Y0347142D01*
X0159766Y0347178D01*
X0159720Y0347216D01*
X0159676Y0347258D01*
X0159634Y0347302D01*
X0159596Y0347348D01*
X0159560Y0347397D01*
X0159527Y0347448D01*
X0159498Y0347500D01*
X0159471Y0347555D01*
X0159448Y0347610D01*
X0159428Y0347667D01*
X0159412Y0347726D01*
X0159399Y0347785D01*
X0159390Y0347844D01*
X0159385Y0347905D01*
X0159383Y0347965D01*
X0191714Y0325302D02*
X0191714Y0323802D01*
X0192214Y0323302D01*
X0192214Y0309302D01*
X0191714Y0308802D01*
X0191714Y0307302D01*
X0191716Y0307242D01*
X0191721Y0307181D01*
X0191730Y0307122D01*
X0191743Y0307063D01*
X0191759Y0307004D01*
X0191779Y0306947D01*
X0191802Y0306892D01*
X0191829Y0306837D01*
X0191858Y0306785D01*
X0191891Y0306734D01*
X0191927Y0306685D01*
X0191965Y0306639D01*
X0192007Y0306595D01*
X0192051Y0306553D01*
X0192097Y0306515D01*
X0192146Y0306479D01*
X0192197Y0306446D01*
X0192249Y0306417D01*
X0192304Y0306390D01*
X0192359Y0306367D01*
X0192416Y0306347D01*
X0192475Y0306331D01*
X0192534Y0306318D01*
X0192593Y0306309D01*
X0192654Y0306304D01*
X0192714Y0306302D01*
X0198714Y0306302D01*
X0198774Y0306304D01*
X0198835Y0306309D01*
X0198894Y0306318D01*
X0198953Y0306331D01*
X0199012Y0306347D01*
X0199069Y0306367D01*
X0199124Y0306390D01*
X0199179Y0306417D01*
X0199231Y0306446D01*
X0199282Y0306479D01*
X0199331Y0306515D01*
X0199377Y0306553D01*
X0199421Y0306595D01*
X0199463Y0306639D01*
X0199501Y0306685D01*
X0199537Y0306734D01*
X0199570Y0306785D01*
X0199599Y0306837D01*
X0199626Y0306892D01*
X0199649Y0306947D01*
X0199669Y0307004D01*
X0199685Y0307063D01*
X0199698Y0307122D01*
X0199707Y0307181D01*
X0199712Y0307242D01*
X0199714Y0307302D01*
X0199714Y0308802D01*
X0199214Y0309302D01*
X0199214Y0323302D01*
X0199714Y0323802D01*
X0199714Y0325302D01*
X0199712Y0325362D01*
X0199707Y0325423D01*
X0199698Y0325482D01*
X0199685Y0325541D01*
X0199669Y0325600D01*
X0199649Y0325657D01*
X0199626Y0325712D01*
X0199599Y0325767D01*
X0199570Y0325819D01*
X0199537Y0325870D01*
X0199501Y0325919D01*
X0199463Y0325965D01*
X0199421Y0326009D01*
X0199377Y0326051D01*
X0199331Y0326089D01*
X0199282Y0326125D01*
X0199231Y0326158D01*
X0199179Y0326187D01*
X0199124Y0326214D01*
X0199069Y0326237D01*
X0199012Y0326257D01*
X0198953Y0326273D01*
X0198894Y0326286D01*
X0198835Y0326295D01*
X0198774Y0326300D01*
X0198714Y0326302D01*
X0192714Y0326302D01*
X0192654Y0326300D01*
X0192593Y0326295D01*
X0192534Y0326286D01*
X0192475Y0326273D01*
X0192416Y0326257D01*
X0192359Y0326237D01*
X0192304Y0326214D01*
X0192249Y0326187D01*
X0192197Y0326158D01*
X0192146Y0326125D01*
X0192097Y0326089D01*
X0192051Y0326051D01*
X0192007Y0326009D01*
X0191965Y0325965D01*
X0191927Y0325919D01*
X0191891Y0325870D01*
X0191858Y0325819D01*
X0191829Y0325767D01*
X0191802Y0325712D01*
X0191779Y0325657D01*
X0191759Y0325600D01*
X0191743Y0325541D01*
X0191730Y0325482D01*
X0191721Y0325423D01*
X0191716Y0325362D01*
X0191714Y0325302D01*
X0281342Y0321615D02*
X0304342Y0321615D01*
X0304342Y0341615D01*
X0296842Y0341615D01*
X0296840Y0341489D01*
X0296834Y0341364D01*
X0296824Y0341239D01*
X0296810Y0341114D01*
X0296793Y0340989D01*
X0296771Y0340865D01*
X0296746Y0340742D01*
X0296716Y0340620D01*
X0296683Y0340499D01*
X0296646Y0340379D01*
X0296606Y0340260D01*
X0296561Y0340143D01*
X0296513Y0340026D01*
X0296461Y0339912D01*
X0296406Y0339799D01*
X0296347Y0339688D01*
X0296285Y0339579D01*
X0296219Y0339472D01*
X0296150Y0339367D01*
X0296078Y0339264D01*
X0296003Y0339163D01*
X0295924Y0339065D01*
X0295842Y0338970D01*
X0295758Y0338877D01*
X0295670Y0338787D01*
X0295580Y0338699D01*
X0295487Y0338615D01*
X0295392Y0338533D01*
X0295294Y0338454D01*
X0295193Y0338379D01*
X0295090Y0338307D01*
X0294985Y0338238D01*
X0294878Y0338172D01*
X0294769Y0338110D01*
X0294658Y0338051D01*
X0294545Y0337996D01*
X0294431Y0337944D01*
X0294314Y0337896D01*
X0294197Y0337851D01*
X0294078Y0337811D01*
X0293958Y0337774D01*
X0293837Y0337741D01*
X0293715Y0337711D01*
X0293592Y0337686D01*
X0293468Y0337664D01*
X0293343Y0337647D01*
X0293218Y0337633D01*
X0293093Y0337623D01*
X0292968Y0337617D01*
X0292842Y0337615D01*
X0292716Y0337617D01*
X0292591Y0337623D01*
X0292466Y0337633D01*
X0292341Y0337647D01*
X0292216Y0337664D01*
X0292092Y0337686D01*
X0291969Y0337711D01*
X0291847Y0337741D01*
X0291726Y0337774D01*
X0291606Y0337811D01*
X0291487Y0337851D01*
X0291370Y0337896D01*
X0291253Y0337944D01*
X0291139Y0337996D01*
X0291026Y0338051D01*
X0290915Y0338110D01*
X0290806Y0338172D01*
X0290699Y0338238D01*
X0290594Y0338307D01*
X0290491Y0338379D01*
X0290390Y0338454D01*
X0290292Y0338533D01*
X0290197Y0338615D01*
X0290104Y0338699D01*
X0290014Y0338787D01*
X0289926Y0338877D01*
X0289842Y0338970D01*
X0289760Y0339065D01*
X0289681Y0339163D01*
X0289606Y0339264D01*
X0289534Y0339367D01*
X0289465Y0339472D01*
X0289399Y0339579D01*
X0289337Y0339688D01*
X0289278Y0339799D01*
X0289223Y0339912D01*
X0289171Y0340026D01*
X0289123Y0340143D01*
X0289078Y0340260D01*
X0289038Y0340379D01*
X0289001Y0340499D01*
X0288968Y0340620D01*
X0288938Y0340742D01*
X0288913Y0340865D01*
X0288891Y0340989D01*
X0288874Y0341114D01*
X0288860Y0341239D01*
X0288850Y0341364D01*
X0288844Y0341489D01*
X0288842Y0341615D01*
X0281342Y0341615D01*
X0281342Y0321615D01*
X0281342Y0351143D02*
X0304342Y0351143D01*
X0304342Y0371143D01*
X0296842Y0371143D01*
X0296840Y0371017D01*
X0296834Y0370892D01*
X0296824Y0370767D01*
X0296810Y0370642D01*
X0296793Y0370517D01*
X0296771Y0370393D01*
X0296746Y0370270D01*
X0296716Y0370148D01*
X0296683Y0370027D01*
X0296646Y0369907D01*
X0296606Y0369788D01*
X0296561Y0369671D01*
X0296513Y0369554D01*
X0296461Y0369440D01*
X0296406Y0369327D01*
X0296347Y0369216D01*
X0296285Y0369107D01*
X0296219Y0369000D01*
X0296150Y0368895D01*
X0296078Y0368792D01*
X0296003Y0368691D01*
X0295924Y0368593D01*
X0295842Y0368498D01*
X0295758Y0368405D01*
X0295670Y0368315D01*
X0295580Y0368227D01*
X0295487Y0368143D01*
X0295392Y0368061D01*
X0295294Y0367982D01*
X0295193Y0367907D01*
X0295090Y0367835D01*
X0294985Y0367766D01*
X0294878Y0367700D01*
X0294769Y0367638D01*
X0294658Y0367579D01*
X0294545Y0367524D01*
X0294431Y0367472D01*
X0294314Y0367424D01*
X0294197Y0367379D01*
X0294078Y0367339D01*
X0293958Y0367302D01*
X0293837Y0367269D01*
X0293715Y0367239D01*
X0293592Y0367214D01*
X0293468Y0367192D01*
X0293343Y0367175D01*
X0293218Y0367161D01*
X0293093Y0367151D01*
X0292968Y0367145D01*
X0292842Y0367143D01*
X0292716Y0367145D01*
X0292591Y0367151D01*
X0292466Y0367161D01*
X0292341Y0367175D01*
X0292216Y0367192D01*
X0292092Y0367214D01*
X0291969Y0367239D01*
X0291847Y0367269D01*
X0291726Y0367302D01*
X0291606Y0367339D01*
X0291487Y0367379D01*
X0291370Y0367424D01*
X0291253Y0367472D01*
X0291139Y0367524D01*
X0291026Y0367579D01*
X0290915Y0367638D01*
X0290806Y0367700D01*
X0290699Y0367766D01*
X0290594Y0367835D01*
X0290491Y0367907D01*
X0290390Y0367982D01*
X0290292Y0368061D01*
X0290197Y0368143D01*
X0290104Y0368227D01*
X0290014Y0368315D01*
X0289926Y0368405D01*
X0289842Y0368498D01*
X0289760Y0368593D01*
X0289681Y0368691D01*
X0289606Y0368792D01*
X0289534Y0368895D01*
X0289465Y0369000D01*
X0289399Y0369107D01*
X0289337Y0369216D01*
X0289278Y0369327D01*
X0289223Y0369440D01*
X0289171Y0369554D01*
X0289123Y0369671D01*
X0289078Y0369788D01*
X0289038Y0369907D01*
X0289001Y0370027D01*
X0288968Y0370148D01*
X0288938Y0370270D01*
X0288913Y0370393D01*
X0288891Y0370517D01*
X0288874Y0370642D01*
X0288860Y0370767D01*
X0288850Y0370892D01*
X0288844Y0371017D01*
X0288842Y0371143D01*
X0281342Y0371143D01*
X0281342Y0351143D01*
D12*
X0098445Y0187746D02*
X0098445Y0182312D01*
X0098445Y0179123D01*
X0098445Y0174360D01*
X0072264Y0174360D01*
X0072264Y0179123D01*
X0072264Y0182312D01*
X0072264Y0187746D01*
X0098445Y0187746D01*
D13*
X0096477Y0185383D02*
X0096477Y0182312D01*
X0098445Y0182312D01*
X0098445Y0179123D02*
X0096477Y0179123D01*
X0096477Y0175935D01*
X0074233Y0175935D01*
X0074233Y0179123D01*
X0072264Y0179123D01*
X0072264Y0182312D02*
X0074233Y0182312D01*
X0074233Y0185383D01*
X0096477Y0185383D01*
X0347611Y0078610D02*
X0346611Y0072610D01*
X0346611Y0068110D01*
X0347611Y0078610D02*
X0351111Y0078610D01*
X0355111Y0078610D02*
X0360111Y0078610D01*
X0364111Y0078610D02*
X0369111Y0078610D01*
X0373111Y0078610D02*
X0376611Y0078610D01*
X0377611Y0072610D01*
X0377611Y0068110D01*
X0396961Y0079412D02*
X0398863Y0079412D01*
X0398863Y0080680D01*
X0398546Y0081622D02*
X0398863Y0081939D01*
X0398863Y0082573D01*
X0398546Y0082890D01*
X0398229Y0082890D01*
X0397912Y0082573D01*
X0397912Y0081939D01*
X0397595Y0081622D01*
X0397278Y0081622D01*
X0396961Y0081939D01*
X0396961Y0082573D01*
X0397278Y0082890D01*
X0397278Y0083832D02*
X0398546Y0083832D01*
X0398863Y0084149D01*
X0398863Y0084783D01*
X0398546Y0085100D01*
X0398863Y0086042D02*
X0398863Y0087310D01*
X0398863Y0086676D02*
X0396961Y0086676D01*
X0397595Y0086042D01*
X0397278Y0085100D02*
X0396961Y0084783D01*
X0396961Y0084149D01*
X0397278Y0083832D01*
X0396961Y0080680D02*
X0396961Y0079412D01*
X0397912Y0079412D02*
X0397912Y0080046D01*
X0378474Y0098118D02*
X0378474Y0102618D01*
X0377474Y0108618D01*
X0373974Y0108618D01*
X0369974Y0108618D02*
X0364974Y0108618D01*
X0360974Y0108618D02*
X0355974Y0108618D01*
X0351974Y0108618D02*
X0348474Y0108618D01*
X0347474Y0102618D01*
X0347474Y0098118D01*
X0348141Y0130297D02*
X0348141Y0134797D01*
X0349141Y0140797D01*
X0352641Y0140797D01*
X0356641Y0140797D02*
X0361641Y0140797D01*
X0365641Y0140797D02*
X0370641Y0140797D01*
X0374641Y0140797D02*
X0378141Y0140797D01*
X0379141Y0134797D01*
X0379141Y0130297D01*
X0396912Y0142158D02*
X0396912Y0143426D01*
X0397229Y0144368D02*
X0397546Y0144368D01*
X0397863Y0144685D01*
X0397863Y0145319D01*
X0398180Y0145636D01*
X0398497Y0145636D01*
X0398814Y0145319D01*
X0398814Y0144685D01*
X0398497Y0144368D01*
X0398814Y0143426D02*
X0398814Y0142158D01*
X0396912Y0142158D01*
X0397863Y0142158D02*
X0397863Y0142792D01*
X0397229Y0144368D02*
X0396912Y0144685D01*
X0396912Y0145319D01*
X0397229Y0145636D01*
X0397229Y0146578D02*
X0398497Y0146578D01*
X0398814Y0146895D01*
X0398814Y0147529D01*
X0398497Y0147846D01*
X0398497Y0148788D02*
X0398814Y0149105D01*
X0398814Y0149739D01*
X0398497Y0150056D01*
X0398180Y0150056D01*
X0397863Y0149739D01*
X0397863Y0149422D01*
X0397863Y0149739D02*
X0397546Y0150056D01*
X0397229Y0150056D01*
X0396912Y0149739D01*
X0396912Y0149105D01*
X0397229Y0148788D01*
X0397229Y0147846D02*
X0396912Y0147529D01*
X0396912Y0146895D01*
X0397229Y0146578D01*
X0379141Y0162600D02*
X0379141Y0167100D01*
X0378141Y0173100D01*
X0374641Y0173100D01*
X0370641Y0173100D02*
X0365641Y0173100D01*
X0361641Y0173100D02*
X0356641Y0173100D01*
X0352641Y0173100D02*
X0349141Y0173100D01*
X0348141Y0167100D01*
X0348141Y0162600D01*
X0347807Y0193336D02*
X0347807Y0197836D01*
X0348807Y0203836D01*
X0352307Y0203836D01*
X0356307Y0203836D02*
X0361307Y0203836D01*
X0365307Y0203836D02*
X0370307Y0203836D01*
X0374307Y0203836D02*
X0377807Y0203836D01*
X0378807Y0197836D01*
X0378807Y0193336D01*
X0396912Y0205151D02*
X0398814Y0205151D01*
X0398814Y0206418D01*
X0398497Y0207360D02*
X0398814Y0207677D01*
X0398814Y0208311D01*
X0398497Y0208628D01*
X0398180Y0208628D01*
X0397863Y0208311D01*
X0397863Y0207677D01*
X0397546Y0207360D01*
X0397229Y0207360D01*
X0396912Y0207677D01*
X0396912Y0208311D01*
X0397229Y0208628D01*
X0397229Y0209570D02*
X0398497Y0209570D01*
X0398814Y0209887D01*
X0398814Y0210521D01*
X0398497Y0210838D01*
X0398497Y0211780D02*
X0398814Y0212097D01*
X0398814Y0212731D01*
X0398497Y0213048D01*
X0397863Y0213048D01*
X0397546Y0212731D01*
X0397546Y0212414D01*
X0397863Y0211780D01*
X0396912Y0211780D01*
X0396912Y0213048D01*
X0397229Y0210838D02*
X0396912Y0210521D01*
X0396912Y0209887D01*
X0397229Y0209570D01*
X0396912Y0206418D02*
X0396912Y0205151D01*
X0397863Y0205151D02*
X0397863Y0205784D01*
X0379141Y0224910D02*
X0379141Y0229410D01*
X0378141Y0235410D01*
X0374641Y0235410D01*
X0370641Y0235410D02*
X0365641Y0235410D01*
X0361641Y0235410D02*
X0356641Y0235410D01*
X0352641Y0235410D02*
X0349141Y0235410D01*
X0348141Y0229410D01*
X0348141Y0224910D01*
X0348141Y0256724D02*
X0348141Y0261224D01*
X0349141Y0267224D01*
X0352641Y0267224D01*
X0356641Y0267224D02*
X0361641Y0267224D01*
X0365641Y0267224D02*
X0370641Y0267224D01*
X0374641Y0267224D02*
X0378141Y0267224D01*
X0379141Y0261224D01*
X0379141Y0256724D01*
X0396912Y0268143D02*
X0396912Y0269410D01*
X0397229Y0270353D02*
X0397546Y0270353D01*
X0397863Y0270670D01*
X0397863Y0271303D01*
X0398180Y0271620D01*
X0398497Y0271620D01*
X0398814Y0271303D01*
X0398814Y0270670D01*
X0398497Y0270353D01*
X0398814Y0269410D02*
X0398814Y0268143D01*
X0396912Y0268143D01*
X0397863Y0268143D02*
X0397863Y0268777D01*
X0397229Y0270353D02*
X0396912Y0270670D01*
X0396912Y0271303D01*
X0397229Y0271620D01*
X0397229Y0272562D02*
X0398497Y0272562D01*
X0398814Y0272879D01*
X0398814Y0273513D01*
X0398497Y0273830D01*
X0398497Y0274772D02*
X0398814Y0274772D01*
X0398497Y0274772D02*
X0397229Y0276040D01*
X0396912Y0276040D01*
X0396912Y0274772D01*
X0397229Y0273830D02*
X0396912Y0273513D01*
X0396912Y0272879D01*
X0397229Y0272562D01*
X0378807Y0288345D02*
X0378807Y0292845D01*
X0377807Y0298845D01*
X0374307Y0298845D01*
X0370307Y0298845D02*
X0365307Y0298845D01*
X0361307Y0298845D02*
X0356307Y0298845D01*
X0352307Y0298845D02*
X0348807Y0298845D01*
X0347807Y0292845D01*
X0347807Y0288345D01*
X0348141Y0320080D02*
X0348141Y0324580D01*
X0349141Y0330580D01*
X0352641Y0330580D01*
X0356641Y0330580D02*
X0361641Y0330580D01*
X0365641Y0330580D02*
X0370641Y0330580D01*
X0374641Y0330580D02*
X0378141Y0330580D01*
X0379141Y0324580D01*
X0379141Y0320080D01*
X0396912Y0331135D02*
X0398814Y0331135D01*
X0398814Y0332403D01*
X0398497Y0333345D02*
X0398814Y0333662D01*
X0398814Y0334296D01*
X0398497Y0334612D01*
X0398180Y0334612D01*
X0397863Y0334296D01*
X0397863Y0333662D01*
X0397546Y0333345D01*
X0397229Y0333345D01*
X0396912Y0333662D01*
X0396912Y0334296D01*
X0397229Y0334612D01*
X0397229Y0335555D02*
X0398497Y0335555D01*
X0398814Y0335872D01*
X0398814Y0336505D01*
X0398497Y0336822D01*
X0398497Y0337764D02*
X0398814Y0338081D01*
X0398814Y0338715D01*
X0398497Y0339032D01*
X0397229Y0339032D01*
X0396912Y0338715D01*
X0396912Y0338081D01*
X0397229Y0337764D01*
X0397546Y0337764D01*
X0397863Y0338081D01*
X0397863Y0339032D01*
X0397229Y0336822D02*
X0396912Y0336505D01*
X0396912Y0335872D01*
X0397229Y0335555D01*
X0396912Y0332403D02*
X0396912Y0331135D01*
X0397863Y0331135D02*
X0397863Y0331769D01*
X0379105Y0351842D02*
X0379105Y0356342D01*
X0378105Y0362342D01*
X0374605Y0362342D01*
X0370605Y0362342D02*
X0365605Y0362342D01*
X0361605Y0362342D02*
X0356605Y0362342D01*
X0352605Y0362342D02*
X0349105Y0362342D01*
X0348105Y0356342D01*
X0348105Y0351842D01*
X0396912Y0360421D02*
X0398814Y0360421D01*
X0398814Y0361689D01*
X0398497Y0362631D02*
X0398814Y0362948D01*
X0398814Y0363582D01*
X0398497Y0363899D01*
X0398180Y0363899D01*
X0397863Y0363582D01*
X0397863Y0362948D01*
X0397546Y0362631D01*
X0397229Y0362631D01*
X0396912Y0362948D01*
X0396912Y0363582D01*
X0397229Y0363899D01*
X0397229Y0364841D02*
X0398497Y0364841D01*
X0398814Y0365158D01*
X0398814Y0365792D01*
X0398497Y0366109D01*
X0398814Y0367051D02*
X0398814Y0368318D01*
X0398814Y0367685D02*
X0396912Y0367685D01*
X0397546Y0367051D01*
X0397229Y0366109D02*
X0396912Y0365792D01*
X0396912Y0365158D01*
X0397229Y0364841D01*
X0396912Y0361689D02*
X0396912Y0360421D01*
X0397863Y0360421D02*
X0397863Y0361055D01*
X0398497Y0369261D02*
X0397229Y0370528D01*
X0398497Y0370528D01*
X0398814Y0370211D01*
X0398814Y0369577D01*
X0398497Y0369261D01*
X0397229Y0369261D01*
X0396912Y0369577D01*
X0396912Y0370211D01*
X0397229Y0370528D01*
X0397229Y0307536D02*
X0397546Y0307536D01*
X0397863Y0307219D01*
X0397863Y0306585D01*
X0397546Y0306268D01*
X0397229Y0306268D01*
X0396912Y0306585D01*
X0396912Y0307219D01*
X0397229Y0307536D01*
X0397863Y0307219D02*
X0398180Y0307536D01*
X0398497Y0307536D01*
X0398814Y0307219D01*
X0398814Y0306585D01*
X0398497Y0306268D01*
X0398180Y0306268D01*
X0397863Y0306585D01*
X0398497Y0305326D02*
X0398814Y0305009D01*
X0398814Y0304375D01*
X0398497Y0304059D01*
X0397229Y0304059D01*
X0396912Y0304375D01*
X0396912Y0305009D01*
X0397229Y0305326D01*
X0397229Y0303116D02*
X0396912Y0302799D01*
X0396912Y0302166D01*
X0397229Y0301849D01*
X0397546Y0301849D01*
X0397863Y0302166D01*
X0397863Y0302799D01*
X0398180Y0303116D01*
X0398497Y0303116D01*
X0398814Y0302799D01*
X0398814Y0302166D01*
X0398497Y0301849D01*
X0398814Y0300907D02*
X0398814Y0299639D01*
X0396912Y0299639D01*
X0396912Y0300907D01*
X0397863Y0300273D02*
X0397863Y0299639D01*
X0398180Y0244544D02*
X0397863Y0244227D01*
X0397863Y0243276D01*
X0398497Y0243276D01*
X0398814Y0243593D01*
X0398814Y0244227D01*
X0398497Y0244544D01*
X0398180Y0244544D01*
X0397229Y0243910D02*
X0397863Y0243276D01*
X0397229Y0243910D02*
X0396912Y0244544D01*
X0397229Y0242334D02*
X0396912Y0242017D01*
X0396912Y0241383D01*
X0397229Y0241066D01*
X0398497Y0241066D01*
X0398814Y0241383D01*
X0398814Y0242017D01*
X0398497Y0242334D01*
X0398497Y0240124D02*
X0398814Y0239807D01*
X0398814Y0239173D01*
X0398497Y0238857D01*
X0397863Y0239173D02*
X0397863Y0239807D01*
X0398180Y0240124D01*
X0398497Y0240124D01*
X0397863Y0239173D02*
X0397546Y0238857D01*
X0397229Y0238857D01*
X0396912Y0239173D01*
X0396912Y0239807D01*
X0397229Y0240124D01*
X0396912Y0237914D02*
X0396912Y0236647D01*
X0398814Y0236647D01*
X0398814Y0237914D01*
X0397863Y0237281D02*
X0397863Y0236647D01*
X0397863Y0181552D02*
X0397863Y0180284D01*
X0396912Y0181235D01*
X0398814Y0181235D01*
X0398497Y0179342D02*
X0398814Y0179025D01*
X0398814Y0178391D01*
X0398497Y0178074D01*
X0397229Y0178074D01*
X0396912Y0178391D01*
X0396912Y0179025D01*
X0397229Y0179342D01*
X0397229Y0177132D02*
X0396912Y0176815D01*
X0396912Y0176181D01*
X0397229Y0175864D01*
X0397546Y0175864D01*
X0397863Y0176181D01*
X0397863Y0176815D01*
X0398180Y0177132D01*
X0398497Y0177132D01*
X0398814Y0176815D01*
X0398814Y0176181D01*
X0398497Y0175864D01*
X0398814Y0174922D02*
X0398814Y0173655D01*
X0396912Y0173655D01*
X0396912Y0174922D01*
X0397863Y0174288D02*
X0397863Y0173655D01*
X0397546Y0118560D02*
X0397229Y0118560D01*
X0396912Y0118243D01*
X0396912Y0117609D01*
X0397229Y0117292D01*
X0397229Y0116350D02*
X0396912Y0116033D01*
X0396912Y0115399D01*
X0397229Y0115082D01*
X0398497Y0115082D01*
X0398814Y0115399D01*
X0398814Y0116033D01*
X0398497Y0116350D01*
X0398814Y0117292D02*
X0397546Y0118560D01*
X0398814Y0118560D02*
X0398814Y0117292D01*
X0398497Y0114140D02*
X0398814Y0113823D01*
X0398814Y0113189D01*
X0398497Y0112872D01*
X0397863Y0113189D02*
X0397863Y0113823D01*
X0398180Y0114140D01*
X0398497Y0114140D01*
X0397863Y0113189D02*
X0397546Y0112872D01*
X0397229Y0112872D01*
X0396912Y0113189D01*
X0396912Y0113823D01*
X0397229Y0114140D01*
X0396912Y0111930D02*
X0396912Y0110662D01*
X0398814Y0110662D01*
X0398814Y0111930D01*
X0397863Y0111296D02*
X0397863Y0110662D01*
D14*
X0096477Y0179123D02*
X0096477Y0182312D01*
X0074233Y0182312D02*
X0074233Y0179123D01*
D15*
X0005942Y0047038D02*
X0006709Y0046271D01*
X0005942Y0047038D02*
X0005942Y0048573D01*
X0006709Y0049341D01*
X0007477Y0049341D01*
X0008244Y0048573D01*
X0009012Y0049341D01*
X0009779Y0049341D01*
X0010546Y0048573D01*
X0010546Y0047038D01*
X0009779Y0046271D01*
X0008244Y0047806D02*
X0008244Y0048573D01*
X0009012Y0050876D02*
X0005942Y0050876D01*
X0009012Y0050876D02*
X0010546Y0052411D01*
X0009012Y0053946D01*
X0005942Y0053946D01*
X0006709Y0055480D02*
X0005942Y0056248D01*
X0005942Y0057783D01*
X0006709Y0058550D01*
X0007477Y0058550D01*
X0008244Y0057783D01*
X0009012Y0058550D01*
X0009779Y0058550D01*
X0010546Y0057783D01*
X0010546Y0056248D01*
X0009779Y0055480D01*
X0008244Y0057015D02*
X0008244Y0057783D01*
X0011314Y0060085D02*
X0011314Y0063155D01*
X0009779Y0064690D02*
X0010546Y0065458D01*
X0010546Y0066993D01*
X0009779Y0067760D01*
X0006709Y0067760D01*
X0005942Y0066993D01*
X0005942Y0065458D01*
X0006709Y0064690D01*
X0009779Y0064690D01*
X0010546Y0069295D02*
X0005942Y0069295D01*
X0010546Y0072365D01*
X0005942Y0072365D01*
X0005942Y0073900D02*
X0010546Y0073900D01*
X0010546Y0076970D01*
X0010546Y0080040D02*
X0008244Y0080040D01*
X0006709Y0081575D01*
X0005942Y0081575D01*
X0008244Y0080040D02*
X0006709Y0078505D01*
X0005942Y0078505D01*
X0057943Y0166942D02*
X0060245Y0166942D01*
X0061012Y0167709D01*
X0061012Y0170778D01*
X0060245Y0171546D01*
X0057943Y0171546D01*
X0057943Y0166942D01*
X0062546Y0166942D02*
X0065616Y0166942D01*
X0067150Y0166942D02*
X0067150Y0171546D01*
X0069452Y0171546D01*
X0070220Y0170778D01*
X0070220Y0169244D01*
X0069452Y0168476D01*
X0067150Y0168476D01*
X0064081Y0169244D02*
X0062546Y0169244D01*
X0062546Y0171546D02*
X0062546Y0166942D01*
X0062546Y0171546D02*
X0065616Y0171546D01*
X0071754Y0171546D02*
X0074824Y0171546D01*
X0076358Y0171546D02*
X0076358Y0166942D01*
X0076358Y0169244D02*
X0079428Y0169244D01*
X0079428Y0171546D02*
X0079428Y0166942D01*
X0080962Y0166174D02*
X0084031Y0166174D01*
X0085566Y0167709D02*
X0086333Y0166942D01*
X0087868Y0166942D01*
X0088635Y0167709D01*
X0088635Y0168476D01*
X0087868Y0169244D01*
X0086333Y0169244D01*
X0085566Y0170011D01*
X0085566Y0170778D01*
X0086333Y0171546D01*
X0087868Y0171546D01*
X0088635Y0170778D01*
X0090170Y0171546D02*
X0090170Y0166942D01*
X0093239Y0166942D01*
X0094774Y0166942D02*
X0094774Y0171546D01*
X0097843Y0166942D01*
X0097843Y0171546D01*
X0099378Y0170778D02*
X0100145Y0171546D01*
X0101680Y0171546D01*
X0102447Y0170778D01*
X0103982Y0170778D02*
X0103982Y0167709D01*
X0104749Y0166942D01*
X0106284Y0166942D01*
X0107051Y0167709D01*
X0107051Y0170778D01*
X0106284Y0171546D01*
X0104749Y0171546D01*
X0103982Y0170778D01*
X0102447Y0168476D02*
X0102447Y0167709D01*
X0101680Y0166942D01*
X0100145Y0166942D01*
X0099378Y0167709D01*
X0100145Y0169244D02*
X0101680Y0169244D01*
X0102447Y0168476D01*
X0100145Y0169244D02*
X0099378Y0170011D01*
X0099378Y0170778D01*
X0093239Y0171546D02*
X0090170Y0171546D01*
X0090170Y0169244D02*
X0091705Y0169244D01*
X0108586Y0168476D02*
X0110888Y0168476D01*
X0111655Y0169244D01*
X0111655Y0170778D01*
X0110888Y0171546D01*
X0108586Y0171546D01*
X0108586Y0166942D01*
X0110120Y0168476D02*
X0111655Y0166942D01*
X0073289Y0166942D02*
X0073289Y0171546D01*
X0111748Y0237444D02*
X0112515Y0237444D01*
X0113282Y0238211D01*
X0113282Y0242048D01*
X0112515Y0242048D02*
X0114050Y0242048D01*
X0115584Y0239746D02*
X0118654Y0239746D01*
X0117886Y0237444D02*
X0117886Y0242048D01*
X0115584Y0239746D01*
X0111748Y0237444D02*
X0110980Y0238211D01*
X0178624Y0256099D02*
X0178624Y0257633D01*
X0178624Y0256866D02*
X0183228Y0256866D01*
X0183228Y0256099D02*
X0183228Y0257633D01*
X0182460Y0259168D02*
X0183228Y0259935D01*
X0183228Y0261470D01*
X0182460Y0262237D01*
X0183228Y0263772D02*
X0183228Y0266841D01*
X0183228Y0265307D02*
X0178624Y0265307D01*
X0180158Y0263772D01*
X0179391Y0262237D02*
X0178624Y0261470D01*
X0178624Y0259935D01*
X0179391Y0259168D01*
X0182460Y0259168D01*
X0201243Y0316501D02*
X0204162Y0316501D01*
X0204746Y0317085D01*
X0204746Y0318253D01*
X0204162Y0318837D01*
X0201243Y0318837D01*
X0201827Y0320092D02*
X0201243Y0320676D01*
X0201243Y0321844D01*
X0201827Y0322428D01*
X0202994Y0321844D02*
X0203578Y0322428D01*
X0204162Y0322428D01*
X0204746Y0321844D01*
X0204746Y0320676D01*
X0204162Y0320092D01*
X0202994Y0320676D02*
X0202994Y0321844D01*
X0202994Y0320676D02*
X0202410Y0320092D01*
X0201827Y0320092D01*
X0201243Y0323683D02*
X0201243Y0325435D01*
X0201827Y0326019D01*
X0202410Y0326019D01*
X0202994Y0325435D01*
X0202994Y0323683D01*
X0201243Y0323683D02*
X0204746Y0323683D01*
X0204746Y0325435D01*
X0204162Y0326019D01*
X0203578Y0326019D01*
X0202994Y0325435D01*
X0205330Y0327274D02*
X0205330Y0329610D01*
X0204746Y0330865D02*
X0204746Y0332033D01*
X0204746Y0331449D02*
X0201243Y0331449D01*
X0201243Y0330865D02*
X0201243Y0332033D01*
X0201243Y0333260D02*
X0201243Y0335011D01*
X0201827Y0335595D01*
X0204162Y0335595D01*
X0204746Y0335011D01*
X0204746Y0333260D01*
X0201243Y0333260D01*
X0175661Y0357414D02*
X0175077Y0356831D01*
X0173910Y0356831D01*
X0173326Y0357414D01*
X0173910Y0358582D02*
X0173326Y0359166D01*
X0173326Y0359750D01*
X0173910Y0360334D01*
X0175077Y0360334D01*
X0175661Y0359750D01*
X0175077Y0358582D02*
X0175661Y0357998D01*
X0175661Y0357414D01*
X0175077Y0358582D02*
X0173910Y0358582D01*
X0172070Y0356831D02*
X0169735Y0356831D01*
X0169735Y0360334D01*
X0172070Y0360334D01*
X0170902Y0358582D02*
X0169735Y0358582D01*
X0168508Y0356831D02*
X0167341Y0356831D01*
X0167924Y0356831D02*
X0167924Y0360334D01*
X0167341Y0360334D02*
X0168508Y0360334D01*
X0166085Y0359750D02*
X0166085Y0358582D01*
X0165501Y0357998D01*
X0163750Y0357998D01*
X0164917Y0357998D02*
X0166085Y0356831D01*
X0163750Y0356831D02*
X0163750Y0360334D01*
X0165501Y0360334D01*
X0166085Y0359750D01*
X0162494Y0360334D02*
X0160158Y0360334D01*
X0160158Y0356831D01*
X0162494Y0356831D01*
X0161326Y0358582D02*
X0160158Y0358582D01*
X0158903Y0357998D02*
X0158903Y0357414D01*
X0158319Y0356831D01*
X0157151Y0356831D01*
X0156567Y0357414D01*
X0157151Y0358582D02*
X0158319Y0358582D01*
X0158903Y0357998D01*
X0158903Y0359750D02*
X0158319Y0360334D01*
X0157151Y0360334D01*
X0156567Y0359750D01*
X0156567Y0359166D01*
X0157151Y0358582D01*
X0155312Y0358582D02*
X0152976Y0358582D01*
X0151721Y0357414D02*
X0151721Y0359750D01*
X0151137Y0360334D01*
X0149385Y0360334D01*
X0149385Y0356831D01*
X0151137Y0356831D01*
X0151721Y0357414D01*
X0133665Y0354750D02*
X0133081Y0355334D01*
X0131914Y0355334D01*
X0131330Y0354750D01*
X0131330Y0354166D01*
X0131914Y0353583D01*
X0133081Y0353583D01*
X0133665Y0352999D01*
X0133665Y0352415D01*
X0133081Y0351831D01*
X0131914Y0351831D01*
X0131330Y0352415D01*
X0130074Y0351831D02*
X0127739Y0351831D01*
X0127739Y0355334D01*
X0130074Y0355334D01*
X0128907Y0353583D02*
X0127739Y0353583D01*
X0126512Y0355334D02*
X0125345Y0355334D01*
X0125929Y0355334D02*
X0125929Y0351831D01*
X0126512Y0351831D02*
X0125345Y0351831D01*
X0124089Y0351831D02*
X0122921Y0352999D01*
X0123505Y0352999D02*
X0121754Y0352999D01*
X0121754Y0351831D02*
X0121754Y0355334D01*
X0123505Y0355334D01*
X0124089Y0354750D01*
X0124089Y0353583D01*
X0123505Y0352999D01*
X0120498Y0351831D02*
X0118163Y0351831D01*
X0118163Y0355334D01*
X0120498Y0355334D01*
X0119330Y0353583D02*
X0118163Y0353583D01*
X0116907Y0352999D02*
X0116907Y0352415D01*
X0116323Y0351831D01*
X0115155Y0351831D01*
X0114572Y0352415D01*
X0115155Y0353583D02*
X0116323Y0353583D01*
X0116907Y0352999D01*
X0116907Y0354750D02*
X0116323Y0355334D01*
X0115155Y0355334D01*
X0114572Y0354750D01*
X0114572Y0354166D01*
X0115155Y0353583D01*
X0113316Y0353583D02*
X0110981Y0353583D01*
X0112148Y0354750D02*
X0112148Y0352415D01*
X0109725Y0352415D02*
X0109725Y0354750D01*
X0109141Y0355334D01*
X0107389Y0355334D01*
X0107389Y0351831D01*
X0109141Y0351831D01*
X0109725Y0352415D01*
X0107190Y0339912D02*
X0107190Y0337576D01*
X0103687Y0337576D01*
X0103687Y0333985D02*
X0107190Y0333985D01*
X0107190Y0336321D01*
X0106606Y0332730D02*
X0103687Y0332730D01*
X0103687Y0330394D02*
X0106606Y0330394D01*
X0107190Y0330978D01*
X0107190Y0332146D01*
X0106606Y0332730D01*
X0105439Y0329138D02*
X0104271Y0329138D01*
X0103687Y0328555D01*
X0103687Y0326803D01*
X0107190Y0326803D01*
X0106023Y0326803D02*
X0106023Y0328555D01*
X0105439Y0329138D01*
X0105439Y0325547D02*
X0105439Y0323212D01*
X0104271Y0324380D02*
X0106606Y0324380D01*
X0106606Y0321956D02*
X0104271Y0321956D01*
X0103687Y0321372D01*
X0103687Y0319621D01*
X0107190Y0319621D01*
X0107190Y0321372D01*
X0106606Y0321956D01*
X0089525Y0324287D02*
X0089525Y0326039D01*
X0088942Y0326623D01*
X0086606Y0326623D01*
X0086022Y0326039D01*
X0086022Y0324287D01*
X0089525Y0324287D01*
X0087774Y0327878D02*
X0087774Y0330214D01*
X0088358Y0331469D02*
X0088358Y0333221D01*
X0087774Y0333805D01*
X0086606Y0333805D01*
X0086022Y0333221D01*
X0086022Y0331469D01*
X0089525Y0331469D01*
X0088942Y0335060D02*
X0086022Y0335060D01*
X0086022Y0337396D02*
X0088942Y0337396D01*
X0089525Y0336812D01*
X0089525Y0335644D01*
X0088942Y0335060D01*
X0089525Y0338651D02*
X0086022Y0338651D01*
X0089525Y0338651D02*
X0089525Y0340987D01*
X0089525Y0342243D02*
X0089525Y0344578D01*
X0089525Y0342243D02*
X0086022Y0342243D01*
D16*
X0154451Y0288514D02*
X0207404Y0288514D01*
X0207404Y0235561D01*
X0154451Y0235561D01*
X0154451Y0288514D01*
X0136329Y0252263D02*
X0004439Y0252263D01*
X0004439Y0217224D01*
X0136329Y0217224D01*
X0136329Y0252263D01*
D17*
X0135345Y0239744D02*
X0135345Y0218208D01*
X0005424Y0218208D01*
X0005424Y0251279D01*
X0115384Y0251279D01*
X0162522Y0243632D02*
X0199333Y0243632D01*
X0199333Y0280443D01*
X0162522Y0280443D01*
X0162522Y0243632D01*
D18*
X0162719Y0237530D02*
X0162721Y0237574D01*
X0162727Y0237618D01*
X0162737Y0237661D01*
X0162750Y0237703D01*
X0162768Y0237743D01*
X0162789Y0237782D01*
X0162813Y0237819D01*
X0162840Y0237854D01*
X0162871Y0237886D01*
X0162904Y0237915D01*
X0162940Y0237941D01*
X0162978Y0237963D01*
X0163018Y0237982D01*
X0163059Y0237998D01*
X0163102Y0238010D01*
X0163145Y0238018D01*
X0163189Y0238022D01*
X0163233Y0238022D01*
X0163277Y0238018D01*
X0163320Y0238010D01*
X0163363Y0237998D01*
X0163404Y0237982D01*
X0163444Y0237963D01*
X0163482Y0237941D01*
X0163518Y0237915D01*
X0163551Y0237886D01*
X0163582Y0237854D01*
X0163609Y0237819D01*
X0163633Y0237782D01*
X0163654Y0237743D01*
X0163672Y0237703D01*
X0163685Y0237661D01*
X0163695Y0237618D01*
X0163701Y0237574D01*
X0163703Y0237530D01*
X0163701Y0237486D01*
X0163695Y0237442D01*
X0163685Y0237399D01*
X0163672Y0237357D01*
X0163654Y0237317D01*
X0163633Y0237278D01*
X0163609Y0237241D01*
X0163582Y0237206D01*
X0163551Y0237174D01*
X0163518Y0237145D01*
X0163482Y0237119D01*
X0163444Y0237097D01*
X0163404Y0237078D01*
X0163363Y0237062D01*
X0163320Y0237050D01*
X0163277Y0237042D01*
X0163233Y0237038D01*
X0163189Y0237038D01*
X0163145Y0237042D01*
X0163102Y0237050D01*
X0163059Y0237062D01*
X0163018Y0237078D01*
X0162978Y0237097D01*
X0162940Y0237119D01*
X0162904Y0237145D01*
X0162871Y0237174D01*
X0162840Y0237206D01*
X0162813Y0237241D01*
X0162789Y0237278D01*
X0162768Y0237317D01*
X0162750Y0237357D01*
X0162737Y0237399D01*
X0162727Y0237442D01*
X0162721Y0237486D01*
X0162719Y0237530D01*
D19*
X0158946Y0175271D02*
X0134946Y0175271D01*
X0134739Y0175268D01*
X0134532Y0175261D01*
X0134326Y0175248D01*
X0134119Y0175231D01*
X0133914Y0175208D01*
X0133708Y0175180D01*
X0133504Y0175148D01*
X0133300Y0175110D01*
X0133098Y0175068D01*
X0132896Y0175020D01*
X0132696Y0174968D01*
X0132497Y0174911D01*
X0132300Y0174849D01*
X0132104Y0174782D01*
X0131910Y0174710D01*
X0131717Y0174634D01*
X0131527Y0174553D01*
X0131338Y0174467D01*
X0131152Y0174377D01*
X0130968Y0174283D01*
X0130786Y0174183D01*
X0130607Y0174080D01*
X0130430Y0173972D01*
X0130256Y0173860D01*
X0130085Y0173744D01*
X0129916Y0173623D01*
X0129751Y0173499D01*
X0129589Y0173370D01*
X0129430Y0173238D01*
X0129274Y0173102D01*
X0129121Y0172962D01*
X0128972Y0172818D01*
X0128827Y0172671D01*
X0128685Y0172520D01*
X0128547Y0172366D01*
X0128412Y0172208D01*
X0128282Y0172048D01*
X0128156Y0171884D01*
X0128033Y0171717D01*
X0127915Y0171547D01*
X0127800Y0171374D01*
X0127690Y0171199D01*
X0127585Y0171021D01*
X0127483Y0170840D01*
X0127387Y0170658D01*
X0127294Y0170472D01*
X0127206Y0170285D01*
X0127123Y0170095D01*
X0127044Y0169904D01*
X0126970Y0169711D01*
X0126901Y0169515D01*
X0126837Y0169319D01*
X0126777Y0169121D01*
X0126722Y0168921D01*
X0126672Y0168720D01*
X0126627Y0168518D01*
X0126587Y0168315D01*
X0126552Y0168111D01*
X0126522Y0167906D01*
X0126497Y0167701D01*
X0126477Y0167495D01*
X0126462Y0167288D01*
X0126452Y0167081D01*
X0126447Y0166874D01*
X0126447Y0166668D01*
X0126452Y0166461D01*
X0126462Y0166254D01*
X0126477Y0166047D01*
X0126497Y0165841D01*
X0126522Y0165636D01*
X0126552Y0165431D01*
X0126587Y0165227D01*
X0126627Y0165024D01*
X0126672Y0164822D01*
X0126722Y0164621D01*
X0126777Y0164421D01*
X0126837Y0164223D01*
X0126901Y0164027D01*
X0126970Y0163831D01*
X0127044Y0163638D01*
X0127123Y0163447D01*
X0127206Y0163257D01*
X0127294Y0163070D01*
X0127387Y0162884D01*
X0127483Y0162702D01*
X0127585Y0162521D01*
X0127690Y0162343D01*
X0127800Y0162168D01*
X0127915Y0161995D01*
X0128033Y0161825D01*
X0128156Y0161658D01*
X0128282Y0161494D01*
X0128412Y0161334D01*
X0128547Y0161176D01*
X0128685Y0161022D01*
X0128827Y0160871D01*
X0128972Y0160724D01*
X0129121Y0160580D01*
X0129274Y0160440D01*
X0129430Y0160304D01*
X0129589Y0160172D01*
X0129751Y0160043D01*
X0129916Y0159919D01*
X0130085Y0159798D01*
X0130256Y0159682D01*
X0130430Y0159570D01*
X0130607Y0159462D01*
X0130786Y0159359D01*
X0130968Y0159259D01*
X0131152Y0159165D01*
X0131338Y0159075D01*
X0131527Y0158989D01*
X0131717Y0158908D01*
X0131910Y0158832D01*
X0132104Y0158760D01*
X0132300Y0158693D01*
X0132497Y0158631D01*
X0132696Y0158574D01*
X0132896Y0158522D01*
X0133098Y0158474D01*
X0133300Y0158432D01*
X0133504Y0158394D01*
X0133708Y0158362D01*
X0133914Y0158334D01*
X0134119Y0158311D01*
X0134326Y0158294D01*
X0134532Y0158281D01*
X0134739Y0158274D01*
X0134946Y0158271D01*
X0158946Y0158271D01*
X0159153Y0158274D01*
X0159360Y0158281D01*
X0159566Y0158294D01*
X0159773Y0158311D01*
X0159978Y0158334D01*
X0160184Y0158362D01*
X0160388Y0158394D01*
X0160592Y0158432D01*
X0160794Y0158474D01*
X0160996Y0158522D01*
X0161196Y0158574D01*
X0161395Y0158631D01*
X0161592Y0158693D01*
X0161788Y0158760D01*
X0161982Y0158832D01*
X0162175Y0158908D01*
X0162365Y0158989D01*
X0162554Y0159075D01*
X0162740Y0159165D01*
X0162924Y0159259D01*
X0163106Y0159359D01*
X0163285Y0159462D01*
X0163462Y0159570D01*
X0163636Y0159682D01*
X0163807Y0159798D01*
X0163976Y0159919D01*
X0164141Y0160043D01*
X0164303Y0160172D01*
X0164462Y0160304D01*
X0164618Y0160440D01*
X0164771Y0160580D01*
X0164920Y0160724D01*
X0165065Y0160871D01*
X0165207Y0161022D01*
X0165345Y0161176D01*
X0165480Y0161334D01*
X0165610Y0161494D01*
X0165736Y0161658D01*
X0165859Y0161825D01*
X0165977Y0161995D01*
X0166092Y0162168D01*
X0166202Y0162343D01*
X0166307Y0162521D01*
X0166409Y0162702D01*
X0166505Y0162884D01*
X0166598Y0163070D01*
X0166686Y0163257D01*
X0166769Y0163447D01*
X0166848Y0163638D01*
X0166922Y0163831D01*
X0166991Y0164027D01*
X0167055Y0164223D01*
X0167115Y0164421D01*
X0167170Y0164621D01*
X0167220Y0164822D01*
X0167265Y0165024D01*
X0167305Y0165227D01*
X0167340Y0165431D01*
X0167370Y0165636D01*
X0167395Y0165841D01*
X0167415Y0166047D01*
X0167430Y0166254D01*
X0167440Y0166461D01*
X0167445Y0166668D01*
X0167445Y0166874D01*
X0167440Y0167081D01*
X0167430Y0167288D01*
X0167415Y0167495D01*
X0167395Y0167701D01*
X0167370Y0167906D01*
X0167340Y0168111D01*
X0167305Y0168315D01*
X0167265Y0168518D01*
X0167220Y0168720D01*
X0167170Y0168921D01*
X0167115Y0169121D01*
X0167055Y0169319D01*
X0166991Y0169515D01*
X0166922Y0169711D01*
X0166848Y0169904D01*
X0166769Y0170095D01*
X0166686Y0170285D01*
X0166598Y0170472D01*
X0166505Y0170658D01*
X0166409Y0170840D01*
X0166307Y0171021D01*
X0166202Y0171199D01*
X0166092Y0171374D01*
X0165977Y0171547D01*
X0165859Y0171717D01*
X0165736Y0171884D01*
X0165610Y0172048D01*
X0165480Y0172208D01*
X0165345Y0172366D01*
X0165207Y0172520D01*
X0165065Y0172671D01*
X0164920Y0172818D01*
X0164771Y0172962D01*
X0164618Y0173102D01*
X0164462Y0173238D01*
X0164303Y0173370D01*
X0164141Y0173499D01*
X0163976Y0173623D01*
X0163807Y0173744D01*
X0163636Y0173860D01*
X0163462Y0173972D01*
X0163285Y0174080D01*
X0163106Y0174183D01*
X0162924Y0174283D01*
X0162740Y0174377D01*
X0162554Y0174467D01*
X0162365Y0174553D01*
X0162175Y0174634D01*
X0161982Y0174710D01*
X0161788Y0174782D01*
X0161592Y0174849D01*
X0161395Y0174911D01*
X0161196Y0174968D01*
X0160996Y0175020D01*
X0160794Y0175068D01*
X0160592Y0175110D01*
X0160388Y0175148D01*
X0160184Y0175180D01*
X0159978Y0175208D01*
X0159773Y0175231D01*
X0159566Y0175248D01*
X0159360Y0175261D01*
X0159153Y0175268D01*
X0158946Y0175271D01*
D20*
X0349641Y0162850D03*
X0377641Y0162850D03*
X0377307Y0193586D03*
X0349307Y0193586D03*
X0349641Y0225160D03*
X0377641Y0225160D03*
X0377641Y0256974D03*
X0349641Y0256974D03*
X0349307Y0288595D03*
X0377307Y0288595D03*
X0377641Y0320330D03*
X0349641Y0320330D03*
X0349605Y0352092D03*
X0377605Y0352092D03*
X0377641Y0130547D03*
X0349641Y0130547D03*
X0348974Y0098368D03*
X0376974Y0098368D03*
X0376111Y0068360D03*
X0348111Y0068360D03*
D21*
X0357611Y0068360D03*
X0366611Y0068360D03*
X0367474Y0098368D03*
X0358474Y0098368D03*
X0359141Y0130547D03*
X0368141Y0130547D03*
X0368141Y0162850D03*
X0359141Y0162850D03*
X0358807Y0193586D03*
X0367807Y0193586D03*
X0368141Y0225160D03*
X0359141Y0225160D03*
X0359141Y0256974D03*
X0368141Y0256974D03*
X0367807Y0288595D03*
X0358807Y0288595D03*
X0359141Y0320330D03*
X0368141Y0320330D03*
X0368105Y0352092D03*
X0359105Y0352092D03*
X0195714Y0327052D03*
X0195714Y0305552D03*
X0098390Y0320217D03*
X0080725Y0324884D03*
X0098390Y0341717D03*
X0080725Y0346384D03*
D22*
X0011569Y0125655D03*
D23*
X0038729Y0180981D02*
X0038729Y0181981D01*
X0048729Y0181981D01*
X0048729Y0180981D01*
X0048729Y0203981D02*
X0039229Y0203981D01*
X0039229Y0204981D01*
X0048729Y0204981D02*
X0048729Y0203981D01*
D24*
X0047171Y0176803D02*
X0042968Y0176803D01*
X0045069Y0176803D02*
X0045069Y0170498D01*
X0040726Y0170498D02*
X0036522Y0170498D01*
X0036522Y0176803D01*
X0040726Y0176803D01*
X0038624Y0173651D02*
X0036522Y0173651D01*
X0034280Y0172600D02*
X0034280Y0171549D01*
X0033229Y0170498D01*
X0031127Y0170498D01*
X0030077Y0171549D01*
X0031127Y0173651D02*
X0033229Y0173651D01*
X0034280Y0172600D01*
X0034280Y0175752D02*
X0033229Y0176803D01*
X0031127Y0176803D01*
X0030077Y0175752D01*
X0030077Y0174702D01*
X0031127Y0173651D01*
X0027835Y0176803D02*
X0023631Y0176803D01*
X0023631Y0170498D01*
X0027835Y0170498D01*
X0025733Y0173651D02*
X0023631Y0173651D01*
X0021389Y0173651D02*
X0020338Y0172600D01*
X0017186Y0172600D01*
X0019287Y0172600D02*
X0021389Y0170498D01*
X0021389Y0173651D02*
X0021389Y0175752D01*
X0020338Y0176803D01*
X0017186Y0176803D01*
X0017186Y0170498D01*
D25*
X0114971Y0346299D03*
X0136471Y0346299D03*
X0158633Y0350965D03*
X0180133Y0350965D03*
M02*
