G75*
%MOIN*%
%OFA0B0*%
%FSLAX25Y25*%
%IPPOS*%
%LPD*%
%AMOC8*
5,1,8,0,0,1.08239X$1,22.5*
%
%ADD10C,0.00600*%
%ADD11C,0.00000*%
%ADD12C,0.06450*%
%ADD13R,0.04724X0.05512*%
%ADD14R,0.04331X0.03937*%
%ADD15C,0.00500*%
%ADD16R,0.06500X0.25000*%
%ADD17R,0.02362X0.06102*%
%ADD18OC8,0.06300*%
%ADD19R,0.03937X0.04331*%
%ADD20R,0.05800X0.01100*%
%ADD21R,0.01100X0.05800*%
%ADD22OC8,0.05200*%
%ADD23C,0.06000*%
%ADD24R,0.04362X0.04362*%
%ADD25C,0.04362*%
%ADD26C,0.01200*%
%ADD27C,0.10630*%
%ADD28R,0.09843X0.01969*%
%ADD29R,0.09843X0.07874*%
%ADD30R,0.05512X0.07087*%
%ADD31R,0.07480X0.05512*%
%ADD32R,0.05906X0.03150*%
%ADD33C,0.05200*%
%ADD34C,0.05200*%
%ADD35C,0.02978*%
%ADD36C,0.02000*%
%ADD37C,0.02400*%
%ADD38C,0.04000*%
%ADD39C,0.03200*%
D10*
X0021728Y0064642D02*
X0076846Y0064642D01*
X0076846Y0033933D01*
X0366610Y0033933D01*
X0366610Y0064642D01*
X0421728Y0064642D01*
X0421728Y0433933D01*
X0021728Y0433933D01*
X0021728Y0064642D01*
X0071525Y0120183D02*
X0074478Y0120183D01*
X0074478Y0118714D02*
X0071759Y0121433D01*
X0037353Y0121433D01*
X0027978Y0130808D01*
X0027978Y0205808D01*
X0033303Y0212608D01*
X0033470Y0212776D01*
X0033470Y0212822D01*
X0036182Y0216285D01*
X0031182Y0216285D02*
X0031182Y0271512D01*
X0046728Y0287058D01*
X0106103Y0287058D01*
X0121728Y0271433D01*
X0121728Y0243308D01*
X0127978Y0237058D01*
X0201813Y0237058D01*
X0202120Y0236751D01*
X0205135Y0236751D01*
X0205478Y0236408D01*
X0205478Y0234408D02*
X0205235Y0234165D01*
X0202120Y0234165D01*
X0201888Y0233933D01*
X0121728Y0233933D01*
X0115478Y0240183D01*
X0115478Y0268308D01*
X0102978Y0280808D01*
X0052978Y0280808D01*
X0046182Y0274012D01*
X0046182Y0216325D01*
X0041221Y0216285D02*
X0041221Y0208190D01*
X0043603Y0205808D01*
X0046182Y0203229D01*
X0046182Y0195065D01*
X0041221Y0195065D02*
X0041221Y0201940D01*
X0040478Y0202683D01*
X0036182Y0200729D02*
X0036182Y0195065D01*
X0036182Y0197604D01*
X0036182Y0195065D02*
X0036182Y0182983D01*
X0034228Y0181030D01*
X0037904Y0181030D01*
X0041176Y0177757D01*
X0046654Y0177757D01*
X0049853Y0174558D01*
X0049853Y0146433D01*
X0052978Y0143308D01*
X0074853Y0143308D01*
X0090478Y0127683D01*
X0090478Y0093308D01*
X0096728Y0087058D01*
X0146728Y0087058D01*
X0156103Y0077683D01*
X0237353Y0077683D01*
X0252978Y0062058D01*
X0331103Y0062058D01*
X0337478Y0055683D01*
X0337478Y0046433D01*
X0346728Y0049558D02*
X0347478Y0048808D01*
X0347478Y0046433D01*
X0346728Y0049558D02*
X0346728Y0062058D01*
X0340478Y0068308D01*
X0256103Y0068308D01*
X0240478Y0083933D01*
X0159228Y0083933D01*
X0149853Y0090183D01*
X0106103Y0090183D01*
X0096728Y0099558D01*
X0096728Y0127683D01*
X0074853Y0149558D01*
X0059228Y0149558D01*
X0056103Y0152683D01*
X0056103Y0174558D01*
X0049632Y0181030D01*
X0043603Y0181030D01*
X0041221Y0183411D01*
X0041221Y0195065D01*
X0036182Y0200729D02*
X0034228Y0202683D01*
X0031182Y0195065D02*
X0031182Y0183683D01*
X0031153Y0183653D01*
X0031153Y0167286D01*
X0034228Y0164210D01*
X0034228Y0163933D01*
X0039228Y0163933D01*
X0043603Y0168308D01*
X0043603Y0174337D01*
X0034228Y0174337D02*
X0034228Y0164210D01*
X0059228Y0183933D02*
X0059228Y0274558D01*
X0062353Y0277683D01*
X0071728Y0290183D02*
X0065478Y0296433D01*
X0065478Y0312058D01*
X0062353Y0315183D01*
X0056571Y0315183D01*
X0056571Y0318333D02*
X0062329Y0318333D01*
X0068603Y0312058D01*
X0068603Y0296433D01*
X0071728Y0293308D01*
X0106103Y0293308D01*
X0124853Y0274558D01*
X0134228Y0274558D01*
X0140478Y0268308D01*
X0202978Y0268308D01*
X0212353Y0258933D01*
X0212353Y0255808D01*
X0208753Y0252208D01*
X0205478Y0252208D01*
X0205478Y0254108D02*
X0205821Y0254451D01*
X0208837Y0254451D01*
X0209485Y0255100D01*
X0209485Y0259811D01*
X0204696Y0264600D01*
X0141061Y0264600D01*
X0134228Y0271433D01*
X0124853Y0271433D01*
X0106103Y0290183D01*
X0071728Y0290183D01*
X0074853Y0296433D02*
X0134228Y0296433D01*
X0149853Y0280808D01*
X0149853Y0278933D01*
X0157353Y0271433D01*
X0202978Y0271433D01*
X0208603Y0265808D01*
X0213178Y0265808D01*
X0215178Y0265808D02*
X0215178Y0271733D01*
X0212353Y0274558D01*
X0169853Y0274558D01*
X0165478Y0278933D01*
X0177978Y0280808D02*
X0177978Y0286837D01*
X0177978Y0280808D02*
X0181103Y0277683D01*
X0212353Y0277683D01*
X0217178Y0272858D01*
X0217178Y0265808D01*
X0219078Y0265808D02*
X0219078Y0274083D01*
X0212353Y0280808D01*
X0190478Y0280808D01*
X0187353Y0283933D01*
X0187353Y0286837D01*
X0187353Y0293530D02*
X0187132Y0293530D01*
X0181103Y0299558D01*
X0162353Y0299558D01*
X0156103Y0305808D01*
X0156103Y0310808D01*
X0154228Y0312683D01*
X0140257Y0293530D02*
X0127978Y0305808D01*
X0127978Y0311433D01*
X0129228Y0312683D01*
X0140257Y0293530D02*
X0177978Y0293530D01*
X0181103Y0308933D02*
X0196507Y0293530D01*
X0196728Y0293530D01*
X0196728Y0286837D02*
X0196950Y0286837D01*
X0199853Y0283933D01*
X0212353Y0283933D01*
X0223078Y0273208D01*
X0223078Y0265808D01*
X0224978Y0265808D02*
X0224978Y0274212D01*
X0206103Y0293087D01*
X0206103Y0299780D02*
X0206103Y0310808D01*
X0204228Y0312683D01*
X0212353Y0333933D02*
X0187353Y0333933D01*
X0189228Y0335808D01*
X0189228Y0342683D01*
X0196728Y0350183D01*
X0196728Y0370808D01*
X0196728Y0372000D01*
X0189621Y0382509D02*
X0189621Y0354951D01*
X0181103Y0346433D01*
X0181103Y0344558D01*
X0179228Y0342683D01*
X0187353Y0333933D02*
X0162353Y0333933D01*
X0164228Y0335808D01*
X0164228Y0342683D01*
X0181103Y0359558D01*
X0181103Y0370808D01*
X0181103Y0372000D01*
X0173996Y0364326D02*
X0156103Y0346433D01*
X0156103Y0344558D01*
X0154228Y0342683D01*
X0162353Y0333933D02*
X0137353Y0333933D01*
X0139228Y0335808D01*
X0139228Y0342683D01*
X0165478Y0368933D01*
X0165478Y0370808D01*
X0165478Y0371433D01*
X0173996Y0364326D02*
X0173996Y0382509D01*
X0181103Y0389616D01*
X0181103Y0390808D01*
X0181103Y0405587D01*
X0165478Y0405587D02*
X0165478Y0390808D01*
X0165478Y0389616D01*
X0158371Y0382509D01*
X0158371Y0370576D01*
X0140478Y0352683D01*
X0134228Y0352683D01*
X0131103Y0349558D01*
X0131103Y0344558D01*
X0129228Y0342683D01*
X0121728Y0333933D02*
X0137353Y0333933D01*
X0121728Y0333933D02*
X0087353Y0299558D01*
X0084228Y0299558D01*
X0074853Y0296433D02*
X0071728Y0299558D01*
X0071728Y0312058D01*
X0062304Y0321482D01*
X0056571Y0321482D01*
X0053587Y0329916D02*
X0044213Y0329916D01*
X0040657Y0326359D01*
X0040657Y0315834D01*
X0040242Y0315420D01*
X0034917Y0320744D01*
X0034917Y0332900D01*
X0040242Y0315420D02*
X0040478Y0315183D01*
X0040039Y0314744D01*
X0040657Y0314126D01*
X0040657Y0304007D01*
X0044213Y0300450D01*
X0053587Y0300450D01*
X0056571Y0297467D01*
X0056571Y0308884D01*
X0040039Y0314744D02*
X0034917Y0309622D01*
X0034917Y0297467D01*
X0053587Y0329916D02*
X0056571Y0332900D01*
X0128372Y0264076D02*
X0137465Y0258108D01*
X0205478Y0258108D01*
X0205478Y0256108D02*
X0133815Y0256108D01*
X0128372Y0247540D01*
X0137353Y0243308D02*
X0162698Y0243308D01*
X0155759Y0249558D02*
X0184007Y0249558D01*
X0184007Y0243308D02*
X0174509Y0243308D01*
X0190700Y0243308D02*
X0193603Y0243308D01*
X0198503Y0248208D01*
X0205478Y0248208D01*
X0205478Y0246308D02*
X0212478Y0246308D01*
X0218603Y0240183D01*
X0221728Y0230808D02*
X0221728Y0227683D01*
X0223078Y0226333D01*
X0223078Y0220808D01*
X0224978Y0220808D02*
X0224978Y0208808D01*
X0231103Y0202683D01*
X0365478Y0202683D01*
X0365478Y0205808D02*
X0390478Y0230808D01*
X0397301Y0230808D01*
X0397917Y0231424D01*
X0397935Y0221424D02*
X0376068Y0199558D01*
X0231103Y0199558D01*
X0221728Y0208933D01*
X0218603Y0208933D01*
X0215178Y0212358D01*
X0215178Y0220808D01*
X0213178Y0220808D02*
X0213178Y0212368D01*
X0218020Y0207526D01*
X0220010Y0207526D01*
X0231103Y0196433D01*
X0374853Y0196433D01*
X0379836Y0193308D02*
X0231103Y0193308D01*
X0221728Y0202683D01*
X0199853Y0202683D01*
X0193603Y0208933D01*
X0193603Y0227683D01*
X0198428Y0232508D01*
X0205478Y0232508D01*
X0205821Y0232165D01*
X0205478Y0230508D02*
X0199553Y0230508D01*
X0196728Y0227683D01*
X0196728Y0215183D01*
X0196728Y0213933D01*
X0202978Y0207683D01*
X0201528Y0224558D02*
X0205478Y0228508D01*
X0201528Y0224558D02*
X0199853Y0224558D01*
X0221078Y0220808D02*
X0221078Y0212708D01*
X0221728Y0212058D01*
X0226978Y0209933D02*
X0231103Y0205808D01*
X0365478Y0205808D01*
X0379836Y0193308D02*
X0397952Y0211424D01*
X0377978Y0187058D02*
X0384228Y0180808D01*
X0397388Y0180808D01*
X0398005Y0181424D01*
X0390478Y0171433D02*
X0381103Y0180808D01*
X0246728Y0180808D01*
X0240478Y0180808D02*
X0240478Y0184558D01*
X0240478Y0180808D02*
X0237353Y0177683D01*
X0134228Y0177683D01*
X0118603Y0193308D01*
X0109893Y0193308D01*
X0109228Y0193972D01*
X0109228Y0198894D02*
X0109893Y0199558D01*
X0121728Y0199558D01*
X0136728Y0184558D01*
X0224853Y0184558D01*
X0246728Y0174558D02*
X0377978Y0174558D01*
X0384228Y0168308D01*
X0384228Y0120788D01*
X0388568Y0116448D01*
X0388756Y0116448D01*
X0390405Y0114799D01*
X0384228Y0108933D02*
X0387024Y0106138D01*
X0392767Y0106138D01*
X0391103Y0102683D02*
X0391979Y0101807D01*
X0391103Y0102683D02*
X0384228Y0102683D01*
X0377978Y0108933D01*
X0377978Y0162058D01*
X0371728Y0168308D01*
X0246728Y0168308D01*
X0240478Y0212058D02*
X0238778Y0213758D01*
X0238778Y0220808D01*
X0236878Y0220808D02*
X0236878Y0217792D01*
X0235887Y0216801D01*
X0235846Y0216801D01*
X0231103Y0212058D01*
X0226978Y0209933D02*
X0226978Y0220808D01*
X0237353Y0227683D02*
X0240778Y0224858D01*
X0240778Y0220808D01*
X0242778Y0220808D02*
X0250278Y0213308D01*
X0265478Y0213308D01*
X0265478Y0230808D02*
X0296906Y0230808D01*
X0297031Y0230683D01*
X0319728Y0230683D01*
X0319853Y0230808D01*
X0319853Y0249558D02*
X0319728Y0249683D01*
X0296728Y0249683D01*
X0296603Y0249558D01*
X0271728Y0249558D01*
X0260578Y0238408D01*
X0250478Y0238408D01*
X0250478Y0240308D02*
X0256228Y0240308D01*
X0271728Y0255808D01*
X0346903Y0255808D01*
X0347203Y0255508D01*
X0353278Y0255508D01*
X0362353Y0246433D01*
X0377978Y0246433D01*
X0347203Y0255508D02*
X0347203Y0256283D01*
X0321950Y0274558D02*
X0337353Y0289962D01*
X0337353Y0296655D02*
X0338200Y0296655D01*
X0354228Y0312683D01*
X0355478Y0333933D02*
X0337353Y0333933D01*
X0339228Y0335808D01*
X0339228Y0342683D01*
X0339228Y0350808D01*
X0337353Y0352683D01*
X0318603Y0352683D01*
X0309228Y0362058D01*
X0299228Y0362058D01*
X0290478Y0370808D01*
X0290478Y0372000D01*
X0292085Y0366701D02*
X0285777Y0366701D01*
X0283371Y0369107D01*
X0283371Y0382509D01*
X0290478Y0389616D01*
X0290478Y0390808D01*
X0290478Y0405587D01*
X0306103Y0405587D02*
X0306103Y0390808D01*
X0306103Y0389616D01*
X0298996Y0382509D01*
X0298996Y0369107D01*
X0301402Y0366701D01*
X0310835Y0366701D01*
X0321728Y0355808D01*
X0349853Y0355808D01*
X0352978Y0352683D01*
X0352978Y0343933D01*
X0354228Y0342683D01*
X0355478Y0333933D02*
X0364228Y0342683D01*
X0365478Y0343933D01*
X0365478Y0346433D01*
X0352978Y0358933D01*
X0321728Y0358933D01*
X0309853Y0370808D01*
X0306103Y0370808D01*
X0306103Y0371433D01*
X0309228Y0358933D02*
X0299853Y0358933D01*
X0292085Y0366701D01*
X0293603Y0362058D02*
X0283839Y0362058D01*
X0275089Y0370808D01*
X0274853Y0370808D01*
X0274853Y0372000D01*
X0275089Y0370808D02*
X0275478Y0370808D01*
X0267746Y0369107D02*
X0277920Y0358933D01*
X0293603Y0358933D01*
X0304228Y0348308D01*
X0304228Y0342683D01*
X0314228Y0342683D02*
X0314228Y0350808D01*
X0309228Y0355808D01*
X0299853Y0355808D01*
X0293603Y0362058D01*
X0287353Y0355808D02*
X0277978Y0355808D01*
X0265478Y0368308D01*
X0261728Y0368308D01*
X0259228Y0370808D01*
X0259228Y0372000D01*
X0254585Y0366701D02*
X0256103Y0365183D01*
X0265478Y0365183D01*
X0277978Y0352683D01*
X0277978Y0343933D01*
X0279228Y0342683D01*
X0287353Y0333933D02*
X0287730Y0333933D01*
X0289228Y0335431D01*
X0289228Y0342683D01*
X0289228Y0353933D01*
X0287353Y0355808D01*
X0289228Y0347683D02*
X0289228Y0342683D01*
X0287730Y0333933D02*
X0312353Y0333933D01*
X0312721Y0333933D01*
X0314228Y0335440D01*
X0314228Y0342683D01*
X0312721Y0333933D02*
X0337353Y0333933D01*
X0339228Y0342683D02*
X0339228Y0344558D01*
X0329228Y0342683D02*
X0327978Y0343933D01*
X0327978Y0346433D01*
X0324853Y0349558D01*
X0318603Y0349558D01*
X0309228Y0358933D01*
X0287353Y0333933D02*
X0262353Y0333933D01*
X0262096Y0333933D01*
X0264228Y0336066D01*
X0264228Y0342683D01*
X0264228Y0360183D01*
X0262353Y0362058D01*
X0256103Y0362058D01*
X0249853Y0368308D01*
X0246103Y0368308D01*
X0243603Y0370808D01*
X0243603Y0372000D01*
X0252121Y0369107D02*
X0252121Y0382509D01*
X0259228Y0389616D01*
X0259228Y0390808D01*
X0259228Y0405587D01*
X0243603Y0405587D02*
X0243603Y0390119D01*
X0243603Y0389616D01*
X0236496Y0382509D01*
X0236496Y0369107D01*
X0240420Y0365183D01*
X0249853Y0365183D01*
X0254228Y0360808D01*
X0254228Y0342683D01*
X0264228Y0342683D02*
X0264228Y0350183D01*
X0262096Y0333933D02*
X0237353Y0333933D01*
X0237164Y0333933D01*
X0239228Y0335998D01*
X0239228Y0342683D01*
X0239228Y0363308D01*
X0234228Y0368308D01*
X0230478Y0368308D01*
X0227978Y0370808D01*
X0227978Y0372000D01*
X0220871Y0369107D02*
X0220871Y0382509D01*
X0227978Y0389616D01*
X0227978Y0390808D01*
X0227978Y0405587D01*
X0212353Y0405587D02*
X0212353Y0390808D01*
X0212353Y0389616D01*
X0205246Y0382509D01*
X0205246Y0343701D01*
X0204228Y0342683D01*
X0214228Y0342683D02*
X0214228Y0335462D01*
X0212700Y0333933D01*
X0237164Y0333933D01*
X0229228Y0342683D02*
X0229228Y0360750D01*
X0220871Y0369107D01*
X0214228Y0368933D02*
X0214160Y0369002D01*
X0212353Y0370808D01*
X0212353Y0372000D01*
X0214228Y0368933D02*
X0214228Y0342683D01*
X0212700Y0333933D02*
X0212353Y0333933D01*
X0229228Y0312683D02*
X0227978Y0311433D01*
X0227978Y0287280D01*
X0227978Y0280587D02*
X0227978Y0274558D01*
X0230978Y0271558D01*
X0230978Y0265808D01*
X0232878Y0265808D02*
X0232878Y0270083D01*
X0237353Y0274558D01*
X0237353Y0280587D01*
X0237353Y0287280D02*
X0237353Y0295808D01*
X0254228Y0312683D01*
X0249853Y0299558D02*
X0266103Y0299558D01*
X0279228Y0312683D01*
X0287978Y0296433D02*
X0262353Y0296433D01*
X0256103Y0290183D01*
X0256103Y0287280D01*
X0256103Y0280587D02*
X0250478Y0274962D01*
X0250478Y0258108D01*
X0250478Y0256108D02*
X0253494Y0256108D01*
X0253811Y0256451D01*
X0253837Y0256451D01*
X0254485Y0257100D01*
X0254485Y0257181D01*
X0256103Y0258933D01*
X0256103Y0271433D01*
X0259228Y0274558D01*
X0259228Y0280808D01*
X0262353Y0283933D01*
X0318825Y0283933D01*
X0324853Y0289962D01*
X0324853Y0296655D02*
X0324853Y0308308D01*
X0329228Y0312683D01*
X0304228Y0312683D02*
X0287978Y0296433D01*
X0262353Y0274558D02*
X0321950Y0274558D01*
X0297031Y0230683D02*
X0296728Y0230683D01*
X0265478Y0230808D02*
X0259878Y0236408D01*
X0250478Y0236408D01*
X0250478Y0250208D02*
X0244253Y0250208D01*
X0240478Y0246433D01*
X0243603Y0255808D02*
X0240778Y0258633D01*
X0240778Y0265808D01*
X0238778Y0265808D02*
X0238778Y0260358D01*
X0234228Y0255808D01*
X0242778Y0265808D02*
X0242778Y0267483D01*
X0246728Y0271433D01*
X0246728Y0280587D01*
X0246728Y0287280D02*
X0246728Y0296433D01*
X0249853Y0299558D01*
X0262353Y0274558D02*
X0259228Y0271433D01*
X0259228Y0258933D01*
X0254403Y0254108D01*
X0250478Y0254108D01*
X0250478Y0252208D02*
X0255628Y0252208D01*
X0262353Y0258933D01*
X0262353Y0265183D01*
X0265478Y0268308D01*
X0270478Y0268308D01*
X0271728Y0269558D01*
X0254485Y0257100D02*
X0253494Y0256108D01*
X0205478Y0250208D02*
X0191350Y0250208D01*
X0190700Y0249558D01*
X0143948Y0249558D02*
X0143603Y0249558D01*
X0137353Y0243308D01*
X0181103Y0308933D02*
X0181103Y0310808D01*
X0179228Y0312683D01*
X0189621Y0382509D02*
X0196728Y0389616D01*
X0196728Y0390808D01*
X0196728Y0405587D01*
X0243603Y0390808D02*
X0243603Y0390119D01*
X0252121Y0369107D02*
X0254527Y0366701D01*
X0254585Y0366701D01*
X0267746Y0369107D02*
X0267746Y0382509D01*
X0274192Y0388955D01*
X0274853Y0389616D01*
X0274853Y0405587D01*
X0274853Y0390808D02*
X0274853Y0389616D01*
X0274192Y0388955D01*
X0303603Y0390808D02*
X0306103Y0390808D01*
X0099853Y0412058D02*
X0093259Y0412058D01*
X0093259Y0424558D02*
X0099853Y0424558D01*
X0081448Y0424558D02*
X0071950Y0424558D01*
X0065257Y0424558D02*
X0059228Y0424558D01*
X0043603Y0408933D01*
X0059228Y0412058D02*
X0065257Y0412058D01*
X0071950Y0412058D02*
X0081448Y0412058D01*
X0059228Y0183933D02*
X0074853Y0168308D01*
X0074853Y0155808D01*
X0074478Y0130183D02*
X0087353Y0117308D01*
X0087353Y0093308D01*
X0096728Y0083933D01*
X0146728Y0083933D01*
X0156103Y0074558D01*
X0237353Y0074558D01*
X0247478Y0064433D01*
X0247478Y0046433D01*
X0237353Y0052683D02*
X0237178Y0052683D01*
X0237178Y0060233D01*
X0234057Y0060233D01*
X0233727Y0060144D01*
X0233430Y0059973D01*
X0233188Y0059731D01*
X0233017Y0059435D01*
X0232928Y0059104D01*
X0232928Y0052683D01*
X0232028Y0052683D01*
X0232028Y0059104D01*
X0231940Y0059435D01*
X0231769Y0059731D01*
X0231527Y0059973D01*
X0231230Y0060144D01*
X0230899Y0060233D01*
X0227778Y0060233D01*
X0227778Y0052683D01*
X0227178Y0052683D01*
X0227178Y0060233D01*
X0224057Y0060233D01*
X0223727Y0060144D01*
X0223430Y0059973D01*
X0223188Y0059731D01*
X0223017Y0059435D01*
X0222928Y0059104D01*
X0222928Y0052683D01*
X0222028Y0052683D01*
X0222028Y0059104D01*
X0221940Y0059435D01*
X0221769Y0059731D01*
X0221527Y0059973D01*
X0221230Y0060144D01*
X0220899Y0060233D01*
X0217778Y0060233D01*
X0217778Y0052683D01*
X0217178Y0052683D01*
X0217178Y0060233D01*
X0214057Y0060233D01*
X0213727Y0060144D01*
X0213430Y0059973D01*
X0213188Y0059731D01*
X0213017Y0059435D01*
X0212928Y0059104D01*
X0212928Y0052683D01*
X0212028Y0052683D01*
X0212028Y0059104D01*
X0211940Y0059435D01*
X0211769Y0059731D01*
X0211527Y0059973D01*
X0211230Y0060144D01*
X0210899Y0060233D01*
X0207778Y0060233D01*
X0207778Y0052683D01*
X0207178Y0052683D01*
X0207178Y0060233D01*
X0204057Y0060233D01*
X0203727Y0060144D01*
X0203430Y0059973D01*
X0203188Y0059731D01*
X0203017Y0059435D01*
X0202928Y0059104D01*
X0202928Y0052683D01*
X0202028Y0052683D01*
X0202028Y0059104D01*
X0201940Y0059435D01*
X0201769Y0059731D01*
X0201527Y0059973D01*
X0201230Y0060144D01*
X0200899Y0060233D01*
X0197778Y0060233D01*
X0197778Y0052683D01*
X0197178Y0052683D01*
X0197178Y0060233D01*
X0194057Y0060233D01*
X0193727Y0060144D01*
X0193430Y0059973D01*
X0193188Y0059731D01*
X0193017Y0059435D01*
X0192928Y0059104D01*
X0192928Y0052683D01*
X0192028Y0052683D01*
X0192028Y0059104D01*
X0191940Y0059435D01*
X0191769Y0059731D01*
X0191527Y0059973D01*
X0191230Y0060144D01*
X0190899Y0060233D01*
X0187778Y0060233D01*
X0187778Y0052683D01*
X0187178Y0052683D01*
X0187178Y0060233D01*
X0184057Y0060233D01*
X0183727Y0060144D01*
X0183430Y0059973D01*
X0183188Y0059731D01*
X0183017Y0059435D01*
X0182928Y0059104D01*
X0182928Y0052683D01*
X0182028Y0052683D01*
X0182028Y0059104D01*
X0181940Y0059435D01*
X0181769Y0059731D01*
X0181527Y0059973D01*
X0181230Y0060144D01*
X0180899Y0060233D01*
X0177778Y0060233D01*
X0177778Y0052683D01*
X0177178Y0052683D01*
X0177178Y0060233D01*
X0174057Y0060233D01*
X0173727Y0060144D01*
X0173430Y0059973D01*
X0173188Y0059731D01*
X0173017Y0059435D01*
X0172928Y0059104D01*
X0172928Y0052683D01*
X0172028Y0052683D01*
X0172028Y0059104D01*
X0171940Y0059435D01*
X0171769Y0059731D01*
X0171527Y0059973D01*
X0171230Y0060144D01*
X0170899Y0060233D01*
X0167778Y0060233D01*
X0167778Y0052683D01*
X0167178Y0052683D01*
X0167178Y0060233D01*
X0164057Y0060233D01*
X0163727Y0060144D01*
X0163430Y0059973D01*
X0163188Y0059731D01*
X0163017Y0059435D01*
X0162928Y0059104D01*
X0162928Y0052683D01*
X0162028Y0052683D01*
X0162028Y0059104D01*
X0161940Y0059435D01*
X0161769Y0059731D01*
X0161527Y0059973D01*
X0161230Y0060144D01*
X0160899Y0060233D01*
X0157778Y0060233D01*
X0157778Y0052683D01*
X0157178Y0052683D01*
X0157178Y0060233D01*
X0154057Y0060233D01*
X0153727Y0060144D01*
X0153430Y0059973D01*
X0153188Y0059731D01*
X0153017Y0059435D01*
X0152928Y0059104D01*
X0152928Y0052683D01*
X0152028Y0052683D01*
X0152028Y0059104D01*
X0151940Y0059435D01*
X0151769Y0059731D01*
X0151527Y0059973D01*
X0151230Y0060144D01*
X0150899Y0060233D01*
X0147778Y0060233D01*
X0147778Y0052683D01*
X0147178Y0052683D01*
X0147178Y0060233D01*
X0146728Y0060233D01*
X0146728Y0068308D01*
X0149853Y0071433D01*
X0234228Y0071433D01*
X0237353Y0068308D01*
X0237353Y0052683D01*
X0237353Y0053085D02*
X0237178Y0053085D01*
X0237178Y0053684D02*
X0237353Y0053684D01*
X0237353Y0054282D02*
X0237178Y0054282D01*
X0237178Y0054881D02*
X0237353Y0054881D01*
X0237353Y0055479D02*
X0237178Y0055479D01*
X0237178Y0056078D02*
X0237353Y0056078D01*
X0237353Y0056677D02*
X0237178Y0056677D01*
X0237178Y0057275D02*
X0237353Y0057275D01*
X0237353Y0057874D02*
X0237178Y0057874D01*
X0237178Y0058472D02*
X0237353Y0058472D01*
X0237353Y0059071D02*
X0237178Y0059071D01*
X0237178Y0059669D02*
X0237353Y0059669D01*
X0237353Y0060268D02*
X0146728Y0060268D01*
X0146728Y0060866D02*
X0237353Y0060866D01*
X0237353Y0061465D02*
X0146728Y0061465D01*
X0146728Y0062063D02*
X0237353Y0062063D01*
X0237353Y0062662D02*
X0146728Y0062662D01*
X0146728Y0063260D02*
X0237353Y0063260D01*
X0237353Y0063859D02*
X0146728Y0063859D01*
X0146728Y0064457D02*
X0237353Y0064457D01*
X0237353Y0065056D02*
X0146728Y0065056D01*
X0146728Y0065654D02*
X0237353Y0065654D01*
X0237353Y0066253D02*
X0146728Y0066253D01*
X0146728Y0066851D02*
X0237353Y0066851D01*
X0237353Y0067450D02*
X0146728Y0067450D01*
X0146728Y0068048D02*
X0237353Y0068048D01*
X0237015Y0068647D02*
X0147067Y0068647D01*
X0147666Y0069245D02*
X0236416Y0069245D01*
X0235818Y0069844D02*
X0148264Y0069844D01*
X0148863Y0070442D02*
X0235219Y0070442D01*
X0234621Y0071041D02*
X0149461Y0071041D01*
X0147778Y0059669D02*
X0147178Y0059669D01*
X0147178Y0059071D02*
X0147778Y0059071D01*
X0147778Y0058472D02*
X0147178Y0058472D01*
X0147178Y0057874D02*
X0147778Y0057874D01*
X0147778Y0057275D02*
X0147178Y0057275D01*
X0147178Y0056677D02*
X0147778Y0056677D01*
X0147778Y0056078D02*
X0147178Y0056078D01*
X0147178Y0055479D02*
X0147778Y0055479D01*
X0147778Y0054881D02*
X0147178Y0054881D01*
X0147178Y0054282D02*
X0147778Y0054282D01*
X0147778Y0053684D02*
X0147178Y0053684D01*
X0147178Y0053085D02*
X0147778Y0053085D01*
X0152028Y0053085D02*
X0152928Y0053085D01*
X0152928Y0053684D02*
X0152028Y0053684D01*
X0152028Y0054282D02*
X0152928Y0054282D01*
X0152928Y0054881D02*
X0152028Y0054881D01*
X0152028Y0055479D02*
X0152928Y0055479D01*
X0152928Y0056078D02*
X0152028Y0056078D01*
X0152028Y0056677D02*
X0152928Y0056677D01*
X0152928Y0057275D02*
X0152028Y0057275D01*
X0152028Y0057874D02*
X0152928Y0057874D01*
X0152928Y0058472D02*
X0152028Y0058472D01*
X0152028Y0059071D02*
X0152928Y0059071D01*
X0153152Y0059669D02*
X0151805Y0059669D01*
X0157178Y0059669D02*
X0157778Y0059669D01*
X0157778Y0059071D02*
X0157178Y0059071D01*
X0157178Y0058472D02*
X0157778Y0058472D01*
X0157778Y0057874D02*
X0157178Y0057874D01*
X0157178Y0057275D02*
X0157778Y0057275D01*
X0157778Y0056677D02*
X0157178Y0056677D01*
X0157178Y0056078D02*
X0157778Y0056078D01*
X0157778Y0055479D02*
X0157178Y0055479D01*
X0157178Y0054881D02*
X0157778Y0054881D01*
X0157778Y0054282D02*
X0157178Y0054282D01*
X0157178Y0053684D02*
X0157778Y0053684D01*
X0157778Y0053085D02*
X0157178Y0053085D01*
X0162028Y0053085D02*
X0162928Y0053085D01*
X0162928Y0053684D02*
X0162028Y0053684D01*
X0162028Y0054282D02*
X0162928Y0054282D01*
X0162928Y0054881D02*
X0162028Y0054881D01*
X0162028Y0055479D02*
X0162928Y0055479D01*
X0162928Y0056078D02*
X0162028Y0056078D01*
X0162028Y0056677D02*
X0162928Y0056677D01*
X0162928Y0057275D02*
X0162028Y0057275D01*
X0162028Y0057874D02*
X0162928Y0057874D01*
X0162928Y0058472D02*
X0162028Y0058472D01*
X0162028Y0059071D02*
X0162928Y0059071D01*
X0163152Y0059669D02*
X0161805Y0059669D01*
X0167178Y0059669D02*
X0167778Y0059669D01*
X0167778Y0059071D02*
X0167178Y0059071D01*
X0167178Y0058472D02*
X0167778Y0058472D01*
X0167778Y0057874D02*
X0167178Y0057874D01*
X0167178Y0057275D02*
X0167778Y0057275D01*
X0167778Y0056677D02*
X0167178Y0056677D01*
X0167178Y0056078D02*
X0167778Y0056078D01*
X0167778Y0055479D02*
X0167178Y0055479D01*
X0167178Y0054881D02*
X0167778Y0054881D01*
X0167778Y0054282D02*
X0167178Y0054282D01*
X0167178Y0053684D02*
X0167778Y0053684D01*
X0167778Y0053085D02*
X0167178Y0053085D01*
X0172028Y0053085D02*
X0172928Y0053085D01*
X0172928Y0053684D02*
X0172028Y0053684D01*
X0172028Y0054282D02*
X0172928Y0054282D01*
X0172928Y0054881D02*
X0172028Y0054881D01*
X0172028Y0055479D02*
X0172928Y0055479D01*
X0172928Y0056078D02*
X0172028Y0056078D01*
X0172028Y0056677D02*
X0172928Y0056677D01*
X0172928Y0057275D02*
X0172028Y0057275D01*
X0172028Y0057874D02*
X0172928Y0057874D01*
X0172928Y0058472D02*
X0172028Y0058472D01*
X0172028Y0059071D02*
X0172928Y0059071D01*
X0173152Y0059669D02*
X0171805Y0059669D01*
X0177178Y0059669D02*
X0177778Y0059669D01*
X0177778Y0059071D02*
X0177178Y0059071D01*
X0177178Y0058472D02*
X0177778Y0058472D01*
X0177778Y0057874D02*
X0177178Y0057874D01*
X0177178Y0057275D02*
X0177778Y0057275D01*
X0177778Y0056677D02*
X0177178Y0056677D01*
X0177178Y0056078D02*
X0177778Y0056078D01*
X0177778Y0055479D02*
X0177178Y0055479D01*
X0177178Y0054881D02*
X0177778Y0054881D01*
X0177778Y0054282D02*
X0177178Y0054282D01*
X0177178Y0053684D02*
X0177778Y0053684D01*
X0177778Y0053085D02*
X0177178Y0053085D01*
X0182028Y0053085D02*
X0182928Y0053085D01*
X0182928Y0053684D02*
X0182028Y0053684D01*
X0182028Y0054282D02*
X0182928Y0054282D01*
X0182928Y0054881D02*
X0182028Y0054881D01*
X0182028Y0055479D02*
X0182928Y0055479D01*
X0182928Y0056078D02*
X0182028Y0056078D01*
X0182028Y0056677D02*
X0182928Y0056677D01*
X0182928Y0057275D02*
X0182028Y0057275D01*
X0182028Y0057874D02*
X0182928Y0057874D01*
X0182928Y0058472D02*
X0182028Y0058472D01*
X0182028Y0059071D02*
X0182928Y0059071D01*
X0183152Y0059669D02*
X0181805Y0059669D01*
X0187178Y0059669D02*
X0187778Y0059669D01*
X0187778Y0059071D02*
X0187178Y0059071D01*
X0187178Y0058472D02*
X0187778Y0058472D01*
X0187778Y0057874D02*
X0187178Y0057874D01*
X0187178Y0057275D02*
X0187778Y0057275D01*
X0187778Y0056677D02*
X0187178Y0056677D01*
X0187178Y0056078D02*
X0187778Y0056078D01*
X0187778Y0055479D02*
X0187178Y0055479D01*
X0187178Y0054881D02*
X0187778Y0054881D01*
X0187778Y0054282D02*
X0187178Y0054282D01*
X0187178Y0053684D02*
X0187778Y0053684D01*
X0187778Y0053085D02*
X0187178Y0053085D01*
X0192028Y0053085D02*
X0192928Y0053085D01*
X0192928Y0053684D02*
X0192028Y0053684D01*
X0192028Y0054282D02*
X0192928Y0054282D01*
X0192928Y0054881D02*
X0192028Y0054881D01*
X0192028Y0055479D02*
X0192928Y0055479D01*
X0192928Y0056078D02*
X0192028Y0056078D01*
X0192028Y0056677D02*
X0192928Y0056677D01*
X0192928Y0057275D02*
X0192028Y0057275D01*
X0192028Y0057874D02*
X0192928Y0057874D01*
X0192928Y0058472D02*
X0192028Y0058472D01*
X0192028Y0059071D02*
X0192928Y0059071D01*
X0193152Y0059669D02*
X0191805Y0059669D01*
X0197178Y0059669D02*
X0197778Y0059669D01*
X0197778Y0059071D02*
X0197178Y0059071D01*
X0197178Y0058472D02*
X0197778Y0058472D01*
X0197778Y0057874D02*
X0197178Y0057874D01*
X0197178Y0057275D02*
X0197778Y0057275D01*
X0197778Y0056677D02*
X0197178Y0056677D01*
X0197178Y0056078D02*
X0197778Y0056078D01*
X0197778Y0055479D02*
X0197178Y0055479D01*
X0197178Y0054881D02*
X0197778Y0054881D01*
X0197778Y0054282D02*
X0197178Y0054282D01*
X0197178Y0053684D02*
X0197778Y0053684D01*
X0197778Y0053085D02*
X0197178Y0053085D01*
X0202028Y0053085D02*
X0202928Y0053085D01*
X0202928Y0053684D02*
X0202028Y0053684D01*
X0202028Y0054282D02*
X0202928Y0054282D01*
X0202928Y0054881D02*
X0202028Y0054881D01*
X0202028Y0055479D02*
X0202928Y0055479D01*
X0202928Y0056078D02*
X0202028Y0056078D01*
X0202028Y0056677D02*
X0202928Y0056677D01*
X0202928Y0057275D02*
X0202028Y0057275D01*
X0202028Y0057874D02*
X0202928Y0057874D01*
X0202928Y0058472D02*
X0202028Y0058472D01*
X0202028Y0059071D02*
X0202928Y0059071D01*
X0203152Y0059669D02*
X0201805Y0059669D01*
X0207178Y0059669D02*
X0207778Y0059669D01*
X0207778Y0059071D02*
X0207178Y0059071D01*
X0207178Y0058472D02*
X0207778Y0058472D01*
X0207778Y0057874D02*
X0207178Y0057874D01*
X0207178Y0057275D02*
X0207778Y0057275D01*
X0207778Y0056677D02*
X0207178Y0056677D01*
X0207178Y0056078D02*
X0207778Y0056078D01*
X0207778Y0055479D02*
X0207178Y0055479D01*
X0207178Y0054881D02*
X0207778Y0054881D01*
X0207778Y0054282D02*
X0207178Y0054282D01*
X0207178Y0053684D02*
X0207778Y0053684D01*
X0207778Y0053085D02*
X0207178Y0053085D01*
X0212028Y0053085D02*
X0212928Y0053085D01*
X0212928Y0053684D02*
X0212028Y0053684D01*
X0212028Y0054282D02*
X0212928Y0054282D01*
X0212928Y0054881D02*
X0212028Y0054881D01*
X0212028Y0055479D02*
X0212928Y0055479D01*
X0212928Y0056078D02*
X0212028Y0056078D01*
X0212028Y0056677D02*
X0212928Y0056677D01*
X0212928Y0057275D02*
X0212028Y0057275D01*
X0212028Y0057874D02*
X0212928Y0057874D01*
X0212928Y0058472D02*
X0212028Y0058472D01*
X0212028Y0059071D02*
X0212928Y0059071D01*
X0213152Y0059669D02*
X0211805Y0059669D01*
X0217178Y0059669D02*
X0217778Y0059669D01*
X0217778Y0059071D02*
X0217178Y0059071D01*
X0217178Y0058472D02*
X0217778Y0058472D01*
X0217778Y0057874D02*
X0217178Y0057874D01*
X0217178Y0057275D02*
X0217778Y0057275D01*
X0217778Y0056677D02*
X0217178Y0056677D01*
X0217178Y0056078D02*
X0217778Y0056078D01*
X0217778Y0055479D02*
X0217178Y0055479D01*
X0217178Y0054881D02*
X0217778Y0054881D01*
X0217778Y0054282D02*
X0217178Y0054282D01*
X0217178Y0053684D02*
X0217778Y0053684D01*
X0217778Y0053085D02*
X0217178Y0053085D01*
X0222028Y0053085D02*
X0222928Y0053085D01*
X0222928Y0053684D02*
X0222028Y0053684D01*
X0222028Y0054282D02*
X0222928Y0054282D01*
X0222928Y0054881D02*
X0222028Y0054881D01*
X0222028Y0055479D02*
X0222928Y0055479D01*
X0222928Y0056078D02*
X0222028Y0056078D01*
X0222028Y0056677D02*
X0222928Y0056677D01*
X0222928Y0057275D02*
X0222028Y0057275D01*
X0222028Y0057874D02*
X0222928Y0057874D01*
X0222928Y0058472D02*
X0222028Y0058472D01*
X0222028Y0059071D02*
X0222928Y0059071D01*
X0223152Y0059669D02*
X0221805Y0059669D01*
X0227178Y0059669D02*
X0227778Y0059669D01*
X0227778Y0059071D02*
X0227178Y0059071D01*
X0227178Y0058472D02*
X0227778Y0058472D01*
X0227778Y0057874D02*
X0227178Y0057874D01*
X0227178Y0057275D02*
X0227778Y0057275D01*
X0227778Y0056677D02*
X0227178Y0056677D01*
X0227178Y0056078D02*
X0227778Y0056078D01*
X0227778Y0055479D02*
X0227178Y0055479D01*
X0227178Y0054881D02*
X0227778Y0054881D01*
X0227778Y0054282D02*
X0227178Y0054282D01*
X0227178Y0053684D02*
X0227778Y0053684D01*
X0227778Y0053085D02*
X0227178Y0053085D01*
X0232028Y0053085D02*
X0232928Y0053085D01*
X0232928Y0053684D02*
X0232028Y0053684D01*
X0232028Y0054282D02*
X0232928Y0054282D01*
X0232928Y0054881D02*
X0232028Y0054881D01*
X0232028Y0055479D02*
X0232928Y0055479D01*
X0232928Y0056078D02*
X0232028Y0056078D01*
X0232028Y0056677D02*
X0232928Y0056677D01*
X0232928Y0057275D02*
X0232028Y0057275D01*
X0232028Y0057874D02*
X0232928Y0057874D01*
X0232928Y0058472D02*
X0232028Y0058472D01*
X0232028Y0059071D02*
X0232928Y0059071D01*
X0233152Y0059669D02*
X0231805Y0059669D01*
X0090478Y0065183D02*
X0087353Y0062058D01*
X0087478Y0046433D01*
X0391979Y0093146D02*
X0396566Y0093146D01*
X0399853Y0096433D01*
X0399853Y0121433D01*
X0390478Y0130808D01*
X0390478Y0171433D01*
D11*
X0402803Y0421433D02*
X0402805Y0421593D01*
X0402811Y0421753D01*
X0402821Y0421913D01*
X0402835Y0422073D01*
X0402853Y0422232D01*
X0402875Y0422391D01*
X0402901Y0422549D01*
X0402930Y0422706D01*
X0402964Y0422863D01*
X0403002Y0423018D01*
X0403043Y0423173D01*
X0403088Y0423327D01*
X0403138Y0423479D01*
X0403190Y0423630D01*
X0403247Y0423780D01*
X0403308Y0423929D01*
X0403372Y0424076D01*
X0403439Y0424221D01*
X0403511Y0424364D01*
X0403585Y0424506D01*
X0403664Y0424646D01*
X0403746Y0424783D01*
X0403831Y0424919D01*
X0403919Y0425052D01*
X0404011Y0425184D01*
X0404106Y0425312D01*
X0404205Y0425439D01*
X0404306Y0425563D01*
X0404411Y0425684D01*
X0404518Y0425803D01*
X0404629Y0425919D01*
X0404742Y0426032D01*
X0404858Y0426143D01*
X0404977Y0426250D01*
X0405098Y0426355D01*
X0405222Y0426456D01*
X0405349Y0426555D01*
X0405477Y0426650D01*
X0405609Y0426742D01*
X0405742Y0426830D01*
X0405878Y0426915D01*
X0406016Y0426997D01*
X0406155Y0427076D01*
X0406297Y0427150D01*
X0406440Y0427222D01*
X0406585Y0427289D01*
X0406732Y0427353D01*
X0406881Y0427414D01*
X0407031Y0427471D01*
X0407182Y0427523D01*
X0407334Y0427573D01*
X0407488Y0427618D01*
X0407643Y0427659D01*
X0407798Y0427697D01*
X0407955Y0427731D01*
X0408112Y0427760D01*
X0408270Y0427786D01*
X0408429Y0427808D01*
X0408588Y0427826D01*
X0408748Y0427840D01*
X0408908Y0427850D01*
X0409068Y0427856D01*
X0409228Y0427858D01*
X0409388Y0427856D01*
X0409548Y0427850D01*
X0409708Y0427840D01*
X0409868Y0427826D01*
X0410027Y0427808D01*
X0410186Y0427786D01*
X0410344Y0427760D01*
X0410501Y0427731D01*
X0410658Y0427697D01*
X0410813Y0427659D01*
X0410968Y0427618D01*
X0411122Y0427573D01*
X0411274Y0427523D01*
X0411425Y0427471D01*
X0411575Y0427414D01*
X0411724Y0427353D01*
X0411871Y0427289D01*
X0412016Y0427222D01*
X0412159Y0427150D01*
X0412301Y0427076D01*
X0412441Y0426997D01*
X0412578Y0426915D01*
X0412714Y0426830D01*
X0412847Y0426742D01*
X0412979Y0426650D01*
X0413107Y0426555D01*
X0413234Y0426456D01*
X0413358Y0426355D01*
X0413479Y0426250D01*
X0413598Y0426143D01*
X0413714Y0426032D01*
X0413827Y0425919D01*
X0413938Y0425803D01*
X0414045Y0425684D01*
X0414150Y0425563D01*
X0414251Y0425439D01*
X0414350Y0425312D01*
X0414445Y0425184D01*
X0414537Y0425052D01*
X0414625Y0424919D01*
X0414710Y0424783D01*
X0414792Y0424645D01*
X0414871Y0424506D01*
X0414945Y0424364D01*
X0415017Y0424221D01*
X0415084Y0424076D01*
X0415148Y0423929D01*
X0415209Y0423780D01*
X0415266Y0423630D01*
X0415318Y0423479D01*
X0415368Y0423327D01*
X0415413Y0423173D01*
X0415454Y0423018D01*
X0415492Y0422863D01*
X0415526Y0422706D01*
X0415555Y0422549D01*
X0415581Y0422391D01*
X0415603Y0422232D01*
X0415621Y0422073D01*
X0415635Y0421913D01*
X0415645Y0421753D01*
X0415651Y0421593D01*
X0415653Y0421433D01*
X0415651Y0421273D01*
X0415645Y0421113D01*
X0415635Y0420953D01*
X0415621Y0420793D01*
X0415603Y0420634D01*
X0415581Y0420475D01*
X0415555Y0420317D01*
X0415526Y0420160D01*
X0415492Y0420003D01*
X0415454Y0419848D01*
X0415413Y0419693D01*
X0415368Y0419539D01*
X0415318Y0419387D01*
X0415266Y0419236D01*
X0415209Y0419086D01*
X0415148Y0418937D01*
X0415084Y0418790D01*
X0415017Y0418645D01*
X0414945Y0418502D01*
X0414871Y0418360D01*
X0414792Y0418220D01*
X0414710Y0418083D01*
X0414625Y0417947D01*
X0414537Y0417814D01*
X0414445Y0417682D01*
X0414350Y0417554D01*
X0414251Y0417427D01*
X0414150Y0417303D01*
X0414045Y0417182D01*
X0413938Y0417063D01*
X0413827Y0416947D01*
X0413714Y0416834D01*
X0413598Y0416723D01*
X0413479Y0416616D01*
X0413358Y0416511D01*
X0413234Y0416410D01*
X0413107Y0416311D01*
X0412979Y0416216D01*
X0412847Y0416124D01*
X0412714Y0416036D01*
X0412578Y0415951D01*
X0412440Y0415869D01*
X0412301Y0415790D01*
X0412159Y0415716D01*
X0412016Y0415644D01*
X0411871Y0415577D01*
X0411724Y0415513D01*
X0411575Y0415452D01*
X0411425Y0415395D01*
X0411274Y0415343D01*
X0411122Y0415293D01*
X0410968Y0415248D01*
X0410813Y0415207D01*
X0410658Y0415169D01*
X0410501Y0415135D01*
X0410344Y0415106D01*
X0410186Y0415080D01*
X0410027Y0415058D01*
X0409868Y0415040D01*
X0409708Y0415026D01*
X0409548Y0415016D01*
X0409388Y0415010D01*
X0409228Y0415008D01*
X0409068Y0415010D01*
X0408908Y0415016D01*
X0408748Y0415026D01*
X0408588Y0415040D01*
X0408429Y0415058D01*
X0408270Y0415080D01*
X0408112Y0415106D01*
X0407955Y0415135D01*
X0407798Y0415169D01*
X0407643Y0415207D01*
X0407488Y0415248D01*
X0407334Y0415293D01*
X0407182Y0415343D01*
X0407031Y0415395D01*
X0406881Y0415452D01*
X0406732Y0415513D01*
X0406585Y0415577D01*
X0406440Y0415644D01*
X0406297Y0415716D01*
X0406155Y0415790D01*
X0406015Y0415869D01*
X0405878Y0415951D01*
X0405742Y0416036D01*
X0405609Y0416124D01*
X0405477Y0416216D01*
X0405349Y0416311D01*
X0405222Y0416410D01*
X0405098Y0416511D01*
X0404977Y0416616D01*
X0404858Y0416723D01*
X0404742Y0416834D01*
X0404629Y0416947D01*
X0404518Y0417063D01*
X0404411Y0417182D01*
X0404306Y0417303D01*
X0404205Y0417427D01*
X0404106Y0417554D01*
X0404011Y0417682D01*
X0403919Y0417814D01*
X0403831Y0417947D01*
X0403746Y0418083D01*
X0403664Y0418221D01*
X0403585Y0418360D01*
X0403511Y0418502D01*
X0403439Y0418645D01*
X0403372Y0418790D01*
X0403308Y0418937D01*
X0403247Y0419086D01*
X0403190Y0419236D01*
X0403138Y0419387D01*
X0403088Y0419539D01*
X0403043Y0419693D01*
X0403002Y0419848D01*
X0402964Y0420003D01*
X0402930Y0420160D01*
X0402901Y0420317D01*
X0402875Y0420475D01*
X0402853Y0420634D01*
X0402835Y0420793D01*
X0402821Y0420953D01*
X0402811Y0421113D01*
X0402805Y0421273D01*
X0402803Y0421433D01*
X0072072Y0255808D02*
X0072074Y0255961D01*
X0072080Y0256115D01*
X0072090Y0256268D01*
X0072104Y0256420D01*
X0072122Y0256573D01*
X0072144Y0256724D01*
X0072169Y0256875D01*
X0072199Y0257026D01*
X0072233Y0257176D01*
X0072270Y0257324D01*
X0072311Y0257472D01*
X0072356Y0257618D01*
X0072405Y0257764D01*
X0072458Y0257908D01*
X0072514Y0258050D01*
X0072574Y0258191D01*
X0072638Y0258331D01*
X0072705Y0258469D01*
X0072776Y0258605D01*
X0072851Y0258739D01*
X0072928Y0258871D01*
X0073010Y0259001D01*
X0073094Y0259129D01*
X0073182Y0259255D01*
X0073273Y0259378D01*
X0073367Y0259499D01*
X0073465Y0259617D01*
X0073565Y0259733D01*
X0073669Y0259846D01*
X0073775Y0259957D01*
X0073884Y0260065D01*
X0073996Y0260170D01*
X0074110Y0260271D01*
X0074228Y0260370D01*
X0074347Y0260466D01*
X0074469Y0260559D01*
X0074594Y0260648D01*
X0074721Y0260735D01*
X0074850Y0260817D01*
X0074981Y0260897D01*
X0075114Y0260973D01*
X0075249Y0261046D01*
X0075386Y0261115D01*
X0075525Y0261180D01*
X0075665Y0261242D01*
X0075807Y0261300D01*
X0075950Y0261355D01*
X0076095Y0261406D01*
X0076241Y0261453D01*
X0076388Y0261496D01*
X0076536Y0261535D01*
X0076685Y0261571D01*
X0076835Y0261602D01*
X0076986Y0261630D01*
X0077137Y0261654D01*
X0077290Y0261674D01*
X0077442Y0261690D01*
X0077595Y0261702D01*
X0077748Y0261710D01*
X0077901Y0261714D01*
X0078055Y0261714D01*
X0078208Y0261710D01*
X0078361Y0261702D01*
X0078514Y0261690D01*
X0078666Y0261674D01*
X0078819Y0261654D01*
X0078970Y0261630D01*
X0079121Y0261602D01*
X0079271Y0261571D01*
X0079420Y0261535D01*
X0079568Y0261496D01*
X0079715Y0261453D01*
X0079861Y0261406D01*
X0080006Y0261355D01*
X0080149Y0261300D01*
X0080291Y0261242D01*
X0080431Y0261180D01*
X0080570Y0261115D01*
X0080707Y0261046D01*
X0080842Y0260973D01*
X0080975Y0260897D01*
X0081106Y0260817D01*
X0081235Y0260735D01*
X0081362Y0260648D01*
X0081487Y0260559D01*
X0081609Y0260466D01*
X0081728Y0260370D01*
X0081846Y0260271D01*
X0081960Y0260170D01*
X0082072Y0260065D01*
X0082181Y0259957D01*
X0082287Y0259846D01*
X0082391Y0259733D01*
X0082491Y0259617D01*
X0082589Y0259499D01*
X0082683Y0259378D01*
X0082774Y0259255D01*
X0082862Y0259129D01*
X0082946Y0259001D01*
X0083028Y0258871D01*
X0083105Y0258739D01*
X0083180Y0258605D01*
X0083251Y0258469D01*
X0083318Y0258331D01*
X0083382Y0258191D01*
X0083442Y0258050D01*
X0083498Y0257908D01*
X0083551Y0257764D01*
X0083600Y0257618D01*
X0083645Y0257472D01*
X0083686Y0257324D01*
X0083723Y0257176D01*
X0083757Y0257026D01*
X0083787Y0256875D01*
X0083812Y0256724D01*
X0083834Y0256573D01*
X0083852Y0256420D01*
X0083866Y0256268D01*
X0083876Y0256115D01*
X0083882Y0255961D01*
X0083884Y0255808D01*
X0083882Y0255655D01*
X0083876Y0255501D01*
X0083866Y0255348D01*
X0083852Y0255196D01*
X0083834Y0255043D01*
X0083812Y0254892D01*
X0083787Y0254741D01*
X0083757Y0254590D01*
X0083723Y0254440D01*
X0083686Y0254292D01*
X0083645Y0254144D01*
X0083600Y0253998D01*
X0083551Y0253852D01*
X0083498Y0253708D01*
X0083442Y0253566D01*
X0083382Y0253425D01*
X0083318Y0253285D01*
X0083251Y0253147D01*
X0083180Y0253011D01*
X0083105Y0252877D01*
X0083028Y0252745D01*
X0082946Y0252615D01*
X0082862Y0252487D01*
X0082774Y0252361D01*
X0082683Y0252238D01*
X0082589Y0252117D01*
X0082491Y0251999D01*
X0082391Y0251883D01*
X0082287Y0251770D01*
X0082181Y0251659D01*
X0082072Y0251551D01*
X0081960Y0251446D01*
X0081846Y0251345D01*
X0081728Y0251246D01*
X0081609Y0251150D01*
X0081487Y0251057D01*
X0081362Y0250968D01*
X0081235Y0250881D01*
X0081106Y0250799D01*
X0080975Y0250719D01*
X0080842Y0250643D01*
X0080707Y0250570D01*
X0080570Y0250501D01*
X0080431Y0250436D01*
X0080291Y0250374D01*
X0080149Y0250316D01*
X0080006Y0250261D01*
X0079861Y0250210D01*
X0079715Y0250163D01*
X0079568Y0250120D01*
X0079420Y0250081D01*
X0079271Y0250045D01*
X0079121Y0250014D01*
X0078970Y0249986D01*
X0078819Y0249962D01*
X0078666Y0249942D01*
X0078514Y0249926D01*
X0078361Y0249914D01*
X0078208Y0249906D01*
X0078055Y0249902D01*
X0077901Y0249902D01*
X0077748Y0249906D01*
X0077595Y0249914D01*
X0077442Y0249926D01*
X0077290Y0249942D01*
X0077137Y0249962D01*
X0076986Y0249986D01*
X0076835Y0250014D01*
X0076685Y0250045D01*
X0076536Y0250081D01*
X0076388Y0250120D01*
X0076241Y0250163D01*
X0076095Y0250210D01*
X0075950Y0250261D01*
X0075807Y0250316D01*
X0075665Y0250374D01*
X0075525Y0250436D01*
X0075386Y0250501D01*
X0075249Y0250570D01*
X0075114Y0250643D01*
X0074981Y0250719D01*
X0074850Y0250799D01*
X0074721Y0250881D01*
X0074594Y0250968D01*
X0074469Y0251057D01*
X0074347Y0251150D01*
X0074228Y0251246D01*
X0074110Y0251345D01*
X0073996Y0251446D01*
X0073884Y0251551D01*
X0073775Y0251659D01*
X0073669Y0251770D01*
X0073565Y0251883D01*
X0073465Y0251999D01*
X0073367Y0252117D01*
X0073273Y0252238D01*
X0073182Y0252361D01*
X0073094Y0252487D01*
X0073010Y0252615D01*
X0072928Y0252745D01*
X0072851Y0252877D01*
X0072776Y0253011D01*
X0072705Y0253147D01*
X0072638Y0253285D01*
X0072574Y0253425D01*
X0072514Y0253566D01*
X0072458Y0253708D01*
X0072405Y0253852D01*
X0072356Y0253998D01*
X0072311Y0254144D01*
X0072270Y0254292D01*
X0072233Y0254440D01*
X0072199Y0254590D01*
X0072169Y0254741D01*
X0072144Y0254892D01*
X0072122Y0255043D01*
X0072104Y0255196D01*
X0072090Y0255348D01*
X0072080Y0255501D01*
X0072074Y0255655D01*
X0072072Y0255808D01*
X0044956Y0306522D02*
X0044958Y0306606D01*
X0044964Y0306689D01*
X0044974Y0306772D01*
X0044988Y0306855D01*
X0045005Y0306937D01*
X0045027Y0307018D01*
X0045052Y0307097D01*
X0045081Y0307176D01*
X0045114Y0307253D01*
X0045150Y0307328D01*
X0045190Y0307402D01*
X0045233Y0307474D01*
X0045280Y0307543D01*
X0045330Y0307610D01*
X0045383Y0307675D01*
X0045439Y0307737D01*
X0045497Y0307797D01*
X0045559Y0307854D01*
X0045623Y0307907D01*
X0045690Y0307958D01*
X0045759Y0308005D01*
X0045830Y0308050D01*
X0045903Y0308090D01*
X0045978Y0308127D01*
X0046055Y0308161D01*
X0046133Y0308191D01*
X0046212Y0308217D01*
X0046293Y0308240D01*
X0046375Y0308258D01*
X0046457Y0308273D01*
X0046540Y0308284D01*
X0046623Y0308291D01*
X0046707Y0308294D01*
X0046791Y0308293D01*
X0046874Y0308288D01*
X0046958Y0308279D01*
X0047040Y0308266D01*
X0047122Y0308250D01*
X0047203Y0308229D01*
X0047284Y0308205D01*
X0047362Y0308177D01*
X0047440Y0308145D01*
X0047516Y0308109D01*
X0047590Y0308070D01*
X0047662Y0308028D01*
X0047732Y0307982D01*
X0047800Y0307933D01*
X0047865Y0307881D01*
X0047928Y0307826D01*
X0047988Y0307768D01*
X0048046Y0307707D01*
X0048100Y0307643D01*
X0048152Y0307577D01*
X0048200Y0307509D01*
X0048245Y0307438D01*
X0048286Y0307365D01*
X0048325Y0307291D01*
X0048359Y0307215D01*
X0048390Y0307137D01*
X0048417Y0307058D01*
X0048441Y0306977D01*
X0048460Y0306896D01*
X0048476Y0306814D01*
X0048488Y0306731D01*
X0048496Y0306647D01*
X0048500Y0306564D01*
X0048500Y0306480D01*
X0048496Y0306397D01*
X0048488Y0306313D01*
X0048476Y0306230D01*
X0048460Y0306148D01*
X0048441Y0306067D01*
X0048417Y0305986D01*
X0048390Y0305907D01*
X0048359Y0305829D01*
X0048325Y0305753D01*
X0048286Y0305679D01*
X0048245Y0305606D01*
X0048200Y0305535D01*
X0048152Y0305467D01*
X0048100Y0305401D01*
X0048046Y0305337D01*
X0047988Y0305276D01*
X0047928Y0305218D01*
X0047865Y0305163D01*
X0047800Y0305111D01*
X0047732Y0305062D01*
X0047662Y0305016D01*
X0047590Y0304974D01*
X0047516Y0304935D01*
X0047440Y0304899D01*
X0047362Y0304867D01*
X0047284Y0304839D01*
X0047203Y0304815D01*
X0047122Y0304794D01*
X0047040Y0304778D01*
X0046958Y0304765D01*
X0046874Y0304756D01*
X0046791Y0304751D01*
X0046707Y0304750D01*
X0046623Y0304753D01*
X0046540Y0304760D01*
X0046457Y0304771D01*
X0046375Y0304786D01*
X0046293Y0304804D01*
X0046212Y0304827D01*
X0046133Y0304853D01*
X0046055Y0304883D01*
X0045978Y0304917D01*
X0045903Y0304954D01*
X0045830Y0304994D01*
X0045759Y0305039D01*
X0045690Y0305086D01*
X0045623Y0305137D01*
X0045559Y0305190D01*
X0045497Y0305247D01*
X0045439Y0305307D01*
X0045383Y0305369D01*
X0045330Y0305434D01*
X0045280Y0305501D01*
X0045233Y0305570D01*
X0045190Y0305642D01*
X0045150Y0305716D01*
X0045114Y0305791D01*
X0045081Y0305868D01*
X0045052Y0305947D01*
X0045027Y0306026D01*
X0045005Y0306107D01*
X0044988Y0306189D01*
X0044974Y0306272D01*
X0044964Y0306355D01*
X0044958Y0306438D01*
X0044956Y0306522D01*
X0044956Y0323844D02*
X0044958Y0323928D01*
X0044964Y0324011D01*
X0044974Y0324094D01*
X0044988Y0324177D01*
X0045005Y0324259D01*
X0045027Y0324340D01*
X0045052Y0324419D01*
X0045081Y0324498D01*
X0045114Y0324575D01*
X0045150Y0324650D01*
X0045190Y0324724D01*
X0045233Y0324796D01*
X0045280Y0324865D01*
X0045330Y0324932D01*
X0045383Y0324997D01*
X0045439Y0325059D01*
X0045497Y0325119D01*
X0045559Y0325176D01*
X0045623Y0325229D01*
X0045690Y0325280D01*
X0045759Y0325327D01*
X0045830Y0325372D01*
X0045903Y0325412D01*
X0045978Y0325449D01*
X0046055Y0325483D01*
X0046133Y0325513D01*
X0046212Y0325539D01*
X0046293Y0325562D01*
X0046375Y0325580D01*
X0046457Y0325595D01*
X0046540Y0325606D01*
X0046623Y0325613D01*
X0046707Y0325616D01*
X0046791Y0325615D01*
X0046874Y0325610D01*
X0046958Y0325601D01*
X0047040Y0325588D01*
X0047122Y0325572D01*
X0047203Y0325551D01*
X0047284Y0325527D01*
X0047362Y0325499D01*
X0047440Y0325467D01*
X0047516Y0325431D01*
X0047590Y0325392D01*
X0047662Y0325350D01*
X0047732Y0325304D01*
X0047800Y0325255D01*
X0047865Y0325203D01*
X0047928Y0325148D01*
X0047988Y0325090D01*
X0048046Y0325029D01*
X0048100Y0324965D01*
X0048152Y0324899D01*
X0048200Y0324831D01*
X0048245Y0324760D01*
X0048286Y0324687D01*
X0048325Y0324613D01*
X0048359Y0324537D01*
X0048390Y0324459D01*
X0048417Y0324380D01*
X0048441Y0324299D01*
X0048460Y0324218D01*
X0048476Y0324136D01*
X0048488Y0324053D01*
X0048496Y0323969D01*
X0048500Y0323886D01*
X0048500Y0323802D01*
X0048496Y0323719D01*
X0048488Y0323635D01*
X0048476Y0323552D01*
X0048460Y0323470D01*
X0048441Y0323389D01*
X0048417Y0323308D01*
X0048390Y0323229D01*
X0048359Y0323151D01*
X0048325Y0323075D01*
X0048286Y0323001D01*
X0048245Y0322928D01*
X0048200Y0322857D01*
X0048152Y0322789D01*
X0048100Y0322723D01*
X0048046Y0322659D01*
X0047988Y0322598D01*
X0047928Y0322540D01*
X0047865Y0322485D01*
X0047800Y0322433D01*
X0047732Y0322384D01*
X0047662Y0322338D01*
X0047590Y0322296D01*
X0047516Y0322257D01*
X0047440Y0322221D01*
X0047362Y0322189D01*
X0047284Y0322161D01*
X0047203Y0322137D01*
X0047122Y0322116D01*
X0047040Y0322100D01*
X0046958Y0322087D01*
X0046874Y0322078D01*
X0046791Y0322073D01*
X0046707Y0322072D01*
X0046623Y0322075D01*
X0046540Y0322082D01*
X0046457Y0322093D01*
X0046375Y0322108D01*
X0046293Y0322126D01*
X0046212Y0322149D01*
X0046133Y0322175D01*
X0046055Y0322205D01*
X0045978Y0322239D01*
X0045903Y0322276D01*
X0045830Y0322316D01*
X0045759Y0322361D01*
X0045690Y0322408D01*
X0045623Y0322459D01*
X0045559Y0322512D01*
X0045497Y0322569D01*
X0045439Y0322629D01*
X0045383Y0322691D01*
X0045330Y0322756D01*
X0045280Y0322823D01*
X0045233Y0322892D01*
X0045190Y0322964D01*
X0045150Y0323038D01*
X0045114Y0323113D01*
X0045081Y0323190D01*
X0045052Y0323269D01*
X0045027Y0323348D01*
X0045005Y0323429D01*
X0044988Y0323511D01*
X0044974Y0323594D01*
X0044964Y0323677D01*
X0044958Y0323760D01*
X0044956Y0323844D01*
X0027803Y0421433D02*
X0027805Y0421593D01*
X0027811Y0421753D01*
X0027821Y0421913D01*
X0027835Y0422073D01*
X0027853Y0422232D01*
X0027875Y0422391D01*
X0027901Y0422549D01*
X0027930Y0422706D01*
X0027964Y0422863D01*
X0028002Y0423018D01*
X0028043Y0423173D01*
X0028088Y0423327D01*
X0028138Y0423479D01*
X0028190Y0423630D01*
X0028247Y0423780D01*
X0028308Y0423929D01*
X0028372Y0424076D01*
X0028439Y0424221D01*
X0028511Y0424364D01*
X0028585Y0424506D01*
X0028664Y0424646D01*
X0028746Y0424783D01*
X0028831Y0424919D01*
X0028919Y0425052D01*
X0029011Y0425184D01*
X0029106Y0425312D01*
X0029205Y0425439D01*
X0029306Y0425563D01*
X0029411Y0425684D01*
X0029518Y0425803D01*
X0029629Y0425919D01*
X0029742Y0426032D01*
X0029858Y0426143D01*
X0029977Y0426250D01*
X0030098Y0426355D01*
X0030222Y0426456D01*
X0030349Y0426555D01*
X0030477Y0426650D01*
X0030609Y0426742D01*
X0030742Y0426830D01*
X0030878Y0426915D01*
X0031016Y0426997D01*
X0031155Y0427076D01*
X0031297Y0427150D01*
X0031440Y0427222D01*
X0031585Y0427289D01*
X0031732Y0427353D01*
X0031881Y0427414D01*
X0032031Y0427471D01*
X0032182Y0427523D01*
X0032334Y0427573D01*
X0032488Y0427618D01*
X0032643Y0427659D01*
X0032798Y0427697D01*
X0032955Y0427731D01*
X0033112Y0427760D01*
X0033270Y0427786D01*
X0033429Y0427808D01*
X0033588Y0427826D01*
X0033748Y0427840D01*
X0033908Y0427850D01*
X0034068Y0427856D01*
X0034228Y0427858D01*
X0034388Y0427856D01*
X0034548Y0427850D01*
X0034708Y0427840D01*
X0034868Y0427826D01*
X0035027Y0427808D01*
X0035186Y0427786D01*
X0035344Y0427760D01*
X0035501Y0427731D01*
X0035658Y0427697D01*
X0035813Y0427659D01*
X0035968Y0427618D01*
X0036122Y0427573D01*
X0036274Y0427523D01*
X0036425Y0427471D01*
X0036575Y0427414D01*
X0036724Y0427353D01*
X0036871Y0427289D01*
X0037016Y0427222D01*
X0037159Y0427150D01*
X0037301Y0427076D01*
X0037441Y0426997D01*
X0037578Y0426915D01*
X0037714Y0426830D01*
X0037847Y0426742D01*
X0037979Y0426650D01*
X0038107Y0426555D01*
X0038234Y0426456D01*
X0038358Y0426355D01*
X0038479Y0426250D01*
X0038598Y0426143D01*
X0038714Y0426032D01*
X0038827Y0425919D01*
X0038938Y0425803D01*
X0039045Y0425684D01*
X0039150Y0425563D01*
X0039251Y0425439D01*
X0039350Y0425312D01*
X0039445Y0425184D01*
X0039537Y0425052D01*
X0039625Y0424919D01*
X0039710Y0424783D01*
X0039792Y0424645D01*
X0039871Y0424506D01*
X0039945Y0424364D01*
X0040017Y0424221D01*
X0040084Y0424076D01*
X0040148Y0423929D01*
X0040209Y0423780D01*
X0040266Y0423630D01*
X0040318Y0423479D01*
X0040368Y0423327D01*
X0040413Y0423173D01*
X0040454Y0423018D01*
X0040492Y0422863D01*
X0040526Y0422706D01*
X0040555Y0422549D01*
X0040581Y0422391D01*
X0040603Y0422232D01*
X0040621Y0422073D01*
X0040635Y0421913D01*
X0040645Y0421753D01*
X0040651Y0421593D01*
X0040653Y0421433D01*
X0040651Y0421273D01*
X0040645Y0421113D01*
X0040635Y0420953D01*
X0040621Y0420793D01*
X0040603Y0420634D01*
X0040581Y0420475D01*
X0040555Y0420317D01*
X0040526Y0420160D01*
X0040492Y0420003D01*
X0040454Y0419848D01*
X0040413Y0419693D01*
X0040368Y0419539D01*
X0040318Y0419387D01*
X0040266Y0419236D01*
X0040209Y0419086D01*
X0040148Y0418937D01*
X0040084Y0418790D01*
X0040017Y0418645D01*
X0039945Y0418502D01*
X0039871Y0418360D01*
X0039792Y0418220D01*
X0039710Y0418083D01*
X0039625Y0417947D01*
X0039537Y0417814D01*
X0039445Y0417682D01*
X0039350Y0417554D01*
X0039251Y0417427D01*
X0039150Y0417303D01*
X0039045Y0417182D01*
X0038938Y0417063D01*
X0038827Y0416947D01*
X0038714Y0416834D01*
X0038598Y0416723D01*
X0038479Y0416616D01*
X0038358Y0416511D01*
X0038234Y0416410D01*
X0038107Y0416311D01*
X0037979Y0416216D01*
X0037847Y0416124D01*
X0037714Y0416036D01*
X0037578Y0415951D01*
X0037440Y0415869D01*
X0037301Y0415790D01*
X0037159Y0415716D01*
X0037016Y0415644D01*
X0036871Y0415577D01*
X0036724Y0415513D01*
X0036575Y0415452D01*
X0036425Y0415395D01*
X0036274Y0415343D01*
X0036122Y0415293D01*
X0035968Y0415248D01*
X0035813Y0415207D01*
X0035658Y0415169D01*
X0035501Y0415135D01*
X0035344Y0415106D01*
X0035186Y0415080D01*
X0035027Y0415058D01*
X0034868Y0415040D01*
X0034708Y0415026D01*
X0034548Y0415016D01*
X0034388Y0415010D01*
X0034228Y0415008D01*
X0034068Y0415010D01*
X0033908Y0415016D01*
X0033748Y0415026D01*
X0033588Y0415040D01*
X0033429Y0415058D01*
X0033270Y0415080D01*
X0033112Y0415106D01*
X0032955Y0415135D01*
X0032798Y0415169D01*
X0032643Y0415207D01*
X0032488Y0415248D01*
X0032334Y0415293D01*
X0032182Y0415343D01*
X0032031Y0415395D01*
X0031881Y0415452D01*
X0031732Y0415513D01*
X0031585Y0415577D01*
X0031440Y0415644D01*
X0031297Y0415716D01*
X0031155Y0415790D01*
X0031015Y0415869D01*
X0030878Y0415951D01*
X0030742Y0416036D01*
X0030609Y0416124D01*
X0030477Y0416216D01*
X0030349Y0416311D01*
X0030222Y0416410D01*
X0030098Y0416511D01*
X0029977Y0416616D01*
X0029858Y0416723D01*
X0029742Y0416834D01*
X0029629Y0416947D01*
X0029518Y0417063D01*
X0029411Y0417182D01*
X0029306Y0417303D01*
X0029205Y0417427D01*
X0029106Y0417554D01*
X0029011Y0417682D01*
X0028919Y0417814D01*
X0028831Y0417947D01*
X0028746Y0418083D01*
X0028664Y0418221D01*
X0028585Y0418360D01*
X0028511Y0418502D01*
X0028439Y0418645D01*
X0028372Y0418790D01*
X0028308Y0418937D01*
X0028247Y0419086D01*
X0028190Y0419236D01*
X0028138Y0419387D01*
X0028088Y0419539D01*
X0028043Y0419693D01*
X0028002Y0419848D01*
X0027964Y0420003D01*
X0027930Y0420160D01*
X0027901Y0420317D01*
X0027875Y0420475D01*
X0027853Y0420634D01*
X0027835Y0420793D01*
X0027821Y0420953D01*
X0027811Y0421113D01*
X0027805Y0421273D01*
X0027803Y0421433D01*
X0033785Y0135683D02*
X0033787Y0135847D01*
X0033793Y0136011D01*
X0033803Y0136175D01*
X0033817Y0136339D01*
X0033835Y0136502D01*
X0033857Y0136665D01*
X0033884Y0136827D01*
X0033914Y0136989D01*
X0033948Y0137149D01*
X0033986Y0137309D01*
X0034027Y0137468D01*
X0034073Y0137626D01*
X0034123Y0137782D01*
X0034176Y0137938D01*
X0034233Y0138092D01*
X0034294Y0138244D01*
X0034359Y0138395D01*
X0034428Y0138545D01*
X0034500Y0138692D01*
X0034575Y0138838D01*
X0034655Y0138982D01*
X0034737Y0139124D01*
X0034823Y0139264D01*
X0034913Y0139401D01*
X0035006Y0139537D01*
X0035102Y0139670D01*
X0035202Y0139801D01*
X0035304Y0139929D01*
X0035410Y0140055D01*
X0035519Y0140178D01*
X0035631Y0140298D01*
X0035745Y0140416D01*
X0035863Y0140530D01*
X0035983Y0140642D01*
X0036106Y0140751D01*
X0036232Y0140857D01*
X0036360Y0140959D01*
X0036491Y0141059D01*
X0036624Y0141155D01*
X0036760Y0141248D01*
X0036897Y0141338D01*
X0037037Y0141424D01*
X0037179Y0141506D01*
X0037323Y0141586D01*
X0037469Y0141661D01*
X0037616Y0141733D01*
X0037766Y0141802D01*
X0037917Y0141867D01*
X0038069Y0141928D01*
X0038223Y0141985D01*
X0038379Y0142038D01*
X0038535Y0142088D01*
X0038693Y0142134D01*
X0038852Y0142175D01*
X0039012Y0142213D01*
X0039172Y0142247D01*
X0039334Y0142277D01*
X0039496Y0142304D01*
X0039659Y0142326D01*
X0039822Y0142344D01*
X0039986Y0142358D01*
X0040150Y0142368D01*
X0040314Y0142374D01*
X0040478Y0142376D01*
X0040642Y0142374D01*
X0040806Y0142368D01*
X0040970Y0142358D01*
X0041134Y0142344D01*
X0041297Y0142326D01*
X0041460Y0142304D01*
X0041622Y0142277D01*
X0041784Y0142247D01*
X0041944Y0142213D01*
X0042104Y0142175D01*
X0042263Y0142134D01*
X0042421Y0142088D01*
X0042577Y0142038D01*
X0042733Y0141985D01*
X0042887Y0141928D01*
X0043039Y0141867D01*
X0043190Y0141802D01*
X0043340Y0141733D01*
X0043487Y0141661D01*
X0043633Y0141586D01*
X0043777Y0141506D01*
X0043919Y0141424D01*
X0044059Y0141338D01*
X0044196Y0141248D01*
X0044332Y0141155D01*
X0044465Y0141059D01*
X0044596Y0140959D01*
X0044724Y0140857D01*
X0044850Y0140751D01*
X0044973Y0140642D01*
X0045093Y0140530D01*
X0045211Y0140416D01*
X0045325Y0140298D01*
X0045437Y0140178D01*
X0045546Y0140055D01*
X0045652Y0139929D01*
X0045754Y0139801D01*
X0045854Y0139670D01*
X0045950Y0139537D01*
X0046043Y0139401D01*
X0046133Y0139264D01*
X0046219Y0139124D01*
X0046301Y0138982D01*
X0046381Y0138838D01*
X0046456Y0138692D01*
X0046528Y0138545D01*
X0046597Y0138395D01*
X0046662Y0138244D01*
X0046723Y0138092D01*
X0046780Y0137938D01*
X0046833Y0137782D01*
X0046883Y0137626D01*
X0046929Y0137468D01*
X0046970Y0137309D01*
X0047008Y0137149D01*
X0047042Y0136989D01*
X0047072Y0136827D01*
X0047099Y0136665D01*
X0047121Y0136502D01*
X0047139Y0136339D01*
X0047153Y0136175D01*
X0047163Y0136011D01*
X0047169Y0135847D01*
X0047171Y0135683D01*
X0047169Y0135519D01*
X0047163Y0135355D01*
X0047153Y0135191D01*
X0047139Y0135027D01*
X0047121Y0134864D01*
X0047099Y0134701D01*
X0047072Y0134539D01*
X0047042Y0134377D01*
X0047008Y0134217D01*
X0046970Y0134057D01*
X0046929Y0133898D01*
X0046883Y0133740D01*
X0046833Y0133584D01*
X0046780Y0133428D01*
X0046723Y0133274D01*
X0046662Y0133122D01*
X0046597Y0132971D01*
X0046528Y0132821D01*
X0046456Y0132674D01*
X0046381Y0132528D01*
X0046301Y0132384D01*
X0046219Y0132242D01*
X0046133Y0132102D01*
X0046043Y0131965D01*
X0045950Y0131829D01*
X0045854Y0131696D01*
X0045754Y0131565D01*
X0045652Y0131437D01*
X0045546Y0131311D01*
X0045437Y0131188D01*
X0045325Y0131068D01*
X0045211Y0130950D01*
X0045093Y0130836D01*
X0044973Y0130724D01*
X0044850Y0130615D01*
X0044724Y0130509D01*
X0044596Y0130407D01*
X0044465Y0130307D01*
X0044332Y0130211D01*
X0044196Y0130118D01*
X0044059Y0130028D01*
X0043919Y0129942D01*
X0043777Y0129860D01*
X0043633Y0129780D01*
X0043487Y0129705D01*
X0043340Y0129633D01*
X0043190Y0129564D01*
X0043039Y0129499D01*
X0042887Y0129438D01*
X0042733Y0129381D01*
X0042577Y0129328D01*
X0042421Y0129278D01*
X0042263Y0129232D01*
X0042104Y0129191D01*
X0041944Y0129153D01*
X0041784Y0129119D01*
X0041622Y0129089D01*
X0041460Y0129062D01*
X0041297Y0129040D01*
X0041134Y0129022D01*
X0040970Y0129008D01*
X0040806Y0128998D01*
X0040642Y0128992D01*
X0040478Y0128990D01*
X0040314Y0128992D01*
X0040150Y0128998D01*
X0039986Y0129008D01*
X0039822Y0129022D01*
X0039659Y0129040D01*
X0039496Y0129062D01*
X0039334Y0129089D01*
X0039172Y0129119D01*
X0039012Y0129153D01*
X0038852Y0129191D01*
X0038693Y0129232D01*
X0038535Y0129278D01*
X0038379Y0129328D01*
X0038223Y0129381D01*
X0038069Y0129438D01*
X0037917Y0129499D01*
X0037766Y0129564D01*
X0037616Y0129633D01*
X0037469Y0129705D01*
X0037323Y0129780D01*
X0037179Y0129860D01*
X0037037Y0129942D01*
X0036897Y0130028D01*
X0036760Y0130118D01*
X0036624Y0130211D01*
X0036491Y0130307D01*
X0036360Y0130407D01*
X0036232Y0130509D01*
X0036106Y0130615D01*
X0035983Y0130724D01*
X0035863Y0130836D01*
X0035745Y0130950D01*
X0035631Y0131068D01*
X0035519Y0131188D01*
X0035410Y0131311D01*
X0035304Y0131437D01*
X0035202Y0131565D01*
X0035102Y0131696D01*
X0035006Y0131829D01*
X0034913Y0131965D01*
X0034823Y0132102D01*
X0034737Y0132242D01*
X0034655Y0132384D01*
X0034575Y0132528D01*
X0034500Y0132674D01*
X0034428Y0132821D01*
X0034359Y0132971D01*
X0034294Y0133122D01*
X0034233Y0133274D01*
X0034176Y0133428D01*
X0034123Y0133584D01*
X0034073Y0133740D01*
X0034027Y0133898D01*
X0033986Y0134057D01*
X0033948Y0134217D01*
X0033914Y0134377D01*
X0033884Y0134539D01*
X0033857Y0134701D01*
X0033835Y0134864D01*
X0033817Y0135027D01*
X0033803Y0135191D01*
X0033793Y0135355D01*
X0033787Y0135519D01*
X0033785Y0135683D01*
X0033785Y0094683D02*
X0033787Y0094847D01*
X0033793Y0095011D01*
X0033803Y0095175D01*
X0033817Y0095339D01*
X0033835Y0095502D01*
X0033857Y0095665D01*
X0033884Y0095827D01*
X0033914Y0095989D01*
X0033948Y0096149D01*
X0033986Y0096309D01*
X0034027Y0096468D01*
X0034073Y0096626D01*
X0034123Y0096782D01*
X0034176Y0096938D01*
X0034233Y0097092D01*
X0034294Y0097244D01*
X0034359Y0097395D01*
X0034428Y0097545D01*
X0034500Y0097692D01*
X0034575Y0097838D01*
X0034655Y0097982D01*
X0034737Y0098124D01*
X0034823Y0098264D01*
X0034913Y0098401D01*
X0035006Y0098537D01*
X0035102Y0098670D01*
X0035202Y0098801D01*
X0035304Y0098929D01*
X0035410Y0099055D01*
X0035519Y0099178D01*
X0035631Y0099298D01*
X0035745Y0099416D01*
X0035863Y0099530D01*
X0035983Y0099642D01*
X0036106Y0099751D01*
X0036232Y0099857D01*
X0036360Y0099959D01*
X0036491Y0100059D01*
X0036624Y0100155D01*
X0036760Y0100248D01*
X0036897Y0100338D01*
X0037037Y0100424D01*
X0037179Y0100506D01*
X0037323Y0100586D01*
X0037469Y0100661D01*
X0037616Y0100733D01*
X0037766Y0100802D01*
X0037917Y0100867D01*
X0038069Y0100928D01*
X0038223Y0100985D01*
X0038379Y0101038D01*
X0038535Y0101088D01*
X0038693Y0101134D01*
X0038852Y0101175D01*
X0039012Y0101213D01*
X0039172Y0101247D01*
X0039334Y0101277D01*
X0039496Y0101304D01*
X0039659Y0101326D01*
X0039822Y0101344D01*
X0039986Y0101358D01*
X0040150Y0101368D01*
X0040314Y0101374D01*
X0040478Y0101376D01*
X0040642Y0101374D01*
X0040806Y0101368D01*
X0040970Y0101358D01*
X0041134Y0101344D01*
X0041297Y0101326D01*
X0041460Y0101304D01*
X0041622Y0101277D01*
X0041784Y0101247D01*
X0041944Y0101213D01*
X0042104Y0101175D01*
X0042263Y0101134D01*
X0042421Y0101088D01*
X0042577Y0101038D01*
X0042733Y0100985D01*
X0042887Y0100928D01*
X0043039Y0100867D01*
X0043190Y0100802D01*
X0043340Y0100733D01*
X0043487Y0100661D01*
X0043633Y0100586D01*
X0043777Y0100506D01*
X0043919Y0100424D01*
X0044059Y0100338D01*
X0044196Y0100248D01*
X0044332Y0100155D01*
X0044465Y0100059D01*
X0044596Y0099959D01*
X0044724Y0099857D01*
X0044850Y0099751D01*
X0044973Y0099642D01*
X0045093Y0099530D01*
X0045211Y0099416D01*
X0045325Y0099298D01*
X0045437Y0099178D01*
X0045546Y0099055D01*
X0045652Y0098929D01*
X0045754Y0098801D01*
X0045854Y0098670D01*
X0045950Y0098537D01*
X0046043Y0098401D01*
X0046133Y0098264D01*
X0046219Y0098124D01*
X0046301Y0097982D01*
X0046381Y0097838D01*
X0046456Y0097692D01*
X0046528Y0097545D01*
X0046597Y0097395D01*
X0046662Y0097244D01*
X0046723Y0097092D01*
X0046780Y0096938D01*
X0046833Y0096782D01*
X0046883Y0096626D01*
X0046929Y0096468D01*
X0046970Y0096309D01*
X0047008Y0096149D01*
X0047042Y0095989D01*
X0047072Y0095827D01*
X0047099Y0095665D01*
X0047121Y0095502D01*
X0047139Y0095339D01*
X0047153Y0095175D01*
X0047163Y0095011D01*
X0047169Y0094847D01*
X0047171Y0094683D01*
X0047169Y0094519D01*
X0047163Y0094355D01*
X0047153Y0094191D01*
X0047139Y0094027D01*
X0047121Y0093864D01*
X0047099Y0093701D01*
X0047072Y0093539D01*
X0047042Y0093377D01*
X0047008Y0093217D01*
X0046970Y0093057D01*
X0046929Y0092898D01*
X0046883Y0092740D01*
X0046833Y0092584D01*
X0046780Y0092428D01*
X0046723Y0092274D01*
X0046662Y0092122D01*
X0046597Y0091971D01*
X0046528Y0091821D01*
X0046456Y0091674D01*
X0046381Y0091528D01*
X0046301Y0091384D01*
X0046219Y0091242D01*
X0046133Y0091102D01*
X0046043Y0090965D01*
X0045950Y0090829D01*
X0045854Y0090696D01*
X0045754Y0090565D01*
X0045652Y0090437D01*
X0045546Y0090311D01*
X0045437Y0090188D01*
X0045325Y0090068D01*
X0045211Y0089950D01*
X0045093Y0089836D01*
X0044973Y0089724D01*
X0044850Y0089615D01*
X0044724Y0089509D01*
X0044596Y0089407D01*
X0044465Y0089307D01*
X0044332Y0089211D01*
X0044196Y0089118D01*
X0044059Y0089028D01*
X0043919Y0088942D01*
X0043777Y0088860D01*
X0043633Y0088780D01*
X0043487Y0088705D01*
X0043340Y0088633D01*
X0043190Y0088564D01*
X0043039Y0088499D01*
X0042887Y0088438D01*
X0042733Y0088381D01*
X0042577Y0088328D01*
X0042421Y0088278D01*
X0042263Y0088232D01*
X0042104Y0088191D01*
X0041944Y0088153D01*
X0041784Y0088119D01*
X0041622Y0088089D01*
X0041460Y0088062D01*
X0041297Y0088040D01*
X0041134Y0088022D01*
X0040970Y0088008D01*
X0040806Y0087998D01*
X0040642Y0087992D01*
X0040478Y0087990D01*
X0040314Y0087992D01*
X0040150Y0087998D01*
X0039986Y0088008D01*
X0039822Y0088022D01*
X0039659Y0088040D01*
X0039496Y0088062D01*
X0039334Y0088089D01*
X0039172Y0088119D01*
X0039012Y0088153D01*
X0038852Y0088191D01*
X0038693Y0088232D01*
X0038535Y0088278D01*
X0038379Y0088328D01*
X0038223Y0088381D01*
X0038069Y0088438D01*
X0037917Y0088499D01*
X0037766Y0088564D01*
X0037616Y0088633D01*
X0037469Y0088705D01*
X0037323Y0088780D01*
X0037179Y0088860D01*
X0037037Y0088942D01*
X0036897Y0089028D01*
X0036760Y0089118D01*
X0036624Y0089211D01*
X0036491Y0089307D01*
X0036360Y0089407D01*
X0036232Y0089509D01*
X0036106Y0089615D01*
X0035983Y0089724D01*
X0035863Y0089836D01*
X0035745Y0089950D01*
X0035631Y0090068D01*
X0035519Y0090188D01*
X0035410Y0090311D01*
X0035304Y0090437D01*
X0035202Y0090565D01*
X0035102Y0090696D01*
X0035006Y0090829D01*
X0034913Y0090965D01*
X0034823Y0091102D01*
X0034737Y0091242D01*
X0034655Y0091384D01*
X0034575Y0091528D01*
X0034500Y0091674D01*
X0034428Y0091821D01*
X0034359Y0091971D01*
X0034294Y0092122D01*
X0034233Y0092274D01*
X0034176Y0092428D01*
X0034123Y0092584D01*
X0034073Y0092740D01*
X0034027Y0092898D01*
X0033986Y0093057D01*
X0033948Y0093217D01*
X0033914Y0093377D01*
X0033884Y0093539D01*
X0033857Y0093701D01*
X0033835Y0093864D01*
X0033817Y0094027D01*
X0033803Y0094191D01*
X0033793Y0094355D01*
X0033787Y0094519D01*
X0033785Y0094683D01*
D12*
X0074478Y0100183D03*
X0074478Y0110183D03*
X0074478Y0120183D03*
X0074478Y0130183D03*
D13*
X0162698Y0243308D03*
X0155759Y0249558D03*
X0143948Y0249558D03*
X0174509Y0243308D03*
X0093259Y0412058D03*
X0093259Y0424558D03*
X0081448Y0424558D03*
X0081448Y0412058D03*
D14*
X0071950Y0412058D03*
X0065257Y0412058D03*
X0065257Y0424558D03*
X0071950Y0424558D03*
X0184007Y0249558D03*
X0184007Y0243308D03*
X0190700Y0243308D03*
X0190700Y0249558D03*
D15*
X0077478Y0063933D02*
X0077478Y0033933D01*
X0367478Y0033933D01*
X0367753Y0033933D02*
X0367753Y0063933D01*
D16*
X0357478Y0046433D03*
X0347478Y0046433D03*
X0337478Y0046433D03*
X0327478Y0046433D03*
X0317478Y0046433D03*
X0307478Y0046433D03*
X0297478Y0046433D03*
X0287478Y0046433D03*
X0277478Y0046433D03*
X0267478Y0046433D03*
X0257478Y0046433D03*
X0247478Y0046433D03*
X0237478Y0046433D03*
X0227478Y0046433D03*
X0217478Y0046433D03*
X0207478Y0046433D03*
X0197478Y0046433D03*
X0187478Y0046433D03*
X0177478Y0046433D03*
X0167478Y0046433D03*
X0157478Y0046433D03*
X0147478Y0046433D03*
X0137478Y0046433D03*
X0127478Y0046433D03*
X0117478Y0046433D03*
X0107478Y0046433D03*
X0097478Y0046433D03*
X0087478Y0046433D03*
D17*
X0046182Y0195065D03*
X0041221Y0195065D03*
X0036182Y0195065D03*
X0031182Y0195065D03*
X0031182Y0216285D03*
X0036182Y0216285D03*
X0041221Y0216285D03*
X0046182Y0216325D03*
D18*
X0034228Y0163933D03*
X0034228Y0153933D03*
X0319853Y0230808D03*
X0329853Y0230808D03*
X0329853Y0249558D03*
X0319853Y0249558D03*
D19*
X0324853Y0289962D03*
X0324853Y0296655D03*
X0337353Y0296655D03*
X0337353Y0289962D03*
X0256103Y0287280D03*
X0256103Y0280587D03*
X0246728Y0280587D03*
X0246728Y0287280D03*
X0237353Y0287280D03*
X0237353Y0280587D03*
X0227978Y0280587D03*
X0227978Y0287280D03*
X0206103Y0293087D03*
X0206103Y0299780D03*
X0196728Y0293530D03*
X0196728Y0286837D03*
X0187353Y0286837D03*
X0187353Y0293530D03*
X0177978Y0293530D03*
X0177978Y0286837D03*
X0181103Y0405587D03*
X0181103Y0412280D03*
X0165478Y0412280D03*
X0165478Y0405587D03*
X0196728Y0405587D03*
X0196728Y0412280D03*
X0212353Y0412280D03*
X0212353Y0405587D03*
X0227978Y0405587D03*
X0227978Y0412280D03*
X0243603Y0412280D03*
X0243603Y0405587D03*
X0259228Y0405587D03*
X0259228Y0412280D03*
X0274853Y0412280D03*
X0274853Y0405587D03*
X0290478Y0405587D03*
X0290478Y0412280D03*
X0306103Y0412280D03*
X0306103Y0405587D03*
X0043603Y0181030D03*
X0043603Y0174337D03*
X0034228Y0174337D03*
X0034228Y0181030D03*
D20*
X0205478Y0228508D03*
X0205478Y0230508D03*
X0205478Y0232508D03*
X0205478Y0234408D03*
X0205478Y0236408D03*
X0205478Y0238408D03*
X0205478Y0240308D03*
X0205478Y0242308D03*
X0205478Y0244308D03*
X0205478Y0246308D03*
X0205478Y0248208D03*
X0205478Y0250208D03*
X0205478Y0252208D03*
X0205478Y0254108D03*
X0205478Y0256108D03*
X0205478Y0258108D03*
X0250478Y0258108D03*
X0250478Y0256108D03*
X0250478Y0254108D03*
X0250478Y0252208D03*
X0250478Y0250208D03*
X0250478Y0248208D03*
X0250478Y0246308D03*
X0250478Y0244308D03*
X0250478Y0242308D03*
X0250478Y0240308D03*
X0250478Y0238408D03*
X0250478Y0236408D03*
X0250478Y0234408D03*
X0250478Y0232508D03*
X0250478Y0230508D03*
X0250478Y0228508D03*
D21*
X0242778Y0220808D03*
X0240778Y0220808D03*
X0238778Y0220808D03*
X0236878Y0220808D03*
X0234878Y0220808D03*
X0232878Y0220808D03*
X0230978Y0220808D03*
X0228978Y0220808D03*
X0226978Y0220808D03*
X0224978Y0220808D03*
X0223078Y0220808D03*
X0221078Y0220808D03*
X0219078Y0220808D03*
X0217178Y0220808D03*
X0215178Y0220808D03*
X0213178Y0220808D03*
X0213178Y0265808D03*
X0215178Y0265808D03*
X0217178Y0265808D03*
X0219078Y0265808D03*
X0221078Y0265808D03*
X0223078Y0265808D03*
X0224978Y0265808D03*
X0226978Y0265808D03*
X0228978Y0265808D03*
X0230978Y0265808D03*
X0232878Y0265808D03*
X0234878Y0265808D03*
X0236878Y0265808D03*
X0238778Y0265808D03*
X0240778Y0265808D03*
X0242778Y0265808D03*
D22*
X0271728Y0269558D03*
X0271728Y0279558D03*
X0284228Y0279558D03*
X0284228Y0269558D03*
X0296728Y0269558D03*
X0296728Y0279558D03*
X0277978Y0223308D03*
X0277978Y0213308D03*
X0265478Y0213308D03*
X0265478Y0223308D03*
X0240478Y0184558D03*
X0224853Y0184558D03*
X0224853Y0164558D03*
X0240478Y0164558D03*
X0202978Y0197683D03*
X0202978Y0207683D03*
X0187353Y0207683D03*
X0187353Y0197683D03*
X0165478Y0278933D03*
X0165478Y0288933D03*
X0149853Y0288933D03*
X0149853Y0278933D03*
D23*
X0162478Y0370808D02*
X0168478Y0370808D01*
X0178103Y0370808D02*
X0184103Y0370808D01*
X0193728Y0370808D02*
X0199728Y0370808D01*
X0209353Y0370808D02*
X0215353Y0370808D01*
X0215353Y0380808D02*
X0209353Y0380808D01*
X0199728Y0380808D02*
X0193728Y0380808D01*
X0184103Y0380808D02*
X0178103Y0380808D01*
X0168478Y0380808D02*
X0162478Y0380808D01*
X0162478Y0390808D02*
X0168478Y0390808D01*
X0178103Y0390808D02*
X0184103Y0390808D01*
X0193728Y0390808D02*
X0199728Y0390808D01*
X0209353Y0390808D02*
X0215353Y0390808D01*
X0224978Y0390808D02*
X0230978Y0390808D01*
X0240603Y0390808D02*
X0246603Y0390808D01*
X0256228Y0390808D02*
X0262228Y0390808D01*
X0271853Y0390808D02*
X0277853Y0390808D01*
X0287478Y0390808D02*
X0293478Y0390808D01*
X0293478Y0380808D02*
X0287478Y0380808D01*
X0277853Y0380808D02*
X0271853Y0380808D01*
X0262228Y0380808D02*
X0256228Y0380808D01*
X0246603Y0380808D02*
X0240603Y0380808D01*
X0230978Y0380808D02*
X0224978Y0380808D01*
X0224978Y0370808D02*
X0230978Y0370808D01*
X0240603Y0370808D02*
X0246603Y0370808D01*
X0256228Y0370808D02*
X0262228Y0370808D01*
X0271853Y0370808D02*
X0277853Y0370808D01*
X0287478Y0370808D02*
X0293478Y0370808D01*
X0303103Y0370808D02*
X0309103Y0370808D01*
X0309103Y0380808D02*
X0303103Y0380808D01*
X0303103Y0390808D02*
X0309103Y0390808D01*
X0347203Y0284108D02*
X0347203Y0278108D01*
X0365003Y0278108D02*
X0365003Y0284108D01*
X0365003Y0258508D02*
X0365003Y0252508D01*
X0347203Y0252508D02*
X0347203Y0258508D01*
D24*
X0109228Y0203815D03*
D25*
X0109228Y0198894D03*
X0109228Y0193972D03*
X0109228Y0189051D03*
D26*
X0397598Y0189623D02*
X0396998Y0189023D01*
X0395589Y0190426D01*
X0395586Y0192413D01*
X0396989Y0193822D01*
X0398976Y0193825D01*
X0400385Y0192422D01*
X0400388Y0190435D01*
X0398985Y0189026D01*
X0396998Y0189023D01*
X0397369Y0189923D01*
X0396489Y0190801D01*
X0396486Y0192042D01*
X0397364Y0192922D01*
X0398605Y0192925D01*
X0399485Y0192047D01*
X0399488Y0190806D01*
X0398610Y0189926D01*
X0397369Y0189923D01*
X0397741Y0190824D01*
X0397388Y0191175D01*
X0397387Y0191670D01*
X0397738Y0192023D01*
X0398233Y0192024D01*
X0398586Y0191673D01*
X0398587Y0191178D01*
X0398236Y0190825D01*
X0397741Y0190824D01*
X0397616Y0179623D02*
X0397016Y0179023D01*
X0395607Y0180426D01*
X0395604Y0182413D01*
X0397007Y0183822D01*
X0398994Y0183825D01*
X0400403Y0182422D01*
X0400406Y0180435D01*
X0399003Y0179026D01*
X0397016Y0179023D01*
X0397387Y0179923D01*
X0396507Y0180801D01*
X0396504Y0182042D01*
X0397382Y0182922D01*
X0398623Y0182925D01*
X0399503Y0182047D01*
X0399506Y0180806D01*
X0398628Y0179926D01*
X0397387Y0179923D01*
X0397759Y0180824D01*
X0397406Y0181175D01*
X0397405Y0181670D01*
X0397756Y0182023D01*
X0398251Y0182024D01*
X0398604Y0181673D01*
X0398605Y0181178D01*
X0398254Y0180825D01*
X0397759Y0180824D01*
X0397633Y0169623D02*
X0397033Y0169023D01*
X0395624Y0170426D01*
X0395621Y0172413D01*
X0397024Y0173822D01*
X0399011Y0173825D01*
X0400420Y0172422D01*
X0400423Y0170435D01*
X0399020Y0169026D01*
X0397033Y0169023D01*
X0397404Y0169923D01*
X0396524Y0170801D01*
X0396521Y0172042D01*
X0397399Y0172922D01*
X0398640Y0172925D01*
X0399520Y0172047D01*
X0399523Y0170806D01*
X0398645Y0169926D01*
X0397404Y0169923D01*
X0397776Y0170824D01*
X0397423Y0171175D01*
X0397422Y0171670D01*
X0397773Y0172023D01*
X0398268Y0172024D01*
X0398621Y0171673D01*
X0398622Y0171178D01*
X0398271Y0170825D01*
X0397776Y0170824D01*
X0397650Y0159623D02*
X0397050Y0159023D01*
X0395641Y0160426D01*
X0395638Y0162413D01*
X0397041Y0163822D01*
X0399028Y0163825D01*
X0400437Y0162422D01*
X0400440Y0160435D01*
X0399037Y0159026D01*
X0397050Y0159023D01*
X0397421Y0159923D01*
X0396541Y0160801D01*
X0396538Y0162042D01*
X0397416Y0162922D01*
X0398657Y0162925D01*
X0399537Y0162047D01*
X0399540Y0160806D01*
X0398662Y0159926D01*
X0397421Y0159923D01*
X0397793Y0160824D01*
X0397440Y0161175D01*
X0397439Y0161670D01*
X0397790Y0162023D01*
X0398285Y0162024D01*
X0398638Y0161673D01*
X0398639Y0161178D01*
X0398288Y0160825D01*
X0397793Y0160824D01*
X0397668Y0149623D02*
X0397068Y0149023D01*
X0395659Y0150426D01*
X0395656Y0152413D01*
X0397059Y0153822D01*
X0399046Y0153825D01*
X0400455Y0152422D01*
X0400458Y0150435D01*
X0399055Y0149026D01*
X0397068Y0149023D01*
X0397439Y0149923D01*
X0396559Y0150801D01*
X0396556Y0152042D01*
X0397434Y0152922D01*
X0398675Y0152925D01*
X0399555Y0152047D01*
X0399558Y0150806D01*
X0398680Y0149926D01*
X0397439Y0149923D01*
X0397811Y0150824D01*
X0397458Y0151175D01*
X0397457Y0151670D01*
X0397808Y0152023D01*
X0398303Y0152024D01*
X0398656Y0151673D01*
X0398657Y0151178D01*
X0398306Y0150825D01*
X0397811Y0150824D01*
X0407668Y0149641D02*
X0407068Y0149041D01*
X0405659Y0150444D01*
X0405656Y0152431D01*
X0407059Y0153840D01*
X0409046Y0153843D01*
X0410455Y0152440D01*
X0410458Y0150453D01*
X0409055Y0149044D01*
X0407068Y0149041D01*
X0407439Y0149941D01*
X0406559Y0150819D01*
X0406556Y0152060D01*
X0407434Y0152940D01*
X0408675Y0152943D01*
X0409555Y0152065D01*
X0409558Y0150824D01*
X0408680Y0149944D01*
X0407439Y0149941D01*
X0407811Y0150842D01*
X0407458Y0151193D01*
X0407457Y0151688D01*
X0407808Y0152041D01*
X0408303Y0152042D01*
X0408656Y0151691D01*
X0408657Y0151196D01*
X0408306Y0150843D01*
X0407811Y0150842D01*
X0407650Y0159641D02*
X0407050Y0159041D01*
X0405641Y0160444D01*
X0405638Y0162431D01*
X0407041Y0163840D01*
X0409028Y0163843D01*
X0410437Y0162440D01*
X0410440Y0160453D01*
X0409037Y0159044D01*
X0407050Y0159041D01*
X0407421Y0159941D01*
X0406541Y0160819D01*
X0406538Y0162060D01*
X0407416Y0162940D01*
X0408657Y0162943D01*
X0409537Y0162065D01*
X0409540Y0160824D01*
X0408662Y0159944D01*
X0407421Y0159941D01*
X0407793Y0160842D01*
X0407440Y0161193D01*
X0407439Y0161688D01*
X0407790Y0162041D01*
X0408285Y0162042D01*
X0408638Y0161691D01*
X0408639Y0161196D01*
X0408288Y0160843D01*
X0407793Y0160842D01*
X0407633Y0169641D02*
X0407033Y0169041D01*
X0405624Y0170444D01*
X0405621Y0172431D01*
X0407024Y0173840D01*
X0409011Y0173843D01*
X0410420Y0172440D01*
X0410423Y0170453D01*
X0409020Y0169044D01*
X0407033Y0169041D01*
X0407404Y0169941D01*
X0406524Y0170819D01*
X0406521Y0172060D01*
X0407399Y0172940D01*
X0408640Y0172943D01*
X0409520Y0172065D01*
X0409523Y0170824D01*
X0408645Y0169944D01*
X0407404Y0169941D01*
X0407776Y0170842D01*
X0407423Y0171193D01*
X0407422Y0171688D01*
X0407773Y0172041D01*
X0408268Y0172042D01*
X0408621Y0171691D01*
X0408622Y0171196D01*
X0408271Y0170843D01*
X0407776Y0170842D01*
X0407616Y0179641D02*
X0407016Y0179041D01*
X0405607Y0180444D01*
X0405604Y0182431D01*
X0407007Y0183840D01*
X0408994Y0183843D01*
X0410403Y0182440D01*
X0410406Y0180453D01*
X0409003Y0179044D01*
X0407016Y0179041D01*
X0407387Y0179941D01*
X0406507Y0180819D01*
X0406504Y0182060D01*
X0407382Y0182940D01*
X0408623Y0182943D01*
X0409503Y0182065D01*
X0409506Y0180824D01*
X0408628Y0179944D01*
X0407387Y0179941D01*
X0407759Y0180842D01*
X0407406Y0181193D01*
X0407405Y0181688D01*
X0407756Y0182041D01*
X0408251Y0182042D01*
X0408604Y0181691D01*
X0408605Y0181196D01*
X0408254Y0180843D01*
X0407759Y0180842D01*
X0407598Y0189641D02*
X0406998Y0189041D01*
X0405589Y0190444D01*
X0405586Y0192431D01*
X0406989Y0193840D01*
X0408976Y0193843D01*
X0410385Y0192440D01*
X0410388Y0190453D01*
X0408985Y0189044D01*
X0406998Y0189041D01*
X0407369Y0189941D01*
X0406489Y0190819D01*
X0406486Y0192060D01*
X0407364Y0192940D01*
X0408605Y0192943D01*
X0409485Y0192065D01*
X0409488Y0190824D01*
X0408610Y0189944D01*
X0407369Y0189941D01*
X0407741Y0190842D01*
X0407388Y0191193D01*
X0407387Y0191688D01*
X0407738Y0192041D01*
X0408233Y0192042D01*
X0408586Y0191691D01*
X0408587Y0191196D01*
X0408236Y0190843D01*
X0407741Y0190842D01*
X0407581Y0199641D02*
X0406981Y0199041D01*
X0405572Y0200444D01*
X0405569Y0202431D01*
X0406972Y0203840D01*
X0408959Y0203843D01*
X0410368Y0202440D01*
X0410371Y0200453D01*
X0408968Y0199044D01*
X0406981Y0199041D01*
X0407352Y0199941D01*
X0406472Y0200819D01*
X0406469Y0202060D01*
X0407347Y0202940D01*
X0408588Y0202943D01*
X0409468Y0202065D01*
X0409471Y0200824D01*
X0408593Y0199944D01*
X0407352Y0199941D01*
X0407724Y0200842D01*
X0407371Y0201193D01*
X0407370Y0201688D01*
X0407721Y0202041D01*
X0408216Y0202042D01*
X0408569Y0201691D01*
X0408570Y0201196D01*
X0408219Y0200843D01*
X0407724Y0200842D01*
X0397581Y0199623D02*
X0396981Y0199023D01*
X0395572Y0200426D01*
X0395569Y0202413D01*
X0396972Y0203822D01*
X0398959Y0203825D01*
X0400368Y0202422D01*
X0400371Y0200435D01*
X0398968Y0199026D01*
X0396981Y0199023D01*
X0397352Y0199923D01*
X0396472Y0200801D01*
X0396469Y0202042D01*
X0397347Y0202922D01*
X0398588Y0202925D01*
X0399468Y0202047D01*
X0399471Y0200806D01*
X0398593Y0199926D01*
X0397352Y0199923D01*
X0397724Y0200824D01*
X0397371Y0201175D01*
X0397370Y0201670D01*
X0397721Y0202023D01*
X0398216Y0202024D01*
X0398569Y0201673D01*
X0398570Y0201178D01*
X0398219Y0200825D01*
X0397724Y0200824D01*
X0397563Y0209623D02*
X0396963Y0209023D01*
X0395554Y0210426D01*
X0395551Y0212413D01*
X0396954Y0213822D01*
X0398941Y0213825D01*
X0400350Y0212422D01*
X0400353Y0210435D01*
X0398950Y0209026D01*
X0396963Y0209023D01*
X0397334Y0209923D01*
X0396454Y0210801D01*
X0396451Y0212042D01*
X0397329Y0212922D01*
X0398570Y0212925D01*
X0399450Y0212047D01*
X0399453Y0210806D01*
X0398575Y0209926D01*
X0397334Y0209923D01*
X0397706Y0210824D01*
X0397353Y0211175D01*
X0397352Y0211670D01*
X0397703Y0212023D01*
X0398198Y0212024D01*
X0398551Y0211673D01*
X0398552Y0211178D01*
X0398201Y0210825D01*
X0397706Y0210824D01*
X0407563Y0209641D02*
X0406963Y0209041D01*
X0405554Y0210444D01*
X0405551Y0212431D01*
X0406954Y0213840D01*
X0408941Y0213843D01*
X0410350Y0212440D01*
X0410353Y0210453D01*
X0408950Y0209044D01*
X0406963Y0209041D01*
X0407334Y0209941D01*
X0406454Y0210819D01*
X0406451Y0212060D01*
X0407329Y0212940D01*
X0408570Y0212943D01*
X0409450Y0212065D01*
X0409453Y0210824D01*
X0408575Y0209944D01*
X0407334Y0209941D01*
X0407706Y0210842D01*
X0407353Y0211193D01*
X0407352Y0211688D01*
X0407703Y0212041D01*
X0408198Y0212042D01*
X0408551Y0211691D01*
X0408552Y0211196D01*
X0408201Y0210843D01*
X0407706Y0210842D01*
X0407546Y0219641D02*
X0406946Y0219041D01*
X0405537Y0220444D01*
X0405534Y0222431D01*
X0406937Y0223840D01*
X0408924Y0223843D01*
X0410333Y0222440D01*
X0410336Y0220453D01*
X0408933Y0219044D01*
X0406946Y0219041D01*
X0407317Y0219941D01*
X0406437Y0220819D01*
X0406434Y0222060D01*
X0407312Y0222940D01*
X0408553Y0222943D01*
X0409433Y0222065D01*
X0409436Y0220824D01*
X0408558Y0219944D01*
X0407317Y0219941D01*
X0407689Y0220842D01*
X0407336Y0221193D01*
X0407335Y0221688D01*
X0407686Y0222041D01*
X0408181Y0222042D01*
X0408534Y0221691D01*
X0408535Y0221196D01*
X0408184Y0220843D01*
X0407689Y0220842D01*
X0397546Y0219623D02*
X0396946Y0219023D01*
X0395537Y0220426D01*
X0395534Y0222413D01*
X0396937Y0223822D01*
X0398924Y0223825D01*
X0400333Y0222422D01*
X0400336Y0220435D01*
X0398933Y0219026D01*
X0396946Y0219023D01*
X0397317Y0219923D01*
X0396437Y0220801D01*
X0396434Y0222042D01*
X0397312Y0222922D01*
X0398553Y0222925D01*
X0399433Y0222047D01*
X0399436Y0220806D01*
X0398558Y0219926D01*
X0397317Y0219923D01*
X0397689Y0220824D01*
X0397336Y0221175D01*
X0397335Y0221670D01*
X0397686Y0222023D01*
X0398181Y0222024D01*
X0398534Y0221673D01*
X0398535Y0221178D01*
X0398184Y0220825D01*
X0397689Y0220824D01*
X0397528Y0229623D02*
X0396928Y0229023D01*
X0395519Y0230426D01*
X0395516Y0232413D01*
X0396919Y0233822D01*
X0398906Y0233825D01*
X0400315Y0232422D01*
X0400318Y0230435D01*
X0398915Y0229026D01*
X0396928Y0229023D01*
X0397299Y0229923D01*
X0396419Y0230801D01*
X0396416Y0232042D01*
X0397294Y0232922D01*
X0398535Y0232925D01*
X0399415Y0232047D01*
X0399418Y0230806D01*
X0398540Y0229926D01*
X0397299Y0229923D01*
X0397671Y0230824D01*
X0397318Y0231175D01*
X0397317Y0231670D01*
X0397668Y0232023D01*
X0398163Y0232024D01*
X0398516Y0231673D01*
X0398517Y0231178D01*
X0398166Y0230825D01*
X0397671Y0230824D01*
X0407528Y0229641D02*
X0406928Y0229041D01*
X0405519Y0230444D01*
X0405516Y0232431D01*
X0406919Y0233840D01*
X0408906Y0233843D01*
X0410315Y0232440D01*
X0410318Y0230453D01*
X0408915Y0229044D01*
X0406928Y0229041D01*
X0407299Y0229941D01*
X0406419Y0230819D01*
X0406416Y0232060D01*
X0407294Y0232940D01*
X0408535Y0232943D01*
X0409415Y0232065D01*
X0409418Y0230824D01*
X0408540Y0229944D01*
X0407299Y0229941D01*
X0407671Y0230842D01*
X0407318Y0231193D01*
X0407317Y0231688D01*
X0407668Y0232041D01*
X0408163Y0232042D01*
X0408516Y0231691D01*
X0408517Y0231196D01*
X0408166Y0230843D01*
X0407671Y0230842D01*
X0407511Y0239641D02*
X0406911Y0239041D01*
X0405502Y0240444D01*
X0405499Y0242431D01*
X0406902Y0243840D01*
X0408889Y0243843D01*
X0410298Y0242440D01*
X0410301Y0240453D01*
X0408898Y0239044D01*
X0406911Y0239041D01*
X0407282Y0239941D01*
X0406402Y0240819D01*
X0406399Y0242060D01*
X0407277Y0242940D01*
X0408518Y0242943D01*
X0409398Y0242065D01*
X0409401Y0240824D01*
X0408523Y0239944D01*
X0407282Y0239941D01*
X0407654Y0240842D01*
X0407301Y0241193D01*
X0407300Y0241688D01*
X0407651Y0242041D01*
X0408146Y0242042D01*
X0408499Y0241691D01*
X0408500Y0241196D01*
X0408149Y0240843D01*
X0407654Y0240842D01*
X0397511Y0239623D02*
X0396911Y0239023D01*
X0395502Y0240426D01*
X0395499Y0242413D01*
X0396902Y0243822D01*
X0398889Y0243825D01*
X0400298Y0242422D01*
X0400301Y0240435D01*
X0398898Y0239026D01*
X0396911Y0239023D01*
X0397282Y0239923D01*
X0396402Y0240801D01*
X0396399Y0242042D01*
X0397277Y0242922D01*
X0398518Y0242925D01*
X0399398Y0242047D01*
X0399401Y0240806D01*
X0398523Y0239926D01*
X0397282Y0239923D01*
X0397654Y0240824D01*
X0397301Y0241175D01*
X0397300Y0241670D01*
X0397651Y0242023D01*
X0398146Y0242024D01*
X0398499Y0241673D01*
X0398500Y0241178D01*
X0398149Y0240825D01*
X0397654Y0240824D01*
D27*
X0128372Y0247540D03*
X0128372Y0264076D03*
X0106719Y0264076D03*
X0106719Y0247540D03*
D28*
X0056571Y0308884D03*
X0056571Y0312033D03*
X0056571Y0315183D03*
X0056571Y0318333D03*
X0056571Y0321482D03*
D29*
X0056571Y0332900D03*
X0034917Y0332900D03*
X0034917Y0297467D03*
X0056571Y0297467D03*
D30*
X0351428Y0114445D03*
X0351428Y0092004D03*
D31*
X0403200Y0085705D03*
X0407137Y0137476D03*
D32*
X0391979Y0119130D03*
X0390405Y0114799D03*
X0391979Y0110469D03*
X0392767Y0106138D03*
X0391979Y0101807D03*
X0392767Y0097476D03*
X0391979Y0093146D03*
X0391979Y0088815D03*
D33*
X0296728Y0230683D03*
X0296728Y0249683D03*
D34*
X0289228Y0307483D02*
X0289228Y0312683D01*
X0279228Y0312683D02*
X0279228Y0307483D01*
X0264228Y0307483D02*
X0264228Y0312683D01*
X0254228Y0312683D02*
X0254228Y0307483D01*
X0239228Y0307483D02*
X0239228Y0312683D01*
X0229228Y0312683D02*
X0229228Y0307483D01*
X0214228Y0307483D02*
X0214228Y0312683D01*
X0204228Y0312683D02*
X0204228Y0307483D01*
X0189228Y0307483D02*
X0189228Y0312683D01*
X0179228Y0312683D02*
X0179228Y0307483D01*
X0164228Y0307483D02*
X0164228Y0312683D01*
X0154228Y0312683D02*
X0154228Y0307483D01*
X0139228Y0307483D02*
X0139228Y0312683D01*
X0129228Y0312683D02*
X0129228Y0307483D01*
X0129228Y0342683D02*
X0129228Y0347883D01*
X0139228Y0347883D02*
X0139228Y0342683D01*
X0154228Y0342683D02*
X0154228Y0347883D01*
X0164228Y0347883D02*
X0164228Y0342683D01*
X0179228Y0342683D02*
X0179228Y0347883D01*
X0189228Y0347883D02*
X0189228Y0342683D01*
X0204228Y0342683D02*
X0204228Y0347883D01*
X0214228Y0347883D02*
X0214228Y0342683D01*
X0229228Y0342683D02*
X0229228Y0347883D01*
X0239228Y0347883D02*
X0239228Y0342683D01*
X0254228Y0342683D02*
X0254228Y0347883D01*
X0264228Y0347883D02*
X0264228Y0342683D01*
X0279228Y0342683D02*
X0279228Y0347883D01*
X0289228Y0347883D02*
X0289228Y0342683D01*
X0304228Y0342683D02*
X0304228Y0347883D01*
X0314228Y0347883D02*
X0314228Y0342683D01*
X0329228Y0342683D02*
X0329228Y0347883D01*
X0339228Y0347883D02*
X0339228Y0342683D01*
X0354228Y0342683D02*
X0354228Y0347883D01*
X0364228Y0347883D02*
X0364228Y0342683D01*
X0364228Y0312683D02*
X0364228Y0307483D01*
X0354228Y0307483D02*
X0354228Y0312683D01*
X0339228Y0312683D02*
X0339228Y0307483D01*
X0329228Y0307483D02*
X0329228Y0312683D01*
X0314228Y0312683D02*
X0314228Y0307483D01*
X0304228Y0307483D02*
X0304228Y0312683D01*
D35*
X0312353Y0333933D03*
X0337353Y0333933D03*
X0287353Y0333933D03*
X0262353Y0333933D03*
X0237353Y0333933D03*
X0212353Y0333933D03*
X0187353Y0333933D03*
X0162353Y0333933D03*
X0137353Y0333933D03*
X0084228Y0299558D03*
X0062353Y0277683D03*
X0040478Y0315183D03*
X0043603Y0408933D03*
X0059228Y0412058D03*
X0099853Y0412058D03*
X0099853Y0424558D03*
X0149853Y0412058D03*
X0234228Y0255808D03*
X0240478Y0246433D03*
X0243603Y0255808D03*
X0237353Y0227683D03*
X0221728Y0230808D03*
X0218603Y0240183D03*
X0199853Y0224558D03*
X0221728Y0212058D03*
X0231103Y0212058D03*
X0240478Y0212058D03*
X0246728Y0180808D03*
X0246728Y0174558D03*
X0246728Y0168308D03*
X0137353Y0243308D03*
X0074853Y0155808D03*
X0040478Y0202683D03*
X0043603Y0205808D03*
X0034228Y0202683D03*
X0115478Y0096433D03*
X0115478Y0074558D03*
X0365478Y0202683D03*
X0374853Y0196433D03*
X0377978Y0187058D03*
X0377978Y0246433D03*
X0384228Y0108933D03*
X0377978Y0093308D03*
X0384228Y0074558D03*
X0315478Y0412058D03*
D36*
X0315257Y0412280D01*
X0306103Y0412280D01*
X0290478Y0412280D01*
X0274853Y0412280D01*
X0259228Y0412280D01*
X0243603Y0412280D01*
X0227978Y0412280D02*
X0212353Y0412280D01*
X0196728Y0412280D01*
X0181103Y0412280D01*
X0165478Y0412280D01*
X0156325Y0412280D01*
X0149853Y0412058D01*
X0106719Y0247540D02*
X0106103Y0246925D01*
X0106103Y0208933D01*
X0109228Y0205808D01*
X0109228Y0203815D01*
X0095728Y0070933D02*
X0087728Y0062933D01*
X0087728Y0056933D01*
X0088103Y0056933D01*
X0088103Y0060933D01*
X0090992Y0060933D01*
X0091500Y0060797D01*
X0091956Y0060533D01*
X0092329Y0060161D01*
X0092478Y0059902D01*
X0092628Y0060161D01*
X0093000Y0060533D01*
X0093456Y0060797D01*
X0093965Y0060933D01*
X0096853Y0060933D01*
X0096853Y0056933D01*
X0098103Y0056933D01*
X0098103Y0060933D01*
X0100992Y0060933D01*
X0101500Y0060797D01*
X0101956Y0060533D01*
X0102329Y0060161D01*
X0102478Y0059902D01*
X0102628Y0060161D01*
X0103000Y0060533D01*
X0103456Y0060797D01*
X0103965Y0060933D01*
X0106853Y0060933D01*
X0106853Y0056933D01*
X0108103Y0056933D01*
X0108103Y0060933D01*
X0110992Y0060933D01*
X0111500Y0060797D01*
X0111956Y0060533D01*
X0112329Y0060161D01*
X0112478Y0059902D01*
X0112628Y0060161D01*
X0113000Y0060533D01*
X0113456Y0060797D01*
X0113965Y0060933D01*
X0116853Y0060933D01*
X0116853Y0056933D01*
X0118103Y0056933D01*
X0118103Y0060933D01*
X0120992Y0060933D01*
X0121500Y0060797D01*
X0121956Y0060533D01*
X0122329Y0060161D01*
X0122478Y0059902D01*
X0122628Y0060161D01*
X0123000Y0060533D01*
X0123456Y0060797D01*
X0123965Y0060933D01*
X0126853Y0060933D01*
X0126853Y0056933D01*
X0128103Y0056933D01*
X0128103Y0060933D01*
X0130992Y0060933D01*
X0131500Y0060797D01*
X0131956Y0060533D01*
X0132329Y0060161D01*
X0132478Y0059902D01*
X0132628Y0060161D01*
X0133000Y0060533D01*
X0133456Y0060797D01*
X0133965Y0060933D01*
X0136853Y0060933D01*
X0136853Y0056933D01*
X0137728Y0056933D01*
X0137728Y0065933D01*
X0133728Y0070933D01*
X0095728Y0070933D01*
X0094702Y0069906D02*
X0134550Y0069906D01*
X0136149Y0067908D02*
X0092703Y0067908D01*
X0090705Y0065909D02*
X0137728Y0065909D01*
X0137728Y0063911D02*
X0088706Y0063911D01*
X0087728Y0061912D02*
X0137728Y0061912D01*
X0137728Y0059914D02*
X0136853Y0059914D01*
X0136853Y0057915D02*
X0137728Y0057915D01*
X0132485Y0059914D02*
X0132472Y0059914D01*
X0128103Y0059914D02*
X0126853Y0059914D01*
X0126853Y0057915D02*
X0128103Y0057915D01*
X0122485Y0059914D02*
X0122472Y0059914D01*
X0118103Y0059914D02*
X0116853Y0059914D01*
X0116853Y0057915D02*
X0118103Y0057915D01*
X0112485Y0059914D02*
X0112472Y0059914D01*
X0108103Y0059914D02*
X0106853Y0059914D01*
X0106853Y0057915D02*
X0108103Y0057915D01*
X0102485Y0059914D02*
X0102472Y0059914D01*
X0098103Y0059914D02*
X0096853Y0059914D01*
X0096853Y0057915D02*
X0098103Y0057915D01*
X0092485Y0059914D02*
X0092472Y0059914D01*
X0088103Y0059914D02*
X0087728Y0059914D01*
X0087728Y0057915D02*
X0088103Y0057915D01*
X0227478Y0046433D02*
X0227978Y0065183D01*
X0234228Y0065183D01*
X0237478Y0046433D01*
X0377978Y0093308D02*
X0382147Y0097476D01*
X0392767Y0097476D01*
X0407137Y0137476D02*
X0407137Y0150522D01*
X0408057Y0151442D01*
D37*
X0377978Y0093308D02*
X0390478Y0080808D01*
X0399853Y0080808D01*
X0403200Y0084155D01*
X0403200Y0085705D01*
X0183485Y0203815D02*
X0109228Y0203815D01*
X0107328Y0203482D02*
X0104640Y0200794D01*
D38*
X0074478Y0120183D02*
X0074478Y0118714D01*
X0074478Y0110183D02*
X0065478Y0101183D01*
X0065478Y0090183D01*
X0090478Y0065183D01*
X0115478Y0068308D02*
X0115478Y0074558D01*
X0156103Y0065183D02*
X0156103Y0047808D01*
X0157478Y0046433D01*
D39*
X0152978Y0065183D02*
X0137353Y0080808D01*
X0090478Y0080808D01*
X0080110Y0091176D01*
X0080110Y0112516D01*
X0074478Y0118148D01*
X0074478Y0118714D01*
X0074478Y0120183D01*
X0115478Y0130808D02*
X0115478Y0096433D01*
X0156103Y0096433D01*
X0162353Y0090183D01*
X0243603Y0090183D01*
X0259228Y0074558D01*
X0384228Y0074558D01*
X0406103Y0074558D01*
X0415828Y0084283D01*
X0415828Y0236708D01*
X0412353Y0240183D01*
X0409158Y0240183D01*
X0407900Y0241442D01*
X0407882Y0241424D01*
X0397900Y0241424D01*
X0397900Y0242137D01*
X0371728Y0268308D01*
X0297978Y0268308D01*
X0296728Y0269558D01*
X0284228Y0269558D01*
X0271728Y0269558D01*
X0277978Y0213308D02*
X0265478Y0213308D01*
X0240478Y0164558D02*
X0224853Y0164558D01*
X0149228Y0164558D01*
X0115478Y0130808D01*
X0115478Y0155808D01*
X0104640Y0166646D01*
X0104640Y0200794D01*
X0108895Y0203482D02*
X0109228Y0203815D01*
X0106719Y0247540D02*
X0106719Y0264076D01*
X0183485Y0203815D02*
X0187353Y0207683D01*
M02*
