%
M48
M72
T01C0.01378
T02C0.02362
T03C0.03200
T04C0.03543
T05C0.04000
T06C0.04300
T07C0.07087
T08C0.11811
T09C0.12850
T10C0.13386
%
T01
X115478Y74558
X115478Y96433
X74853Y155808
X40478Y202683
X43603Y205808
X34228Y202683
X62353Y277683
X84228Y299558
X40478Y315183
X43603Y408933
X59228Y412058
X99853Y412058
X99853Y424558
X149853Y412058
X137353Y333933
X162353Y333933
X187353Y333933
X212353Y333933
X237353Y333933
X262353Y333933
X287353Y333933
X312353Y333933
X337353Y333933
X315478Y412058
X243603Y255808
X240478Y246433
X234228Y255808
X218603Y240183
X221728Y230808
X237353Y227683
X240478Y212058
X231103Y212058
X221728Y212058
X199853Y224558
X246728Y180808
X246728Y174558
X246728Y168308
X137353Y243308
X365478Y202683
X374853Y196433
X377978Y187058
X377978Y246433
X384228Y108933
X377978Y93308
X384228Y74558
T02
X109228Y189051
X109228Y193972
X109228Y198894
X109228Y203815
T03
X149853Y278933
X149853Y288933
X165478Y288933
X165478Y278933
X164228Y312683
X154228Y312683
X139228Y312683
X129228Y312683
X129228Y342683
X139228Y342683
X154228Y342683
X164228Y342683
X179228Y342683
X189228Y342683
X204228Y342683
X214228Y342683
X229228Y342683
X239228Y342683
X254228Y342683
X264228Y342683
X279228Y342683
X289228Y342683
X304228Y342683
X314228Y342683
X329228Y342683
X339228Y342683
X354228Y342683
X364228Y342683
X364228Y312683
X354228Y312683
X339228Y312683
X329228Y312683
X314228Y312683
X304228Y312683
X289228Y312683
X279228Y312683
X264228Y312683
X254228Y312683
X239228Y312683
X229228Y312683
X214228Y312683
X204228Y312683
X189228Y312683
X179228Y312683
X265478Y223308
X265478Y213308
X277978Y213308
X277978Y223308
X296728Y230683
X296728Y249683
X296728Y269558
X296728Y279558
X284228Y279558
X284228Y269558
X271728Y269558
X271728Y279558
X319853Y249558
X329853Y249558
X329853Y230808
X319853Y230808
X240478Y184558
X224853Y184558
X224853Y164558
X240478Y164558
X202978Y197683
X202978Y207683
X187353Y207683
X187353Y197683
X34228Y163933
X34228Y153933
T04
X46728Y306522
X46728Y323844
T05
X165478Y370808
X165478Y380808
X165478Y390808
X181103Y390808
X181103Y380808
X181103Y370808
X196728Y370808
X196728Y380808
X196728Y390808
X212353Y390808
X212353Y380808
X212353Y370808
X227978Y370808
X227978Y380808
X227978Y390808
X243603Y390808
X243603Y380808
X243603Y370808
X259228Y370808
X259228Y380808
X259228Y390808
X274853Y390808
X274853Y380808
X274853Y370808
X290478Y370808
X290478Y380808
X290478Y390808
X306103Y390808
X306103Y380808
X306103Y370808
X347203Y281108
X365003Y281108
X365003Y255508
X347203Y255508
X397900Y241424
X397917Y231424
X397935Y221424
X397952Y211424
X397970Y201424
X407970Y201442
X407952Y211442
X407935Y221442
X407917Y231442
X407900Y241442
X407987Y191442
X397987Y191424
X398005Y181424
X408005Y181442
X408022Y171442
X398022Y171424
X398039Y161424
X398057Y151424
X408057Y151442
X408039Y161442
T06
X74478Y130183
X74478Y120183
X74478Y110183
X74478Y100183
T07
X106719Y247540
X106719Y264076
X128372Y264076
X128372Y247540
T08
X77978Y255808
T09
X34228Y421433
X409228Y421433
T10
X40478Y94683
X40478Y135683
M30
