G75*
%MOIN*%
%OFA0B0*%
%FSLAX25Y25*%
%IPPOS*%
%LPD*%
%AMOC8*
5,1,8,0,0,1.08239X$1,22.5*
%
%ADD10C,0.13650*%
%ADD11C,0.07250*%
%ADD12C,0.14186*%
%ADD13R,0.05524X0.06312*%
%ADD14R,0.05131X0.04737*%
%ADD15R,0.07300X0.25800*%
%ADD16R,0.03162X0.06902*%
%ADD17OC8,0.07100*%
%ADD18R,0.04737X0.05131*%
%ADD19R,0.06600X0.01900*%
%ADD20R,0.01900X0.06600*%
%ADD21OC8,0.06000*%
%ADD22C,0.06800*%
%ADD23R,0.05162X0.05162*%
%ADD24C,0.05162*%
%ADD25C,0.01360*%
%ADD26C,0.11430*%
%ADD27C,0.12611*%
%ADD28R,0.10643X0.02769*%
%ADD29R,0.10643X0.08674*%
%ADD30C,0.04343*%
%ADD31R,0.06312X0.07887*%
%ADD32R,0.08280X0.06312*%
%ADD33R,0.06706X0.03950*%
%ADD34C,0.06000*%
%ADD35C,0.06000*%
%ADD36C,0.03778*%
D10*
X0034228Y0421433D03*
X0409228Y0421433D03*
D11*
X0074478Y0130183D03*
X0074478Y0120183D03*
X0074478Y0110183D03*
X0074478Y0100183D03*
D12*
X0040478Y0094683D03*
X0040478Y0135683D03*
D13*
X0143948Y0249558D03*
X0155759Y0249558D03*
X0162698Y0243308D03*
X0174509Y0243308D03*
X0093259Y0412058D03*
X0093259Y0424558D03*
X0081448Y0424558D03*
X0081448Y0412058D03*
D14*
X0071950Y0412058D03*
X0065257Y0412058D03*
X0065257Y0424558D03*
X0071950Y0424558D03*
X0184007Y0249558D03*
X0184007Y0243308D03*
X0190700Y0243308D03*
X0190700Y0249558D03*
D15*
X0087478Y0046433D03*
X0097478Y0046433D03*
X0107478Y0046433D03*
X0117478Y0046433D03*
X0127478Y0046433D03*
X0137478Y0046433D03*
X0147478Y0046433D03*
X0157478Y0046433D03*
X0167478Y0046433D03*
X0177478Y0046433D03*
X0187478Y0046433D03*
X0197478Y0046433D03*
X0207478Y0046433D03*
X0217478Y0046433D03*
X0227478Y0046433D03*
X0237478Y0046433D03*
X0247478Y0046433D03*
X0257478Y0046433D03*
X0267478Y0046433D03*
X0277478Y0046433D03*
X0287478Y0046433D03*
X0297478Y0046433D03*
X0307478Y0046433D03*
X0317478Y0046433D03*
X0327478Y0046433D03*
X0337478Y0046433D03*
X0347478Y0046433D03*
X0357478Y0046433D03*
D16*
X0046182Y0195065D03*
X0041221Y0195065D03*
X0036182Y0195065D03*
X0031182Y0195065D03*
X0031182Y0216285D03*
X0036182Y0216285D03*
X0041221Y0216285D03*
X0046182Y0216325D03*
D17*
X0034228Y0163933D03*
X0034228Y0153933D03*
X0319853Y0230808D03*
X0329853Y0230808D03*
X0329853Y0249558D03*
X0319853Y0249558D03*
D18*
X0324853Y0289962D03*
X0324853Y0296655D03*
X0337353Y0296655D03*
X0337353Y0289962D03*
X0256103Y0287280D03*
X0256103Y0280587D03*
X0246728Y0280587D03*
X0246728Y0287280D03*
X0237353Y0287280D03*
X0237353Y0280587D03*
X0227978Y0280587D03*
X0227978Y0287280D03*
X0206103Y0293087D03*
X0206103Y0299780D03*
X0196728Y0293530D03*
X0196728Y0286837D03*
X0187353Y0286837D03*
X0187353Y0293530D03*
X0177978Y0293530D03*
X0177978Y0286837D03*
X0181103Y0405587D03*
X0181103Y0412280D03*
X0165478Y0412280D03*
X0165478Y0405587D03*
X0196728Y0405587D03*
X0196728Y0412280D03*
X0212353Y0412280D03*
X0212353Y0405587D03*
X0227978Y0405587D03*
X0227978Y0412280D03*
X0243603Y0412280D03*
X0243603Y0405587D03*
X0259228Y0405587D03*
X0259228Y0412280D03*
X0274853Y0412280D03*
X0274853Y0405587D03*
X0290478Y0405587D03*
X0290478Y0412280D03*
X0306103Y0412280D03*
X0306103Y0405587D03*
X0043603Y0181030D03*
X0043603Y0174337D03*
X0034228Y0174337D03*
X0034228Y0181030D03*
D19*
X0205478Y0228508D03*
X0205478Y0230508D03*
X0205478Y0232508D03*
X0205478Y0234408D03*
X0205478Y0236408D03*
X0205478Y0238408D03*
X0205478Y0240308D03*
X0205478Y0242308D03*
X0205478Y0244308D03*
X0205478Y0246308D03*
X0205478Y0248208D03*
X0205478Y0250208D03*
X0205478Y0252208D03*
X0205478Y0254108D03*
X0205478Y0256108D03*
X0205478Y0258108D03*
X0250478Y0258108D03*
X0250478Y0256108D03*
X0250478Y0254108D03*
X0250478Y0252208D03*
X0250478Y0250208D03*
X0250478Y0248208D03*
X0250478Y0246308D03*
X0250478Y0244308D03*
X0250478Y0242308D03*
X0250478Y0240308D03*
X0250478Y0238408D03*
X0250478Y0236408D03*
X0250478Y0234408D03*
X0250478Y0232508D03*
X0250478Y0230508D03*
X0250478Y0228508D03*
D20*
X0242778Y0220808D03*
X0240778Y0220808D03*
X0238778Y0220808D03*
X0236878Y0220808D03*
X0234878Y0220808D03*
X0232878Y0220808D03*
X0230978Y0220808D03*
X0228978Y0220808D03*
X0226978Y0220808D03*
X0224978Y0220808D03*
X0223078Y0220808D03*
X0221078Y0220808D03*
X0219078Y0220808D03*
X0217178Y0220808D03*
X0215178Y0220808D03*
X0213178Y0220808D03*
X0213178Y0265808D03*
X0215178Y0265808D03*
X0217178Y0265808D03*
X0219078Y0265808D03*
X0221078Y0265808D03*
X0223078Y0265808D03*
X0224978Y0265808D03*
X0226978Y0265808D03*
X0228978Y0265808D03*
X0230978Y0265808D03*
X0232878Y0265808D03*
X0234878Y0265808D03*
X0236878Y0265808D03*
X0238778Y0265808D03*
X0240778Y0265808D03*
X0242778Y0265808D03*
D21*
X0271728Y0269558D03*
X0271728Y0279558D03*
X0284228Y0279558D03*
X0284228Y0269558D03*
X0296728Y0269558D03*
X0296728Y0279558D03*
X0277978Y0223308D03*
X0277978Y0213308D03*
X0265478Y0213308D03*
X0265478Y0223308D03*
X0240478Y0184558D03*
X0224853Y0184558D03*
X0224853Y0164558D03*
X0240478Y0164558D03*
X0202978Y0197683D03*
X0202978Y0207683D03*
X0187353Y0207683D03*
X0187353Y0197683D03*
X0165478Y0278933D03*
X0165478Y0288933D03*
X0149853Y0288933D03*
X0149853Y0278933D03*
D22*
X0162478Y0370808D02*
X0168478Y0370808D01*
X0178103Y0370808D02*
X0184103Y0370808D01*
X0193728Y0370808D02*
X0199728Y0370808D01*
X0209353Y0370808D02*
X0215353Y0370808D01*
X0215353Y0380808D02*
X0209353Y0380808D01*
X0199728Y0380808D02*
X0193728Y0380808D01*
X0184103Y0380808D02*
X0178103Y0380808D01*
X0168478Y0380808D02*
X0162478Y0380808D01*
X0162478Y0390808D02*
X0168478Y0390808D01*
X0178103Y0390808D02*
X0184103Y0390808D01*
X0193728Y0390808D02*
X0199728Y0390808D01*
X0209353Y0390808D02*
X0215353Y0390808D01*
X0224978Y0390808D02*
X0230978Y0390808D01*
X0240603Y0390808D02*
X0246603Y0390808D01*
X0256228Y0390808D02*
X0262228Y0390808D01*
X0271853Y0390808D02*
X0277853Y0390808D01*
X0287478Y0390808D02*
X0293478Y0390808D01*
X0293478Y0380808D02*
X0287478Y0380808D01*
X0277853Y0380808D02*
X0271853Y0380808D01*
X0262228Y0380808D02*
X0256228Y0380808D01*
X0246603Y0380808D02*
X0240603Y0380808D01*
X0230978Y0380808D02*
X0224978Y0380808D01*
X0224978Y0370808D02*
X0230978Y0370808D01*
X0240603Y0370808D02*
X0246603Y0370808D01*
X0256228Y0370808D02*
X0262228Y0370808D01*
X0271853Y0370808D02*
X0277853Y0370808D01*
X0287478Y0370808D02*
X0293478Y0370808D01*
X0303103Y0370808D02*
X0309103Y0370808D01*
X0309103Y0380808D02*
X0303103Y0380808D01*
X0303103Y0390808D02*
X0309103Y0390808D01*
X0347203Y0284108D02*
X0347203Y0278108D01*
X0365003Y0278108D02*
X0365003Y0284108D01*
X0365003Y0258508D02*
X0365003Y0252508D01*
X0347203Y0252508D02*
X0347203Y0258508D01*
D23*
X0109228Y0203815D03*
D24*
X0109228Y0198894D03*
X0109228Y0193972D03*
X0109228Y0189051D03*
D25*
X0397546Y0189383D02*
X0396866Y0188703D01*
X0395269Y0190294D01*
X0395266Y0192545D01*
X0396857Y0194142D01*
X0399108Y0194145D01*
X0400705Y0192554D01*
X0400708Y0190303D01*
X0399117Y0188706D01*
X0396866Y0188703D01*
X0397286Y0189723D01*
X0396289Y0190718D01*
X0396286Y0192125D01*
X0397281Y0193122D01*
X0398688Y0193125D01*
X0399685Y0192130D01*
X0399688Y0190723D01*
X0398693Y0189726D01*
X0397286Y0189723D01*
X0397708Y0190744D01*
X0397308Y0191142D01*
X0397307Y0191703D01*
X0397705Y0192103D01*
X0398266Y0192104D01*
X0398666Y0191706D01*
X0398667Y0191145D01*
X0398269Y0190745D01*
X0397708Y0190744D01*
X0397564Y0179383D02*
X0396884Y0178703D01*
X0395287Y0180294D01*
X0395284Y0182545D01*
X0396875Y0184142D01*
X0399126Y0184145D01*
X0400723Y0182554D01*
X0400726Y0180303D01*
X0399135Y0178706D01*
X0396884Y0178703D01*
X0397304Y0179723D01*
X0396307Y0180718D01*
X0396304Y0182125D01*
X0397299Y0183122D01*
X0398706Y0183125D01*
X0399703Y0182130D01*
X0399706Y0180723D01*
X0398711Y0179726D01*
X0397304Y0179723D01*
X0397726Y0180744D01*
X0397326Y0181142D01*
X0397325Y0181703D01*
X0397723Y0182103D01*
X0398284Y0182104D01*
X0398684Y0181706D01*
X0398685Y0181145D01*
X0398287Y0180745D01*
X0397726Y0180744D01*
X0397581Y0169383D02*
X0396901Y0168703D01*
X0395304Y0170294D01*
X0395301Y0172545D01*
X0396892Y0174142D01*
X0399143Y0174145D01*
X0400740Y0172554D01*
X0400743Y0170303D01*
X0399152Y0168706D01*
X0396901Y0168703D01*
X0397321Y0169723D01*
X0396324Y0170718D01*
X0396321Y0172125D01*
X0397316Y0173122D01*
X0398723Y0173125D01*
X0399720Y0172130D01*
X0399723Y0170723D01*
X0398728Y0169726D01*
X0397321Y0169723D01*
X0397743Y0170744D01*
X0397343Y0171142D01*
X0397342Y0171703D01*
X0397740Y0172103D01*
X0398301Y0172104D01*
X0398701Y0171706D01*
X0398702Y0171145D01*
X0398304Y0170745D01*
X0397743Y0170744D01*
X0397598Y0159383D02*
X0396918Y0158703D01*
X0395321Y0160294D01*
X0395318Y0162545D01*
X0396909Y0164142D01*
X0399160Y0164145D01*
X0400757Y0162554D01*
X0400760Y0160303D01*
X0399169Y0158706D01*
X0396918Y0158703D01*
X0397338Y0159723D01*
X0396341Y0160718D01*
X0396338Y0162125D01*
X0397333Y0163122D01*
X0398740Y0163125D01*
X0399737Y0162130D01*
X0399740Y0160723D01*
X0398745Y0159726D01*
X0397338Y0159723D01*
X0397760Y0160744D01*
X0397360Y0161142D01*
X0397359Y0161703D01*
X0397757Y0162103D01*
X0398318Y0162104D01*
X0398718Y0161706D01*
X0398719Y0161145D01*
X0398321Y0160745D01*
X0397760Y0160744D01*
X0397616Y0149383D02*
X0396936Y0148703D01*
X0395339Y0150294D01*
X0395336Y0152545D01*
X0396927Y0154142D01*
X0399178Y0154145D01*
X0400775Y0152554D01*
X0400778Y0150303D01*
X0399187Y0148706D01*
X0396936Y0148703D01*
X0397356Y0149723D01*
X0396359Y0150718D01*
X0396356Y0152125D01*
X0397351Y0153122D01*
X0398758Y0153125D01*
X0399755Y0152130D01*
X0399758Y0150723D01*
X0398763Y0149726D01*
X0397356Y0149723D01*
X0397778Y0150744D01*
X0397378Y0151142D01*
X0397377Y0151703D01*
X0397775Y0152103D01*
X0398336Y0152104D01*
X0398736Y0151706D01*
X0398737Y0151145D01*
X0398339Y0150745D01*
X0397778Y0150744D01*
X0407616Y0149401D02*
X0406936Y0148721D01*
X0405339Y0150312D01*
X0405336Y0152563D01*
X0406927Y0154160D01*
X0409178Y0154163D01*
X0410775Y0152572D01*
X0410778Y0150321D01*
X0409187Y0148724D01*
X0406936Y0148721D01*
X0407356Y0149741D01*
X0406359Y0150736D01*
X0406356Y0152143D01*
X0407351Y0153140D01*
X0408758Y0153143D01*
X0409755Y0152148D01*
X0409758Y0150741D01*
X0408763Y0149744D01*
X0407356Y0149741D01*
X0407778Y0150762D01*
X0407378Y0151160D01*
X0407377Y0151721D01*
X0407775Y0152121D01*
X0408336Y0152122D01*
X0408736Y0151724D01*
X0408737Y0151163D01*
X0408339Y0150763D01*
X0407778Y0150762D01*
X0407598Y0159401D02*
X0406918Y0158721D01*
X0405321Y0160312D01*
X0405318Y0162563D01*
X0406909Y0164160D01*
X0409160Y0164163D01*
X0410757Y0162572D01*
X0410760Y0160321D01*
X0409169Y0158724D01*
X0406918Y0158721D01*
X0407338Y0159741D01*
X0406341Y0160736D01*
X0406338Y0162143D01*
X0407333Y0163140D01*
X0408740Y0163143D01*
X0409737Y0162148D01*
X0409740Y0160741D01*
X0408745Y0159744D01*
X0407338Y0159741D01*
X0407760Y0160762D01*
X0407360Y0161160D01*
X0407359Y0161721D01*
X0407757Y0162121D01*
X0408318Y0162122D01*
X0408718Y0161724D01*
X0408719Y0161163D01*
X0408321Y0160763D01*
X0407760Y0160762D01*
X0407581Y0169401D02*
X0406901Y0168721D01*
X0405304Y0170312D01*
X0405301Y0172563D01*
X0406892Y0174160D01*
X0409143Y0174163D01*
X0410740Y0172572D01*
X0410743Y0170321D01*
X0409152Y0168724D01*
X0406901Y0168721D01*
X0407321Y0169741D01*
X0406324Y0170736D01*
X0406321Y0172143D01*
X0407316Y0173140D01*
X0408723Y0173143D01*
X0409720Y0172148D01*
X0409723Y0170741D01*
X0408728Y0169744D01*
X0407321Y0169741D01*
X0407743Y0170762D01*
X0407343Y0171160D01*
X0407342Y0171721D01*
X0407740Y0172121D01*
X0408301Y0172122D01*
X0408701Y0171724D01*
X0408702Y0171163D01*
X0408304Y0170763D01*
X0407743Y0170762D01*
X0407564Y0179401D02*
X0406884Y0178721D01*
X0405287Y0180312D01*
X0405284Y0182563D01*
X0406875Y0184160D01*
X0409126Y0184163D01*
X0410723Y0182572D01*
X0410726Y0180321D01*
X0409135Y0178724D01*
X0406884Y0178721D01*
X0407304Y0179741D01*
X0406307Y0180736D01*
X0406304Y0182143D01*
X0407299Y0183140D01*
X0408706Y0183143D01*
X0409703Y0182148D01*
X0409706Y0180741D01*
X0408711Y0179744D01*
X0407304Y0179741D01*
X0407726Y0180762D01*
X0407326Y0181160D01*
X0407325Y0181721D01*
X0407723Y0182121D01*
X0408284Y0182122D01*
X0408684Y0181724D01*
X0408685Y0181163D01*
X0408287Y0180763D01*
X0407726Y0180762D01*
X0407546Y0189401D02*
X0406866Y0188721D01*
X0405269Y0190312D01*
X0405266Y0192563D01*
X0406857Y0194160D01*
X0409108Y0194163D01*
X0410705Y0192572D01*
X0410708Y0190321D01*
X0409117Y0188724D01*
X0406866Y0188721D01*
X0407286Y0189741D01*
X0406289Y0190736D01*
X0406286Y0192143D01*
X0407281Y0193140D01*
X0408688Y0193143D01*
X0409685Y0192148D01*
X0409688Y0190741D01*
X0408693Y0189744D01*
X0407286Y0189741D01*
X0407708Y0190762D01*
X0407308Y0191160D01*
X0407307Y0191721D01*
X0407705Y0192121D01*
X0408266Y0192122D01*
X0408666Y0191724D01*
X0408667Y0191163D01*
X0408269Y0190763D01*
X0407708Y0190762D01*
X0407529Y0199401D02*
X0406849Y0198721D01*
X0405252Y0200312D01*
X0405249Y0202563D01*
X0406840Y0204160D01*
X0409091Y0204163D01*
X0410688Y0202572D01*
X0410691Y0200321D01*
X0409100Y0198724D01*
X0406849Y0198721D01*
X0407269Y0199741D01*
X0406272Y0200736D01*
X0406269Y0202143D01*
X0407264Y0203140D01*
X0408671Y0203143D01*
X0409668Y0202148D01*
X0409671Y0200741D01*
X0408676Y0199744D01*
X0407269Y0199741D01*
X0407691Y0200762D01*
X0407291Y0201160D01*
X0407290Y0201721D01*
X0407688Y0202121D01*
X0408249Y0202122D01*
X0408649Y0201724D01*
X0408650Y0201163D01*
X0408252Y0200763D01*
X0407691Y0200762D01*
X0397529Y0199383D02*
X0396849Y0198703D01*
X0395252Y0200294D01*
X0395249Y0202545D01*
X0396840Y0204142D01*
X0399091Y0204145D01*
X0400688Y0202554D01*
X0400691Y0200303D01*
X0399100Y0198706D01*
X0396849Y0198703D01*
X0397269Y0199723D01*
X0396272Y0200718D01*
X0396269Y0202125D01*
X0397264Y0203122D01*
X0398671Y0203125D01*
X0399668Y0202130D01*
X0399671Y0200723D01*
X0398676Y0199726D01*
X0397269Y0199723D01*
X0397691Y0200744D01*
X0397291Y0201142D01*
X0397290Y0201703D01*
X0397688Y0202103D01*
X0398249Y0202104D01*
X0398649Y0201706D01*
X0398650Y0201145D01*
X0398252Y0200745D01*
X0397691Y0200744D01*
X0397511Y0209383D02*
X0396831Y0208703D01*
X0395234Y0210294D01*
X0395231Y0212545D01*
X0396822Y0214142D01*
X0399073Y0214145D01*
X0400670Y0212554D01*
X0400673Y0210303D01*
X0399082Y0208706D01*
X0396831Y0208703D01*
X0397251Y0209723D01*
X0396254Y0210718D01*
X0396251Y0212125D01*
X0397246Y0213122D01*
X0398653Y0213125D01*
X0399650Y0212130D01*
X0399653Y0210723D01*
X0398658Y0209726D01*
X0397251Y0209723D01*
X0397673Y0210744D01*
X0397273Y0211142D01*
X0397272Y0211703D01*
X0397670Y0212103D01*
X0398231Y0212104D01*
X0398631Y0211706D01*
X0398632Y0211145D01*
X0398234Y0210745D01*
X0397673Y0210744D01*
X0407511Y0209401D02*
X0406831Y0208721D01*
X0405234Y0210312D01*
X0405231Y0212563D01*
X0406822Y0214160D01*
X0409073Y0214163D01*
X0410670Y0212572D01*
X0410673Y0210321D01*
X0409082Y0208724D01*
X0406831Y0208721D01*
X0407251Y0209741D01*
X0406254Y0210736D01*
X0406251Y0212143D01*
X0407246Y0213140D01*
X0408653Y0213143D01*
X0409650Y0212148D01*
X0409653Y0210741D01*
X0408658Y0209744D01*
X0407251Y0209741D01*
X0407673Y0210762D01*
X0407273Y0211160D01*
X0407272Y0211721D01*
X0407670Y0212121D01*
X0408231Y0212122D01*
X0408631Y0211724D01*
X0408632Y0211163D01*
X0408234Y0210763D01*
X0407673Y0210762D01*
X0407494Y0219401D02*
X0406814Y0218721D01*
X0405217Y0220312D01*
X0405214Y0222563D01*
X0406805Y0224160D01*
X0409056Y0224163D01*
X0410653Y0222572D01*
X0410656Y0220321D01*
X0409065Y0218724D01*
X0406814Y0218721D01*
X0407234Y0219741D01*
X0406237Y0220736D01*
X0406234Y0222143D01*
X0407229Y0223140D01*
X0408636Y0223143D01*
X0409633Y0222148D01*
X0409636Y0220741D01*
X0408641Y0219744D01*
X0407234Y0219741D01*
X0407656Y0220762D01*
X0407256Y0221160D01*
X0407255Y0221721D01*
X0407653Y0222121D01*
X0408214Y0222122D01*
X0408614Y0221724D01*
X0408615Y0221163D01*
X0408217Y0220763D01*
X0407656Y0220762D01*
X0397494Y0219383D02*
X0396814Y0218703D01*
X0395217Y0220294D01*
X0395214Y0222545D01*
X0396805Y0224142D01*
X0399056Y0224145D01*
X0400653Y0222554D01*
X0400656Y0220303D01*
X0399065Y0218706D01*
X0396814Y0218703D01*
X0397234Y0219723D01*
X0396237Y0220718D01*
X0396234Y0222125D01*
X0397229Y0223122D01*
X0398636Y0223125D01*
X0399633Y0222130D01*
X0399636Y0220723D01*
X0398641Y0219726D01*
X0397234Y0219723D01*
X0397656Y0220744D01*
X0397256Y0221142D01*
X0397255Y0221703D01*
X0397653Y0222103D01*
X0398214Y0222104D01*
X0398614Y0221706D01*
X0398615Y0221145D01*
X0398217Y0220745D01*
X0397656Y0220744D01*
X0397476Y0229383D02*
X0396796Y0228703D01*
X0395199Y0230294D01*
X0395196Y0232545D01*
X0396787Y0234142D01*
X0399038Y0234145D01*
X0400635Y0232554D01*
X0400638Y0230303D01*
X0399047Y0228706D01*
X0396796Y0228703D01*
X0397216Y0229723D01*
X0396219Y0230718D01*
X0396216Y0232125D01*
X0397211Y0233122D01*
X0398618Y0233125D01*
X0399615Y0232130D01*
X0399618Y0230723D01*
X0398623Y0229726D01*
X0397216Y0229723D01*
X0397638Y0230744D01*
X0397238Y0231142D01*
X0397237Y0231703D01*
X0397635Y0232103D01*
X0398196Y0232104D01*
X0398596Y0231706D01*
X0398597Y0231145D01*
X0398199Y0230745D01*
X0397638Y0230744D01*
X0407476Y0229401D02*
X0406796Y0228721D01*
X0405199Y0230312D01*
X0405196Y0232563D01*
X0406787Y0234160D01*
X0409038Y0234163D01*
X0410635Y0232572D01*
X0410638Y0230321D01*
X0409047Y0228724D01*
X0406796Y0228721D01*
X0407216Y0229741D01*
X0406219Y0230736D01*
X0406216Y0232143D01*
X0407211Y0233140D01*
X0408618Y0233143D01*
X0409615Y0232148D01*
X0409618Y0230741D01*
X0408623Y0229744D01*
X0407216Y0229741D01*
X0407638Y0230762D01*
X0407238Y0231160D01*
X0407237Y0231721D01*
X0407635Y0232121D01*
X0408196Y0232122D01*
X0408596Y0231724D01*
X0408597Y0231163D01*
X0408199Y0230763D01*
X0407638Y0230762D01*
X0407459Y0239401D02*
X0406779Y0238721D01*
X0405182Y0240312D01*
X0405179Y0242563D01*
X0406770Y0244160D01*
X0409021Y0244163D01*
X0410618Y0242572D01*
X0410621Y0240321D01*
X0409030Y0238724D01*
X0406779Y0238721D01*
X0407199Y0239741D01*
X0406202Y0240736D01*
X0406199Y0242143D01*
X0407194Y0243140D01*
X0408601Y0243143D01*
X0409598Y0242148D01*
X0409601Y0240741D01*
X0408606Y0239744D01*
X0407199Y0239741D01*
X0407621Y0240762D01*
X0407221Y0241160D01*
X0407220Y0241721D01*
X0407618Y0242121D01*
X0408179Y0242122D01*
X0408579Y0241724D01*
X0408580Y0241163D01*
X0408182Y0240763D01*
X0407621Y0240762D01*
X0397459Y0239383D02*
X0396779Y0238703D01*
X0395182Y0240294D01*
X0395179Y0242545D01*
X0396770Y0244142D01*
X0399021Y0244145D01*
X0400618Y0242554D01*
X0400621Y0240303D01*
X0399030Y0238706D01*
X0396779Y0238703D01*
X0397199Y0239723D01*
X0396202Y0240718D01*
X0396199Y0242125D01*
X0397194Y0243122D01*
X0398601Y0243125D01*
X0399598Y0242130D01*
X0399601Y0240723D01*
X0398606Y0239726D01*
X0397199Y0239723D01*
X0397621Y0240744D01*
X0397221Y0241142D01*
X0397220Y0241703D01*
X0397618Y0242103D01*
X0398179Y0242104D01*
X0398579Y0241706D01*
X0398580Y0241145D01*
X0398182Y0240745D01*
X0397621Y0240744D01*
D26*
X0128372Y0247540D03*
X0128372Y0264076D03*
X0106719Y0264076D03*
X0106719Y0247540D03*
D27*
X0077978Y0255808D03*
D28*
X0056571Y0308884D03*
X0056571Y0312033D03*
X0056571Y0315183D03*
X0056571Y0318333D03*
X0056571Y0321482D03*
D29*
X0056571Y0332900D03*
X0034917Y0332900D03*
X0034917Y0297467D03*
X0056571Y0297467D03*
D30*
X0046728Y0306522D03*
X0046728Y0323844D03*
D31*
X0351428Y0114445D03*
X0351428Y0092004D03*
D32*
X0403200Y0085705D03*
X0407137Y0137476D03*
D33*
X0391979Y0119130D03*
X0390405Y0114799D03*
X0391979Y0110469D03*
X0392767Y0106138D03*
X0391979Y0101807D03*
X0392767Y0097476D03*
X0391979Y0093146D03*
X0391979Y0088815D03*
D34*
X0296728Y0230683D03*
X0296728Y0249683D03*
D35*
X0289228Y0307483D02*
X0289228Y0312683D01*
X0279228Y0312683D02*
X0279228Y0307483D01*
X0264228Y0307483D02*
X0264228Y0312683D01*
X0254228Y0312683D02*
X0254228Y0307483D01*
X0239228Y0307483D02*
X0239228Y0312683D01*
X0229228Y0312683D02*
X0229228Y0307483D01*
X0214228Y0307483D02*
X0214228Y0312683D01*
X0204228Y0312683D02*
X0204228Y0307483D01*
X0189228Y0307483D02*
X0189228Y0312683D01*
X0179228Y0312683D02*
X0179228Y0307483D01*
X0164228Y0307483D02*
X0164228Y0312683D01*
X0154228Y0312683D02*
X0154228Y0307483D01*
X0139228Y0307483D02*
X0139228Y0312683D01*
X0129228Y0312683D02*
X0129228Y0307483D01*
X0129228Y0342683D02*
X0129228Y0347883D01*
X0139228Y0347883D02*
X0139228Y0342683D01*
X0154228Y0342683D02*
X0154228Y0347883D01*
X0164228Y0347883D02*
X0164228Y0342683D01*
X0179228Y0342683D02*
X0179228Y0347883D01*
X0189228Y0347883D02*
X0189228Y0342683D01*
X0204228Y0342683D02*
X0204228Y0347883D01*
X0214228Y0347883D02*
X0214228Y0342683D01*
X0229228Y0342683D02*
X0229228Y0347883D01*
X0239228Y0347883D02*
X0239228Y0342683D01*
X0254228Y0342683D02*
X0254228Y0347883D01*
X0264228Y0347883D02*
X0264228Y0342683D01*
X0279228Y0342683D02*
X0279228Y0347883D01*
X0289228Y0347883D02*
X0289228Y0342683D01*
X0304228Y0342683D02*
X0304228Y0347883D01*
X0314228Y0347883D02*
X0314228Y0342683D01*
X0329228Y0342683D02*
X0329228Y0347883D01*
X0339228Y0347883D02*
X0339228Y0342683D01*
X0354228Y0342683D02*
X0354228Y0347883D01*
X0364228Y0347883D02*
X0364228Y0342683D01*
X0364228Y0312683D02*
X0364228Y0307483D01*
X0354228Y0307483D02*
X0354228Y0312683D01*
X0339228Y0312683D02*
X0339228Y0307483D01*
X0329228Y0307483D02*
X0329228Y0312683D01*
X0314228Y0312683D02*
X0314228Y0307483D01*
X0304228Y0307483D02*
X0304228Y0312683D01*
D36*
X0312353Y0333933D03*
X0337353Y0333933D03*
X0287353Y0333933D03*
X0262353Y0333933D03*
X0237353Y0333933D03*
X0212353Y0333933D03*
X0187353Y0333933D03*
X0162353Y0333933D03*
X0137353Y0333933D03*
X0084228Y0299558D03*
X0062353Y0277683D03*
X0040478Y0315183D03*
X0043603Y0408933D03*
X0059228Y0412058D03*
X0099853Y0412058D03*
X0099853Y0424558D03*
X0149853Y0412058D03*
X0234228Y0255808D03*
X0240478Y0246433D03*
X0243603Y0255808D03*
X0237353Y0227683D03*
X0221728Y0230808D03*
X0218603Y0240183D03*
X0199853Y0224558D03*
X0221728Y0212058D03*
X0231103Y0212058D03*
X0240478Y0212058D03*
X0246728Y0180808D03*
X0246728Y0174558D03*
X0246728Y0168308D03*
X0137353Y0243308D03*
X0074853Y0155808D03*
X0040478Y0202683D03*
X0043603Y0205808D03*
X0034228Y0202683D03*
X0115478Y0096433D03*
X0115478Y0074558D03*
X0365478Y0202683D03*
X0374853Y0196433D03*
X0377978Y0187058D03*
X0377978Y0246433D03*
X0384228Y0108933D03*
X0377978Y0093308D03*
X0384228Y0074558D03*
X0315478Y0412058D03*
M02*
