%
M48
M72
T01C0.01378
T02C0.03150
T03C0.03200
T04C0.04000
T05C0.06299
T06C0.07874
T07C0.08500
T08C0.08661
T09C0.09000
T10C0.11811
T11C0.12850
%
T01
X76153Y36496
X106411Y36496
X126411Y34000
X136411Y34000
X136350Y49500
X126350Y49500
X47850Y108000
X47850Y112500
X38850Y112500
X38850Y108000
X45850Y231000
X160850Y335500
X138456Y384874
X231850Y333500
X256271Y324882
X277925Y364252
X255287Y385906
X345259Y384874
X366350Y246000
X357350Y244500
X350850Y238000
X345350Y243596
X356460Y208500
X353850Y113000
X364350Y113000
X340443Y37480
X325169Y37480
X318279Y40433
X256411Y33543
X267098Y110252
X252764Y111586
X259350Y160500
X256350Y164000
X252850Y167000
X225350Y167000
X222350Y164000
X218850Y160500
X34236Y388280
T02
X28350Y269000
X28350Y259000
X27850Y232500
X27850Y222500
X57850Y222500
X57850Y232500
X58350Y259000
X58350Y269000
X344850Y224000
X344850Y214000
X374850Y214000
X374850Y224000
T03
X386350Y222500
X386350Y252500
X310850Y208500
X297850Y209000
X297850Y179000
X310850Y178500
X293820Y108258
X281960Y108307
X281960Y88307
X281960Y80945
X293820Y80945
X293820Y88258
X271850Y71500
X263850Y71500
X281960Y60945
X293820Y60945
X82350Y202500
X82350Y232500
X83350Y252000
X70350Y252000
X70350Y282000
X83350Y282000
X13350Y275000
X13350Y245000
X13350Y235000
X13350Y205000
X22915Y372028
X52915Y372028
X141025Y370994
X171025Y370994
X232413Y371142
X262413Y371142
X331970Y371093
X361970Y371093
T04
X260850Y98000
X260850Y87000
X62779Y198262
X62779Y209262
T05
X21035Y360315
X176405Y360315
X219854Y360315
X322216Y360315
T06
X323744Y328242
X323744Y311742
X323744Y295242
X345444Y295242
X345444Y311742
X345444Y328242
X345444Y182138
X345444Y165638
X345444Y149138
X345444Y132638
X323744Y132638
X323744Y149138
X323744Y165638
X323744Y182138
X323744Y101689
X323744Y85189
X323744Y68689
X323744Y52189
X345444Y52189
X345444Y68689
X345444Y85189
X345444Y101689
X78850Y76500
X57150Y76500
X57150Y129002
X57150Y145502
X57150Y162002
X78850Y162002
X78850Y145502
X78850Y129002
X78857Y295242
X78857Y311742
X78857Y328242
X57157Y328242
X57157Y311742
X57157Y295242
T07
X105533Y332569
X105533Y362569
X105533Y257569
X105533Y227569
X292836Y228258
X292836Y258258
X292836Y333258
X292836Y363258
T08
X226202Y185335
X226202Y145571
X184421Y145817
X184421Y185581
X143082Y185581
X143082Y145817
X102728Y145768
X102728Y185531
X102728Y95768
X102728Y75689
X143082Y75738
X143082Y95817
X184421Y95817
X184421Y75738
X226202Y75492
X226202Y95571
T09
X243968Y248785
X243968Y270285
X243968Y291285
X159765Y291285
X159765Y270285
X159765Y248785
T10
X28410Y76500
X28410Y129002
X28410Y162002
X28417Y295242
X28417Y328242
X374185Y328242
X374185Y295242
X374185Y182138
X374185Y132638
X374185Y101689
X374185Y52189
T11
X388850Y392500
X13850Y392500
M30
