G75*
%MOIN*%
%OFA0B0*%
%FSLAX25Y25*%
%IPPOS*%
%LPD*%
%AMOC8*
5,1,8,0,0,1.08239X$1,22.5*
%
%ADD10C,0.13650*%
%ADD11OC8,0.14580*%
%ADD12R,0.14580X0.14580*%
%ADD13C,0.12611*%
%ADD14R,0.05524X0.02965*%
%ADD15OC8,0.06000*%
%ADD16C,0.00500*%
%ADD17C,0.16800*%
%ADD18R,0.16548X0.16548*%
%ADD19R,0.15800X0.15800*%
%ADD20R,0.02178X0.04343*%
%ADD21R,0.03200X0.09500*%
%ADD22R,0.05131X0.05131*%
%ADD23R,0.07300X0.25800*%
%ADD24C,0.10249*%
%ADD25OC8,0.12611*%
%ADD26R,0.12611X0.12611*%
%ADD27C,0.05950*%
%ADD28C,0.06000*%
%ADD29C,0.03778*%
D10*
X0013850Y0392500D03*
X0388850Y0392500D03*
D11*
X0323744Y0328242D03*
X0323744Y0311742D03*
X0323744Y0295242D03*
X0345444Y0295242D03*
X0345444Y0311742D03*
X0323744Y0182138D03*
X0323744Y0165638D03*
X0323744Y0149138D03*
X0323744Y0132638D03*
X0345444Y0132638D03*
X0345444Y0149138D03*
X0345444Y0165638D03*
X0323744Y0101689D03*
X0323744Y0085189D03*
X0323744Y0068689D03*
X0323744Y0052189D03*
X0345444Y0052189D03*
X0345444Y0068689D03*
X0345444Y0085189D03*
X0078850Y0129002D03*
X0078850Y0145502D03*
X0078850Y0162002D03*
X0057150Y0162002D03*
X0057150Y0145502D03*
X0078857Y0295242D03*
X0078857Y0311742D03*
X0078857Y0328242D03*
X0057157Y0328242D03*
X0057157Y0311742D03*
D12*
X0057157Y0295242D03*
X0057150Y0129002D03*
X0345444Y0101689D03*
X0345444Y0182138D03*
X0345444Y0328242D03*
D13*
X0374185Y0328242D03*
X0374185Y0295242D03*
X0374185Y0182138D03*
X0374185Y0132638D03*
X0374185Y0101689D03*
X0374185Y0052189D03*
X0028410Y0076500D03*
X0028410Y0129002D03*
X0028410Y0162002D03*
X0028417Y0295242D03*
X0028417Y0328242D03*
D14*
X0155483Y0326850D03*
X0155483Y0323110D03*
X0155483Y0330591D03*
X0165720Y0330591D03*
X0165720Y0326850D03*
X0165720Y0323110D03*
X0239145Y0324931D03*
X0239145Y0321191D03*
X0239145Y0328671D03*
X0249382Y0328671D03*
X0249382Y0324931D03*
X0249382Y0321191D03*
D15*
X0262413Y0371142D03*
X0232413Y0371142D03*
X0171025Y0370994D03*
X0141025Y0370994D03*
X0052915Y0372028D03*
X0022915Y0372028D03*
X0070350Y0282000D03*
X0083350Y0282000D03*
X0083350Y0252000D03*
X0070350Y0252000D03*
X0082350Y0232500D03*
X0082350Y0202500D03*
X0013350Y0205000D03*
X0013350Y0235000D03*
X0013350Y0245000D03*
X0013350Y0275000D03*
X0263850Y0071500D03*
X0281960Y0080945D03*
X0281960Y0088307D03*
X0293820Y0088258D03*
X0293820Y0080945D03*
X0293820Y0060945D03*
X0281960Y0060945D03*
X0281960Y0108307D03*
X0293820Y0108258D03*
X0310850Y0178500D03*
X0297850Y0179000D03*
X0297850Y0209000D03*
X0310850Y0208500D03*
X0386350Y0222500D03*
X0386350Y0252500D03*
X0361970Y0371093D03*
X0331970Y0371093D03*
D16*
X0064361Y0210066D02*
X0064504Y0209690D01*
X0064559Y0209292D01*
X0064508Y0208899D01*
X0064370Y0208527D01*
X0064154Y0208195D01*
X0063869Y0207919D01*
X0063530Y0207714D01*
X0063154Y0207590D01*
X0062759Y0207552D01*
X0062376Y0207598D01*
X0062012Y0207729D01*
X0061687Y0207937D01*
X0061416Y0208213D01*
X0061213Y0208542D01*
X0061089Y0208907D01*
X0061049Y0209292D01*
X0061083Y0209673D01*
X0061201Y0210038D01*
X0061397Y0210367D01*
X0061661Y0210644D01*
X0061981Y0210855D01*
X0062339Y0210990D01*
X0062719Y0211042D01*
X0063119Y0211007D01*
X0063502Y0210883D01*
X0063848Y0210678D01*
X0064139Y0210401D01*
X0064361Y0210066D01*
X0064429Y0209888D02*
X0061152Y0209888D01*
X0061058Y0209390D02*
X0064545Y0209390D01*
X0064505Y0208891D02*
X0061094Y0208891D01*
X0061305Y0208393D02*
X0064283Y0208393D01*
X0063827Y0207894D02*
X0061754Y0207894D01*
X0061416Y0210387D02*
X0064149Y0210387D01*
X0063497Y0210885D02*
X0062061Y0210885D01*
X0062719Y0200022D02*
X0063119Y0199987D01*
X0063502Y0199863D01*
X0063848Y0199658D01*
X0064139Y0199381D01*
X0064361Y0199046D01*
X0064504Y0198670D01*
X0064559Y0198272D01*
X0064508Y0197879D01*
X0064370Y0197507D01*
X0064154Y0197175D01*
X0063869Y0196899D01*
X0063530Y0196694D01*
X0063154Y0196570D01*
X0062759Y0196532D01*
X0062376Y0196578D01*
X0062012Y0196709D01*
X0061687Y0196917D01*
X0061416Y0197193D01*
X0061213Y0197522D01*
X0061089Y0197887D01*
X0061049Y0198272D01*
X0061083Y0198653D01*
X0061201Y0199018D01*
X0061397Y0199347D01*
X0061661Y0199624D01*
X0061981Y0199835D01*
X0062339Y0199970D01*
X0062719Y0200022D01*
X0062201Y0199918D02*
X0063333Y0199918D01*
X0064099Y0199419D02*
X0061466Y0199419D01*
X0061169Y0198921D02*
X0064409Y0198921D01*
X0064538Y0198422D02*
X0061062Y0198422D01*
X0061085Y0197924D02*
X0064514Y0197924D01*
X0064317Y0197425D02*
X0061273Y0197425D01*
X0061677Y0196927D02*
X0063897Y0196927D01*
X0259272Y0098776D02*
X0259468Y0099105D01*
X0259732Y0099382D01*
X0260052Y0099593D01*
X0260410Y0099728D01*
X0260790Y0099780D01*
X0261190Y0099745D01*
X0261573Y0099622D01*
X0261919Y0099416D01*
X0262210Y0099139D01*
X0262432Y0098804D01*
X0262575Y0098428D01*
X0262630Y0098030D01*
X0262578Y0097637D01*
X0262441Y0097265D01*
X0262225Y0096933D01*
X0261940Y0096658D01*
X0261601Y0096452D01*
X0261224Y0096328D01*
X0260830Y0096290D01*
X0260446Y0096337D01*
X0260083Y0096467D01*
X0259758Y0096676D01*
X0259487Y0096951D01*
X0259284Y0097280D01*
X0259160Y0097646D01*
X0259120Y0098030D01*
X0259154Y0098411D01*
X0259272Y0098776D01*
X0259254Y0098720D02*
X0262464Y0098720D01*
X0262603Y0098222D02*
X0259137Y0098222D01*
X0259152Y0097723D02*
X0262590Y0097723D01*
X0262415Y0097225D02*
X0259318Y0097225D01*
X0259708Y0096726D02*
X0262011Y0096726D01*
X0262126Y0099219D02*
X0259576Y0099219D01*
X0260381Y0099717D02*
X0261276Y0099717D01*
X0260790Y0088760D02*
X0261190Y0088725D01*
X0261573Y0088602D01*
X0261919Y0088396D01*
X0262210Y0088119D01*
X0262432Y0087784D01*
X0262575Y0087408D01*
X0262630Y0087010D01*
X0262578Y0086617D01*
X0262441Y0086245D01*
X0262225Y0085913D01*
X0261940Y0085638D01*
X0261601Y0085432D01*
X0261224Y0085308D01*
X0260830Y0085270D01*
X0260446Y0085317D01*
X0260083Y0085447D01*
X0259758Y0085656D01*
X0259487Y0085931D01*
X0259284Y0086260D01*
X0259160Y0086626D01*
X0259120Y0087010D01*
X0259154Y0087391D01*
X0259272Y0087756D01*
X0259468Y0088085D01*
X0259732Y0088362D01*
X0260052Y0088573D01*
X0260410Y0088708D01*
X0260790Y0088760D01*
X0260717Y0088750D02*
X0260903Y0088750D01*
X0262071Y0088251D02*
X0259627Y0088251D01*
X0259271Y0087753D02*
X0262444Y0087753D01*
X0262596Y0087254D02*
X0259141Y0087254D01*
X0259146Y0086756D02*
X0262597Y0086756D01*
X0262446Y0086257D02*
X0259286Y0086257D01*
X0259656Y0085759D02*
X0262065Y0085759D01*
D17*
X0243968Y0248785D03*
X0243968Y0270285D03*
X0243968Y0291285D03*
X0159765Y0291285D03*
X0159765Y0270285D03*
X0159765Y0248785D03*
D18*
X0143082Y0185581D03*
X0143082Y0145817D03*
X0102728Y0145768D03*
X0102728Y0185531D03*
X0184421Y0185581D03*
X0184421Y0145817D03*
X0226202Y0145571D03*
X0226202Y0185335D03*
X0226202Y0095571D03*
X0226202Y0075492D03*
X0184421Y0075738D03*
X0184421Y0095817D03*
X0143082Y0095817D03*
X0143082Y0075738D03*
X0102728Y0075689D03*
X0102728Y0095768D03*
D19*
X0105533Y0227569D03*
X0105533Y0257569D03*
X0105533Y0332569D03*
X0105533Y0362569D03*
X0292836Y0363258D03*
X0292836Y0333258D03*
X0292836Y0258258D03*
X0292836Y0228258D03*
D20*
X0272561Y0138514D03*
X0270002Y0138514D03*
X0267443Y0138514D03*
X0264883Y0138514D03*
X0262324Y0138514D03*
X0259765Y0138514D03*
X0257206Y0138514D03*
X0254647Y0138514D03*
X0254647Y0115876D03*
X0257206Y0115876D03*
X0259765Y0115876D03*
X0262324Y0115876D03*
X0264883Y0115876D03*
X0267443Y0115876D03*
X0270002Y0115876D03*
X0272561Y0115876D03*
D21*
X0317128Y0248539D03*
X0322128Y0248539D03*
X0327128Y0248539D03*
X0332128Y0248539D03*
X0332128Y0269139D03*
X0327128Y0269139D03*
X0322128Y0269139D03*
X0317128Y0269139D03*
X0082374Y0351442D03*
X0077374Y0351442D03*
X0072374Y0351442D03*
X0067374Y0351442D03*
X0067374Y0372042D03*
X0072374Y0372042D03*
X0077374Y0372042D03*
X0082374Y0372042D03*
D22*
X0055976Y0395600D03*
X0048102Y0395600D03*
X0148496Y0394222D03*
X0156370Y0394222D03*
X0263161Y0394764D03*
X0271035Y0394764D03*
X0353220Y0395010D03*
X0361094Y0395010D03*
D23*
X0066411Y0017500D03*
X0076411Y0017500D03*
X0086411Y0017500D03*
X0096411Y0017500D03*
X0106411Y0017500D03*
X0116411Y0017500D03*
X0126411Y0017500D03*
X0136411Y0017500D03*
X0146411Y0017500D03*
X0156411Y0017500D03*
X0166411Y0017500D03*
X0176411Y0017500D03*
X0186411Y0017500D03*
X0196411Y0017500D03*
X0206411Y0017500D03*
X0216411Y0017500D03*
X0226411Y0017500D03*
X0236411Y0017500D03*
X0246411Y0017500D03*
X0256411Y0017500D03*
X0266411Y0017500D03*
X0276411Y0017500D03*
X0286411Y0017500D03*
X0296411Y0017500D03*
X0306411Y0017500D03*
X0316411Y0017500D03*
X0326411Y0017500D03*
X0336411Y0017500D03*
D24*
X0322216Y0360315D03*
X0219854Y0360315D03*
X0176405Y0360315D03*
X0021035Y0360315D03*
D25*
X0078850Y0076500D03*
D26*
X0057150Y0076500D03*
D27*
X0057850Y0222500D03*
X0057850Y0232500D03*
X0058350Y0259000D03*
X0058350Y0269000D03*
X0028350Y0269000D03*
X0028350Y0259000D03*
X0027850Y0232500D03*
X0027850Y0222500D03*
X0344850Y0224000D03*
X0344850Y0214000D03*
X0374850Y0214000D03*
X0374850Y0224000D03*
D28*
X0271850Y0071500D03*
D29*
X0256411Y0033543D03*
X0318279Y0040433D03*
X0325169Y0037480D03*
X0340443Y0037480D03*
X0353850Y0113000D03*
X0364350Y0113000D03*
X0356460Y0208500D03*
X0350850Y0238000D03*
X0345350Y0243596D03*
X0357350Y0244500D03*
X0366350Y0246000D03*
X0259350Y0160500D03*
X0256350Y0164000D03*
X0252850Y0167000D03*
X0225350Y0167000D03*
X0222350Y0164000D03*
X0218850Y0160500D03*
X0252764Y0111586D03*
X0267098Y0110252D03*
X0136350Y0049500D03*
X0126350Y0049500D03*
X0126411Y0034000D03*
X0136411Y0034000D03*
X0106411Y0036496D03*
X0076153Y0036496D03*
X0047850Y0108000D03*
X0047850Y0112500D03*
X0038850Y0112500D03*
X0038850Y0108000D03*
X0045850Y0231000D03*
X0160850Y0335500D03*
X0138456Y0384874D03*
X0231850Y0333500D03*
X0256271Y0324882D03*
X0277925Y0364252D03*
X0255287Y0385906D03*
X0345259Y0384874D03*
X0034236Y0388280D03*
M02*
