G75*
%MOIN*%
%OFA0B0*%
%FSLAX25Y25*%
%IPPOS*%
%LPD*%
%AMOC8*
5,1,8,0,0,1.08239X$1,22.5*
%
%ADD10R,0.04724X0.02165*%
%ADD11R,0.01378X0.03543*%
%ADD12R,0.02400X0.08700*%
%ADD13R,0.04331X0.04331*%
%ADD14R,0.06500X0.25000*%
D10*
X0155483Y0323110D03*
X0155483Y0326850D03*
X0155483Y0330591D03*
X0165720Y0330591D03*
X0165720Y0326850D03*
X0165720Y0323110D03*
X0239145Y0324931D03*
X0239145Y0321191D03*
X0239145Y0328671D03*
X0249382Y0328671D03*
X0249382Y0324931D03*
X0249382Y0321191D03*
D11*
X0254647Y0138514D03*
X0257206Y0138514D03*
X0259765Y0138514D03*
X0262324Y0138514D03*
X0264883Y0138514D03*
X0267443Y0138514D03*
X0270002Y0138514D03*
X0272561Y0138514D03*
X0272561Y0115876D03*
X0270002Y0115876D03*
X0267443Y0115876D03*
X0264883Y0115876D03*
X0262324Y0115876D03*
X0259765Y0115876D03*
X0257206Y0115876D03*
X0254647Y0115876D03*
D12*
X0317128Y0248539D03*
X0322128Y0248539D03*
X0327128Y0248539D03*
X0332128Y0248539D03*
X0332128Y0269139D03*
X0327128Y0269139D03*
X0322128Y0269139D03*
X0317128Y0269139D03*
X0082374Y0351442D03*
X0077374Y0351442D03*
X0072374Y0351442D03*
X0067374Y0351442D03*
X0067374Y0372042D03*
X0072374Y0372042D03*
X0077374Y0372042D03*
X0082374Y0372042D03*
D13*
X0055976Y0395600D03*
X0048102Y0395600D03*
X0148496Y0394222D03*
X0156370Y0394222D03*
X0263161Y0394764D03*
X0271035Y0394764D03*
X0353220Y0395010D03*
X0361094Y0395010D03*
D14*
X0066411Y0017500D03*
X0076411Y0017500D03*
X0086411Y0017500D03*
X0096411Y0017500D03*
X0106411Y0017500D03*
X0116411Y0017500D03*
X0126411Y0017500D03*
X0136411Y0017500D03*
X0146411Y0017500D03*
X0156411Y0017500D03*
X0166411Y0017500D03*
X0176411Y0017500D03*
X0186411Y0017500D03*
X0196411Y0017500D03*
X0206411Y0017500D03*
X0216411Y0017500D03*
X0226411Y0017500D03*
X0236411Y0017500D03*
X0246411Y0017500D03*
X0256411Y0017500D03*
X0266411Y0017500D03*
X0276411Y0017500D03*
X0286411Y0017500D03*
X0296411Y0017500D03*
X0306411Y0017500D03*
X0316411Y0017500D03*
X0326411Y0017500D03*
X0336411Y0017500D03*
M02*
