G75*
%MOIN*%
%OFA0B0*%
%FSLAX25Y25*%
%IPPOS*%
%LPD*%
%AMOC8*
5,1,8,0,0,1.08239X$1,22.5*
%
%ADD10C,0.00400*%
%ADD11C,0.00600*%
%ADD12C,0.00800*%
%ADD13C,0.01100*%
%ADD14R,0.05906X0.09843*%
%ADD15C,0.01000*%
%ADD16C,0.00100*%
%ADD17C,0.00500*%
%ADD18C,0.00700*%
%ADD19C,0.01682*%
D10*
X0182796Y0216330D02*
X0182796Y0219733D01*
X0182796Y0221394D02*
X0187900Y0221394D01*
X0185348Y0221394D02*
X0184497Y0222245D01*
X0184497Y0223946D01*
X0185348Y0224797D01*
X0187900Y0224797D01*
X0187049Y0226459D02*
X0185348Y0226459D01*
X0184497Y0227309D01*
X0184497Y0229011D01*
X0185348Y0229861D01*
X0186199Y0229861D01*
X0186199Y0226459D01*
X0187049Y0226459D02*
X0187900Y0227309D01*
X0187900Y0229011D01*
X0192747Y0229011D02*
X0192747Y0226459D01*
X0196150Y0226459D01*
X0194449Y0224797D02*
X0194449Y0221394D01*
X0195299Y0221394D02*
X0193598Y0221394D01*
X0192747Y0222245D01*
X0192747Y0223946D01*
X0193598Y0224797D01*
X0194449Y0224797D01*
X0196150Y0223946D02*
X0196150Y0222245D01*
X0195299Y0221394D01*
X0195299Y0219733D02*
X0196150Y0218882D01*
X0196150Y0217181D01*
X0195299Y0216330D01*
X0191896Y0216330D01*
X0191046Y0217181D01*
X0191046Y0218882D01*
X0191896Y0219733D01*
X0187900Y0218031D02*
X0182796Y0218031D01*
X0192747Y0229011D02*
X0193598Y0229861D01*
X0196150Y0229861D01*
X0195299Y0232374D02*
X0191896Y0232374D01*
X0192747Y0233224D02*
X0192747Y0231523D01*
X0195299Y0232374D02*
X0196150Y0233224D01*
X0195299Y0234899D02*
X0193598Y0234899D01*
X0192747Y0235750D01*
X0192747Y0237451D01*
X0193598Y0238302D01*
X0194449Y0238302D01*
X0194449Y0234899D01*
X0195299Y0234899D02*
X0196150Y0235750D01*
X0196150Y0237451D01*
X0196150Y0239963D02*
X0192747Y0239963D01*
X0194449Y0239963D02*
X0192747Y0241665D01*
X0192747Y0242516D01*
X0187900Y0241652D02*
X0182796Y0241652D01*
X0183646Y0239990D02*
X0182796Y0239139D01*
X0182796Y0237438D01*
X0183646Y0236587D01*
X0187049Y0236587D01*
X0187900Y0237438D01*
X0187900Y0239139D01*
X0187049Y0239990D01*
X0183646Y0239990D01*
X0185348Y0241652D02*
X0184497Y0242502D01*
X0184497Y0244204D01*
X0185348Y0245054D01*
X0187900Y0245054D01*
X0187900Y0246716D02*
X0187900Y0248417D01*
X0187900Y0247567D02*
X0184497Y0247567D01*
X0184497Y0246716D01*
X0182796Y0247567D02*
X0181945Y0247567D01*
X0184497Y0250943D02*
X0185348Y0250092D01*
X0187049Y0250092D01*
X0187900Y0250943D01*
X0187900Y0252644D01*
X0187049Y0253495D01*
X0185348Y0253495D01*
X0184497Y0252644D01*
X0184497Y0250943D01*
X0191046Y0250949D02*
X0191896Y0250099D01*
X0196150Y0250099D01*
X0195299Y0252624D02*
X0196150Y0253475D01*
X0196150Y0255176D01*
X0195299Y0256027D01*
X0193598Y0256027D01*
X0192747Y0255176D01*
X0192747Y0253475D01*
X0193598Y0252624D01*
X0195299Y0252624D01*
X0193598Y0250949D02*
X0193598Y0249248D01*
X0194449Y0257689D02*
X0192747Y0259390D01*
X0192747Y0260241D01*
X0192747Y0257689D02*
X0196150Y0257689D01*
X0187900Y0261071D02*
X0187049Y0260221D01*
X0187900Y0261071D02*
X0187900Y0262773D01*
X0187049Y0263624D01*
X0186199Y0263624D01*
X0185348Y0262773D01*
X0185348Y0261071D01*
X0184497Y0260221D01*
X0183646Y0260221D01*
X0182796Y0261071D01*
X0182796Y0262773D01*
X0183646Y0263624D01*
X0184497Y0265285D02*
X0184497Y0266986D01*
X0183646Y0266136D02*
X0187049Y0266136D01*
X0187900Y0266986D01*
X0187049Y0268661D02*
X0186199Y0269512D01*
X0186199Y0272064D01*
X0185348Y0272064D02*
X0187900Y0272064D01*
X0187900Y0269512D01*
X0187049Y0268661D01*
X0184497Y0269512D02*
X0184497Y0271213D01*
X0185348Y0272064D01*
X0184497Y0273726D02*
X0184497Y0275427D01*
X0183646Y0274576D02*
X0187049Y0274576D01*
X0187900Y0275427D01*
X0187049Y0277102D02*
X0185348Y0277102D01*
X0184497Y0277953D01*
X0184497Y0279654D01*
X0185348Y0280505D01*
X0186199Y0280505D01*
X0186199Y0277102D01*
X0187049Y0277102D02*
X0187900Y0277953D01*
X0187900Y0279654D01*
X0191896Y0277952D02*
X0195299Y0277952D01*
X0196150Y0278803D01*
X0195299Y0280478D02*
X0196150Y0281329D01*
X0196150Y0283030D01*
X0195299Y0283881D01*
X0193598Y0283881D01*
X0192747Y0283030D01*
X0192747Y0281329D01*
X0193598Y0280478D01*
X0195299Y0280478D01*
X0192747Y0278803D02*
X0192747Y0277102D01*
X0192747Y0275440D02*
X0196150Y0275440D01*
X0196150Y0272888D01*
X0195299Y0272037D01*
X0192747Y0272037D01*
X0192747Y0270376D02*
X0196150Y0270376D01*
X0193598Y0270376D02*
X0193598Y0266973D01*
X0192747Y0266973D02*
X0196150Y0266973D01*
X0192747Y0266973D02*
X0191046Y0268675D01*
X0192747Y0270376D01*
X0192747Y0285542D02*
X0192747Y0286393D01*
X0193598Y0287244D01*
X0192747Y0288094D01*
X0193598Y0288945D01*
X0196150Y0288945D01*
X0196150Y0287244D02*
X0193598Y0287244D01*
X0192747Y0285542D02*
X0196150Y0285542D01*
X0195299Y0290607D02*
X0196150Y0291457D01*
X0196150Y0293159D01*
X0195299Y0294010D01*
X0193598Y0294010D01*
X0192747Y0293159D01*
X0192747Y0291457D01*
X0193598Y0290607D01*
X0195299Y0290607D01*
X0192747Y0295671D02*
X0192747Y0297372D01*
X0191896Y0296522D02*
X0195299Y0296522D01*
X0196150Y0297372D01*
X0196150Y0299047D02*
X0196150Y0300749D01*
X0196150Y0299898D02*
X0192747Y0299898D01*
X0192747Y0299047D01*
X0191046Y0299898D02*
X0190195Y0299898D01*
X0187900Y0299061D02*
X0187900Y0297359D01*
X0187900Y0298210D02*
X0184497Y0298210D01*
X0184497Y0297359D01*
X0185348Y0295698D02*
X0184497Y0294847D01*
X0184497Y0292295D01*
X0187900Y0292295D01*
X0187049Y0290633D02*
X0182796Y0290633D01*
X0182796Y0287230D02*
X0187049Y0287230D01*
X0187900Y0288081D01*
X0187900Y0289783D01*
X0187049Y0290633D01*
X0187900Y0295698D02*
X0185348Y0295698D01*
X0182796Y0298210D02*
X0181945Y0298210D01*
X0184497Y0300735D02*
X0187900Y0302437D01*
X0184497Y0304138D01*
X0185348Y0305800D02*
X0184497Y0306650D01*
X0184497Y0308352D01*
X0185348Y0309203D01*
X0186199Y0309203D01*
X0186199Y0305800D01*
X0187049Y0305800D02*
X0185348Y0305800D01*
X0187049Y0305800D02*
X0187900Y0306650D01*
X0187900Y0308352D01*
X0187900Y0310864D02*
X0184497Y0310864D01*
X0184497Y0312565D02*
X0184497Y0313416D01*
X0184497Y0312565D02*
X0186199Y0310864D01*
X0187900Y0315084D02*
X0187900Y0316786D01*
X0187900Y0315935D02*
X0184497Y0315935D01*
X0184497Y0315084D01*
X0182796Y0315935D02*
X0181945Y0315935D01*
X0184497Y0318460D02*
X0184497Y0320162D01*
X0183646Y0319311D02*
X0187049Y0319311D01*
X0187900Y0320162D01*
X0187049Y0321837D02*
X0184497Y0321837D01*
X0187049Y0321837D02*
X0187900Y0322687D01*
X0187900Y0325240D01*
X0188751Y0325240D02*
X0189601Y0324389D01*
X0189601Y0323538D01*
X0188751Y0325240D02*
X0184497Y0325240D01*
X0192747Y0325233D02*
X0192747Y0323531D01*
X0193598Y0322681D01*
X0195299Y0322681D01*
X0196150Y0323531D01*
X0196150Y0325233D01*
X0194449Y0326084D02*
X0194449Y0322681D01*
X0193598Y0321019D02*
X0194449Y0320169D01*
X0194449Y0317616D01*
X0196150Y0317616D02*
X0191046Y0317616D01*
X0191046Y0320169D01*
X0191896Y0321019D01*
X0193598Y0321019D01*
X0194449Y0319318D02*
X0196150Y0321019D01*
X0194449Y0326084D02*
X0193598Y0326084D01*
X0192747Y0325233D01*
X0193598Y0327745D02*
X0192747Y0328596D01*
X0192747Y0331148D01*
X0193598Y0332809D02*
X0192747Y0333660D01*
X0192747Y0335361D01*
X0193598Y0336212D01*
X0194449Y0336212D01*
X0194449Y0332809D01*
X0195299Y0332809D02*
X0193598Y0332809D01*
X0195299Y0332809D02*
X0196150Y0333660D01*
X0196150Y0335361D01*
X0195299Y0337874D02*
X0194449Y0338724D01*
X0194449Y0341277D01*
X0193598Y0341277D02*
X0196150Y0341277D01*
X0196150Y0338724D01*
X0195299Y0337874D01*
X0192747Y0338724D02*
X0192747Y0340426D01*
X0193598Y0341277D01*
X0194449Y0342938D02*
X0192747Y0344639D01*
X0192747Y0345490D01*
X0193598Y0347158D02*
X0192747Y0348009D01*
X0192747Y0350561D01*
X0193598Y0352223D02*
X0192747Y0353073D01*
X0192747Y0354775D01*
X0193598Y0355625D01*
X0196150Y0355625D01*
X0196150Y0352223D02*
X0191046Y0352223D01*
X0196150Y0350561D02*
X0196150Y0348009D01*
X0195299Y0347158D01*
X0193598Y0347158D01*
X0192747Y0342938D02*
X0196150Y0342938D01*
X0195299Y0331148D02*
X0194449Y0330297D01*
X0194449Y0328596D01*
X0193598Y0327745D01*
X0196150Y0327745D02*
X0196150Y0330297D01*
X0195299Y0331148D01*
X0209296Y0331621D02*
X0209296Y0335024D01*
X0209296Y0333323D02*
X0214400Y0333323D01*
X0213549Y0336686D02*
X0211848Y0336686D01*
X0210997Y0337536D01*
X0210997Y0339238D01*
X0211848Y0340088D01*
X0212699Y0340088D01*
X0212699Y0336686D01*
X0213549Y0336686D02*
X0214400Y0337536D01*
X0214400Y0339238D01*
X0213549Y0341750D02*
X0212699Y0342601D01*
X0212699Y0345153D01*
X0211848Y0345153D02*
X0214400Y0345153D01*
X0214400Y0342601D01*
X0213549Y0341750D01*
X0210997Y0342601D02*
X0210997Y0344302D01*
X0211848Y0345153D01*
X0210997Y0346814D02*
X0210997Y0347665D01*
X0211848Y0348516D01*
X0210997Y0349366D01*
X0211848Y0350217D01*
X0214400Y0350217D01*
X0214400Y0348516D02*
X0211848Y0348516D01*
X0210997Y0346814D02*
X0214400Y0346814D01*
X0217546Y0344302D02*
X0218396Y0345153D01*
X0221799Y0341750D01*
X0222650Y0342601D01*
X0222650Y0344302D01*
X0221799Y0345153D01*
X0218396Y0345153D01*
X0217546Y0344302D02*
X0217546Y0342601D01*
X0218396Y0341750D01*
X0221799Y0341750D01*
X0221799Y0340068D02*
X0222650Y0340068D01*
X0222650Y0339218D01*
X0221799Y0339218D01*
X0221799Y0340068D01*
X0222650Y0337556D02*
X0222650Y0334153D01*
X0219247Y0337556D01*
X0218396Y0337556D01*
X0217546Y0336706D01*
X0217546Y0335004D01*
X0218396Y0334153D01*
X0221799Y0327408D02*
X0222650Y0327408D01*
X0222650Y0326557D01*
X0221799Y0326557D01*
X0221799Y0327408D01*
X0219247Y0324895D02*
X0222650Y0323194D01*
X0219247Y0321493D01*
X0220098Y0319831D02*
X0220949Y0319831D01*
X0220949Y0316428D01*
X0221799Y0316428D02*
X0220098Y0316428D01*
X0219247Y0317279D01*
X0219247Y0318980D01*
X0220098Y0319831D01*
X0222650Y0318980D02*
X0222650Y0317279D01*
X0221799Y0316428D01*
X0222650Y0314767D02*
X0220949Y0313065D01*
X0220949Y0313916D02*
X0220949Y0311364D01*
X0222650Y0311364D02*
X0217546Y0311364D01*
X0217546Y0313916D01*
X0218396Y0314767D01*
X0220098Y0314767D01*
X0220949Y0313916D01*
X0214400Y0313903D02*
X0210997Y0313903D01*
X0210997Y0313052D01*
X0210997Y0311377D02*
X0210997Y0309676D01*
X0210146Y0310527D02*
X0213549Y0310527D01*
X0214400Y0311377D01*
X0214400Y0313052D02*
X0214400Y0314753D01*
X0213549Y0316428D02*
X0214400Y0317279D01*
X0214400Y0319831D01*
X0214400Y0321493D02*
X0214400Y0324045D01*
X0213549Y0324895D01*
X0212699Y0324045D01*
X0212699Y0322343D01*
X0211848Y0321493D01*
X0210997Y0322343D01*
X0210997Y0324895D01*
X0210997Y0319831D02*
X0210997Y0317279D01*
X0211848Y0316428D01*
X0213549Y0316428D01*
X0209296Y0313903D02*
X0208445Y0313903D01*
X0211848Y0308014D02*
X0210997Y0307164D01*
X0210997Y0305462D01*
X0211848Y0304611D01*
X0213549Y0304611D01*
X0214400Y0305462D01*
X0214400Y0307164D01*
X0213549Y0308014D01*
X0211848Y0308014D01*
X0211848Y0302950D02*
X0210997Y0302099D01*
X0210997Y0299547D01*
X0209296Y0299547D02*
X0214400Y0299547D01*
X0214400Y0302099D01*
X0213549Y0302950D01*
X0211848Y0302950D01*
X0211848Y0297886D02*
X0210997Y0297035D01*
X0210997Y0295334D01*
X0211848Y0294483D01*
X0213549Y0294483D01*
X0214400Y0295334D01*
X0214400Y0297035D01*
X0213549Y0297886D01*
X0211848Y0297886D01*
X0211848Y0292821D02*
X0212699Y0291971D01*
X0212699Y0289419D01*
X0212699Y0291120D02*
X0214400Y0292821D01*
X0211848Y0292821D02*
X0210146Y0292821D01*
X0209296Y0291971D01*
X0209296Y0289419D01*
X0214400Y0289419D01*
X0219247Y0289439D02*
X0219247Y0288588D01*
X0220949Y0286886D01*
X0220949Y0285225D02*
X0220949Y0281822D01*
X0221799Y0281822D02*
X0220098Y0281822D01*
X0219247Y0282673D01*
X0219247Y0284374D01*
X0220098Y0285225D01*
X0220949Y0285225D01*
X0222650Y0284374D02*
X0222650Y0282673D01*
X0221799Y0281822D01*
X0222650Y0280161D02*
X0222650Y0277608D01*
X0221799Y0276758D01*
X0220098Y0276758D01*
X0219247Y0277608D01*
X0219247Y0280161D01*
X0214400Y0280134D02*
X0210997Y0280134D01*
X0210997Y0281835D02*
X0212699Y0280134D01*
X0212699Y0278473D02*
X0212699Y0275070D01*
X0213549Y0275070D02*
X0211848Y0275070D01*
X0210997Y0275920D01*
X0210997Y0277622D01*
X0211848Y0278473D01*
X0212699Y0278473D01*
X0214400Y0277622D02*
X0214400Y0275920D01*
X0213549Y0275070D01*
X0214400Y0273395D02*
X0213549Y0272544D01*
X0210146Y0272544D01*
X0210997Y0271693D02*
X0210997Y0273395D01*
X0211848Y0270032D02*
X0214400Y0270032D01*
X0214400Y0267480D01*
X0213549Y0266629D01*
X0212699Y0267480D01*
X0212699Y0270032D01*
X0211848Y0270032D02*
X0210997Y0269181D01*
X0210997Y0267480D01*
X0210997Y0264968D02*
X0213549Y0264968D01*
X0214400Y0264117D01*
X0213549Y0263266D01*
X0214400Y0262415D01*
X0213549Y0261565D01*
X0210997Y0261565D01*
X0210997Y0259897D02*
X0210997Y0259046D01*
X0212699Y0257344D01*
X0212699Y0255683D02*
X0212699Y0252280D01*
X0213549Y0252280D02*
X0211848Y0252280D01*
X0210997Y0253131D01*
X0210997Y0254832D01*
X0211848Y0255683D01*
X0212699Y0255683D01*
X0214400Y0254832D02*
X0214400Y0253131D01*
X0213549Y0252280D01*
X0214400Y0250619D02*
X0214400Y0248067D01*
X0213549Y0247216D01*
X0211848Y0247216D01*
X0210997Y0248067D01*
X0210997Y0250619D01*
X0209296Y0250619D02*
X0214400Y0250619D01*
X0217546Y0253124D02*
X0217546Y0255676D01*
X0218396Y0256527D01*
X0219247Y0256527D01*
X0220098Y0255676D01*
X0220098Y0253124D01*
X0222650Y0253124D02*
X0217546Y0253124D01*
X0220098Y0255676D02*
X0220949Y0256527D01*
X0221799Y0256527D01*
X0222650Y0255676D01*
X0222650Y0253124D01*
X0221799Y0258189D02*
X0220949Y0259039D01*
X0220949Y0261591D01*
X0220098Y0261591D02*
X0222650Y0261591D01*
X0222650Y0259039D01*
X0221799Y0258189D01*
X0219247Y0259039D02*
X0219247Y0260741D01*
X0220098Y0261591D01*
X0222650Y0263253D02*
X0222650Y0264954D01*
X0222650Y0264104D02*
X0217546Y0264104D01*
X0217546Y0263253D01*
X0219247Y0267480D02*
X0219247Y0269181D01*
X0220098Y0270032D01*
X0222650Y0270032D01*
X0222650Y0267480D01*
X0221799Y0266629D01*
X0220949Y0267480D01*
X0220949Y0270032D01*
X0222650Y0271693D02*
X0219247Y0271693D01*
X0219247Y0274246D01*
X0220098Y0275096D01*
X0222650Y0275096D01*
X0222650Y0286886D02*
X0219247Y0286886D01*
X0210997Y0282686D02*
X0210997Y0281835D01*
X0220098Y0296171D02*
X0220098Y0299574D01*
X0220098Y0301235D02*
X0220098Y0304638D01*
X0196150Y0304125D02*
X0192747Y0305826D01*
X0193598Y0307488D02*
X0192747Y0308338D01*
X0192747Y0310040D01*
X0193598Y0310891D01*
X0194449Y0310891D01*
X0194449Y0307488D01*
X0195299Y0307488D02*
X0193598Y0307488D01*
X0195299Y0307488D02*
X0196150Y0308338D01*
X0196150Y0310040D01*
X0196150Y0304125D02*
X0192747Y0302423D01*
X0210997Y0257344D02*
X0214400Y0257344D01*
X0214400Y0245554D02*
X0211848Y0245554D01*
X0210997Y0244704D01*
X0210997Y0242152D01*
X0214400Y0242152D01*
X0213549Y0240490D02*
X0209296Y0240490D01*
X0209296Y0237087D02*
X0213549Y0237087D01*
X0214400Y0237938D01*
X0214400Y0239639D01*
X0213549Y0240490D01*
X0219247Y0240477D02*
X0220949Y0238775D01*
X0220949Y0237114D02*
X0220949Y0233711D01*
X0221799Y0233711D02*
X0220098Y0233711D01*
X0219247Y0234562D01*
X0219247Y0236263D01*
X0220098Y0237114D01*
X0220949Y0237114D01*
X0222650Y0236263D02*
X0222650Y0234562D01*
X0221799Y0233711D01*
X0222650Y0232036D02*
X0221799Y0231186D01*
X0218396Y0231186D01*
X0219247Y0232036D02*
X0219247Y0230335D01*
X0219247Y0228660D02*
X0219247Y0226959D01*
X0218396Y0227809D02*
X0221799Y0227809D01*
X0222650Y0228660D01*
X0222650Y0225297D02*
X0220098Y0225297D01*
X0219247Y0224446D01*
X0219247Y0222745D01*
X0220949Y0222745D02*
X0220949Y0225297D01*
X0222650Y0225297D02*
X0222650Y0222745D01*
X0221799Y0221894D01*
X0220949Y0222745D01*
X0220949Y0220233D02*
X0221799Y0220233D01*
X0222650Y0219382D01*
X0222650Y0216830D01*
X0217546Y0216830D01*
X0217546Y0219382D01*
X0218396Y0220233D01*
X0219247Y0220233D01*
X0220098Y0219382D01*
X0220098Y0216830D01*
X0220098Y0219382D02*
X0220949Y0220233D01*
X0214400Y0221894D02*
X0209296Y0221894D01*
X0209296Y0220233D02*
X0209296Y0216830D01*
X0209296Y0218531D02*
X0214400Y0218531D01*
X0211848Y0221894D02*
X0210997Y0222745D01*
X0210997Y0224446D01*
X0211848Y0225297D01*
X0214400Y0225297D01*
X0213549Y0226959D02*
X0211848Y0226959D01*
X0210997Y0227809D01*
X0210997Y0229511D01*
X0211848Y0230361D01*
X0212699Y0230361D01*
X0212699Y0226959D01*
X0213549Y0226959D02*
X0214400Y0227809D01*
X0214400Y0229511D01*
X0219247Y0238775D02*
X0222650Y0238775D01*
X0219247Y0240477D02*
X0219247Y0241327D01*
X0219247Y0242996D02*
X0221799Y0242996D01*
X0222650Y0243846D01*
X0222650Y0246398D01*
X0223501Y0246398D02*
X0224351Y0245548D01*
X0224351Y0244697D01*
X0223501Y0246398D02*
X0219247Y0246398D01*
X0276567Y0132172D02*
X0275800Y0131405D01*
X0275800Y0129870D01*
X0276567Y0129103D01*
X0279637Y0129103D01*
X0280404Y0129870D01*
X0280404Y0131405D01*
X0279637Y0132172D01*
X0279637Y0127568D02*
X0276567Y0127568D01*
X0275800Y0126801D01*
X0275800Y0124499D01*
X0280404Y0124499D01*
X0280404Y0126801D01*
X0279637Y0127568D01*
X0280404Y0122964D02*
X0277335Y0122964D01*
X0275800Y0121430D01*
X0277335Y0119895D01*
X0280404Y0119895D01*
X0278102Y0119895D02*
X0278102Y0122964D01*
X0300680Y0105482D02*
X0303283Y0105482D01*
X0304150Y0104615D01*
X0303283Y0103748D01*
X0304150Y0102880D01*
X0303283Y0102013D01*
X0300680Y0102013D01*
X0301548Y0100326D02*
X0300680Y0099459D01*
X0300680Y0097724D01*
X0301548Y0096856D01*
X0303283Y0096856D01*
X0304150Y0097724D01*
X0304150Y0099459D01*
X0303283Y0100326D01*
X0301548Y0100326D01*
X0304150Y0095170D02*
X0304150Y0091700D01*
X0298946Y0091700D01*
X0306946Y0093092D02*
X0306946Y0095694D01*
X0307813Y0096561D01*
X0309548Y0096561D01*
X0310415Y0095694D01*
X0310415Y0093092D01*
X0310415Y0094827D02*
X0312150Y0096561D01*
X0311283Y0098248D02*
X0309548Y0098248D01*
X0308680Y0099116D01*
X0308680Y0100850D01*
X0309548Y0101718D01*
X0310415Y0101718D01*
X0310415Y0098248D01*
X0311283Y0098248D02*
X0312150Y0099116D01*
X0312150Y0100850D01*
X0312150Y0103405D02*
X0312150Y0106007D01*
X0311283Y0106874D01*
X0310415Y0106007D01*
X0310415Y0104272D01*
X0309548Y0103405D01*
X0308680Y0104272D01*
X0308680Y0106874D01*
X0308680Y0108561D02*
X0308680Y0109428D01*
X0312150Y0109428D01*
X0312150Y0108561D02*
X0312150Y0110296D01*
X0312150Y0111999D02*
X0312150Y0114601D01*
X0311283Y0115468D01*
X0310415Y0114601D01*
X0310415Y0112866D01*
X0309548Y0111999D01*
X0308680Y0112866D01*
X0308680Y0115468D01*
X0308680Y0117155D02*
X0308680Y0118890D01*
X0307813Y0118022D02*
X0311283Y0118022D01*
X0312150Y0118890D01*
X0311283Y0120593D02*
X0312150Y0121460D01*
X0312150Y0123195D01*
X0311283Y0124062D01*
X0309548Y0124062D01*
X0308680Y0123195D01*
X0308680Y0121460D01*
X0309548Y0120593D01*
X0311283Y0120593D01*
X0312150Y0125749D02*
X0308680Y0125749D01*
X0308680Y0127484D02*
X0308680Y0128351D01*
X0308680Y0127484D02*
X0310415Y0125749D01*
X0309548Y0130046D02*
X0308680Y0130913D01*
X0308680Y0133516D01*
X0310415Y0132648D02*
X0310415Y0130913D01*
X0309548Y0130046D01*
X0312150Y0130046D02*
X0312150Y0132648D01*
X0311283Y0133516D01*
X0310415Y0132648D01*
X0306946Y0109428D02*
X0306078Y0109428D01*
X0306946Y0093092D02*
X0312150Y0093092D01*
X0311283Y0086249D02*
X0310415Y0085381D01*
X0310415Y0083646D01*
X0309548Y0082779D01*
X0308680Y0083646D01*
X0308680Y0086249D01*
X0311283Y0086249D02*
X0312150Y0085381D01*
X0312150Y0082779D01*
X0311283Y0081092D02*
X0310415Y0080225D01*
X0310415Y0078490D01*
X0309548Y0077623D01*
X0308680Y0078490D01*
X0308680Y0081092D01*
X0311283Y0081092D02*
X0312150Y0080225D01*
X0312150Y0077623D01*
X0310415Y0075936D02*
X0309548Y0075936D01*
X0308680Y0075068D01*
X0308680Y0073334D01*
X0309548Y0072466D01*
X0311283Y0072466D01*
X0312150Y0073334D01*
X0312150Y0075068D01*
X0310415Y0075936D02*
X0310415Y0072466D01*
X0308680Y0070771D02*
X0308680Y0069904D01*
X0310415Y0068169D01*
X0312150Y0068169D02*
X0308680Y0068169D01*
X0308680Y0066482D02*
X0308680Y0063880D01*
X0309548Y0063013D01*
X0311283Y0063013D01*
X0312150Y0063880D01*
X0312150Y0066482D01*
X0306946Y0066482D01*
X0304150Y0067170D02*
X0298946Y0067170D01*
X0300680Y0068856D02*
X0300680Y0069724D01*
X0304150Y0069724D01*
X0304150Y0070591D02*
X0304150Y0068856D01*
X0301548Y0067170D02*
X0301548Y0063700D01*
X0304150Y0063700D02*
X0298946Y0063700D01*
X0298946Y0069724D02*
X0298078Y0069724D01*
X0300680Y0073161D02*
X0301548Y0072294D01*
X0303283Y0072294D01*
X0304150Y0073161D01*
X0304150Y0075764D01*
X0305017Y0075764D02*
X0300680Y0075764D01*
X0300680Y0073161D01*
X0301548Y0077450D02*
X0300680Y0078318D01*
X0300680Y0080053D01*
X0301548Y0080920D01*
X0304150Y0080920D01*
X0304150Y0077450D02*
X0298946Y0077450D01*
X0305017Y0075764D02*
X0305885Y0074896D01*
X0305885Y0074029D01*
X0306946Y0061326D02*
X0312150Y0061326D01*
X0312150Y0058724D01*
X0311283Y0057856D01*
X0309548Y0057856D01*
X0308680Y0058724D01*
X0308680Y0061326D01*
X0308680Y0056170D02*
X0312150Y0056170D01*
X0309548Y0056170D02*
X0309548Y0052700D01*
X0308680Y0052700D02*
X0306946Y0054435D01*
X0308680Y0056170D01*
X0308680Y0052700D02*
X0312150Y0052700D01*
X0296150Y0052356D02*
X0296150Y0055826D01*
X0296150Y0054091D02*
X0290946Y0054091D01*
X0292680Y0052356D01*
X0292680Y0050670D02*
X0296150Y0050670D01*
X0293548Y0050670D02*
X0293548Y0047200D01*
X0292680Y0047200D02*
X0290946Y0048935D01*
X0292680Y0050670D01*
X0292680Y0047200D02*
X0296150Y0047200D01*
X0284650Y0047200D02*
X0281180Y0047200D01*
X0279446Y0048935D01*
X0281180Y0050670D01*
X0284650Y0050670D01*
X0283783Y0052356D02*
X0280313Y0055826D01*
X0283783Y0055826D01*
X0284650Y0054959D01*
X0284650Y0053224D01*
X0283783Y0052356D01*
X0280313Y0052356D01*
X0279446Y0053224D01*
X0279446Y0054959D01*
X0280313Y0055826D01*
X0282048Y0050670D02*
X0282048Y0047200D01*
X0280723Y0381700D02*
X0278988Y0381700D01*
X0279856Y0381700D02*
X0279856Y0385170D01*
X0278988Y0385170D01*
X0277302Y0385170D02*
X0277302Y0382567D01*
X0276434Y0381700D01*
X0275567Y0382567D01*
X0274699Y0381700D01*
X0273832Y0382567D01*
X0273832Y0385170D01*
X0272145Y0386037D02*
X0271278Y0386904D01*
X0269543Y0386904D01*
X0268676Y0386037D01*
X0268676Y0385170D01*
X0269543Y0384302D01*
X0271278Y0384302D01*
X0272145Y0383435D01*
X0272145Y0382567D01*
X0271278Y0381700D01*
X0269543Y0381700D01*
X0268676Y0382567D01*
X0261816Y0381700D02*
X0260082Y0381700D01*
X0260949Y0381700D02*
X0260949Y0386904D01*
X0260082Y0386904D01*
X0257511Y0386904D02*
X0257511Y0381700D01*
X0256644Y0381700D02*
X0258379Y0381700D01*
X0254941Y0381700D02*
X0253206Y0381700D01*
X0254074Y0381700D02*
X0254074Y0385170D01*
X0253206Y0385170D01*
X0254074Y0386904D02*
X0254074Y0387772D01*
X0251520Y0386904D02*
X0248050Y0383435D01*
X0248917Y0384302D02*
X0251520Y0381700D01*
X0248050Y0381700D02*
X0248050Y0386904D01*
X0256644Y0386904D02*
X0257511Y0386904D01*
X0279856Y0386904D02*
X0279856Y0387772D01*
X0282426Y0385170D02*
X0284161Y0385170D01*
X0283293Y0386037D02*
X0283293Y0382567D01*
X0284161Y0381700D01*
X0285864Y0382567D02*
X0286731Y0381700D01*
X0289333Y0381700D01*
X0291020Y0381700D02*
X0291020Y0386904D01*
X0291887Y0385170D02*
X0293622Y0385170D01*
X0294490Y0384302D01*
X0294490Y0381700D01*
X0291020Y0384302D02*
X0291887Y0385170D01*
X0289333Y0385170D02*
X0286731Y0385170D01*
X0285864Y0384302D01*
X0285864Y0382567D01*
X0331050Y0382435D02*
X0333652Y0382435D01*
X0334520Y0383302D01*
X0334520Y0385037D01*
X0333652Y0385904D01*
X0331050Y0385904D01*
X0331050Y0380700D01*
X0336206Y0381567D02*
X0336206Y0383302D01*
X0337074Y0384170D01*
X0338809Y0384170D01*
X0339676Y0383302D01*
X0339676Y0381567D01*
X0338809Y0380700D01*
X0337074Y0380700D01*
X0336206Y0381567D01*
X0341363Y0380700D02*
X0341363Y0384170D01*
X0341363Y0382435D02*
X0343098Y0384170D01*
X0343965Y0384170D01*
X0345660Y0384170D02*
X0347395Y0384170D01*
X0346527Y0385037D02*
X0346527Y0381567D01*
X0347395Y0380700D01*
X0354254Y0380700D02*
X0354254Y0385904D01*
X0356856Y0385904D01*
X0357723Y0385037D01*
X0357723Y0383302D01*
X0356856Y0382435D01*
X0354254Y0382435D01*
X0359410Y0383302D02*
X0359410Y0381567D01*
X0360278Y0380700D01*
X0362012Y0380700D01*
X0362880Y0381567D01*
X0362880Y0383302D01*
X0362012Y0384170D01*
X0360278Y0384170D01*
X0359410Y0383302D01*
X0364567Y0384170D02*
X0364567Y0381567D01*
X0365434Y0380700D01*
X0366301Y0381567D01*
X0367169Y0380700D01*
X0368036Y0381567D01*
X0368036Y0384170D01*
X0369723Y0383302D02*
X0370590Y0384170D01*
X0372325Y0384170D01*
X0373193Y0383302D01*
X0373193Y0382435D01*
X0369723Y0382435D01*
X0369723Y0383302D02*
X0369723Y0381567D01*
X0370590Y0380700D01*
X0372325Y0380700D01*
X0374879Y0380700D02*
X0374879Y0384170D01*
X0376614Y0384170D02*
X0377482Y0384170D01*
X0376614Y0384170D02*
X0374879Y0382435D01*
X0196967Y0384170D02*
X0196099Y0384170D01*
X0194364Y0382435D01*
X0192678Y0382435D02*
X0189208Y0382435D01*
X0189208Y0383302D02*
X0190075Y0384170D01*
X0191810Y0384170D01*
X0192678Y0383302D01*
X0192678Y0382435D01*
X0191810Y0380700D02*
X0190075Y0380700D01*
X0189208Y0381567D01*
X0189208Y0383302D01*
X0187521Y0384170D02*
X0187521Y0381567D01*
X0186654Y0380700D01*
X0185786Y0381567D01*
X0184919Y0380700D01*
X0184052Y0381567D01*
X0184052Y0384170D01*
X0182365Y0383302D02*
X0181497Y0384170D01*
X0179763Y0384170D01*
X0178895Y0383302D01*
X0178895Y0381567D01*
X0179763Y0380700D01*
X0181497Y0380700D01*
X0182365Y0381567D01*
X0182365Y0383302D01*
X0177208Y0383302D02*
X0176341Y0382435D01*
X0173739Y0382435D01*
X0173739Y0380700D02*
X0173739Y0385904D01*
X0176341Y0385904D01*
X0177208Y0385037D01*
X0177208Y0383302D01*
X0166896Y0384170D02*
X0164293Y0384170D01*
X0163426Y0383302D01*
X0163426Y0381567D01*
X0164293Y0380700D01*
X0166896Y0380700D01*
X0166896Y0385904D01*
X0161739Y0383302D02*
X0161739Y0382435D01*
X0158270Y0382435D01*
X0158270Y0383302D02*
X0159137Y0384170D01*
X0160872Y0384170D01*
X0161739Y0383302D01*
X0160872Y0380700D02*
X0159137Y0380700D01*
X0158270Y0381567D01*
X0158270Y0383302D01*
X0156583Y0384170D02*
X0153981Y0384170D01*
X0153113Y0383302D01*
X0153113Y0381567D01*
X0153981Y0380700D01*
X0156583Y0380700D01*
X0151426Y0380700D02*
X0151426Y0383302D01*
X0150559Y0384170D01*
X0147957Y0384170D01*
X0147957Y0380700D01*
X0146270Y0380700D02*
X0143668Y0380700D01*
X0142800Y0381567D01*
X0143668Y0382435D01*
X0146270Y0382435D01*
X0146270Y0383302D02*
X0146270Y0380700D01*
X0146270Y0383302D02*
X0145403Y0384170D01*
X0143668Y0384170D01*
X0140230Y0385904D02*
X0140230Y0380700D01*
X0139363Y0380700D02*
X0141098Y0380700D01*
X0137676Y0380700D02*
X0137676Y0383302D01*
X0136809Y0384170D01*
X0135074Y0384170D01*
X0135074Y0382435D02*
X0137676Y0382435D01*
X0137676Y0380700D02*
X0135074Y0380700D01*
X0134206Y0381567D01*
X0135074Y0382435D01*
X0132520Y0382435D02*
X0132520Y0381567D01*
X0131652Y0380700D01*
X0129050Y0380700D01*
X0129050Y0385904D01*
X0131652Y0385904D01*
X0132520Y0385037D01*
X0132520Y0384170D01*
X0131652Y0383302D01*
X0129050Y0383302D01*
X0131652Y0383302D02*
X0132520Y0382435D01*
X0139363Y0385904D02*
X0140230Y0385904D01*
X0084982Y0386170D02*
X0084114Y0386170D01*
X0082379Y0384435D01*
X0080693Y0384435D02*
X0077223Y0384435D01*
X0077223Y0385302D02*
X0078090Y0386170D01*
X0079825Y0386170D01*
X0080693Y0385302D01*
X0080693Y0384435D01*
X0079825Y0382700D02*
X0078090Y0382700D01*
X0077223Y0383567D01*
X0077223Y0385302D01*
X0075536Y0386170D02*
X0075536Y0383567D01*
X0074669Y0382700D01*
X0073801Y0383567D01*
X0072934Y0382700D01*
X0072067Y0383567D01*
X0072067Y0386170D01*
X0070380Y0385302D02*
X0069512Y0386170D01*
X0067778Y0386170D01*
X0066910Y0385302D01*
X0066910Y0383567D01*
X0067778Y0382700D01*
X0069512Y0382700D01*
X0070380Y0383567D01*
X0070380Y0385302D01*
X0065223Y0385302D02*
X0065223Y0387037D01*
X0064356Y0387904D01*
X0061754Y0387904D01*
X0061754Y0382700D01*
X0061754Y0384435D02*
X0064356Y0384435D01*
X0065223Y0385302D01*
X0054903Y0386170D02*
X0054035Y0386170D01*
X0052300Y0384435D01*
X0050614Y0384435D02*
X0048011Y0384435D01*
X0047144Y0383567D01*
X0048011Y0382700D01*
X0050614Y0382700D01*
X0050614Y0385302D01*
X0049746Y0386170D01*
X0048011Y0386170D01*
X0045441Y0386170D02*
X0043706Y0386170D01*
X0044574Y0387037D02*
X0044574Y0383567D01*
X0045441Y0382700D01*
X0042020Y0383567D02*
X0041152Y0382700D01*
X0039417Y0382700D01*
X0038550Y0383567D01*
X0039417Y0385302D02*
X0041152Y0385302D01*
X0042020Y0384435D01*
X0042020Y0383567D01*
X0039417Y0385302D02*
X0038550Y0386170D01*
X0038550Y0387037D01*
X0039417Y0387904D01*
X0041152Y0387904D01*
X0042020Y0387037D01*
X0052300Y0386170D02*
X0052300Y0382700D01*
X0082379Y0382700D02*
X0082379Y0386170D01*
X0194364Y0384170D02*
X0194364Y0380700D01*
D11*
X0200218Y0373705D02*
X0199150Y0372638D01*
X0199150Y0368368D01*
X0200218Y0367300D01*
X0202353Y0367300D01*
X0203420Y0368368D01*
X0203420Y0370503D01*
X0201285Y0370503D01*
X0203420Y0372638D02*
X0202353Y0373705D01*
X0200218Y0373705D01*
X0205595Y0373705D02*
X0205595Y0367300D01*
X0209866Y0367300D02*
X0205595Y0373705D01*
X0209866Y0373705D02*
X0209866Y0367300D01*
X0212041Y0367300D02*
X0215244Y0367300D01*
X0216311Y0368368D01*
X0216311Y0372638D01*
X0215244Y0373705D01*
X0212041Y0373705D01*
X0212041Y0367300D01*
X0234913Y0367642D02*
X0234915Y0367582D01*
X0234920Y0367521D01*
X0234929Y0367462D01*
X0234942Y0367403D01*
X0234958Y0367344D01*
X0234978Y0367287D01*
X0235001Y0367232D01*
X0235028Y0367177D01*
X0235057Y0367125D01*
X0235090Y0367074D01*
X0235126Y0367025D01*
X0235164Y0366979D01*
X0235206Y0366935D01*
X0235250Y0366893D01*
X0235296Y0366855D01*
X0235345Y0366819D01*
X0235396Y0366786D01*
X0235448Y0366757D01*
X0235503Y0366730D01*
X0235558Y0366707D01*
X0235615Y0366687D01*
X0235674Y0366671D01*
X0235733Y0366658D01*
X0235792Y0366649D01*
X0235853Y0366644D01*
X0235913Y0366642D01*
X0237413Y0366642D01*
X0237913Y0367142D01*
X0256913Y0367142D01*
X0257413Y0366642D01*
X0258913Y0366642D01*
X0258973Y0366644D01*
X0259034Y0366649D01*
X0259093Y0366658D01*
X0259152Y0366671D01*
X0259211Y0366687D01*
X0259268Y0366707D01*
X0259323Y0366730D01*
X0259378Y0366757D01*
X0259430Y0366786D01*
X0259481Y0366819D01*
X0259530Y0366855D01*
X0259576Y0366893D01*
X0259620Y0366935D01*
X0259662Y0366979D01*
X0259700Y0367025D01*
X0259736Y0367074D01*
X0259769Y0367125D01*
X0259798Y0367177D01*
X0259825Y0367232D01*
X0259848Y0367287D01*
X0259868Y0367344D01*
X0259884Y0367403D01*
X0259897Y0367462D01*
X0259906Y0367521D01*
X0259911Y0367582D01*
X0259913Y0367642D01*
X0259913Y0374642D02*
X0259911Y0374702D01*
X0259906Y0374763D01*
X0259897Y0374822D01*
X0259884Y0374881D01*
X0259868Y0374940D01*
X0259848Y0374997D01*
X0259825Y0375052D01*
X0259798Y0375107D01*
X0259769Y0375159D01*
X0259736Y0375210D01*
X0259700Y0375259D01*
X0259662Y0375305D01*
X0259620Y0375349D01*
X0259576Y0375391D01*
X0259530Y0375429D01*
X0259481Y0375465D01*
X0259430Y0375498D01*
X0259378Y0375527D01*
X0259323Y0375554D01*
X0259268Y0375577D01*
X0259211Y0375597D01*
X0259152Y0375613D01*
X0259093Y0375626D01*
X0259034Y0375635D01*
X0258973Y0375640D01*
X0258913Y0375642D01*
X0257413Y0375642D01*
X0256913Y0375142D01*
X0237913Y0375142D01*
X0237413Y0375642D01*
X0235913Y0375642D01*
X0235853Y0375640D01*
X0235792Y0375635D01*
X0235733Y0375626D01*
X0235674Y0375613D01*
X0235615Y0375597D01*
X0235558Y0375577D01*
X0235503Y0375554D01*
X0235448Y0375527D01*
X0235396Y0375498D01*
X0235345Y0375465D01*
X0235296Y0375429D01*
X0235250Y0375391D01*
X0235206Y0375349D01*
X0235164Y0375305D01*
X0235126Y0375259D01*
X0235090Y0375210D01*
X0235057Y0375159D01*
X0235028Y0375107D01*
X0235001Y0375052D01*
X0234978Y0374997D01*
X0234958Y0374940D01*
X0234942Y0374881D01*
X0234929Y0374822D01*
X0234920Y0374763D01*
X0234915Y0374702D01*
X0234913Y0374642D01*
X0259224Y0390827D02*
X0259224Y0398701D01*
X0259224Y0390827D02*
X0274972Y0390827D01*
X0274972Y0398701D01*
X0277836Y0378258D02*
X0307836Y0378258D01*
X0307836Y0213258D01*
X0277836Y0213258D01*
X0277836Y0378258D01*
X0335470Y0375593D02*
X0336970Y0375593D01*
X0337470Y0375093D01*
X0356470Y0375093D01*
X0356970Y0375593D01*
X0358470Y0375593D01*
X0358530Y0375591D01*
X0358591Y0375586D01*
X0358650Y0375577D01*
X0358709Y0375564D01*
X0358768Y0375548D01*
X0358825Y0375528D01*
X0358880Y0375505D01*
X0358935Y0375478D01*
X0358987Y0375449D01*
X0359038Y0375416D01*
X0359087Y0375380D01*
X0359133Y0375342D01*
X0359177Y0375300D01*
X0359219Y0375256D01*
X0359257Y0375210D01*
X0359293Y0375161D01*
X0359326Y0375110D01*
X0359355Y0375058D01*
X0359382Y0375003D01*
X0359405Y0374948D01*
X0359425Y0374891D01*
X0359441Y0374832D01*
X0359454Y0374773D01*
X0359463Y0374714D01*
X0359468Y0374653D01*
X0359470Y0374593D01*
X0359470Y0367593D02*
X0359468Y0367533D01*
X0359463Y0367472D01*
X0359454Y0367413D01*
X0359441Y0367354D01*
X0359425Y0367295D01*
X0359405Y0367238D01*
X0359382Y0367183D01*
X0359355Y0367128D01*
X0359326Y0367076D01*
X0359293Y0367025D01*
X0359257Y0366976D01*
X0359219Y0366930D01*
X0359177Y0366886D01*
X0359133Y0366844D01*
X0359087Y0366806D01*
X0359038Y0366770D01*
X0358987Y0366737D01*
X0358935Y0366708D01*
X0358880Y0366681D01*
X0358825Y0366658D01*
X0358768Y0366638D01*
X0358709Y0366622D01*
X0358650Y0366609D01*
X0358591Y0366600D01*
X0358530Y0366595D01*
X0358470Y0366593D01*
X0356970Y0366593D01*
X0356470Y0367093D01*
X0337470Y0367093D01*
X0336970Y0366593D01*
X0335470Y0366593D01*
X0335410Y0366595D01*
X0335349Y0366600D01*
X0335290Y0366609D01*
X0335231Y0366622D01*
X0335172Y0366638D01*
X0335115Y0366658D01*
X0335060Y0366681D01*
X0335005Y0366708D01*
X0334953Y0366737D01*
X0334902Y0366770D01*
X0334853Y0366806D01*
X0334807Y0366844D01*
X0334763Y0366886D01*
X0334721Y0366930D01*
X0334683Y0366976D01*
X0334647Y0367025D01*
X0334614Y0367076D01*
X0334585Y0367128D01*
X0334558Y0367183D01*
X0334535Y0367238D01*
X0334515Y0367295D01*
X0334499Y0367354D01*
X0334486Y0367413D01*
X0334477Y0367472D01*
X0334472Y0367533D01*
X0334470Y0367593D01*
X0334470Y0374593D02*
X0334472Y0374653D01*
X0334477Y0374714D01*
X0334486Y0374773D01*
X0334499Y0374832D01*
X0334515Y0374891D01*
X0334535Y0374948D01*
X0334558Y0375003D01*
X0334585Y0375058D01*
X0334614Y0375110D01*
X0334647Y0375161D01*
X0334683Y0375210D01*
X0334721Y0375256D01*
X0334763Y0375300D01*
X0334807Y0375342D01*
X0334853Y0375380D01*
X0334902Y0375416D01*
X0334953Y0375449D01*
X0335005Y0375478D01*
X0335060Y0375505D01*
X0335115Y0375528D01*
X0335172Y0375548D01*
X0335231Y0375564D01*
X0335290Y0375577D01*
X0335349Y0375586D01*
X0335410Y0375591D01*
X0335470Y0375593D01*
X0349283Y0391073D02*
X0365031Y0391073D01*
X0365031Y0398947D01*
X0349283Y0398947D02*
X0349283Y0391073D01*
X0258968Y0310285D02*
X0228968Y0310285D01*
X0228968Y0225285D01*
X0258968Y0225285D01*
X0258968Y0310285D01*
X0315328Y0265937D02*
X0315328Y0251740D01*
X0333927Y0251740D02*
X0333927Y0265937D01*
X0340150Y0260705D02*
X0343353Y0260705D01*
X0344420Y0259638D01*
X0344420Y0255368D01*
X0343353Y0254300D01*
X0340150Y0254300D01*
X0340150Y0260705D01*
X0346595Y0259638D02*
X0346595Y0255368D01*
X0347663Y0254300D01*
X0349798Y0254300D01*
X0350866Y0255368D01*
X0350866Y0259638D01*
X0349798Y0260705D01*
X0347663Y0260705D01*
X0346595Y0259638D01*
X0347663Y0250205D02*
X0346595Y0249138D01*
X0346595Y0244868D01*
X0347663Y0243800D01*
X0349798Y0243800D01*
X0350866Y0244868D01*
X0350866Y0249138D01*
X0349798Y0250205D01*
X0347663Y0250205D01*
X0344420Y0250205D02*
X0340150Y0250205D01*
X0342285Y0250205D02*
X0342285Y0243800D01*
X0353041Y0244868D02*
X0354109Y0243800D01*
X0356244Y0243800D01*
X0357311Y0244868D01*
X0357311Y0250205D01*
X0359486Y0249138D02*
X0359486Y0244868D01*
X0360554Y0243800D01*
X0362689Y0243800D01*
X0363757Y0244868D01*
X0365932Y0243800D02*
X0365932Y0250205D01*
X0363757Y0249138D02*
X0362689Y0250205D01*
X0360554Y0250205D01*
X0359486Y0249138D01*
X0359486Y0254300D02*
X0359486Y0260705D01*
X0363757Y0254300D01*
X0363757Y0260705D01*
X0365932Y0259638D02*
X0365932Y0255368D01*
X0367000Y0254300D01*
X0369135Y0254300D01*
X0370202Y0255368D01*
X0370202Y0259638D01*
X0369135Y0260705D01*
X0367000Y0260705D01*
X0365932Y0259638D01*
X0372377Y0260705D02*
X0376648Y0260705D01*
X0374513Y0260705D02*
X0374513Y0254300D01*
X0381850Y0249000D02*
X0381850Y0247500D01*
X0382350Y0247000D01*
X0382350Y0228000D01*
X0381850Y0227500D01*
X0381850Y0226000D01*
X0381852Y0225940D01*
X0381857Y0225879D01*
X0381866Y0225820D01*
X0381879Y0225761D01*
X0381895Y0225702D01*
X0381915Y0225645D01*
X0381938Y0225590D01*
X0381965Y0225535D01*
X0381994Y0225483D01*
X0382027Y0225432D01*
X0382063Y0225383D01*
X0382101Y0225337D01*
X0382143Y0225293D01*
X0382187Y0225251D01*
X0382233Y0225213D01*
X0382282Y0225177D01*
X0382333Y0225144D01*
X0382385Y0225115D01*
X0382440Y0225088D01*
X0382495Y0225065D01*
X0382552Y0225045D01*
X0382611Y0225029D01*
X0382670Y0225016D01*
X0382729Y0225007D01*
X0382790Y0225002D01*
X0382850Y0225000D01*
X0389850Y0225000D02*
X0389910Y0225002D01*
X0389971Y0225007D01*
X0390030Y0225016D01*
X0390089Y0225029D01*
X0390148Y0225045D01*
X0390205Y0225065D01*
X0390260Y0225088D01*
X0390315Y0225115D01*
X0390367Y0225144D01*
X0390418Y0225177D01*
X0390467Y0225213D01*
X0390513Y0225251D01*
X0390557Y0225293D01*
X0390599Y0225337D01*
X0390637Y0225383D01*
X0390673Y0225432D01*
X0390706Y0225483D01*
X0390735Y0225535D01*
X0390762Y0225590D01*
X0390785Y0225645D01*
X0390805Y0225702D01*
X0390821Y0225761D01*
X0390834Y0225820D01*
X0390843Y0225879D01*
X0390848Y0225940D01*
X0390850Y0226000D01*
X0390850Y0227500D01*
X0390350Y0228000D01*
X0390350Y0247000D01*
X0390850Y0247500D01*
X0390850Y0249000D01*
X0390848Y0249060D01*
X0390843Y0249121D01*
X0390834Y0249180D01*
X0390821Y0249239D01*
X0390805Y0249298D01*
X0390785Y0249355D01*
X0390762Y0249410D01*
X0390735Y0249465D01*
X0390706Y0249517D01*
X0390673Y0249568D01*
X0390637Y0249617D01*
X0390599Y0249663D01*
X0390557Y0249707D01*
X0390513Y0249749D01*
X0390467Y0249787D01*
X0390418Y0249823D01*
X0390367Y0249856D01*
X0390315Y0249885D01*
X0390260Y0249912D01*
X0390205Y0249935D01*
X0390148Y0249955D01*
X0390089Y0249971D01*
X0390030Y0249984D01*
X0389971Y0249993D01*
X0389910Y0249998D01*
X0389850Y0250000D01*
X0382850Y0250000D02*
X0382790Y0249998D01*
X0382729Y0249993D01*
X0382670Y0249984D01*
X0382611Y0249971D01*
X0382552Y0249955D01*
X0382495Y0249935D01*
X0382440Y0249912D01*
X0382385Y0249885D01*
X0382333Y0249856D01*
X0382282Y0249823D01*
X0382233Y0249787D01*
X0382187Y0249749D01*
X0382143Y0249707D01*
X0382101Y0249663D01*
X0382063Y0249617D01*
X0382027Y0249568D01*
X0381994Y0249517D01*
X0381965Y0249465D01*
X0381938Y0249410D01*
X0381915Y0249355D01*
X0381895Y0249298D01*
X0381879Y0249239D01*
X0381866Y0249180D01*
X0381857Y0249121D01*
X0381852Y0249060D01*
X0381850Y0249000D01*
X0370202Y0250205D02*
X0370202Y0243800D01*
X0370202Y0247003D02*
X0365932Y0247003D01*
X0353041Y0244868D02*
X0353041Y0250205D01*
X0351464Y0228114D02*
X0351466Y0228024D01*
X0351472Y0227935D01*
X0351482Y0227846D01*
X0351495Y0227757D01*
X0351513Y0227669D01*
X0351534Y0227582D01*
X0351559Y0227495D01*
X0351588Y0227410D01*
X0351621Y0227327D01*
X0351657Y0227245D01*
X0351696Y0227164D01*
X0351740Y0227086D01*
X0351786Y0227009D01*
X0351836Y0226934D01*
X0351889Y0226862D01*
X0351945Y0226792D01*
X0352004Y0226724D01*
X0352066Y0226659D01*
X0352131Y0226597D01*
X0352199Y0226538D01*
X0352269Y0226482D01*
X0352341Y0226429D01*
X0352416Y0226379D01*
X0352493Y0226333D01*
X0352571Y0226289D01*
X0352652Y0226250D01*
X0352734Y0226214D01*
X0352817Y0226181D01*
X0352902Y0226152D01*
X0352989Y0226127D01*
X0353076Y0226106D01*
X0353164Y0226088D01*
X0353253Y0226075D01*
X0353342Y0226065D01*
X0353431Y0226059D01*
X0353521Y0226057D01*
X0353611Y0226059D01*
X0353700Y0226065D01*
X0353789Y0226075D01*
X0353878Y0226088D01*
X0353966Y0226106D01*
X0354053Y0226127D01*
X0354140Y0226152D01*
X0354225Y0226181D01*
X0354308Y0226214D01*
X0354390Y0226250D01*
X0354471Y0226289D01*
X0354550Y0226333D01*
X0354626Y0226379D01*
X0354701Y0226429D01*
X0354773Y0226482D01*
X0354843Y0226538D01*
X0354911Y0226597D01*
X0354976Y0226659D01*
X0355038Y0226724D01*
X0355097Y0226792D01*
X0355153Y0226862D01*
X0355206Y0226934D01*
X0355256Y0227009D01*
X0355302Y0227086D01*
X0355346Y0227164D01*
X0355385Y0227245D01*
X0355421Y0227327D01*
X0355454Y0227410D01*
X0355483Y0227495D01*
X0355508Y0227582D01*
X0355529Y0227669D01*
X0355547Y0227757D01*
X0355560Y0227846D01*
X0355570Y0227935D01*
X0355576Y0228024D01*
X0355578Y0228114D01*
X0351464Y0228114D01*
X0347330Y0228114D01*
X0347330Y0209886D01*
X0372370Y0209886D01*
X0372370Y0228114D01*
X0355578Y0228114D01*
X0315350Y0205000D02*
X0315350Y0203500D01*
X0314850Y0203000D01*
X0314850Y0184000D01*
X0315350Y0183500D01*
X0315350Y0182000D01*
X0315348Y0181940D01*
X0315343Y0181879D01*
X0315334Y0181820D01*
X0315321Y0181761D01*
X0315305Y0181702D01*
X0315285Y0181645D01*
X0315262Y0181590D01*
X0315235Y0181535D01*
X0315206Y0181483D01*
X0315173Y0181432D01*
X0315137Y0181383D01*
X0315099Y0181337D01*
X0315057Y0181293D01*
X0315013Y0181251D01*
X0314967Y0181213D01*
X0314918Y0181177D01*
X0314867Y0181144D01*
X0314815Y0181115D01*
X0314760Y0181088D01*
X0314705Y0181065D01*
X0314648Y0181045D01*
X0314589Y0181029D01*
X0314530Y0181016D01*
X0314471Y0181007D01*
X0314410Y0181002D01*
X0314350Y0181000D01*
X0307350Y0181000D02*
X0307290Y0181002D01*
X0307229Y0181007D01*
X0307170Y0181016D01*
X0307111Y0181029D01*
X0307052Y0181045D01*
X0306995Y0181065D01*
X0306940Y0181088D01*
X0306885Y0181115D01*
X0306833Y0181144D01*
X0306782Y0181177D01*
X0306733Y0181213D01*
X0306687Y0181251D01*
X0306643Y0181293D01*
X0306601Y0181337D01*
X0306563Y0181383D01*
X0306527Y0181432D01*
X0306494Y0181483D01*
X0306465Y0181535D01*
X0306438Y0181590D01*
X0306415Y0181645D01*
X0306395Y0181702D01*
X0306379Y0181761D01*
X0306366Y0181820D01*
X0306357Y0181879D01*
X0306352Y0181940D01*
X0306350Y0182000D01*
X0306350Y0183500D01*
X0306850Y0184000D01*
X0306850Y0203000D01*
X0306350Y0203500D01*
X0306350Y0205000D01*
X0306352Y0205060D01*
X0306357Y0205121D01*
X0306366Y0205180D01*
X0306379Y0205239D01*
X0306395Y0205298D01*
X0306415Y0205355D01*
X0306438Y0205410D01*
X0306465Y0205465D01*
X0306494Y0205517D01*
X0306527Y0205568D01*
X0306563Y0205617D01*
X0306601Y0205663D01*
X0306643Y0205707D01*
X0306687Y0205749D01*
X0306733Y0205787D01*
X0306782Y0205823D01*
X0306833Y0205856D01*
X0306885Y0205885D01*
X0306940Y0205912D01*
X0306995Y0205935D01*
X0307052Y0205955D01*
X0307111Y0205971D01*
X0307170Y0205984D01*
X0307229Y0205993D01*
X0307290Y0205998D01*
X0307350Y0206000D01*
X0302350Y0205500D02*
X0302350Y0204000D01*
X0301850Y0203500D01*
X0301850Y0184500D01*
X0302350Y0184000D01*
X0302350Y0182500D01*
X0302348Y0182440D01*
X0302343Y0182379D01*
X0302334Y0182320D01*
X0302321Y0182261D01*
X0302305Y0182202D01*
X0302285Y0182145D01*
X0302262Y0182090D01*
X0302235Y0182035D01*
X0302206Y0181983D01*
X0302173Y0181932D01*
X0302137Y0181883D01*
X0302099Y0181837D01*
X0302057Y0181793D01*
X0302013Y0181751D01*
X0301967Y0181713D01*
X0301918Y0181677D01*
X0301867Y0181644D01*
X0301815Y0181615D01*
X0301760Y0181588D01*
X0301705Y0181565D01*
X0301648Y0181545D01*
X0301589Y0181529D01*
X0301530Y0181516D01*
X0301471Y0181507D01*
X0301410Y0181502D01*
X0301350Y0181500D01*
X0294350Y0181500D02*
X0294290Y0181502D01*
X0294229Y0181507D01*
X0294170Y0181516D01*
X0294111Y0181529D01*
X0294052Y0181545D01*
X0293995Y0181565D01*
X0293940Y0181588D01*
X0293885Y0181615D01*
X0293833Y0181644D01*
X0293782Y0181677D01*
X0293733Y0181713D01*
X0293687Y0181751D01*
X0293643Y0181793D01*
X0293601Y0181837D01*
X0293563Y0181883D01*
X0293527Y0181932D01*
X0293494Y0181983D01*
X0293465Y0182035D01*
X0293438Y0182090D01*
X0293415Y0182145D01*
X0293395Y0182202D01*
X0293379Y0182261D01*
X0293366Y0182320D01*
X0293357Y0182379D01*
X0293352Y0182440D01*
X0293350Y0182500D01*
X0293350Y0184000D01*
X0293850Y0184500D01*
X0293850Y0203500D01*
X0293350Y0204000D01*
X0293350Y0205500D01*
X0293352Y0205560D01*
X0293357Y0205621D01*
X0293366Y0205680D01*
X0293379Y0205739D01*
X0293395Y0205798D01*
X0293415Y0205855D01*
X0293438Y0205910D01*
X0293465Y0205965D01*
X0293494Y0206017D01*
X0293527Y0206068D01*
X0293563Y0206117D01*
X0293601Y0206163D01*
X0293643Y0206207D01*
X0293687Y0206249D01*
X0293733Y0206287D01*
X0293782Y0206323D01*
X0293833Y0206356D01*
X0293885Y0206385D01*
X0293940Y0206412D01*
X0293995Y0206435D01*
X0294052Y0206455D01*
X0294111Y0206471D01*
X0294170Y0206484D01*
X0294229Y0206493D01*
X0294290Y0206498D01*
X0294350Y0206500D01*
X0301350Y0206500D02*
X0301410Y0206498D01*
X0301471Y0206493D01*
X0301530Y0206484D01*
X0301589Y0206471D01*
X0301648Y0206455D01*
X0301705Y0206435D01*
X0301760Y0206412D01*
X0301815Y0206385D01*
X0301867Y0206356D01*
X0301918Y0206323D01*
X0301967Y0206287D01*
X0302013Y0206249D01*
X0302057Y0206207D01*
X0302099Y0206163D01*
X0302137Y0206117D01*
X0302173Y0206068D01*
X0302206Y0206017D01*
X0302235Y0205965D01*
X0302262Y0205910D01*
X0302285Y0205855D01*
X0302305Y0205798D01*
X0302321Y0205739D01*
X0302334Y0205680D01*
X0302343Y0205621D01*
X0302348Y0205560D01*
X0302350Y0205500D01*
X0314350Y0206000D02*
X0314410Y0205998D01*
X0314471Y0205993D01*
X0314530Y0205984D01*
X0314589Y0205971D01*
X0314648Y0205955D01*
X0314705Y0205935D01*
X0314760Y0205912D01*
X0314815Y0205885D01*
X0314867Y0205856D01*
X0314918Y0205823D01*
X0314967Y0205787D01*
X0315013Y0205749D01*
X0315057Y0205707D01*
X0315099Y0205663D01*
X0315137Y0205617D01*
X0315173Y0205568D01*
X0315206Y0205517D01*
X0315235Y0205465D01*
X0315262Y0205410D01*
X0315285Y0205355D01*
X0315305Y0205298D01*
X0315321Y0205239D01*
X0315334Y0205180D01*
X0315343Y0205121D01*
X0315348Y0205060D01*
X0315350Y0205000D01*
X0246202Y0210492D02*
X0246202Y0055492D01*
X0216202Y0055492D01*
X0216202Y0210492D01*
X0246202Y0210492D01*
X0204421Y0210738D02*
X0204421Y0055738D01*
X0174421Y0055738D01*
X0174421Y0210738D01*
X0204421Y0210738D01*
X0174765Y0225285D02*
X0144765Y0225285D01*
X0144765Y0310285D01*
X0174765Y0310285D01*
X0174765Y0225285D01*
X0163082Y0210738D02*
X0163082Y0055738D01*
X0133082Y0055738D01*
X0133082Y0210738D01*
X0163082Y0210738D01*
X0122728Y0210689D02*
X0122728Y0055689D01*
X0092728Y0055689D01*
X0092728Y0210689D01*
X0122728Y0210689D01*
X0120533Y0212569D02*
X0090533Y0212569D01*
X0090533Y0377569D01*
X0120533Y0377569D01*
X0120533Y0212569D01*
X0086850Y0207500D02*
X0086850Y0206000D01*
X0086848Y0205940D01*
X0086843Y0205879D01*
X0086834Y0205820D01*
X0086821Y0205761D01*
X0086805Y0205702D01*
X0086785Y0205645D01*
X0086762Y0205590D01*
X0086735Y0205535D01*
X0086706Y0205483D01*
X0086673Y0205432D01*
X0086637Y0205383D01*
X0086599Y0205337D01*
X0086557Y0205293D01*
X0086513Y0205251D01*
X0086467Y0205213D01*
X0086418Y0205177D01*
X0086367Y0205144D01*
X0086315Y0205115D01*
X0086260Y0205088D01*
X0086205Y0205065D01*
X0086148Y0205045D01*
X0086089Y0205029D01*
X0086030Y0205016D01*
X0085971Y0205007D01*
X0085910Y0205002D01*
X0085850Y0205000D01*
X0086850Y0207500D02*
X0086350Y0208000D01*
X0086350Y0227000D01*
X0086850Y0227500D01*
X0086850Y0229000D01*
X0086848Y0229060D01*
X0086843Y0229121D01*
X0086834Y0229180D01*
X0086821Y0229239D01*
X0086805Y0229298D01*
X0086785Y0229355D01*
X0086762Y0229410D01*
X0086735Y0229465D01*
X0086706Y0229517D01*
X0086673Y0229568D01*
X0086637Y0229617D01*
X0086599Y0229663D01*
X0086557Y0229707D01*
X0086513Y0229749D01*
X0086467Y0229787D01*
X0086418Y0229823D01*
X0086367Y0229856D01*
X0086315Y0229885D01*
X0086260Y0229912D01*
X0086205Y0229935D01*
X0086148Y0229955D01*
X0086089Y0229971D01*
X0086030Y0229984D01*
X0085971Y0229993D01*
X0085910Y0229998D01*
X0085850Y0230000D01*
X0078850Y0230000D02*
X0078790Y0229998D01*
X0078729Y0229993D01*
X0078670Y0229984D01*
X0078611Y0229971D01*
X0078552Y0229955D01*
X0078495Y0229935D01*
X0078440Y0229912D01*
X0078385Y0229885D01*
X0078333Y0229856D01*
X0078282Y0229823D01*
X0078233Y0229787D01*
X0078187Y0229749D01*
X0078143Y0229707D01*
X0078101Y0229663D01*
X0078063Y0229617D01*
X0078027Y0229568D01*
X0077994Y0229517D01*
X0077965Y0229465D01*
X0077938Y0229410D01*
X0077915Y0229355D01*
X0077895Y0229298D01*
X0077879Y0229239D01*
X0077866Y0229180D01*
X0077857Y0229121D01*
X0077852Y0229060D01*
X0077850Y0229000D01*
X0077850Y0227500D01*
X0078350Y0227000D01*
X0078350Y0208000D01*
X0077850Y0207500D01*
X0077850Y0206000D01*
X0077852Y0205940D01*
X0077857Y0205879D01*
X0077866Y0205820D01*
X0077879Y0205761D01*
X0077895Y0205702D01*
X0077915Y0205645D01*
X0077938Y0205590D01*
X0077965Y0205535D01*
X0077994Y0205483D01*
X0078027Y0205432D01*
X0078063Y0205383D01*
X0078101Y0205337D01*
X0078143Y0205293D01*
X0078187Y0205251D01*
X0078233Y0205213D01*
X0078282Y0205177D01*
X0078333Y0205144D01*
X0078385Y0205115D01*
X0078440Y0205088D01*
X0078495Y0205065D01*
X0078552Y0205045D01*
X0078611Y0205029D01*
X0078670Y0205016D01*
X0078729Y0205007D01*
X0078790Y0205002D01*
X0078850Y0205000D01*
X0055370Y0218386D02*
X0051236Y0218386D01*
X0047122Y0218386D01*
X0030330Y0218386D01*
X0030330Y0236614D01*
X0055370Y0236614D01*
X0055370Y0218386D01*
X0051236Y0218386D02*
X0051234Y0218476D01*
X0051228Y0218565D01*
X0051218Y0218654D01*
X0051205Y0218743D01*
X0051187Y0218831D01*
X0051166Y0218918D01*
X0051141Y0219005D01*
X0051112Y0219090D01*
X0051079Y0219173D01*
X0051043Y0219255D01*
X0051004Y0219336D01*
X0050960Y0219415D01*
X0050914Y0219491D01*
X0050864Y0219566D01*
X0050811Y0219638D01*
X0050755Y0219708D01*
X0050696Y0219776D01*
X0050634Y0219841D01*
X0050569Y0219903D01*
X0050501Y0219962D01*
X0050431Y0220018D01*
X0050359Y0220071D01*
X0050284Y0220121D01*
X0050208Y0220167D01*
X0050129Y0220211D01*
X0050048Y0220250D01*
X0049966Y0220286D01*
X0049883Y0220319D01*
X0049798Y0220348D01*
X0049711Y0220373D01*
X0049624Y0220394D01*
X0049536Y0220412D01*
X0049447Y0220425D01*
X0049358Y0220435D01*
X0049269Y0220441D01*
X0049179Y0220443D01*
X0049089Y0220441D01*
X0049000Y0220435D01*
X0048911Y0220425D01*
X0048822Y0220412D01*
X0048734Y0220394D01*
X0048647Y0220373D01*
X0048560Y0220348D01*
X0048475Y0220319D01*
X0048392Y0220286D01*
X0048310Y0220250D01*
X0048229Y0220211D01*
X0048151Y0220167D01*
X0048074Y0220121D01*
X0047999Y0220071D01*
X0047927Y0220018D01*
X0047857Y0219962D01*
X0047789Y0219903D01*
X0047724Y0219841D01*
X0047662Y0219776D01*
X0047603Y0219708D01*
X0047547Y0219638D01*
X0047494Y0219566D01*
X0047444Y0219491D01*
X0047398Y0219415D01*
X0047354Y0219336D01*
X0047315Y0219255D01*
X0047279Y0219173D01*
X0047246Y0219090D01*
X0047217Y0219005D01*
X0047192Y0218918D01*
X0047171Y0218831D01*
X0047153Y0218743D01*
X0047140Y0218654D01*
X0047130Y0218565D01*
X0047124Y0218476D01*
X0047122Y0218386D01*
X0017850Y0210000D02*
X0017850Y0208500D01*
X0017848Y0208440D01*
X0017843Y0208379D01*
X0017834Y0208320D01*
X0017821Y0208261D01*
X0017805Y0208202D01*
X0017785Y0208145D01*
X0017762Y0208090D01*
X0017735Y0208035D01*
X0017706Y0207983D01*
X0017673Y0207932D01*
X0017637Y0207883D01*
X0017599Y0207837D01*
X0017557Y0207793D01*
X0017513Y0207751D01*
X0017467Y0207713D01*
X0017418Y0207677D01*
X0017367Y0207644D01*
X0017315Y0207615D01*
X0017260Y0207588D01*
X0017205Y0207565D01*
X0017148Y0207545D01*
X0017089Y0207529D01*
X0017030Y0207516D01*
X0016971Y0207507D01*
X0016910Y0207502D01*
X0016850Y0207500D01*
X0017850Y0210000D02*
X0017350Y0210500D01*
X0017350Y0229500D01*
X0017850Y0230000D01*
X0017850Y0231500D01*
X0017848Y0231560D01*
X0017843Y0231621D01*
X0017834Y0231680D01*
X0017821Y0231739D01*
X0017805Y0231798D01*
X0017785Y0231855D01*
X0017762Y0231910D01*
X0017735Y0231965D01*
X0017706Y0232017D01*
X0017673Y0232068D01*
X0017637Y0232117D01*
X0017599Y0232163D01*
X0017557Y0232207D01*
X0017513Y0232249D01*
X0017467Y0232287D01*
X0017418Y0232323D01*
X0017367Y0232356D01*
X0017315Y0232385D01*
X0017260Y0232412D01*
X0017205Y0232435D01*
X0017148Y0232455D01*
X0017089Y0232471D01*
X0017030Y0232484D01*
X0016971Y0232493D01*
X0016910Y0232498D01*
X0016850Y0232500D01*
X0009850Y0232500D02*
X0009790Y0232498D01*
X0009729Y0232493D01*
X0009670Y0232484D01*
X0009611Y0232471D01*
X0009552Y0232455D01*
X0009495Y0232435D01*
X0009440Y0232412D01*
X0009385Y0232385D01*
X0009333Y0232356D01*
X0009282Y0232323D01*
X0009233Y0232287D01*
X0009187Y0232249D01*
X0009143Y0232207D01*
X0009101Y0232163D01*
X0009063Y0232117D01*
X0009027Y0232068D01*
X0008994Y0232017D01*
X0008965Y0231965D01*
X0008938Y0231910D01*
X0008915Y0231855D01*
X0008895Y0231798D01*
X0008879Y0231739D01*
X0008866Y0231680D01*
X0008857Y0231621D01*
X0008852Y0231560D01*
X0008850Y0231500D01*
X0008850Y0230000D01*
X0009350Y0229500D01*
X0009350Y0210500D01*
X0008850Y0210000D01*
X0008850Y0208500D01*
X0008852Y0208440D01*
X0008857Y0208379D01*
X0008866Y0208320D01*
X0008879Y0208261D01*
X0008895Y0208202D01*
X0008915Y0208145D01*
X0008938Y0208090D01*
X0008965Y0208035D01*
X0008994Y0207983D01*
X0009027Y0207932D01*
X0009063Y0207883D01*
X0009101Y0207837D01*
X0009143Y0207793D01*
X0009187Y0207751D01*
X0009233Y0207713D01*
X0009282Y0207677D01*
X0009333Y0207644D01*
X0009385Y0207615D01*
X0009440Y0207588D01*
X0009495Y0207565D01*
X0009552Y0207545D01*
X0009611Y0207529D01*
X0009670Y0207516D01*
X0009729Y0207507D01*
X0009790Y0207502D01*
X0009850Y0207500D01*
X0009850Y0247500D02*
X0009790Y0247502D01*
X0009729Y0247507D01*
X0009670Y0247516D01*
X0009611Y0247529D01*
X0009552Y0247545D01*
X0009495Y0247565D01*
X0009440Y0247588D01*
X0009385Y0247615D01*
X0009333Y0247644D01*
X0009282Y0247677D01*
X0009233Y0247713D01*
X0009187Y0247751D01*
X0009143Y0247793D01*
X0009101Y0247837D01*
X0009063Y0247883D01*
X0009027Y0247932D01*
X0008994Y0247983D01*
X0008965Y0248035D01*
X0008938Y0248090D01*
X0008915Y0248145D01*
X0008895Y0248202D01*
X0008879Y0248261D01*
X0008866Y0248320D01*
X0008857Y0248379D01*
X0008852Y0248440D01*
X0008850Y0248500D01*
X0008850Y0250000D01*
X0009350Y0250500D01*
X0009350Y0269500D01*
X0008850Y0270000D01*
X0008850Y0271500D01*
X0008852Y0271560D01*
X0008857Y0271621D01*
X0008866Y0271680D01*
X0008879Y0271739D01*
X0008895Y0271798D01*
X0008915Y0271855D01*
X0008938Y0271910D01*
X0008965Y0271965D01*
X0008994Y0272017D01*
X0009027Y0272068D01*
X0009063Y0272117D01*
X0009101Y0272163D01*
X0009143Y0272207D01*
X0009187Y0272249D01*
X0009233Y0272287D01*
X0009282Y0272323D01*
X0009333Y0272356D01*
X0009385Y0272385D01*
X0009440Y0272412D01*
X0009495Y0272435D01*
X0009552Y0272455D01*
X0009611Y0272471D01*
X0009670Y0272484D01*
X0009729Y0272493D01*
X0009790Y0272498D01*
X0009850Y0272500D01*
X0016850Y0272500D02*
X0016910Y0272498D01*
X0016971Y0272493D01*
X0017030Y0272484D01*
X0017089Y0272471D01*
X0017148Y0272455D01*
X0017205Y0272435D01*
X0017260Y0272412D01*
X0017315Y0272385D01*
X0017367Y0272356D01*
X0017418Y0272323D01*
X0017467Y0272287D01*
X0017513Y0272249D01*
X0017557Y0272207D01*
X0017599Y0272163D01*
X0017637Y0272117D01*
X0017673Y0272068D01*
X0017706Y0272017D01*
X0017735Y0271965D01*
X0017762Y0271910D01*
X0017785Y0271855D01*
X0017805Y0271798D01*
X0017821Y0271739D01*
X0017834Y0271680D01*
X0017843Y0271621D01*
X0017848Y0271560D01*
X0017850Y0271500D01*
X0017850Y0270000D01*
X0017350Y0269500D01*
X0017350Y0250500D01*
X0017850Y0250000D01*
X0017850Y0248500D01*
X0017848Y0248440D01*
X0017843Y0248379D01*
X0017834Y0248320D01*
X0017821Y0248261D01*
X0017805Y0248202D01*
X0017785Y0248145D01*
X0017762Y0248090D01*
X0017735Y0248035D01*
X0017706Y0247983D01*
X0017673Y0247932D01*
X0017637Y0247883D01*
X0017599Y0247837D01*
X0017557Y0247793D01*
X0017513Y0247751D01*
X0017467Y0247713D01*
X0017418Y0247677D01*
X0017367Y0247644D01*
X0017315Y0247615D01*
X0017260Y0247588D01*
X0017205Y0247565D01*
X0017148Y0247545D01*
X0017089Y0247529D01*
X0017030Y0247516D01*
X0016971Y0247507D01*
X0016910Y0247502D01*
X0016850Y0247500D01*
X0030830Y0254886D02*
X0030830Y0273114D01*
X0055870Y0273114D01*
X0055870Y0254886D01*
X0051736Y0254886D01*
X0047622Y0254886D01*
X0030830Y0254886D01*
X0047622Y0254886D02*
X0047624Y0254976D01*
X0047630Y0255065D01*
X0047640Y0255154D01*
X0047653Y0255243D01*
X0047671Y0255331D01*
X0047692Y0255418D01*
X0047717Y0255505D01*
X0047746Y0255590D01*
X0047779Y0255673D01*
X0047815Y0255755D01*
X0047854Y0255836D01*
X0047898Y0255915D01*
X0047944Y0255991D01*
X0047994Y0256066D01*
X0048047Y0256138D01*
X0048103Y0256208D01*
X0048162Y0256276D01*
X0048224Y0256341D01*
X0048289Y0256403D01*
X0048357Y0256462D01*
X0048427Y0256518D01*
X0048499Y0256571D01*
X0048574Y0256621D01*
X0048651Y0256667D01*
X0048729Y0256711D01*
X0048810Y0256750D01*
X0048892Y0256786D01*
X0048975Y0256819D01*
X0049060Y0256848D01*
X0049147Y0256873D01*
X0049234Y0256894D01*
X0049322Y0256912D01*
X0049411Y0256925D01*
X0049500Y0256935D01*
X0049589Y0256941D01*
X0049679Y0256943D01*
X0049769Y0256941D01*
X0049858Y0256935D01*
X0049947Y0256925D01*
X0050036Y0256912D01*
X0050124Y0256894D01*
X0050211Y0256873D01*
X0050298Y0256848D01*
X0050383Y0256819D01*
X0050466Y0256786D01*
X0050548Y0256750D01*
X0050629Y0256711D01*
X0050708Y0256667D01*
X0050784Y0256621D01*
X0050859Y0256571D01*
X0050931Y0256518D01*
X0051001Y0256462D01*
X0051069Y0256403D01*
X0051134Y0256341D01*
X0051196Y0256276D01*
X0051255Y0256208D01*
X0051311Y0256138D01*
X0051364Y0256066D01*
X0051414Y0255991D01*
X0051460Y0255915D01*
X0051504Y0255836D01*
X0051543Y0255755D01*
X0051579Y0255673D01*
X0051612Y0255590D01*
X0051641Y0255505D01*
X0051666Y0255418D01*
X0051687Y0255331D01*
X0051705Y0255243D01*
X0051718Y0255154D01*
X0051728Y0255065D01*
X0051734Y0254976D01*
X0051736Y0254886D01*
X0065850Y0255500D02*
X0065850Y0257000D01*
X0066350Y0257500D01*
X0066350Y0276500D01*
X0065850Y0277000D01*
X0065850Y0278500D01*
X0065852Y0278560D01*
X0065857Y0278621D01*
X0065866Y0278680D01*
X0065879Y0278739D01*
X0065895Y0278798D01*
X0065915Y0278855D01*
X0065938Y0278910D01*
X0065965Y0278965D01*
X0065994Y0279017D01*
X0066027Y0279068D01*
X0066063Y0279117D01*
X0066101Y0279163D01*
X0066143Y0279207D01*
X0066187Y0279249D01*
X0066233Y0279287D01*
X0066282Y0279323D01*
X0066333Y0279356D01*
X0066385Y0279385D01*
X0066440Y0279412D01*
X0066495Y0279435D01*
X0066552Y0279455D01*
X0066611Y0279471D01*
X0066670Y0279484D01*
X0066729Y0279493D01*
X0066790Y0279498D01*
X0066850Y0279500D01*
X0073850Y0279500D02*
X0073910Y0279498D01*
X0073971Y0279493D01*
X0074030Y0279484D01*
X0074089Y0279471D01*
X0074148Y0279455D01*
X0074205Y0279435D01*
X0074260Y0279412D01*
X0074315Y0279385D01*
X0074367Y0279356D01*
X0074418Y0279323D01*
X0074467Y0279287D01*
X0074513Y0279249D01*
X0074557Y0279207D01*
X0074599Y0279163D01*
X0074637Y0279117D01*
X0074673Y0279068D01*
X0074706Y0279017D01*
X0074735Y0278965D01*
X0074762Y0278910D01*
X0074785Y0278855D01*
X0074805Y0278798D01*
X0074821Y0278739D01*
X0074834Y0278680D01*
X0074843Y0278621D01*
X0074848Y0278560D01*
X0074850Y0278500D01*
X0074850Y0277000D01*
X0074350Y0276500D01*
X0074350Y0257500D01*
X0074850Y0257000D01*
X0074850Y0255500D01*
X0074848Y0255440D01*
X0074843Y0255379D01*
X0074834Y0255320D01*
X0074821Y0255261D01*
X0074805Y0255202D01*
X0074785Y0255145D01*
X0074762Y0255090D01*
X0074735Y0255035D01*
X0074706Y0254983D01*
X0074673Y0254932D01*
X0074637Y0254883D01*
X0074599Y0254837D01*
X0074557Y0254793D01*
X0074513Y0254751D01*
X0074467Y0254713D01*
X0074418Y0254677D01*
X0074367Y0254644D01*
X0074315Y0254615D01*
X0074260Y0254588D01*
X0074205Y0254565D01*
X0074148Y0254545D01*
X0074089Y0254529D01*
X0074030Y0254516D01*
X0073971Y0254507D01*
X0073910Y0254502D01*
X0073850Y0254500D01*
X0078850Y0255500D02*
X0078850Y0257000D01*
X0079350Y0257500D01*
X0079350Y0276500D01*
X0078850Y0277000D01*
X0078850Y0278500D01*
X0078852Y0278560D01*
X0078857Y0278621D01*
X0078866Y0278680D01*
X0078879Y0278739D01*
X0078895Y0278798D01*
X0078915Y0278855D01*
X0078938Y0278910D01*
X0078965Y0278965D01*
X0078994Y0279017D01*
X0079027Y0279068D01*
X0079063Y0279117D01*
X0079101Y0279163D01*
X0079143Y0279207D01*
X0079187Y0279249D01*
X0079233Y0279287D01*
X0079282Y0279323D01*
X0079333Y0279356D01*
X0079385Y0279385D01*
X0079440Y0279412D01*
X0079495Y0279435D01*
X0079552Y0279455D01*
X0079611Y0279471D01*
X0079670Y0279484D01*
X0079729Y0279493D01*
X0079790Y0279498D01*
X0079850Y0279500D01*
X0086850Y0279500D02*
X0086910Y0279498D01*
X0086971Y0279493D01*
X0087030Y0279484D01*
X0087089Y0279471D01*
X0087148Y0279455D01*
X0087205Y0279435D01*
X0087260Y0279412D01*
X0087315Y0279385D01*
X0087367Y0279356D01*
X0087418Y0279323D01*
X0087467Y0279287D01*
X0087513Y0279249D01*
X0087557Y0279207D01*
X0087599Y0279163D01*
X0087637Y0279117D01*
X0087673Y0279068D01*
X0087706Y0279017D01*
X0087735Y0278965D01*
X0087762Y0278910D01*
X0087785Y0278855D01*
X0087805Y0278798D01*
X0087821Y0278739D01*
X0087834Y0278680D01*
X0087843Y0278621D01*
X0087848Y0278560D01*
X0087850Y0278500D01*
X0087850Y0277000D01*
X0087350Y0276500D01*
X0087350Y0257500D01*
X0087850Y0257000D01*
X0087850Y0255500D01*
X0087848Y0255440D01*
X0087843Y0255379D01*
X0087834Y0255320D01*
X0087821Y0255261D01*
X0087805Y0255202D01*
X0087785Y0255145D01*
X0087762Y0255090D01*
X0087735Y0255035D01*
X0087706Y0254983D01*
X0087673Y0254932D01*
X0087637Y0254883D01*
X0087599Y0254837D01*
X0087557Y0254793D01*
X0087513Y0254751D01*
X0087467Y0254713D01*
X0087418Y0254677D01*
X0087367Y0254644D01*
X0087315Y0254615D01*
X0087260Y0254588D01*
X0087205Y0254565D01*
X0087148Y0254545D01*
X0087089Y0254529D01*
X0087030Y0254516D01*
X0086971Y0254507D01*
X0086910Y0254502D01*
X0086850Y0254500D01*
X0079850Y0254500D02*
X0079790Y0254502D01*
X0079729Y0254507D01*
X0079670Y0254516D01*
X0079611Y0254529D01*
X0079552Y0254545D01*
X0079495Y0254565D01*
X0079440Y0254588D01*
X0079385Y0254615D01*
X0079333Y0254644D01*
X0079282Y0254677D01*
X0079233Y0254713D01*
X0079187Y0254751D01*
X0079143Y0254793D01*
X0079101Y0254837D01*
X0079063Y0254883D01*
X0079027Y0254932D01*
X0078994Y0254983D01*
X0078965Y0255035D01*
X0078938Y0255090D01*
X0078915Y0255145D01*
X0078895Y0255202D01*
X0078879Y0255261D01*
X0078866Y0255320D01*
X0078857Y0255379D01*
X0078852Y0255440D01*
X0078850Y0255500D01*
X0066850Y0254500D02*
X0066790Y0254502D01*
X0066729Y0254507D01*
X0066670Y0254516D01*
X0066611Y0254529D01*
X0066552Y0254545D01*
X0066495Y0254565D01*
X0066440Y0254588D01*
X0066385Y0254615D01*
X0066333Y0254644D01*
X0066282Y0254677D01*
X0066233Y0254713D01*
X0066187Y0254751D01*
X0066143Y0254793D01*
X0066101Y0254837D01*
X0066063Y0254883D01*
X0066027Y0254932D01*
X0065994Y0254983D01*
X0065965Y0255035D01*
X0065938Y0255090D01*
X0065915Y0255145D01*
X0065895Y0255202D01*
X0065879Y0255261D01*
X0065866Y0255320D01*
X0065857Y0255379D01*
X0065852Y0255440D01*
X0065850Y0255500D01*
X0065574Y0354644D02*
X0065574Y0368841D01*
X0050415Y0368528D02*
X0050413Y0368468D01*
X0050408Y0368407D01*
X0050399Y0368348D01*
X0050386Y0368289D01*
X0050370Y0368230D01*
X0050350Y0368173D01*
X0050327Y0368118D01*
X0050300Y0368063D01*
X0050271Y0368011D01*
X0050238Y0367960D01*
X0050202Y0367911D01*
X0050164Y0367865D01*
X0050122Y0367821D01*
X0050078Y0367779D01*
X0050032Y0367741D01*
X0049983Y0367705D01*
X0049932Y0367672D01*
X0049880Y0367643D01*
X0049825Y0367616D01*
X0049770Y0367593D01*
X0049713Y0367573D01*
X0049654Y0367557D01*
X0049595Y0367544D01*
X0049536Y0367535D01*
X0049475Y0367530D01*
X0049415Y0367528D01*
X0047915Y0367528D01*
X0047415Y0368028D01*
X0028415Y0368028D01*
X0027915Y0367528D01*
X0026415Y0367528D01*
X0026355Y0367530D01*
X0026294Y0367535D01*
X0026235Y0367544D01*
X0026176Y0367557D01*
X0026117Y0367573D01*
X0026060Y0367593D01*
X0026005Y0367616D01*
X0025950Y0367643D01*
X0025898Y0367672D01*
X0025847Y0367705D01*
X0025798Y0367741D01*
X0025752Y0367779D01*
X0025708Y0367821D01*
X0025666Y0367865D01*
X0025628Y0367911D01*
X0025592Y0367960D01*
X0025559Y0368011D01*
X0025530Y0368063D01*
X0025503Y0368118D01*
X0025480Y0368173D01*
X0025460Y0368230D01*
X0025444Y0368289D01*
X0025431Y0368348D01*
X0025422Y0368407D01*
X0025417Y0368468D01*
X0025415Y0368528D01*
X0025415Y0375528D02*
X0025417Y0375588D01*
X0025422Y0375649D01*
X0025431Y0375708D01*
X0025444Y0375767D01*
X0025460Y0375826D01*
X0025480Y0375883D01*
X0025503Y0375938D01*
X0025530Y0375993D01*
X0025559Y0376045D01*
X0025592Y0376096D01*
X0025628Y0376145D01*
X0025666Y0376191D01*
X0025708Y0376235D01*
X0025752Y0376277D01*
X0025798Y0376315D01*
X0025847Y0376351D01*
X0025898Y0376384D01*
X0025950Y0376413D01*
X0026005Y0376440D01*
X0026060Y0376463D01*
X0026117Y0376483D01*
X0026176Y0376499D01*
X0026235Y0376512D01*
X0026294Y0376521D01*
X0026355Y0376526D01*
X0026415Y0376528D01*
X0027915Y0376528D01*
X0028415Y0376028D01*
X0047415Y0376028D01*
X0047915Y0376528D01*
X0049415Y0376528D01*
X0049475Y0376526D01*
X0049536Y0376521D01*
X0049595Y0376512D01*
X0049654Y0376499D01*
X0049713Y0376483D01*
X0049770Y0376463D01*
X0049825Y0376440D01*
X0049880Y0376413D01*
X0049932Y0376384D01*
X0049983Y0376351D01*
X0050032Y0376315D01*
X0050078Y0376277D01*
X0050122Y0376235D01*
X0050164Y0376191D01*
X0050202Y0376145D01*
X0050238Y0376096D01*
X0050271Y0376045D01*
X0050300Y0375993D01*
X0050327Y0375938D01*
X0050350Y0375883D01*
X0050370Y0375826D01*
X0050386Y0375767D01*
X0050399Y0375708D01*
X0050408Y0375649D01*
X0050413Y0375588D01*
X0050415Y0375528D01*
X0044165Y0391663D02*
X0059913Y0391663D01*
X0059913Y0399537D01*
X0044165Y0399537D02*
X0044165Y0391663D01*
X0084173Y0368841D02*
X0084173Y0354644D01*
X0144525Y0366494D02*
X0146025Y0366494D01*
X0146525Y0366994D01*
X0165525Y0366994D01*
X0166025Y0366494D01*
X0167525Y0366494D01*
X0167585Y0366496D01*
X0167646Y0366501D01*
X0167705Y0366510D01*
X0167764Y0366523D01*
X0167823Y0366539D01*
X0167880Y0366559D01*
X0167935Y0366582D01*
X0167990Y0366609D01*
X0168042Y0366638D01*
X0168093Y0366671D01*
X0168142Y0366707D01*
X0168188Y0366745D01*
X0168232Y0366787D01*
X0168274Y0366831D01*
X0168312Y0366877D01*
X0168348Y0366926D01*
X0168381Y0366977D01*
X0168410Y0367029D01*
X0168437Y0367084D01*
X0168460Y0367139D01*
X0168480Y0367196D01*
X0168496Y0367255D01*
X0168509Y0367314D01*
X0168518Y0367373D01*
X0168523Y0367434D01*
X0168525Y0367494D01*
X0168525Y0374494D02*
X0168523Y0374554D01*
X0168518Y0374615D01*
X0168509Y0374674D01*
X0168496Y0374733D01*
X0168480Y0374792D01*
X0168460Y0374849D01*
X0168437Y0374904D01*
X0168410Y0374959D01*
X0168381Y0375011D01*
X0168348Y0375062D01*
X0168312Y0375111D01*
X0168274Y0375157D01*
X0168232Y0375201D01*
X0168188Y0375243D01*
X0168142Y0375281D01*
X0168093Y0375317D01*
X0168042Y0375350D01*
X0167990Y0375379D01*
X0167935Y0375406D01*
X0167880Y0375429D01*
X0167823Y0375449D01*
X0167764Y0375465D01*
X0167705Y0375478D01*
X0167646Y0375487D01*
X0167585Y0375492D01*
X0167525Y0375494D01*
X0166025Y0375494D01*
X0165525Y0374994D01*
X0146525Y0374994D01*
X0146025Y0375494D01*
X0144525Y0375494D01*
X0144465Y0375492D01*
X0144404Y0375487D01*
X0144345Y0375478D01*
X0144286Y0375465D01*
X0144227Y0375449D01*
X0144170Y0375429D01*
X0144115Y0375406D01*
X0144060Y0375379D01*
X0144008Y0375350D01*
X0143957Y0375317D01*
X0143908Y0375281D01*
X0143862Y0375243D01*
X0143818Y0375201D01*
X0143776Y0375157D01*
X0143738Y0375111D01*
X0143702Y0375062D01*
X0143669Y0375011D01*
X0143640Y0374959D01*
X0143613Y0374904D01*
X0143590Y0374849D01*
X0143570Y0374792D01*
X0143554Y0374733D01*
X0143541Y0374674D01*
X0143532Y0374615D01*
X0143527Y0374554D01*
X0143525Y0374494D01*
X0143525Y0367494D02*
X0143527Y0367434D01*
X0143532Y0367373D01*
X0143541Y0367314D01*
X0143554Y0367255D01*
X0143570Y0367196D01*
X0143590Y0367139D01*
X0143613Y0367084D01*
X0143640Y0367029D01*
X0143669Y0366977D01*
X0143702Y0366926D01*
X0143738Y0366877D01*
X0143776Y0366831D01*
X0143818Y0366787D01*
X0143862Y0366745D01*
X0143908Y0366707D01*
X0143957Y0366671D01*
X0144008Y0366638D01*
X0144060Y0366609D01*
X0144115Y0366582D01*
X0144170Y0366559D01*
X0144227Y0366539D01*
X0144286Y0366523D01*
X0144345Y0366510D01*
X0144404Y0366501D01*
X0144465Y0366496D01*
X0144525Y0366494D01*
X0144559Y0390285D02*
X0160307Y0390285D01*
X0160307Y0398159D01*
X0144559Y0398159D02*
X0144559Y0390285D01*
X0278460Y0104307D02*
X0278460Y0103307D01*
X0278960Y0102807D01*
X0278960Y0093807D01*
X0278460Y0093307D01*
X0278460Y0092307D01*
X0278462Y0092247D01*
X0278467Y0092186D01*
X0278476Y0092127D01*
X0278489Y0092068D01*
X0278505Y0092009D01*
X0278525Y0091952D01*
X0278548Y0091897D01*
X0278575Y0091842D01*
X0278604Y0091790D01*
X0278637Y0091739D01*
X0278673Y0091690D01*
X0278711Y0091644D01*
X0278753Y0091600D01*
X0278797Y0091558D01*
X0278843Y0091520D01*
X0278892Y0091484D01*
X0278943Y0091451D01*
X0278995Y0091422D01*
X0279050Y0091395D01*
X0279105Y0091372D01*
X0279162Y0091352D01*
X0279221Y0091336D01*
X0279280Y0091323D01*
X0279339Y0091314D01*
X0279400Y0091309D01*
X0279460Y0091307D01*
X0284460Y0091307D02*
X0284520Y0091309D01*
X0284581Y0091314D01*
X0284640Y0091323D01*
X0284699Y0091336D01*
X0284758Y0091352D01*
X0284815Y0091372D01*
X0284870Y0091395D01*
X0284925Y0091422D01*
X0284977Y0091451D01*
X0285028Y0091484D01*
X0285077Y0091520D01*
X0285123Y0091558D01*
X0285167Y0091600D01*
X0285209Y0091644D01*
X0285247Y0091690D01*
X0285283Y0091739D01*
X0285316Y0091790D01*
X0285345Y0091842D01*
X0285372Y0091897D01*
X0285395Y0091952D01*
X0285415Y0092009D01*
X0285431Y0092068D01*
X0285444Y0092127D01*
X0285453Y0092186D01*
X0285458Y0092247D01*
X0285460Y0092307D01*
X0285460Y0093307D01*
X0284960Y0093807D01*
X0284960Y0102807D01*
X0285460Y0103307D01*
X0285460Y0104307D01*
X0285458Y0104367D01*
X0285453Y0104428D01*
X0285444Y0104487D01*
X0285431Y0104546D01*
X0285415Y0104605D01*
X0285395Y0104662D01*
X0285372Y0104717D01*
X0285345Y0104772D01*
X0285316Y0104824D01*
X0285283Y0104875D01*
X0285247Y0104924D01*
X0285209Y0104970D01*
X0285167Y0105014D01*
X0285123Y0105056D01*
X0285077Y0105094D01*
X0285028Y0105130D01*
X0284977Y0105163D01*
X0284925Y0105192D01*
X0284870Y0105219D01*
X0284815Y0105242D01*
X0284758Y0105262D01*
X0284699Y0105278D01*
X0284640Y0105291D01*
X0284581Y0105300D01*
X0284520Y0105305D01*
X0284460Y0105307D01*
X0279460Y0105307D02*
X0279400Y0105305D01*
X0279339Y0105300D01*
X0279280Y0105291D01*
X0279221Y0105278D01*
X0279162Y0105262D01*
X0279105Y0105242D01*
X0279050Y0105219D01*
X0278995Y0105192D01*
X0278943Y0105163D01*
X0278892Y0105130D01*
X0278843Y0105094D01*
X0278797Y0105056D01*
X0278753Y0105014D01*
X0278711Y0104970D01*
X0278673Y0104924D01*
X0278637Y0104875D01*
X0278604Y0104824D01*
X0278575Y0104772D01*
X0278548Y0104717D01*
X0278525Y0104662D01*
X0278505Y0104605D01*
X0278489Y0104546D01*
X0278476Y0104487D01*
X0278467Y0104428D01*
X0278462Y0104367D01*
X0278460Y0104307D01*
X0290320Y0104258D02*
X0290320Y0103258D01*
X0290820Y0102758D01*
X0290820Y0093758D01*
X0290320Y0093258D01*
X0290320Y0092258D01*
X0290322Y0092198D01*
X0290327Y0092137D01*
X0290336Y0092078D01*
X0290349Y0092019D01*
X0290365Y0091960D01*
X0290385Y0091903D01*
X0290408Y0091848D01*
X0290435Y0091793D01*
X0290464Y0091741D01*
X0290497Y0091690D01*
X0290533Y0091641D01*
X0290571Y0091595D01*
X0290613Y0091551D01*
X0290657Y0091509D01*
X0290703Y0091471D01*
X0290752Y0091435D01*
X0290803Y0091402D01*
X0290855Y0091373D01*
X0290910Y0091346D01*
X0290965Y0091323D01*
X0291022Y0091303D01*
X0291081Y0091287D01*
X0291140Y0091274D01*
X0291199Y0091265D01*
X0291260Y0091260D01*
X0291320Y0091258D01*
X0296320Y0091258D02*
X0296380Y0091260D01*
X0296441Y0091265D01*
X0296500Y0091274D01*
X0296559Y0091287D01*
X0296618Y0091303D01*
X0296675Y0091323D01*
X0296730Y0091346D01*
X0296785Y0091373D01*
X0296837Y0091402D01*
X0296888Y0091435D01*
X0296937Y0091471D01*
X0296983Y0091509D01*
X0297027Y0091551D01*
X0297069Y0091595D01*
X0297107Y0091641D01*
X0297143Y0091690D01*
X0297176Y0091741D01*
X0297205Y0091793D01*
X0297232Y0091848D01*
X0297255Y0091903D01*
X0297275Y0091960D01*
X0297291Y0092019D01*
X0297304Y0092078D01*
X0297313Y0092137D01*
X0297318Y0092198D01*
X0297320Y0092258D01*
X0297320Y0093258D01*
X0296820Y0093758D01*
X0296820Y0102758D01*
X0297320Y0103258D01*
X0297320Y0104258D01*
X0297318Y0104318D01*
X0297313Y0104379D01*
X0297304Y0104438D01*
X0297291Y0104497D01*
X0297275Y0104556D01*
X0297255Y0104613D01*
X0297232Y0104668D01*
X0297205Y0104723D01*
X0297176Y0104775D01*
X0297143Y0104826D01*
X0297107Y0104875D01*
X0297069Y0104921D01*
X0297027Y0104965D01*
X0296983Y0105007D01*
X0296937Y0105045D01*
X0296888Y0105081D01*
X0296837Y0105114D01*
X0296785Y0105143D01*
X0296730Y0105170D01*
X0296675Y0105193D01*
X0296618Y0105213D01*
X0296559Y0105229D01*
X0296500Y0105242D01*
X0296441Y0105251D01*
X0296380Y0105256D01*
X0296320Y0105258D01*
X0291320Y0105258D02*
X0291260Y0105256D01*
X0291199Y0105251D01*
X0291140Y0105242D01*
X0291081Y0105229D01*
X0291022Y0105213D01*
X0290965Y0105193D01*
X0290910Y0105170D01*
X0290855Y0105143D01*
X0290803Y0105114D01*
X0290752Y0105081D01*
X0290703Y0105045D01*
X0290657Y0105007D01*
X0290613Y0104965D01*
X0290571Y0104921D01*
X0290533Y0104875D01*
X0290497Y0104826D01*
X0290464Y0104775D01*
X0290435Y0104723D01*
X0290408Y0104668D01*
X0290385Y0104613D01*
X0290365Y0104556D01*
X0290349Y0104497D01*
X0290336Y0104438D01*
X0290327Y0104379D01*
X0290322Y0104318D01*
X0290320Y0104258D01*
X0290320Y0076945D02*
X0290320Y0075945D01*
X0290820Y0075445D01*
X0290820Y0066445D01*
X0290320Y0065945D01*
X0290320Y0064945D01*
X0290322Y0064885D01*
X0290327Y0064824D01*
X0290336Y0064765D01*
X0290349Y0064706D01*
X0290365Y0064647D01*
X0290385Y0064590D01*
X0290408Y0064535D01*
X0290435Y0064480D01*
X0290464Y0064428D01*
X0290497Y0064377D01*
X0290533Y0064328D01*
X0290571Y0064282D01*
X0290613Y0064238D01*
X0290657Y0064196D01*
X0290703Y0064158D01*
X0290752Y0064122D01*
X0290803Y0064089D01*
X0290855Y0064060D01*
X0290910Y0064033D01*
X0290965Y0064010D01*
X0291022Y0063990D01*
X0291081Y0063974D01*
X0291140Y0063961D01*
X0291199Y0063952D01*
X0291260Y0063947D01*
X0291320Y0063945D01*
X0296320Y0063945D02*
X0296380Y0063947D01*
X0296441Y0063952D01*
X0296500Y0063961D01*
X0296559Y0063974D01*
X0296618Y0063990D01*
X0296675Y0064010D01*
X0296730Y0064033D01*
X0296785Y0064060D01*
X0296837Y0064089D01*
X0296888Y0064122D01*
X0296937Y0064158D01*
X0296983Y0064196D01*
X0297027Y0064238D01*
X0297069Y0064282D01*
X0297107Y0064328D01*
X0297143Y0064377D01*
X0297176Y0064428D01*
X0297205Y0064480D01*
X0297232Y0064535D01*
X0297255Y0064590D01*
X0297275Y0064647D01*
X0297291Y0064706D01*
X0297304Y0064765D01*
X0297313Y0064824D01*
X0297318Y0064885D01*
X0297320Y0064945D01*
X0297320Y0065945D01*
X0296820Y0066445D01*
X0296820Y0075445D01*
X0297320Y0075945D01*
X0297320Y0076945D01*
X0297318Y0077005D01*
X0297313Y0077066D01*
X0297304Y0077125D01*
X0297291Y0077184D01*
X0297275Y0077243D01*
X0297255Y0077300D01*
X0297232Y0077355D01*
X0297205Y0077410D01*
X0297176Y0077462D01*
X0297143Y0077513D01*
X0297107Y0077562D01*
X0297069Y0077608D01*
X0297027Y0077652D01*
X0296983Y0077694D01*
X0296937Y0077732D01*
X0296888Y0077768D01*
X0296837Y0077801D01*
X0296785Y0077830D01*
X0296730Y0077857D01*
X0296675Y0077880D01*
X0296618Y0077900D01*
X0296559Y0077916D01*
X0296500Y0077929D01*
X0296441Y0077938D01*
X0296380Y0077943D01*
X0296320Y0077945D01*
X0291320Y0077945D02*
X0291260Y0077943D01*
X0291199Y0077938D01*
X0291140Y0077929D01*
X0291081Y0077916D01*
X0291022Y0077900D01*
X0290965Y0077880D01*
X0290910Y0077857D01*
X0290855Y0077830D01*
X0290803Y0077801D01*
X0290752Y0077768D01*
X0290703Y0077732D01*
X0290657Y0077694D01*
X0290613Y0077652D01*
X0290571Y0077608D01*
X0290533Y0077562D01*
X0290497Y0077513D01*
X0290464Y0077462D01*
X0290435Y0077410D01*
X0290408Y0077355D01*
X0290385Y0077300D01*
X0290365Y0077243D01*
X0290349Y0077184D01*
X0290336Y0077125D01*
X0290327Y0077066D01*
X0290322Y0077005D01*
X0290320Y0076945D01*
X0285460Y0076945D02*
X0285460Y0075945D01*
X0284960Y0075445D01*
X0284960Y0066445D01*
X0285460Y0065945D01*
X0285460Y0064945D01*
X0285458Y0064885D01*
X0285453Y0064824D01*
X0285444Y0064765D01*
X0285431Y0064706D01*
X0285415Y0064647D01*
X0285395Y0064590D01*
X0285372Y0064535D01*
X0285345Y0064480D01*
X0285316Y0064428D01*
X0285283Y0064377D01*
X0285247Y0064328D01*
X0285209Y0064282D01*
X0285167Y0064238D01*
X0285123Y0064196D01*
X0285077Y0064158D01*
X0285028Y0064122D01*
X0284977Y0064089D01*
X0284925Y0064060D01*
X0284870Y0064033D01*
X0284815Y0064010D01*
X0284758Y0063990D01*
X0284699Y0063974D01*
X0284640Y0063961D01*
X0284581Y0063952D01*
X0284520Y0063947D01*
X0284460Y0063945D01*
X0279460Y0063945D02*
X0279400Y0063947D01*
X0279339Y0063952D01*
X0279280Y0063961D01*
X0279221Y0063974D01*
X0279162Y0063990D01*
X0279105Y0064010D01*
X0279050Y0064033D01*
X0278995Y0064060D01*
X0278943Y0064089D01*
X0278892Y0064122D01*
X0278843Y0064158D01*
X0278797Y0064196D01*
X0278753Y0064238D01*
X0278711Y0064282D01*
X0278673Y0064328D01*
X0278637Y0064377D01*
X0278604Y0064428D01*
X0278575Y0064480D01*
X0278548Y0064535D01*
X0278525Y0064590D01*
X0278505Y0064647D01*
X0278489Y0064706D01*
X0278476Y0064765D01*
X0278467Y0064824D01*
X0278462Y0064885D01*
X0278460Y0064945D01*
X0278460Y0065945D01*
X0278960Y0066445D01*
X0278960Y0075445D01*
X0278460Y0075945D01*
X0278460Y0076945D01*
X0278462Y0077005D01*
X0278467Y0077066D01*
X0278476Y0077125D01*
X0278489Y0077184D01*
X0278505Y0077243D01*
X0278525Y0077300D01*
X0278548Y0077355D01*
X0278575Y0077410D01*
X0278604Y0077462D01*
X0278637Y0077513D01*
X0278673Y0077562D01*
X0278711Y0077608D01*
X0278753Y0077652D01*
X0278797Y0077694D01*
X0278843Y0077732D01*
X0278892Y0077768D01*
X0278943Y0077801D01*
X0278995Y0077830D01*
X0279050Y0077857D01*
X0279105Y0077880D01*
X0279162Y0077900D01*
X0279221Y0077916D01*
X0279280Y0077929D01*
X0279339Y0077938D01*
X0279400Y0077943D01*
X0279460Y0077945D01*
X0284460Y0077945D02*
X0284520Y0077943D01*
X0284581Y0077938D01*
X0284640Y0077929D01*
X0284699Y0077916D01*
X0284758Y0077900D01*
X0284815Y0077880D01*
X0284870Y0077857D01*
X0284925Y0077830D01*
X0284977Y0077801D01*
X0285028Y0077768D01*
X0285077Y0077732D01*
X0285123Y0077694D01*
X0285167Y0077652D01*
X0285209Y0077608D01*
X0285247Y0077562D01*
X0285283Y0077513D01*
X0285316Y0077462D01*
X0285345Y0077410D01*
X0285372Y0077355D01*
X0285395Y0077300D01*
X0285415Y0077243D01*
X0285431Y0077184D01*
X0285444Y0077125D01*
X0285453Y0077066D01*
X0285458Y0077005D01*
X0285460Y0076945D01*
X0270850Y0065500D02*
X0268850Y0065500D01*
X0269850Y0066500D02*
X0269850Y0064500D01*
X0266350Y0065500D02*
X0264350Y0065500D01*
X0259350Y0071500D02*
X0259353Y0071709D01*
X0259360Y0071917D01*
X0259373Y0072125D01*
X0259391Y0072333D01*
X0259414Y0072540D01*
X0259442Y0072747D01*
X0259475Y0072953D01*
X0259513Y0073158D01*
X0259557Y0073362D01*
X0259605Y0073565D01*
X0259658Y0073767D01*
X0259716Y0073967D01*
X0259779Y0074166D01*
X0259847Y0074364D01*
X0259920Y0074559D01*
X0259997Y0074753D01*
X0260079Y0074945D01*
X0260166Y0075134D01*
X0260258Y0075322D01*
X0260354Y0075507D01*
X0260454Y0075690D01*
X0260559Y0075870D01*
X0260669Y0076047D01*
X0260783Y0076222D01*
X0260901Y0076394D01*
X0261023Y0076563D01*
X0261149Y0076729D01*
X0261279Y0076892D01*
X0261414Y0077052D01*
X0261552Y0077208D01*
X0261694Y0077361D01*
X0261840Y0077510D01*
X0261989Y0077656D01*
X0262142Y0077798D01*
X0262298Y0077936D01*
X0262458Y0078071D01*
X0262621Y0078201D01*
X0262787Y0078327D01*
X0262956Y0078449D01*
X0263128Y0078567D01*
X0263303Y0078681D01*
X0263480Y0078791D01*
X0263660Y0078896D01*
X0263843Y0078996D01*
X0264028Y0079092D01*
X0264216Y0079184D01*
X0264405Y0079271D01*
X0264597Y0079353D01*
X0264791Y0079430D01*
X0264986Y0079503D01*
X0265184Y0079571D01*
X0265383Y0079634D01*
X0265583Y0079692D01*
X0265785Y0079745D01*
X0265988Y0079793D01*
X0266192Y0079837D01*
X0266397Y0079875D01*
X0266603Y0079908D01*
X0266810Y0079936D01*
X0267017Y0079959D01*
X0267225Y0079977D01*
X0267433Y0079990D01*
X0267641Y0079997D01*
X0267850Y0080000D01*
X0268059Y0079997D01*
X0268267Y0079990D01*
X0268475Y0079977D01*
X0268683Y0079959D01*
X0268890Y0079936D01*
X0269097Y0079908D01*
X0269303Y0079875D01*
X0269508Y0079837D01*
X0269712Y0079793D01*
X0269915Y0079745D01*
X0270117Y0079692D01*
X0270317Y0079634D01*
X0270516Y0079571D01*
X0270714Y0079503D01*
X0270909Y0079430D01*
X0271103Y0079353D01*
X0271295Y0079271D01*
X0271484Y0079184D01*
X0271672Y0079092D01*
X0271857Y0078996D01*
X0272040Y0078896D01*
X0272220Y0078791D01*
X0272397Y0078681D01*
X0272572Y0078567D01*
X0272744Y0078449D01*
X0272913Y0078327D01*
X0273079Y0078201D01*
X0273242Y0078071D01*
X0273402Y0077936D01*
X0273558Y0077798D01*
X0273711Y0077656D01*
X0273860Y0077510D01*
X0274006Y0077361D01*
X0274148Y0077208D01*
X0274286Y0077052D01*
X0274421Y0076892D01*
X0274551Y0076729D01*
X0274677Y0076563D01*
X0274799Y0076394D01*
X0274917Y0076222D01*
X0275031Y0076047D01*
X0275141Y0075870D01*
X0275246Y0075690D01*
X0275346Y0075507D01*
X0275442Y0075322D01*
X0275534Y0075134D01*
X0275621Y0074945D01*
X0275703Y0074753D01*
X0275780Y0074559D01*
X0275853Y0074364D01*
X0275921Y0074166D01*
X0275984Y0073967D01*
X0276042Y0073767D01*
X0276095Y0073565D01*
X0276143Y0073362D01*
X0276187Y0073158D01*
X0276225Y0072953D01*
X0276258Y0072747D01*
X0276286Y0072540D01*
X0276309Y0072333D01*
X0276327Y0072125D01*
X0276340Y0071917D01*
X0276347Y0071709D01*
X0276350Y0071500D01*
X0276347Y0071291D01*
X0276340Y0071083D01*
X0276327Y0070875D01*
X0276309Y0070667D01*
X0276286Y0070460D01*
X0276258Y0070253D01*
X0276225Y0070047D01*
X0276187Y0069842D01*
X0276143Y0069638D01*
X0276095Y0069435D01*
X0276042Y0069233D01*
X0275984Y0069033D01*
X0275921Y0068834D01*
X0275853Y0068636D01*
X0275780Y0068441D01*
X0275703Y0068247D01*
X0275621Y0068055D01*
X0275534Y0067866D01*
X0275442Y0067678D01*
X0275346Y0067493D01*
X0275246Y0067310D01*
X0275141Y0067130D01*
X0275031Y0066953D01*
X0274917Y0066778D01*
X0274799Y0066606D01*
X0274677Y0066437D01*
X0274551Y0066271D01*
X0274421Y0066108D01*
X0274286Y0065948D01*
X0274148Y0065792D01*
X0274006Y0065639D01*
X0273860Y0065490D01*
X0273711Y0065344D01*
X0273558Y0065202D01*
X0273402Y0065064D01*
X0273242Y0064929D01*
X0273079Y0064799D01*
X0272913Y0064673D01*
X0272744Y0064551D01*
X0272572Y0064433D01*
X0272397Y0064319D01*
X0272220Y0064209D01*
X0272040Y0064104D01*
X0271857Y0064004D01*
X0271672Y0063908D01*
X0271484Y0063816D01*
X0271295Y0063729D01*
X0271103Y0063647D01*
X0270909Y0063570D01*
X0270714Y0063497D01*
X0270516Y0063429D01*
X0270317Y0063366D01*
X0270117Y0063308D01*
X0269915Y0063255D01*
X0269712Y0063207D01*
X0269508Y0063163D01*
X0269303Y0063125D01*
X0269097Y0063092D01*
X0268890Y0063064D01*
X0268683Y0063041D01*
X0268475Y0063023D01*
X0268267Y0063010D01*
X0268059Y0063003D01*
X0267850Y0063000D01*
X0267641Y0063003D01*
X0267433Y0063010D01*
X0267225Y0063023D01*
X0267017Y0063041D01*
X0266810Y0063064D01*
X0266603Y0063092D01*
X0266397Y0063125D01*
X0266192Y0063163D01*
X0265988Y0063207D01*
X0265785Y0063255D01*
X0265583Y0063308D01*
X0265383Y0063366D01*
X0265184Y0063429D01*
X0264986Y0063497D01*
X0264791Y0063570D01*
X0264597Y0063647D01*
X0264405Y0063729D01*
X0264216Y0063816D01*
X0264028Y0063908D01*
X0263843Y0064004D01*
X0263660Y0064104D01*
X0263480Y0064209D01*
X0263303Y0064319D01*
X0263128Y0064433D01*
X0262956Y0064551D01*
X0262787Y0064673D01*
X0262621Y0064799D01*
X0262458Y0064929D01*
X0262298Y0065064D01*
X0262142Y0065202D01*
X0261989Y0065344D01*
X0261840Y0065490D01*
X0261694Y0065639D01*
X0261552Y0065792D01*
X0261414Y0065948D01*
X0261279Y0066108D01*
X0261149Y0066271D01*
X0261023Y0066437D01*
X0260901Y0066606D01*
X0260783Y0066778D01*
X0260669Y0066953D01*
X0260559Y0067130D01*
X0260454Y0067310D01*
X0260354Y0067493D01*
X0260258Y0067678D01*
X0260166Y0067866D01*
X0260079Y0068055D01*
X0259997Y0068247D01*
X0259920Y0068441D01*
X0259847Y0068636D01*
X0259779Y0068834D01*
X0259716Y0069033D01*
X0259658Y0069233D01*
X0259605Y0069435D01*
X0259557Y0069638D01*
X0259513Y0069842D01*
X0259475Y0070047D01*
X0259442Y0070253D01*
X0259414Y0070460D01*
X0259391Y0070667D01*
X0259373Y0070875D01*
X0259360Y0071083D01*
X0259353Y0071291D01*
X0259350Y0071500D01*
D12*
X0052252Y0065441D02*
X0002646Y0065441D01*
X0002646Y0087559D01*
X0053039Y0087559D01*
X0053039Y0083228D01*
X0052252Y0069772D02*
X0052252Y0065441D01*
X0052252Y0117943D02*
X0002646Y0117943D01*
X0002646Y0173061D01*
X0053039Y0173061D01*
X0053039Y0168730D01*
X0052252Y0122274D02*
X0052252Y0117943D01*
X0052259Y0284183D02*
X0002653Y0284183D01*
X0002653Y0339301D01*
X0053046Y0339301D01*
X0053046Y0334970D01*
X0067209Y0357842D02*
X0067211Y0357889D01*
X0067217Y0357936D01*
X0067227Y0357983D01*
X0067240Y0358028D01*
X0067258Y0358072D01*
X0067279Y0358114D01*
X0067303Y0358155D01*
X0067331Y0358193D01*
X0067362Y0358229D01*
X0067396Y0358262D01*
X0067432Y0358292D01*
X0067471Y0358319D01*
X0067512Y0358343D01*
X0067555Y0358363D01*
X0067599Y0358379D01*
X0067645Y0358392D01*
X0067691Y0358401D01*
X0067739Y0358406D01*
X0067786Y0358407D01*
X0067833Y0358404D01*
X0067880Y0358397D01*
X0067926Y0358386D01*
X0067971Y0358372D01*
X0068015Y0358353D01*
X0068056Y0358331D01*
X0068096Y0358306D01*
X0068134Y0358277D01*
X0068169Y0358246D01*
X0068202Y0358211D01*
X0068231Y0358174D01*
X0068257Y0358135D01*
X0068280Y0358093D01*
X0068299Y0358050D01*
X0068315Y0358005D01*
X0068327Y0357959D01*
X0068335Y0357913D01*
X0068339Y0357866D01*
X0068339Y0357818D01*
X0068335Y0357771D01*
X0068327Y0357725D01*
X0068315Y0357679D01*
X0068299Y0357634D01*
X0068280Y0357591D01*
X0068257Y0357549D01*
X0068231Y0357510D01*
X0068202Y0357473D01*
X0068169Y0357438D01*
X0068134Y0357407D01*
X0068096Y0357378D01*
X0068057Y0357353D01*
X0068015Y0357331D01*
X0067971Y0357312D01*
X0067926Y0357298D01*
X0067880Y0357287D01*
X0067833Y0357280D01*
X0067786Y0357277D01*
X0067739Y0357278D01*
X0067691Y0357283D01*
X0067645Y0357292D01*
X0067599Y0357305D01*
X0067555Y0357321D01*
X0067512Y0357341D01*
X0067471Y0357365D01*
X0067432Y0357392D01*
X0067396Y0357422D01*
X0067362Y0357455D01*
X0067331Y0357491D01*
X0067303Y0357529D01*
X0067279Y0357570D01*
X0067258Y0357612D01*
X0067240Y0357656D01*
X0067227Y0357701D01*
X0067217Y0357748D01*
X0067211Y0357795D01*
X0067209Y0357842D01*
X0052259Y0288514D02*
X0052259Y0284183D01*
X0157411Y0321250D02*
X0157411Y0321624D01*
X0157411Y0321250D02*
X0163793Y0321250D01*
X0163793Y0321624D01*
X0163793Y0332077D02*
X0163793Y0332450D01*
X0157411Y0332450D01*
X0157411Y0332077D01*
X0241073Y0330531D02*
X0241073Y0330158D01*
X0241073Y0330531D02*
X0247454Y0330531D01*
X0247454Y0330158D01*
X0247454Y0319704D02*
X0247454Y0319331D01*
X0241073Y0319331D01*
X0241073Y0319704D01*
X0331163Y0262739D02*
X0331165Y0262786D01*
X0331171Y0262833D01*
X0331181Y0262880D01*
X0331194Y0262925D01*
X0331212Y0262969D01*
X0331233Y0263011D01*
X0331257Y0263052D01*
X0331285Y0263090D01*
X0331316Y0263126D01*
X0331350Y0263159D01*
X0331386Y0263189D01*
X0331425Y0263216D01*
X0331466Y0263240D01*
X0331509Y0263260D01*
X0331553Y0263276D01*
X0331599Y0263289D01*
X0331645Y0263298D01*
X0331693Y0263303D01*
X0331740Y0263304D01*
X0331787Y0263301D01*
X0331834Y0263294D01*
X0331880Y0263283D01*
X0331925Y0263269D01*
X0331969Y0263250D01*
X0332010Y0263228D01*
X0332050Y0263203D01*
X0332088Y0263174D01*
X0332123Y0263143D01*
X0332156Y0263108D01*
X0332185Y0263071D01*
X0332211Y0263032D01*
X0332234Y0262990D01*
X0332253Y0262947D01*
X0332269Y0262902D01*
X0332281Y0262856D01*
X0332289Y0262810D01*
X0332293Y0262763D01*
X0332293Y0262715D01*
X0332289Y0262668D01*
X0332281Y0262622D01*
X0332269Y0262576D01*
X0332253Y0262531D01*
X0332234Y0262488D01*
X0332211Y0262446D01*
X0332185Y0262407D01*
X0332156Y0262370D01*
X0332123Y0262335D01*
X0332088Y0262304D01*
X0332050Y0262275D01*
X0332011Y0262250D01*
X0331969Y0262228D01*
X0331925Y0262209D01*
X0331880Y0262195D01*
X0331834Y0262184D01*
X0331787Y0262177D01*
X0331740Y0262174D01*
X0331693Y0262175D01*
X0331645Y0262180D01*
X0331599Y0262189D01*
X0331553Y0262202D01*
X0331509Y0262218D01*
X0331466Y0262238D01*
X0331425Y0262262D01*
X0331386Y0262289D01*
X0331350Y0262319D01*
X0331316Y0262352D01*
X0331285Y0262388D01*
X0331257Y0262426D01*
X0331233Y0262467D01*
X0331212Y0262509D01*
X0331194Y0262553D01*
X0331181Y0262598D01*
X0331171Y0262645D01*
X0331165Y0262692D01*
X0331163Y0262739D01*
X0349555Y0284183D02*
X0399949Y0284183D01*
X0399949Y0339301D01*
X0350343Y0339301D01*
X0350343Y0334970D01*
X0349555Y0288514D02*
X0349555Y0284183D01*
X0350343Y0193197D02*
X0350343Y0188866D01*
X0350343Y0193197D02*
X0399949Y0193197D01*
X0399949Y0121579D01*
X0349555Y0121579D01*
X0349555Y0125909D01*
X0350343Y0112748D02*
X0350343Y0108417D01*
X0350343Y0112748D02*
X0399949Y0112748D01*
X0399949Y0041130D01*
X0349555Y0041130D01*
X0349555Y0045461D01*
X0273046Y0118737D02*
X0254161Y0118737D01*
X0254161Y0135653D01*
X0273046Y0135653D01*
X0273046Y0118737D01*
D13*
X0372521Y0275475D02*
X0375790Y0275475D01*
X0378046Y0276292D02*
X0378046Y0281196D01*
X0380498Y0281196D01*
X0381315Y0280379D01*
X0381315Y0278744D01*
X0380498Y0277927D01*
X0378046Y0277927D01*
X0383570Y0277109D02*
X0384388Y0276292D01*
X0386022Y0276292D01*
X0386840Y0277109D01*
X0386840Y0280379D01*
X0386022Y0281196D01*
X0384388Y0281196D01*
X0383570Y0280379D01*
X0383570Y0277109D01*
X0389095Y0276292D02*
X0389095Y0281196D01*
X0391547Y0281196D01*
X0392364Y0280379D01*
X0392364Y0278744D01*
X0391547Y0277927D01*
X0389095Y0277927D01*
X0390730Y0277927D02*
X0392364Y0276292D01*
X0396254Y0276292D02*
X0396254Y0281196D01*
X0394620Y0281196D02*
X0397889Y0281196D01*
X0370266Y0281196D02*
X0370266Y0280379D01*
X0368631Y0278744D01*
X0368631Y0276292D01*
X0368631Y0278744D02*
X0366996Y0280379D01*
X0366996Y0281196D01*
X0364741Y0280379D02*
X0364741Y0278744D01*
X0363924Y0277927D01*
X0361471Y0277927D01*
X0361471Y0276292D02*
X0361471Y0281196D01*
X0363924Y0281196D01*
X0364741Y0280379D01*
X0363106Y0277927D02*
X0364741Y0276292D01*
X0359216Y0276292D02*
X0355947Y0276292D01*
X0355947Y0281196D01*
X0359216Y0281196D01*
X0357581Y0278744D02*
X0355947Y0278744D01*
X0353691Y0281196D02*
X0350422Y0281196D01*
X0352057Y0281196D02*
X0352057Y0276292D01*
X0346532Y0276292D02*
X0346532Y0281196D01*
X0344897Y0281196D02*
X0348167Y0281196D01*
X0342642Y0279562D02*
X0342642Y0276292D01*
X0342642Y0278744D02*
X0339373Y0278744D01*
X0339373Y0279562D02*
X0341007Y0281196D01*
X0342642Y0279562D01*
X0339373Y0279562D02*
X0339373Y0276292D01*
X0337117Y0277109D02*
X0336300Y0276292D01*
X0333848Y0276292D01*
X0333848Y0281196D01*
X0336300Y0281196D01*
X0337117Y0280379D01*
X0337117Y0279562D01*
X0336300Y0278744D01*
X0333848Y0278744D01*
X0336300Y0278744D02*
X0337117Y0277927D01*
X0337117Y0277109D01*
X0089690Y0180139D02*
X0089690Y0176869D01*
X0088873Y0176052D01*
X0086421Y0176052D01*
X0086421Y0180956D01*
X0088873Y0180956D01*
X0089690Y0180139D01*
X0084165Y0180956D02*
X0080896Y0180956D01*
X0080896Y0176052D01*
X0084165Y0176052D01*
X0082531Y0178504D02*
X0080896Y0178504D01*
X0078641Y0176869D02*
X0077823Y0176052D01*
X0076189Y0176052D01*
X0075371Y0176869D01*
X0075371Y0180139D01*
X0076189Y0180956D01*
X0077823Y0180956D01*
X0078641Y0180139D01*
X0073116Y0180956D02*
X0073116Y0176052D01*
X0069847Y0180956D01*
X0069847Y0176052D01*
X0067591Y0176052D02*
X0067591Y0179321D01*
X0065957Y0180956D01*
X0064322Y0179321D01*
X0064322Y0176052D01*
X0062067Y0176052D02*
X0058797Y0176052D01*
X0058797Y0180956D01*
X0056542Y0179321D02*
X0056542Y0176052D01*
X0056542Y0178504D02*
X0053272Y0178504D01*
X0053272Y0179321D02*
X0053272Y0176052D01*
X0051017Y0176869D02*
X0050200Y0176052D01*
X0047748Y0176052D01*
X0047748Y0180956D01*
X0050200Y0180956D01*
X0051017Y0180139D01*
X0051017Y0179321D01*
X0050200Y0178504D01*
X0047748Y0178504D01*
X0050200Y0178504D02*
X0051017Y0177687D01*
X0051017Y0176869D01*
X0053272Y0179321D02*
X0054907Y0180956D01*
X0056542Y0179321D01*
X0064322Y0178504D02*
X0067591Y0178504D01*
X0045492Y0175235D02*
X0042223Y0175235D01*
X0038333Y0176052D02*
X0038333Y0178504D01*
X0039968Y0180139D01*
X0039968Y0180956D01*
X0038333Y0178504D02*
X0036698Y0180139D01*
X0036698Y0180956D01*
X0034443Y0180139D02*
X0034443Y0178504D01*
X0033626Y0177687D01*
X0031174Y0177687D01*
X0032808Y0177687D02*
X0034443Y0176052D01*
X0031174Y0176052D02*
X0031174Y0180956D01*
X0033626Y0180956D01*
X0034443Y0180139D01*
X0028918Y0180956D02*
X0025649Y0180956D01*
X0025649Y0176052D01*
X0028918Y0176052D01*
X0027284Y0178504D02*
X0025649Y0178504D01*
X0023394Y0180956D02*
X0020124Y0180956D01*
X0021759Y0180956D02*
X0021759Y0176052D01*
X0016234Y0176052D02*
X0016234Y0180956D01*
X0014599Y0180956D02*
X0017869Y0180956D01*
X0012344Y0179321D02*
X0012344Y0176052D01*
X0012344Y0178504D02*
X0009075Y0178504D01*
X0009075Y0179321D02*
X0009075Y0176052D01*
X0006819Y0176869D02*
X0006002Y0176052D01*
X0003550Y0176052D01*
X0003550Y0180956D01*
X0006002Y0180956D01*
X0006819Y0180139D01*
X0006819Y0179321D01*
X0006002Y0178504D01*
X0003550Y0178504D01*
X0006002Y0178504D02*
X0006819Y0177687D01*
X0006819Y0176869D01*
X0009075Y0179321D02*
X0010709Y0180956D01*
X0012344Y0179321D01*
X0012418Y0096056D02*
X0010815Y0096056D01*
X0011616Y0096056D02*
X0011616Y0091246D01*
X0010815Y0091246D02*
X0012418Y0091246D01*
X0014440Y0091246D02*
X0017646Y0091246D01*
X0019878Y0091246D02*
X0023084Y0091246D01*
X0025315Y0090444D02*
X0028522Y0090444D01*
X0030753Y0092048D02*
X0031555Y0091246D01*
X0033158Y0091246D01*
X0033959Y0092048D01*
X0033959Y0092849D01*
X0033158Y0093651D01*
X0031555Y0093651D01*
X0030753Y0094452D01*
X0030753Y0095254D01*
X0031555Y0096056D01*
X0033158Y0096056D01*
X0033959Y0095254D01*
X0036191Y0096056D02*
X0036191Y0091246D01*
X0037794Y0092849D01*
X0039397Y0091246D01*
X0039397Y0096056D01*
X0041628Y0096056D02*
X0043232Y0096056D01*
X0042430Y0096056D02*
X0042430Y0091246D01*
X0041628Y0091246D02*
X0043232Y0091246D01*
X0046857Y0091246D02*
X0046857Y0096056D01*
X0045254Y0096056D02*
X0048460Y0096056D01*
X0050691Y0095254D02*
X0050691Y0092048D01*
X0051493Y0091246D01*
X0053096Y0091246D01*
X0053898Y0092048D01*
X0056129Y0091246D02*
X0056129Y0096056D01*
X0053898Y0095254D02*
X0053096Y0096056D01*
X0051493Y0096056D01*
X0050691Y0095254D01*
X0056129Y0093651D02*
X0059335Y0093651D01*
X0059335Y0096056D02*
X0059335Y0091246D01*
X0019878Y0091246D02*
X0019878Y0096056D01*
X0014440Y0096056D02*
X0014440Y0091246D01*
X0008583Y0091246D02*
X0006179Y0093651D01*
X0005377Y0092849D02*
X0008583Y0096056D01*
X0005377Y0096056D02*
X0005377Y0091246D01*
X0006009Y0342292D02*
X0003557Y0342292D01*
X0003557Y0347196D01*
X0006009Y0347196D01*
X0006827Y0346379D01*
X0006827Y0345562D01*
X0006009Y0344744D01*
X0003557Y0344744D01*
X0006009Y0344744D02*
X0006827Y0343927D01*
X0006827Y0343109D01*
X0006009Y0342292D01*
X0009082Y0342292D02*
X0009082Y0345562D01*
X0010717Y0347196D01*
X0012351Y0345562D01*
X0012351Y0342292D01*
X0012351Y0344744D02*
X0009082Y0344744D01*
X0014607Y0347196D02*
X0017876Y0347196D01*
X0016241Y0347196D02*
X0016241Y0342292D01*
X0021766Y0342292D02*
X0021766Y0347196D01*
X0020131Y0347196D02*
X0023401Y0347196D01*
X0025656Y0347196D02*
X0025656Y0342292D01*
X0028925Y0342292D01*
X0031181Y0342292D02*
X0031181Y0347196D01*
X0033633Y0347196D01*
X0034450Y0346379D01*
X0034450Y0344744D01*
X0033633Y0343927D01*
X0031181Y0343927D01*
X0032815Y0343927D02*
X0034450Y0342292D01*
X0038340Y0342292D02*
X0038340Y0344744D01*
X0039975Y0346379D01*
X0039975Y0347196D01*
X0038340Y0344744D02*
X0036705Y0346379D01*
X0036705Y0347196D01*
X0042230Y0341475D02*
X0045500Y0341475D01*
X0047755Y0343109D02*
X0048572Y0342292D01*
X0050207Y0342292D01*
X0051024Y0343109D01*
X0051024Y0343927D01*
X0050207Y0344744D01*
X0048572Y0344744D01*
X0047755Y0345562D01*
X0047755Y0346379D01*
X0048572Y0347196D01*
X0050207Y0347196D01*
X0051024Y0346379D01*
X0053280Y0347196D02*
X0056549Y0347196D01*
X0054914Y0347196D02*
X0054914Y0342292D01*
X0058804Y0342292D02*
X0058804Y0347196D01*
X0061256Y0347196D01*
X0062074Y0346379D01*
X0062074Y0345562D01*
X0061256Y0344744D01*
X0058804Y0344744D01*
X0058804Y0342292D02*
X0061256Y0342292D01*
X0062074Y0343109D01*
X0062074Y0343927D01*
X0061256Y0344744D01*
X0064329Y0342292D02*
X0066781Y0342292D01*
X0067598Y0343109D01*
X0067598Y0346379D01*
X0066781Y0347196D01*
X0064329Y0347196D01*
X0064329Y0342292D01*
X0028925Y0347196D02*
X0025656Y0347196D01*
X0025656Y0344744D02*
X0027291Y0344744D01*
D14*
X0005999Y0311742D03*
X0005992Y0145502D03*
X0005992Y0076500D03*
X0396602Y0076939D03*
X0396602Y0157388D03*
X0396602Y0311742D03*
D15*
X0242647Y0329231D02*
X0242649Y0329254D01*
X0242655Y0329277D01*
X0242664Y0329298D01*
X0242677Y0329318D01*
X0242693Y0329335D01*
X0242711Y0329349D01*
X0242731Y0329360D01*
X0242753Y0329368D01*
X0242776Y0329372D01*
X0242800Y0329372D01*
X0242823Y0329368D01*
X0242845Y0329360D01*
X0242865Y0329349D01*
X0242883Y0329335D01*
X0242899Y0329318D01*
X0242912Y0329298D01*
X0242921Y0329277D01*
X0242927Y0329254D01*
X0242929Y0329231D01*
X0242927Y0329208D01*
X0242921Y0329185D01*
X0242912Y0329164D01*
X0242899Y0329144D01*
X0242883Y0329127D01*
X0242865Y0329113D01*
X0242845Y0329102D01*
X0242823Y0329094D01*
X0242800Y0329090D01*
X0242776Y0329090D01*
X0242753Y0329094D01*
X0242731Y0329102D01*
X0242711Y0329113D01*
X0242693Y0329127D01*
X0242677Y0329144D01*
X0242664Y0329164D01*
X0242655Y0329185D01*
X0242649Y0329208D01*
X0242647Y0329231D01*
X0161936Y0322550D02*
X0161938Y0322573D01*
X0161944Y0322596D01*
X0161953Y0322617D01*
X0161966Y0322637D01*
X0161982Y0322654D01*
X0162000Y0322668D01*
X0162020Y0322679D01*
X0162042Y0322687D01*
X0162065Y0322691D01*
X0162089Y0322691D01*
X0162112Y0322687D01*
X0162134Y0322679D01*
X0162154Y0322668D01*
X0162172Y0322654D01*
X0162188Y0322637D01*
X0162201Y0322617D01*
X0162210Y0322596D01*
X0162216Y0322573D01*
X0162218Y0322550D01*
X0162216Y0322527D01*
X0162210Y0322504D01*
X0162201Y0322483D01*
X0162188Y0322463D01*
X0162172Y0322446D01*
X0162154Y0322432D01*
X0162134Y0322421D01*
X0162112Y0322413D01*
X0162089Y0322409D01*
X0162065Y0322409D01*
X0162042Y0322413D01*
X0162020Y0322421D01*
X0162000Y0322432D01*
X0161982Y0322446D01*
X0161966Y0322463D01*
X0161953Y0322483D01*
X0161944Y0322504D01*
X0161938Y0322527D01*
X0161936Y0322550D01*
X0067779Y0214262D02*
X0057779Y0214262D01*
X0057779Y0193262D01*
X0067779Y0193262D01*
X0067779Y0214262D01*
X0065279Y0203762D02*
X0060279Y0203762D01*
X0255850Y0103000D02*
X0255850Y0082000D01*
X0265850Y0082000D01*
X0265850Y0103000D01*
X0255850Y0103000D01*
X0258350Y0092500D02*
X0263350Y0092500D01*
D16*
X0319365Y0257289D02*
X0320366Y0258039D01*
X0319365Y0258790D01*
X0320838Y0258289D02*
X0321338Y0258790D01*
X0321839Y0258289D01*
X0321839Y0257289D01*
X0322311Y0257539D02*
X0322561Y0257289D01*
X0323062Y0257289D01*
X0323312Y0257539D01*
X0323785Y0257539D02*
X0324035Y0257289D01*
X0324535Y0257289D01*
X0324785Y0257539D01*
X0324785Y0257789D01*
X0324535Y0258039D01*
X0324035Y0258039D01*
X0323785Y0258289D01*
X0323785Y0258540D01*
X0324035Y0258790D01*
X0324535Y0258790D01*
X0324785Y0258540D01*
X0325258Y0258790D02*
X0326259Y0258790D01*
X0326259Y0258540D01*
X0325258Y0257539D01*
X0325258Y0257289D01*
X0326731Y0257289D02*
X0327732Y0258289D01*
X0327732Y0258540D01*
X0327482Y0258790D01*
X0326981Y0258790D01*
X0326731Y0258540D01*
X0326731Y0257289D02*
X0327732Y0257289D01*
X0328204Y0257289D02*
X0329205Y0258289D01*
X0329205Y0258540D01*
X0328955Y0258790D01*
X0328454Y0258790D01*
X0328204Y0258540D01*
X0328204Y0257289D02*
X0329205Y0257289D01*
X0323312Y0258540D02*
X0323062Y0258790D01*
X0322561Y0258790D01*
X0322311Y0258540D01*
X0322311Y0257539D01*
X0321839Y0258039D02*
X0320838Y0258039D01*
X0320838Y0258289D02*
X0320838Y0257289D01*
X0254313Y0317918D02*
X0252812Y0317918D01*
X0252812Y0318669D01*
X0253062Y0318919D01*
X0253563Y0318919D01*
X0253813Y0318669D01*
X0253813Y0317918D01*
X0254063Y0319392D02*
X0254313Y0319642D01*
X0254313Y0320142D01*
X0254063Y0320392D01*
X0253062Y0320392D01*
X0252812Y0320142D01*
X0252812Y0319642D01*
X0253062Y0319392D01*
X0254063Y0319392D01*
X0253813Y0320865D02*
X0253813Y0321615D01*
X0253563Y0321866D01*
X0253062Y0321866D01*
X0252812Y0321615D01*
X0252812Y0320865D01*
X0254313Y0320865D01*
X0253813Y0321365D02*
X0254313Y0321866D01*
X0254313Y0322838D02*
X0252812Y0322838D01*
X0252812Y0322338D02*
X0252812Y0323339D01*
X0254564Y0323811D02*
X0254564Y0324812D01*
X0254313Y0325285D02*
X0252812Y0325285D01*
X0252812Y0326285D01*
X0253062Y0326758D02*
X0254063Y0326758D01*
X0254313Y0327008D01*
X0254313Y0327508D01*
X0254063Y0327759D01*
X0253062Y0327759D02*
X0252812Y0327508D01*
X0252812Y0327008D01*
X0253062Y0326758D01*
X0253563Y0325785D02*
X0253563Y0325285D01*
X0152302Y0329543D02*
X0152302Y0330544D01*
X0152052Y0331017D02*
X0150551Y0331017D01*
X0150551Y0332018D01*
X0150801Y0332490D02*
X0151802Y0332490D01*
X0152052Y0332740D01*
X0152052Y0333241D01*
X0151802Y0333491D01*
X0150801Y0333491D02*
X0150551Y0333241D01*
X0150551Y0332740D01*
X0150801Y0332490D01*
X0151301Y0331517D02*
X0151301Y0331017D01*
X0150801Y0329071D02*
X0150551Y0328821D01*
X0150551Y0328070D01*
X0152052Y0328070D01*
X0152052Y0328821D01*
X0151802Y0329071D01*
X0150801Y0329071D01*
X0150801Y0327598D02*
X0151051Y0327598D01*
X0151301Y0327348D01*
X0151301Y0326597D01*
X0150551Y0326597D02*
X0150551Y0327348D01*
X0150801Y0327598D01*
X0151301Y0327348D02*
X0151552Y0327598D01*
X0151802Y0327598D01*
X0152052Y0327348D01*
X0152052Y0326597D01*
X0150551Y0326597D01*
X0150551Y0326124D02*
X0150551Y0325124D01*
X0150551Y0325624D02*
X0152052Y0325624D01*
X0151802Y0324651D02*
X0152052Y0324401D01*
X0152052Y0323901D01*
X0151802Y0323650D01*
X0151301Y0323901D02*
X0151301Y0324401D01*
X0151552Y0324651D01*
X0151802Y0324651D01*
X0151301Y0323901D02*
X0151051Y0323650D01*
X0150801Y0323650D01*
X0150551Y0323901D01*
X0150551Y0324401D01*
X0150801Y0324651D01*
X0079764Y0361792D02*
X0078763Y0361792D01*
X0079764Y0362793D01*
X0079764Y0363043D01*
X0079514Y0363293D01*
X0079013Y0363293D01*
X0078763Y0363043D01*
X0078291Y0363043D02*
X0078041Y0363293D01*
X0077540Y0363293D01*
X0077290Y0363043D01*
X0076817Y0363043D02*
X0075817Y0362042D01*
X0075817Y0361792D01*
X0075344Y0362042D02*
X0075094Y0361792D01*
X0074594Y0361792D01*
X0074343Y0362042D01*
X0073871Y0362042D02*
X0073621Y0361792D01*
X0073120Y0361792D01*
X0072870Y0362042D01*
X0072870Y0363043D01*
X0073120Y0363293D01*
X0073621Y0363293D01*
X0073871Y0363043D01*
X0074343Y0363043D02*
X0074343Y0362793D01*
X0074594Y0362543D01*
X0075094Y0362543D01*
X0075344Y0362293D01*
X0075344Y0362042D01*
X0075344Y0363043D02*
X0075094Y0363293D01*
X0074594Y0363293D01*
X0074343Y0363043D01*
X0075817Y0363293D02*
X0076817Y0363293D01*
X0076817Y0363043D01*
X0077290Y0361792D02*
X0078291Y0362793D01*
X0078291Y0363043D01*
X0078291Y0361792D02*
X0077290Y0361792D01*
X0072398Y0361792D02*
X0072398Y0362793D01*
X0071897Y0363293D01*
X0071397Y0362793D01*
X0071397Y0361792D01*
X0071397Y0362543D02*
X0072398Y0362543D01*
X0070924Y0362543D02*
X0069924Y0361792D01*
X0070924Y0362543D02*
X0069924Y0363293D01*
D17*
X0035771Y0377778D02*
X0032769Y0377778D01*
X0035771Y0380780D01*
X0035771Y0381531D01*
X0035021Y0382281D01*
X0033520Y0382281D01*
X0032769Y0381531D01*
X0031168Y0381531D02*
X0030417Y0382281D01*
X0028165Y0382281D01*
X0028165Y0377778D01*
X0028165Y0379279D02*
X0030417Y0379279D01*
X0031168Y0380029D01*
X0031168Y0381531D01*
X0029666Y0379279D02*
X0031168Y0377778D01*
X0024100Y0258460D02*
X0024100Y0255458D01*
X0021097Y0258460D01*
X0020347Y0258460D01*
X0019596Y0257710D01*
X0019596Y0256208D01*
X0020347Y0255458D01*
X0019596Y0252355D02*
X0024100Y0252355D01*
X0024100Y0250854D02*
X0024100Y0253856D01*
X0021097Y0250854D02*
X0019596Y0252355D01*
X0020347Y0249253D02*
X0019596Y0248502D01*
X0019596Y0246250D01*
X0024100Y0246250D01*
X0022599Y0246250D02*
X0022599Y0248502D01*
X0021848Y0249253D01*
X0020347Y0249253D01*
X0022599Y0247751D02*
X0024100Y0249253D01*
X0042288Y0250001D02*
X0043039Y0249250D01*
X0044540Y0249250D01*
X0045291Y0250001D01*
X0045291Y0253003D01*
X0044540Y0253754D01*
X0043039Y0253754D01*
X0042288Y0253003D01*
X0042288Y0250001D01*
X0046892Y0250751D02*
X0049895Y0253754D01*
X0051496Y0252253D02*
X0052997Y0253754D01*
X0052997Y0249250D01*
X0051496Y0249250D02*
X0054499Y0249250D01*
X0049895Y0249250D02*
X0047643Y0251502D01*
X0046892Y0253754D02*
X0046892Y0249250D01*
X0068596Y0246606D02*
X0068596Y0245105D01*
X0069347Y0244354D01*
X0070097Y0244354D01*
X0070848Y0245105D01*
X0070848Y0247356D01*
X0069347Y0247356D02*
X0068596Y0246606D01*
X0069347Y0247356D02*
X0072349Y0247356D01*
X0073100Y0246606D01*
X0073100Y0245105D01*
X0072349Y0244354D01*
X0073100Y0242753D02*
X0071599Y0241251D01*
X0071599Y0242002D02*
X0071599Y0239750D01*
X0073100Y0239750D02*
X0068596Y0239750D01*
X0068596Y0242002D01*
X0069347Y0242753D01*
X0070848Y0242753D01*
X0071599Y0242002D01*
X0080096Y0242855D02*
X0084600Y0242855D01*
X0084600Y0241354D02*
X0084600Y0244356D01*
X0083849Y0245958D02*
X0084600Y0246708D01*
X0084600Y0248210D01*
X0083849Y0248960D01*
X0082348Y0248960D01*
X0081597Y0248210D01*
X0081597Y0247459D01*
X0082348Y0245958D01*
X0080096Y0245958D01*
X0080096Y0248960D01*
X0080096Y0242855D02*
X0081597Y0241354D01*
X0080847Y0239753D02*
X0082348Y0239753D01*
X0083099Y0239002D01*
X0083099Y0236750D01*
X0084600Y0236750D02*
X0080096Y0236750D01*
X0080096Y0239002D01*
X0080847Y0239753D01*
X0083099Y0238251D02*
X0084600Y0239753D01*
X0076100Y0223149D02*
X0076100Y0220146D01*
X0076100Y0221647D02*
X0071596Y0221647D01*
X0073097Y0220146D01*
X0076100Y0218545D02*
X0076100Y0215542D01*
X0076100Y0217043D02*
X0071596Y0217043D01*
X0073097Y0215542D01*
X0072347Y0213941D02*
X0073848Y0213941D01*
X0074599Y0213190D01*
X0074599Y0210938D01*
X0076100Y0210938D02*
X0071596Y0210938D01*
X0071596Y0213190D01*
X0072347Y0213941D01*
X0074599Y0212439D02*
X0076100Y0213941D01*
X0053999Y0214251D02*
X0053999Y0213501D01*
X0053248Y0212750D01*
X0051747Y0212750D01*
X0050996Y0213501D01*
X0049395Y0212750D02*
X0047143Y0215002D01*
X0046392Y0214251D02*
X0049395Y0217254D01*
X0050996Y0216503D02*
X0051747Y0217254D01*
X0053248Y0217254D01*
X0053999Y0216503D01*
X0053999Y0215753D01*
X0053248Y0215002D01*
X0053999Y0214251D01*
X0053248Y0215002D02*
X0052497Y0215002D01*
X0046392Y0217254D02*
X0046392Y0212750D01*
X0044791Y0213501D02*
X0044791Y0216503D01*
X0044040Y0217254D01*
X0042539Y0217254D01*
X0041788Y0216503D01*
X0041788Y0213501D01*
X0042539Y0212750D01*
X0044040Y0212750D01*
X0044791Y0213501D01*
X0024100Y0213398D02*
X0019596Y0213398D01*
X0021848Y0211146D01*
X0021848Y0214149D01*
X0024100Y0209545D02*
X0024100Y0206542D01*
X0024100Y0208043D02*
X0019596Y0208043D01*
X0021097Y0206542D01*
X0020347Y0204941D02*
X0021848Y0204941D01*
X0022599Y0204190D01*
X0022599Y0201938D01*
X0024100Y0201938D02*
X0019596Y0201938D01*
X0019596Y0204190D01*
X0020347Y0204941D01*
X0022599Y0203439D02*
X0024100Y0204941D01*
X0157067Y0360744D02*
X0157067Y0365248D01*
X0159319Y0365248D01*
X0160070Y0364497D01*
X0160070Y0362996D01*
X0159319Y0362245D01*
X0157067Y0362245D01*
X0158569Y0362245D02*
X0160070Y0360744D01*
X0161671Y0361495D02*
X0162422Y0360744D01*
X0163923Y0360744D01*
X0164674Y0361495D01*
X0164674Y0362245D01*
X0163923Y0362996D01*
X0163173Y0362996D01*
X0163923Y0362996D02*
X0164674Y0363747D01*
X0164674Y0364497D01*
X0163923Y0365248D01*
X0162422Y0365248D01*
X0161671Y0364497D01*
X0237663Y0376892D02*
X0237663Y0381396D01*
X0239915Y0381396D01*
X0240666Y0380645D01*
X0240666Y0379144D01*
X0239915Y0378393D01*
X0237663Y0378393D01*
X0239164Y0378393D02*
X0240666Y0376892D01*
X0242267Y0377642D02*
X0242267Y0378393D01*
X0243018Y0379144D01*
X0244519Y0379144D01*
X0245269Y0378393D01*
X0245269Y0377642D01*
X0244519Y0376892D01*
X0243018Y0376892D01*
X0242267Y0377642D01*
X0243018Y0379144D02*
X0242267Y0379894D01*
X0242267Y0380645D01*
X0243018Y0381396D01*
X0244519Y0381396D01*
X0245269Y0380645D01*
X0245269Y0379894D01*
X0244519Y0379144D01*
X0348012Y0365346D02*
X0348012Y0360843D01*
X0348012Y0362344D02*
X0350264Y0362344D01*
X0351015Y0363094D01*
X0351015Y0364596D01*
X0350264Y0365346D01*
X0348012Y0365346D01*
X0349513Y0362344D02*
X0351015Y0360843D01*
X0352616Y0360843D02*
X0355619Y0360843D01*
X0354117Y0360843D02*
X0354117Y0365346D01*
X0352616Y0363845D01*
X0376347Y0246649D02*
X0377097Y0246649D01*
X0377848Y0245898D01*
X0378599Y0246649D01*
X0379349Y0246649D01*
X0380100Y0245898D01*
X0380100Y0244397D01*
X0379349Y0243646D01*
X0380100Y0242045D02*
X0380100Y0239042D01*
X0380100Y0240543D02*
X0375596Y0240543D01*
X0377097Y0239042D01*
X0376347Y0237441D02*
X0377848Y0237441D01*
X0378599Y0236690D01*
X0378599Y0234438D01*
X0380100Y0234438D02*
X0375596Y0234438D01*
X0375596Y0236690D01*
X0376347Y0237441D01*
X0378599Y0235939D02*
X0380100Y0237441D01*
X0376347Y0243646D02*
X0375596Y0244397D01*
X0375596Y0245898D01*
X0376347Y0246649D01*
X0377848Y0245898D02*
X0377848Y0245147D01*
X0359810Y0233003D02*
X0359060Y0233754D01*
X0357558Y0233754D01*
X0356808Y0233003D01*
X0355206Y0233754D02*
X0352204Y0230751D01*
X0352955Y0231502D02*
X0355206Y0229250D01*
X0356808Y0229250D02*
X0359810Y0232253D01*
X0359810Y0233003D01*
X0359810Y0229250D02*
X0356808Y0229250D01*
X0352204Y0229250D02*
X0352204Y0233754D01*
X0350603Y0233003D02*
X0349852Y0233754D01*
X0348351Y0233754D01*
X0347600Y0233003D01*
X0347600Y0230001D01*
X0348351Y0229250D01*
X0349852Y0229250D01*
X0350603Y0230001D01*
X0350603Y0233003D01*
X0312849Y0173149D02*
X0309847Y0173149D01*
X0312849Y0170146D01*
X0313600Y0170897D01*
X0313600Y0172398D01*
X0312849Y0173149D01*
X0309847Y0173149D02*
X0309096Y0172398D01*
X0309096Y0170897D01*
X0309847Y0170146D01*
X0312849Y0170146D01*
X0313600Y0168545D02*
X0313600Y0165542D01*
X0313600Y0167043D02*
X0309096Y0167043D01*
X0310597Y0165542D01*
X0309847Y0163941D02*
X0311348Y0163941D01*
X0312099Y0163190D01*
X0312099Y0160938D01*
X0313600Y0160938D02*
X0309096Y0160938D01*
X0309096Y0163190D01*
X0309847Y0163941D01*
X0312099Y0162439D02*
X0313600Y0163941D01*
X0301100Y0163941D02*
X0299599Y0162439D01*
X0299599Y0163190D02*
X0299599Y0160938D01*
X0301100Y0160938D02*
X0296596Y0160938D01*
X0296596Y0163190D01*
X0297347Y0163941D01*
X0298848Y0163941D01*
X0299599Y0163190D01*
X0301100Y0165542D02*
X0301100Y0168545D01*
X0301100Y0167043D02*
X0296596Y0167043D01*
X0298097Y0165542D01*
X0298848Y0170146D02*
X0298848Y0172398D01*
X0299599Y0173149D01*
X0300349Y0173149D01*
X0301100Y0172398D01*
X0301100Y0170897D01*
X0300349Y0170146D01*
X0298848Y0170146D01*
X0297347Y0171647D01*
X0296596Y0173149D01*
X0257248Y0067754D02*
X0257999Y0067003D01*
X0257999Y0066253D01*
X0257248Y0065502D01*
X0257999Y0064751D01*
X0257999Y0064001D01*
X0257248Y0063250D01*
X0255747Y0063250D01*
X0254996Y0064001D01*
X0253395Y0064001D02*
X0252644Y0063250D01*
X0251143Y0063250D01*
X0250392Y0064001D01*
X0250392Y0067003D01*
X0251143Y0067754D01*
X0252644Y0067754D01*
X0253395Y0067003D01*
X0254996Y0067003D02*
X0255747Y0067754D01*
X0257248Y0067754D01*
X0257248Y0065502D02*
X0256497Y0065502D01*
D18*
X0354247Y0115039D02*
X0354247Y0118342D01*
X0355348Y0117241D01*
X0356449Y0118342D01*
X0356449Y0115039D01*
X0357930Y0115589D02*
X0358480Y0115039D01*
X0359581Y0115039D01*
X0360132Y0115589D01*
X0360132Y0117791D01*
X0359581Y0118342D01*
X0358480Y0118342D01*
X0357930Y0117791D01*
X0357930Y0115589D01*
X0361613Y0118342D02*
X0363815Y0118342D01*
X0362714Y0118342D02*
X0362714Y0115039D01*
X0365296Y0115589D02*
X0365847Y0115039D01*
X0366948Y0115039D01*
X0367498Y0115589D01*
X0367498Y0117791D01*
X0366948Y0118342D01*
X0365847Y0118342D01*
X0365296Y0117791D01*
X0365296Y0115589D01*
X0368979Y0115039D02*
X0368979Y0118342D01*
X0370631Y0118342D01*
X0371181Y0117791D01*
X0371181Y0116690D01*
X0370631Y0116140D01*
X0368979Y0116140D01*
X0370080Y0116140D02*
X0371181Y0115039D01*
X0372662Y0114489D02*
X0374864Y0114489D01*
X0376346Y0115039D02*
X0376346Y0118342D01*
X0377997Y0118342D01*
X0378547Y0117791D01*
X0378547Y0116690D01*
X0377997Y0116140D01*
X0376346Y0116140D01*
X0380029Y0115589D02*
X0380579Y0115039D01*
X0381680Y0115039D01*
X0382231Y0115589D01*
X0382231Y0117791D01*
X0381680Y0118342D01*
X0380579Y0118342D01*
X0380029Y0117791D01*
X0380029Y0115589D01*
X0383712Y0115039D02*
X0383712Y0118342D01*
X0385914Y0118342D02*
X0385914Y0115039D01*
X0384813Y0116140D01*
X0383712Y0115039D01*
X0387395Y0115039D02*
X0387395Y0118342D01*
X0389597Y0118342D01*
X0391078Y0118342D02*
X0391078Y0115039D01*
X0391078Y0116140D02*
X0392730Y0116140D01*
X0393280Y0116690D01*
X0393280Y0117791D01*
X0392730Y0118342D01*
X0391078Y0118342D01*
X0392179Y0116140D02*
X0393280Y0115039D01*
X0394761Y0115039D02*
X0396963Y0117241D01*
X0396963Y0117791D01*
X0396413Y0118342D01*
X0395312Y0118342D01*
X0394761Y0117791D01*
X0394761Y0115039D02*
X0396963Y0115039D01*
X0389597Y0115039D02*
X0387395Y0115039D01*
X0387395Y0116690D02*
X0388496Y0116690D01*
X0389097Y0195988D02*
X0386895Y0195988D01*
X0386895Y0199291D01*
X0389097Y0199291D01*
X0390578Y0199291D02*
X0390578Y0195988D01*
X0390578Y0197089D02*
X0392230Y0197089D01*
X0392780Y0197639D01*
X0392780Y0198740D01*
X0392230Y0199291D01*
X0390578Y0199291D01*
X0391679Y0197089D02*
X0392780Y0195988D01*
X0394261Y0195988D02*
X0396463Y0195988D01*
X0395362Y0195988D02*
X0395362Y0199291D01*
X0394261Y0198190D01*
X0387996Y0197639D02*
X0386895Y0197639D01*
X0385414Y0195988D02*
X0385414Y0199291D01*
X0383212Y0199291D02*
X0383212Y0195988D01*
X0384313Y0197089D01*
X0385414Y0195988D01*
X0381731Y0196538D02*
X0381731Y0198740D01*
X0381180Y0199291D01*
X0380079Y0199291D01*
X0379529Y0198740D01*
X0379529Y0196538D01*
X0380079Y0195988D01*
X0381180Y0195988D01*
X0381731Y0196538D01*
X0378047Y0197639D02*
X0377497Y0197089D01*
X0375846Y0197089D01*
X0375846Y0195988D02*
X0375846Y0199291D01*
X0377497Y0199291D01*
X0378047Y0198740D01*
X0378047Y0197639D01*
X0374364Y0195437D02*
X0372162Y0195437D01*
X0370681Y0195988D02*
X0369580Y0197089D01*
X0370131Y0197089D02*
X0368479Y0197089D01*
X0368479Y0195988D02*
X0368479Y0199291D01*
X0370131Y0199291D01*
X0370681Y0198740D01*
X0370681Y0197639D01*
X0370131Y0197089D01*
X0366998Y0196538D02*
X0366998Y0198740D01*
X0366448Y0199291D01*
X0365347Y0199291D01*
X0364796Y0198740D01*
X0364796Y0196538D01*
X0365347Y0195988D01*
X0366448Y0195988D01*
X0366998Y0196538D01*
X0363315Y0199291D02*
X0361113Y0199291D01*
X0362214Y0199291D02*
X0362214Y0195988D01*
X0359632Y0196538D02*
X0359632Y0198740D01*
X0359081Y0199291D01*
X0357980Y0199291D01*
X0357430Y0198740D01*
X0357430Y0196538D01*
X0357980Y0195988D01*
X0359081Y0195988D01*
X0359632Y0196538D01*
X0355949Y0195988D02*
X0355949Y0199291D01*
X0354848Y0198190D01*
X0353747Y0199291D01*
X0353747Y0195988D01*
D19*
X0256025Y0120994D03*
M02*
