G75*
%MOIN*%
%OFA0B0*%
%FSLAX25Y25*%
%IPPOS*%
%LPD*%
%AMOC8*
5,1,8,0,0,1.08239X$1,22.5*
%
%ADD10OC8,0.13780*%
%ADD11R,0.13780X0.13780*%
%ADD12OC8,0.05200*%
%ADD13C,0.08000*%
%ADD14C,0.16000*%
%ADD15R,0.15748X0.15748*%
%ADD16R,0.15000X0.15000*%
%ADD17R,0.06500X0.25000*%
%ADD18C,0.09449*%
%ADD19OC8,0.11811*%
%ADD20R,0.11811X0.11811*%
%ADD21C,0.05150*%
%ADD22C,0.05200*%
%ADD23C,0.00600*%
%ADD24C,0.02978*%
%ADD25C,0.01200*%
%ADD26C,0.01600*%
%ADD27C,0.01000*%
D10*
X0078850Y0129002D03*
X0078850Y0145502D03*
X0078850Y0162002D03*
X0057150Y0162002D03*
X0057150Y0145502D03*
X0078857Y0295242D03*
X0078857Y0311742D03*
X0078857Y0328242D03*
X0057157Y0328242D03*
X0057157Y0311742D03*
X0323744Y0311742D03*
X0323744Y0295242D03*
X0345444Y0295242D03*
X0345444Y0311742D03*
X0323744Y0328242D03*
X0323744Y0182138D03*
X0323744Y0165638D03*
X0323744Y0149138D03*
X0323744Y0132638D03*
X0345444Y0132638D03*
X0345444Y0149138D03*
X0345444Y0165638D03*
X0323744Y0101689D03*
X0323744Y0085189D03*
X0323744Y0068689D03*
X0323744Y0052189D03*
X0345444Y0052189D03*
X0345444Y0068689D03*
X0345444Y0085189D03*
D11*
X0345444Y0101689D03*
X0345444Y0182138D03*
X0345444Y0328242D03*
X0057157Y0295242D03*
X0057150Y0129002D03*
D12*
X0082350Y0202500D03*
X0082350Y0232500D03*
X0083350Y0252000D03*
X0070350Y0252000D03*
X0070350Y0282000D03*
X0083350Y0282000D03*
X0013350Y0275000D03*
X0013350Y0245000D03*
X0013350Y0235000D03*
X0013350Y0205000D03*
X0022915Y0372028D03*
X0052915Y0372028D03*
X0141025Y0370994D03*
X0171025Y0370994D03*
X0232413Y0371142D03*
X0262413Y0371142D03*
X0331970Y0371093D03*
X0361970Y0371093D03*
X0386350Y0252500D03*
X0386350Y0222500D03*
X0310850Y0208500D03*
X0297850Y0209000D03*
X0297850Y0179000D03*
X0310850Y0178500D03*
X0293820Y0108258D03*
X0281960Y0108307D03*
X0281960Y0088307D03*
X0281960Y0080945D03*
X0293820Y0080945D03*
X0293820Y0088258D03*
X0293820Y0060945D03*
X0281960Y0060945D03*
X0263850Y0071500D03*
D13*
X0260850Y0087000D03*
X0260850Y0098000D03*
X0062779Y0198262D03*
X0062779Y0209262D03*
D14*
X0159765Y0248785D03*
X0159765Y0270285D03*
X0159765Y0291285D03*
X0243968Y0291285D03*
X0243968Y0270285D03*
X0243968Y0248785D03*
D15*
X0226202Y0185335D03*
X0226202Y0145571D03*
X0184421Y0145817D03*
X0184421Y0185581D03*
X0143082Y0185581D03*
X0143082Y0145817D03*
X0102728Y0145768D03*
X0102728Y0185531D03*
X0102728Y0095768D03*
X0102728Y0075689D03*
X0143082Y0075738D03*
X0143082Y0095817D03*
X0184421Y0095817D03*
X0184421Y0075738D03*
X0226202Y0075492D03*
X0226202Y0095571D03*
D16*
X0292836Y0228258D03*
X0292836Y0258258D03*
X0292836Y0333258D03*
X0292836Y0363258D03*
X0105533Y0362569D03*
X0105533Y0332569D03*
X0105533Y0257569D03*
X0105533Y0227569D03*
D17*
X0106411Y0017500D03*
X0116411Y0017500D03*
X0126411Y0017500D03*
X0136411Y0017500D03*
X0146411Y0017500D03*
X0156411Y0017500D03*
X0166411Y0017500D03*
X0176411Y0017500D03*
X0186411Y0017500D03*
X0196411Y0017500D03*
X0206411Y0017500D03*
X0216411Y0017500D03*
X0226411Y0017500D03*
X0236411Y0017500D03*
X0246411Y0017500D03*
X0256411Y0017500D03*
X0266411Y0017500D03*
X0276411Y0017500D03*
X0286411Y0017500D03*
X0296411Y0017500D03*
X0306411Y0017500D03*
X0316411Y0017500D03*
X0326411Y0017500D03*
X0336411Y0017500D03*
X0096411Y0017500D03*
X0086411Y0017500D03*
X0076411Y0017500D03*
X0066411Y0017500D03*
D18*
X0021035Y0360315D03*
X0176405Y0360315D03*
X0219854Y0360315D03*
X0322216Y0360315D03*
D19*
X0078850Y0076500D03*
D20*
X0057150Y0076500D03*
D21*
X0057850Y0222500D03*
X0057850Y0232500D03*
X0058350Y0259000D03*
X0058350Y0269000D03*
X0028350Y0269000D03*
X0028350Y0259000D03*
X0027850Y0232500D03*
X0027850Y0222500D03*
X0344850Y0224000D03*
X0344850Y0214000D03*
X0374850Y0214000D03*
X0374850Y0224000D03*
D22*
X0271850Y0071500D03*
D23*
X0005950Y0044370D02*
X0005950Y0385233D01*
X0007265Y0383918D01*
X0009710Y0382506D01*
X0012438Y0381775D01*
X0015262Y0381775D01*
X0017990Y0382506D01*
X0020435Y0383918D01*
X0022432Y0385915D01*
X0023844Y0388360D01*
X0024575Y0391088D01*
X0024575Y0393912D01*
X0023844Y0396640D01*
X0022432Y0399085D01*
X0021117Y0400400D01*
X0381583Y0400400D01*
X0380268Y0399085D01*
X0378856Y0396640D01*
X0378125Y0393912D01*
X0378125Y0391088D01*
X0378856Y0388360D01*
X0380268Y0385915D01*
X0382265Y0383918D01*
X0384710Y0382506D01*
X0387438Y0381775D01*
X0390262Y0381775D01*
X0392990Y0382506D01*
X0395435Y0383918D01*
X0396750Y0385233D01*
X0396750Y0044370D01*
X0380799Y0044370D01*
X0382351Y0045923D01*
X0383695Y0048250D01*
X0384390Y0050845D01*
X0384390Y0053533D01*
X0383695Y0056128D01*
X0382351Y0058455D01*
X0380451Y0060355D01*
X0378124Y0061699D01*
X0375528Y0062394D01*
X0372841Y0062394D01*
X0370245Y0061699D01*
X0367918Y0060355D01*
X0366018Y0058455D01*
X0364675Y0056128D01*
X0363979Y0053533D01*
X0363979Y0050845D01*
X0364675Y0048250D01*
X0366018Y0045923D01*
X0367571Y0044370D01*
X0348935Y0044370D01*
X0353441Y0048877D01*
X0353441Y0055501D01*
X0348757Y0060186D01*
X0342132Y0060186D01*
X0337448Y0055501D01*
X0337448Y0048877D01*
X0341954Y0044370D01*
X0080757Y0044370D01*
X0080757Y0069487D01*
X0081755Y0069487D01*
X0085863Y0073595D01*
X0085863Y0079405D01*
X0081755Y0083513D01*
X0075945Y0083513D01*
X0071837Y0079405D01*
X0071837Y0073595D01*
X0075945Y0069487D01*
X0076943Y0069487D01*
X0076943Y0044370D01*
X0005950Y0044370D01*
X0005950Y0044502D02*
X0076943Y0044502D01*
X0076943Y0045100D02*
X0005950Y0045100D01*
X0005950Y0045699D02*
X0076943Y0045699D01*
X0076943Y0046297D02*
X0005950Y0046297D01*
X0005950Y0046896D02*
X0076943Y0046896D01*
X0076943Y0047494D02*
X0005950Y0047494D01*
X0005950Y0048093D02*
X0076943Y0048093D01*
X0076943Y0048691D02*
X0005950Y0048691D01*
X0005950Y0049290D02*
X0076943Y0049290D01*
X0076943Y0049888D02*
X0005950Y0049888D01*
X0005950Y0050487D02*
X0076943Y0050487D01*
X0076943Y0051085D02*
X0005950Y0051085D01*
X0005950Y0051684D02*
X0076943Y0051684D01*
X0076943Y0052282D02*
X0005950Y0052282D01*
X0005950Y0052881D02*
X0076943Y0052881D01*
X0076943Y0053479D02*
X0005950Y0053479D01*
X0005950Y0054078D02*
X0076943Y0054078D01*
X0076943Y0054676D02*
X0005950Y0054676D01*
X0005950Y0055275D02*
X0076943Y0055275D01*
X0076943Y0055873D02*
X0005950Y0055873D01*
X0005950Y0056472D02*
X0076943Y0056472D01*
X0076943Y0057070D02*
X0005950Y0057070D01*
X0005950Y0057669D02*
X0076943Y0057669D01*
X0076943Y0058268D02*
X0005950Y0058268D01*
X0005950Y0058866D02*
X0076943Y0058866D01*
X0076943Y0059465D02*
X0005950Y0059465D01*
X0005950Y0060063D02*
X0076943Y0060063D01*
X0076943Y0060662D02*
X0005950Y0060662D01*
X0005950Y0061260D02*
X0076943Y0061260D01*
X0076943Y0061859D02*
X0005950Y0061859D01*
X0005950Y0062457D02*
X0076943Y0062457D01*
X0076943Y0063056D02*
X0005950Y0063056D01*
X0005950Y0063654D02*
X0076943Y0063654D01*
X0076943Y0064253D02*
X0005950Y0064253D01*
X0005950Y0064851D02*
X0076943Y0064851D01*
X0076943Y0065450D02*
X0005950Y0065450D01*
X0005950Y0066048D02*
X0076943Y0066048D01*
X0076943Y0066647D02*
X0031068Y0066647D01*
X0032349Y0066990D02*
X0029753Y0066294D01*
X0027066Y0066294D01*
X0024471Y0066990D01*
X0022144Y0068334D01*
X0020243Y0070234D01*
X0018900Y0072561D01*
X0018204Y0075156D01*
X0018204Y0077844D01*
X0018900Y0080439D01*
X0020243Y0082766D01*
X0022144Y0084666D01*
X0024471Y0086010D01*
X0027066Y0086705D01*
X0029753Y0086705D01*
X0032349Y0086010D01*
X0034676Y0084666D01*
X0036576Y0082766D01*
X0037920Y0080439D01*
X0038615Y0077844D01*
X0038615Y0075156D01*
X0037920Y0072561D01*
X0036576Y0070234D01*
X0034676Y0068334D01*
X0032349Y0066990D01*
X0032791Y0067245D02*
X0076943Y0067245D01*
X0076943Y0067844D02*
X0033828Y0067844D01*
X0034785Y0068442D02*
X0076943Y0068442D01*
X0076943Y0069041D02*
X0035383Y0069041D01*
X0035982Y0069639D02*
X0050634Y0069639D01*
X0050786Y0069487D02*
X0063514Y0069487D01*
X0064163Y0070136D01*
X0064163Y0082864D01*
X0063514Y0083513D01*
X0050786Y0083513D01*
X0050137Y0082864D01*
X0050137Y0070136D01*
X0050786Y0069487D01*
X0050137Y0070238D02*
X0036579Y0070238D01*
X0036924Y0070836D02*
X0050137Y0070836D01*
X0050137Y0071435D02*
X0037270Y0071435D01*
X0037615Y0072033D02*
X0050137Y0072033D01*
X0050137Y0072632D02*
X0037939Y0072632D01*
X0038099Y0073230D02*
X0050137Y0073230D01*
X0050137Y0073829D02*
X0038260Y0073829D01*
X0038420Y0074427D02*
X0050137Y0074427D01*
X0050137Y0075026D02*
X0038580Y0075026D01*
X0038615Y0075624D02*
X0050137Y0075624D01*
X0050137Y0076223D02*
X0038615Y0076223D01*
X0038615Y0076821D02*
X0050137Y0076821D01*
X0050137Y0077420D02*
X0038615Y0077420D01*
X0038569Y0078018D02*
X0050137Y0078018D01*
X0050137Y0078617D02*
X0038408Y0078617D01*
X0038248Y0079215D02*
X0050137Y0079215D01*
X0050137Y0079814D02*
X0038087Y0079814D01*
X0037927Y0080412D02*
X0050137Y0080412D01*
X0050137Y0081011D02*
X0037590Y0081011D01*
X0037244Y0081609D02*
X0050137Y0081609D01*
X0050137Y0082208D02*
X0036899Y0082208D01*
X0036536Y0082806D02*
X0050137Y0082806D01*
X0050678Y0083405D02*
X0035938Y0083405D01*
X0035339Y0084003D02*
X0093747Y0084003D01*
X0093747Y0084022D02*
X0093747Y0067356D01*
X0094395Y0066708D01*
X0111061Y0066708D01*
X0111709Y0067356D01*
X0111709Y0084022D01*
X0111061Y0084670D01*
X0094395Y0084670D01*
X0093747Y0084022D01*
X0093747Y0083405D02*
X0081862Y0083405D01*
X0082461Y0082806D02*
X0093747Y0082806D01*
X0093747Y0082208D02*
X0083059Y0082208D01*
X0083658Y0081609D02*
X0093747Y0081609D01*
X0093747Y0081011D02*
X0084256Y0081011D01*
X0084855Y0080412D02*
X0093747Y0080412D01*
X0093747Y0079814D02*
X0085453Y0079814D01*
X0085863Y0079215D02*
X0093747Y0079215D01*
X0093747Y0078617D02*
X0085863Y0078617D01*
X0085863Y0078018D02*
X0093747Y0078018D01*
X0093747Y0077420D02*
X0085863Y0077420D01*
X0085863Y0076821D02*
X0093747Y0076821D01*
X0093747Y0076223D02*
X0085863Y0076223D01*
X0085863Y0075624D02*
X0093747Y0075624D01*
X0093747Y0075026D02*
X0085863Y0075026D01*
X0085863Y0074427D02*
X0093747Y0074427D01*
X0093747Y0073829D02*
X0085863Y0073829D01*
X0085498Y0073230D02*
X0093747Y0073230D01*
X0093747Y0072632D02*
X0084899Y0072632D01*
X0084301Y0072033D02*
X0093747Y0072033D01*
X0093747Y0071435D02*
X0083702Y0071435D01*
X0083104Y0070836D02*
X0093747Y0070836D01*
X0093747Y0070238D02*
X0082505Y0070238D01*
X0081907Y0069639D02*
X0093747Y0069639D01*
X0093747Y0069041D02*
X0080757Y0069041D01*
X0080757Y0068442D02*
X0093747Y0068442D01*
X0093747Y0067844D02*
X0080757Y0067844D01*
X0080757Y0067245D02*
X0093858Y0067245D01*
X0080757Y0066647D02*
X0124643Y0066647D01*
X0124643Y0067245D02*
X0111598Y0067245D01*
X0111709Y0067844D02*
X0124643Y0067844D01*
X0124643Y0068442D02*
X0111709Y0068442D01*
X0111709Y0069041D02*
X0124643Y0069041D01*
X0124643Y0069639D02*
X0111709Y0069639D01*
X0111709Y0070238D02*
X0124643Y0070238D01*
X0124643Y0070836D02*
X0111709Y0070836D01*
X0111709Y0071435D02*
X0124643Y0071435D01*
X0124643Y0072033D02*
X0111709Y0072033D01*
X0111709Y0072632D02*
X0124643Y0072632D01*
X0124643Y0073230D02*
X0111709Y0073230D01*
X0111709Y0073829D02*
X0124643Y0073829D01*
X0124643Y0074427D02*
X0111709Y0074427D01*
X0111709Y0075026D02*
X0124643Y0075026D01*
X0124643Y0075624D02*
X0111709Y0075624D01*
X0111709Y0076223D02*
X0124643Y0076223D01*
X0124643Y0076821D02*
X0111709Y0076821D01*
X0111709Y0077420D02*
X0124643Y0077420D01*
X0124643Y0078018D02*
X0111709Y0078018D01*
X0111709Y0078617D02*
X0124643Y0078617D01*
X0124643Y0079215D02*
X0111709Y0079215D01*
X0111709Y0079814D02*
X0124643Y0079814D01*
X0124643Y0080412D02*
X0111709Y0080412D01*
X0111709Y0081011D02*
X0124643Y0081011D01*
X0124643Y0081609D02*
X0111709Y0081609D01*
X0111709Y0082208D02*
X0124643Y0082208D01*
X0124643Y0082806D02*
X0111709Y0082806D01*
X0111709Y0083405D02*
X0124643Y0083405D01*
X0124643Y0084003D02*
X0111709Y0084003D01*
X0111129Y0084602D02*
X0124643Y0084602D01*
X0124643Y0085201D02*
X0033751Y0085201D01*
X0034741Y0084602D02*
X0094327Y0084602D01*
X0094395Y0086787D02*
X0111061Y0086787D01*
X0111709Y0087435D01*
X0111709Y0104100D01*
X0111061Y0104749D01*
X0094395Y0104749D01*
X0093747Y0104100D01*
X0093747Y0087435D01*
X0094395Y0086787D01*
X0094186Y0086996D02*
X0005950Y0086996D01*
X0005950Y0086398D02*
X0025917Y0086398D01*
X0024105Y0085799D02*
X0005950Y0085799D01*
X0005950Y0085201D02*
X0023069Y0085201D01*
X0022079Y0084602D02*
X0005950Y0084602D01*
X0005950Y0084003D02*
X0021481Y0084003D01*
X0020882Y0083405D02*
X0005950Y0083405D01*
X0005950Y0082806D02*
X0020284Y0082806D01*
X0019921Y0082208D02*
X0005950Y0082208D01*
X0005950Y0081609D02*
X0019575Y0081609D01*
X0019230Y0081011D02*
X0005950Y0081011D01*
X0005950Y0080412D02*
X0018893Y0080412D01*
X0018732Y0079814D02*
X0005950Y0079814D01*
X0005950Y0079215D02*
X0018572Y0079215D01*
X0018412Y0078617D02*
X0005950Y0078617D01*
X0005950Y0078018D02*
X0018251Y0078018D01*
X0018204Y0077420D02*
X0005950Y0077420D01*
X0005950Y0076821D02*
X0018204Y0076821D01*
X0018204Y0076223D02*
X0005950Y0076223D01*
X0005950Y0075624D02*
X0018204Y0075624D01*
X0018239Y0075026D02*
X0005950Y0075026D01*
X0005950Y0074427D02*
X0018400Y0074427D01*
X0018560Y0073829D02*
X0005950Y0073829D01*
X0005950Y0073230D02*
X0018720Y0073230D01*
X0018881Y0072632D02*
X0005950Y0072632D01*
X0005950Y0072033D02*
X0019204Y0072033D01*
X0019550Y0071435D02*
X0005950Y0071435D01*
X0005950Y0070836D02*
X0019895Y0070836D01*
X0020241Y0070238D02*
X0005950Y0070238D01*
X0005950Y0069639D02*
X0020838Y0069639D01*
X0021436Y0069041D02*
X0005950Y0069041D01*
X0005950Y0068442D02*
X0022035Y0068442D01*
X0022992Y0067844D02*
X0005950Y0067844D01*
X0005950Y0067245D02*
X0024029Y0067245D01*
X0025752Y0066647D02*
X0005950Y0066647D01*
X0005950Y0087595D02*
X0093747Y0087595D01*
X0093747Y0088193D02*
X0005950Y0088193D01*
X0005950Y0088792D02*
X0093747Y0088792D01*
X0093747Y0089390D02*
X0005950Y0089390D01*
X0005950Y0089989D02*
X0093747Y0089989D01*
X0093747Y0090587D02*
X0005950Y0090587D01*
X0005950Y0091186D02*
X0093747Y0091186D01*
X0093747Y0091784D02*
X0005950Y0091784D01*
X0005950Y0092383D02*
X0093747Y0092383D01*
X0093747Y0092981D02*
X0005950Y0092981D01*
X0005950Y0093580D02*
X0093747Y0093580D01*
X0093747Y0094178D02*
X0005950Y0094178D01*
X0005950Y0094777D02*
X0093747Y0094777D01*
X0093747Y0095375D02*
X0005950Y0095375D01*
X0005950Y0095974D02*
X0093747Y0095974D01*
X0093747Y0096572D02*
X0005950Y0096572D01*
X0005950Y0097171D02*
X0093747Y0097171D01*
X0093747Y0097769D02*
X0005950Y0097769D01*
X0005950Y0098368D02*
X0093747Y0098368D01*
X0093747Y0098966D02*
X0005950Y0098966D01*
X0005950Y0099565D02*
X0093747Y0099565D01*
X0093747Y0100163D02*
X0005950Y0100163D01*
X0005950Y0100762D02*
X0093747Y0100762D01*
X0093747Y0101360D02*
X0005950Y0101360D01*
X0005950Y0101959D02*
X0093747Y0101959D01*
X0093747Y0102557D02*
X0005950Y0102557D01*
X0005950Y0103156D02*
X0093747Y0103156D01*
X0093747Y0103754D02*
X0005950Y0103754D01*
X0005950Y0104353D02*
X0093999Y0104353D01*
X0111456Y0104353D02*
X0118083Y0104353D01*
X0117484Y0104951D02*
X0005950Y0104951D01*
X0005950Y0105550D02*
X0037981Y0105550D01*
X0038334Y0105404D02*
X0039366Y0105404D01*
X0040321Y0105799D01*
X0041051Y0106529D01*
X0041077Y0106593D01*
X0045623Y0106593D01*
X0045649Y0106529D01*
X0046379Y0105799D01*
X0047334Y0105404D01*
X0048366Y0105404D01*
X0049321Y0105799D01*
X0050051Y0106529D01*
X0050446Y0107484D01*
X0050446Y0108516D01*
X0050051Y0109471D01*
X0049321Y0110201D01*
X0049202Y0110250D01*
X0049321Y0110299D01*
X0050051Y0111029D01*
X0050446Y0111984D01*
X0050446Y0113016D01*
X0050051Y0113971D01*
X0049321Y0114701D01*
X0048366Y0115096D01*
X0047334Y0115096D01*
X0046379Y0114701D01*
X0045649Y0113971D01*
X0045623Y0113907D01*
X0041077Y0113907D01*
X0041051Y0113971D01*
X0040321Y0114701D01*
X0039366Y0115096D01*
X0038334Y0115096D01*
X0037379Y0114701D01*
X0036649Y0113971D01*
X0036254Y0113016D01*
X0036254Y0111984D01*
X0036649Y0111029D01*
X0037379Y0110299D01*
X0037498Y0110250D01*
X0037379Y0110201D01*
X0036649Y0109471D01*
X0036254Y0108516D01*
X0036254Y0107484D01*
X0036649Y0106529D01*
X0037379Y0105799D01*
X0038334Y0105404D01*
X0039719Y0105550D02*
X0046981Y0105550D01*
X0046030Y0106148D02*
X0040670Y0106148D01*
X0038850Y0108000D02*
X0047850Y0108000D01*
X0049670Y0106148D02*
X0116287Y0106148D01*
X0116886Y0105550D02*
X0048719Y0105550D01*
X0050141Y0106747D02*
X0115689Y0106747D01*
X0115090Y0107345D02*
X0050389Y0107345D01*
X0050446Y0107944D02*
X0114492Y0107944D01*
X0113893Y0108542D02*
X0050435Y0108542D01*
X0050187Y0109141D02*
X0113295Y0109141D01*
X0112696Y0109739D02*
X0049782Y0109739D01*
X0049359Y0110338D02*
X0073400Y0110338D01*
X0073445Y0110293D02*
X0112143Y0110293D01*
X0124643Y0097793D01*
X0124643Y0051464D01*
X0124149Y0050971D01*
X0123754Y0050016D01*
X0123754Y0048984D01*
X0124149Y0048029D01*
X0124879Y0047299D01*
X0125834Y0046904D01*
X0126866Y0046904D01*
X0127821Y0047299D01*
X0128551Y0048029D01*
X0128946Y0048984D01*
X0128946Y0050016D01*
X0128551Y0050971D01*
X0128057Y0051464D01*
X0128057Y0099207D01*
X0127057Y0100207D01*
X0114557Y0112707D01*
X0113557Y0113707D01*
X0074859Y0113707D01*
X0065147Y0123419D01*
X0065147Y0136350D01*
X0064498Y0136999D01*
X0049802Y0136999D01*
X0049153Y0136350D01*
X0049153Y0121654D01*
X0049802Y0121005D01*
X0062733Y0121005D01*
X0072445Y0111293D01*
X0073445Y0110293D01*
X0072801Y0110937D02*
X0049958Y0110937D01*
X0050260Y0111535D02*
X0072203Y0111535D01*
X0071604Y0112134D02*
X0050446Y0112134D01*
X0050446Y0112732D02*
X0071006Y0112732D01*
X0070407Y0113331D02*
X0050316Y0113331D01*
X0050068Y0113929D02*
X0069809Y0113929D01*
X0069210Y0114528D02*
X0049494Y0114528D01*
X0047850Y0112500D02*
X0038850Y0112500D01*
X0036440Y0111535D02*
X0005950Y0111535D01*
X0005950Y0110937D02*
X0036742Y0110937D01*
X0037341Y0110338D02*
X0005950Y0110338D01*
X0005950Y0109739D02*
X0036918Y0109739D01*
X0036513Y0109141D02*
X0005950Y0109141D01*
X0005950Y0108542D02*
X0036265Y0108542D01*
X0036254Y0107944D02*
X0005950Y0107944D01*
X0005950Y0107345D02*
X0036311Y0107345D01*
X0036559Y0106747D02*
X0005950Y0106747D01*
X0005950Y0106148D02*
X0037030Y0106148D01*
X0036254Y0112134D02*
X0005950Y0112134D01*
X0005950Y0112732D02*
X0036254Y0112732D01*
X0036384Y0113331D02*
X0005950Y0113331D01*
X0005950Y0113929D02*
X0036632Y0113929D01*
X0037206Y0114528D02*
X0005950Y0114528D01*
X0005950Y0115126D02*
X0068612Y0115126D01*
X0068013Y0115725D02*
X0005950Y0115725D01*
X0005950Y0116323D02*
X0067415Y0116323D01*
X0066816Y0116922D02*
X0005950Y0116922D01*
X0005950Y0117520D02*
X0066218Y0117520D01*
X0065619Y0118119D02*
X0005950Y0118119D01*
X0005950Y0118717D02*
X0065021Y0118717D01*
X0064422Y0119316D02*
X0031691Y0119316D01*
X0032349Y0119492D02*
X0029753Y0118796D01*
X0027066Y0118796D01*
X0024471Y0119492D01*
X0022144Y0120836D01*
X0020243Y0122736D01*
X0018900Y0125063D01*
X0018204Y0127658D01*
X0018204Y0130346D01*
X0018900Y0132941D01*
X0020243Y0135268D01*
X0022144Y0137168D01*
X0024471Y0138512D01*
X0027066Y0139207D01*
X0029753Y0139207D01*
X0032349Y0138512D01*
X0034676Y0137168D01*
X0036576Y0135268D01*
X0037920Y0132941D01*
X0038615Y0130346D01*
X0038615Y0127658D01*
X0037920Y0125063D01*
X0036576Y0122736D01*
X0034676Y0120836D01*
X0032349Y0119492D01*
X0033080Y0119914D02*
X0063824Y0119914D01*
X0063225Y0120513D02*
X0034117Y0120513D01*
X0034952Y0121111D02*
X0049696Y0121111D01*
X0049153Y0121710D02*
X0035550Y0121710D01*
X0036149Y0122308D02*
X0049153Y0122308D01*
X0049153Y0122907D02*
X0036675Y0122907D01*
X0037021Y0123505D02*
X0049153Y0123505D01*
X0049153Y0124104D02*
X0037366Y0124104D01*
X0037712Y0124702D02*
X0049153Y0124702D01*
X0049153Y0125301D02*
X0037984Y0125301D01*
X0038144Y0125899D02*
X0049153Y0125899D01*
X0049153Y0126498D02*
X0038304Y0126498D01*
X0038465Y0127096D02*
X0049153Y0127096D01*
X0049153Y0127695D02*
X0038615Y0127695D01*
X0038615Y0128293D02*
X0049153Y0128293D01*
X0049153Y0128892D02*
X0038615Y0128892D01*
X0038615Y0129490D02*
X0049153Y0129490D01*
X0049153Y0130089D02*
X0038615Y0130089D01*
X0038524Y0130687D02*
X0049153Y0130687D01*
X0049153Y0131286D02*
X0038363Y0131286D01*
X0038203Y0131884D02*
X0049153Y0131884D01*
X0049153Y0132483D02*
X0038043Y0132483D01*
X0037839Y0133081D02*
X0049153Y0133081D01*
X0049153Y0133680D02*
X0037493Y0133680D01*
X0037148Y0134278D02*
X0049153Y0134278D01*
X0049153Y0134877D02*
X0036802Y0134877D01*
X0036369Y0135475D02*
X0049153Y0135475D01*
X0049153Y0136074D02*
X0035771Y0136074D01*
X0035172Y0136672D02*
X0049475Y0136672D01*
X0052276Y0139067D02*
X0030279Y0139067D01*
X0032425Y0138468D02*
X0052875Y0138468D01*
X0053473Y0137870D02*
X0033462Y0137870D01*
X0034498Y0137271D02*
X0093911Y0137271D01*
X0093747Y0137435D02*
X0094395Y0136787D01*
X0111061Y0136787D01*
X0111709Y0137435D01*
X0111709Y0154100D01*
X0111061Y0154749D01*
X0094395Y0154749D01*
X0093747Y0154100D01*
X0093747Y0137435D01*
X0093747Y0137870D02*
X0060827Y0137870D01*
X0060462Y0137505D02*
X0065147Y0142190D01*
X0065147Y0148814D01*
X0060462Y0153499D01*
X0053838Y0153499D01*
X0049153Y0148814D01*
X0049153Y0142190D01*
X0053838Y0137505D01*
X0060462Y0137505D01*
X0061425Y0138468D02*
X0093747Y0138468D01*
X0093747Y0139067D02*
X0062024Y0139067D01*
X0062622Y0139665D02*
X0093747Y0139665D01*
X0093747Y0140264D02*
X0063221Y0140264D01*
X0063819Y0140862D02*
X0093747Y0140862D01*
X0093747Y0141461D02*
X0064418Y0141461D01*
X0065016Y0142059D02*
X0093747Y0142059D01*
X0093747Y0142658D02*
X0065147Y0142658D01*
X0065147Y0143256D02*
X0093747Y0143256D01*
X0093747Y0143855D02*
X0065147Y0143855D01*
X0065147Y0144453D02*
X0093747Y0144453D01*
X0093747Y0145052D02*
X0065147Y0145052D01*
X0065147Y0145650D02*
X0093747Y0145650D01*
X0093747Y0146249D02*
X0065147Y0146249D01*
X0065147Y0146847D02*
X0093747Y0146847D01*
X0093747Y0147446D02*
X0065147Y0147446D01*
X0065147Y0148044D02*
X0093747Y0148044D01*
X0093747Y0148643D02*
X0065147Y0148643D01*
X0064720Y0149241D02*
X0093747Y0149241D01*
X0093747Y0149840D02*
X0064121Y0149840D01*
X0063523Y0150438D02*
X0093747Y0150438D01*
X0093747Y0151037D02*
X0062924Y0151037D01*
X0062326Y0151635D02*
X0093747Y0151635D01*
X0093747Y0152234D02*
X0061727Y0152234D01*
X0061129Y0152832D02*
X0093747Y0152832D01*
X0093747Y0153431D02*
X0060530Y0153431D01*
X0060462Y0154005D02*
X0065147Y0158690D01*
X0065147Y0165314D01*
X0060462Y0169999D01*
X0053838Y0169999D01*
X0049153Y0165314D01*
X0049153Y0158690D01*
X0053838Y0154005D01*
X0060462Y0154005D01*
X0060487Y0154029D02*
X0093747Y0154029D01*
X0094274Y0154628D02*
X0061085Y0154628D01*
X0061684Y0155226D02*
X0340224Y0155226D01*
X0339625Y0154628D02*
X0192924Y0154628D01*
X0192753Y0154798D02*
X0193402Y0154150D01*
X0193402Y0137484D01*
X0192753Y0136836D01*
X0176088Y0136836D01*
X0175440Y0137484D01*
X0175440Y0154150D01*
X0176088Y0154798D01*
X0192753Y0154798D01*
X0193402Y0154029D02*
X0217347Y0154029D01*
X0217221Y0153903D02*
X0217221Y0137238D01*
X0217870Y0136590D01*
X0234535Y0136590D01*
X0235183Y0137238D01*
X0235183Y0153903D01*
X0234535Y0154552D01*
X0217870Y0154552D01*
X0217221Y0153903D01*
X0217221Y0153431D02*
X0193402Y0153431D01*
X0193402Y0152832D02*
X0217221Y0152832D01*
X0217221Y0152234D02*
X0193402Y0152234D01*
X0193402Y0151635D02*
X0217221Y0151635D01*
X0217221Y0151037D02*
X0193402Y0151037D01*
X0193402Y0150438D02*
X0217221Y0150438D01*
X0217221Y0149840D02*
X0193402Y0149840D01*
X0193402Y0149241D02*
X0217221Y0149241D01*
X0217221Y0148643D02*
X0193402Y0148643D01*
X0193402Y0148044D02*
X0217221Y0148044D01*
X0217221Y0147446D02*
X0193402Y0147446D01*
X0193402Y0146847D02*
X0217221Y0146847D01*
X0217221Y0146249D02*
X0193402Y0146249D01*
X0193402Y0145650D02*
X0217221Y0145650D01*
X0217221Y0145052D02*
X0193402Y0145052D01*
X0193402Y0144453D02*
X0217221Y0144453D01*
X0217221Y0143855D02*
X0193402Y0143855D01*
X0193402Y0143256D02*
X0217221Y0143256D01*
X0217221Y0142658D02*
X0193402Y0142658D01*
X0193402Y0142059D02*
X0217221Y0142059D01*
X0217221Y0141461D02*
X0193402Y0141461D01*
X0193402Y0140862D02*
X0217221Y0140862D01*
X0217221Y0140264D02*
X0193402Y0140264D01*
X0193402Y0139665D02*
X0217221Y0139665D01*
X0217221Y0139067D02*
X0193402Y0139067D01*
X0193402Y0138468D02*
X0217221Y0138468D01*
X0217221Y0137870D02*
X0193402Y0137870D01*
X0193189Y0137271D02*
X0217221Y0137271D01*
X0217787Y0136672D02*
X0064825Y0136672D01*
X0065147Y0136074D02*
X0337571Y0136074D01*
X0337448Y0135950D02*
X0337448Y0129325D01*
X0342132Y0124641D01*
X0348757Y0124641D01*
X0353441Y0129325D01*
X0353441Y0135950D01*
X0348757Y0140635D01*
X0342132Y0140635D01*
X0337448Y0135950D01*
X0337448Y0135475D02*
X0065147Y0135475D01*
X0065147Y0134877D02*
X0337448Y0134877D01*
X0337448Y0134278D02*
X0065147Y0134278D01*
X0065147Y0133680D02*
X0337448Y0133680D01*
X0337448Y0133081D02*
X0065147Y0133081D01*
X0065147Y0132483D02*
X0337448Y0132483D01*
X0337448Y0131884D02*
X0065147Y0131884D01*
X0065147Y0131286D02*
X0337448Y0131286D01*
X0337448Y0130687D02*
X0065147Y0130687D01*
X0065147Y0130089D02*
X0337448Y0130089D01*
X0337448Y0129490D02*
X0065147Y0129490D01*
X0065147Y0128892D02*
X0337881Y0128892D01*
X0338480Y0128293D02*
X0065147Y0128293D01*
X0065147Y0127695D02*
X0339078Y0127695D01*
X0339677Y0127096D02*
X0065147Y0127096D01*
X0065147Y0126498D02*
X0340275Y0126498D01*
X0340874Y0125899D02*
X0065147Y0125899D01*
X0065147Y0125301D02*
X0341472Y0125301D01*
X0342071Y0124702D02*
X0065147Y0124702D01*
X0065147Y0124104D02*
X0368555Y0124104D01*
X0367918Y0124471D02*
X0370245Y0123128D01*
X0372841Y0122432D01*
X0375528Y0122432D01*
X0378124Y0123128D01*
X0380451Y0124471D01*
X0382351Y0126371D01*
X0383695Y0128699D01*
X0384390Y0131294D01*
X0384390Y0133981D01*
X0383695Y0136577D01*
X0382351Y0138904D01*
X0380451Y0140804D01*
X0378124Y0142148D01*
X0375528Y0142843D01*
X0372841Y0142843D01*
X0370245Y0142148D01*
X0367918Y0140804D01*
X0366018Y0138904D01*
X0364675Y0136577D01*
X0363979Y0133981D01*
X0363979Y0131294D01*
X0364675Y0128699D01*
X0366018Y0126371D01*
X0367918Y0124471D01*
X0367687Y0124702D02*
X0348818Y0124702D01*
X0349417Y0125301D02*
X0367089Y0125301D01*
X0366490Y0125899D02*
X0350015Y0125899D01*
X0350614Y0126498D02*
X0365945Y0126498D01*
X0365600Y0127096D02*
X0351212Y0127096D01*
X0351811Y0127695D02*
X0365254Y0127695D01*
X0364909Y0128293D02*
X0352409Y0128293D01*
X0353008Y0128892D02*
X0364623Y0128892D01*
X0364462Y0129490D02*
X0353441Y0129490D01*
X0353441Y0130089D02*
X0364302Y0130089D01*
X0364142Y0130687D02*
X0353441Y0130687D01*
X0353441Y0131286D02*
X0363981Y0131286D01*
X0363979Y0131884D02*
X0353441Y0131884D01*
X0353441Y0132483D02*
X0363979Y0132483D01*
X0363979Y0133081D02*
X0353441Y0133081D01*
X0353441Y0133680D02*
X0363979Y0133680D01*
X0364059Y0134278D02*
X0353441Y0134278D01*
X0353441Y0134877D02*
X0364219Y0134877D01*
X0364379Y0135475D02*
X0353441Y0135475D01*
X0353318Y0136074D02*
X0364540Y0136074D01*
X0364730Y0136672D02*
X0352719Y0136672D01*
X0352121Y0137271D02*
X0365075Y0137271D01*
X0365421Y0137870D02*
X0351522Y0137870D01*
X0350923Y0138468D02*
X0365766Y0138468D01*
X0366181Y0139067D02*
X0350325Y0139067D01*
X0349726Y0139665D02*
X0366779Y0139665D01*
X0367378Y0140264D02*
X0349128Y0140264D01*
X0348757Y0141141D02*
X0353441Y0145825D01*
X0353441Y0152450D01*
X0348757Y0157135D01*
X0342132Y0157135D01*
X0337448Y0152450D01*
X0337448Y0145825D01*
X0342132Y0141141D01*
X0348757Y0141141D01*
X0349077Y0141461D02*
X0369055Y0141461D01*
X0370092Y0142059D02*
X0349675Y0142059D01*
X0350274Y0142658D02*
X0372148Y0142658D01*
X0376221Y0142658D02*
X0396750Y0142658D01*
X0396750Y0143256D02*
X0350872Y0143256D01*
X0351471Y0143855D02*
X0396750Y0143855D01*
X0396750Y0144453D02*
X0352069Y0144453D01*
X0352668Y0145052D02*
X0396750Y0145052D01*
X0396750Y0145650D02*
X0353266Y0145650D01*
X0353441Y0146249D02*
X0396750Y0146249D01*
X0396750Y0146847D02*
X0353441Y0146847D01*
X0353441Y0147446D02*
X0396750Y0147446D01*
X0396750Y0148044D02*
X0353441Y0148044D01*
X0353441Y0148643D02*
X0396750Y0148643D01*
X0396750Y0149241D02*
X0353441Y0149241D01*
X0353441Y0149840D02*
X0396750Y0149840D01*
X0396750Y0150438D02*
X0353441Y0150438D01*
X0353441Y0151037D02*
X0396750Y0151037D01*
X0396750Y0151635D02*
X0353441Y0151635D01*
X0353441Y0152234D02*
X0396750Y0152234D01*
X0396750Y0152832D02*
X0353059Y0152832D01*
X0352461Y0153431D02*
X0396750Y0153431D01*
X0396750Y0154029D02*
X0351862Y0154029D01*
X0351264Y0154628D02*
X0396750Y0154628D01*
X0396750Y0155226D02*
X0350665Y0155226D01*
X0350067Y0155825D02*
X0396750Y0155825D01*
X0396750Y0156423D02*
X0349468Y0156423D01*
X0348870Y0157022D02*
X0396750Y0157022D01*
X0396750Y0157620D02*
X0064078Y0157620D01*
X0063479Y0157022D02*
X0342019Y0157022D01*
X0342132Y0157641D02*
X0348757Y0157641D01*
X0353441Y0162325D01*
X0353441Y0168950D01*
X0348757Y0173635D01*
X0342132Y0173635D01*
X0337448Y0168950D01*
X0337448Y0162325D01*
X0342132Y0157641D01*
X0341554Y0158219D02*
X0260627Y0158219D01*
X0260821Y0158299D02*
X0261551Y0159029D01*
X0261946Y0159984D01*
X0261946Y0161016D01*
X0261551Y0161971D01*
X0260821Y0162701D01*
X0259866Y0163096D01*
X0258834Y0163096D01*
X0258776Y0163072D01*
X0258946Y0163484D01*
X0258946Y0164516D01*
X0258551Y0165471D01*
X0257821Y0166201D01*
X0256866Y0166596D01*
X0255834Y0166596D01*
X0255422Y0166426D01*
X0255446Y0166484D01*
X0255446Y0167516D01*
X0255051Y0168471D01*
X0254321Y0169201D01*
X0253366Y0169596D01*
X0252334Y0169596D01*
X0251379Y0169201D01*
X0250649Y0168471D01*
X0250623Y0168407D01*
X0227577Y0168407D01*
X0227551Y0168471D01*
X0226821Y0169201D01*
X0225866Y0169596D01*
X0224834Y0169596D01*
X0223879Y0169201D01*
X0223149Y0168471D01*
X0222754Y0167516D01*
X0222754Y0166596D01*
X0221834Y0166596D01*
X0220879Y0166201D01*
X0220149Y0165471D01*
X0219754Y0164516D01*
X0219754Y0163484D01*
X0220028Y0162822D01*
X0219366Y0163096D01*
X0218334Y0163096D01*
X0217379Y0162701D01*
X0216649Y0161971D01*
X0216254Y0161016D01*
X0216254Y0159984D01*
X0216649Y0159029D01*
X0217379Y0158299D01*
X0218334Y0157904D01*
X0219366Y0157904D01*
X0220321Y0158299D01*
X0221051Y0159029D01*
X0221077Y0159093D01*
X0257123Y0159093D01*
X0257149Y0159029D01*
X0257879Y0158299D01*
X0258834Y0157904D01*
X0259866Y0157904D01*
X0260821Y0158299D01*
X0261339Y0158817D02*
X0340956Y0158817D01*
X0340357Y0159416D02*
X0261711Y0159416D01*
X0261946Y0160014D02*
X0339759Y0160014D01*
X0339160Y0160613D02*
X0261946Y0160613D01*
X0261865Y0161211D02*
X0338562Y0161211D01*
X0337963Y0161810D02*
X0261617Y0161810D01*
X0261113Y0162408D02*
X0337448Y0162408D01*
X0337448Y0163007D02*
X0260081Y0163007D01*
X0258946Y0163605D02*
X0337448Y0163605D01*
X0337448Y0164204D02*
X0258946Y0164204D01*
X0258828Y0164803D02*
X0337448Y0164803D01*
X0337448Y0165401D02*
X0258580Y0165401D01*
X0258022Y0166000D02*
X0337448Y0166000D01*
X0337448Y0166598D02*
X0255446Y0166598D01*
X0255446Y0167197D02*
X0337448Y0167197D01*
X0337448Y0167795D02*
X0255331Y0167795D01*
X0255083Y0168394D02*
X0337448Y0168394D01*
X0337490Y0168992D02*
X0254529Y0168992D01*
X0253380Y0169591D02*
X0338088Y0169591D01*
X0338687Y0170189D02*
X0034640Y0170189D01*
X0034676Y0170168D02*
X0032349Y0171512D01*
X0029753Y0172207D01*
X0027066Y0172207D01*
X0024471Y0171512D01*
X0022144Y0170168D01*
X0020243Y0168268D01*
X0018900Y0165941D01*
X0018204Y0163346D01*
X0018204Y0160658D01*
X0018900Y0158063D01*
X0020243Y0155736D01*
X0022144Y0153836D01*
X0024471Y0152492D01*
X0027066Y0151796D01*
X0029753Y0151796D01*
X0032349Y0152492D01*
X0034676Y0153836D01*
X0036576Y0155736D01*
X0037920Y0158063D01*
X0038615Y0160658D01*
X0038615Y0163346D01*
X0037920Y0165941D01*
X0036576Y0168268D01*
X0034676Y0170168D01*
X0035254Y0169591D02*
X0053429Y0169591D01*
X0052831Y0168992D02*
X0035852Y0168992D01*
X0036451Y0168394D02*
X0052232Y0168394D01*
X0051634Y0167795D02*
X0036849Y0167795D01*
X0037195Y0167197D02*
X0051035Y0167197D01*
X0050437Y0166598D02*
X0037541Y0166598D01*
X0037886Y0166000D02*
X0049838Y0166000D01*
X0049240Y0165401D02*
X0038065Y0165401D01*
X0038225Y0164803D02*
X0049153Y0164803D01*
X0049153Y0164204D02*
X0038385Y0164204D01*
X0038546Y0163605D02*
X0049153Y0163605D01*
X0049153Y0163007D02*
X0038615Y0163007D01*
X0038615Y0162408D02*
X0049153Y0162408D01*
X0049153Y0161810D02*
X0038615Y0161810D01*
X0038615Y0161211D02*
X0049153Y0161211D01*
X0049153Y0160613D02*
X0038603Y0160613D01*
X0038443Y0160014D02*
X0049153Y0160014D01*
X0049153Y0159416D02*
X0038282Y0159416D01*
X0038122Y0158817D02*
X0049153Y0158817D01*
X0049624Y0158219D02*
X0037962Y0158219D01*
X0037664Y0157620D02*
X0050222Y0157620D01*
X0050821Y0157022D02*
X0037319Y0157022D01*
X0036973Y0156423D02*
X0051419Y0156423D01*
X0052018Y0155825D02*
X0036628Y0155825D01*
X0036067Y0155226D02*
X0052616Y0155226D01*
X0053215Y0154628D02*
X0035468Y0154628D01*
X0034870Y0154029D02*
X0053813Y0154029D01*
X0053770Y0153431D02*
X0033975Y0153431D01*
X0032939Y0152832D02*
X0053171Y0152832D01*
X0052573Y0152234D02*
X0031386Y0152234D01*
X0025434Y0152234D02*
X0005950Y0152234D01*
X0005950Y0152832D02*
X0023881Y0152832D01*
X0022844Y0153431D02*
X0005950Y0153431D01*
X0005950Y0154029D02*
X0021950Y0154029D01*
X0021351Y0154628D02*
X0005950Y0154628D01*
X0005950Y0155226D02*
X0020753Y0155226D01*
X0020192Y0155825D02*
X0005950Y0155825D01*
X0005950Y0156423D02*
X0019846Y0156423D01*
X0019501Y0157022D02*
X0005950Y0157022D01*
X0005950Y0157620D02*
X0019155Y0157620D01*
X0018858Y0158219D02*
X0005950Y0158219D01*
X0005950Y0158817D02*
X0018698Y0158817D01*
X0018537Y0159416D02*
X0005950Y0159416D01*
X0005950Y0160014D02*
X0018377Y0160014D01*
X0018216Y0160613D02*
X0005950Y0160613D01*
X0005950Y0161211D02*
X0018204Y0161211D01*
X0018204Y0161810D02*
X0005950Y0161810D01*
X0005950Y0162408D02*
X0018204Y0162408D01*
X0018204Y0163007D02*
X0005950Y0163007D01*
X0005950Y0163605D02*
X0018274Y0163605D01*
X0018434Y0164204D02*
X0005950Y0164204D01*
X0005950Y0164803D02*
X0018595Y0164803D01*
X0018755Y0165401D02*
X0005950Y0165401D01*
X0005950Y0166000D02*
X0018934Y0166000D01*
X0019279Y0166598D02*
X0005950Y0166598D01*
X0005950Y0167197D02*
X0019625Y0167197D01*
X0019970Y0167795D02*
X0005950Y0167795D01*
X0005950Y0168394D02*
X0020369Y0168394D01*
X0020967Y0168992D02*
X0005950Y0168992D01*
X0005950Y0169591D02*
X0021566Y0169591D01*
X0022179Y0170189D02*
X0005950Y0170189D01*
X0005950Y0170788D02*
X0023216Y0170788D01*
X0024253Y0171386D02*
X0005950Y0171386D01*
X0005950Y0171985D02*
X0026235Y0171985D01*
X0030585Y0171985D02*
X0340482Y0171985D01*
X0341081Y0172583D02*
X0005950Y0172583D01*
X0005950Y0173182D02*
X0341679Y0173182D01*
X0339884Y0171386D02*
X0032567Y0171386D01*
X0033604Y0170788D02*
X0339285Y0170788D01*
X0338096Y0174141D02*
X0337448Y0174789D01*
X0337448Y0189486D01*
X0338096Y0190135D01*
X0352793Y0190135D01*
X0353441Y0189486D01*
X0353441Y0174789D01*
X0352793Y0174141D01*
X0338096Y0174141D01*
X0337858Y0174379D02*
X0005950Y0174379D01*
X0005950Y0174977D02*
X0337448Y0174977D01*
X0337448Y0175576D02*
X0005950Y0175576D01*
X0005950Y0176174D02*
X0337448Y0176174D01*
X0337448Y0176773D02*
X0234954Y0176773D01*
X0235183Y0177002D02*
X0235183Y0193667D01*
X0234535Y0194316D01*
X0217870Y0194316D01*
X0217221Y0193667D01*
X0217221Y0177002D01*
X0217870Y0176354D01*
X0234535Y0176354D01*
X0235183Y0177002D01*
X0235183Y0177371D02*
X0337448Y0177371D01*
X0337448Y0177970D02*
X0235183Y0177970D01*
X0235183Y0178568D02*
X0337448Y0178568D01*
X0337448Y0179167D02*
X0235183Y0179167D01*
X0235183Y0179765D02*
X0337448Y0179765D01*
X0337448Y0180364D02*
X0235183Y0180364D01*
X0235183Y0180962D02*
X0337448Y0180962D01*
X0337448Y0181561D02*
X0235183Y0181561D01*
X0235183Y0182159D02*
X0337448Y0182159D01*
X0337448Y0182758D02*
X0235183Y0182758D01*
X0235183Y0183356D02*
X0337448Y0183356D01*
X0337448Y0183955D02*
X0235183Y0183955D01*
X0235183Y0184553D02*
X0337448Y0184553D01*
X0337448Y0185152D02*
X0235183Y0185152D01*
X0235183Y0185750D02*
X0337448Y0185750D01*
X0337448Y0186349D02*
X0235183Y0186349D01*
X0235183Y0186947D02*
X0337448Y0186947D01*
X0337448Y0187546D02*
X0235183Y0187546D01*
X0235183Y0188144D02*
X0337448Y0188144D01*
X0337448Y0188743D02*
X0235183Y0188743D01*
X0235183Y0189341D02*
X0337448Y0189341D01*
X0337902Y0189940D02*
X0235183Y0189940D01*
X0235183Y0190539D02*
X0368324Y0190539D01*
X0367918Y0190304D02*
X0366018Y0188404D01*
X0364675Y0186077D01*
X0363979Y0183481D01*
X0363979Y0180794D01*
X0364675Y0178199D01*
X0366018Y0175871D01*
X0367918Y0173971D01*
X0370245Y0172628D01*
X0372841Y0171932D01*
X0375528Y0171932D01*
X0378124Y0172628D01*
X0380451Y0173971D01*
X0382351Y0175871D01*
X0383695Y0178199D01*
X0384390Y0180794D01*
X0384390Y0183481D01*
X0383695Y0186077D01*
X0382351Y0188404D01*
X0380451Y0190304D01*
X0378124Y0191648D01*
X0375528Y0192343D01*
X0372841Y0192343D01*
X0370245Y0191648D01*
X0367918Y0190304D01*
X0367554Y0189940D02*
X0352987Y0189940D01*
X0353441Y0189341D02*
X0366956Y0189341D01*
X0366357Y0188743D02*
X0353441Y0188743D01*
X0353441Y0188144D02*
X0365868Y0188144D01*
X0365523Y0187546D02*
X0353441Y0187546D01*
X0353441Y0186947D02*
X0365177Y0186947D01*
X0364832Y0186349D02*
X0353441Y0186349D01*
X0353441Y0185750D02*
X0364587Y0185750D01*
X0364427Y0185152D02*
X0353441Y0185152D01*
X0353441Y0184553D02*
X0364266Y0184553D01*
X0364106Y0183955D02*
X0353441Y0183955D01*
X0353441Y0183356D02*
X0363979Y0183356D01*
X0363979Y0182758D02*
X0353441Y0182758D01*
X0353441Y0182159D02*
X0363979Y0182159D01*
X0363979Y0181561D02*
X0353441Y0181561D01*
X0353441Y0180962D02*
X0363979Y0180962D01*
X0364094Y0180364D02*
X0353441Y0180364D01*
X0353441Y0179765D02*
X0364255Y0179765D01*
X0364415Y0179167D02*
X0353441Y0179167D01*
X0353441Y0178568D02*
X0364576Y0178568D01*
X0364807Y0177970D02*
X0353441Y0177970D01*
X0353441Y0177371D02*
X0365152Y0177371D01*
X0365498Y0176773D02*
X0353441Y0176773D01*
X0353441Y0176174D02*
X0365843Y0176174D01*
X0366314Y0175576D02*
X0353441Y0175576D01*
X0353441Y0174977D02*
X0366912Y0174977D01*
X0367511Y0174379D02*
X0353031Y0174379D01*
X0350407Y0171985D02*
X0372646Y0171985D01*
X0370412Y0172583D02*
X0349808Y0172583D01*
X0349210Y0173182D02*
X0369286Y0173182D01*
X0368249Y0173780D02*
X0005950Y0173780D01*
X0005950Y0176773D02*
X0094173Y0176773D01*
X0094395Y0176550D02*
X0111061Y0176550D01*
X0111709Y0177199D01*
X0111709Y0193864D01*
X0111061Y0194513D01*
X0094395Y0194513D01*
X0093747Y0193864D01*
X0093747Y0177199D01*
X0094395Y0176550D01*
X0093747Y0177371D02*
X0005950Y0177371D01*
X0005950Y0177970D02*
X0093747Y0177970D01*
X0093747Y0178568D02*
X0005950Y0178568D01*
X0005950Y0179167D02*
X0093747Y0179167D01*
X0093747Y0179765D02*
X0005950Y0179765D01*
X0005950Y0180364D02*
X0093747Y0180364D01*
X0093747Y0180962D02*
X0005950Y0180962D01*
X0005950Y0181561D02*
X0093747Y0181561D01*
X0093747Y0182159D02*
X0005950Y0182159D01*
X0005950Y0182758D02*
X0093747Y0182758D01*
X0093747Y0183356D02*
X0005950Y0183356D01*
X0005950Y0183955D02*
X0093747Y0183955D01*
X0093747Y0184553D02*
X0005950Y0184553D01*
X0005950Y0185152D02*
X0093747Y0185152D01*
X0093747Y0185750D02*
X0005950Y0185750D01*
X0005950Y0186349D02*
X0093747Y0186349D01*
X0093747Y0186947D02*
X0005950Y0186947D01*
X0005950Y0187546D02*
X0093747Y0187546D01*
X0093747Y0188144D02*
X0005950Y0188144D01*
X0005950Y0188743D02*
X0093747Y0188743D01*
X0093747Y0189341D02*
X0005950Y0189341D01*
X0005950Y0189940D02*
X0093747Y0189940D01*
X0093747Y0190539D02*
X0005950Y0190539D01*
X0005950Y0191137D02*
X0093747Y0191137D01*
X0093747Y0191736D02*
X0005950Y0191736D01*
X0005950Y0192334D02*
X0093747Y0192334D01*
X0093747Y0192933D02*
X0005950Y0192933D01*
X0005950Y0193531D02*
X0060855Y0193531D01*
X0061763Y0193155D02*
X0063795Y0193155D01*
X0065672Y0193932D01*
X0067109Y0195369D01*
X0067886Y0197246D01*
X0067886Y0199278D01*
X0067109Y0201155D01*
X0065672Y0202591D01*
X0063795Y0203369D01*
X0061763Y0203369D01*
X0059886Y0202591D01*
X0058450Y0201155D01*
X0057672Y0199278D01*
X0057672Y0197246D01*
X0058450Y0195369D01*
X0059886Y0193932D01*
X0061763Y0193155D01*
X0059689Y0194130D02*
X0005950Y0194130D01*
X0005950Y0194728D02*
X0059090Y0194728D01*
X0058492Y0195327D02*
X0005950Y0195327D01*
X0005950Y0195925D02*
X0058219Y0195925D01*
X0057971Y0196524D02*
X0005950Y0196524D01*
X0005950Y0197122D02*
X0057723Y0197122D01*
X0057672Y0197721D02*
X0005950Y0197721D01*
X0005950Y0198319D02*
X0057672Y0198319D01*
X0057672Y0198918D02*
X0005950Y0198918D01*
X0005950Y0199516D02*
X0057771Y0199516D01*
X0058019Y0200115D02*
X0005950Y0200115D01*
X0005950Y0200713D02*
X0058267Y0200713D01*
X0058607Y0201312D02*
X0014904Y0201312D01*
X0014886Y0201293D02*
X0017057Y0203464D01*
X0017057Y0206536D01*
X0014886Y0208707D01*
X0011814Y0208707D01*
X0009643Y0206536D01*
X0009643Y0203464D01*
X0011814Y0201293D01*
X0014886Y0201293D01*
X0015503Y0201910D02*
X0059205Y0201910D01*
X0059804Y0202509D02*
X0016101Y0202509D01*
X0016700Y0203107D02*
X0061132Y0203107D01*
X0064427Y0203107D02*
X0396750Y0203107D01*
X0396750Y0202509D02*
X0065755Y0202509D01*
X0066353Y0201910D02*
X0396750Y0201910D01*
X0396750Y0201312D02*
X0066952Y0201312D01*
X0067292Y0200713D02*
X0396750Y0200713D01*
X0396750Y0200115D02*
X0067540Y0200115D01*
X0067787Y0199516D02*
X0396750Y0199516D01*
X0396750Y0198918D02*
X0067886Y0198918D01*
X0067886Y0198319D02*
X0396750Y0198319D01*
X0396750Y0197721D02*
X0067886Y0197721D01*
X0067835Y0197122D02*
X0396750Y0197122D01*
X0396750Y0196524D02*
X0067587Y0196524D01*
X0067339Y0195925D02*
X0396750Y0195925D01*
X0396750Y0195327D02*
X0067066Y0195327D01*
X0066468Y0194728D02*
X0396750Y0194728D01*
X0396750Y0194130D02*
X0234721Y0194130D01*
X0235183Y0193531D02*
X0396750Y0193531D01*
X0396750Y0192933D02*
X0235183Y0192933D01*
X0235183Y0192334D02*
X0372807Y0192334D01*
X0370573Y0191736D02*
X0235183Y0191736D01*
X0235183Y0191137D02*
X0369361Y0191137D01*
X0375563Y0192334D02*
X0396750Y0192334D01*
X0396750Y0191736D02*
X0377796Y0191736D01*
X0379009Y0191137D02*
X0396750Y0191137D01*
X0396750Y0190539D02*
X0380045Y0190539D01*
X0380815Y0189940D02*
X0396750Y0189940D01*
X0396750Y0189341D02*
X0381414Y0189341D01*
X0382012Y0188743D02*
X0396750Y0188743D01*
X0396750Y0188144D02*
X0382501Y0188144D01*
X0382847Y0187546D02*
X0396750Y0187546D01*
X0396750Y0186947D02*
X0383192Y0186947D01*
X0383538Y0186349D02*
X0396750Y0186349D01*
X0396750Y0185750D02*
X0383782Y0185750D01*
X0383943Y0185152D02*
X0396750Y0185152D01*
X0396750Y0184553D02*
X0384103Y0184553D01*
X0384263Y0183955D02*
X0396750Y0183955D01*
X0396750Y0183356D02*
X0384390Y0183356D01*
X0384390Y0182758D02*
X0396750Y0182758D01*
X0396750Y0182159D02*
X0384390Y0182159D01*
X0384390Y0181561D02*
X0396750Y0181561D01*
X0396750Y0180962D02*
X0384390Y0180962D01*
X0384275Y0180364D02*
X0396750Y0180364D01*
X0396750Y0179765D02*
X0384114Y0179765D01*
X0383954Y0179167D02*
X0396750Y0179167D01*
X0396750Y0178568D02*
X0383794Y0178568D01*
X0383563Y0177970D02*
X0396750Y0177970D01*
X0396750Y0177371D02*
X0383217Y0177371D01*
X0382871Y0176773D02*
X0396750Y0176773D01*
X0396750Y0176174D02*
X0382526Y0176174D01*
X0382055Y0175576D02*
X0396750Y0175576D01*
X0396750Y0174977D02*
X0381457Y0174977D01*
X0380858Y0174379D02*
X0396750Y0174379D01*
X0396750Y0173780D02*
X0380120Y0173780D01*
X0379083Y0173182D02*
X0396750Y0173182D01*
X0396750Y0172583D02*
X0377957Y0172583D01*
X0375724Y0171985D02*
X0396750Y0171985D01*
X0396750Y0171386D02*
X0351005Y0171386D01*
X0351604Y0170788D02*
X0396750Y0170788D01*
X0396750Y0170189D02*
X0352202Y0170189D01*
X0352801Y0169591D02*
X0396750Y0169591D01*
X0396750Y0168992D02*
X0353399Y0168992D01*
X0353441Y0168394D02*
X0396750Y0168394D01*
X0396750Y0167795D02*
X0353441Y0167795D01*
X0353441Y0167197D02*
X0396750Y0167197D01*
X0396750Y0166598D02*
X0353441Y0166598D01*
X0353441Y0166000D02*
X0396750Y0166000D01*
X0396750Y0165401D02*
X0353441Y0165401D01*
X0353441Y0164803D02*
X0396750Y0164803D01*
X0396750Y0164204D02*
X0353441Y0164204D01*
X0353441Y0163605D02*
X0396750Y0163605D01*
X0396750Y0163007D02*
X0353441Y0163007D01*
X0353441Y0162408D02*
X0396750Y0162408D01*
X0396750Y0161810D02*
X0352926Y0161810D01*
X0352327Y0161211D02*
X0396750Y0161211D01*
X0396750Y0160613D02*
X0351729Y0160613D01*
X0351130Y0160014D02*
X0396750Y0160014D01*
X0396750Y0159416D02*
X0350532Y0159416D01*
X0349933Y0158817D02*
X0396750Y0158817D01*
X0396750Y0158219D02*
X0349335Y0158219D01*
X0341421Y0156423D02*
X0062881Y0156423D01*
X0062282Y0155825D02*
X0340822Y0155825D01*
X0339027Y0154029D02*
X0235058Y0154029D01*
X0235183Y0153431D02*
X0338428Y0153431D01*
X0337830Y0152832D02*
X0235183Y0152832D01*
X0235183Y0152234D02*
X0337448Y0152234D01*
X0337448Y0151635D02*
X0235183Y0151635D01*
X0235183Y0151037D02*
X0337448Y0151037D01*
X0337448Y0150438D02*
X0235183Y0150438D01*
X0235183Y0149840D02*
X0337448Y0149840D01*
X0337448Y0149241D02*
X0235183Y0149241D01*
X0235183Y0148643D02*
X0337448Y0148643D01*
X0337448Y0148044D02*
X0235183Y0148044D01*
X0235183Y0147446D02*
X0337448Y0147446D01*
X0337448Y0146847D02*
X0235183Y0146847D01*
X0235183Y0146249D02*
X0337448Y0146249D01*
X0337623Y0145650D02*
X0235183Y0145650D01*
X0235183Y0145052D02*
X0338221Y0145052D01*
X0338820Y0144453D02*
X0235183Y0144453D01*
X0235183Y0143855D02*
X0339418Y0143855D01*
X0340017Y0143256D02*
X0235183Y0143256D01*
X0235183Y0142658D02*
X0340615Y0142658D01*
X0341214Y0142059D02*
X0235183Y0142059D01*
X0235183Y0141461D02*
X0341812Y0141461D01*
X0341761Y0140264D02*
X0235183Y0140264D01*
X0235183Y0140862D02*
X0368018Y0140862D01*
X0378277Y0142059D02*
X0396750Y0142059D01*
X0396750Y0141461D02*
X0379314Y0141461D01*
X0380351Y0140862D02*
X0396750Y0140862D01*
X0396750Y0140264D02*
X0380992Y0140264D01*
X0381590Y0139665D02*
X0396750Y0139665D01*
X0396750Y0139067D02*
X0382189Y0139067D01*
X0382603Y0138468D02*
X0396750Y0138468D01*
X0396750Y0137870D02*
X0382948Y0137870D01*
X0383294Y0137271D02*
X0396750Y0137271D01*
X0396750Y0136672D02*
X0383640Y0136672D01*
X0383829Y0136074D02*
X0396750Y0136074D01*
X0396750Y0135475D02*
X0383990Y0135475D01*
X0384150Y0134877D02*
X0396750Y0134877D01*
X0396750Y0134278D02*
X0384311Y0134278D01*
X0384390Y0133680D02*
X0396750Y0133680D01*
X0396750Y0133081D02*
X0384390Y0133081D01*
X0384390Y0132483D02*
X0396750Y0132483D01*
X0396750Y0131884D02*
X0384390Y0131884D01*
X0384388Y0131286D02*
X0396750Y0131286D01*
X0396750Y0130687D02*
X0384228Y0130687D01*
X0384067Y0130089D02*
X0396750Y0130089D01*
X0396750Y0129490D02*
X0383907Y0129490D01*
X0383746Y0128892D02*
X0396750Y0128892D01*
X0396750Y0128293D02*
X0383461Y0128293D01*
X0383115Y0127695D02*
X0396750Y0127695D01*
X0396750Y0127096D02*
X0382770Y0127096D01*
X0382424Y0126498D02*
X0396750Y0126498D01*
X0396750Y0125899D02*
X0381879Y0125899D01*
X0381280Y0125301D02*
X0396750Y0125301D01*
X0396750Y0124702D02*
X0380682Y0124702D01*
X0379814Y0124104D02*
X0396750Y0124104D01*
X0396750Y0123505D02*
X0378778Y0123505D01*
X0377299Y0122907D02*
X0396750Y0122907D01*
X0396750Y0122308D02*
X0066258Y0122308D01*
X0066856Y0121710D02*
X0396750Y0121710D01*
X0396750Y0121111D02*
X0067455Y0121111D01*
X0068053Y0120513D02*
X0396750Y0120513D01*
X0396750Y0119914D02*
X0068652Y0119914D01*
X0069250Y0119316D02*
X0396750Y0119316D01*
X0396750Y0118717D02*
X0069849Y0118717D01*
X0070448Y0118119D02*
X0396750Y0118119D01*
X0396750Y0117520D02*
X0071046Y0117520D01*
X0071645Y0116922D02*
X0396750Y0116922D01*
X0396750Y0116323D02*
X0072243Y0116323D01*
X0072842Y0115725D02*
X0396750Y0115725D01*
X0396750Y0115126D02*
X0365895Y0115126D01*
X0365821Y0115201D02*
X0364866Y0115596D01*
X0363834Y0115596D01*
X0362879Y0115201D01*
X0362149Y0114471D01*
X0362123Y0114407D01*
X0356077Y0114407D01*
X0356051Y0114471D01*
X0355321Y0115201D01*
X0354366Y0115596D01*
X0353334Y0115596D01*
X0352379Y0115201D01*
X0351649Y0114471D01*
X0351254Y0113516D01*
X0351254Y0112484D01*
X0351649Y0111529D01*
X0352379Y0110799D01*
X0353334Y0110404D01*
X0354366Y0110404D01*
X0355321Y0110799D01*
X0356051Y0111529D01*
X0356077Y0111593D01*
X0362123Y0111593D01*
X0362149Y0111529D01*
X0362879Y0110799D01*
X0363834Y0110404D01*
X0364866Y0110404D01*
X0365821Y0110799D01*
X0366551Y0111529D01*
X0366946Y0112484D01*
X0366946Y0113516D01*
X0366551Y0114471D01*
X0365821Y0115201D01*
X0366494Y0114528D02*
X0396750Y0114528D01*
X0396750Y0113929D02*
X0366775Y0113929D01*
X0366946Y0113331D02*
X0396750Y0113331D01*
X0396750Y0112732D02*
X0366946Y0112732D01*
X0366801Y0112134D02*
X0396750Y0112134D01*
X0396750Y0111535D02*
X0376870Y0111535D01*
X0378124Y0111199D02*
X0375528Y0111894D01*
X0372841Y0111894D01*
X0370245Y0111199D01*
X0367918Y0109855D01*
X0366018Y0107955D01*
X0364675Y0105628D01*
X0363979Y0103033D01*
X0363979Y0100345D01*
X0364675Y0097750D01*
X0366018Y0095423D01*
X0367918Y0093523D01*
X0370245Y0092179D01*
X0372841Y0091483D01*
X0375528Y0091483D01*
X0378124Y0092179D01*
X0380451Y0093523D01*
X0382351Y0095423D01*
X0383695Y0097750D01*
X0384390Y0100345D01*
X0384390Y0103033D01*
X0383695Y0105628D01*
X0382351Y0107955D01*
X0380451Y0109855D01*
X0378124Y0111199D01*
X0378578Y0110937D02*
X0396750Y0110937D01*
X0396750Y0110338D02*
X0379615Y0110338D01*
X0380567Y0109739D02*
X0396750Y0109739D01*
X0396750Y0109141D02*
X0381165Y0109141D01*
X0381764Y0108542D02*
X0396750Y0108542D01*
X0396750Y0107944D02*
X0382358Y0107944D01*
X0382703Y0107345D02*
X0396750Y0107345D01*
X0396750Y0106747D02*
X0383049Y0106747D01*
X0383394Y0106148D02*
X0396750Y0106148D01*
X0396750Y0105550D02*
X0383716Y0105550D01*
X0383876Y0104951D02*
X0396750Y0104951D01*
X0396750Y0104353D02*
X0384036Y0104353D01*
X0384197Y0103754D02*
X0396750Y0103754D01*
X0396750Y0103156D02*
X0384357Y0103156D01*
X0384390Y0102557D02*
X0396750Y0102557D01*
X0396750Y0101959D02*
X0384390Y0101959D01*
X0384390Y0101360D02*
X0396750Y0101360D01*
X0396750Y0100762D02*
X0384390Y0100762D01*
X0384341Y0100163D02*
X0396750Y0100163D01*
X0396750Y0099565D02*
X0384181Y0099565D01*
X0384021Y0098966D02*
X0396750Y0098966D01*
X0396750Y0098368D02*
X0383860Y0098368D01*
X0383700Y0097769D02*
X0396750Y0097769D01*
X0396750Y0097171D02*
X0383360Y0097171D01*
X0383015Y0096572D02*
X0396750Y0096572D01*
X0396750Y0095974D02*
X0382669Y0095974D01*
X0382304Y0095375D02*
X0396750Y0095375D01*
X0396750Y0094777D02*
X0381705Y0094777D01*
X0381107Y0094178D02*
X0396750Y0094178D01*
X0396750Y0093580D02*
X0380508Y0093580D01*
X0379513Y0092981D02*
X0396750Y0092981D01*
X0396750Y0092383D02*
X0378477Y0092383D01*
X0376650Y0091784D02*
X0396750Y0091784D01*
X0396750Y0091186D02*
X0350757Y0091186D01*
X0350159Y0091784D02*
X0371719Y0091784D01*
X0369893Y0092383D02*
X0349560Y0092383D01*
X0348962Y0092981D02*
X0368856Y0092981D01*
X0367861Y0093580D02*
X0263524Y0093580D01*
X0263743Y0093670D02*
X0265180Y0095107D01*
X0265957Y0096984D01*
X0265957Y0099016D01*
X0265180Y0100893D01*
X0263743Y0102330D01*
X0261866Y0103107D01*
X0259834Y0103107D01*
X0257957Y0102330D01*
X0256520Y0100893D01*
X0255743Y0099016D01*
X0255743Y0096984D01*
X0256520Y0095107D01*
X0257957Y0093670D01*
X0259834Y0092893D01*
X0261866Y0092893D01*
X0263743Y0093670D01*
X0264251Y0094178D02*
X0337610Y0094178D01*
X0337448Y0094341D02*
X0338096Y0093692D01*
X0352793Y0093692D01*
X0353441Y0094341D01*
X0353441Y0109037D01*
X0352793Y0109686D01*
X0338096Y0109686D01*
X0337448Y0109037D01*
X0337448Y0094341D01*
X0337448Y0094777D02*
X0264849Y0094777D01*
X0265291Y0095375D02*
X0337448Y0095375D01*
X0337448Y0095974D02*
X0265539Y0095974D01*
X0265786Y0096572D02*
X0337448Y0096572D01*
X0337448Y0097171D02*
X0265957Y0097171D01*
X0265957Y0097769D02*
X0337448Y0097769D01*
X0337448Y0098368D02*
X0265957Y0098368D01*
X0265957Y0098966D02*
X0337448Y0098966D01*
X0337448Y0099565D02*
X0265730Y0099565D01*
X0265482Y0100163D02*
X0337448Y0100163D01*
X0337448Y0100762D02*
X0265234Y0100762D01*
X0264712Y0101360D02*
X0337448Y0101360D01*
X0337448Y0101959D02*
X0264114Y0101959D01*
X0263193Y0102557D02*
X0337448Y0102557D01*
X0337448Y0103156D02*
X0235183Y0103156D01*
X0235183Y0103754D02*
X0337448Y0103754D01*
X0337448Y0104353D02*
X0234734Y0104353D01*
X0234535Y0104552D02*
X0235183Y0103903D01*
X0235183Y0087238D01*
X0234535Y0086590D01*
X0217870Y0086590D01*
X0217221Y0087238D01*
X0217221Y0103903D01*
X0217870Y0104552D01*
X0234535Y0104552D01*
X0235183Y0102557D02*
X0258507Y0102557D01*
X0257586Y0101959D02*
X0235183Y0101959D01*
X0235183Y0101360D02*
X0256988Y0101360D01*
X0256466Y0100762D02*
X0235183Y0100762D01*
X0235183Y0100163D02*
X0256218Y0100163D01*
X0255970Y0099565D02*
X0235183Y0099565D01*
X0235183Y0098966D02*
X0255743Y0098966D01*
X0255743Y0098368D02*
X0235183Y0098368D01*
X0235183Y0097769D02*
X0255743Y0097769D01*
X0255743Y0097171D02*
X0235183Y0097171D01*
X0235183Y0096572D02*
X0255914Y0096572D01*
X0256161Y0095974D02*
X0235183Y0095974D01*
X0235183Y0095375D02*
X0256409Y0095375D01*
X0256851Y0094777D02*
X0235183Y0094777D01*
X0235183Y0094178D02*
X0257449Y0094178D01*
X0258176Y0093580D02*
X0235183Y0093580D01*
X0235183Y0092981D02*
X0259621Y0092981D01*
X0259834Y0092107D02*
X0257957Y0091330D01*
X0256520Y0089893D01*
X0255743Y0088016D01*
X0255743Y0085984D01*
X0256520Y0084107D01*
X0257957Y0082670D01*
X0259834Y0081893D01*
X0261866Y0081893D01*
X0263743Y0082670D01*
X0265180Y0084107D01*
X0265957Y0085984D01*
X0265957Y0088016D01*
X0265180Y0089893D01*
X0263743Y0091330D01*
X0261866Y0092107D01*
X0259834Y0092107D01*
X0259055Y0091784D02*
X0235183Y0091784D01*
X0235183Y0091186D02*
X0257813Y0091186D01*
X0257215Y0090587D02*
X0235183Y0090587D01*
X0235183Y0089989D02*
X0256616Y0089989D01*
X0256312Y0089390D02*
X0235183Y0089390D01*
X0235183Y0088792D02*
X0256064Y0088792D01*
X0255816Y0088193D02*
X0235183Y0088193D01*
X0235183Y0087595D02*
X0255743Y0087595D01*
X0255743Y0086996D02*
X0234941Y0086996D01*
X0234535Y0084473D02*
X0235183Y0083825D01*
X0235183Y0067160D01*
X0234535Y0066511D01*
X0217870Y0066511D01*
X0217221Y0067160D01*
X0217221Y0083825D01*
X0217870Y0084473D01*
X0234535Y0084473D01*
X0235005Y0084003D02*
X0256624Y0084003D01*
X0256315Y0084602D02*
X0192871Y0084602D01*
X0192753Y0084719D02*
X0193402Y0084071D01*
X0193402Y0067406D01*
X0192753Y0066757D01*
X0176088Y0066757D01*
X0175440Y0067406D01*
X0175440Y0084071D01*
X0176088Y0084719D01*
X0192753Y0084719D01*
X0193402Y0084003D02*
X0217400Y0084003D01*
X0217221Y0083405D02*
X0193402Y0083405D01*
X0193402Y0082806D02*
X0217221Y0082806D01*
X0217221Y0082208D02*
X0193402Y0082208D01*
X0193402Y0081609D02*
X0217221Y0081609D01*
X0217221Y0081011D02*
X0193402Y0081011D01*
X0193402Y0080412D02*
X0217221Y0080412D01*
X0217221Y0079814D02*
X0193402Y0079814D01*
X0193402Y0079215D02*
X0217221Y0079215D01*
X0217221Y0078617D02*
X0193402Y0078617D01*
X0193402Y0078018D02*
X0217221Y0078018D01*
X0217221Y0077420D02*
X0193402Y0077420D01*
X0193402Y0076821D02*
X0217221Y0076821D01*
X0217221Y0076223D02*
X0193402Y0076223D01*
X0193402Y0075624D02*
X0217221Y0075624D01*
X0217221Y0075026D02*
X0193402Y0075026D01*
X0193402Y0074427D02*
X0217221Y0074427D01*
X0217221Y0073829D02*
X0193402Y0073829D01*
X0193402Y0073230D02*
X0217221Y0073230D01*
X0217221Y0072632D02*
X0193402Y0072632D01*
X0193402Y0072033D02*
X0217221Y0072033D01*
X0217221Y0071435D02*
X0193402Y0071435D01*
X0193402Y0070836D02*
X0217221Y0070836D01*
X0217221Y0070238D02*
X0193402Y0070238D01*
X0193402Y0069639D02*
X0217221Y0069639D01*
X0217221Y0069041D02*
X0193402Y0069041D01*
X0193402Y0068442D02*
X0217221Y0068442D01*
X0217221Y0067844D02*
X0193402Y0067844D01*
X0193242Y0067245D02*
X0217221Y0067245D01*
X0217734Y0066647D02*
X0128057Y0066647D01*
X0128057Y0067245D02*
X0134262Y0067245D01*
X0134101Y0067406D02*
X0134750Y0066757D01*
X0151415Y0066757D01*
X0152063Y0067406D01*
X0152063Y0084071D01*
X0151415Y0084719D01*
X0134750Y0084719D01*
X0134101Y0084071D01*
X0134101Y0067406D01*
X0134101Y0067844D02*
X0128057Y0067844D01*
X0128057Y0068442D02*
X0134101Y0068442D01*
X0134101Y0069041D02*
X0128057Y0069041D01*
X0128057Y0069639D02*
X0134101Y0069639D01*
X0134101Y0070238D02*
X0128057Y0070238D01*
X0128057Y0070836D02*
X0134101Y0070836D01*
X0134101Y0071435D02*
X0128057Y0071435D01*
X0128057Y0072033D02*
X0134101Y0072033D01*
X0134101Y0072632D02*
X0128057Y0072632D01*
X0128057Y0073230D02*
X0134101Y0073230D01*
X0134101Y0073829D02*
X0128057Y0073829D01*
X0128057Y0074427D02*
X0134101Y0074427D01*
X0134101Y0075026D02*
X0128057Y0075026D01*
X0128057Y0075624D02*
X0134101Y0075624D01*
X0134101Y0076223D02*
X0128057Y0076223D01*
X0128057Y0076821D02*
X0134101Y0076821D01*
X0134101Y0077420D02*
X0128057Y0077420D01*
X0128057Y0078018D02*
X0134101Y0078018D01*
X0134101Y0078617D02*
X0128057Y0078617D01*
X0128057Y0079215D02*
X0134101Y0079215D01*
X0134101Y0079814D02*
X0128057Y0079814D01*
X0128057Y0080412D02*
X0134101Y0080412D01*
X0134101Y0081011D02*
X0128057Y0081011D01*
X0128057Y0081609D02*
X0134101Y0081609D01*
X0134101Y0082208D02*
X0128057Y0082208D01*
X0128057Y0082806D02*
X0134101Y0082806D01*
X0134101Y0083405D02*
X0128057Y0083405D01*
X0128057Y0084003D02*
X0134101Y0084003D01*
X0134632Y0084602D02*
X0128057Y0084602D01*
X0128057Y0085201D02*
X0256067Y0085201D01*
X0255820Y0085799D02*
X0128057Y0085799D01*
X0128057Y0086398D02*
X0255743Y0086398D01*
X0257223Y0083405D02*
X0235183Y0083405D01*
X0235183Y0082806D02*
X0257821Y0082806D01*
X0259074Y0082208D02*
X0235183Y0082208D01*
X0235183Y0081609D02*
X0278253Y0081609D01*
X0278253Y0081011D02*
X0235183Y0081011D01*
X0235183Y0080412D02*
X0278253Y0080412D01*
X0278253Y0079814D02*
X0235183Y0079814D01*
X0235183Y0079215D02*
X0278447Y0079215D01*
X0278253Y0079409D02*
X0280425Y0077238D01*
X0283496Y0077238D01*
X0285667Y0079409D01*
X0285667Y0082480D01*
X0283522Y0084626D01*
X0285667Y0086772D01*
X0285667Y0089843D01*
X0283496Y0092014D01*
X0280425Y0092014D01*
X0278253Y0089843D01*
X0278253Y0086772D01*
X0280399Y0084626D01*
X0278253Y0082480D01*
X0278253Y0079409D01*
X0279046Y0078617D02*
X0235183Y0078617D01*
X0235183Y0078018D02*
X0279644Y0078018D01*
X0280243Y0077420D02*
X0235183Y0077420D01*
X0235183Y0076821D02*
X0396750Y0076821D01*
X0396750Y0076223D02*
X0349220Y0076223D01*
X0348757Y0076686D02*
X0342132Y0076686D01*
X0337448Y0072001D01*
X0337448Y0065377D01*
X0342132Y0060692D01*
X0348757Y0060692D01*
X0353441Y0065377D01*
X0353441Y0072001D01*
X0348757Y0076686D01*
X0348757Y0077192D02*
X0353441Y0081877D01*
X0353441Y0088501D01*
X0348757Y0093186D01*
X0342132Y0093186D01*
X0337448Y0088501D01*
X0337448Y0081877D01*
X0342132Y0077192D01*
X0348757Y0077192D01*
X0348985Y0077420D02*
X0396750Y0077420D01*
X0396750Y0078018D02*
X0349583Y0078018D01*
X0350182Y0078617D02*
X0396750Y0078617D01*
X0396750Y0079215D02*
X0350780Y0079215D01*
X0351379Y0079814D02*
X0396750Y0079814D01*
X0396750Y0080412D02*
X0351977Y0080412D01*
X0352576Y0081011D02*
X0396750Y0081011D01*
X0396750Y0081609D02*
X0353174Y0081609D01*
X0353441Y0082208D02*
X0396750Y0082208D01*
X0396750Y0082806D02*
X0353441Y0082806D01*
X0353441Y0083405D02*
X0396750Y0083405D01*
X0396750Y0084003D02*
X0353441Y0084003D01*
X0353441Y0084602D02*
X0396750Y0084602D01*
X0396750Y0085201D02*
X0353441Y0085201D01*
X0353441Y0085799D02*
X0396750Y0085799D01*
X0396750Y0086398D02*
X0353441Y0086398D01*
X0353441Y0086996D02*
X0396750Y0086996D01*
X0396750Y0087595D02*
X0353441Y0087595D01*
X0353441Y0088193D02*
X0396750Y0088193D01*
X0396750Y0088792D02*
X0353151Y0088792D01*
X0352553Y0089390D02*
X0396750Y0089390D01*
X0396750Y0089989D02*
X0351954Y0089989D01*
X0351356Y0090587D02*
X0396750Y0090587D01*
X0396750Y0075624D02*
X0349818Y0075624D01*
X0350417Y0075026D02*
X0396750Y0075026D01*
X0396750Y0074427D02*
X0351015Y0074427D01*
X0351614Y0073829D02*
X0396750Y0073829D01*
X0396750Y0073230D02*
X0352212Y0073230D01*
X0352811Y0072632D02*
X0396750Y0072632D01*
X0396750Y0072033D02*
X0353409Y0072033D01*
X0353441Y0071435D02*
X0396750Y0071435D01*
X0396750Y0070836D02*
X0353441Y0070836D01*
X0353441Y0070238D02*
X0396750Y0070238D01*
X0396750Y0069639D02*
X0353441Y0069639D01*
X0353441Y0069041D02*
X0396750Y0069041D01*
X0396750Y0068442D02*
X0353441Y0068442D01*
X0353441Y0067844D02*
X0396750Y0067844D01*
X0396750Y0067245D02*
X0353441Y0067245D01*
X0353441Y0066647D02*
X0396750Y0066647D01*
X0396750Y0066048D02*
X0353441Y0066048D01*
X0353441Y0065450D02*
X0396750Y0065450D01*
X0396750Y0064851D02*
X0352916Y0064851D01*
X0352317Y0064253D02*
X0396750Y0064253D01*
X0396750Y0063654D02*
X0351719Y0063654D01*
X0351120Y0063056D02*
X0396750Y0063056D01*
X0396750Y0062457D02*
X0350522Y0062457D01*
X0349923Y0061859D02*
X0370841Y0061859D01*
X0369485Y0061260D02*
X0349325Y0061260D01*
X0348880Y0060063D02*
X0367626Y0060063D01*
X0367027Y0059465D02*
X0349478Y0059465D01*
X0350077Y0058866D02*
X0366429Y0058866D01*
X0365910Y0058268D02*
X0350675Y0058268D01*
X0351274Y0057669D02*
X0365564Y0057669D01*
X0365219Y0057070D02*
X0351872Y0057070D01*
X0352471Y0056472D02*
X0364873Y0056472D01*
X0364606Y0055873D02*
X0353069Y0055873D01*
X0353441Y0055275D02*
X0364446Y0055275D01*
X0364286Y0054676D02*
X0353441Y0054676D01*
X0353441Y0054078D02*
X0364125Y0054078D01*
X0363979Y0053479D02*
X0353441Y0053479D01*
X0353441Y0052881D02*
X0363979Y0052881D01*
X0363979Y0052282D02*
X0353441Y0052282D01*
X0353441Y0051684D02*
X0363979Y0051684D01*
X0363979Y0051085D02*
X0353441Y0051085D01*
X0353441Y0050487D02*
X0364075Y0050487D01*
X0364236Y0049888D02*
X0353441Y0049888D01*
X0353441Y0049290D02*
X0364396Y0049290D01*
X0364556Y0048691D02*
X0353256Y0048691D01*
X0352658Y0048093D02*
X0364765Y0048093D01*
X0365111Y0047494D02*
X0352059Y0047494D01*
X0351461Y0046896D02*
X0365456Y0046896D01*
X0365802Y0046297D02*
X0350862Y0046297D01*
X0350264Y0045699D02*
X0366242Y0045699D01*
X0366841Y0045100D02*
X0349665Y0045100D01*
X0349066Y0044502D02*
X0367439Y0044502D01*
X0380930Y0044502D02*
X0396750Y0044502D01*
X0396750Y0045100D02*
X0381529Y0045100D01*
X0382127Y0045699D02*
X0396750Y0045699D01*
X0396750Y0046297D02*
X0382567Y0046297D01*
X0382913Y0046896D02*
X0396750Y0046896D01*
X0396750Y0047494D02*
X0383258Y0047494D01*
X0383604Y0048093D02*
X0396750Y0048093D01*
X0396750Y0048691D02*
X0383813Y0048691D01*
X0383973Y0049290D02*
X0396750Y0049290D01*
X0396750Y0049888D02*
X0384134Y0049888D01*
X0384294Y0050487D02*
X0396750Y0050487D01*
X0396750Y0051085D02*
X0384390Y0051085D01*
X0384390Y0051684D02*
X0396750Y0051684D01*
X0396750Y0052282D02*
X0384390Y0052282D01*
X0384390Y0052881D02*
X0396750Y0052881D01*
X0396750Y0053479D02*
X0384390Y0053479D01*
X0384244Y0054078D02*
X0396750Y0054078D01*
X0396750Y0054676D02*
X0384084Y0054676D01*
X0383923Y0055275D02*
X0396750Y0055275D01*
X0396750Y0055873D02*
X0383763Y0055873D01*
X0383496Y0056472D02*
X0396750Y0056472D01*
X0396750Y0057070D02*
X0383151Y0057070D01*
X0382805Y0057669D02*
X0396750Y0057669D01*
X0396750Y0058268D02*
X0382460Y0058268D01*
X0381940Y0058866D02*
X0396750Y0058866D01*
X0396750Y0059465D02*
X0381342Y0059465D01*
X0380743Y0060063D02*
X0396750Y0060063D01*
X0396750Y0060662D02*
X0379921Y0060662D01*
X0378884Y0061260D02*
X0396750Y0061260D01*
X0396750Y0061859D02*
X0377528Y0061859D01*
X0368449Y0060662D02*
X0297528Y0060662D01*
X0297528Y0061260D02*
X0341564Y0061260D01*
X0340966Y0061859D02*
X0297528Y0061859D01*
X0297528Y0062457D02*
X0340367Y0062457D01*
X0339769Y0063056D02*
X0296952Y0063056D01*
X0297528Y0062480D02*
X0295356Y0064652D01*
X0292285Y0064652D01*
X0290113Y0062480D01*
X0290113Y0059409D01*
X0292285Y0057238D01*
X0295356Y0057238D01*
X0297528Y0059409D01*
X0297528Y0062480D01*
X0296354Y0063654D02*
X0339170Y0063654D01*
X0338572Y0064253D02*
X0295755Y0064253D01*
X0291886Y0064253D02*
X0283895Y0064253D01*
X0283496Y0064652D02*
X0280425Y0064652D01*
X0278253Y0062480D01*
X0278253Y0059409D01*
X0280425Y0057238D01*
X0283496Y0057238D01*
X0285667Y0059409D01*
X0285667Y0062480D01*
X0283496Y0064652D01*
X0284494Y0063654D02*
X0291287Y0063654D01*
X0290689Y0063056D02*
X0285092Y0063056D01*
X0285667Y0062457D02*
X0290113Y0062457D01*
X0290113Y0061859D02*
X0285667Y0061859D01*
X0285667Y0061260D02*
X0290113Y0061260D01*
X0290113Y0060662D02*
X0285667Y0060662D01*
X0285667Y0060063D02*
X0290113Y0060063D01*
X0290113Y0059465D02*
X0285667Y0059465D01*
X0285124Y0058866D02*
X0290657Y0058866D01*
X0291255Y0058268D02*
X0284525Y0058268D01*
X0283927Y0057669D02*
X0291854Y0057669D01*
X0295787Y0057669D02*
X0339615Y0057669D01*
X0339017Y0057070D02*
X0128057Y0057070D01*
X0128057Y0056472D02*
X0338418Y0056472D01*
X0337820Y0055873D02*
X0128057Y0055873D01*
X0128057Y0055275D02*
X0337448Y0055275D01*
X0337448Y0054676D02*
X0128057Y0054676D01*
X0128057Y0054078D02*
X0337448Y0054078D01*
X0337448Y0053479D02*
X0128057Y0053479D01*
X0128057Y0052881D02*
X0337448Y0052881D01*
X0337448Y0052282D02*
X0128057Y0052282D01*
X0128057Y0051684D02*
X0337448Y0051684D01*
X0337448Y0051085D02*
X0128436Y0051085D01*
X0128751Y0050487D02*
X0337448Y0050487D01*
X0337448Y0049888D02*
X0128946Y0049888D01*
X0128946Y0049290D02*
X0337448Y0049290D01*
X0337633Y0048691D02*
X0128825Y0048691D01*
X0128577Y0048093D02*
X0338231Y0048093D01*
X0338830Y0047494D02*
X0128016Y0047494D01*
X0124684Y0047494D02*
X0080757Y0047494D01*
X0080757Y0046896D02*
X0339428Y0046896D01*
X0340027Y0046297D02*
X0080757Y0046297D01*
X0080757Y0045699D02*
X0340625Y0045699D01*
X0341224Y0045100D02*
X0080757Y0045100D01*
X0080757Y0044502D02*
X0341822Y0044502D01*
X0340443Y0037480D02*
X0336506Y0033543D01*
X0256411Y0033543D01*
X0279994Y0057669D02*
X0128057Y0057669D01*
X0128057Y0058268D02*
X0279395Y0058268D01*
X0278796Y0058866D02*
X0128057Y0058866D01*
X0128057Y0059465D02*
X0278253Y0059465D01*
X0278253Y0060063D02*
X0128057Y0060063D01*
X0128057Y0060662D02*
X0278253Y0060662D01*
X0278253Y0061260D02*
X0128057Y0061260D01*
X0128057Y0061859D02*
X0278253Y0061859D01*
X0278253Y0062457D02*
X0128057Y0062457D01*
X0128057Y0063056D02*
X0278828Y0063056D01*
X0279427Y0063654D02*
X0128057Y0063654D01*
X0128057Y0064253D02*
X0280025Y0064253D01*
X0274993Y0069400D02*
X0273950Y0068357D01*
X0272587Y0067793D01*
X0271113Y0067793D01*
X0269750Y0068357D01*
X0268707Y0069400D01*
X0268143Y0070763D01*
X0268143Y0072237D01*
X0268707Y0073600D01*
X0269750Y0074643D01*
X0271113Y0075207D01*
X0272587Y0075207D01*
X0273950Y0074643D01*
X0274993Y0073600D01*
X0275557Y0072237D01*
X0275557Y0070763D01*
X0274993Y0069400D01*
X0275092Y0069639D02*
X0337448Y0069639D01*
X0337448Y0069041D02*
X0274633Y0069041D01*
X0274035Y0068442D02*
X0337448Y0068442D01*
X0337448Y0067844D02*
X0272710Y0067844D01*
X0270990Y0067844D02*
X0265436Y0067844D01*
X0265386Y0067793D02*
X0267557Y0069964D01*
X0267557Y0073036D01*
X0265386Y0075207D01*
X0262314Y0075207D01*
X0260143Y0073036D01*
X0260143Y0069964D01*
X0262314Y0067793D01*
X0265386Y0067793D01*
X0266035Y0068442D02*
X0269665Y0068442D01*
X0269067Y0069041D02*
X0266633Y0069041D01*
X0267232Y0069639D02*
X0268608Y0069639D01*
X0268360Y0070238D02*
X0267557Y0070238D01*
X0267557Y0070836D02*
X0268143Y0070836D01*
X0268143Y0071435D02*
X0267557Y0071435D01*
X0267557Y0072033D02*
X0268143Y0072033D01*
X0268306Y0072632D02*
X0267557Y0072632D01*
X0267362Y0073230D02*
X0268554Y0073230D01*
X0268936Y0073829D02*
X0266764Y0073829D01*
X0266165Y0074427D02*
X0269535Y0074427D01*
X0270675Y0075026D02*
X0265567Y0075026D01*
X0262133Y0075026D02*
X0235183Y0075026D01*
X0235183Y0075624D02*
X0341071Y0075624D01*
X0341669Y0076223D02*
X0235183Y0076223D01*
X0235183Y0074427D02*
X0261535Y0074427D01*
X0260936Y0073829D02*
X0235183Y0073829D01*
X0235183Y0073230D02*
X0260338Y0073230D01*
X0260143Y0072632D02*
X0235183Y0072632D01*
X0235183Y0072033D02*
X0260143Y0072033D01*
X0260143Y0071435D02*
X0235183Y0071435D01*
X0235183Y0070836D02*
X0260143Y0070836D01*
X0260143Y0070238D02*
X0235183Y0070238D01*
X0235183Y0069639D02*
X0260468Y0069639D01*
X0261067Y0069041D02*
X0235183Y0069041D01*
X0235183Y0068442D02*
X0261665Y0068442D01*
X0262264Y0067844D02*
X0235183Y0067844D01*
X0235183Y0067245D02*
X0337448Y0067245D01*
X0337448Y0066647D02*
X0234671Y0066647D01*
X0217463Y0086996D02*
X0192914Y0086996D01*
X0192753Y0086836D02*
X0193402Y0087484D01*
X0193402Y0104150D01*
X0192753Y0104798D01*
X0176088Y0104798D01*
X0175440Y0104150D01*
X0175440Y0087484D01*
X0176088Y0086836D01*
X0192753Y0086836D01*
X0193402Y0087595D02*
X0217221Y0087595D01*
X0217221Y0088193D02*
X0193402Y0088193D01*
X0193402Y0088792D02*
X0217221Y0088792D01*
X0217221Y0089390D02*
X0193402Y0089390D01*
X0193402Y0089989D02*
X0217221Y0089989D01*
X0217221Y0090587D02*
X0193402Y0090587D01*
X0193402Y0091186D02*
X0217221Y0091186D01*
X0217221Y0091784D02*
X0193402Y0091784D01*
X0193402Y0092383D02*
X0217221Y0092383D01*
X0217221Y0092981D02*
X0193402Y0092981D01*
X0193402Y0093580D02*
X0217221Y0093580D01*
X0217221Y0094178D02*
X0193402Y0094178D01*
X0193402Y0094777D02*
X0217221Y0094777D01*
X0217221Y0095375D02*
X0193402Y0095375D01*
X0193402Y0095974D02*
X0217221Y0095974D01*
X0217221Y0096572D02*
X0193402Y0096572D01*
X0193402Y0097171D02*
X0217221Y0097171D01*
X0217221Y0097769D02*
X0193402Y0097769D01*
X0193402Y0098368D02*
X0217221Y0098368D01*
X0217221Y0098966D02*
X0193402Y0098966D01*
X0193402Y0099565D02*
X0217221Y0099565D01*
X0217221Y0100163D02*
X0193402Y0100163D01*
X0193402Y0100762D02*
X0217221Y0100762D01*
X0217221Y0101360D02*
X0193402Y0101360D01*
X0193402Y0101959D02*
X0217221Y0101959D01*
X0217221Y0102557D02*
X0193402Y0102557D01*
X0193402Y0103156D02*
X0217221Y0103156D01*
X0217221Y0103754D02*
X0193402Y0103754D01*
X0193199Y0104353D02*
X0217671Y0104353D01*
X0235183Y0092383D02*
X0341329Y0092383D01*
X0341927Y0092981D02*
X0262079Y0092981D01*
X0262645Y0091784D02*
X0280195Y0091784D01*
X0279596Y0091186D02*
X0263887Y0091186D01*
X0264485Y0090587D02*
X0278998Y0090587D01*
X0278399Y0089989D02*
X0265084Y0089989D01*
X0265388Y0089390D02*
X0278253Y0089390D01*
X0278253Y0088792D02*
X0265636Y0088792D01*
X0265884Y0088193D02*
X0278253Y0088193D01*
X0278253Y0087595D02*
X0265957Y0087595D01*
X0265957Y0086996D02*
X0278253Y0086996D01*
X0278627Y0086398D02*
X0265957Y0086398D01*
X0265880Y0085799D02*
X0279226Y0085799D01*
X0279824Y0085201D02*
X0265632Y0085201D01*
X0265385Y0084602D02*
X0280375Y0084602D01*
X0279776Y0084003D02*
X0265076Y0084003D01*
X0264477Y0083405D02*
X0279178Y0083405D01*
X0278579Y0082806D02*
X0263879Y0082806D01*
X0262626Y0082208D02*
X0278253Y0082208D01*
X0283546Y0084602D02*
X0292234Y0084602D01*
X0292234Y0084601D02*
X0290113Y0082480D01*
X0290113Y0079409D01*
X0292285Y0077238D01*
X0295356Y0077238D01*
X0297528Y0079409D01*
X0297528Y0082480D01*
X0295407Y0084601D01*
X0297528Y0086722D01*
X0297528Y0089793D01*
X0295356Y0091965D01*
X0292285Y0091965D01*
X0290113Y0089793D01*
X0290113Y0086722D01*
X0292234Y0084601D01*
X0291636Y0084003D02*
X0284144Y0084003D01*
X0284743Y0083405D02*
X0291038Y0083405D01*
X0290439Y0082806D02*
X0285341Y0082806D01*
X0285667Y0082208D02*
X0290113Y0082208D01*
X0290113Y0081609D02*
X0285667Y0081609D01*
X0285667Y0081011D02*
X0290113Y0081011D01*
X0290113Y0080412D02*
X0285667Y0080412D01*
X0285667Y0079814D02*
X0290113Y0079814D01*
X0290307Y0079215D02*
X0285473Y0079215D01*
X0284875Y0078617D02*
X0290906Y0078617D01*
X0291504Y0078018D02*
X0284276Y0078018D01*
X0283678Y0077420D02*
X0292103Y0077420D01*
X0295538Y0077420D02*
X0341904Y0077420D01*
X0341306Y0078018D02*
X0296137Y0078018D01*
X0296735Y0078617D02*
X0340707Y0078617D01*
X0340109Y0079215D02*
X0297334Y0079215D01*
X0297528Y0079814D02*
X0339510Y0079814D01*
X0338912Y0080412D02*
X0297528Y0080412D01*
X0297528Y0081011D02*
X0338313Y0081011D01*
X0337715Y0081609D02*
X0297528Y0081609D01*
X0297528Y0082208D02*
X0337448Y0082208D01*
X0337448Y0082806D02*
X0297201Y0082806D01*
X0296603Y0083405D02*
X0337448Y0083405D01*
X0337448Y0084003D02*
X0296004Y0084003D01*
X0295407Y0084602D02*
X0337448Y0084602D01*
X0337448Y0085201D02*
X0296006Y0085201D01*
X0296604Y0085799D02*
X0337448Y0085799D01*
X0337448Y0086398D02*
X0297203Y0086398D01*
X0297528Y0086996D02*
X0337448Y0086996D01*
X0337448Y0087595D02*
X0297528Y0087595D01*
X0297528Y0088193D02*
X0337448Y0088193D01*
X0337738Y0088792D02*
X0297528Y0088792D01*
X0297528Y0089390D02*
X0338336Y0089390D01*
X0338935Y0089989D02*
X0297332Y0089989D01*
X0296734Y0090587D02*
X0339533Y0090587D01*
X0340132Y0091186D02*
X0296135Y0091186D01*
X0295537Y0091784D02*
X0340730Y0091784D01*
X0353279Y0094178D02*
X0367263Y0094178D01*
X0366664Y0094777D02*
X0353441Y0094777D01*
X0353441Y0095375D02*
X0366066Y0095375D01*
X0365700Y0095974D02*
X0353441Y0095974D01*
X0353441Y0096572D02*
X0365354Y0096572D01*
X0365009Y0097171D02*
X0353441Y0097171D01*
X0353441Y0097769D02*
X0364669Y0097769D01*
X0364509Y0098368D02*
X0353441Y0098368D01*
X0353441Y0098966D02*
X0364349Y0098966D01*
X0364188Y0099565D02*
X0353441Y0099565D01*
X0353441Y0100163D02*
X0364028Y0100163D01*
X0363979Y0100762D02*
X0353441Y0100762D01*
X0353441Y0101360D02*
X0363979Y0101360D01*
X0363979Y0101959D02*
X0353441Y0101959D01*
X0353441Y0102557D02*
X0363979Y0102557D01*
X0364012Y0103156D02*
X0353441Y0103156D01*
X0353441Y0103754D02*
X0364173Y0103754D01*
X0364333Y0104353D02*
X0353441Y0104353D01*
X0353441Y0104951D02*
X0364493Y0104951D01*
X0364654Y0105550D02*
X0353441Y0105550D01*
X0353441Y0106148D02*
X0364975Y0106148D01*
X0365321Y0106747D02*
X0353441Y0106747D01*
X0353441Y0107345D02*
X0365666Y0107345D01*
X0366012Y0107944D02*
X0353441Y0107944D01*
X0353441Y0108542D02*
X0366605Y0108542D01*
X0367204Y0109141D02*
X0353338Y0109141D01*
X0352242Y0110937D02*
X0296384Y0110937D01*
X0295786Y0111535D02*
X0351647Y0111535D01*
X0351399Y0112134D02*
X0268888Y0112134D01*
X0268569Y0112453D02*
X0267614Y0112848D01*
X0266582Y0112848D01*
X0265627Y0112453D01*
X0264897Y0111723D01*
X0264871Y0111659D01*
X0255360Y0111659D01*
X0255360Y0112102D01*
X0254965Y0113056D01*
X0254235Y0113787D01*
X0253281Y0114182D01*
X0252248Y0114182D01*
X0251294Y0113787D01*
X0250563Y0113056D01*
X0250168Y0112102D01*
X0250168Y0111069D01*
X0250563Y0110115D01*
X0251294Y0109385D01*
X0252248Y0108990D01*
X0253281Y0108990D01*
X0253344Y0109016D01*
X0253515Y0108845D01*
X0264871Y0108845D01*
X0264897Y0108781D01*
X0265627Y0108051D01*
X0266582Y0107656D01*
X0267614Y0107656D01*
X0268569Y0108051D01*
X0269299Y0108781D01*
X0269694Y0109736D01*
X0269694Y0110768D01*
X0269299Y0111723D01*
X0268569Y0112453D01*
X0267894Y0112732D02*
X0351254Y0112732D01*
X0351254Y0113331D02*
X0254691Y0113331D01*
X0255099Y0112732D02*
X0266302Y0112732D01*
X0265308Y0112134D02*
X0255347Y0112134D01*
X0254098Y0110252D02*
X0252764Y0111586D01*
X0254098Y0110252D02*
X0267098Y0110252D01*
X0269694Y0110338D02*
X0278749Y0110338D01*
X0278253Y0109843D02*
X0278253Y0106772D01*
X0280425Y0104600D01*
X0283496Y0104600D01*
X0285667Y0106772D01*
X0285667Y0109843D01*
X0283496Y0112014D01*
X0280425Y0112014D01*
X0278253Y0109843D01*
X0278253Y0109739D02*
X0269694Y0109739D01*
X0269448Y0109141D02*
X0278253Y0109141D01*
X0278253Y0108542D02*
X0269060Y0108542D01*
X0268310Y0107944D02*
X0278253Y0107944D01*
X0278253Y0107345D02*
X0119919Y0107345D01*
X0120517Y0106747D02*
X0278278Y0106747D01*
X0278876Y0106148D02*
X0121116Y0106148D01*
X0121714Y0105550D02*
X0279475Y0105550D01*
X0280073Y0104951D02*
X0122313Y0104951D01*
X0122911Y0104353D02*
X0134305Y0104353D01*
X0134101Y0104150D02*
X0134101Y0087484D01*
X0134750Y0086836D01*
X0151415Y0086836D01*
X0152063Y0087484D01*
X0152063Y0104150D01*
X0151415Y0104798D01*
X0134750Y0104798D01*
X0134101Y0104150D01*
X0134101Y0103754D02*
X0123510Y0103754D01*
X0124108Y0103156D02*
X0134101Y0103156D01*
X0134101Y0102557D02*
X0124707Y0102557D01*
X0125305Y0101959D02*
X0134101Y0101959D01*
X0134101Y0101360D02*
X0125904Y0101360D01*
X0126502Y0100762D02*
X0134101Y0100762D01*
X0134101Y0100163D02*
X0127101Y0100163D01*
X0127699Y0099565D02*
X0134101Y0099565D01*
X0134101Y0098966D02*
X0128057Y0098966D01*
X0128057Y0098368D02*
X0134101Y0098368D01*
X0134101Y0097769D02*
X0128057Y0097769D01*
X0128057Y0097171D02*
X0134101Y0097171D01*
X0134101Y0096572D02*
X0128057Y0096572D01*
X0128057Y0095974D02*
X0134101Y0095974D01*
X0134101Y0095375D02*
X0128057Y0095375D01*
X0128057Y0094777D02*
X0134101Y0094777D01*
X0134101Y0094178D02*
X0128057Y0094178D01*
X0128057Y0093580D02*
X0134101Y0093580D01*
X0134101Y0092981D02*
X0128057Y0092981D01*
X0128057Y0092383D02*
X0134101Y0092383D01*
X0134101Y0091784D02*
X0128057Y0091784D01*
X0128057Y0091186D02*
X0134101Y0091186D01*
X0134101Y0090587D02*
X0128057Y0090587D01*
X0128057Y0089989D02*
X0134101Y0089989D01*
X0134101Y0089390D02*
X0128057Y0089390D01*
X0128057Y0088792D02*
X0134101Y0088792D01*
X0134101Y0088193D02*
X0128057Y0088193D01*
X0128057Y0087595D02*
X0134101Y0087595D01*
X0134589Y0086996D02*
X0128057Y0086996D01*
X0124643Y0086996D02*
X0111270Y0086996D01*
X0111709Y0087595D02*
X0124643Y0087595D01*
X0124643Y0088193D02*
X0111709Y0088193D01*
X0111709Y0088792D02*
X0124643Y0088792D01*
X0124643Y0089390D02*
X0111709Y0089390D01*
X0111709Y0089989D02*
X0124643Y0089989D01*
X0124643Y0090587D02*
X0111709Y0090587D01*
X0111709Y0091186D02*
X0124643Y0091186D01*
X0124643Y0091784D02*
X0111709Y0091784D01*
X0111709Y0092383D02*
X0124643Y0092383D01*
X0124643Y0092981D02*
X0111709Y0092981D01*
X0111709Y0093580D02*
X0124643Y0093580D01*
X0124643Y0094178D02*
X0111709Y0094178D01*
X0111709Y0094777D02*
X0124643Y0094777D01*
X0124643Y0095375D02*
X0111709Y0095375D01*
X0111709Y0095974D02*
X0124643Y0095974D01*
X0124643Y0096572D02*
X0111709Y0096572D01*
X0111709Y0097171D02*
X0124643Y0097171D01*
X0124643Y0097769D02*
X0111709Y0097769D01*
X0111709Y0098368D02*
X0124068Y0098368D01*
X0123470Y0098966D02*
X0111709Y0098966D01*
X0111709Y0099565D02*
X0122871Y0099565D01*
X0122273Y0100163D02*
X0111709Y0100163D01*
X0111709Y0100762D02*
X0121674Y0100762D01*
X0121075Y0101360D02*
X0111709Y0101360D01*
X0111709Y0101959D02*
X0120477Y0101959D01*
X0119878Y0102557D02*
X0111709Y0102557D01*
X0111709Y0103156D02*
X0119280Y0103156D01*
X0118681Y0103754D02*
X0111709Y0103754D01*
X0117525Y0109739D02*
X0250939Y0109739D01*
X0250471Y0110338D02*
X0116926Y0110338D01*
X0116328Y0110937D02*
X0250223Y0110937D01*
X0250168Y0111535D02*
X0115729Y0111535D01*
X0115131Y0112134D02*
X0250181Y0112134D01*
X0250429Y0112732D02*
X0114532Y0112732D01*
X0113934Y0113331D02*
X0250838Y0113331D01*
X0251638Y0113929D02*
X0074637Y0113929D01*
X0074039Y0114528D02*
X0351706Y0114528D01*
X0351425Y0113929D02*
X0253891Y0113929D01*
X0251883Y0109141D02*
X0118123Y0109141D01*
X0118722Y0108542D02*
X0265136Y0108542D01*
X0265886Y0107944D02*
X0119320Y0107944D01*
X0124643Y0086398D02*
X0030903Y0086398D01*
X0032714Y0085799D02*
X0124643Y0085799D01*
X0124643Y0066048D02*
X0080757Y0066048D01*
X0080757Y0065450D02*
X0124643Y0065450D01*
X0124643Y0064851D02*
X0080757Y0064851D01*
X0080757Y0064253D02*
X0124643Y0064253D01*
X0124643Y0063654D02*
X0080757Y0063654D01*
X0080757Y0063056D02*
X0124643Y0063056D01*
X0124643Y0062457D02*
X0080757Y0062457D01*
X0080757Y0061859D02*
X0124643Y0061859D01*
X0124643Y0061260D02*
X0080757Y0061260D01*
X0080757Y0060662D02*
X0124643Y0060662D01*
X0124643Y0060063D02*
X0080757Y0060063D01*
X0080757Y0059465D02*
X0124643Y0059465D01*
X0124643Y0058866D02*
X0080757Y0058866D01*
X0080757Y0058268D02*
X0124643Y0058268D01*
X0124643Y0057669D02*
X0080757Y0057669D01*
X0080757Y0057070D02*
X0124643Y0057070D01*
X0124643Y0056472D02*
X0080757Y0056472D01*
X0080757Y0055873D02*
X0124643Y0055873D01*
X0124643Y0055275D02*
X0080757Y0055275D01*
X0080757Y0054676D02*
X0124643Y0054676D01*
X0124643Y0054078D02*
X0080757Y0054078D01*
X0080757Y0053479D02*
X0124643Y0053479D01*
X0124643Y0052881D02*
X0080757Y0052881D01*
X0080757Y0052282D02*
X0124643Y0052282D01*
X0124643Y0051684D02*
X0080757Y0051684D01*
X0080757Y0051085D02*
X0124264Y0051085D01*
X0123949Y0050487D02*
X0080757Y0050487D01*
X0080757Y0049888D02*
X0123754Y0049888D01*
X0123754Y0049290D02*
X0080757Y0049290D01*
X0080757Y0048691D02*
X0123875Y0048691D01*
X0124123Y0048093D02*
X0080757Y0048093D01*
X0078168Y0041464D02*
X0078122Y0041417D01*
X0085996Y0039449D02*
X0067295Y0039449D01*
X0064342Y0036496D01*
X0064342Y0015827D01*
X0065326Y0014843D01*
X0087964Y0014843D01*
X0088948Y0015827D01*
X0088948Y0036496D01*
X0085996Y0039449D01*
X0086329Y0039115D02*
X0066961Y0039115D01*
X0066363Y0038517D02*
X0086928Y0038517D01*
X0087526Y0037918D02*
X0065764Y0037918D01*
X0065166Y0037320D02*
X0088125Y0037320D01*
X0088723Y0036721D02*
X0064567Y0036721D01*
X0064342Y0036123D02*
X0088948Y0036123D01*
X0088948Y0035524D02*
X0064342Y0035524D01*
X0064342Y0034926D02*
X0088948Y0034926D01*
X0088948Y0034327D02*
X0064342Y0034327D01*
X0064342Y0033729D02*
X0088948Y0033729D01*
X0088948Y0033130D02*
X0064342Y0033130D01*
X0064342Y0032532D02*
X0088948Y0032532D01*
X0088948Y0031933D02*
X0064342Y0031933D01*
X0064342Y0031334D02*
X0088948Y0031334D01*
X0088948Y0030736D02*
X0064342Y0030736D01*
X0064342Y0030137D02*
X0088948Y0030137D01*
X0088948Y0029539D02*
X0064342Y0029539D01*
X0064342Y0028940D02*
X0088948Y0028940D01*
X0088948Y0028342D02*
X0064342Y0028342D01*
X0064342Y0027743D02*
X0088948Y0027743D01*
X0088948Y0027145D02*
X0064342Y0027145D01*
X0064342Y0026546D02*
X0088948Y0026546D01*
X0088948Y0025948D02*
X0064342Y0025948D01*
X0064342Y0025349D02*
X0088948Y0025349D01*
X0088948Y0024751D02*
X0064342Y0024751D01*
X0064342Y0024152D02*
X0088948Y0024152D01*
X0088948Y0023554D02*
X0064342Y0023554D01*
X0064342Y0022955D02*
X0088948Y0022955D01*
X0088948Y0022357D02*
X0064342Y0022357D01*
X0064342Y0021758D02*
X0088948Y0021758D01*
X0088948Y0021160D02*
X0064342Y0021160D01*
X0064342Y0020561D02*
X0088948Y0020561D01*
X0088948Y0019963D02*
X0064342Y0019963D01*
X0064342Y0019364D02*
X0088948Y0019364D01*
X0088948Y0018766D02*
X0064342Y0018766D01*
X0064342Y0018167D02*
X0088948Y0018167D01*
X0088948Y0017569D02*
X0064342Y0017569D01*
X0064342Y0016970D02*
X0088948Y0016970D01*
X0088948Y0016372D02*
X0064342Y0016372D01*
X0064396Y0015773D02*
X0088895Y0015773D01*
X0088296Y0015175D02*
X0064994Y0015175D01*
X0093870Y0015827D02*
X0093870Y0036496D01*
X0096822Y0039449D01*
X0115523Y0039449D01*
X0118476Y0036496D01*
X0118476Y0015827D01*
X0117492Y0014843D01*
X0094854Y0014843D01*
X0093870Y0015827D01*
X0093923Y0015773D02*
X0118422Y0015773D01*
X0118476Y0016372D02*
X0093870Y0016372D01*
X0093870Y0016970D02*
X0118476Y0016970D01*
X0118476Y0017569D02*
X0093870Y0017569D01*
X0093870Y0018167D02*
X0118476Y0018167D01*
X0118476Y0018766D02*
X0093870Y0018766D01*
X0093870Y0019364D02*
X0118476Y0019364D01*
X0118476Y0019963D02*
X0093870Y0019963D01*
X0093870Y0020561D02*
X0118476Y0020561D01*
X0118476Y0021160D02*
X0093870Y0021160D01*
X0093870Y0021758D02*
X0118476Y0021758D01*
X0118476Y0022357D02*
X0093870Y0022357D01*
X0093870Y0022955D02*
X0118476Y0022955D01*
X0118476Y0023554D02*
X0093870Y0023554D01*
X0093870Y0024152D02*
X0118476Y0024152D01*
X0118476Y0024751D02*
X0093870Y0024751D01*
X0093870Y0025349D02*
X0118476Y0025349D01*
X0118476Y0025948D02*
X0093870Y0025948D01*
X0093870Y0026546D02*
X0118476Y0026546D01*
X0118476Y0027145D02*
X0093870Y0027145D01*
X0093870Y0027743D02*
X0118476Y0027743D01*
X0118476Y0028342D02*
X0093870Y0028342D01*
X0093870Y0028940D02*
X0118476Y0028940D01*
X0118476Y0029539D02*
X0093870Y0029539D01*
X0093870Y0030137D02*
X0118476Y0030137D01*
X0118476Y0030736D02*
X0093870Y0030736D01*
X0093870Y0031334D02*
X0118476Y0031334D01*
X0118476Y0031933D02*
X0093870Y0031933D01*
X0093870Y0032532D02*
X0118476Y0032532D01*
X0118476Y0033130D02*
X0093870Y0033130D01*
X0093870Y0033729D02*
X0118476Y0033729D01*
X0118476Y0034327D02*
X0093870Y0034327D01*
X0093870Y0034926D02*
X0118476Y0034926D01*
X0118476Y0035524D02*
X0093870Y0035524D01*
X0093870Y0036123D02*
X0118476Y0036123D01*
X0118251Y0036721D02*
X0094095Y0036721D01*
X0094693Y0037320D02*
X0117652Y0037320D01*
X0117054Y0037918D02*
X0095292Y0037918D01*
X0095890Y0038517D02*
X0116455Y0038517D01*
X0115857Y0039115D02*
X0096489Y0039115D01*
X0106411Y0033289D02*
X0106411Y0017500D01*
X0117824Y0015175D02*
X0094522Y0015175D01*
X0128057Y0064851D02*
X0337973Y0064851D01*
X0337448Y0065450D02*
X0128057Y0065450D01*
X0128057Y0066048D02*
X0337448Y0066048D01*
X0337448Y0070238D02*
X0275340Y0070238D01*
X0275557Y0070836D02*
X0337448Y0070836D01*
X0337448Y0071435D02*
X0275557Y0071435D01*
X0275557Y0072033D02*
X0337480Y0072033D01*
X0338078Y0072632D02*
X0275394Y0072632D01*
X0275146Y0073230D02*
X0338677Y0073230D01*
X0339275Y0073829D02*
X0274764Y0073829D01*
X0274165Y0074427D02*
X0339874Y0074427D01*
X0340472Y0075026D02*
X0273025Y0075026D01*
X0284096Y0085201D02*
X0291635Y0085201D01*
X0291037Y0085799D02*
X0284695Y0085799D01*
X0285293Y0086398D02*
X0290438Y0086398D01*
X0290113Y0086996D02*
X0285667Y0086996D01*
X0285667Y0087595D02*
X0290113Y0087595D01*
X0290113Y0088193D02*
X0285667Y0088193D01*
X0285667Y0088792D02*
X0290113Y0088792D01*
X0290113Y0089390D02*
X0285667Y0089390D01*
X0285521Y0089989D02*
X0290309Y0089989D01*
X0290907Y0090587D02*
X0284923Y0090587D01*
X0284324Y0091186D02*
X0291506Y0091186D01*
X0292104Y0091784D02*
X0283726Y0091784D01*
X0283847Y0104951D02*
X0291884Y0104951D01*
X0292285Y0104551D02*
X0295356Y0104551D01*
X0297528Y0106722D01*
X0297528Y0109793D01*
X0295356Y0111965D01*
X0292285Y0111965D01*
X0290113Y0109793D01*
X0290113Y0106722D01*
X0292285Y0104551D01*
X0291286Y0105550D02*
X0284446Y0105550D01*
X0285044Y0106148D02*
X0290687Y0106148D01*
X0290113Y0106747D02*
X0285643Y0106747D01*
X0285667Y0107345D02*
X0290113Y0107345D01*
X0290113Y0107944D02*
X0285667Y0107944D01*
X0285667Y0108542D02*
X0290113Y0108542D01*
X0290113Y0109141D02*
X0285667Y0109141D01*
X0285667Y0109739D02*
X0290113Y0109739D01*
X0290658Y0110338D02*
X0285172Y0110338D01*
X0284573Y0110937D02*
X0291256Y0110937D01*
X0291855Y0111535D02*
X0283975Y0111535D01*
X0281960Y0108307D02*
X0281960Y0108110D01*
X0279347Y0110937D02*
X0269624Y0110937D01*
X0269377Y0111535D02*
X0279946Y0111535D01*
X0296983Y0110338D02*
X0368754Y0110338D01*
X0367802Y0109739D02*
X0297528Y0109739D01*
X0297528Y0109141D02*
X0337551Y0109141D01*
X0337448Y0108542D02*
X0297528Y0108542D01*
X0297528Y0107944D02*
X0337448Y0107944D01*
X0337448Y0107345D02*
X0297528Y0107345D01*
X0297528Y0106747D02*
X0337448Y0106747D01*
X0337448Y0106148D02*
X0296954Y0106148D01*
X0296355Y0105550D02*
X0337448Y0105550D01*
X0337448Y0104951D02*
X0295757Y0104951D01*
X0338170Y0136672D02*
X0234618Y0136672D01*
X0235183Y0137271D02*
X0338768Y0137271D01*
X0339367Y0137870D02*
X0235183Y0137870D01*
X0235183Y0138468D02*
X0339965Y0138468D01*
X0340564Y0139067D02*
X0235183Y0139067D01*
X0235183Y0139665D02*
X0341163Y0139665D01*
X0352305Y0115126D02*
X0073440Y0115126D01*
X0065659Y0122907D02*
X0371070Y0122907D01*
X0369592Y0123505D02*
X0065147Y0123505D01*
X0051678Y0139665D02*
X0005950Y0139665D01*
X0005950Y0139067D02*
X0026540Y0139067D01*
X0024395Y0138468D02*
X0005950Y0138468D01*
X0005950Y0137870D02*
X0023358Y0137870D01*
X0022321Y0137271D02*
X0005950Y0137271D01*
X0005950Y0136672D02*
X0021648Y0136672D01*
X0021049Y0136074D02*
X0005950Y0136074D01*
X0005950Y0135475D02*
X0020451Y0135475D01*
X0020017Y0134877D02*
X0005950Y0134877D01*
X0005950Y0134278D02*
X0019672Y0134278D01*
X0019326Y0133680D02*
X0005950Y0133680D01*
X0005950Y0133081D02*
X0018981Y0133081D01*
X0018777Y0132483D02*
X0005950Y0132483D01*
X0005950Y0131884D02*
X0018617Y0131884D01*
X0018456Y0131286D02*
X0005950Y0131286D01*
X0005950Y0130687D02*
X0018296Y0130687D01*
X0018204Y0130089D02*
X0005950Y0130089D01*
X0005950Y0129490D02*
X0018204Y0129490D01*
X0018204Y0128892D02*
X0005950Y0128892D01*
X0005950Y0128293D02*
X0018204Y0128293D01*
X0018204Y0127695D02*
X0005950Y0127695D01*
X0005950Y0127096D02*
X0018355Y0127096D01*
X0018515Y0126498D02*
X0005950Y0126498D01*
X0005950Y0125899D02*
X0018676Y0125899D01*
X0018836Y0125301D02*
X0005950Y0125301D01*
X0005950Y0124702D02*
X0019108Y0124702D01*
X0019454Y0124104D02*
X0005950Y0124104D01*
X0005950Y0123505D02*
X0019799Y0123505D01*
X0020145Y0122907D02*
X0005950Y0122907D01*
X0005950Y0122308D02*
X0020671Y0122308D01*
X0021269Y0121710D02*
X0005950Y0121710D01*
X0005950Y0121111D02*
X0021868Y0121111D01*
X0022703Y0120513D02*
X0005950Y0120513D01*
X0005950Y0119914D02*
X0023739Y0119914D01*
X0025129Y0119316D02*
X0005950Y0119316D01*
X0005950Y0140264D02*
X0051079Y0140264D01*
X0050481Y0140862D02*
X0005950Y0140862D01*
X0005950Y0141461D02*
X0049882Y0141461D01*
X0049284Y0142059D02*
X0005950Y0142059D01*
X0005950Y0142658D02*
X0049153Y0142658D01*
X0049153Y0143256D02*
X0005950Y0143256D01*
X0005950Y0143855D02*
X0049153Y0143855D01*
X0049153Y0144453D02*
X0005950Y0144453D01*
X0005950Y0145052D02*
X0049153Y0145052D01*
X0049153Y0145650D02*
X0005950Y0145650D01*
X0005950Y0146249D02*
X0049153Y0146249D01*
X0049153Y0146847D02*
X0005950Y0146847D01*
X0005950Y0147446D02*
X0049153Y0147446D01*
X0049153Y0148044D02*
X0005950Y0148044D01*
X0005950Y0148643D02*
X0049153Y0148643D01*
X0049580Y0149241D02*
X0005950Y0149241D01*
X0005950Y0149840D02*
X0050179Y0149840D01*
X0050777Y0150438D02*
X0005950Y0150438D01*
X0005950Y0151037D02*
X0051376Y0151037D01*
X0051974Y0151635D02*
X0005950Y0151635D01*
X0040494Y0114528D02*
X0046206Y0114528D01*
X0045632Y0113929D02*
X0041068Y0113929D01*
X0063622Y0083405D02*
X0075838Y0083405D01*
X0075239Y0082806D02*
X0064163Y0082806D01*
X0064163Y0082208D02*
X0074641Y0082208D01*
X0074042Y0081609D02*
X0064163Y0081609D01*
X0064163Y0081011D02*
X0073444Y0081011D01*
X0072845Y0080412D02*
X0064163Y0080412D01*
X0064163Y0079814D02*
X0072247Y0079814D01*
X0071837Y0079215D02*
X0064163Y0079215D01*
X0064163Y0078617D02*
X0071837Y0078617D01*
X0071837Y0078018D02*
X0064163Y0078018D01*
X0064163Y0077420D02*
X0071837Y0077420D01*
X0071837Y0076821D02*
X0064163Y0076821D01*
X0064163Y0076223D02*
X0071837Y0076223D01*
X0071837Y0075624D02*
X0064163Y0075624D01*
X0064163Y0075026D02*
X0071837Y0075026D01*
X0071837Y0074427D02*
X0064163Y0074427D01*
X0064163Y0073829D02*
X0071837Y0073829D01*
X0072202Y0073230D02*
X0064163Y0073230D01*
X0064163Y0072632D02*
X0072801Y0072632D01*
X0073399Y0072033D02*
X0064163Y0072033D01*
X0064163Y0071435D02*
X0073998Y0071435D01*
X0074596Y0070836D02*
X0064163Y0070836D01*
X0064163Y0070238D02*
X0075195Y0070238D01*
X0075793Y0069639D02*
X0063666Y0069639D01*
X0111545Y0137271D02*
X0134315Y0137271D01*
X0134101Y0137484D02*
X0134750Y0136836D01*
X0151415Y0136836D01*
X0152063Y0137484D01*
X0152063Y0154150D01*
X0151415Y0154798D01*
X0134750Y0154798D01*
X0134101Y0154150D01*
X0134101Y0137484D01*
X0134101Y0137870D02*
X0111709Y0137870D01*
X0111709Y0138468D02*
X0134101Y0138468D01*
X0134101Y0139067D02*
X0111709Y0139067D01*
X0111709Y0139665D02*
X0134101Y0139665D01*
X0134101Y0140264D02*
X0111709Y0140264D01*
X0111709Y0140862D02*
X0134101Y0140862D01*
X0134101Y0141461D02*
X0111709Y0141461D01*
X0111709Y0142059D02*
X0134101Y0142059D01*
X0134101Y0142658D02*
X0111709Y0142658D01*
X0111709Y0143256D02*
X0134101Y0143256D01*
X0134101Y0143855D02*
X0111709Y0143855D01*
X0111709Y0144453D02*
X0134101Y0144453D01*
X0134101Y0145052D02*
X0111709Y0145052D01*
X0111709Y0145650D02*
X0134101Y0145650D01*
X0134101Y0146249D02*
X0111709Y0146249D01*
X0111709Y0146847D02*
X0134101Y0146847D01*
X0134101Y0147446D02*
X0111709Y0147446D01*
X0111709Y0148044D02*
X0134101Y0148044D01*
X0134101Y0148643D02*
X0111709Y0148643D01*
X0111709Y0149241D02*
X0134101Y0149241D01*
X0134101Y0149840D02*
X0111709Y0149840D01*
X0111709Y0150438D02*
X0134101Y0150438D01*
X0134101Y0151037D02*
X0111709Y0151037D01*
X0111709Y0151635D02*
X0134101Y0151635D01*
X0134101Y0152234D02*
X0111709Y0152234D01*
X0111709Y0152832D02*
X0134101Y0152832D01*
X0134101Y0153431D02*
X0111709Y0153431D01*
X0111709Y0154029D02*
X0134101Y0154029D01*
X0134580Y0154628D02*
X0111182Y0154628D01*
X0111283Y0176773D02*
X0134577Y0176773D01*
X0134750Y0176600D02*
X0151415Y0176600D01*
X0152063Y0177248D01*
X0152063Y0193913D01*
X0151415Y0194562D01*
X0134750Y0194562D01*
X0134101Y0193913D01*
X0134101Y0177248D01*
X0134750Y0176600D01*
X0134101Y0177371D02*
X0111709Y0177371D01*
X0111709Y0177970D02*
X0134101Y0177970D01*
X0134101Y0178568D02*
X0111709Y0178568D01*
X0111709Y0179167D02*
X0134101Y0179167D01*
X0134101Y0179765D02*
X0111709Y0179765D01*
X0111709Y0180364D02*
X0134101Y0180364D01*
X0134101Y0180962D02*
X0111709Y0180962D01*
X0111709Y0181561D02*
X0134101Y0181561D01*
X0134101Y0182159D02*
X0111709Y0182159D01*
X0111709Y0182758D02*
X0134101Y0182758D01*
X0134101Y0183356D02*
X0111709Y0183356D01*
X0111709Y0183955D02*
X0134101Y0183955D01*
X0134101Y0184553D02*
X0111709Y0184553D01*
X0111709Y0185152D02*
X0134101Y0185152D01*
X0134101Y0185750D02*
X0111709Y0185750D01*
X0111709Y0186349D02*
X0134101Y0186349D01*
X0134101Y0186947D02*
X0111709Y0186947D01*
X0111709Y0187546D02*
X0134101Y0187546D01*
X0134101Y0188144D02*
X0111709Y0188144D01*
X0111709Y0188743D02*
X0134101Y0188743D01*
X0134101Y0189341D02*
X0111709Y0189341D01*
X0111709Y0189940D02*
X0134101Y0189940D01*
X0134101Y0190539D02*
X0111709Y0190539D01*
X0111709Y0191137D02*
X0134101Y0191137D01*
X0134101Y0191736D02*
X0111709Y0191736D01*
X0111709Y0192334D02*
X0134101Y0192334D01*
X0134101Y0192933D02*
X0111709Y0192933D01*
X0111709Y0193531D02*
X0134101Y0193531D01*
X0134317Y0194130D02*
X0111444Y0194130D01*
X0094012Y0194130D02*
X0065869Y0194130D01*
X0064704Y0193531D02*
X0093747Y0193531D01*
X0097574Y0218962D02*
X0096926Y0219610D01*
X0096926Y0235527D01*
X0097574Y0236176D01*
X0113492Y0236176D01*
X0114140Y0235527D01*
X0114140Y0219610D01*
X0113492Y0218962D01*
X0097574Y0218962D01*
X0097269Y0219267D02*
X0059666Y0219267D01*
X0059936Y0219379D02*
X0060971Y0220414D01*
X0061532Y0221768D01*
X0061532Y0223232D01*
X0060971Y0224586D01*
X0059936Y0225621D01*
X0058582Y0226182D01*
X0057118Y0226182D01*
X0055764Y0225621D01*
X0054729Y0224586D01*
X0054168Y0223232D01*
X0054168Y0221768D01*
X0054729Y0220414D01*
X0055764Y0219379D01*
X0057118Y0218818D01*
X0058582Y0218818D01*
X0059936Y0219379D01*
X0060423Y0219866D02*
X0096926Y0219866D01*
X0096926Y0220464D02*
X0060992Y0220464D01*
X0061240Y0221063D02*
X0096926Y0221063D01*
X0096926Y0221661D02*
X0061488Y0221661D01*
X0061532Y0222260D02*
X0096926Y0222260D01*
X0096926Y0222858D02*
X0061532Y0222858D01*
X0061439Y0223457D02*
X0096926Y0223457D01*
X0096926Y0224055D02*
X0061191Y0224055D01*
X0060903Y0224654D02*
X0096926Y0224654D01*
X0096926Y0225252D02*
X0060305Y0225252D01*
X0059382Y0225851D02*
X0096926Y0225851D01*
X0096926Y0226449D02*
X0005950Y0226449D01*
X0005950Y0225851D02*
X0026318Y0225851D01*
X0025764Y0225621D02*
X0024729Y0224586D01*
X0024168Y0223232D01*
X0024168Y0221768D01*
X0024729Y0220414D01*
X0025764Y0219379D01*
X0027118Y0218818D01*
X0028582Y0218818D01*
X0029936Y0219379D01*
X0030971Y0220414D01*
X0031532Y0221768D01*
X0031532Y0223232D01*
X0030971Y0224586D01*
X0029936Y0225621D01*
X0028582Y0226182D01*
X0027118Y0226182D01*
X0025764Y0225621D01*
X0025395Y0225252D02*
X0005950Y0225252D01*
X0005950Y0224654D02*
X0024797Y0224654D01*
X0024509Y0224055D02*
X0005950Y0224055D01*
X0005950Y0223457D02*
X0024261Y0223457D01*
X0024168Y0222858D02*
X0005950Y0222858D01*
X0005950Y0222260D02*
X0024168Y0222260D01*
X0024212Y0221661D02*
X0005950Y0221661D01*
X0005950Y0221063D02*
X0024460Y0221063D01*
X0024708Y0220464D02*
X0005950Y0220464D01*
X0005950Y0219866D02*
X0025277Y0219866D01*
X0026034Y0219267D02*
X0005950Y0219267D01*
X0005950Y0218669D02*
X0396750Y0218669D01*
X0396750Y0219267D02*
X0388360Y0219267D01*
X0387886Y0218793D02*
X0390057Y0220964D01*
X0390057Y0224036D01*
X0387886Y0226207D01*
X0384814Y0226207D01*
X0382643Y0224036D01*
X0382643Y0220964D01*
X0384814Y0218793D01*
X0387886Y0218793D01*
X0388958Y0219866D02*
X0396750Y0219866D01*
X0396750Y0220464D02*
X0389557Y0220464D01*
X0390057Y0221063D02*
X0396750Y0221063D01*
X0396750Y0221661D02*
X0390057Y0221661D01*
X0390057Y0222260D02*
X0396750Y0222260D01*
X0396750Y0222858D02*
X0390057Y0222858D01*
X0390057Y0223457D02*
X0396750Y0223457D01*
X0396750Y0224055D02*
X0390037Y0224055D01*
X0389439Y0224654D02*
X0396750Y0224654D01*
X0396750Y0225252D02*
X0388840Y0225252D01*
X0388242Y0225851D02*
X0396750Y0225851D01*
X0396750Y0226449D02*
X0377608Y0226449D01*
X0377971Y0226086D02*
X0376936Y0227121D01*
X0375582Y0227682D01*
X0374118Y0227682D01*
X0372764Y0227121D01*
X0371729Y0226086D01*
X0371168Y0224732D01*
X0371168Y0223268D01*
X0371729Y0221914D01*
X0372764Y0220879D01*
X0374118Y0220318D01*
X0375582Y0220318D01*
X0376936Y0220879D01*
X0377971Y0221914D01*
X0378532Y0223268D01*
X0378532Y0224732D01*
X0377971Y0226086D01*
X0378069Y0225851D02*
X0384458Y0225851D01*
X0383860Y0225252D02*
X0378317Y0225252D01*
X0378532Y0224654D02*
X0383261Y0224654D01*
X0382663Y0224055D02*
X0378532Y0224055D01*
X0378532Y0223457D02*
X0382643Y0223457D01*
X0382643Y0222858D02*
X0378362Y0222858D01*
X0378114Y0222260D02*
X0382643Y0222260D01*
X0382643Y0221661D02*
X0377718Y0221661D01*
X0377120Y0221063D02*
X0382643Y0221063D01*
X0383143Y0220464D02*
X0375935Y0220464D01*
X0373765Y0220464D02*
X0345935Y0220464D01*
X0345582Y0220318D02*
X0346936Y0220879D01*
X0347971Y0221914D01*
X0348532Y0223268D01*
X0348532Y0224732D01*
X0347971Y0226086D01*
X0346936Y0227121D01*
X0345582Y0227682D01*
X0344118Y0227682D01*
X0342764Y0227121D01*
X0341729Y0226086D01*
X0341168Y0224732D01*
X0341168Y0223268D01*
X0341729Y0221914D01*
X0342764Y0220879D01*
X0344118Y0220318D01*
X0345582Y0220318D01*
X0347120Y0221063D02*
X0372580Y0221063D01*
X0371982Y0221661D02*
X0347718Y0221661D01*
X0348114Y0222260D02*
X0371586Y0222260D01*
X0371338Y0222858D02*
X0348362Y0222858D01*
X0348532Y0223457D02*
X0371168Y0223457D01*
X0371168Y0224055D02*
X0348532Y0224055D01*
X0348532Y0224654D02*
X0371168Y0224654D01*
X0371383Y0225252D02*
X0348317Y0225252D01*
X0348069Y0225851D02*
X0371631Y0225851D01*
X0372092Y0226449D02*
X0347608Y0226449D01*
X0347009Y0227048D02*
X0372691Y0227048D01*
X0374032Y0227646D02*
X0345668Y0227646D01*
X0344032Y0227646D02*
X0301443Y0227646D01*
X0301443Y0227048D02*
X0342691Y0227048D01*
X0342092Y0226449D02*
X0301443Y0226449D01*
X0301443Y0225851D02*
X0341631Y0225851D01*
X0341383Y0225252D02*
X0301443Y0225252D01*
X0301443Y0224654D02*
X0341168Y0224654D01*
X0341168Y0224055D02*
X0301443Y0224055D01*
X0301443Y0223457D02*
X0341168Y0223457D01*
X0341338Y0222858D02*
X0301443Y0222858D01*
X0301443Y0222260D02*
X0341586Y0222260D01*
X0341982Y0221661D02*
X0301443Y0221661D01*
X0301443Y0221063D02*
X0342580Y0221063D01*
X0343765Y0220464D02*
X0301443Y0220464D01*
X0301443Y0220299D02*
X0301443Y0236216D01*
X0300795Y0236865D01*
X0284878Y0236865D01*
X0284229Y0236216D01*
X0284229Y0220299D01*
X0284878Y0219651D01*
X0300795Y0219651D01*
X0301443Y0220299D01*
X0301010Y0219866D02*
X0383742Y0219866D01*
X0384340Y0219267D02*
X0113797Y0219267D01*
X0114140Y0219866D02*
X0284663Y0219866D01*
X0284229Y0220464D02*
X0114140Y0220464D01*
X0114140Y0221063D02*
X0284229Y0221063D01*
X0284229Y0221661D02*
X0114140Y0221661D01*
X0114140Y0222260D02*
X0284229Y0222260D01*
X0284229Y0222858D02*
X0114140Y0222858D01*
X0114140Y0223457D02*
X0284229Y0223457D01*
X0284229Y0224055D02*
X0114140Y0224055D01*
X0114140Y0224654D02*
X0284229Y0224654D01*
X0284229Y0225252D02*
X0114140Y0225252D01*
X0114140Y0225851D02*
X0284229Y0225851D01*
X0284229Y0226449D02*
X0114140Y0226449D01*
X0114140Y0227048D02*
X0284229Y0227048D01*
X0284229Y0227646D02*
X0114140Y0227646D01*
X0114140Y0228245D02*
X0284229Y0228245D01*
X0284229Y0228843D02*
X0114140Y0228843D01*
X0114140Y0229442D02*
X0284229Y0229442D01*
X0284229Y0230040D02*
X0114140Y0230040D01*
X0114140Y0230639D02*
X0284229Y0230639D01*
X0284229Y0231237D02*
X0114140Y0231237D01*
X0114140Y0231836D02*
X0284229Y0231836D01*
X0284229Y0232434D02*
X0114140Y0232434D01*
X0114140Y0233033D02*
X0284229Y0233033D01*
X0284229Y0233631D02*
X0114140Y0233631D01*
X0114140Y0234230D02*
X0284229Y0234230D01*
X0284229Y0234828D02*
X0114140Y0234828D01*
X0114140Y0235427D02*
X0284229Y0235427D01*
X0284229Y0236025D02*
X0113642Y0236025D01*
X0113492Y0248962D02*
X0114140Y0249610D01*
X0114140Y0265527D01*
X0113492Y0266176D01*
X0097574Y0266176D01*
X0096926Y0265527D01*
X0096926Y0249610D01*
X0097574Y0248962D01*
X0113492Y0248962D01*
X0113722Y0249193D02*
X0150658Y0249193D01*
X0150658Y0249791D02*
X0114140Y0249791D01*
X0114140Y0250390D02*
X0150658Y0250390D01*
X0150658Y0250597D02*
X0150658Y0246974D01*
X0152045Y0243627D01*
X0154607Y0241065D01*
X0157954Y0239678D01*
X0161577Y0239678D01*
X0164924Y0241065D01*
X0167486Y0243627D01*
X0168872Y0246974D01*
X0168872Y0250597D01*
X0167486Y0253944D01*
X0164924Y0256506D01*
X0161577Y0257893D01*
X0157954Y0257893D01*
X0154607Y0256506D01*
X0152045Y0253944D01*
X0150658Y0250597D01*
X0150820Y0250988D02*
X0114140Y0250988D01*
X0114140Y0251587D02*
X0151068Y0251587D01*
X0151316Y0252185D02*
X0114140Y0252185D01*
X0114140Y0252784D02*
X0151564Y0252784D01*
X0151812Y0253382D02*
X0114140Y0253382D01*
X0114140Y0253981D02*
X0152081Y0253981D01*
X0152680Y0254579D02*
X0114140Y0254579D01*
X0114140Y0255178D02*
X0153278Y0255178D01*
X0153877Y0255776D02*
X0114140Y0255776D01*
X0114140Y0256375D02*
X0154475Y0256375D01*
X0155735Y0256973D02*
X0114140Y0256973D01*
X0114140Y0257572D02*
X0157180Y0257572D01*
X0157954Y0261178D02*
X0154607Y0262565D01*
X0152045Y0265127D01*
X0150658Y0268474D01*
X0150658Y0272097D01*
X0152045Y0275444D01*
X0154607Y0278006D01*
X0157954Y0279393D01*
X0161577Y0279393D01*
X0164924Y0278006D01*
X0167486Y0275444D01*
X0168872Y0272097D01*
X0168872Y0268474D01*
X0167486Y0265127D01*
X0164924Y0262565D01*
X0161577Y0261178D01*
X0157954Y0261178D01*
X0156546Y0261761D02*
X0114140Y0261761D01*
X0114140Y0261163D02*
X0284229Y0261163D01*
X0284229Y0261761D02*
X0247187Y0261761D01*
X0245780Y0261178D02*
X0249127Y0262565D01*
X0251689Y0265127D01*
X0253075Y0268474D01*
X0253075Y0272097D01*
X0251689Y0275444D01*
X0249127Y0278006D01*
X0245780Y0279393D01*
X0242157Y0279393D01*
X0238809Y0278006D01*
X0236247Y0275444D01*
X0234861Y0272097D01*
X0234861Y0268474D01*
X0236247Y0265127D01*
X0238809Y0262565D01*
X0242157Y0261178D01*
X0245780Y0261178D01*
X0248632Y0262360D02*
X0284229Y0262360D01*
X0284229Y0262958D02*
X0249520Y0262958D01*
X0250119Y0263557D02*
X0284229Y0263557D01*
X0284229Y0264155D02*
X0250717Y0264155D01*
X0251316Y0264754D02*
X0284229Y0264754D01*
X0284229Y0265352D02*
X0251782Y0265352D01*
X0252030Y0265951D02*
X0284229Y0265951D01*
X0284229Y0266216D02*
X0284229Y0250299D01*
X0284878Y0249651D01*
X0300795Y0249651D01*
X0301443Y0250299D01*
X0301443Y0266216D01*
X0300795Y0266865D01*
X0284878Y0266865D01*
X0284229Y0266216D01*
X0284562Y0266549D02*
X0252278Y0266549D01*
X0252526Y0267148D02*
X0396750Y0267148D01*
X0396750Y0267746D02*
X0252774Y0267746D01*
X0253022Y0268345D02*
X0396750Y0268345D01*
X0396750Y0268943D02*
X0253075Y0268943D01*
X0253075Y0269542D02*
X0396750Y0269542D01*
X0396750Y0270141D02*
X0253075Y0270141D01*
X0253075Y0270739D02*
X0396750Y0270739D01*
X0396750Y0271338D02*
X0253075Y0271338D01*
X0253075Y0271936D02*
X0396750Y0271936D01*
X0396750Y0272535D02*
X0252894Y0272535D01*
X0252646Y0273133D02*
X0396750Y0273133D01*
X0396750Y0273732D02*
X0252398Y0273732D01*
X0252150Y0274330D02*
X0396750Y0274330D01*
X0396750Y0274929D02*
X0251902Y0274929D01*
X0251606Y0275527D02*
X0396750Y0275527D01*
X0396750Y0276126D02*
X0251007Y0276126D01*
X0250409Y0276724D02*
X0396750Y0276724D01*
X0396750Y0277323D02*
X0249810Y0277323D01*
X0249212Y0277921D02*
X0396750Y0277921D01*
X0396750Y0278520D02*
X0247887Y0278520D01*
X0246442Y0279118D02*
X0396750Y0279118D01*
X0396750Y0279717D02*
X0005950Y0279717D01*
X0005950Y0280315D02*
X0396750Y0280315D01*
X0396750Y0280914D02*
X0005950Y0280914D01*
X0005950Y0281512D02*
X0396750Y0281512D01*
X0396750Y0282111D02*
X0005950Y0282111D01*
X0005950Y0282709D02*
X0156672Y0282709D01*
X0157954Y0282178D02*
X0154607Y0283565D01*
X0152045Y0286127D01*
X0150658Y0289474D01*
X0150658Y0293097D01*
X0152045Y0296444D01*
X0154607Y0299006D01*
X0157954Y0300393D01*
X0161577Y0300393D01*
X0164924Y0299006D01*
X0167486Y0296444D01*
X0168872Y0293097D01*
X0168872Y0289474D01*
X0167486Y0286127D01*
X0164924Y0283565D01*
X0161577Y0282178D01*
X0157954Y0282178D01*
X0155227Y0283308D02*
X0005950Y0283308D01*
X0005950Y0283906D02*
X0154265Y0283906D01*
X0153667Y0284505D02*
X0005950Y0284505D01*
X0005950Y0285103D02*
X0026824Y0285103D01*
X0027073Y0285037D02*
X0029761Y0285037D01*
X0032356Y0285732D01*
X0034683Y0287076D01*
X0036583Y0288976D01*
X0037927Y0291303D01*
X0038622Y0293899D01*
X0038622Y0296586D01*
X0037927Y0299181D01*
X0036583Y0301508D01*
X0034683Y0303409D01*
X0032356Y0304752D01*
X0029761Y0305448D01*
X0027073Y0305448D01*
X0024478Y0304752D01*
X0022151Y0303409D01*
X0020250Y0301508D01*
X0018907Y0299181D01*
X0018211Y0296586D01*
X0018211Y0293899D01*
X0018907Y0291303D01*
X0020250Y0288976D01*
X0022151Y0287076D01*
X0024478Y0285732D01*
X0027073Y0285037D01*
X0024591Y0285702D02*
X0005950Y0285702D01*
X0005950Y0286300D02*
X0023494Y0286300D01*
X0022457Y0286899D02*
X0005950Y0286899D01*
X0005950Y0287497D02*
X0021729Y0287497D01*
X0021130Y0288096D02*
X0005950Y0288096D01*
X0005950Y0288694D02*
X0020532Y0288694D01*
X0020067Y0289293D02*
X0005950Y0289293D01*
X0005950Y0289891D02*
X0019722Y0289891D01*
X0019376Y0290490D02*
X0005950Y0290490D01*
X0005950Y0291088D02*
X0019031Y0291088D01*
X0018804Y0291687D02*
X0005950Y0291687D01*
X0005950Y0292285D02*
X0018644Y0292285D01*
X0018483Y0292884D02*
X0005950Y0292884D01*
X0005950Y0293482D02*
X0018323Y0293482D01*
X0018211Y0294081D02*
X0005950Y0294081D01*
X0005950Y0294679D02*
X0018211Y0294679D01*
X0018211Y0295278D02*
X0005950Y0295278D01*
X0005950Y0295877D02*
X0018211Y0295877D01*
X0018211Y0296475D02*
X0005950Y0296475D01*
X0005950Y0297074D02*
X0018342Y0297074D01*
X0018503Y0297672D02*
X0005950Y0297672D01*
X0005950Y0298271D02*
X0018663Y0298271D01*
X0018823Y0298869D02*
X0005950Y0298869D01*
X0005950Y0299468D02*
X0019072Y0299468D01*
X0019418Y0300066D02*
X0005950Y0300066D01*
X0005950Y0300665D02*
X0019763Y0300665D01*
X0020109Y0301263D02*
X0005950Y0301263D01*
X0005950Y0301862D02*
X0020604Y0301862D01*
X0021202Y0302460D02*
X0005950Y0302460D01*
X0005950Y0303059D02*
X0021801Y0303059D01*
X0022581Y0303657D02*
X0005950Y0303657D01*
X0005950Y0304256D02*
X0023618Y0304256D01*
X0024859Y0304854D02*
X0005950Y0304854D01*
X0005950Y0305453D02*
X0052137Y0305453D01*
X0051539Y0306051D02*
X0005950Y0306051D01*
X0005950Y0306650D02*
X0050940Y0306650D01*
X0050342Y0307248D02*
X0005950Y0307248D01*
X0005950Y0307847D02*
X0049743Y0307847D01*
X0049160Y0308430D02*
X0053845Y0303745D01*
X0060469Y0303745D01*
X0065154Y0308430D01*
X0065154Y0315055D01*
X0060469Y0319739D01*
X0053845Y0319739D01*
X0049160Y0315055D01*
X0049160Y0308430D01*
X0049160Y0308445D02*
X0005950Y0308445D01*
X0005950Y0309044D02*
X0049160Y0309044D01*
X0049160Y0309642D02*
X0005950Y0309642D01*
X0005950Y0310241D02*
X0049160Y0310241D01*
X0049160Y0310839D02*
X0005950Y0310839D01*
X0005950Y0311438D02*
X0049160Y0311438D01*
X0049160Y0312036D02*
X0005950Y0312036D01*
X0005950Y0312635D02*
X0049160Y0312635D01*
X0049160Y0313233D02*
X0005950Y0313233D01*
X0005950Y0313832D02*
X0049160Y0313832D01*
X0049160Y0314430D02*
X0005950Y0314430D01*
X0005950Y0315029D02*
X0049160Y0315029D01*
X0049733Y0315627D02*
X0005950Y0315627D01*
X0005950Y0316226D02*
X0050332Y0316226D01*
X0050930Y0316824D02*
X0005950Y0316824D01*
X0005950Y0317423D02*
X0051529Y0317423D01*
X0052127Y0318021D02*
X0005950Y0318021D01*
X0005950Y0318620D02*
X0024896Y0318620D01*
X0024478Y0318732D02*
X0027073Y0318037D01*
X0029761Y0318037D01*
X0032356Y0318732D01*
X0034683Y0320076D01*
X0036583Y0321976D01*
X0037927Y0324303D01*
X0038622Y0326899D01*
X0038622Y0329586D01*
X0037927Y0332181D01*
X0036583Y0334508D01*
X0034683Y0336409D01*
X0032356Y0337752D01*
X0029761Y0338448D01*
X0027073Y0338448D01*
X0024478Y0337752D01*
X0022151Y0336409D01*
X0020250Y0334508D01*
X0018907Y0332181D01*
X0018211Y0329586D01*
X0018211Y0326899D01*
X0018907Y0324303D01*
X0020250Y0321976D01*
X0022151Y0320076D01*
X0024478Y0318732D01*
X0023635Y0319218D02*
X0005950Y0319218D01*
X0005950Y0319817D02*
X0022599Y0319817D01*
X0021811Y0320415D02*
X0005950Y0320415D01*
X0005950Y0321014D02*
X0021212Y0321014D01*
X0020614Y0321612D02*
X0005950Y0321612D01*
X0005950Y0322211D02*
X0020115Y0322211D01*
X0019769Y0322810D02*
X0005950Y0322810D01*
X0005950Y0323408D02*
X0019424Y0323408D01*
X0019078Y0324007D02*
X0005950Y0324007D01*
X0005950Y0324605D02*
X0018826Y0324605D01*
X0018666Y0325204D02*
X0005950Y0325204D01*
X0005950Y0325802D02*
X0018505Y0325802D01*
X0018345Y0326401D02*
X0005950Y0326401D01*
X0005950Y0326999D02*
X0018211Y0326999D01*
X0018211Y0327598D02*
X0005950Y0327598D01*
X0005950Y0328196D02*
X0018211Y0328196D01*
X0018211Y0328795D02*
X0005950Y0328795D01*
X0005950Y0329393D02*
X0018211Y0329393D01*
X0018320Y0329992D02*
X0005950Y0329992D01*
X0005950Y0330590D02*
X0018481Y0330590D01*
X0018641Y0331189D02*
X0005950Y0331189D01*
X0005950Y0331787D02*
X0018801Y0331787D01*
X0019025Y0332386D02*
X0005950Y0332386D01*
X0005950Y0332984D02*
X0019370Y0332984D01*
X0019716Y0333583D02*
X0005950Y0333583D01*
X0005950Y0334181D02*
X0020062Y0334181D01*
X0020522Y0334780D02*
X0005950Y0334780D01*
X0005950Y0335378D02*
X0021120Y0335378D01*
X0021719Y0335977D02*
X0005950Y0335977D01*
X0005950Y0336575D02*
X0022439Y0336575D01*
X0023476Y0337174D02*
X0005950Y0337174D01*
X0005950Y0337772D02*
X0024553Y0337772D01*
X0026787Y0338371D02*
X0005950Y0338371D01*
X0005950Y0338969D02*
X0096926Y0338969D01*
X0096926Y0338371D02*
X0030047Y0338371D01*
X0032281Y0337772D02*
X0096926Y0337772D01*
X0096926Y0337174D02*
X0033358Y0337174D01*
X0034395Y0336575D02*
X0096926Y0336575D01*
X0096926Y0335977D02*
X0060732Y0335977D01*
X0060469Y0336239D02*
X0053845Y0336239D01*
X0049160Y0331555D01*
X0049160Y0324930D01*
X0053845Y0320245D01*
X0060469Y0320245D01*
X0065154Y0324930D01*
X0065154Y0331555D01*
X0060469Y0336239D01*
X0061330Y0335378D02*
X0096926Y0335378D01*
X0096926Y0334780D02*
X0061929Y0334780D01*
X0062527Y0334181D02*
X0096926Y0334181D01*
X0096926Y0333583D02*
X0063126Y0333583D01*
X0063724Y0332984D02*
X0096926Y0332984D01*
X0096926Y0332386D02*
X0064323Y0332386D01*
X0064921Y0331787D02*
X0096926Y0331787D01*
X0096926Y0331189D02*
X0065154Y0331189D01*
X0065154Y0330590D02*
X0096926Y0330590D01*
X0096926Y0329992D02*
X0065154Y0329992D01*
X0065154Y0329393D02*
X0096926Y0329393D01*
X0096926Y0328795D02*
X0065154Y0328795D01*
X0065154Y0328196D02*
X0096926Y0328196D01*
X0096926Y0327598D02*
X0065154Y0327598D01*
X0065154Y0326999D02*
X0096926Y0326999D01*
X0096926Y0326401D02*
X0065154Y0326401D01*
X0065154Y0325802D02*
X0096926Y0325802D01*
X0096926Y0325204D02*
X0065154Y0325204D01*
X0064829Y0324605D02*
X0096931Y0324605D01*
X0096926Y0324610D02*
X0097574Y0323962D01*
X0113492Y0323962D01*
X0114140Y0324610D01*
X0114140Y0340527D01*
X0113492Y0341176D01*
X0097574Y0341176D01*
X0096926Y0340527D01*
X0096926Y0324610D01*
X0097530Y0324007D02*
X0064231Y0324007D01*
X0063632Y0323408D02*
X0254074Y0323408D01*
X0254070Y0323411D02*
X0254364Y0323118D01*
X0254364Y0304379D01*
X0249031Y0299046D01*
X0245780Y0300393D01*
X0242157Y0300393D01*
X0238809Y0299006D01*
X0236247Y0296444D01*
X0234861Y0293097D01*
X0234861Y0289474D01*
X0236247Y0286127D01*
X0238809Y0283565D01*
X0242157Y0282178D01*
X0245780Y0282178D01*
X0249127Y0283565D01*
X0251689Y0286127D01*
X0253075Y0289474D01*
X0253075Y0293097D01*
X0251728Y0296349D01*
X0256701Y0301321D01*
X0257061Y0301321D01*
X0258178Y0302438D01*
X0258178Y0323118D01*
X0258472Y0323411D01*
X0258867Y0324365D01*
X0258867Y0325398D01*
X0258472Y0326352D01*
X0257742Y0327083D01*
X0256788Y0327478D01*
X0255755Y0327478D01*
X0254801Y0327083D01*
X0254070Y0326352D01*
X0253675Y0325398D01*
X0253675Y0324365D01*
X0254070Y0323411D01*
X0253824Y0324007D02*
X0113536Y0324007D01*
X0114135Y0324605D02*
X0253675Y0324605D01*
X0253675Y0325204D02*
X0114140Y0325204D01*
X0114140Y0325802D02*
X0253842Y0325802D01*
X0254119Y0326401D02*
X0114140Y0326401D01*
X0114140Y0326999D02*
X0254717Y0326999D01*
X0257825Y0326999D02*
X0284229Y0326999D01*
X0284229Y0326401D02*
X0258424Y0326401D01*
X0258700Y0325802D02*
X0284229Y0325802D01*
X0284229Y0325299D02*
X0284878Y0324651D01*
X0300795Y0324651D01*
X0301443Y0325299D01*
X0301443Y0341216D01*
X0300795Y0341865D01*
X0284878Y0341865D01*
X0284229Y0341216D01*
X0284229Y0325299D01*
X0284325Y0325204D02*
X0258867Y0325204D01*
X0258867Y0324605D02*
X0337448Y0324605D01*
X0337448Y0324007D02*
X0258719Y0324007D01*
X0258469Y0323408D02*
X0337448Y0323408D01*
X0337448Y0322810D02*
X0258178Y0322810D01*
X0258178Y0322211D02*
X0337448Y0322211D01*
X0337448Y0321612D02*
X0258178Y0321612D01*
X0258178Y0321014D02*
X0337448Y0321014D01*
X0337448Y0320894D02*
X0338096Y0320245D01*
X0352793Y0320245D01*
X0353441Y0320894D01*
X0353441Y0335590D01*
X0352793Y0336239D01*
X0338096Y0336239D01*
X0337448Y0335590D01*
X0337448Y0320894D01*
X0337926Y0320415D02*
X0258178Y0320415D01*
X0258178Y0319817D02*
X0368366Y0319817D01*
X0367918Y0320076D02*
X0370245Y0318732D01*
X0372841Y0318037D01*
X0375528Y0318037D01*
X0378124Y0318732D01*
X0380451Y0320076D01*
X0382351Y0321976D01*
X0383695Y0324303D01*
X0384390Y0326899D01*
X0384390Y0329586D01*
X0383695Y0332181D01*
X0382351Y0334508D01*
X0380451Y0336409D01*
X0378124Y0337752D01*
X0375528Y0338448D01*
X0372841Y0338448D01*
X0370245Y0337752D01*
X0367918Y0336409D01*
X0366018Y0334508D01*
X0364675Y0332181D01*
X0363979Y0329586D01*
X0363979Y0326899D01*
X0364675Y0324303D01*
X0366018Y0321976D01*
X0367918Y0320076D01*
X0367579Y0320415D02*
X0352963Y0320415D01*
X0353441Y0321014D02*
X0366980Y0321014D01*
X0366381Y0321612D02*
X0353441Y0321612D01*
X0353441Y0322211D02*
X0365882Y0322211D01*
X0365537Y0322810D02*
X0353441Y0322810D01*
X0353441Y0323408D02*
X0365191Y0323408D01*
X0364846Y0324007D02*
X0353441Y0324007D01*
X0353441Y0324605D02*
X0364594Y0324605D01*
X0364433Y0325204D02*
X0353441Y0325204D01*
X0353441Y0325802D02*
X0364273Y0325802D01*
X0364113Y0326401D02*
X0353441Y0326401D01*
X0353441Y0326999D02*
X0363979Y0326999D01*
X0363979Y0327598D02*
X0353441Y0327598D01*
X0353441Y0328196D02*
X0363979Y0328196D01*
X0363979Y0328795D02*
X0353441Y0328795D01*
X0353441Y0329393D02*
X0363979Y0329393D01*
X0364088Y0329992D02*
X0353441Y0329992D01*
X0353441Y0330590D02*
X0364248Y0330590D01*
X0364409Y0331189D02*
X0353441Y0331189D01*
X0353441Y0331787D02*
X0364569Y0331787D01*
X0364793Y0332386D02*
X0353441Y0332386D01*
X0353441Y0332984D02*
X0365138Y0332984D01*
X0365484Y0333583D02*
X0353441Y0333583D01*
X0353441Y0334181D02*
X0365829Y0334181D01*
X0366289Y0334780D02*
X0353441Y0334780D01*
X0353441Y0335378D02*
X0366888Y0335378D01*
X0367487Y0335977D02*
X0353055Y0335977D01*
X0368207Y0336575D02*
X0301443Y0336575D01*
X0301443Y0335977D02*
X0337834Y0335977D01*
X0337448Y0335378D02*
X0301443Y0335378D01*
X0301443Y0334780D02*
X0337448Y0334780D01*
X0337448Y0334181D02*
X0301443Y0334181D01*
X0301443Y0333583D02*
X0337448Y0333583D01*
X0337448Y0332984D02*
X0301443Y0332984D01*
X0301443Y0332386D02*
X0337448Y0332386D01*
X0337448Y0331787D02*
X0301443Y0331787D01*
X0301443Y0331189D02*
X0337448Y0331189D01*
X0337448Y0330590D02*
X0301443Y0330590D01*
X0301443Y0329992D02*
X0337448Y0329992D01*
X0337448Y0329393D02*
X0301443Y0329393D01*
X0301443Y0328795D02*
X0337448Y0328795D01*
X0337448Y0328196D02*
X0301443Y0328196D01*
X0301443Y0327598D02*
X0337448Y0327598D01*
X0337448Y0326999D02*
X0301443Y0326999D01*
X0301443Y0326401D02*
X0337448Y0326401D01*
X0337448Y0325802D02*
X0301443Y0325802D01*
X0301348Y0325204D02*
X0337448Y0325204D01*
X0342132Y0319739D02*
X0337448Y0315055D01*
X0337448Y0308430D01*
X0342132Y0303745D01*
X0348757Y0303745D01*
X0353441Y0308430D01*
X0353441Y0315055D01*
X0348757Y0319739D01*
X0342132Y0319739D01*
X0341612Y0319218D02*
X0258178Y0319218D01*
X0258178Y0318620D02*
X0341013Y0318620D01*
X0340415Y0318021D02*
X0258178Y0318021D01*
X0258178Y0317423D02*
X0339816Y0317423D01*
X0339218Y0316824D02*
X0258178Y0316824D01*
X0258178Y0316226D02*
X0338619Y0316226D01*
X0338020Y0315627D02*
X0258178Y0315627D01*
X0258178Y0315029D02*
X0337448Y0315029D01*
X0337448Y0314430D02*
X0258178Y0314430D01*
X0258178Y0313832D02*
X0337448Y0313832D01*
X0337448Y0313233D02*
X0258178Y0313233D01*
X0258178Y0312635D02*
X0337448Y0312635D01*
X0337448Y0312036D02*
X0258178Y0312036D01*
X0258178Y0311438D02*
X0337448Y0311438D01*
X0337448Y0310839D02*
X0258178Y0310839D01*
X0258178Y0310241D02*
X0337448Y0310241D01*
X0337448Y0309642D02*
X0258178Y0309642D01*
X0258178Y0309044D02*
X0337448Y0309044D01*
X0337448Y0308445D02*
X0258178Y0308445D01*
X0258178Y0307847D02*
X0338031Y0307847D01*
X0338629Y0307248D02*
X0258178Y0307248D01*
X0258178Y0306650D02*
X0339228Y0306650D01*
X0339826Y0306051D02*
X0258178Y0306051D01*
X0258178Y0305453D02*
X0340425Y0305453D01*
X0341023Y0304854D02*
X0258178Y0304854D01*
X0258178Y0304256D02*
X0341622Y0304256D01*
X0342132Y0303239D02*
X0337448Y0298555D01*
X0337448Y0291930D01*
X0342132Y0287245D01*
X0348757Y0287245D01*
X0353441Y0291930D01*
X0353441Y0298555D01*
X0348757Y0303239D01*
X0342132Y0303239D01*
X0341952Y0303059D02*
X0258178Y0303059D01*
X0258178Y0303657D02*
X0368349Y0303657D01*
X0367918Y0303409D02*
X0366018Y0301508D01*
X0364675Y0299181D01*
X0363979Y0296586D01*
X0363979Y0293899D01*
X0364675Y0291303D01*
X0366018Y0288976D01*
X0367918Y0287076D01*
X0370245Y0285732D01*
X0372841Y0285037D01*
X0375528Y0285037D01*
X0378124Y0285732D01*
X0380451Y0287076D01*
X0382351Y0288976D01*
X0383695Y0291303D01*
X0384390Y0293899D01*
X0384390Y0296586D01*
X0383695Y0299181D01*
X0382351Y0301508D01*
X0380451Y0303409D01*
X0378124Y0304752D01*
X0375528Y0305448D01*
X0372841Y0305448D01*
X0370245Y0304752D01*
X0367918Y0303409D01*
X0367568Y0303059D02*
X0348937Y0303059D01*
X0349536Y0302460D02*
X0366970Y0302460D01*
X0366371Y0301862D02*
X0350134Y0301862D01*
X0350733Y0301263D02*
X0365877Y0301263D01*
X0365531Y0300665D02*
X0351331Y0300665D01*
X0351930Y0300066D02*
X0365185Y0300066D01*
X0364840Y0299468D02*
X0352528Y0299468D01*
X0353127Y0298869D02*
X0364591Y0298869D01*
X0364431Y0298271D02*
X0353441Y0298271D01*
X0353441Y0297672D02*
X0364270Y0297672D01*
X0364110Y0297074D02*
X0353441Y0297074D01*
X0353441Y0296475D02*
X0363979Y0296475D01*
X0363979Y0295877D02*
X0353441Y0295877D01*
X0353441Y0295278D02*
X0363979Y0295278D01*
X0363979Y0294679D02*
X0353441Y0294679D01*
X0353441Y0294081D02*
X0363979Y0294081D01*
X0364091Y0293482D02*
X0353441Y0293482D01*
X0353441Y0292884D02*
X0364251Y0292884D01*
X0364411Y0292285D02*
X0353441Y0292285D01*
X0353199Y0291687D02*
X0364572Y0291687D01*
X0364798Y0291088D02*
X0352600Y0291088D01*
X0352002Y0290490D02*
X0365144Y0290490D01*
X0365490Y0289891D02*
X0351403Y0289891D01*
X0350804Y0289293D02*
X0365835Y0289293D01*
X0366300Y0288694D02*
X0350206Y0288694D01*
X0349607Y0288096D02*
X0366898Y0288096D01*
X0367497Y0287497D02*
X0349009Y0287497D01*
X0341880Y0287497D02*
X0252256Y0287497D01*
X0252009Y0286899D02*
X0368225Y0286899D01*
X0369261Y0286300D02*
X0251761Y0286300D01*
X0251264Y0285702D02*
X0370359Y0285702D01*
X0372592Y0285103D02*
X0250665Y0285103D01*
X0250067Y0284505D02*
X0396750Y0284505D01*
X0396750Y0285103D02*
X0375777Y0285103D01*
X0378011Y0285702D02*
X0396750Y0285702D01*
X0396750Y0286300D02*
X0379108Y0286300D01*
X0380145Y0286899D02*
X0396750Y0286899D01*
X0396750Y0287497D02*
X0380873Y0287497D01*
X0381471Y0288096D02*
X0396750Y0288096D01*
X0396750Y0288694D02*
X0382070Y0288694D01*
X0382534Y0289293D02*
X0396750Y0289293D01*
X0396750Y0289891D02*
X0382880Y0289891D01*
X0383225Y0290490D02*
X0396750Y0290490D01*
X0396750Y0291088D02*
X0383571Y0291088D01*
X0383798Y0291687D02*
X0396750Y0291687D01*
X0396750Y0292285D02*
X0383958Y0292285D01*
X0384118Y0292884D02*
X0396750Y0292884D01*
X0396750Y0293482D02*
X0384279Y0293482D01*
X0384390Y0294081D02*
X0396750Y0294081D01*
X0396750Y0294679D02*
X0384390Y0294679D01*
X0384390Y0295278D02*
X0396750Y0295278D01*
X0396750Y0295877D02*
X0384390Y0295877D01*
X0384390Y0296475D02*
X0396750Y0296475D01*
X0396750Y0297074D02*
X0384259Y0297074D01*
X0384099Y0297672D02*
X0396750Y0297672D01*
X0396750Y0298271D02*
X0383939Y0298271D01*
X0383778Y0298869D02*
X0396750Y0298869D01*
X0396750Y0299468D02*
X0383529Y0299468D01*
X0383184Y0300066D02*
X0396750Y0300066D01*
X0396750Y0300665D02*
X0382838Y0300665D01*
X0382493Y0301263D02*
X0396750Y0301263D01*
X0396750Y0301862D02*
X0381998Y0301862D01*
X0381399Y0302460D02*
X0396750Y0302460D01*
X0396750Y0303059D02*
X0380801Y0303059D01*
X0380020Y0303657D02*
X0396750Y0303657D01*
X0396750Y0304256D02*
X0378984Y0304256D01*
X0377743Y0304854D02*
X0396750Y0304854D01*
X0396750Y0305453D02*
X0350464Y0305453D01*
X0351063Y0306051D02*
X0396750Y0306051D01*
X0396750Y0306650D02*
X0351661Y0306650D01*
X0352260Y0307248D02*
X0396750Y0307248D01*
X0396750Y0307847D02*
X0352858Y0307847D01*
X0353441Y0308445D02*
X0396750Y0308445D01*
X0396750Y0309044D02*
X0353441Y0309044D01*
X0353441Y0309642D02*
X0396750Y0309642D01*
X0396750Y0310241D02*
X0353441Y0310241D01*
X0353441Y0310839D02*
X0396750Y0310839D01*
X0396750Y0311438D02*
X0353441Y0311438D01*
X0353441Y0312036D02*
X0396750Y0312036D01*
X0396750Y0312635D02*
X0353441Y0312635D01*
X0353441Y0313233D02*
X0396750Y0313233D01*
X0396750Y0313832D02*
X0353441Y0313832D01*
X0353441Y0314430D02*
X0396750Y0314430D01*
X0396750Y0315029D02*
X0353441Y0315029D01*
X0352868Y0315627D02*
X0396750Y0315627D01*
X0396750Y0316226D02*
X0352270Y0316226D01*
X0351671Y0316824D02*
X0396750Y0316824D01*
X0396750Y0317423D02*
X0351073Y0317423D01*
X0350474Y0318021D02*
X0396750Y0318021D01*
X0396750Y0318620D02*
X0377705Y0318620D01*
X0378966Y0319218D02*
X0396750Y0319218D01*
X0396750Y0319817D02*
X0380003Y0319817D01*
X0380791Y0320415D02*
X0396750Y0320415D01*
X0396750Y0321014D02*
X0381389Y0321014D01*
X0381988Y0321612D02*
X0396750Y0321612D01*
X0396750Y0322211D02*
X0382487Y0322211D01*
X0382832Y0322810D02*
X0396750Y0322810D01*
X0396750Y0323408D02*
X0383178Y0323408D01*
X0383524Y0324007D02*
X0396750Y0324007D01*
X0396750Y0324605D02*
X0383776Y0324605D01*
X0383936Y0325204D02*
X0396750Y0325204D01*
X0396750Y0325802D02*
X0384096Y0325802D01*
X0384257Y0326401D02*
X0396750Y0326401D01*
X0396750Y0326999D02*
X0384390Y0326999D01*
X0384390Y0327598D02*
X0396750Y0327598D01*
X0396750Y0328196D02*
X0384390Y0328196D01*
X0384390Y0328795D02*
X0396750Y0328795D01*
X0396750Y0329393D02*
X0384390Y0329393D01*
X0384281Y0329992D02*
X0396750Y0329992D01*
X0396750Y0330590D02*
X0384121Y0330590D01*
X0383961Y0331189D02*
X0396750Y0331189D01*
X0396750Y0331787D02*
X0383800Y0331787D01*
X0383577Y0332386D02*
X0396750Y0332386D01*
X0396750Y0332984D02*
X0383231Y0332984D01*
X0382886Y0333583D02*
X0396750Y0333583D01*
X0396750Y0334181D02*
X0382540Y0334181D01*
X0382080Y0334780D02*
X0396750Y0334780D01*
X0396750Y0335378D02*
X0381481Y0335378D01*
X0380883Y0335977D02*
X0396750Y0335977D01*
X0396750Y0336575D02*
X0380162Y0336575D01*
X0379126Y0337174D02*
X0396750Y0337174D01*
X0396750Y0337772D02*
X0378049Y0337772D01*
X0375815Y0338371D02*
X0396750Y0338371D01*
X0396750Y0338969D02*
X0301443Y0338969D01*
X0301443Y0338371D02*
X0372554Y0338371D01*
X0370321Y0337772D02*
X0301443Y0337772D01*
X0301443Y0337174D02*
X0369244Y0337174D01*
X0369403Y0319218D02*
X0349277Y0319218D01*
X0349876Y0318620D02*
X0370664Y0318620D01*
X0370626Y0304854D02*
X0349866Y0304854D01*
X0349267Y0304256D02*
X0369386Y0304256D01*
X0341353Y0302460D02*
X0258178Y0302460D01*
X0257602Y0301862D02*
X0340755Y0301862D01*
X0340156Y0301263D02*
X0256643Y0301263D01*
X0256044Y0300665D02*
X0339558Y0300665D01*
X0338959Y0300066D02*
X0255446Y0300066D01*
X0254847Y0299468D02*
X0338361Y0299468D01*
X0337762Y0298869D02*
X0254249Y0298869D01*
X0253650Y0298271D02*
X0337448Y0298271D01*
X0337448Y0297672D02*
X0253052Y0297672D01*
X0252453Y0297074D02*
X0337448Y0297074D01*
X0337448Y0296475D02*
X0251855Y0296475D01*
X0251924Y0295877D02*
X0337448Y0295877D01*
X0337448Y0295278D02*
X0252172Y0295278D01*
X0252420Y0294679D02*
X0337448Y0294679D01*
X0337448Y0294081D02*
X0252668Y0294081D01*
X0252916Y0293482D02*
X0337448Y0293482D01*
X0337448Y0292884D02*
X0253075Y0292884D01*
X0253075Y0292285D02*
X0337448Y0292285D01*
X0337690Y0291687D02*
X0253075Y0291687D01*
X0253075Y0291088D02*
X0338289Y0291088D01*
X0338887Y0290490D02*
X0253075Y0290490D01*
X0253075Y0289891D02*
X0339486Y0289891D01*
X0340084Y0289293D02*
X0253000Y0289293D01*
X0252752Y0288694D02*
X0340683Y0288694D01*
X0341282Y0288096D02*
X0252504Y0288096D01*
X0249468Y0283906D02*
X0396750Y0283906D01*
X0396750Y0283308D02*
X0248506Y0283308D01*
X0247061Y0282709D02*
X0396750Y0282709D01*
X0396750Y0266549D02*
X0301110Y0266549D01*
X0301443Y0265951D02*
X0396750Y0265951D01*
X0396750Y0265352D02*
X0301443Y0265352D01*
X0301443Y0264754D02*
X0396750Y0264754D01*
X0396750Y0264155D02*
X0301443Y0264155D01*
X0301443Y0263557D02*
X0396750Y0263557D01*
X0396750Y0262958D02*
X0301443Y0262958D01*
X0301443Y0262360D02*
X0396750Y0262360D01*
X0396750Y0261761D02*
X0301443Y0261761D01*
X0301443Y0261163D02*
X0396750Y0261163D01*
X0396750Y0260564D02*
X0301443Y0260564D01*
X0301443Y0259966D02*
X0396750Y0259966D01*
X0396750Y0259367D02*
X0301443Y0259367D01*
X0301443Y0258769D02*
X0396750Y0258769D01*
X0396750Y0258170D02*
X0301443Y0258170D01*
X0301443Y0257572D02*
X0396750Y0257572D01*
X0396750Y0256973D02*
X0301443Y0256973D01*
X0301443Y0256375D02*
X0396750Y0256375D01*
X0396750Y0255776D02*
X0388316Y0255776D01*
X0387886Y0256207D02*
X0390057Y0254036D01*
X0390057Y0250964D01*
X0387886Y0248793D01*
X0384814Y0248793D01*
X0382643Y0250964D01*
X0382643Y0254036D01*
X0384814Y0256207D01*
X0387886Y0256207D01*
X0388915Y0255178D02*
X0396750Y0255178D01*
X0396750Y0254579D02*
X0389513Y0254579D01*
X0390057Y0253981D02*
X0396750Y0253981D01*
X0396750Y0253382D02*
X0390057Y0253382D01*
X0390057Y0252784D02*
X0396750Y0252784D01*
X0396750Y0252185D02*
X0390057Y0252185D01*
X0390057Y0251587D02*
X0396750Y0251587D01*
X0396750Y0250988D02*
X0390057Y0250988D01*
X0389482Y0250390D02*
X0396750Y0250390D01*
X0396750Y0249791D02*
X0388884Y0249791D01*
X0388285Y0249193D02*
X0396750Y0249193D01*
X0396750Y0248594D02*
X0366871Y0248594D01*
X0366866Y0248596D02*
X0365834Y0248596D01*
X0364879Y0248201D01*
X0364149Y0247471D01*
X0364123Y0247407D01*
X0358267Y0247407D01*
X0357930Y0247070D01*
X0357866Y0247096D01*
X0356834Y0247096D01*
X0355879Y0246701D01*
X0355149Y0245971D01*
X0354754Y0245016D01*
X0354754Y0243984D01*
X0355149Y0243029D01*
X0355879Y0242299D01*
X0356834Y0241904D01*
X0357866Y0241904D01*
X0358821Y0242299D01*
X0359551Y0243029D01*
X0359946Y0243984D01*
X0359946Y0244593D01*
X0364123Y0244593D01*
X0364149Y0244529D01*
X0364879Y0243799D01*
X0365834Y0243404D01*
X0366866Y0243404D01*
X0367821Y0243799D01*
X0368551Y0244529D01*
X0368946Y0245484D01*
X0368946Y0246516D01*
X0368551Y0247471D01*
X0367821Y0248201D01*
X0366866Y0248596D01*
X0365829Y0248594D02*
X0253075Y0248594D01*
X0253075Y0247996D02*
X0364674Y0247996D01*
X0366350Y0246000D02*
X0358850Y0246000D01*
X0357350Y0244500D01*
X0359130Y0242609D02*
X0396750Y0242609D01*
X0396750Y0243208D02*
X0359625Y0243208D01*
X0359872Y0243806D02*
X0364873Y0243806D01*
X0364274Y0244405D02*
X0359946Y0244405D01*
X0358124Y0242010D02*
X0396750Y0242010D01*
X0396750Y0241412D02*
X0349428Y0241412D01*
X0350026Y0240813D02*
X0396750Y0240813D01*
X0396750Y0240215D02*
X0352286Y0240215D01*
X0352321Y0240201D02*
X0351366Y0240596D01*
X0350334Y0240596D01*
X0350270Y0240570D01*
X0347892Y0242948D01*
X0347946Y0243080D01*
X0347946Y0244112D01*
X0347551Y0245067D01*
X0346821Y0245797D01*
X0345866Y0246192D01*
X0344834Y0246192D01*
X0343879Y0245797D01*
X0343149Y0245067D01*
X0342754Y0244112D01*
X0342754Y0243080D01*
X0343149Y0242126D01*
X0343879Y0241395D01*
X0344834Y0241000D01*
X0345860Y0241000D01*
X0348280Y0238580D01*
X0348254Y0238516D01*
X0348254Y0237484D01*
X0348649Y0236529D01*
X0349379Y0235799D01*
X0350334Y0235404D01*
X0351366Y0235404D01*
X0352321Y0235799D01*
X0353051Y0236529D01*
X0353446Y0237484D01*
X0353446Y0238516D01*
X0353051Y0239471D01*
X0352321Y0240201D01*
X0352905Y0239616D02*
X0396750Y0239616D01*
X0396750Y0239018D02*
X0353238Y0239018D01*
X0353446Y0238419D02*
X0396750Y0238419D01*
X0396750Y0237821D02*
X0353446Y0237821D01*
X0353338Y0237222D02*
X0396750Y0237222D01*
X0396750Y0236624D02*
X0353090Y0236624D01*
X0352547Y0236025D02*
X0396750Y0236025D01*
X0396750Y0235427D02*
X0351422Y0235427D01*
X0350278Y0235427D02*
X0301443Y0235427D01*
X0301443Y0236025D02*
X0349153Y0236025D01*
X0348610Y0236624D02*
X0301036Y0236624D01*
X0301443Y0234828D02*
X0396750Y0234828D01*
X0396750Y0234230D02*
X0301443Y0234230D01*
X0301443Y0233631D02*
X0396750Y0233631D01*
X0396750Y0233033D02*
X0301443Y0233033D01*
X0301443Y0232434D02*
X0396750Y0232434D01*
X0396750Y0231836D02*
X0301443Y0231836D01*
X0301443Y0231237D02*
X0396750Y0231237D01*
X0396750Y0230639D02*
X0301443Y0230639D01*
X0301443Y0230040D02*
X0396750Y0230040D01*
X0396750Y0229442D02*
X0301443Y0229442D01*
X0301443Y0228843D02*
X0396750Y0228843D01*
X0396750Y0228245D02*
X0301443Y0228245D01*
X0299386Y0212707D02*
X0296314Y0212707D01*
X0294143Y0210536D01*
X0294143Y0207464D01*
X0296314Y0205293D01*
X0299386Y0205293D01*
X0301557Y0207464D01*
X0301557Y0210536D01*
X0299386Y0212707D01*
X0299409Y0212683D02*
X0341410Y0212683D01*
X0341168Y0213268D02*
X0341729Y0211914D01*
X0342764Y0210879D01*
X0344118Y0210318D01*
X0345582Y0210318D01*
X0346936Y0210879D01*
X0347971Y0211914D01*
X0348532Y0213268D01*
X0348532Y0214732D01*
X0347971Y0216086D01*
X0346936Y0217121D01*
X0345582Y0217682D01*
X0344118Y0217682D01*
X0342764Y0217121D01*
X0341729Y0216086D01*
X0341168Y0214732D01*
X0341168Y0213268D01*
X0341168Y0213282D02*
X0005950Y0213282D01*
X0005950Y0213880D02*
X0341168Y0213880D01*
X0341168Y0214479D02*
X0005950Y0214479D01*
X0005950Y0215077D02*
X0341311Y0215077D01*
X0341559Y0215676D02*
X0005950Y0215676D01*
X0005950Y0216274D02*
X0341918Y0216274D01*
X0342516Y0216873D02*
X0005950Y0216873D01*
X0005950Y0217472D02*
X0343610Y0217472D01*
X0346090Y0217472D02*
X0373610Y0217472D01*
X0374118Y0217682D02*
X0372764Y0217121D01*
X0371729Y0216086D01*
X0371168Y0214732D01*
X0371168Y0213268D01*
X0371449Y0212589D01*
X0368767Y0209907D01*
X0358687Y0209907D01*
X0358661Y0209971D01*
X0357931Y0210701D01*
X0356977Y0211096D01*
X0355944Y0211096D01*
X0354990Y0210701D01*
X0354259Y0209971D01*
X0353864Y0209016D01*
X0353864Y0207984D01*
X0354259Y0207029D01*
X0354990Y0206299D01*
X0355944Y0205904D01*
X0356977Y0205904D01*
X0357931Y0206299D01*
X0358661Y0207029D01*
X0358687Y0207093D01*
X0369933Y0207093D01*
X0373439Y0210599D01*
X0374118Y0210318D01*
X0375582Y0210318D01*
X0376936Y0210879D01*
X0377971Y0211914D01*
X0378532Y0213268D01*
X0378532Y0214732D01*
X0377971Y0216086D01*
X0376936Y0217121D01*
X0375582Y0217682D01*
X0374118Y0217682D01*
X0372516Y0216873D02*
X0347184Y0216873D01*
X0347782Y0216274D02*
X0371918Y0216274D01*
X0371559Y0215676D02*
X0348141Y0215676D01*
X0348389Y0215077D02*
X0371311Y0215077D01*
X0371168Y0214479D02*
X0348532Y0214479D01*
X0348532Y0213880D02*
X0371168Y0213880D01*
X0371168Y0213282D02*
X0348532Y0213282D01*
X0348290Y0212683D02*
X0371410Y0212683D01*
X0370945Y0212085D02*
X0348042Y0212085D01*
X0347543Y0211486D02*
X0370347Y0211486D01*
X0369748Y0210888D02*
X0357479Y0210888D01*
X0358342Y0210289D02*
X0369149Y0210289D01*
X0369350Y0208500D02*
X0374850Y0214000D01*
X0378290Y0212683D02*
X0396750Y0212683D01*
X0396750Y0212085D02*
X0378042Y0212085D01*
X0377543Y0211486D02*
X0396750Y0211486D01*
X0396750Y0210888D02*
X0376945Y0210888D01*
X0378532Y0213282D02*
X0396750Y0213282D01*
X0396750Y0213880D02*
X0378532Y0213880D01*
X0378532Y0214479D02*
X0396750Y0214479D01*
X0396750Y0215077D02*
X0378389Y0215077D01*
X0378141Y0215676D02*
X0396750Y0215676D01*
X0396750Y0216274D02*
X0377782Y0216274D01*
X0377184Y0216873D02*
X0396750Y0216873D01*
X0396750Y0217472D02*
X0376090Y0217472D01*
X0373129Y0210289D02*
X0396750Y0210289D01*
X0396750Y0209691D02*
X0372531Y0209691D01*
X0371932Y0209092D02*
X0396750Y0209092D01*
X0396750Y0208494D02*
X0371334Y0208494D01*
X0370735Y0207895D02*
X0396750Y0207895D01*
X0396750Y0207297D02*
X0370137Y0207297D01*
X0369350Y0208500D02*
X0356460Y0208500D01*
X0353864Y0208494D02*
X0314557Y0208494D01*
X0314557Y0209092D02*
X0353896Y0209092D01*
X0354144Y0209691D02*
X0314557Y0209691D01*
X0314557Y0210036D02*
X0312386Y0212207D01*
X0309314Y0212207D01*
X0307143Y0210036D01*
X0307143Y0206964D01*
X0309314Y0204793D01*
X0312386Y0204793D01*
X0314557Y0206964D01*
X0314557Y0210036D01*
X0314303Y0210289D02*
X0354578Y0210289D01*
X0355441Y0210888D02*
X0346945Y0210888D01*
X0342755Y0210888D02*
X0313705Y0210888D01*
X0313106Y0211486D02*
X0342157Y0211486D01*
X0341658Y0212085D02*
X0312508Y0212085D01*
X0309192Y0212085D02*
X0300008Y0212085D01*
X0300606Y0211486D02*
X0308594Y0211486D01*
X0307995Y0210888D02*
X0301205Y0210888D01*
X0301557Y0210289D02*
X0307397Y0210289D01*
X0307143Y0209691D02*
X0301557Y0209691D01*
X0301557Y0209092D02*
X0307143Y0209092D01*
X0307143Y0208494D02*
X0301557Y0208494D01*
X0301557Y0207895D02*
X0307143Y0207895D01*
X0307143Y0207297D02*
X0301389Y0207297D01*
X0300791Y0206698D02*
X0307409Y0206698D01*
X0308008Y0206100D02*
X0300192Y0206100D01*
X0299594Y0205501D02*
X0308606Y0205501D01*
X0309205Y0204903D02*
X0017057Y0204903D01*
X0017057Y0205501D02*
X0296106Y0205501D01*
X0295508Y0206100D02*
X0017057Y0206100D01*
X0016894Y0206698D02*
X0294909Y0206698D01*
X0294311Y0207297D02*
X0016296Y0207297D01*
X0015697Y0207895D02*
X0294143Y0207895D01*
X0294143Y0208494D02*
X0015099Y0208494D01*
X0011601Y0208494D02*
X0005950Y0208494D01*
X0005950Y0209092D02*
X0294143Y0209092D01*
X0294143Y0209691D02*
X0005950Y0209691D01*
X0005950Y0210289D02*
X0294143Y0210289D01*
X0294495Y0210888D02*
X0005950Y0210888D01*
X0005950Y0211486D02*
X0295094Y0211486D01*
X0295692Y0212085D02*
X0005950Y0212085D01*
X0005950Y0212683D02*
X0296291Y0212683D01*
X0312495Y0204903D02*
X0396750Y0204903D01*
X0396750Y0205501D02*
X0313094Y0205501D01*
X0313692Y0206100D02*
X0355471Y0206100D01*
X0354591Y0206698D02*
X0314291Y0206698D01*
X0314557Y0207297D02*
X0354149Y0207297D01*
X0353901Y0207895D02*
X0314557Y0207895D01*
X0284637Y0236624D02*
X0040716Y0236624D01*
X0040118Y0237222D02*
X0348362Y0237222D01*
X0348254Y0237821D02*
X0039519Y0237821D01*
X0038920Y0238419D02*
X0348254Y0238419D01*
X0347842Y0239018D02*
X0038322Y0239018D01*
X0037723Y0239616D02*
X0347244Y0239616D01*
X0346645Y0240215D02*
X0247075Y0240215D01*
X0245780Y0239678D02*
X0249127Y0241065D01*
X0251689Y0243627D01*
X0253075Y0246974D01*
X0253075Y0250597D01*
X0251689Y0253944D01*
X0249127Y0256506D01*
X0245780Y0257893D01*
X0242157Y0257893D01*
X0238809Y0256506D01*
X0236247Y0253944D01*
X0234861Y0250597D01*
X0234861Y0246974D01*
X0236247Y0243627D01*
X0238809Y0241065D01*
X0242157Y0239678D01*
X0245780Y0239678D01*
X0248520Y0240813D02*
X0346047Y0240813D01*
X0343863Y0241412D02*
X0249474Y0241412D01*
X0250073Y0242010D02*
X0343264Y0242010D01*
X0342949Y0242609D02*
X0250671Y0242609D01*
X0251270Y0243208D02*
X0342754Y0243208D01*
X0342754Y0243806D02*
X0251763Y0243806D01*
X0252011Y0244405D02*
X0342875Y0244405D01*
X0343123Y0245003D02*
X0252259Y0245003D01*
X0252507Y0245602D02*
X0343684Y0245602D01*
X0345350Y0243596D02*
X0345350Y0243500D01*
X0350850Y0238000D01*
X0348829Y0242010D02*
X0356576Y0242010D01*
X0355570Y0242609D02*
X0348231Y0242609D01*
X0347946Y0243208D02*
X0355075Y0243208D01*
X0354827Y0243806D02*
X0347946Y0243806D01*
X0347825Y0244405D02*
X0354754Y0244405D01*
X0354754Y0245003D02*
X0347577Y0245003D01*
X0347016Y0245602D02*
X0354996Y0245602D01*
X0355379Y0246200D02*
X0252755Y0246200D01*
X0253003Y0246799D02*
X0356115Y0246799D01*
X0358257Y0247397D02*
X0253075Y0247397D01*
X0253075Y0249193D02*
X0384415Y0249193D01*
X0383816Y0249791D02*
X0300935Y0249791D01*
X0301443Y0250390D02*
X0383218Y0250390D01*
X0382643Y0250988D02*
X0301443Y0250988D01*
X0301443Y0251587D02*
X0382643Y0251587D01*
X0382643Y0252185D02*
X0301443Y0252185D01*
X0301443Y0252784D02*
X0382643Y0252784D01*
X0382643Y0253382D02*
X0301443Y0253382D01*
X0301443Y0253981D02*
X0382643Y0253981D01*
X0383187Y0254579D02*
X0301443Y0254579D01*
X0301443Y0255178D02*
X0383785Y0255178D01*
X0384384Y0255776D02*
X0301443Y0255776D01*
X0284229Y0255776D02*
X0249857Y0255776D01*
X0250455Y0255178D02*
X0284229Y0255178D01*
X0284229Y0254579D02*
X0251054Y0254579D01*
X0251652Y0253981D02*
X0284229Y0253981D01*
X0284229Y0253382D02*
X0251922Y0253382D01*
X0252169Y0252784D02*
X0284229Y0252784D01*
X0284229Y0252185D02*
X0252417Y0252185D01*
X0252665Y0251587D02*
X0284229Y0251587D01*
X0284229Y0250988D02*
X0252913Y0250988D01*
X0253075Y0250390D02*
X0284229Y0250390D01*
X0284737Y0249791D02*
X0253075Y0249791D01*
X0249258Y0256375D02*
X0284229Y0256375D01*
X0284229Y0256973D02*
X0247999Y0256973D01*
X0246554Y0257572D02*
X0284229Y0257572D01*
X0284229Y0258170D02*
X0114140Y0258170D01*
X0114140Y0258769D02*
X0284229Y0258769D01*
X0284229Y0259367D02*
X0114140Y0259367D01*
X0114140Y0259966D02*
X0284229Y0259966D01*
X0284229Y0260564D02*
X0114140Y0260564D01*
X0114140Y0262360D02*
X0155101Y0262360D01*
X0154213Y0262958D02*
X0114140Y0262958D01*
X0114140Y0263557D02*
X0153615Y0263557D01*
X0153016Y0264155D02*
X0114140Y0264155D01*
X0114140Y0264754D02*
X0152417Y0264754D01*
X0151951Y0265352D02*
X0114140Y0265352D01*
X0113717Y0265951D02*
X0151703Y0265951D01*
X0151455Y0266549D02*
X0061106Y0266549D01*
X0061471Y0266914D02*
X0062032Y0268268D01*
X0062032Y0269732D01*
X0061471Y0271086D01*
X0060436Y0272121D01*
X0059082Y0272682D01*
X0057618Y0272682D01*
X0056264Y0272121D01*
X0055229Y0271086D01*
X0054668Y0269732D01*
X0054668Y0268268D01*
X0055229Y0266914D01*
X0056264Y0265879D01*
X0057618Y0265318D01*
X0059082Y0265318D01*
X0060436Y0265879D01*
X0061471Y0266914D01*
X0061568Y0267148D02*
X0151207Y0267148D01*
X0150960Y0267746D02*
X0061816Y0267746D01*
X0062032Y0268345D02*
X0150712Y0268345D01*
X0150658Y0268943D02*
X0062032Y0268943D01*
X0062032Y0269542D02*
X0150658Y0269542D01*
X0150658Y0270141D02*
X0061863Y0270141D01*
X0061615Y0270739D02*
X0150658Y0270739D01*
X0150658Y0271338D02*
X0061219Y0271338D01*
X0060621Y0271936D02*
X0150658Y0271936D01*
X0150840Y0272535D02*
X0059438Y0272535D01*
X0057262Y0272535D02*
X0029438Y0272535D01*
X0029082Y0272682D02*
X0027618Y0272682D01*
X0026264Y0272121D01*
X0025229Y0271086D01*
X0024668Y0269732D01*
X0024668Y0268268D01*
X0025229Y0266914D01*
X0026264Y0265879D01*
X0027618Y0265318D01*
X0029082Y0265318D01*
X0029761Y0265599D01*
X0033943Y0261417D01*
X0033943Y0239417D01*
X0040953Y0232407D01*
X0031532Y0232407D01*
X0031532Y0233232D01*
X0030971Y0234586D01*
X0029936Y0235621D01*
X0028582Y0236182D01*
X0027118Y0236182D01*
X0025764Y0235621D01*
X0024729Y0234586D01*
X0024168Y0233232D01*
X0024168Y0231768D01*
X0024729Y0230414D01*
X0025764Y0229379D01*
X0027118Y0228818D01*
X0028582Y0228818D01*
X0029936Y0229379D01*
X0030150Y0229593D01*
X0043623Y0229593D01*
X0043649Y0229529D01*
X0044379Y0228799D01*
X0045334Y0228404D01*
X0046366Y0228404D01*
X0047321Y0228799D01*
X0048051Y0229529D01*
X0048446Y0230484D01*
X0048446Y0231516D01*
X0048051Y0232471D01*
X0047321Y0233201D01*
X0046366Y0233596D01*
X0045334Y0233596D01*
X0044379Y0233201D01*
X0044259Y0233081D01*
X0036757Y0240583D01*
X0036757Y0262583D01*
X0035933Y0263407D01*
X0031751Y0267589D01*
X0032032Y0268268D01*
X0032032Y0269732D01*
X0031471Y0271086D01*
X0030436Y0272121D01*
X0029082Y0272682D01*
X0030621Y0271936D02*
X0056079Y0271936D01*
X0055481Y0271338D02*
X0031219Y0271338D01*
X0031615Y0270739D02*
X0055085Y0270739D01*
X0054837Y0270141D02*
X0031863Y0270141D01*
X0032032Y0269542D02*
X0054668Y0269542D01*
X0054668Y0268943D02*
X0032032Y0268943D01*
X0032032Y0268345D02*
X0054668Y0268345D01*
X0054884Y0267746D02*
X0031816Y0267746D01*
X0032192Y0267148D02*
X0055132Y0267148D01*
X0055594Y0266549D02*
X0032790Y0266549D01*
X0033389Y0265951D02*
X0056192Y0265951D01*
X0057535Y0265352D02*
X0033987Y0265352D01*
X0034586Y0264754D02*
X0096926Y0264754D01*
X0096926Y0265352D02*
X0059165Y0265352D01*
X0060508Y0265951D02*
X0097349Y0265951D01*
X0096926Y0264155D02*
X0035184Y0264155D01*
X0035783Y0263557D02*
X0096926Y0263557D01*
X0096926Y0262958D02*
X0036382Y0262958D01*
X0036757Y0262360D02*
X0056840Y0262360D01*
X0056264Y0262121D02*
X0057618Y0262682D01*
X0059082Y0262682D01*
X0060436Y0262121D01*
X0061471Y0261086D01*
X0062032Y0259732D01*
X0062032Y0258268D01*
X0061471Y0256914D01*
X0060436Y0255879D01*
X0059082Y0255318D01*
X0057618Y0255318D01*
X0056264Y0255879D01*
X0055229Y0256914D01*
X0054668Y0258268D01*
X0054668Y0259732D01*
X0055229Y0261086D01*
X0056264Y0262121D01*
X0055904Y0261761D02*
X0036757Y0261761D01*
X0036757Y0261163D02*
X0055306Y0261163D01*
X0055013Y0260564D02*
X0036757Y0260564D01*
X0036757Y0259966D02*
X0054765Y0259966D01*
X0054668Y0259367D02*
X0036757Y0259367D01*
X0036757Y0258769D02*
X0054668Y0258769D01*
X0054708Y0258170D02*
X0036757Y0258170D01*
X0036757Y0257572D02*
X0054956Y0257572D01*
X0055204Y0256973D02*
X0036757Y0256973D01*
X0036757Y0256375D02*
X0055768Y0256375D01*
X0056512Y0255776D02*
X0036757Y0255776D01*
X0036757Y0255178D02*
X0068285Y0255178D01*
X0068814Y0255707D02*
X0066643Y0253536D01*
X0066643Y0250464D01*
X0068814Y0248293D01*
X0071886Y0248293D01*
X0074057Y0250464D01*
X0074057Y0253536D01*
X0071886Y0255707D01*
X0068814Y0255707D01*
X0067687Y0254579D02*
X0036757Y0254579D01*
X0036757Y0253981D02*
X0067088Y0253981D01*
X0066643Y0253382D02*
X0036757Y0253382D01*
X0036757Y0252784D02*
X0066643Y0252784D01*
X0066643Y0252185D02*
X0036757Y0252185D01*
X0036757Y0251587D02*
X0066643Y0251587D01*
X0066643Y0250988D02*
X0036757Y0250988D01*
X0036757Y0250390D02*
X0066718Y0250390D01*
X0067316Y0249791D02*
X0036757Y0249791D01*
X0036757Y0249193D02*
X0067915Y0249193D01*
X0068513Y0248594D02*
X0036757Y0248594D01*
X0036757Y0247996D02*
X0150658Y0247996D01*
X0150658Y0248594D02*
X0085187Y0248594D01*
X0084886Y0248293D02*
X0087057Y0250464D01*
X0087057Y0253536D01*
X0084886Y0255707D01*
X0081814Y0255707D01*
X0079643Y0253536D01*
X0079643Y0250464D01*
X0081814Y0248293D01*
X0084886Y0248293D01*
X0085785Y0249193D02*
X0097344Y0249193D01*
X0096926Y0249791D02*
X0086384Y0249791D01*
X0086982Y0250390D02*
X0096926Y0250390D01*
X0096926Y0250988D02*
X0087057Y0250988D01*
X0087057Y0251587D02*
X0096926Y0251587D01*
X0096926Y0252185D02*
X0087057Y0252185D01*
X0087057Y0252784D02*
X0096926Y0252784D01*
X0096926Y0253382D02*
X0087057Y0253382D01*
X0086612Y0253981D02*
X0096926Y0253981D01*
X0096926Y0254579D02*
X0086013Y0254579D01*
X0085415Y0255178D02*
X0096926Y0255178D01*
X0096926Y0255776D02*
X0060188Y0255776D01*
X0060932Y0256375D02*
X0096926Y0256375D01*
X0096926Y0256973D02*
X0061496Y0256973D01*
X0061744Y0257572D02*
X0096926Y0257572D01*
X0096926Y0258170D02*
X0061992Y0258170D01*
X0062032Y0258769D02*
X0096926Y0258769D01*
X0096926Y0259367D02*
X0062032Y0259367D01*
X0061935Y0259966D02*
X0096926Y0259966D01*
X0096926Y0260564D02*
X0061687Y0260564D01*
X0061394Y0261163D02*
X0096926Y0261163D01*
X0096926Y0261761D02*
X0060796Y0261761D01*
X0059860Y0262360D02*
X0096926Y0262360D01*
X0081285Y0255178D02*
X0072415Y0255178D01*
X0073013Y0254579D02*
X0080687Y0254579D01*
X0080088Y0253981D02*
X0073612Y0253981D01*
X0074057Y0253382D02*
X0079643Y0253382D01*
X0079643Y0252784D02*
X0074057Y0252784D01*
X0074057Y0252185D02*
X0079643Y0252185D01*
X0079643Y0251587D02*
X0074057Y0251587D01*
X0074057Y0250988D02*
X0079643Y0250988D01*
X0079718Y0250390D02*
X0073982Y0250390D01*
X0073384Y0249791D02*
X0080316Y0249791D01*
X0080915Y0249193D02*
X0072785Y0249193D01*
X0072187Y0248594D02*
X0081513Y0248594D01*
X0080814Y0236207D02*
X0078643Y0234036D01*
X0078643Y0230964D01*
X0080814Y0228793D01*
X0083886Y0228793D01*
X0086057Y0230964D01*
X0086057Y0234036D01*
X0083886Y0236207D01*
X0080814Y0236207D01*
X0080633Y0236025D02*
X0058960Y0236025D01*
X0058582Y0236182D02*
X0057118Y0236182D01*
X0055764Y0235621D01*
X0054729Y0234586D01*
X0054168Y0233232D01*
X0054168Y0231768D01*
X0054729Y0230414D01*
X0055764Y0229379D01*
X0057118Y0228818D01*
X0058582Y0228818D01*
X0059936Y0229379D01*
X0060971Y0230414D01*
X0061532Y0231768D01*
X0061532Y0233232D01*
X0060971Y0234586D01*
X0059936Y0235621D01*
X0058582Y0236182D01*
X0060130Y0235427D02*
X0080034Y0235427D01*
X0079436Y0234828D02*
X0060729Y0234828D01*
X0061119Y0234230D02*
X0078837Y0234230D01*
X0078643Y0233631D02*
X0061367Y0233631D01*
X0061532Y0233033D02*
X0078643Y0233033D01*
X0078643Y0232434D02*
X0061532Y0232434D01*
X0061532Y0231836D02*
X0078643Y0231836D01*
X0078643Y0231237D02*
X0061312Y0231237D01*
X0061064Y0230639D02*
X0078969Y0230639D01*
X0079567Y0230040D02*
X0060597Y0230040D01*
X0059999Y0229442D02*
X0080166Y0229442D01*
X0080764Y0228843D02*
X0058643Y0228843D01*
X0057057Y0228843D02*
X0047365Y0228843D01*
X0047963Y0229442D02*
X0055701Y0229442D01*
X0055103Y0230040D02*
X0048262Y0230040D01*
X0048446Y0230639D02*
X0054636Y0230639D01*
X0054388Y0231237D02*
X0048446Y0231237D01*
X0048314Y0231836D02*
X0054168Y0231836D01*
X0054168Y0232434D02*
X0048066Y0232434D01*
X0047489Y0233033D02*
X0054168Y0233033D01*
X0054333Y0233631D02*
X0043709Y0233631D01*
X0043110Y0234230D02*
X0054581Y0234230D01*
X0054971Y0234828D02*
X0042512Y0234828D01*
X0041913Y0235427D02*
X0055570Y0235427D01*
X0056740Y0236025D02*
X0041315Y0236025D01*
X0039130Y0234230D02*
X0031119Y0234230D01*
X0031367Y0233631D02*
X0039729Y0233631D01*
X0040327Y0233033D02*
X0031532Y0233033D01*
X0031532Y0232434D02*
X0040926Y0232434D01*
X0038532Y0234828D02*
X0030729Y0234828D01*
X0030130Y0235427D02*
X0037933Y0235427D01*
X0037335Y0236025D02*
X0028960Y0236025D01*
X0026740Y0236025D02*
X0017057Y0236025D01*
X0017057Y0236536D02*
X0014886Y0238707D01*
X0011814Y0238707D01*
X0009643Y0236536D01*
X0009643Y0233464D01*
X0011814Y0231293D01*
X0014886Y0231293D01*
X0017057Y0233464D01*
X0017057Y0236536D01*
X0016969Y0236624D02*
X0036736Y0236624D01*
X0036138Y0237222D02*
X0016370Y0237222D01*
X0015772Y0237821D02*
X0035539Y0237821D01*
X0034941Y0238419D02*
X0015173Y0238419D01*
X0014886Y0241293D02*
X0011814Y0241293D01*
X0009643Y0243464D01*
X0009643Y0246536D01*
X0011814Y0248707D01*
X0014886Y0248707D01*
X0017057Y0246536D01*
X0017057Y0243464D01*
X0014886Y0241293D01*
X0015005Y0241412D02*
X0033943Y0241412D01*
X0033943Y0242010D02*
X0015603Y0242010D01*
X0016202Y0242609D02*
X0033943Y0242609D01*
X0033943Y0243208D02*
X0016800Y0243208D01*
X0017057Y0243806D02*
X0033943Y0243806D01*
X0033943Y0244405D02*
X0017057Y0244405D01*
X0017057Y0245003D02*
X0033943Y0245003D01*
X0033943Y0245602D02*
X0017057Y0245602D01*
X0017057Y0246200D02*
X0033943Y0246200D01*
X0033943Y0246799D02*
X0016794Y0246799D01*
X0016196Y0247397D02*
X0033943Y0247397D01*
X0033943Y0247996D02*
X0015597Y0247996D01*
X0014998Y0248594D02*
X0033943Y0248594D01*
X0033943Y0249193D02*
X0005950Y0249193D01*
X0005950Y0249791D02*
X0033943Y0249791D01*
X0033943Y0250390D02*
X0005950Y0250390D01*
X0005950Y0250988D02*
X0033943Y0250988D01*
X0033943Y0251587D02*
X0005950Y0251587D01*
X0005950Y0252185D02*
X0033943Y0252185D01*
X0033943Y0252784D02*
X0005950Y0252784D01*
X0005950Y0253382D02*
X0033943Y0253382D01*
X0033943Y0253981D02*
X0005950Y0253981D01*
X0005950Y0254579D02*
X0033943Y0254579D01*
X0033943Y0255178D02*
X0005950Y0255178D01*
X0005950Y0255776D02*
X0026512Y0255776D01*
X0026264Y0255879D02*
X0027618Y0255318D01*
X0029082Y0255318D01*
X0030436Y0255879D01*
X0031471Y0256914D01*
X0032032Y0258268D01*
X0032032Y0259732D01*
X0031471Y0261086D01*
X0030436Y0262121D01*
X0029082Y0262682D01*
X0027618Y0262682D01*
X0026264Y0262121D01*
X0025229Y0261086D01*
X0024668Y0259732D01*
X0024668Y0258268D01*
X0025229Y0256914D01*
X0026264Y0255879D01*
X0025768Y0256375D02*
X0005950Y0256375D01*
X0005950Y0256973D02*
X0025204Y0256973D01*
X0024956Y0257572D02*
X0005950Y0257572D01*
X0005950Y0258170D02*
X0024708Y0258170D01*
X0024668Y0258769D02*
X0005950Y0258769D01*
X0005950Y0259367D02*
X0024668Y0259367D01*
X0024765Y0259966D02*
X0005950Y0259966D01*
X0005950Y0260564D02*
X0025013Y0260564D01*
X0025306Y0261163D02*
X0005950Y0261163D01*
X0005950Y0261761D02*
X0025904Y0261761D01*
X0026840Y0262360D02*
X0005950Y0262360D01*
X0005950Y0262958D02*
X0032402Y0262958D01*
X0033000Y0262360D02*
X0029860Y0262360D01*
X0030796Y0261761D02*
X0033599Y0261761D01*
X0033943Y0261163D02*
X0031394Y0261163D01*
X0031687Y0260564D02*
X0033943Y0260564D01*
X0033943Y0259966D02*
X0031935Y0259966D01*
X0032032Y0259367D02*
X0033943Y0259367D01*
X0033943Y0258769D02*
X0032032Y0258769D01*
X0031992Y0258170D02*
X0033943Y0258170D01*
X0033943Y0257572D02*
X0031744Y0257572D01*
X0031496Y0256973D02*
X0033943Y0256973D01*
X0033943Y0256375D02*
X0030932Y0256375D01*
X0030188Y0255776D02*
X0033943Y0255776D01*
X0035350Y0262000D02*
X0035350Y0240000D01*
X0044350Y0231000D01*
X0045850Y0231000D01*
X0029350Y0231000D01*
X0027850Y0232500D01*
X0024168Y0232434D02*
X0016027Y0232434D01*
X0015428Y0231836D02*
X0024168Y0231836D01*
X0024388Y0231237D02*
X0005950Y0231237D01*
X0005950Y0230639D02*
X0024636Y0230639D01*
X0025103Y0230040D02*
X0005950Y0230040D01*
X0005950Y0229442D02*
X0025701Y0229442D01*
X0027057Y0228843D02*
X0005950Y0228843D01*
X0005950Y0228245D02*
X0096926Y0228245D01*
X0096926Y0228843D02*
X0083936Y0228843D01*
X0084534Y0229442D02*
X0096926Y0229442D01*
X0096926Y0230040D02*
X0085133Y0230040D01*
X0085731Y0230639D02*
X0096926Y0230639D01*
X0096926Y0231237D02*
X0086057Y0231237D01*
X0086057Y0231836D02*
X0096926Y0231836D01*
X0096926Y0232434D02*
X0086057Y0232434D01*
X0086057Y0233033D02*
X0096926Y0233033D01*
X0096926Y0233631D02*
X0086057Y0233631D01*
X0085863Y0234230D02*
X0096926Y0234230D01*
X0096926Y0234828D02*
X0085264Y0234828D01*
X0084666Y0235427D02*
X0096926Y0235427D01*
X0097424Y0236025D02*
X0084067Y0236025D01*
X0096926Y0227646D02*
X0005950Y0227646D01*
X0005950Y0227048D02*
X0096926Y0227048D01*
X0056318Y0225851D02*
X0029382Y0225851D01*
X0030305Y0225252D02*
X0055395Y0225252D01*
X0054797Y0224654D02*
X0030903Y0224654D01*
X0031191Y0224055D02*
X0054509Y0224055D01*
X0054261Y0223457D02*
X0031439Y0223457D01*
X0031532Y0222858D02*
X0054168Y0222858D01*
X0054168Y0222260D02*
X0031532Y0222260D01*
X0031488Y0221661D02*
X0054212Y0221661D01*
X0054460Y0221063D02*
X0031240Y0221063D01*
X0030992Y0220464D02*
X0054708Y0220464D01*
X0055277Y0219866D02*
X0030423Y0219866D01*
X0029666Y0219267D02*
X0056034Y0219267D01*
X0044335Y0228843D02*
X0028643Y0228843D01*
X0029999Y0229442D02*
X0043737Y0229442D01*
X0034342Y0239018D02*
X0005950Y0239018D01*
X0005950Y0239616D02*
X0033943Y0239616D01*
X0033943Y0240215D02*
X0005950Y0240215D01*
X0005950Y0240813D02*
X0033943Y0240813D01*
X0036757Y0240813D02*
X0155213Y0240813D01*
X0154259Y0241412D02*
X0036757Y0241412D01*
X0036757Y0242010D02*
X0153661Y0242010D01*
X0153062Y0242609D02*
X0036757Y0242609D01*
X0036757Y0243208D02*
X0152464Y0243208D01*
X0151970Y0243806D02*
X0036757Y0243806D01*
X0036757Y0244405D02*
X0151723Y0244405D01*
X0151475Y0245003D02*
X0036757Y0245003D01*
X0036757Y0245602D02*
X0151227Y0245602D01*
X0150979Y0246200D02*
X0036757Y0246200D01*
X0036757Y0246799D02*
X0150731Y0246799D01*
X0150658Y0247397D02*
X0036757Y0247397D01*
X0037125Y0240215D02*
X0156658Y0240215D01*
X0162872Y0240215D02*
X0240861Y0240215D01*
X0239416Y0240813D02*
X0164317Y0240813D01*
X0165271Y0241412D02*
X0238462Y0241412D01*
X0237864Y0242010D02*
X0165870Y0242010D01*
X0166468Y0242609D02*
X0237265Y0242609D01*
X0236667Y0243208D02*
X0167067Y0243208D01*
X0167560Y0243806D02*
X0236173Y0243806D01*
X0235925Y0244405D02*
X0167808Y0244405D01*
X0168056Y0245003D02*
X0235677Y0245003D01*
X0235429Y0245602D02*
X0168304Y0245602D01*
X0168552Y0246200D02*
X0235182Y0246200D01*
X0234934Y0246799D02*
X0168800Y0246799D01*
X0168872Y0247397D02*
X0234861Y0247397D01*
X0234861Y0247996D02*
X0168872Y0247996D01*
X0168872Y0248594D02*
X0234861Y0248594D01*
X0234861Y0249193D02*
X0168872Y0249193D01*
X0168872Y0249791D02*
X0234861Y0249791D01*
X0234861Y0250390D02*
X0168872Y0250390D01*
X0168710Y0250988D02*
X0235023Y0250988D01*
X0235271Y0251587D02*
X0168462Y0251587D01*
X0168215Y0252185D02*
X0235519Y0252185D01*
X0235767Y0252784D02*
X0167967Y0252784D01*
X0167719Y0253382D02*
X0236015Y0253382D01*
X0236284Y0253981D02*
X0167449Y0253981D01*
X0166851Y0254579D02*
X0236883Y0254579D01*
X0237481Y0255178D02*
X0166252Y0255178D01*
X0165654Y0255776D02*
X0238080Y0255776D01*
X0238678Y0256375D02*
X0165055Y0256375D01*
X0163796Y0256973D02*
X0239937Y0256973D01*
X0241382Y0257572D02*
X0162351Y0257572D01*
X0162984Y0261761D02*
X0240749Y0261761D01*
X0239304Y0262360D02*
X0164429Y0262360D01*
X0165318Y0262958D02*
X0238416Y0262958D01*
X0237817Y0263557D02*
X0165916Y0263557D01*
X0166515Y0264155D02*
X0237219Y0264155D01*
X0236620Y0264754D02*
X0167113Y0264754D01*
X0167579Y0265352D02*
X0236154Y0265352D01*
X0235906Y0265951D02*
X0167827Y0265951D01*
X0168075Y0266549D02*
X0235658Y0266549D01*
X0235410Y0267148D02*
X0168323Y0267148D01*
X0168571Y0267746D02*
X0235162Y0267746D01*
X0234914Y0268345D02*
X0168819Y0268345D01*
X0168872Y0268943D02*
X0234861Y0268943D01*
X0234861Y0269542D02*
X0168872Y0269542D01*
X0168872Y0270141D02*
X0234861Y0270141D01*
X0234861Y0270739D02*
X0168872Y0270739D01*
X0168872Y0271338D02*
X0234861Y0271338D01*
X0234861Y0271936D02*
X0168872Y0271936D01*
X0168691Y0272535D02*
X0235042Y0272535D01*
X0235290Y0273133D02*
X0168443Y0273133D01*
X0168195Y0273732D02*
X0235538Y0273732D01*
X0235786Y0274330D02*
X0167947Y0274330D01*
X0167700Y0274929D02*
X0236034Y0274929D01*
X0236330Y0275527D02*
X0167403Y0275527D01*
X0166805Y0276126D02*
X0236929Y0276126D01*
X0237527Y0276724D02*
X0166206Y0276724D01*
X0165607Y0277323D02*
X0238126Y0277323D01*
X0238724Y0277921D02*
X0165009Y0277921D01*
X0163684Y0278520D02*
X0240049Y0278520D01*
X0241494Y0279118D02*
X0162239Y0279118D01*
X0162859Y0282709D02*
X0240875Y0282709D01*
X0239430Y0283308D02*
X0164304Y0283308D01*
X0165266Y0283906D02*
X0238468Y0283906D01*
X0237869Y0284505D02*
X0165864Y0284505D01*
X0166463Y0285103D02*
X0237271Y0285103D01*
X0236672Y0285702D02*
X0167061Y0285702D01*
X0167558Y0286300D02*
X0236176Y0286300D01*
X0235928Y0286899D02*
X0167806Y0286899D01*
X0168054Y0287497D02*
X0235680Y0287497D01*
X0235432Y0288096D02*
X0168302Y0288096D01*
X0168550Y0288694D02*
X0235184Y0288694D01*
X0234936Y0289293D02*
X0168797Y0289293D01*
X0168872Y0289891D02*
X0234861Y0289891D01*
X0234861Y0290490D02*
X0168872Y0290490D01*
X0168872Y0291088D02*
X0234861Y0291088D01*
X0234861Y0291687D02*
X0168872Y0291687D01*
X0168872Y0292285D02*
X0234861Y0292285D01*
X0234861Y0292884D02*
X0168872Y0292884D01*
X0168713Y0293482D02*
X0235021Y0293482D01*
X0235269Y0294081D02*
X0168465Y0294081D01*
X0168217Y0294679D02*
X0235517Y0294679D01*
X0235764Y0295278D02*
X0167969Y0295278D01*
X0167721Y0295877D02*
X0236012Y0295877D01*
X0236278Y0296475D02*
X0167455Y0296475D01*
X0166857Y0297074D02*
X0236877Y0297074D01*
X0237475Y0297672D02*
X0166258Y0297672D01*
X0165660Y0298271D02*
X0238074Y0298271D01*
X0238672Y0298869D02*
X0165061Y0298869D01*
X0163810Y0299468D02*
X0239924Y0299468D01*
X0241369Y0300066D02*
X0162365Y0300066D01*
X0157166Y0300066D02*
X0065154Y0300066D01*
X0065154Y0299468D02*
X0155721Y0299468D01*
X0154470Y0298869D02*
X0065154Y0298869D01*
X0065154Y0298271D02*
X0153871Y0298271D01*
X0153273Y0297672D02*
X0065154Y0297672D01*
X0065154Y0297074D02*
X0152674Y0297074D01*
X0152076Y0296475D02*
X0065154Y0296475D01*
X0065154Y0295877D02*
X0151810Y0295877D01*
X0151562Y0295278D02*
X0065154Y0295278D01*
X0065154Y0294679D02*
X0151314Y0294679D01*
X0151066Y0294081D02*
X0065154Y0294081D01*
X0065154Y0293482D02*
X0150818Y0293482D01*
X0150658Y0292884D02*
X0065154Y0292884D01*
X0065154Y0292285D02*
X0150658Y0292285D01*
X0150658Y0291687D02*
X0065154Y0291687D01*
X0065154Y0291088D02*
X0150658Y0291088D01*
X0150658Y0290490D02*
X0065154Y0290490D01*
X0065154Y0289891D02*
X0150658Y0289891D01*
X0150733Y0289293D02*
X0065154Y0289293D01*
X0065154Y0288694D02*
X0150981Y0288694D01*
X0151229Y0288096D02*
X0065154Y0288096D01*
X0065154Y0287894D02*
X0064505Y0287245D01*
X0049809Y0287245D01*
X0049160Y0287894D01*
X0049160Y0302590D01*
X0049809Y0303239D01*
X0064505Y0303239D01*
X0065154Y0302590D01*
X0065154Y0287894D01*
X0064757Y0287497D02*
X0151477Y0287497D01*
X0151725Y0286899D02*
X0034377Y0286899D01*
X0035105Y0287497D02*
X0049557Y0287497D01*
X0049160Y0288096D02*
X0035703Y0288096D01*
X0036302Y0288694D02*
X0049160Y0288694D01*
X0049160Y0289293D02*
X0036766Y0289293D01*
X0037112Y0289891D02*
X0049160Y0289891D01*
X0049160Y0290490D02*
X0037458Y0290490D01*
X0037803Y0291088D02*
X0049160Y0291088D01*
X0049160Y0291687D02*
X0038030Y0291687D01*
X0038190Y0292285D02*
X0049160Y0292285D01*
X0049160Y0292884D02*
X0038351Y0292884D01*
X0038511Y0293482D02*
X0049160Y0293482D01*
X0049160Y0294081D02*
X0038622Y0294081D01*
X0038622Y0294679D02*
X0049160Y0294679D01*
X0049160Y0295278D02*
X0038622Y0295278D01*
X0038622Y0295877D02*
X0049160Y0295877D01*
X0049160Y0296475D02*
X0038622Y0296475D01*
X0038492Y0297074D02*
X0049160Y0297074D01*
X0049160Y0297672D02*
X0038331Y0297672D01*
X0038171Y0298271D02*
X0049160Y0298271D01*
X0049160Y0298869D02*
X0038011Y0298869D01*
X0037762Y0299468D02*
X0049160Y0299468D01*
X0049160Y0300066D02*
X0037416Y0300066D01*
X0037071Y0300665D02*
X0049160Y0300665D01*
X0049160Y0301263D02*
X0036725Y0301263D01*
X0036230Y0301862D02*
X0049160Y0301862D01*
X0049160Y0302460D02*
X0035632Y0302460D01*
X0035033Y0303059D02*
X0049628Y0303059D01*
X0052736Y0304854D02*
X0031975Y0304854D01*
X0033216Y0304256D02*
X0053334Y0304256D01*
X0060980Y0304256D02*
X0254241Y0304256D01*
X0254364Y0304854D02*
X0061578Y0304854D01*
X0062177Y0305453D02*
X0254364Y0305453D01*
X0254364Y0306051D02*
X0062775Y0306051D01*
X0063374Y0306650D02*
X0254364Y0306650D01*
X0254364Y0307248D02*
X0063972Y0307248D01*
X0064571Y0307847D02*
X0254364Y0307847D01*
X0254364Y0308445D02*
X0065154Y0308445D01*
X0065154Y0309044D02*
X0254364Y0309044D01*
X0254364Y0309642D02*
X0065154Y0309642D01*
X0065154Y0310241D02*
X0254364Y0310241D01*
X0254364Y0310839D02*
X0065154Y0310839D01*
X0065154Y0311438D02*
X0254364Y0311438D01*
X0254364Y0312036D02*
X0065154Y0312036D01*
X0065154Y0312635D02*
X0254364Y0312635D01*
X0254364Y0313233D02*
X0065154Y0313233D01*
X0065154Y0313832D02*
X0254364Y0313832D01*
X0254364Y0314430D02*
X0065154Y0314430D01*
X0065154Y0315029D02*
X0254364Y0315029D01*
X0254364Y0315627D02*
X0064581Y0315627D01*
X0063983Y0316226D02*
X0254364Y0316226D01*
X0254364Y0316824D02*
X0063384Y0316824D01*
X0062786Y0317423D02*
X0254364Y0317423D01*
X0254364Y0318021D02*
X0062187Y0318021D01*
X0061589Y0318620D02*
X0254364Y0318620D01*
X0254364Y0319218D02*
X0060990Y0319218D01*
X0060640Y0320415D02*
X0254364Y0320415D01*
X0254364Y0319817D02*
X0034235Y0319817D01*
X0035023Y0320415D02*
X0053674Y0320415D01*
X0053076Y0321014D02*
X0035622Y0321014D01*
X0036220Y0321612D02*
X0052477Y0321612D01*
X0051879Y0322211D02*
X0036719Y0322211D01*
X0037065Y0322810D02*
X0051280Y0322810D01*
X0050682Y0323408D02*
X0037410Y0323408D01*
X0037756Y0324007D02*
X0050083Y0324007D01*
X0049485Y0324605D02*
X0038008Y0324605D01*
X0038168Y0325204D02*
X0049160Y0325204D01*
X0049160Y0325802D02*
X0038329Y0325802D01*
X0038489Y0326401D02*
X0049160Y0326401D01*
X0049160Y0326999D02*
X0038622Y0326999D01*
X0038622Y0327598D02*
X0049160Y0327598D01*
X0049160Y0328196D02*
X0038622Y0328196D01*
X0038622Y0328795D02*
X0049160Y0328795D01*
X0049160Y0329393D02*
X0038622Y0329393D01*
X0038514Y0329992D02*
X0049160Y0329992D01*
X0049160Y0330590D02*
X0038353Y0330590D01*
X0038193Y0331189D02*
X0049160Y0331189D01*
X0049393Y0331787D02*
X0038033Y0331787D01*
X0037809Y0332386D02*
X0049991Y0332386D01*
X0050590Y0332984D02*
X0037463Y0332984D01*
X0037118Y0333583D02*
X0051188Y0333583D01*
X0051787Y0334181D02*
X0036772Y0334181D01*
X0036312Y0334780D02*
X0052385Y0334780D01*
X0052984Y0335378D02*
X0035714Y0335378D01*
X0035115Y0335977D02*
X0053582Y0335977D01*
X0063034Y0322810D02*
X0254364Y0322810D01*
X0254364Y0322211D02*
X0062435Y0322211D01*
X0061837Y0321612D02*
X0254364Y0321612D01*
X0254364Y0321014D02*
X0061238Y0321014D01*
X0053324Y0319218D02*
X0033198Y0319218D01*
X0031937Y0318620D02*
X0052726Y0318620D01*
X0064686Y0303059D02*
X0253044Y0303059D01*
X0253643Y0303657D02*
X0034253Y0303657D01*
X0033340Y0286300D02*
X0151973Y0286300D01*
X0152470Y0285702D02*
X0032243Y0285702D01*
X0030009Y0285103D02*
X0153068Y0285103D01*
X0155847Y0278520D02*
X0015073Y0278520D01*
X0014886Y0278707D02*
X0011814Y0278707D01*
X0009643Y0276536D01*
X0009643Y0273464D01*
X0011814Y0271293D01*
X0014886Y0271293D01*
X0017057Y0273464D01*
X0017057Y0276536D01*
X0014886Y0278707D01*
X0015671Y0277921D02*
X0154522Y0277921D01*
X0153923Y0277323D02*
X0016270Y0277323D01*
X0016868Y0276724D02*
X0153325Y0276724D01*
X0152726Y0276126D02*
X0017057Y0276126D01*
X0017057Y0275527D02*
X0152128Y0275527D01*
X0151831Y0274929D02*
X0017057Y0274929D01*
X0017057Y0274330D02*
X0151583Y0274330D01*
X0151335Y0273732D02*
X0017057Y0273732D01*
X0016726Y0273133D02*
X0151087Y0273133D01*
X0157292Y0279118D02*
X0005950Y0279118D01*
X0005950Y0278520D02*
X0011627Y0278520D01*
X0011029Y0277921D02*
X0005950Y0277921D01*
X0005950Y0277323D02*
X0010430Y0277323D01*
X0009832Y0276724D02*
X0005950Y0276724D01*
X0005950Y0276126D02*
X0009643Y0276126D01*
X0009643Y0275527D02*
X0005950Y0275527D01*
X0005950Y0274929D02*
X0009643Y0274929D01*
X0009643Y0274330D02*
X0005950Y0274330D01*
X0005950Y0273732D02*
X0009643Y0273732D01*
X0009974Y0273133D02*
X0005950Y0273133D01*
X0005950Y0272535D02*
X0010573Y0272535D01*
X0011171Y0271936D02*
X0005950Y0271936D01*
X0005950Y0271338D02*
X0011770Y0271338D01*
X0014930Y0271338D02*
X0025481Y0271338D01*
X0025085Y0270739D02*
X0005950Y0270739D01*
X0005950Y0270141D02*
X0024837Y0270141D01*
X0024668Y0269542D02*
X0005950Y0269542D01*
X0005950Y0268943D02*
X0024668Y0268943D01*
X0024668Y0268345D02*
X0005950Y0268345D01*
X0005950Y0267746D02*
X0024884Y0267746D01*
X0025132Y0267148D02*
X0005950Y0267148D01*
X0005950Y0266549D02*
X0025594Y0266549D01*
X0026192Y0265951D02*
X0005950Y0265951D01*
X0005950Y0265352D02*
X0027535Y0265352D01*
X0029165Y0265352D02*
X0030008Y0265352D01*
X0030606Y0264754D02*
X0005950Y0264754D01*
X0005950Y0264155D02*
X0031205Y0264155D01*
X0031803Y0263557D02*
X0005950Y0263557D01*
X0015529Y0271936D02*
X0026079Y0271936D01*
X0027262Y0272535D02*
X0016127Y0272535D01*
X0028350Y0269000D02*
X0035350Y0262000D01*
X0011702Y0248594D02*
X0005950Y0248594D01*
X0005950Y0247996D02*
X0011103Y0247996D01*
X0010504Y0247397D02*
X0005950Y0247397D01*
X0005950Y0246799D02*
X0009906Y0246799D01*
X0009643Y0246200D02*
X0005950Y0246200D01*
X0005950Y0245602D02*
X0009643Y0245602D01*
X0009643Y0245003D02*
X0005950Y0245003D01*
X0005950Y0244405D02*
X0009643Y0244405D01*
X0009643Y0243806D02*
X0005950Y0243806D01*
X0005950Y0243208D02*
X0009900Y0243208D01*
X0010498Y0242609D02*
X0005950Y0242609D01*
X0005950Y0242010D02*
X0011097Y0242010D01*
X0011695Y0241412D02*
X0005950Y0241412D01*
X0005950Y0238419D02*
X0011527Y0238419D01*
X0010928Y0237821D02*
X0005950Y0237821D01*
X0005950Y0237222D02*
X0010330Y0237222D01*
X0009731Y0236624D02*
X0005950Y0236624D01*
X0005950Y0236025D02*
X0009643Y0236025D01*
X0009643Y0235427D02*
X0005950Y0235427D01*
X0005950Y0234828D02*
X0009643Y0234828D01*
X0009643Y0234230D02*
X0005950Y0234230D01*
X0005950Y0233631D02*
X0009643Y0233631D01*
X0010075Y0233033D02*
X0005950Y0233033D01*
X0005950Y0232434D02*
X0010673Y0232434D01*
X0011272Y0231836D02*
X0005950Y0231836D01*
X0016625Y0233033D02*
X0024168Y0233033D01*
X0024333Y0233631D02*
X0017057Y0233631D01*
X0017057Y0234230D02*
X0024581Y0234230D01*
X0024971Y0234828D02*
X0017057Y0234828D01*
X0017057Y0235427D02*
X0025570Y0235427D01*
X0005950Y0218070D02*
X0396750Y0218070D01*
X0396750Y0227048D02*
X0377009Y0227048D01*
X0375668Y0227646D02*
X0396750Y0227646D01*
X0396750Y0243806D02*
X0367827Y0243806D01*
X0368426Y0244405D02*
X0396750Y0244405D01*
X0396750Y0245003D02*
X0368747Y0245003D01*
X0368946Y0245602D02*
X0396750Y0245602D01*
X0396750Y0246200D02*
X0368946Y0246200D01*
X0368829Y0246799D02*
X0396750Y0246799D01*
X0396750Y0247397D02*
X0368581Y0247397D01*
X0368026Y0247996D02*
X0396750Y0247996D01*
X0396750Y0206698D02*
X0358330Y0206698D01*
X0357449Y0206100D02*
X0396750Y0206100D01*
X0396750Y0204304D02*
X0017057Y0204304D01*
X0017057Y0203706D02*
X0396750Y0203706D01*
X0362805Y0115126D02*
X0355395Y0115126D01*
X0355994Y0114528D02*
X0362206Y0114528D01*
X0364350Y0113000D02*
X0353850Y0113000D01*
X0355458Y0110937D02*
X0362742Y0110937D01*
X0362147Y0111535D02*
X0356053Y0111535D01*
X0365958Y0110937D02*
X0369791Y0110937D01*
X0371500Y0111535D02*
X0366553Y0111535D01*
X0342009Y0060063D02*
X0297528Y0060063D01*
X0297528Y0059465D02*
X0341411Y0059465D01*
X0340812Y0058866D02*
X0296984Y0058866D01*
X0296386Y0058268D02*
X0340214Y0058268D01*
X0258073Y0158219D02*
X0220127Y0158219D01*
X0220839Y0158817D02*
X0257361Y0158817D01*
X0259350Y0160500D02*
X0218850Y0160500D01*
X0216489Y0159416D02*
X0065147Y0159416D01*
X0065147Y0160014D02*
X0216254Y0160014D01*
X0216254Y0160613D02*
X0065147Y0160613D01*
X0065147Y0161211D02*
X0216335Y0161211D01*
X0216583Y0161810D02*
X0065147Y0161810D01*
X0065147Y0162408D02*
X0217087Y0162408D01*
X0218119Y0163007D02*
X0065147Y0163007D01*
X0065147Y0163605D02*
X0219754Y0163605D01*
X0219754Y0164204D02*
X0065147Y0164204D01*
X0065147Y0164803D02*
X0219872Y0164803D01*
X0220120Y0165401D02*
X0065060Y0165401D01*
X0064462Y0166000D02*
X0220678Y0166000D01*
X0222754Y0166598D02*
X0063863Y0166598D01*
X0063265Y0167197D02*
X0222754Y0167197D01*
X0222869Y0167795D02*
X0062666Y0167795D01*
X0062068Y0168394D02*
X0223117Y0168394D01*
X0223671Y0168992D02*
X0061469Y0168992D01*
X0060871Y0169591D02*
X0224820Y0169591D01*
X0225880Y0169591D02*
X0252320Y0169591D01*
X0251171Y0168992D02*
X0227029Y0168992D01*
X0225350Y0167000D02*
X0252850Y0167000D01*
X0256350Y0164000D02*
X0222350Y0164000D01*
X0219951Y0163007D02*
X0219581Y0163007D01*
X0216861Y0158817D02*
X0065147Y0158817D01*
X0064676Y0158219D02*
X0217573Y0158219D01*
X0217451Y0176773D02*
X0192927Y0176773D01*
X0192753Y0176600D02*
X0193402Y0177248D01*
X0193402Y0193913D01*
X0192753Y0194562D01*
X0176088Y0194562D01*
X0175440Y0193913D01*
X0175440Y0177248D01*
X0176088Y0176600D01*
X0192753Y0176600D01*
X0193402Y0177371D02*
X0217221Y0177371D01*
X0217221Y0177970D02*
X0193402Y0177970D01*
X0193402Y0178568D02*
X0217221Y0178568D01*
X0217221Y0179167D02*
X0193402Y0179167D01*
X0193402Y0179765D02*
X0217221Y0179765D01*
X0217221Y0180364D02*
X0193402Y0180364D01*
X0193402Y0180962D02*
X0217221Y0180962D01*
X0217221Y0181561D02*
X0193402Y0181561D01*
X0193402Y0182159D02*
X0217221Y0182159D01*
X0217221Y0182758D02*
X0193402Y0182758D01*
X0193402Y0183356D02*
X0217221Y0183356D01*
X0217221Y0183955D02*
X0193402Y0183955D01*
X0193402Y0184553D02*
X0217221Y0184553D01*
X0217221Y0185152D02*
X0193402Y0185152D01*
X0193402Y0185750D02*
X0217221Y0185750D01*
X0217221Y0186349D02*
X0193402Y0186349D01*
X0193402Y0186947D02*
X0217221Y0186947D01*
X0217221Y0187546D02*
X0193402Y0187546D01*
X0193402Y0188144D02*
X0217221Y0188144D01*
X0217221Y0188743D02*
X0193402Y0188743D01*
X0193402Y0189341D02*
X0217221Y0189341D01*
X0217221Y0189940D02*
X0193402Y0189940D01*
X0193402Y0190539D02*
X0217221Y0190539D01*
X0217221Y0191137D02*
X0193402Y0191137D01*
X0193402Y0191736D02*
X0217221Y0191736D01*
X0217221Y0192334D02*
X0193402Y0192334D01*
X0193402Y0192933D02*
X0217221Y0192933D01*
X0217221Y0193531D02*
X0193402Y0193531D01*
X0193186Y0194130D02*
X0217684Y0194130D01*
X0175656Y0194130D02*
X0151847Y0194130D01*
X0152063Y0193531D02*
X0175440Y0193531D01*
X0175440Y0192933D02*
X0152063Y0192933D01*
X0152063Y0192334D02*
X0175440Y0192334D01*
X0175440Y0191736D02*
X0152063Y0191736D01*
X0152063Y0191137D02*
X0175440Y0191137D01*
X0175440Y0190539D02*
X0152063Y0190539D01*
X0152063Y0189940D02*
X0175440Y0189940D01*
X0175440Y0189341D02*
X0152063Y0189341D01*
X0152063Y0188743D02*
X0175440Y0188743D01*
X0175440Y0188144D02*
X0152063Y0188144D01*
X0152063Y0187546D02*
X0175440Y0187546D01*
X0175440Y0186947D02*
X0152063Y0186947D01*
X0152063Y0186349D02*
X0175440Y0186349D01*
X0175440Y0185750D02*
X0152063Y0185750D01*
X0152063Y0185152D02*
X0175440Y0185152D01*
X0175440Y0184553D02*
X0152063Y0184553D01*
X0152063Y0183955D02*
X0175440Y0183955D01*
X0175440Y0183356D02*
X0152063Y0183356D01*
X0152063Y0182758D02*
X0175440Y0182758D01*
X0175440Y0182159D02*
X0152063Y0182159D01*
X0152063Y0181561D02*
X0175440Y0181561D01*
X0175440Y0180962D02*
X0152063Y0180962D01*
X0152063Y0180364D02*
X0175440Y0180364D01*
X0175440Y0179765D02*
X0152063Y0179765D01*
X0152063Y0179167D02*
X0175440Y0179167D01*
X0175440Y0178568D02*
X0152063Y0178568D01*
X0152063Y0177970D02*
X0175440Y0177970D01*
X0175440Y0177371D02*
X0152063Y0177371D01*
X0151588Y0176773D02*
X0175915Y0176773D01*
X0175918Y0154628D02*
X0151585Y0154628D01*
X0152063Y0154029D02*
X0175440Y0154029D01*
X0175440Y0153431D02*
X0152063Y0153431D01*
X0152063Y0152832D02*
X0175440Y0152832D01*
X0175440Y0152234D02*
X0152063Y0152234D01*
X0152063Y0151635D02*
X0175440Y0151635D01*
X0175440Y0151037D02*
X0152063Y0151037D01*
X0152063Y0150438D02*
X0175440Y0150438D01*
X0175440Y0149840D02*
X0152063Y0149840D01*
X0152063Y0149241D02*
X0175440Y0149241D01*
X0175440Y0148643D02*
X0152063Y0148643D01*
X0152063Y0148044D02*
X0175440Y0148044D01*
X0175440Y0147446D02*
X0152063Y0147446D01*
X0152063Y0146847D02*
X0175440Y0146847D01*
X0175440Y0146249D02*
X0152063Y0146249D01*
X0152063Y0145650D02*
X0175440Y0145650D01*
X0175440Y0145052D02*
X0152063Y0145052D01*
X0152063Y0144453D02*
X0175440Y0144453D01*
X0175440Y0143855D02*
X0152063Y0143855D01*
X0152063Y0143256D02*
X0175440Y0143256D01*
X0175440Y0142658D02*
X0152063Y0142658D01*
X0152063Y0142059D02*
X0175440Y0142059D01*
X0175440Y0141461D02*
X0152063Y0141461D01*
X0152063Y0140862D02*
X0175440Y0140862D01*
X0175440Y0140264D02*
X0152063Y0140264D01*
X0152063Y0139665D02*
X0175440Y0139665D01*
X0175440Y0139067D02*
X0152063Y0139067D01*
X0152063Y0138468D02*
X0175440Y0138468D01*
X0175440Y0137870D02*
X0152063Y0137870D01*
X0151850Y0137271D02*
X0175653Y0137271D01*
X0175643Y0104353D02*
X0151860Y0104353D01*
X0152063Y0103754D02*
X0175440Y0103754D01*
X0175440Y0103156D02*
X0152063Y0103156D01*
X0152063Y0102557D02*
X0175440Y0102557D01*
X0175440Y0101959D02*
X0152063Y0101959D01*
X0152063Y0101360D02*
X0175440Y0101360D01*
X0175440Y0100762D02*
X0152063Y0100762D01*
X0152063Y0100163D02*
X0175440Y0100163D01*
X0175440Y0099565D02*
X0152063Y0099565D01*
X0152063Y0098966D02*
X0175440Y0098966D01*
X0175440Y0098368D02*
X0152063Y0098368D01*
X0152063Y0097769D02*
X0175440Y0097769D01*
X0175440Y0097171D02*
X0152063Y0097171D01*
X0152063Y0096572D02*
X0175440Y0096572D01*
X0175440Y0095974D02*
X0152063Y0095974D01*
X0152063Y0095375D02*
X0175440Y0095375D01*
X0175440Y0094777D02*
X0152063Y0094777D01*
X0152063Y0094178D02*
X0175440Y0094178D01*
X0175440Y0093580D02*
X0152063Y0093580D01*
X0152063Y0092981D02*
X0175440Y0092981D01*
X0175440Y0092383D02*
X0152063Y0092383D01*
X0152063Y0091784D02*
X0175440Y0091784D01*
X0175440Y0091186D02*
X0152063Y0091186D01*
X0152063Y0090587D02*
X0175440Y0090587D01*
X0175440Y0089989D02*
X0152063Y0089989D01*
X0152063Y0089390D02*
X0175440Y0089390D01*
X0175440Y0088792D02*
X0152063Y0088792D01*
X0152063Y0088193D02*
X0175440Y0088193D01*
X0175440Y0087595D02*
X0152063Y0087595D01*
X0151575Y0086996D02*
X0175928Y0086996D01*
X0175971Y0084602D02*
X0151532Y0084602D01*
X0152063Y0084003D02*
X0175440Y0084003D01*
X0175440Y0083405D02*
X0152063Y0083405D01*
X0152063Y0082806D02*
X0175440Y0082806D01*
X0175440Y0082208D02*
X0152063Y0082208D01*
X0152063Y0081609D02*
X0175440Y0081609D01*
X0175440Y0081011D02*
X0152063Y0081011D01*
X0152063Y0080412D02*
X0175440Y0080412D01*
X0175440Y0079814D02*
X0152063Y0079814D01*
X0152063Y0079215D02*
X0175440Y0079215D01*
X0175440Y0078617D02*
X0152063Y0078617D01*
X0152063Y0078018D02*
X0175440Y0078018D01*
X0175440Y0077420D02*
X0152063Y0077420D01*
X0152063Y0076821D02*
X0175440Y0076821D01*
X0175440Y0076223D02*
X0152063Y0076223D01*
X0152063Y0075624D02*
X0175440Y0075624D01*
X0175440Y0075026D02*
X0152063Y0075026D01*
X0152063Y0074427D02*
X0175440Y0074427D01*
X0175440Y0073829D02*
X0152063Y0073829D01*
X0152063Y0073230D02*
X0175440Y0073230D01*
X0175440Y0072632D02*
X0152063Y0072632D01*
X0152063Y0072033D02*
X0175440Y0072033D01*
X0175440Y0071435D02*
X0152063Y0071435D01*
X0152063Y0070836D02*
X0175440Y0070836D01*
X0175440Y0070238D02*
X0152063Y0070238D01*
X0152063Y0069639D02*
X0175440Y0069639D01*
X0175440Y0069041D02*
X0152063Y0069041D01*
X0152063Y0068442D02*
X0175440Y0068442D01*
X0175440Y0067844D02*
X0152063Y0067844D01*
X0151903Y0067245D02*
X0175600Y0067245D01*
X0011796Y0201312D02*
X0005950Y0201312D01*
X0005950Y0201910D02*
X0011197Y0201910D01*
X0010599Y0202509D02*
X0005950Y0202509D01*
X0005950Y0203107D02*
X0010000Y0203107D01*
X0009643Y0203706D02*
X0005950Y0203706D01*
X0005950Y0204304D02*
X0009643Y0204304D01*
X0009643Y0204903D02*
X0005950Y0204903D01*
X0005950Y0205501D02*
X0009643Y0205501D01*
X0009643Y0206100D02*
X0005950Y0206100D01*
X0005950Y0206698D02*
X0009806Y0206698D01*
X0010404Y0207297D02*
X0005950Y0207297D01*
X0005950Y0207895D02*
X0011003Y0207895D01*
X0065154Y0300665D02*
X0250650Y0300665D01*
X0251249Y0301263D02*
X0065154Y0301263D01*
X0065154Y0301862D02*
X0251847Y0301862D01*
X0252446Y0302460D02*
X0065154Y0302460D01*
X0096926Y0339568D02*
X0005950Y0339568D01*
X0005950Y0340166D02*
X0096926Y0340166D01*
X0097163Y0340765D02*
X0005950Y0340765D01*
X0005950Y0341363D02*
X0284376Y0341363D01*
X0284229Y0340765D02*
X0113903Y0340765D01*
X0114140Y0340166D02*
X0284229Y0340166D01*
X0284229Y0339568D02*
X0114140Y0339568D01*
X0114140Y0338969D02*
X0284229Y0338969D01*
X0284229Y0338371D02*
X0114140Y0338371D01*
X0114140Y0337772D02*
X0284229Y0337772D01*
X0284229Y0337174D02*
X0114140Y0337174D01*
X0114140Y0336575D02*
X0284229Y0336575D01*
X0284229Y0335977D02*
X0114140Y0335977D01*
X0114140Y0335378D02*
X0284229Y0335378D01*
X0284229Y0334780D02*
X0114140Y0334780D01*
X0114140Y0334181D02*
X0284229Y0334181D01*
X0284229Y0333583D02*
X0114140Y0333583D01*
X0114140Y0332984D02*
X0284229Y0332984D01*
X0284229Y0332386D02*
X0114140Y0332386D01*
X0114140Y0331787D02*
X0284229Y0331787D01*
X0284229Y0331189D02*
X0114140Y0331189D01*
X0114140Y0330590D02*
X0284229Y0330590D01*
X0284229Y0329992D02*
X0114140Y0329992D01*
X0114140Y0329393D02*
X0284229Y0329393D01*
X0284229Y0328795D02*
X0114140Y0328795D01*
X0114140Y0328196D02*
X0284229Y0328196D01*
X0284229Y0327598D02*
X0114140Y0327598D01*
X0113492Y0353962D02*
X0097574Y0353962D01*
X0096926Y0354610D01*
X0096926Y0370527D01*
X0097574Y0371176D01*
X0113492Y0371176D01*
X0114140Y0370527D01*
X0114140Y0354610D01*
X0113492Y0353962D01*
X0114060Y0354531D02*
X0175131Y0354531D01*
X0175245Y0354483D02*
X0177565Y0354483D01*
X0179708Y0355371D01*
X0181349Y0357012D01*
X0182237Y0359155D01*
X0182237Y0361475D01*
X0181349Y0363618D01*
X0179708Y0365259D01*
X0177565Y0366146D01*
X0175245Y0366146D01*
X0173102Y0365259D01*
X0171461Y0363618D01*
X0170574Y0361475D01*
X0170574Y0359155D01*
X0171461Y0357012D01*
X0173102Y0355371D01*
X0175245Y0354483D01*
X0173686Y0355129D02*
X0114140Y0355129D01*
X0114140Y0355728D02*
X0172745Y0355728D01*
X0172147Y0356326D02*
X0114140Y0356326D01*
X0114140Y0356925D02*
X0171548Y0356925D01*
X0171250Y0357523D02*
X0114140Y0357523D01*
X0114140Y0358122D02*
X0171002Y0358122D01*
X0170754Y0358720D02*
X0114140Y0358720D01*
X0114140Y0359319D02*
X0170574Y0359319D01*
X0170574Y0359917D02*
X0114140Y0359917D01*
X0114140Y0360516D02*
X0170574Y0360516D01*
X0170574Y0361114D02*
X0114140Y0361114D01*
X0114140Y0361713D02*
X0170672Y0361713D01*
X0170920Y0362311D02*
X0114140Y0362311D01*
X0114140Y0362910D02*
X0171168Y0362910D01*
X0171416Y0363508D02*
X0114140Y0363508D01*
X0114140Y0364107D02*
X0171950Y0364107D01*
X0172548Y0364705D02*
X0114140Y0364705D01*
X0114140Y0365304D02*
X0173211Y0365304D01*
X0174656Y0365902D02*
X0114140Y0365902D01*
X0114140Y0366501D02*
X0273686Y0366501D01*
X0273088Y0367099D02*
X0114140Y0367099D01*
X0114140Y0367698D02*
X0139079Y0367698D01*
X0139490Y0367287D02*
X0142561Y0367287D01*
X0144732Y0369459D01*
X0144732Y0372530D01*
X0142561Y0374701D01*
X0139490Y0374701D01*
X0137318Y0372530D01*
X0137318Y0369459D01*
X0139490Y0367287D01*
X0138480Y0368296D02*
X0114140Y0368296D01*
X0114140Y0368895D02*
X0137882Y0368895D01*
X0137318Y0369493D02*
X0114140Y0369493D01*
X0114140Y0370092D02*
X0137318Y0370092D01*
X0137318Y0370690D02*
X0113977Y0370690D01*
X0097089Y0370690D02*
X0056622Y0370690D01*
X0056622Y0370492D02*
X0054450Y0368320D01*
X0051379Y0368320D01*
X0049208Y0370492D01*
X0049208Y0373563D01*
X0051379Y0375735D01*
X0054450Y0375735D01*
X0056622Y0373563D01*
X0056622Y0370492D01*
X0056222Y0370092D02*
X0096926Y0370092D01*
X0096926Y0369493D02*
X0055623Y0369493D01*
X0055025Y0368895D02*
X0096926Y0368895D01*
X0096926Y0368296D02*
X0005950Y0368296D01*
X0005950Y0367698D02*
X0096926Y0367698D01*
X0096926Y0367099D02*
X0005950Y0367099D01*
X0005950Y0366501D02*
X0096926Y0366501D01*
X0096926Y0365902D02*
X0022784Y0365902D01*
X0022195Y0366146D02*
X0019875Y0366146D01*
X0017732Y0365259D01*
X0016091Y0363618D01*
X0015204Y0361475D01*
X0015204Y0359155D01*
X0016091Y0357012D01*
X0017732Y0355371D01*
X0019875Y0354483D01*
X0022195Y0354483D01*
X0024338Y0355371D01*
X0025979Y0357012D01*
X0026867Y0359155D01*
X0026867Y0361475D01*
X0025979Y0363618D01*
X0024338Y0365259D01*
X0022195Y0366146D01*
X0024229Y0365304D02*
X0096926Y0365304D01*
X0096926Y0364705D02*
X0024892Y0364705D01*
X0025490Y0364107D02*
X0096926Y0364107D01*
X0096926Y0363508D02*
X0026024Y0363508D01*
X0026272Y0362910D02*
X0096926Y0362910D01*
X0096926Y0362311D02*
X0026520Y0362311D01*
X0026768Y0361713D02*
X0096926Y0361713D01*
X0096926Y0361114D02*
X0026867Y0361114D01*
X0026867Y0360516D02*
X0096926Y0360516D01*
X0096926Y0359917D02*
X0026867Y0359917D01*
X0026867Y0359319D02*
X0096926Y0359319D01*
X0096926Y0358720D02*
X0026686Y0358720D01*
X0026438Y0358122D02*
X0096926Y0358122D01*
X0096926Y0357523D02*
X0026191Y0357523D01*
X0025892Y0356925D02*
X0096926Y0356925D01*
X0096926Y0356326D02*
X0025293Y0356326D01*
X0024695Y0355728D02*
X0096926Y0355728D01*
X0096926Y0355129D02*
X0023754Y0355129D01*
X0022309Y0354531D02*
X0097006Y0354531D01*
X0137318Y0371289D02*
X0056622Y0371289D01*
X0056622Y0371887D02*
X0137318Y0371887D01*
X0137318Y0372486D02*
X0056622Y0372486D01*
X0056622Y0373084D02*
X0137873Y0373084D01*
X0138471Y0373683D02*
X0056502Y0373683D01*
X0055904Y0374281D02*
X0139070Y0374281D01*
X0142980Y0374281D02*
X0169070Y0374281D01*
X0169490Y0374701D02*
X0167318Y0372530D01*
X0167318Y0369459D01*
X0169490Y0367287D01*
X0172561Y0367287D01*
X0174732Y0369459D01*
X0174732Y0372530D01*
X0172561Y0374701D01*
X0169490Y0374701D01*
X0168471Y0373683D02*
X0143579Y0373683D01*
X0144177Y0373084D02*
X0167873Y0373084D01*
X0167318Y0372486D02*
X0144732Y0372486D01*
X0144732Y0371887D02*
X0167318Y0371887D01*
X0167318Y0371289D02*
X0144732Y0371289D01*
X0144732Y0370690D02*
X0167318Y0370690D01*
X0167318Y0370092D02*
X0144732Y0370092D01*
X0144732Y0369493D02*
X0167318Y0369493D01*
X0167882Y0368895D02*
X0144169Y0368895D01*
X0143570Y0368296D02*
X0168480Y0368296D01*
X0169079Y0367698D02*
X0142972Y0367698D01*
X0172972Y0367698D02*
X0230614Y0367698D01*
X0230877Y0367435D02*
X0233949Y0367435D01*
X0236120Y0369606D01*
X0236120Y0372677D01*
X0233949Y0374849D01*
X0230877Y0374849D01*
X0228706Y0372677D01*
X0228706Y0369606D01*
X0230877Y0367435D01*
X0230016Y0368296D02*
X0173570Y0368296D01*
X0174169Y0368895D02*
X0229417Y0368895D01*
X0228819Y0369493D02*
X0174732Y0369493D01*
X0174732Y0370092D02*
X0228706Y0370092D01*
X0228706Y0370690D02*
X0174732Y0370690D01*
X0174732Y0371289D02*
X0228706Y0371289D01*
X0228706Y0371887D02*
X0174732Y0371887D01*
X0174732Y0372486D02*
X0228706Y0372486D01*
X0229113Y0373084D02*
X0174177Y0373084D01*
X0173579Y0373683D02*
X0229712Y0373683D01*
X0230310Y0374281D02*
X0172980Y0374281D01*
X0178154Y0365902D02*
X0274285Y0365902D01*
X0274883Y0365304D02*
X0179599Y0365304D01*
X0180262Y0364705D02*
X0275329Y0364705D01*
X0275329Y0364768D02*
X0275329Y0363736D01*
X0275724Y0362781D01*
X0276454Y0362051D01*
X0277408Y0361656D01*
X0278441Y0361656D01*
X0279395Y0362051D01*
X0280126Y0362781D01*
X0280521Y0363736D01*
X0280521Y0364768D01*
X0280126Y0365723D01*
X0279395Y0366453D01*
X0278441Y0366848D01*
X0277408Y0366848D01*
X0277345Y0366822D01*
X0260551Y0383616D01*
X0260535Y0383729D01*
X0260148Y0384018D01*
X0259807Y0384360D01*
X0259693Y0384360D01*
X0257883Y0385717D01*
X0257883Y0386422D01*
X0257488Y0387376D01*
X0256758Y0388106D01*
X0255803Y0388502D01*
X0254771Y0388502D01*
X0253816Y0388106D01*
X0253086Y0387376D01*
X0252691Y0386422D01*
X0252691Y0385389D01*
X0253086Y0384435D01*
X0253816Y0383705D01*
X0254771Y0383309D01*
X0255803Y0383309D01*
X0256190Y0383470D01*
X0258300Y0381887D01*
X0275355Y0364832D01*
X0275329Y0364768D01*
X0275329Y0364107D02*
X0180860Y0364107D01*
X0181394Y0363508D02*
X0275423Y0363508D01*
X0275671Y0362910D02*
X0181642Y0362910D01*
X0181890Y0362311D02*
X0276194Y0362311D01*
X0277271Y0361713D02*
X0182138Y0361713D01*
X0182237Y0361114D02*
X0284229Y0361114D01*
X0284229Y0360516D02*
X0182237Y0360516D01*
X0182237Y0359917D02*
X0284229Y0359917D01*
X0284229Y0359319D02*
X0182237Y0359319D01*
X0182056Y0358720D02*
X0284229Y0358720D01*
X0284229Y0358122D02*
X0181809Y0358122D01*
X0181561Y0357523D02*
X0284229Y0357523D01*
X0284229Y0356925D02*
X0181262Y0356925D01*
X0180663Y0356326D02*
X0284229Y0356326D01*
X0284229Y0355728D02*
X0180065Y0355728D01*
X0179124Y0355129D02*
X0284399Y0355129D01*
X0284229Y0355299D02*
X0284878Y0354651D01*
X0300795Y0354651D01*
X0301443Y0355299D01*
X0301443Y0371216D01*
X0300795Y0371865D01*
X0284878Y0371865D01*
X0284229Y0371216D01*
X0284229Y0355299D01*
X0284229Y0361713D02*
X0278578Y0361713D01*
X0279655Y0362311D02*
X0284229Y0362311D01*
X0284229Y0362910D02*
X0280179Y0362910D01*
X0280427Y0363508D02*
X0284229Y0363508D01*
X0284229Y0364107D02*
X0280521Y0364107D01*
X0280521Y0364705D02*
X0284229Y0364705D01*
X0284229Y0365304D02*
X0280299Y0365304D01*
X0279946Y0365902D02*
X0284229Y0365902D01*
X0284229Y0366501D02*
X0279279Y0366501D01*
X0277067Y0367099D02*
X0284229Y0367099D01*
X0284229Y0367698D02*
X0276469Y0367698D01*
X0275870Y0368296D02*
X0284229Y0368296D01*
X0284229Y0368895D02*
X0275272Y0368895D01*
X0274673Y0369493D02*
X0284229Y0369493D01*
X0284229Y0370092D02*
X0274075Y0370092D01*
X0273476Y0370690D02*
X0284229Y0370690D01*
X0284302Y0371289D02*
X0272878Y0371289D01*
X0272279Y0371887D02*
X0328263Y0371887D01*
X0328263Y0371289D02*
X0301371Y0371289D01*
X0301443Y0370690D02*
X0328263Y0370690D01*
X0328263Y0370092D02*
X0301443Y0370092D01*
X0301443Y0369493D02*
X0328327Y0369493D01*
X0328263Y0369557D02*
X0330435Y0367385D01*
X0333506Y0367385D01*
X0335677Y0369557D01*
X0335677Y0372628D01*
X0333506Y0374800D01*
X0330435Y0374800D01*
X0328263Y0372628D01*
X0328263Y0369557D01*
X0328925Y0368895D02*
X0301443Y0368895D01*
X0301443Y0368296D02*
X0329524Y0368296D01*
X0330122Y0367698D02*
X0301443Y0367698D01*
X0301443Y0367099D02*
X0396750Y0367099D01*
X0396750Y0366501D02*
X0301443Y0366501D01*
X0301443Y0365902D02*
X0320467Y0365902D01*
X0321056Y0366146D02*
X0318913Y0365259D01*
X0317272Y0363618D01*
X0316385Y0361475D01*
X0316385Y0359155D01*
X0317272Y0357012D01*
X0318913Y0355371D01*
X0321056Y0354483D01*
X0323376Y0354483D01*
X0325519Y0355371D01*
X0327160Y0357012D01*
X0328048Y0359155D01*
X0328048Y0361475D01*
X0327160Y0363618D01*
X0325519Y0365259D01*
X0323376Y0366146D01*
X0321056Y0366146D01*
X0319022Y0365304D02*
X0301443Y0365304D01*
X0301443Y0364705D02*
X0318360Y0364705D01*
X0317761Y0364107D02*
X0301443Y0364107D01*
X0301443Y0363508D02*
X0317227Y0363508D01*
X0316979Y0362910D02*
X0301443Y0362910D01*
X0301443Y0362311D02*
X0316731Y0362311D01*
X0316483Y0361713D02*
X0301443Y0361713D01*
X0301443Y0361114D02*
X0316385Y0361114D01*
X0316385Y0360516D02*
X0301443Y0360516D01*
X0301443Y0359917D02*
X0316385Y0359917D01*
X0316385Y0359319D02*
X0301443Y0359319D01*
X0301443Y0358720D02*
X0316565Y0358720D01*
X0316813Y0358122D02*
X0301443Y0358122D01*
X0301443Y0357523D02*
X0317061Y0357523D01*
X0317359Y0356925D02*
X0301443Y0356925D01*
X0301443Y0356326D02*
X0317958Y0356326D01*
X0318556Y0355728D02*
X0301443Y0355728D01*
X0301273Y0355129D02*
X0319497Y0355129D01*
X0320942Y0354531D02*
X0177679Y0354531D01*
X0234212Y0367698D02*
X0260614Y0367698D01*
X0260877Y0367435D02*
X0263949Y0367435D01*
X0266120Y0369606D01*
X0266120Y0372677D01*
X0263949Y0374849D01*
X0260877Y0374849D01*
X0258706Y0372677D01*
X0258706Y0369606D01*
X0260877Y0367435D01*
X0260016Y0368296D02*
X0234810Y0368296D01*
X0235409Y0368895D02*
X0259417Y0368895D01*
X0258819Y0369493D02*
X0236007Y0369493D01*
X0236120Y0370092D02*
X0258706Y0370092D01*
X0258706Y0370690D02*
X0236120Y0370690D01*
X0236120Y0371289D02*
X0258706Y0371289D01*
X0258706Y0371887D02*
X0236120Y0371887D01*
X0236120Y0372486D02*
X0258706Y0372486D01*
X0259113Y0373084D02*
X0235713Y0373084D01*
X0235114Y0373683D02*
X0259712Y0373683D01*
X0260310Y0374281D02*
X0234516Y0374281D01*
X0253077Y0384456D02*
X0020974Y0384456D01*
X0021572Y0385055D02*
X0252829Y0385055D01*
X0252691Y0385653D02*
X0022171Y0385653D01*
X0022627Y0386252D02*
X0252691Y0386252D01*
X0252868Y0386850D02*
X0022972Y0386850D01*
X0023318Y0387449D02*
X0253159Y0387449D01*
X0253757Y0388047D02*
X0023663Y0388047D01*
X0023921Y0388646D02*
X0378779Y0388646D01*
X0378619Y0389244D02*
X0024081Y0389244D01*
X0024241Y0389843D02*
X0378459Y0389843D01*
X0378298Y0390441D02*
X0024402Y0390441D01*
X0024562Y0391040D02*
X0378138Y0391040D01*
X0378125Y0391638D02*
X0024575Y0391638D01*
X0024575Y0392237D02*
X0378125Y0392237D01*
X0378125Y0392835D02*
X0024575Y0392835D01*
X0024575Y0393434D02*
X0378125Y0393434D01*
X0378157Y0394032D02*
X0024543Y0394032D01*
X0024382Y0394631D02*
X0378318Y0394631D01*
X0378478Y0395229D02*
X0024222Y0395229D01*
X0024062Y0395828D02*
X0378638Y0395828D01*
X0378799Y0396426D02*
X0023901Y0396426D01*
X0023622Y0397025D02*
X0379078Y0397025D01*
X0379424Y0397623D02*
X0023276Y0397623D01*
X0022931Y0398222D02*
X0379769Y0398222D01*
X0380115Y0398820D02*
X0022585Y0398820D01*
X0022098Y0399419D02*
X0380602Y0399419D01*
X0381200Y0400017D02*
X0021500Y0400017D01*
X0020331Y0383858D02*
X0253663Y0383858D01*
X0255287Y0385906D02*
X0259224Y0382953D01*
X0277925Y0364252D01*
X0272489Y0367698D02*
X0264212Y0367698D01*
X0264810Y0368296D02*
X0271890Y0368296D01*
X0271292Y0368895D02*
X0265409Y0368895D01*
X0266007Y0369493D02*
X0270693Y0369493D01*
X0270095Y0370092D02*
X0266120Y0370092D01*
X0266120Y0370690D02*
X0269496Y0370690D01*
X0268898Y0371289D02*
X0266120Y0371289D01*
X0266120Y0371887D02*
X0268299Y0371887D01*
X0267701Y0372486D02*
X0266120Y0372486D01*
X0265713Y0373084D02*
X0267102Y0373084D01*
X0266504Y0373683D02*
X0265114Y0373683D01*
X0264516Y0374281D02*
X0265905Y0374281D01*
X0265307Y0374880D02*
X0055305Y0374880D01*
X0054707Y0375479D02*
X0264708Y0375479D01*
X0264110Y0376077D02*
X0005950Y0376077D01*
X0005950Y0375479D02*
X0021123Y0375479D01*
X0021379Y0375735D02*
X0019208Y0373563D01*
X0019208Y0370492D01*
X0021379Y0368320D01*
X0024450Y0368320D01*
X0026622Y0370492D01*
X0026622Y0373563D01*
X0024450Y0375735D01*
X0021379Y0375735D01*
X0020525Y0374880D02*
X0005950Y0374880D01*
X0005950Y0374281D02*
X0019926Y0374281D01*
X0019328Y0373683D02*
X0005950Y0373683D01*
X0005950Y0373084D02*
X0019208Y0373084D01*
X0019208Y0372486D02*
X0005950Y0372486D01*
X0005950Y0371887D02*
X0019208Y0371887D01*
X0019208Y0371289D02*
X0005950Y0371289D01*
X0005950Y0370690D02*
X0019208Y0370690D01*
X0019608Y0370092D02*
X0005950Y0370092D01*
X0005950Y0369493D02*
X0020207Y0369493D01*
X0020805Y0368895D02*
X0005950Y0368895D01*
X0005950Y0365902D02*
X0019286Y0365902D01*
X0017841Y0365304D02*
X0005950Y0365304D01*
X0005950Y0364705D02*
X0017178Y0364705D01*
X0016580Y0364107D02*
X0005950Y0364107D01*
X0005950Y0363508D02*
X0016046Y0363508D01*
X0015798Y0362910D02*
X0005950Y0362910D01*
X0005950Y0362311D02*
X0015550Y0362311D01*
X0015302Y0361713D02*
X0005950Y0361713D01*
X0005950Y0361114D02*
X0015204Y0361114D01*
X0015204Y0360516D02*
X0005950Y0360516D01*
X0005950Y0359917D02*
X0015204Y0359917D01*
X0015204Y0359319D02*
X0005950Y0359319D01*
X0005950Y0358720D02*
X0015384Y0358720D01*
X0015632Y0358122D02*
X0005950Y0358122D01*
X0005950Y0357523D02*
X0015879Y0357523D01*
X0016178Y0356925D02*
X0005950Y0356925D01*
X0005950Y0356326D02*
X0016777Y0356326D01*
X0017375Y0355728D02*
X0005950Y0355728D01*
X0005950Y0355129D02*
X0018316Y0355129D01*
X0019761Y0354531D02*
X0005950Y0354531D01*
X0005950Y0353932D02*
X0396750Y0353932D01*
X0396750Y0353334D02*
X0005950Y0353334D01*
X0005950Y0352735D02*
X0396750Y0352735D01*
X0396750Y0352137D02*
X0005950Y0352137D01*
X0005950Y0351538D02*
X0396750Y0351538D01*
X0396750Y0350940D02*
X0005950Y0350940D01*
X0005950Y0350341D02*
X0396750Y0350341D01*
X0396750Y0349743D02*
X0005950Y0349743D01*
X0005950Y0349144D02*
X0396750Y0349144D01*
X0396750Y0348545D02*
X0005950Y0348545D01*
X0005950Y0347947D02*
X0396750Y0347947D01*
X0396750Y0347348D02*
X0005950Y0347348D01*
X0005950Y0346750D02*
X0396750Y0346750D01*
X0396750Y0346151D02*
X0005950Y0346151D01*
X0005950Y0345553D02*
X0396750Y0345553D01*
X0396750Y0344954D02*
X0005950Y0344954D01*
X0005950Y0344356D02*
X0396750Y0344356D01*
X0396750Y0343757D02*
X0005950Y0343757D01*
X0005950Y0343159D02*
X0396750Y0343159D01*
X0396750Y0342560D02*
X0005950Y0342560D01*
X0005950Y0341962D02*
X0396750Y0341962D01*
X0396750Y0341363D02*
X0301296Y0341363D01*
X0301443Y0340765D02*
X0396750Y0340765D01*
X0396750Y0340166D02*
X0301443Y0340166D01*
X0301443Y0339568D02*
X0396750Y0339568D01*
X0396750Y0354531D02*
X0323490Y0354531D01*
X0324935Y0355129D02*
X0396750Y0355129D01*
X0396750Y0355728D02*
X0325876Y0355728D01*
X0326474Y0356326D02*
X0396750Y0356326D01*
X0396750Y0356925D02*
X0327073Y0356925D01*
X0327372Y0357523D02*
X0396750Y0357523D01*
X0396750Y0358122D02*
X0327620Y0358122D01*
X0327868Y0358720D02*
X0396750Y0358720D01*
X0396750Y0359319D02*
X0328048Y0359319D01*
X0328048Y0359917D02*
X0396750Y0359917D01*
X0396750Y0360516D02*
X0328048Y0360516D01*
X0328048Y0361114D02*
X0396750Y0361114D01*
X0396750Y0361713D02*
X0327949Y0361713D01*
X0327701Y0362311D02*
X0396750Y0362311D01*
X0396750Y0362910D02*
X0327453Y0362910D01*
X0327205Y0363508D02*
X0396750Y0363508D01*
X0396750Y0364107D02*
X0326671Y0364107D01*
X0326073Y0364705D02*
X0396750Y0364705D01*
X0396750Y0365304D02*
X0325410Y0365304D01*
X0323965Y0365902D02*
X0396750Y0365902D01*
X0396750Y0367698D02*
X0363818Y0367698D01*
X0363506Y0367385D02*
X0365677Y0369557D01*
X0365677Y0372628D01*
X0363506Y0374800D01*
X0360435Y0374800D01*
X0358263Y0372628D01*
X0358263Y0369557D01*
X0360435Y0367385D01*
X0363506Y0367385D01*
X0364417Y0368296D02*
X0396750Y0368296D01*
X0396750Y0368895D02*
X0365015Y0368895D01*
X0365614Y0369493D02*
X0396750Y0369493D01*
X0396750Y0370092D02*
X0365677Y0370092D01*
X0365677Y0370690D02*
X0396750Y0370690D01*
X0396750Y0371289D02*
X0365677Y0371289D01*
X0365677Y0371887D02*
X0396750Y0371887D01*
X0396750Y0372486D02*
X0365677Y0372486D01*
X0365221Y0373084D02*
X0396750Y0373084D01*
X0396750Y0373683D02*
X0364622Y0373683D01*
X0364024Y0374281D02*
X0396750Y0374281D01*
X0396750Y0374880D02*
X0269287Y0374880D01*
X0269885Y0374281D02*
X0329916Y0374281D01*
X0329318Y0373683D02*
X0270484Y0373683D01*
X0271082Y0373084D02*
X0328719Y0373084D01*
X0328263Y0372486D02*
X0271681Y0372486D01*
X0268688Y0375479D02*
X0396750Y0375479D01*
X0396750Y0376077D02*
X0268090Y0376077D01*
X0267491Y0376676D02*
X0396750Y0376676D01*
X0396750Y0377274D02*
X0266893Y0377274D01*
X0266294Y0377873D02*
X0396750Y0377873D01*
X0396750Y0378471D02*
X0265696Y0378471D01*
X0265097Y0379070D02*
X0396750Y0379070D01*
X0396750Y0379668D02*
X0264499Y0379668D01*
X0263900Y0380267D02*
X0396750Y0380267D01*
X0396750Y0380865D02*
X0263302Y0380865D01*
X0262703Y0381464D02*
X0396750Y0381464D01*
X0396750Y0382062D02*
X0391334Y0382062D01*
X0393258Y0382661D02*
X0396750Y0382661D01*
X0396750Y0383259D02*
X0394294Y0383259D01*
X0395331Y0383858D02*
X0396750Y0383858D01*
X0396750Y0384456D02*
X0395974Y0384456D01*
X0396572Y0385055D02*
X0396750Y0385055D01*
X0386366Y0382062D02*
X0262105Y0382062D01*
X0261506Y0382661D02*
X0384442Y0382661D01*
X0383406Y0383259D02*
X0260908Y0383259D01*
X0260363Y0383858D02*
X0382369Y0383858D01*
X0381726Y0384456D02*
X0259565Y0384456D01*
X0258767Y0385055D02*
X0381128Y0385055D01*
X0380529Y0385653D02*
X0257969Y0385653D01*
X0257883Y0386252D02*
X0380073Y0386252D01*
X0379728Y0386850D02*
X0257706Y0386850D01*
X0257415Y0387449D02*
X0379382Y0387449D01*
X0379037Y0388047D02*
X0256817Y0388047D01*
X0256470Y0383259D02*
X0019294Y0383259D01*
X0018258Y0382661D02*
X0257268Y0382661D01*
X0258066Y0382062D02*
X0016334Y0382062D01*
X0011366Y0382062D02*
X0005950Y0382062D01*
X0005950Y0381464D02*
X0258723Y0381464D01*
X0259322Y0380865D02*
X0005950Y0380865D01*
X0005950Y0380267D02*
X0259920Y0380267D01*
X0260519Y0379668D02*
X0005950Y0379668D01*
X0005950Y0379070D02*
X0261117Y0379070D01*
X0261716Y0378471D02*
X0005950Y0378471D01*
X0005950Y0377873D02*
X0262314Y0377873D01*
X0262913Y0377274D02*
X0005950Y0377274D01*
X0005950Y0376676D02*
X0263511Y0376676D01*
X0334024Y0374281D02*
X0359916Y0374281D01*
X0359318Y0373683D02*
X0334622Y0373683D01*
X0335221Y0373084D02*
X0358719Y0373084D01*
X0358263Y0372486D02*
X0335677Y0372486D01*
X0335677Y0371887D02*
X0358263Y0371887D01*
X0358263Y0371289D02*
X0335677Y0371289D01*
X0335677Y0370690D02*
X0358263Y0370690D01*
X0358263Y0370092D02*
X0335677Y0370092D01*
X0335614Y0369493D02*
X0358327Y0369493D01*
X0358925Y0368895D02*
X0335015Y0368895D01*
X0334417Y0368296D02*
X0359524Y0368296D01*
X0360122Y0367698D02*
X0333818Y0367698D01*
X0250052Y0300066D02*
X0246568Y0300066D01*
X0248013Y0299468D02*
X0249453Y0299468D01*
X0050805Y0368895D02*
X0025025Y0368895D01*
X0025623Y0369493D02*
X0050207Y0369493D01*
X0049608Y0370092D02*
X0026222Y0370092D01*
X0026622Y0370690D02*
X0049208Y0370690D01*
X0049208Y0371289D02*
X0026622Y0371289D01*
X0026622Y0371887D02*
X0049208Y0371887D01*
X0049208Y0372486D02*
X0026622Y0372486D01*
X0026622Y0373084D02*
X0049208Y0373084D01*
X0049328Y0373683D02*
X0026502Y0373683D01*
X0025904Y0374281D02*
X0049926Y0374281D01*
X0050525Y0374880D02*
X0025305Y0374880D01*
X0024707Y0375479D02*
X0051123Y0375479D01*
X0009442Y0382661D02*
X0005950Y0382661D01*
X0005950Y0383259D02*
X0008406Y0383259D01*
X0007369Y0383858D02*
X0005950Y0383858D01*
X0005950Y0384456D02*
X0006726Y0384456D01*
X0006128Y0385055D02*
X0005950Y0385055D01*
D24*
X0034236Y0388280D03*
X0138456Y0384874D03*
X0160850Y0335500D03*
X0231850Y0333500D03*
X0256271Y0324882D03*
X0277925Y0364252D03*
X0255287Y0385906D03*
X0345259Y0384874D03*
X0366350Y0246000D03*
X0357350Y0244500D03*
X0350850Y0238000D03*
X0345350Y0243596D03*
X0356460Y0208500D03*
X0353850Y0113000D03*
X0364350Y0113000D03*
X0340443Y0037480D03*
X0325169Y0037480D03*
X0318279Y0040433D03*
X0256411Y0033543D03*
X0267098Y0110252D03*
X0252764Y0111586D03*
X0259350Y0160500D03*
X0256350Y0164000D03*
X0252850Y0167000D03*
X0225350Y0167000D03*
X0222350Y0164000D03*
X0218850Y0160500D03*
X0136350Y0049500D03*
X0126350Y0049500D03*
X0126411Y0034000D03*
X0136411Y0034000D03*
X0106411Y0036496D03*
X0076153Y0036496D03*
X0047850Y0108000D03*
X0047850Y0112500D03*
X0038850Y0112500D03*
X0038850Y0108000D03*
X0045850Y0231000D03*
D25*
X0057150Y0129002D02*
X0074152Y0112000D01*
X0112850Y0112000D01*
X0126350Y0098500D01*
X0126350Y0049500D01*
X0126411Y0034000D02*
X0126411Y0017500D01*
X0136411Y0017500D02*
X0136411Y0034000D01*
D26*
X0078850Y0041417D02*
X0078850Y0076500D01*
X0078850Y0041417D02*
X0078122Y0041417D01*
X0076153Y0039449D01*
X0076153Y0036496D01*
X0243968Y0291285D02*
X0255911Y0303228D01*
X0256271Y0303228D01*
X0256271Y0324882D01*
D27*
X0317295Y0041417D02*
X0078850Y0041417D01*
X0110602Y0037480D02*
X0325169Y0037480D01*
X0318279Y0040433D02*
X0317295Y0041417D01*
M02*
