G75*
%MOIN*%
%OFA0B0*%
%FSLAX25Y25*%
%IPPOS*%
%LPD*%
%AMOC8*
5,1,8,0,0,1.08239X$1,22.5*
%
%ADD10R,0.06500X0.25000*%
%ADD11R,0.05906X0.01969*%
%ADD12R,0.03150X0.03150*%
%ADD13R,0.03937X0.04331*%
D10*
X0265092Y0306433D03*
X0275092Y0306433D03*
X0285092Y0306433D03*
X0295092Y0306433D03*
X0305092Y0306433D03*
X0315092Y0306433D03*
X0325092Y0306433D03*
X0335092Y0306433D03*
X0345092Y0306433D03*
X0355092Y0306433D03*
X0365092Y0306433D03*
X0375092Y0306433D03*
X0385092Y0306433D03*
X0395092Y0306433D03*
X0405092Y0306433D03*
X0415092Y0306433D03*
X0425092Y0306433D03*
X0435092Y0306433D03*
X0445092Y0306433D03*
X0455092Y0306433D03*
X0465092Y0306433D03*
X0475092Y0306433D03*
X0485092Y0306433D03*
X0495092Y0306433D03*
X0505092Y0306433D03*
X0515092Y0306433D03*
X0525092Y0306433D03*
X0535092Y0306433D03*
D11*
X0439843Y0161905D03*
X0439843Y0158755D03*
X0439843Y0155606D03*
X0439843Y0152456D03*
X0439843Y0149306D03*
X0439843Y0146157D03*
X0439843Y0143007D03*
X0439843Y0139857D03*
X0439843Y0136708D03*
X0439843Y0133558D03*
X0439843Y0130409D03*
X0439843Y0127259D03*
X0439843Y0124109D03*
X0439843Y0120960D03*
X0439843Y0117810D03*
X0439843Y0114661D03*
X0439843Y0111511D03*
X0439843Y0108361D03*
X0402441Y0108361D03*
X0402441Y0111511D03*
X0402441Y0114661D03*
X0402441Y0117810D03*
X0402441Y0120960D03*
X0402441Y0124109D03*
X0402441Y0127259D03*
X0402441Y0130409D03*
X0402441Y0133558D03*
X0402441Y0136708D03*
X0402441Y0139857D03*
X0402441Y0143007D03*
X0402441Y0146157D03*
X0402441Y0149306D03*
X0402441Y0152456D03*
X0402441Y0155606D03*
X0402441Y0158755D03*
X0402441Y0161905D03*
D12*
X0340342Y0138886D03*
X0340342Y0132980D03*
X0330342Y0132980D03*
X0330342Y0138886D03*
X0320342Y0138886D03*
X0320342Y0132980D03*
X0310342Y0132980D03*
X0310342Y0138886D03*
D13*
X0310342Y0119587D03*
X0320342Y0119587D03*
X0330342Y0119587D03*
X0330342Y0126280D03*
X0320342Y0126280D03*
X0310342Y0126280D03*
X0340342Y0126280D03*
X0340342Y0119587D03*
M02*
