G75*
%MOIN*%
%OFA0B0*%
%FSLAX25Y25*%
%IPPOS*%
%LPD*%
%AMOC8*
5,1,8,0,0,1.08239X$1,22.5*
%
%ADD10C,0.13650*%
%ADD11OC8,0.14580*%
%ADD12R,0.14580X0.14580*%
%ADD13C,0.12611*%
%ADD14R,0.05524X0.02965*%
%ADD15OC8,0.06000*%
%ADD16C,0.00500*%
%ADD17C,0.16800*%
%ADD18R,0.16548X0.16548*%
%ADD19R,0.15800X0.15800*%
%ADD20R,0.02178X0.04343*%
%ADD21R,0.03200X0.09500*%
%ADD22R,0.05131X0.05131*%
%ADD23R,0.07300X0.25800*%
%ADD24OC8,0.10800*%
%ADD25C,0.10249*%
%ADD26OC8,0.12611*%
%ADD27R,0.12611X0.12611*%
%ADD28C,0.03778*%
D10*
X0013850Y0392500D03*
X0388850Y0392500D03*
D11*
X0323744Y0324305D03*
X0323744Y0307805D03*
X0323744Y0291305D03*
X0345444Y0291305D03*
X0345444Y0307805D03*
X0323744Y0162888D03*
X0323744Y0146388D03*
X0323744Y0129888D03*
X0345444Y0129888D03*
X0345444Y0146388D03*
X0323744Y0091939D03*
X0323744Y0075439D03*
X0323744Y0058939D03*
X0345444Y0058939D03*
X0345444Y0075439D03*
X0078850Y0129002D03*
X0078850Y0145502D03*
X0078850Y0162002D03*
X0057150Y0162002D03*
X0057150Y0145502D03*
X0078857Y0295242D03*
X0078857Y0311742D03*
X0078857Y0328242D03*
X0057157Y0328242D03*
X0057157Y0311742D03*
D12*
X0057157Y0295242D03*
X0057150Y0129002D03*
X0345444Y0162888D03*
X0345444Y0091939D03*
X0345444Y0324305D03*
D13*
X0374185Y0324305D03*
X0374185Y0291305D03*
X0374185Y0162888D03*
X0374185Y0129888D03*
X0374185Y0091939D03*
X0374185Y0058939D03*
X0028410Y0076500D03*
X0028410Y0129002D03*
X0028410Y0162002D03*
X0028417Y0295242D03*
X0028417Y0328242D03*
D14*
X0155483Y0326850D03*
X0155483Y0323110D03*
X0155483Y0330591D03*
X0165720Y0330591D03*
X0165720Y0326850D03*
X0165720Y0323110D03*
X0239145Y0324931D03*
X0239145Y0321191D03*
X0239145Y0328671D03*
X0249382Y0328671D03*
X0249382Y0324931D03*
X0249382Y0321191D03*
D15*
X0262413Y0371142D03*
X0232413Y0371142D03*
X0171025Y0370994D03*
X0141025Y0370994D03*
X0052915Y0372028D03*
X0022915Y0372028D03*
X0281960Y0108307D03*
X0293820Y0108258D03*
X0293820Y0088258D03*
X0293820Y0080945D03*
X0281960Y0080945D03*
X0281960Y0088307D03*
X0281960Y0060945D03*
X0293820Y0060945D03*
X0331970Y0371093D03*
X0361970Y0371093D03*
D16*
X0270282Y0165769D02*
X0270608Y0165561D01*
X0270879Y0165285D01*
X0271081Y0164957D01*
X0271206Y0164591D01*
X0271246Y0164207D01*
X0271212Y0163825D01*
X0271094Y0163461D01*
X0270898Y0163132D01*
X0270633Y0162855D01*
X0270314Y0162643D01*
X0269955Y0162508D01*
X0269576Y0162457D01*
X0269175Y0162492D01*
X0268792Y0162615D01*
X0268447Y0162820D01*
X0268155Y0163097D01*
X0267933Y0163432D01*
X0267791Y0163808D01*
X0267736Y0164207D01*
X0267787Y0164600D01*
X0267924Y0164972D01*
X0268141Y0165304D01*
X0268426Y0165579D01*
X0268765Y0165784D01*
X0269141Y0165909D01*
X0269535Y0165946D01*
X0269919Y0165900D01*
X0270282Y0165769D01*
X0270647Y0165521D02*
X0268365Y0165521D01*
X0267957Y0165022D02*
X0271041Y0165022D01*
X0271213Y0164524D02*
X0267777Y0164524D01*
X0267761Y0164025D02*
X0271230Y0164025D01*
X0271115Y0163527D02*
X0267897Y0163527D01*
X0268228Y0163028D02*
X0270799Y0163028D01*
X0270011Y0162530D02*
X0269058Y0162530D01*
X0269535Y0154926D02*
X0269919Y0154880D01*
X0270282Y0154749D01*
X0270608Y0154541D01*
X0270879Y0154265D01*
X0271081Y0153937D01*
X0271206Y0153571D01*
X0271246Y0153187D01*
X0271212Y0152805D01*
X0271094Y0152441D01*
X0270898Y0152112D01*
X0270633Y0151835D01*
X0270314Y0151623D01*
X0269955Y0151488D01*
X0269576Y0151437D01*
X0269175Y0151472D01*
X0268792Y0151595D01*
X0268447Y0151800D01*
X0268155Y0152077D01*
X0267933Y0152412D01*
X0267791Y0152788D01*
X0267736Y0153187D01*
X0267787Y0153580D01*
X0267924Y0153951D01*
X0268141Y0154283D01*
X0268426Y0154559D01*
X0268765Y0154764D01*
X0269141Y0154889D01*
X0269535Y0154926D01*
X0270588Y0154553D02*
X0268420Y0154553D01*
X0267991Y0154055D02*
X0271008Y0154055D01*
X0271207Y0153556D02*
X0267784Y0153556D01*
X0267754Y0153058D02*
X0271234Y0153058D01*
X0271132Y0152559D02*
X0267877Y0152559D01*
X0268173Y0152061D02*
X0270849Y0152061D01*
X0270152Y0151562D02*
X0268893Y0151562D01*
X0278883Y0142880D02*
X0279160Y0143171D01*
X0279495Y0143393D01*
X0279871Y0143536D01*
X0280269Y0143591D01*
X0280662Y0143540D01*
X0281034Y0143402D01*
X0281366Y0143186D01*
X0281641Y0142901D01*
X0281846Y0142562D01*
X0281971Y0142185D01*
X0282009Y0141791D01*
X0281962Y0141407D01*
X0281831Y0141044D01*
X0281623Y0140719D01*
X0281348Y0140448D01*
X0281019Y0140245D01*
X0280653Y0140121D01*
X0280269Y0140081D01*
X0279887Y0140115D01*
X0279523Y0140233D01*
X0279194Y0140429D01*
X0278917Y0140693D01*
X0278706Y0141013D01*
X0278571Y0141371D01*
X0278519Y0141751D01*
X0278554Y0142151D01*
X0278677Y0142534D01*
X0278883Y0142880D01*
X0279080Y0143088D02*
X0281461Y0143088D01*
X0281830Y0142589D02*
X0278710Y0142589D01*
X0278549Y0142091D02*
X0281980Y0142091D01*
X0281985Y0141592D02*
X0278541Y0141592D01*
X0278675Y0141094D02*
X0281849Y0141094D01*
X0281498Y0140595D02*
X0279020Y0140595D01*
X0280091Y0140097D02*
X0280422Y0140097D01*
X0280303Y0143586D02*
X0280237Y0143586D01*
X0289574Y0142151D02*
X0289697Y0142534D01*
X0289903Y0142880D01*
X0290180Y0143171D01*
X0290515Y0143393D01*
X0290891Y0143536D01*
X0291289Y0143591D01*
X0291682Y0143540D01*
X0292054Y0143402D01*
X0292386Y0143186D01*
X0292661Y0142901D01*
X0292866Y0142562D01*
X0292991Y0142185D01*
X0293029Y0141791D01*
X0292982Y0141407D01*
X0292852Y0141044D01*
X0292643Y0140719D01*
X0292368Y0140448D01*
X0292039Y0140245D01*
X0291673Y0140121D01*
X0291289Y0140081D01*
X0290907Y0140115D01*
X0290543Y0140233D01*
X0290214Y0140429D01*
X0289937Y0140693D01*
X0289726Y0141013D01*
X0289591Y0141371D01*
X0289539Y0141751D01*
X0289574Y0142151D01*
X0289569Y0142091D02*
X0293000Y0142091D01*
X0293005Y0141592D02*
X0289561Y0141592D01*
X0289695Y0141094D02*
X0292869Y0141094D01*
X0292518Y0140595D02*
X0290040Y0140595D01*
X0291111Y0140097D02*
X0291442Y0140097D01*
X0292850Y0142589D02*
X0289730Y0142589D01*
X0290100Y0143088D02*
X0292481Y0143088D01*
X0291323Y0143586D02*
X0291257Y0143586D01*
X0082508Y0198379D02*
X0082370Y0198007D01*
X0082154Y0197675D01*
X0081869Y0197399D01*
X0081530Y0197194D01*
X0081154Y0197070D01*
X0080759Y0197032D01*
X0080376Y0197078D01*
X0080012Y0197209D01*
X0079687Y0197417D01*
X0079416Y0197693D01*
X0079213Y0198022D01*
X0079089Y0198387D01*
X0079049Y0198772D01*
X0079083Y0199153D01*
X0079201Y0199518D01*
X0079397Y0199847D01*
X0079661Y0200124D01*
X0079981Y0200335D01*
X0080339Y0200470D01*
X0080719Y0200522D01*
X0081119Y0200487D01*
X0081502Y0200363D01*
X0081848Y0200158D01*
X0082139Y0199881D01*
X0082361Y0199546D01*
X0082504Y0199170D01*
X0082559Y0198772D01*
X0082508Y0198379D01*
X0082513Y0198422D02*
X0079085Y0198422D01*
X0079062Y0198921D02*
X0082538Y0198921D01*
X0082409Y0199419D02*
X0079169Y0199419D01*
X0079465Y0199918D02*
X0082100Y0199918D01*
X0081337Y0200416D02*
X0080197Y0200416D01*
X0079273Y0197924D02*
X0082316Y0197924D01*
X0081896Y0197425D02*
X0079679Y0197425D01*
X0080759Y0208052D02*
X0080376Y0208098D01*
X0080012Y0208229D01*
X0079687Y0208437D01*
X0079416Y0208713D01*
X0079213Y0209042D01*
X0079089Y0209407D01*
X0079049Y0209792D01*
X0079083Y0210173D01*
X0079201Y0210538D01*
X0079397Y0210867D01*
X0079661Y0211144D01*
X0079981Y0211355D01*
X0080339Y0211490D01*
X0080719Y0211542D01*
X0081119Y0211507D01*
X0081502Y0211383D01*
X0081848Y0211178D01*
X0082139Y0210901D01*
X0082361Y0210566D01*
X0082504Y0210190D01*
X0082559Y0209792D01*
X0082508Y0209399D01*
X0082370Y0209027D01*
X0082154Y0208695D01*
X0081869Y0208419D01*
X0081530Y0208214D01*
X0081154Y0208090D01*
X0080759Y0208052D01*
X0079757Y0208393D02*
X0081825Y0208393D01*
X0082282Y0208891D02*
X0079306Y0208891D01*
X0079095Y0209390D02*
X0082504Y0209390D01*
X0082545Y0209888D02*
X0079057Y0209888D01*
X0079152Y0210387D02*
X0082429Y0210387D01*
X0082150Y0210885D02*
X0079415Y0210885D01*
X0080057Y0211384D02*
X0081501Y0211384D01*
D17*
X0159765Y0248785D03*
X0159765Y0270285D03*
X0159765Y0291285D03*
X0243968Y0291285D03*
X0243968Y0270285D03*
X0243968Y0248785D03*
D18*
X0226202Y0185335D03*
X0226202Y0145571D03*
X0184421Y0145817D03*
X0184421Y0185581D03*
X0143082Y0185581D03*
X0143082Y0145817D03*
X0102728Y0145768D03*
X0102728Y0185531D03*
X0102728Y0095768D03*
X0102728Y0075689D03*
X0143082Y0075738D03*
X0143082Y0095817D03*
X0184421Y0095817D03*
X0184421Y0075738D03*
X0226202Y0075492D03*
X0226202Y0095571D03*
D19*
X0292836Y0228258D03*
X0292836Y0258258D03*
X0292836Y0333258D03*
X0292836Y0363258D03*
X0105533Y0362569D03*
X0105533Y0332569D03*
X0105533Y0257569D03*
X0105533Y0227569D03*
D20*
X0254647Y0138514D03*
X0257206Y0138514D03*
X0259765Y0138514D03*
X0262324Y0138514D03*
X0264883Y0138514D03*
X0267443Y0138514D03*
X0270002Y0138514D03*
X0272561Y0138514D03*
X0272561Y0115876D03*
X0270002Y0115876D03*
X0267443Y0115876D03*
X0264883Y0115876D03*
X0262324Y0115876D03*
X0259765Y0115876D03*
X0257206Y0115876D03*
X0254647Y0115876D03*
D21*
X0317128Y0248539D03*
X0322128Y0248539D03*
X0327128Y0248539D03*
X0332128Y0248539D03*
X0332128Y0269139D03*
X0327128Y0269139D03*
X0322128Y0269139D03*
X0317128Y0269139D03*
X0082374Y0351442D03*
X0077374Y0351442D03*
X0072374Y0351442D03*
X0067374Y0351442D03*
X0067374Y0372042D03*
X0072374Y0372042D03*
X0077374Y0372042D03*
X0082374Y0372042D03*
D22*
X0055976Y0395600D03*
X0048102Y0395600D03*
X0148496Y0394222D03*
X0156370Y0394222D03*
X0263161Y0394764D03*
X0271035Y0394764D03*
X0353220Y0395010D03*
X0361094Y0395010D03*
D23*
X0066411Y0017500D03*
X0076411Y0017500D03*
X0086411Y0017500D03*
X0096411Y0017500D03*
X0106411Y0017500D03*
X0116411Y0017500D03*
X0126411Y0017500D03*
X0136411Y0017500D03*
X0146411Y0017500D03*
X0156411Y0017500D03*
X0166411Y0017500D03*
X0176411Y0017500D03*
X0186411Y0017500D03*
X0196411Y0017500D03*
X0206411Y0017500D03*
X0216411Y0017500D03*
X0226411Y0017500D03*
X0236411Y0017500D03*
X0246411Y0017500D03*
X0256411Y0017500D03*
X0266411Y0017500D03*
X0276411Y0017500D03*
X0286411Y0017500D03*
X0296411Y0017500D03*
X0306411Y0017500D03*
X0316411Y0017500D03*
X0326411Y0017500D03*
X0336411Y0017500D03*
D24*
X0204106Y0335709D03*
D25*
X0219854Y0360315D03*
X0176405Y0360315D03*
X0322216Y0360315D03*
X0021035Y0360315D03*
D26*
X0078850Y0076500D03*
D27*
X0057150Y0076500D03*
D28*
X0076153Y0036496D03*
X0106411Y0036496D03*
X0126411Y0034000D03*
X0136411Y0034000D03*
X0136350Y0049500D03*
X0126350Y0049500D03*
X0219854Y0158543D03*
X0264145Y0144764D03*
X0318279Y0040433D03*
X0325169Y0037480D03*
X0340443Y0037480D03*
X0256411Y0033543D03*
X0256271Y0324882D03*
X0232649Y0331772D03*
X0277925Y0364252D03*
X0255287Y0385906D03*
X0345259Y0384874D03*
X0159815Y0333740D03*
X0138456Y0384874D03*
X0034236Y0388280D03*
M02*
