%
M48
M72
T01C0.01378
T02C0.03200
T03C0.04000
T04C0.04400
T05C0.06299
T06C0.07874
T07C0.08500
T08C0.08661
T09C0.09000
T10C0.11811
T11C0.12850
%
T01
X76153Y36496
X106411Y36496
X126411Y34000
X136411Y34000
X136350Y49500
X126350Y49500
X219854Y158543
X264145Y144764
X318279Y40433
X325169Y37480
X340443Y37480
X256411Y33543
X256271Y324882
X232649Y331772
X277925Y364252
X255287Y385906
X345259Y384874
X159815Y333740
X138456Y384874
X34236Y388280
T02
X22915Y372028
X52915Y372028
X141025Y370994
X171025Y370994
X232413Y371142
X262413Y371142
X331970Y371093
X361970Y371093
X293820Y108258
X281960Y108307
X281960Y88307
X281960Y80945
X293820Y80945
X293820Y88258
X293820Y60945
X281960Y60945
T03
X280299Y141811
X291299Y141811
X269515Y153217
X269515Y164217
X80779Y198762
X80779Y209762
T04
X204106Y335709
T05
X219854Y360315
X176405Y360315
X322216Y360315
X21035Y360315
T06
X57157Y328242
X57157Y311742
X57157Y295242
X78857Y295242
X78857Y311742
X78857Y328242
X78850Y162002
X78850Y145502
X78850Y129002
X57150Y129002
X57150Y145502
X57150Y162002
X57150Y76500
X78850Y76500
X323744Y75439
X323744Y91939
X345444Y91939
X345444Y75439
X345444Y58939
X323744Y58939
X323744Y129888
X323744Y146388
X323744Y162888
X345444Y162888
X345444Y146388
X345444Y129888
X345444Y291305
X345444Y307805
X345444Y324305
X323744Y324305
X323744Y307805
X323744Y291305
T07
X292836Y258258
X292836Y228258
X292836Y333258
X292836Y363258
X105533Y362569
X105533Y332569
X105533Y257569
X105533Y227569
T08
X102728Y185531
X102728Y145768
X143082Y145817
X143082Y185581
X184421Y185581
X184421Y145817
X226202Y145571
X226202Y185335
X226202Y95571
X226202Y75492
X184421Y75738
X184421Y95817
X143082Y95817
X143082Y75738
X102728Y75689
X102728Y95768
T09
X159765Y248785
X159765Y270285
X159765Y291285
X243968Y291285
X243968Y270285
X243968Y248785
T10
X28410Y76500
X28410Y129002
X28410Y162002
X28417Y295242
X28417Y328242
X374185Y324305
X374185Y291305
X374185Y162888
X374185Y129888
X374185Y91939
X374185Y58939
T11
X388850Y392500
X13850Y392500
M30
