G75*
%MOIN*%
%OFA0B0*%
%FSLAX25Y25*%
%IPPOS*%
%LPD*%
%AMOC8*
5,1,8,0,0,1.08239X$1,22.5*
%
%ADD10C,0.00300*%
%ADD11C,0.00100*%
%ADD12C,0.00200*%
%ADD13C,0.00500*%
%ADD14C,0.02362*%
%ADD15C,0.00600*%
%ADD16C,0.01000*%
%ADD17R,0.02000X0.01500*%
%ADD18C,0.00800*%
%ADD19R,0.01500X0.04000*%
%ADD20C,0.00000*%
%ADD21C,0.00400*%
%ADD22C,0.01600*%
D10*
X0029913Y0156533D02*
X0029913Y0159436D01*
X0031364Y0159436D01*
X0031848Y0158952D01*
X0031848Y0157984D01*
X0031364Y0157501D01*
X0029913Y0157501D01*
X0032860Y0157984D02*
X0032860Y0157017D01*
X0033343Y0156533D01*
X0034311Y0156533D01*
X0034795Y0157017D01*
X0034795Y0157984D01*
X0034311Y0158468D01*
X0033343Y0158468D01*
X0032860Y0157984D01*
X0035806Y0158468D02*
X0035806Y0157017D01*
X0036290Y0156533D01*
X0036774Y0157017D01*
X0037257Y0156533D01*
X0037741Y0157017D01*
X0037741Y0158468D01*
X0038753Y0157984D02*
X0039236Y0158468D01*
X0040204Y0158468D01*
X0040688Y0157984D01*
X0040688Y0157501D01*
X0038753Y0157501D01*
X0038753Y0157984D02*
X0038753Y0157017D01*
X0039236Y0156533D01*
X0040204Y0156533D01*
X0041699Y0156533D02*
X0041699Y0158468D01*
X0041699Y0157501D02*
X0042667Y0158468D01*
X0043150Y0158468D01*
X0047101Y0158952D02*
X0047101Y0157017D01*
X0047585Y0156533D01*
X0048552Y0156533D01*
X0049036Y0157017D01*
X0050048Y0157017D02*
X0050531Y0156533D01*
X0051499Y0156533D01*
X0051983Y0157017D01*
X0051983Y0157984D01*
X0051499Y0158468D01*
X0050531Y0158468D01*
X0050048Y0157984D01*
X0050048Y0157017D01*
X0049036Y0158952D02*
X0048552Y0159436D01*
X0047585Y0159436D01*
X0047101Y0158952D01*
X0052994Y0158468D02*
X0054445Y0158468D01*
X0054929Y0157984D01*
X0054929Y0156533D01*
X0052994Y0156533D02*
X0052994Y0158468D01*
X0055941Y0158468D02*
X0056908Y0156533D01*
X0057876Y0158468D01*
X0058887Y0157984D02*
X0059371Y0158468D01*
X0060338Y0158468D01*
X0060822Y0157984D01*
X0060822Y0157501D01*
X0058887Y0157501D01*
X0058887Y0157984D02*
X0058887Y0157017D01*
X0059371Y0156533D01*
X0060338Y0156533D01*
X0061834Y0156533D02*
X0061834Y0158468D01*
X0062801Y0158468D02*
X0063285Y0158468D01*
X0062801Y0158468D02*
X0061834Y0157501D01*
X0064289Y0158468D02*
X0065257Y0158468D01*
X0064773Y0158952D02*
X0064773Y0157017D01*
X0065257Y0156533D01*
X0066254Y0157017D02*
X0066254Y0157984D01*
X0066737Y0158468D01*
X0067705Y0158468D01*
X0068189Y0157984D01*
X0068189Y0157501D01*
X0066254Y0157501D01*
X0066254Y0157017D02*
X0066737Y0156533D01*
X0067705Y0156533D01*
X0069200Y0156533D02*
X0069200Y0158468D01*
X0069200Y0157501D02*
X0070168Y0158468D01*
X0070651Y0158468D01*
X0074602Y0157984D02*
X0076053Y0157984D01*
X0076537Y0157501D01*
X0076537Y0157017D01*
X0076053Y0156533D01*
X0074602Y0156533D01*
X0074602Y0159436D01*
X0076053Y0159436D01*
X0076537Y0158952D01*
X0076537Y0158468D01*
X0076053Y0157984D01*
X0077549Y0157984D02*
X0077549Y0157017D01*
X0078032Y0156533D01*
X0079000Y0156533D01*
X0079484Y0157017D01*
X0079484Y0157984D01*
X0079000Y0158468D01*
X0078032Y0158468D01*
X0077549Y0157984D01*
X0080495Y0157017D02*
X0080979Y0157501D01*
X0082430Y0157501D01*
X0082430Y0157984D02*
X0082430Y0156533D01*
X0080979Y0156533D01*
X0080495Y0157017D01*
X0080979Y0158468D02*
X0081946Y0158468D01*
X0082430Y0157984D01*
X0083442Y0157501D02*
X0084409Y0158468D01*
X0084893Y0158468D01*
X0085897Y0157984D02*
X0086381Y0158468D01*
X0087832Y0158468D01*
X0087832Y0159436D02*
X0087832Y0156533D01*
X0086381Y0156533D01*
X0085897Y0157017D01*
X0085897Y0157984D01*
X0083442Y0158468D02*
X0083442Y0156533D01*
X0083196Y0166133D02*
X0084647Y0166133D01*
X0085131Y0166617D01*
X0084647Y0167101D01*
X0083680Y0167101D01*
X0083196Y0167584D01*
X0083680Y0168068D01*
X0085131Y0168068D01*
X0086143Y0168068D02*
X0086626Y0168068D01*
X0086626Y0166133D01*
X0086143Y0166133D02*
X0087110Y0166133D01*
X0088591Y0166617D02*
X0089074Y0166133D01*
X0088591Y0166617D02*
X0088591Y0168552D01*
X0089074Y0168068D02*
X0088107Y0168068D01*
X0086626Y0169036D02*
X0086626Y0169519D01*
X0086359Y0170933D02*
X0086359Y0172868D01*
X0085391Y0173836D01*
X0084424Y0172868D01*
X0084424Y0170933D01*
X0084424Y0172384D02*
X0086359Y0172384D01*
X0087370Y0172868D02*
X0088338Y0172868D01*
X0087854Y0173352D02*
X0087854Y0171417D01*
X0088338Y0170933D01*
X0090071Y0168068D02*
X0090071Y0166617D01*
X0090555Y0166133D01*
X0092006Y0166133D01*
X0092006Y0165649D02*
X0091522Y0165166D01*
X0091039Y0165166D01*
X0092006Y0165649D02*
X0092006Y0168068D01*
X0082192Y0168068D02*
X0081708Y0168068D01*
X0080741Y0167101D01*
X0080741Y0168068D02*
X0080741Y0166133D01*
X0079729Y0167101D02*
X0077794Y0167101D01*
X0077794Y0167584D02*
X0078278Y0168068D01*
X0079245Y0168068D01*
X0079729Y0167584D01*
X0079729Y0167101D01*
X0079245Y0166133D02*
X0078278Y0166133D01*
X0077794Y0166617D01*
X0077794Y0167584D01*
X0076783Y0168068D02*
X0075815Y0166133D01*
X0074848Y0168068D01*
X0073367Y0168068D02*
X0073367Y0166133D01*
X0072883Y0166133D02*
X0073851Y0166133D01*
X0071872Y0166133D02*
X0071872Y0167584D01*
X0071388Y0168068D01*
X0069937Y0168068D01*
X0069937Y0166133D01*
X0068925Y0166617D02*
X0068925Y0169036D01*
X0069193Y0170933D02*
X0068709Y0171417D01*
X0068709Y0172384D01*
X0069193Y0172868D01*
X0070160Y0172868D01*
X0070644Y0172384D01*
X0070644Y0171417D01*
X0070160Y0170933D01*
X0069193Y0170933D01*
X0067697Y0171417D02*
X0067697Y0172384D01*
X0067214Y0172868D01*
X0065762Y0172868D01*
X0065762Y0173836D02*
X0065762Y0170933D01*
X0067214Y0170933D01*
X0067697Y0171417D01*
X0066990Y0169036D02*
X0066990Y0166617D01*
X0067474Y0166133D01*
X0068441Y0166133D01*
X0068925Y0166617D01*
X0072883Y0168068D02*
X0073367Y0168068D01*
X0073367Y0169036D02*
X0073367Y0169519D01*
X0073620Y0170933D02*
X0074587Y0170933D01*
X0074104Y0170933D02*
X0074104Y0172868D01*
X0073620Y0172868D01*
X0072623Y0172868D02*
X0071655Y0172868D01*
X0072139Y0173352D02*
X0072139Y0171417D01*
X0072623Y0170933D01*
X0075584Y0171417D02*
X0076068Y0170933D01*
X0077519Y0170933D01*
X0078531Y0170933D02*
X0079982Y0170933D01*
X0080466Y0171417D01*
X0079982Y0171901D01*
X0079014Y0171901D01*
X0078531Y0172384D01*
X0079014Y0172868D01*
X0080466Y0172868D01*
X0077519Y0172868D02*
X0076068Y0172868D01*
X0075584Y0172384D01*
X0075584Y0171417D01*
X0074104Y0173836D02*
X0074104Y0174319D01*
X0064751Y0172384D02*
X0064267Y0172868D01*
X0063300Y0172868D01*
X0062816Y0172384D01*
X0062816Y0171417D01*
X0063300Y0170933D01*
X0064267Y0170933D01*
X0064751Y0171417D01*
X0064751Y0172384D01*
X0061804Y0172384D02*
X0061321Y0171901D01*
X0059869Y0171901D01*
X0060837Y0171901D02*
X0061804Y0170933D01*
X0061804Y0172384D02*
X0061804Y0173352D01*
X0061321Y0173836D01*
X0059869Y0173836D01*
X0059869Y0170933D01*
X0059617Y0168552D02*
X0059617Y0166617D01*
X0060100Y0166133D01*
X0061097Y0166617D02*
X0061097Y0167584D01*
X0061581Y0168068D01*
X0062548Y0168068D01*
X0063032Y0167584D01*
X0063032Y0167101D01*
X0061097Y0167101D01*
X0061097Y0166617D02*
X0061581Y0166133D01*
X0062548Y0166133D01*
X0060100Y0168068D02*
X0059133Y0168068D01*
X0058121Y0167584D02*
X0058121Y0166133D01*
X0056670Y0166133D01*
X0056186Y0166617D01*
X0056670Y0167101D01*
X0058121Y0167101D01*
X0058121Y0167584D02*
X0057638Y0168068D01*
X0056670Y0168068D01*
X0055189Y0168068D02*
X0054222Y0168068D01*
X0054706Y0168552D02*
X0054706Y0166617D01*
X0055189Y0166133D01*
X0053210Y0166617D02*
X0052727Y0166133D01*
X0051759Y0166133D01*
X0051275Y0166617D01*
X0051759Y0167584D02*
X0052727Y0167584D01*
X0053210Y0167101D01*
X0053210Y0166617D01*
X0051759Y0167584D02*
X0051275Y0168068D01*
X0051275Y0168552D01*
X0051759Y0169036D01*
X0052727Y0169036D01*
X0053210Y0168552D01*
X0052972Y0170933D02*
X0052005Y0170933D01*
X0051521Y0171417D01*
X0051521Y0172384D01*
X0052005Y0172868D01*
X0052972Y0172868D01*
X0053456Y0172384D01*
X0053456Y0171901D01*
X0051521Y0171901D01*
X0050524Y0172868D02*
X0049557Y0172868D01*
X0050040Y0173352D02*
X0050040Y0171417D01*
X0050524Y0170933D01*
X0048545Y0170933D02*
X0047094Y0170933D01*
X0046610Y0171417D01*
X0047094Y0171901D01*
X0048545Y0171901D01*
X0048545Y0172384D02*
X0048545Y0170933D01*
X0048545Y0172384D02*
X0048061Y0172868D01*
X0047094Y0172868D01*
X0045599Y0172868D02*
X0045599Y0171417D01*
X0045115Y0170933D01*
X0044631Y0171417D01*
X0044147Y0170933D01*
X0043664Y0171417D01*
X0043664Y0172868D01*
X0042659Y0172868D02*
X0042176Y0172868D01*
X0041208Y0171901D01*
X0041208Y0172868D02*
X0041208Y0170933D01*
X0040197Y0171901D02*
X0038262Y0171901D01*
X0038262Y0172384D02*
X0038745Y0172868D01*
X0039713Y0172868D01*
X0040197Y0172384D01*
X0040197Y0171901D01*
X0039713Y0170933D02*
X0038745Y0170933D01*
X0038262Y0171417D01*
X0038262Y0172384D01*
X0037250Y0172868D02*
X0035799Y0172868D01*
X0035315Y0172384D01*
X0035315Y0171417D01*
X0035799Y0170933D01*
X0037250Y0170933D01*
X0037250Y0173836D01*
X0034304Y0172384D02*
X0034304Y0170933D01*
X0034304Y0172384D02*
X0033820Y0172868D01*
X0032369Y0172868D01*
X0032369Y0170933D01*
X0031357Y0171417D02*
X0031357Y0173836D01*
X0029422Y0173836D02*
X0029422Y0171417D01*
X0029906Y0170933D01*
X0030873Y0170933D01*
X0031357Y0171417D01*
X0032116Y0168068D02*
X0031632Y0167584D01*
X0031632Y0166617D01*
X0032116Y0166133D01*
X0033083Y0166133D01*
X0033567Y0167101D02*
X0031632Y0167101D01*
X0032116Y0168068D02*
X0033083Y0168068D01*
X0033567Y0167584D01*
X0033567Y0167101D01*
X0030620Y0167584D02*
X0030620Y0166133D01*
X0030620Y0167584D02*
X0030137Y0168068D01*
X0029169Y0168068D01*
X0028685Y0167584D01*
X0028685Y0166133D02*
X0028685Y0169036D01*
X0027674Y0169036D02*
X0025739Y0169036D01*
X0026706Y0169036D02*
X0026706Y0166133D01*
X0037525Y0166617D02*
X0038009Y0166133D01*
X0038976Y0166133D01*
X0039460Y0166617D01*
X0039460Y0168552D01*
X0038976Y0169036D01*
X0038009Y0169036D01*
X0037525Y0168552D01*
X0037525Y0166617D01*
X0040472Y0166133D02*
X0040472Y0169036D01*
X0040955Y0168068D02*
X0041923Y0168068D01*
X0042407Y0167584D01*
X0042407Y0166133D01*
X0043418Y0166133D02*
X0044386Y0166133D01*
X0043902Y0166133D02*
X0043902Y0168068D01*
X0043418Y0168068D01*
X0043902Y0169036D02*
X0043902Y0169519D01*
X0045382Y0167584D02*
X0045382Y0166617D01*
X0045866Y0166133D01*
X0046834Y0166133D01*
X0047317Y0166617D01*
X0047317Y0167584D01*
X0046834Y0168068D01*
X0045866Y0168068D01*
X0045382Y0167584D01*
X0040955Y0168068D02*
X0040472Y0167584D01*
X0054467Y0170933D02*
X0054467Y0172868D01*
X0054467Y0171901D02*
X0055435Y0172868D01*
X0055919Y0172868D01*
X0361062Y0231697D02*
X0364198Y0234833D01*
X0362630Y0234833D02*
X0362630Y0231697D01*
X0364198Y0231697D02*
X0361062Y0234833D01*
X0361062Y0233265D02*
X0364198Y0233265D01*
D11*
X0328244Y0412108D02*
X0327993Y0412358D01*
X0327743Y0412108D01*
X0327493Y0412358D01*
X0327493Y0413109D01*
X0327020Y0412859D02*
X0326770Y0413109D01*
X0326270Y0413109D01*
X0326020Y0412859D01*
X0326020Y0412358D01*
X0326270Y0412108D01*
X0326770Y0412108D01*
X0327020Y0412358D01*
X0327020Y0412859D01*
X0328244Y0412108D02*
X0328494Y0412358D01*
X0328494Y0413109D01*
X0325547Y0412108D02*
X0324546Y0412108D01*
X0324546Y0413609D01*
X0322601Y0413609D02*
X0322601Y0412108D01*
X0321600Y0413609D01*
X0321600Y0412108D01*
X0321127Y0412108D02*
X0321127Y0413109D01*
X0320627Y0413609D01*
X0320127Y0413109D01*
X0320127Y0412108D01*
X0319654Y0412358D02*
X0319404Y0412108D01*
X0318904Y0412108D01*
X0318653Y0412358D01*
X0318653Y0413359D01*
X0318904Y0413609D01*
X0319404Y0413609D01*
X0319654Y0413359D01*
X0320127Y0412859D02*
X0321127Y0412859D01*
X0321127Y0421483D02*
X0321127Y0422484D01*
X0320627Y0422984D01*
X0320127Y0422484D01*
X0320127Y0421483D01*
X0319654Y0421733D02*
X0319404Y0421483D01*
X0318904Y0421483D01*
X0318653Y0421733D01*
X0318653Y0422734D01*
X0318904Y0422984D01*
X0319404Y0422984D01*
X0319654Y0422734D01*
X0320127Y0422234D02*
X0321127Y0422234D01*
X0321600Y0422984D02*
X0322601Y0421483D01*
X0322601Y0422984D01*
X0321600Y0422984D02*
X0321600Y0421483D01*
X0324546Y0421483D02*
X0324546Y0422984D01*
X0324546Y0422234D02*
X0325547Y0422234D01*
X0326020Y0422484D02*
X0326270Y0422484D01*
X0326270Y0421483D01*
X0326020Y0421483D02*
X0326520Y0421483D01*
X0327002Y0421733D02*
X0327252Y0421483D01*
X0328003Y0421483D01*
X0328003Y0421233D02*
X0328003Y0422484D01*
X0327252Y0422484D01*
X0327002Y0422234D01*
X0327002Y0421733D01*
X0327502Y0420983D02*
X0327752Y0420983D01*
X0328003Y0421233D01*
X0328475Y0421483D02*
X0328475Y0422984D01*
X0328725Y0422484D02*
X0329226Y0422484D01*
X0329476Y0422234D01*
X0329476Y0421483D01*
X0328475Y0422234D02*
X0328725Y0422484D01*
X0326270Y0422984D02*
X0326270Y0423235D01*
X0325547Y0422984D02*
X0325547Y0421483D01*
X0315493Y0427733D02*
X0315243Y0427983D01*
X0315243Y0428984D01*
X0314993Y0428734D02*
X0315493Y0428734D01*
X0314520Y0428734D02*
X0314520Y0427733D01*
X0313770Y0427733D01*
X0313520Y0427983D01*
X0313520Y0428734D01*
X0313047Y0428984D02*
X0312797Y0429234D01*
X0312297Y0429234D01*
X0312046Y0428984D01*
X0312046Y0427983D01*
X0312297Y0427733D01*
X0312797Y0427733D01*
X0313047Y0427983D01*
X0313047Y0428984D01*
X0310101Y0429234D02*
X0310101Y0428233D01*
X0309600Y0427733D01*
X0309100Y0428233D01*
X0309100Y0429234D01*
X0308627Y0428984D02*
X0308377Y0429234D01*
X0307877Y0429234D01*
X0307627Y0428984D01*
X0308627Y0428984D02*
X0308627Y0428734D01*
X0307627Y0427733D01*
X0308627Y0427733D01*
X0307154Y0427733D02*
X0306153Y0427733D01*
X0306654Y0427733D02*
X0306654Y0429234D01*
X0306153Y0428734D01*
X0302155Y0428484D02*
X0302155Y0428233D01*
X0301154Y0428233D01*
X0301154Y0427983D02*
X0301154Y0428484D01*
X0301404Y0428734D01*
X0301904Y0428734D01*
X0302155Y0428484D01*
X0301904Y0427733D02*
X0301404Y0427733D01*
X0301154Y0427983D01*
X0300681Y0427733D02*
X0299931Y0427733D01*
X0299680Y0427983D01*
X0299680Y0428484D01*
X0299931Y0428734D01*
X0300681Y0428734D01*
X0300681Y0427483D01*
X0300431Y0427233D01*
X0300181Y0427233D01*
X0299208Y0427733D02*
X0298457Y0427733D01*
X0298207Y0427983D01*
X0298457Y0428233D01*
X0299208Y0428233D01*
X0299208Y0428484D02*
X0299208Y0427733D01*
X0299208Y0428484D02*
X0298958Y0428734D01*
X0298457Y0428734D01*
X0297725Y0428734D02*
X0297225Y0428734D01*
X0297475Y0428984D02*
X0297475Y0427983D01*
X0297725Y0427733D01*
X0296743Y0427733D02*
X0296243Y0427733D01*
X0296493Y0427733D02*
X0296493Y0429234D01*
X0296243Y0429234D01*
X0295520Y0428734D02*
X0295020Y0428734D01*
X0294770Y0428484D01*
X0294770Y0427983D01*
X0295020Y0427733D01*
X0295520Y0427733D01*
X0295770Y0427983D01*
X0295770Y0428484D01*
X0295520Y0428734D01*
X0294297Y0428233D02*
X0294297Y0429234D01*
X0294297Y0428233D02*
X0293797Y0427733D01*
X0293296Y0428233D01*
X0293296Y0429234D01*
X0291351Y0429234D02*
X0291351Y0428233D01*
X0290850Y0427733D01*
X0290350Y0428233D01*
X0290350Y0429234D01*
X0289877Y0428984D02*
X0289627Y0429234D01*
X0289127Y0429234D01*
X0288877Y0428984D01*
X0289877Y0428984D02*
X0289877Y0428734D01*
X0288877Y0427733D01*
X0289877Y0427733D01*
X0288404Y0427733D02*
X0287403Y0427733D01*
X0287904Y0427733D02*
X0287904Y0429234D01*
X0287403Y0428734D01*
X0286520Y0428734D02*
X0286020Y0428734D01*
X0286270Y0428984D02*
X0286270Y0427983D01*
X0286520Y0427733D01*
X0285547Y0427733D02*
X0285547Y0428484D01*
X0285297Y0428734D01*
X0284547Y0428734D01*
X0284547Y0427733D01*
X0284074Y0428233D02*
X0283073Y0428233D01*
X0283073Y0427983D02*
X0283073Y0428484D01*
X0283323Y0428734D01*
X0283824Y0428734D01*
X0284074Y0428484D01*
X0284074Y0428233D01*
X0283824Y0427733D02*
X0283323Y0427733D01*
X0283073Y0427983D01*
X0282596Y0428734D02*
X0282346Y0428734D01*
X0281846Y0428233D01*
X0281846Y0427733D02*
X0281846Y0428734D01*
X0281369Y0428734D02*
X0281118Y0428734D01*
X0280618Y0428233D01*
X0280618Y0427733D02*
X0280618Y0428734D01*
X0280145Y0428734D02*
X0280145Y0427733D01*
X0279395Y0427733D01*
X0279145Y0427983D01*
X0279145Y0428734D01*
X0278672Y0428984D02*
X0278422Y0429234D01*
X0277922Y0429234D01*
X0277671Y0428984D01*
X0277671Y0427983D01*
X0277922Y0427733D01*
X0278422Y0427733D01*
X0278672Y0427983D01*
X0275726Y0428233D02*
X0275726Y0429234D01*
X0275726Y0428233D02*
X0275225Y0427733D01*
X0274725Y0428233D01*
X0274725Y0429234D01*
X0274252Y0428984D02*
X0274002Y0429234D01*
X0273502Y0429234D01*
X0273252Y0428984D01*
X0274252Y0428984D02*
X0274252Y0428734D01*
X0273252Y0427733D01*
X0274252Y0427733D01*
X0272779Y0427733D02*
X0271778Y0427733D01*
X0272279Y0427733D02*
X0272279Y0429234D01*
X0271778Y0428734D01*
X0268618Y0428734D02*
X0268118Y0428734D01*
X0268368Y0428984D02*
X0268368Y0427983D01*
X0268618Y0427733D01*
X0267645Y0427733D02*
X0267645Y0428734D01*
X0266645Y0428734D02*
X0266645Y0427983D01*
X0266895Y0427733D01*
X0267645Y0427733D01*
X0266172Y0427983D02*
X0266172Y0428984D01*
X0265922Y0429234D01*
X0265422Y0429234D01*
X0265171Y0428984D01*
X0265171Y0427983D01*
X0265422Y0427733D01*
X0265922Y0427733D01*
X0266172Y0427983D01*
X0263226Y0427983D02*
X0262975Y0427733D01*
X0262475Y0427733D01*
X0262225Y0427983D01*
X0262225Y0428984D01*
X0262475Y0429234D01*
X0262975Y0429234D01*
X0263226Y0428984D01*
X0261752Y0428984D02*
X0261502Y0429234D01*
X0261002Y0429234D01*
X0260752Y0428984D01*
X0260752Y0427983D01*
X0261002Y0427733D01*
X0261502Y0427733D01*
X0261752Y0427983D01*
X0260279Y0428233D02*
X0260279Y0429234D01*
X0260279Y0428233D02*
X0259779Y0427733D01*
X0259278Y0428233D01*
X0259278Y0429234D01*
X0255280Y0428484D02*
X0255029Y0428734D01*
X0254529Y0428734D01*
X0254279Y0428484D01*
X0254279Y0427983D01*
X0254529Y0427733D01*
X0255029Y0427733D01*
X0255280Y0428233D02*
X0254279Y0428233D01*
X0253806Y0427733D02*
X0253056Y0427733D01*
X0252805Y0427983D01*
X0252805Y0428484D01*
X0253056Y0428734D01*
X0253806Y0428734D01*
X0253806Y0427483D01*
X0253556Y0427233D01*
X0253306Y0427233D01*
X0252333Y0427733D02*
X0251582Y0427733D01*
X0251332Y0427983D01*
X0251582Y0428233D01*
X0252333Y0428233D01*
X0252333Y0428484D02*
X0252333Y0427733D01*
X0252333Y0428484D02*
X0252083Y0428734D01*
X0251582Y0428734D01*
X0250850Y0428734D02*
X0250350Y0428734D01*
X0250600Y0428984D02*
X0250600Y0427983D01*
X0250850Y0427733D01*
X0249868Y0427733D02*
X0249368Y0427733D01*
X0249618Y0427733D02*
X0249618Y0429234D01*
X0249368Y0429234D01*
X0248645Y0428734D02*
X0248145Y0428734D01*
X0247895Y0428484D01*
X0247895Y0427983D01*
X0248145Y0427733D01*
X0248645Y0427733D01*
X0248895Y0427983D01*
X0248895Y0428484D01*
X0248645Y0428734D01*
X0247422Y0428233D02*
X0247422Y0429234D01*
X0247422Y0428233D02*
X0246922Y0427733D01*
X0246421Y0428233D01*
X0246421Y0429234D01*
X0244476Y0428984D02*
X0244225Y0429234D01*
X0243725Y0429234D01*
X0243475Y0428984D01*
X0243475Y0427983D01*
X0243725Y0427733D01*
X0244225Y0427733D01*
X0244476Y0427983D01*
X0243002Y0427983D02*
X0242752Y0427733D01*
X0242252Y0427733D01*
X0242002Y0427983D01*
X0242002Y0428984D01*
X0242252Y0429234D01*
X0242752Y0429234D01*
X0243002Y0428984D01*
X0241529Y0429234D02*
X0241529Y0428233D01*
X0241029Y0427733D01*
X0240528Y0428233D01*
X0240528Y0429234D01*
X0239645Y0428734D02*
X0239145Y0428734D01*
X0239395Y0428984D02*
X0239395Y0427983D01*
X0239645Y0427733D01*
X0238672Y0427733D02*
X0238672Y0428484D01*
X0238422Y0428734D01*
X0237672Y0428734D01*
X0237672Y0427733D01*
X0237199Y0428233D02*
X0236198Y0428233D01*
X0236198Y0427983D02*
X0236198Y0428484D01*
X0236448Y0428734D01*
X0236949Y0428734D01*
X0237199Y0428484D01*
X0237199Y0428233D01*
X0236949Y0427733D02*
X0236448Y0427733D01*
X0236198Y0427983D01*
X0235721Y0428734D02*
X0235471Y0428734D01*
X0234971Y0428233D01*
X0234971Y0427733D02*
X0234971Y0428734D01*
X0234494Y0428734D02*
X0234243Y0428734D01*
X0233743Y0428233D01*
X0233743Y0427733D02*
X0233743Y0428734D01*
X0233270Y0428734D02*
X0233270Y0427733D01*
X0232520Y0427733D01*
X0232270Y0427983D01*
X0232270Y0428734D01*
X0231797Y0428984D02*
X0231547Y0429234D01*
X0231047Y0429234D01*
X0230796Y0428984D01*
X0230796Y0427983D01*
X0231047Y0427733D01*
X0231547Y0427733D01*
X0231797Y0427983D01*
X0228851Y0427983D02*
X0228600Y0427733D01*
X0228100Y0427733D01*
X0227850Y0427983D01*
X0227850Y0428984D01*
X0228100Y0429234D01*
X0228600Y0429234D01*
X0228851Y0428984D01*
X0227377Y0428984D02*
X0227127Y0429234D01*
X0226627Y0429234D01*
X0226377Y0428984D01*
X0226377Y0427983D01*
X0226627Y0427733D01*
X0227127Y0427733D01*
X0227377Y0427983D01*
X0225904Y0428233D02*
X0225904Y0429234D01*
X0225904Y0428233D02*
X0225404Y0427733D01*
X0224903Y0428233D01*
X0224903Y0429234D01*
X0222480Y0428734D02*
X0221979Y0428734D01*
X0222230Y0428984D02*
X0222230Y0427983D01*
X0222480Y0427733D01*
X0221507Y0427733D02*
X0221507Y0428734D01*
X0220506Y0428734D02*
X0220506Y0427983D01*
X0220756Y0427733D01*
X0221507Y0427733D01*
X0220034Y0427983D02*
X0220034Y0428984D01*
X0219784Y0429234D01*
X0219283Y0429234D01*
X0219033Y0428984D01*
X0219033Y0427983D01*
X0219283Y0427733D01*
X0219784Y0427733D01*
X0220034Y0427983D01*
X0217087Y0428233D02*
X0217087Y0429234D01*
X0216086Y0429234D02*
X0216086Y0428233D01*
X0216587Y0427733D01*
X0217087Y0428233D01*
X0215614Y0428233D02*
X0215614Y0427983D01*
X0215364Y0427733D01*
X0214863Y0427733D01*
X0214613Y0427983D01*
X0214127Y0427983D02*
X0214127Y0427733D01*
X0213877Y0427733D01*
X0213877Y0427983D01*
X0214127Y0427983D01*
X0213404Y0427983D02*
X0213154Y0427733D01*
X0212654Y0427733D01*
X0212403Y0427983D01*
X0212904Y0428484D02*
X0213154Y0428484D01*
X0213404Y0428233D01*
X0213404Y0427983D01*
X0213154Y0428484D02*
X0213404Y0428734D01*
X0213404Y0428984D01*
X0213154Y0429234D01*
X0212654Y0429234D01*
X0212403Y0428984D01*
X0214613Y0428984D02*
X0214863Y0429234D01*
X0215364Y0429234D01*
X0215614Y0428984D01*
X0215614Y0428734D01*
X0215364Y0428484D01*
X0215614Y0428233D01*
X0215364Y0428484D02*
X0215114Y0428484D01*
X0209141Y0428484D02*
X0209141Y0428233D01*
X0208140Y0428233D01*
X0208140Y0427983D02*
X0208140Y0428484D01*
X0208391Y0428734D01*
X0208891Y0428734D01*
X0209141Y0428484D01*
X0208891Y0427733D02*
X0208391Y0427733D01*
X0208140Y0427983D01*
X0207668Y0427733D02*
X0206917Y0427733D01*
X0206667Y0427983D01*
X0206667Y0428484D01*
X0206917Y0428734D01*
X0207668Y0428734D01*
X0207668Y0427483D01*
X0207418Y0427233D01*
X0207168Y0427233D01*
X0206195Y0427733D02*
X0205444Y0427733D01*
X0205194Y0427983D01*
X0205444Y0428233D01*
X0206195Y0428233D01*
X0206195Y0428484D02*
X0206195Y0427733D01*
X0206195Y0428484D02*
X0205944Y0428734D01*
X0205444Y0428734D01*
X0204712Y0428734D02*
X0204212Y0428734D01*
X0204462Y0428984D02*
X0204462Y0427983D01*
X0204712Y0427733D01*
X0203730Y0427733D02*
X0203229Y0427733D01*
X0203480Y0427733D02*
X0203480Y0429234D01*
X0203229Y0429234D01*
X0202507Y0428734D02*
X0202006Y0428734D01*
X0201756Y0428484D01*
X0201756Y0427983D01*
X0202006Y0427733D01*
X0202507Y0427733D01*
X0202757Y0427983D01*
X0202757Y0428484D01*
X0202507Y0428734D01*
X0201284Y0428233D02*
X0201284Y0429234D01*
X0201284Y0428233D02*
X0200783Y0427733D01*
X0200283Y0428233D01*
X0200283Y0429234D01*
X0198337Y0429234D02*
X0198337Y0428233D01*
X0197837Y0427733D01*
X0197336Y0428233D01*
X0197336Y0429234D01*
X0196864Y0428984D02*
X0196614Y0429234D01*
X0196113Y0429234D01*
X0195863Y0428984D01*
X0196364Y0428484D02*
X0196614Y0428484D01*
X0196864Y0428233D01*
X0196864Y0427983D01*
X0196614Y0427733D01*
X0196113Y0427733D01*
X0195863Y0427983D01*
X0195377Y0427983D02*
X0195377Y0427733D01*
X0195127Y0427733D01*
X0195127Y0427983D01*
X0195377Y0427983D01*
X0194654Y0427983D02*
X0194404Y0427733D01*
X0193904Y0427733D01*
X0193653Y0427983D01*
X0193507Y0427733D02*
X0193257Y0427983D01*
X0193257Y0428984D01*
X0193507Y0428734D02*
X0193006Y0428734D01*
X0192534Y0428484D02*
X0192534Y0427733D01*
X0192534Y0428484D02*
X0192284Y0428734D01*
X0191533Y0428734D01*
X0191533Y0427733D01*
X0191061Y0428233D02*
X0190060Y0428233D01*
X0190060Y0427983D02*
X0190060Y0428484D01*
X0190310Y0428734D01*
X0190811Y0428734D01*
X0191061Y0428484D01*
X0191061Y0428233D01*
X0190811Y0427733D02*
X0190310Y0427733D01*
X0190060Y0427983D01*
X0189583Y0428734D02*
X0189333Y0428734D01*
X0188832Y0428233D01*
X0188832Y0427733D02*
X0188832Y0428734D01*
X0188355Y0428734D02*
X0188105Y0428734D01*
X0187604Y0428233D01*
X0187604Y0427733D02*
X0187604Y0428734D01*
X0187132Y0428734D02*
X0187132Y0427733D01*
X0186381Y0427733D01*
X0186131Y0427983D01*
X0186131Y0428734D01*
X0185659Y0428984D02*
X0185409Y0429234D01*
X0184908Y0429234D01*
X0184658Y0428984D01*
X0184658Y0427983D01*
X0184908Y0427733D01*
X0185409Y0427733D01*
X0185659Y0427983D01*
X0182712Y0428233D02*
X0182712Y0429234D01*
X0182712Y0428233D02*
X0182212Y0427733D01*
X0181711Y0428233D01*
X0181711Y0429234D01*
X0181239Y0428984D02*
X0180989Y0429234D01*
X0180488Y0429234D01*
X0180238Y0428984D01*
X0180739Y0428484D02*
X0180989Y0428484D01*
X0181239Y0428233D01*
X0181239Y0427983D01*
X0180989Y0427733D01*
X0180488Y0427733D01*
X0180238Y0427983D01*
X0179752Y0427983D02*
X0179752Y0427733D01*
X0179502Y0427733D01*
X0179502Y0427983D01*
X0179752Y0427983D01*
X0179029Y0427983D02*
X0178779Y0427733D01*
X0178279Y0427733D01*
X0178028Y0427983D01*
X0178529Y0428484D02*
X0178779Y0428484D01*
X0179029Y0428233D01*
X0179029Y0427983D01*
X0178779Y0428484D02*
X0179029Y0428734D01*
X0179029Y0428984D01*
X0178779Y0429234D01*
X0178279Y0429234D01*
X0178028Y0428984D01*
X0180989Y0428484D02*
X0181239Y0428734D01*
X0181239Y0428984D01*
X0193653Y0428984D02*
X0193904Y0429234D01*
X0194404Y0429234D01*
X0194654Y0428984D01*
X0194654Y0428734D01*
X0194404Y0428484D01*
X0194654Y0428233D01*
X0194654Y0427983D01*
X0194404Y0428484D02*
X0194154Y0428484D01*
X0196614Y0428484D02*
X0196864Y0428734D01*
X0196864Y0428984D01*
X0255280Y0428484D02*
X0255280Y0428233D01*
D12*
X0081410Y0422634D02*
X0081410Y0421533D01*
X0081410Y0422634D02*
X0081044Y0423001D01*
X0079943Y0423001D01*
X0079943Y0421533D01*
X0079203Y0421533D02*
X0078469Y0421533D01*
X0078836Y0421533D02*
X0078836Y0423735D01*
X0078469Y0423735D02*
X0079203Y0423735D01*
X0075519Y0423001D02*
X0075152Y0423001D01*
X0074418Y0422267D01*
X0074418Y0421533D02*
X0074418Y0423001D01*
X0073676Y0422634D02*
X0073676Y0422267D01*
X0072208Y0422267D01*
X0072208Y0421900D02*
X0072208Y0422634D01*
X0072575Y0423001D01*
X0073309Y0423001D01*
X0073676Y0422634D01*
X0073309Y0421533D02*
X0072575Y0421533D01*
X0072208Y0421900D01*
X0071466Y0421900D02*
X0071466Y0423001D01*
X0071466Y0421900D02*
X0071099Y0421533D01*
X0070732Y0421900D01*
X0070365Y0421533D01*
X0069998Y0421900D01*
X0069998Y0423001D01*
X0069256Y0422634D02*
X0068889Y0423001D01*
X0068155Y0423001D01*
X0067788Y0422634D01*
X0067788Y0421900D01*
X0068155Y0421533D01*
X0068889Y0421533D01*
X0069256Y0421900D01*
X0069256Y0422634D01*
X0067046Y0422634D02*
X0066679Y0422267D01*
X0065578Y0422267D01*
X0065578Y0421533D02*
X0065578Y0423735D01*
X0066679Y0423735D01*
X0067046Y0423368D01*
X0067046Y0422634D01*
D13*
X0073978Y0087683D02*
X0020478Y0087683D01*
X0020478Y0142683D01*
X0073978Y0142683D01*
X0073978Y0087683D01*
X0087673Y0093933D02*
X0213657Y0093933D01*
X0213657Y0172673D01*
X0087673Y0172673D01*
X0087673Y0093933D01*
X0087673Y0187683D02*
X0213657Y0187683D01*
X0213657Y0266423D01*
X0087673Y0266423D01*
X0087673Y0187683D01*
X0084228Y0277683D02*
X0329228Y0277683D01*
X0329228Y0367683D01*
X0084228Y0367683D01*
X0084228Y0277683D01*
X0071138Y0379553D02*
X0020744Y0379553D01*
X0020744Y0400813D01*
X0071138Y0400813D01*
X0071138Y0379553D01*
X0338904Y0187427D02*
X0338904Y0174041D01*
X0357014Y0174041D01*
X0357014Y0187427D01*
X0338904Y0187427D01*
X0357801Y0192152D02*
X0357803Y0192191D01*
X0357809Y0192230D01*
X0357819Y0192268D01*
X0357832Y0192305D01*
X0357849Y0192340D01*
X0357869Y0192374D01*
X0357893Y0192405D01*
X0357920Y0192434D01*
X0357949Y0192460D01*
X0357981Y0192483D01*
X0358015Y0192503D01*
X0358051Y0192519D01*
X0358088Y0192531D01*
X0358127Y0192540D01*
X0358166Y0192545D01*
X0358205Y0192546D01*
X0358244Y0192543D01*
X0358283Y0192536D01*
X0358320Y0192525D01*
X0358357Y0192511D01*
X0358392Y0192493D01*
X0358425Y0192472D01*
X0358456Y0192447D01*
X0358484Y0192420D01*
X0358509Y0192390D01*
X0358531Y0192357D01*
X0358550Y0192323D01*
X0358565Y0192287D01*
X0358577Y0192249D01*
X0358585Y0192211D01*
X0358589Y0192172D01*
X0358589Y0192132D01*
X0358585Y0192093D01*
X0358577Y0192055D01*
X0358565Y0192017D01*
X0358550Y0191981D01*
X0358531Y0191947D01*
X0358509Y0191914D01*
X0358484Y0191884D01*
X0358456Y0191857D01*
X0358425Y0191832D01*
X0358392Y0191811D01*
X0358357Y0191793D01*
X0358320Y0191779D01*
X0358283Y0191768D01*
X0358244Y0191761D01*
X0358205Y0191758D01*
X0358166Y0191759D01*
X0358127Y0191764D01*
X0358088Y0191773D01*
X0358051Y0191785D01*
X0358015Y0191801D01*
X0357981Y0191821D01*
X0357949Y0191844D01*
X0357920Y0191870D01*
X0357893Y0191899D01*
X0357869Y0191930D01*
X0357849Y0191964D01*
X0357832Y0191999D01*
X0357819Y0192036D01*
X0357809Y0192074D01*
X0357803Y0192113D01*
X0357801Y0192152D01*
X0358195Y0192152D02*
X0358197Y0192191D01*
X0358203Y0192230D01*
X0358213Y0192268D01*
X0358226Y0192305D01*
X0358243Y0192340D01*
X0358263Y0192374D01*
X0358287Y0192405D01*
X0358314Y0192434D01*
X0358343Y0192460D01*
X0358375Y0192483D01*
X0358409Y0192503D01*
X0358445Y0192519D01*
X0358482Y0192531D01*
X0358521Y0192540D01*
X0358560Y0192545D01*
X0358599Y0192546D01*
X0358638Y0192543D01*
X0358677Y0192536D01*
X0358714Y0192525D01*
X0358751Y0192511D01*
X0358786Y0192493D01*
X0358819Y0192472D01*
X0358850Y0192447D01*
X0358878Y0192420D01*
X0358903Y0192390D01*
X0358925Y0192357D01*
X0358944Y0192323D01*
X0358959Y0192287D01*
X0358971Y0192249D01*
X0358979Y0192211D01*
X0358983Y0192172D01*
X0358983Y0192132D01*
X0358979Y0192093D01*
X0358971Y0192055D01*
X0358959Y0192017D01*
X0358944Y0191981D01*
X0358925Y0191947D01*
X0358903Y0191914D01*
X0358878Y0191884D01*
X0358850Y0191857D01*
X0358819Y0191832D01*
X0358786Y0191811D01*
X0358751Y0191793D01*
X0358714Y0191779D01*
X0358677Y0191768D01*
X0358638Y0191761D01*
X0358599Y0191758D01*
X0358560Y0191759D01*
X0358521Y0191764D01*
X0358482Y0191773D01*
X0358445Y0191785D01*
X0358409Y0191801D01*
X0358375Y0191821D01*
X0358343Y0191844D01*
X0358314Y0191870D01*
X0358287Y0191899D01*
X0358263Y0191930D01*
X0358243Y0191964D01*
X0358226Y0191999D01*
X0358213Y0192036D01*
X0358203Y0192074D01*
X0358197Y0192113D01*
X0358195Y0192152D01*
X0357709Y0192152D02*
X0357711Y0192211D01*
X0357717Y0192269D01*
X0357727Y0192327D01*
X0357740Y0192384D01*
X0357758Y0192441D01*
X0357779Y0192496D01*
X0357804Y0192549D01*
X0357832Y0192600D01*
X0357863Y0192650D01*
X0357898Y0192697D01*
X0357936Y0192742D01*
X0357977Y0192785D01*
X0358021Y0192824D01*
X0358067Y0192860D01*
X0358115Y0192894D01*
X0358166Y0192924D01*
X0358219Y0192950D01*
X0358273Y0192973D01*
X0358328Y0192992D01*
X0358385Y0193008D01*
X0358443Y0193020D01*
X0358501Y0193028D01*
X0358560Y0193032D01*
X0358618Y0193032D01*
X0358677Y0193028D01*
X0358735Y0193020D01*
X0358793Y0193008D01*
X0358850Y0192992D01*
X0358905Y0192973D01*
X0358959Y0192950D01*
X0359012Y0192924D01*
X0359063Y0192894D01*
X0359111Y0192860D01*
X0359157Y0192824D01*
X0359201Y0192785D01*
X0359242Y0192742D01*
X0359280Y0192697D01*
X0359315Y0192650D01*
X0359346Y0192600D01*
X0359374Y0192549D01*
X0359399Y0192496D01*
X0359420Y0192441D01*
X0359438Y0192384D01*
X0359451Y0192327D01*
X0359461Y0192269D01*
X0359467Y0192211D01*
X0359469Y0192152D01*
X0359467Y0192093D01*
X0359461Y0192035D01*
X0359451Y0191977D01*
X0359438Y0191920D01*
X0359420Y0191863D01*
X0359399Y0191808D01*
X0359374Y0191755D01*
X0359346Y0191704D01*
X0359315Y0191654D01*
X0359280Y0191607D01*
X0359242Y0191562D01*
X0359201Y0191519D01*
X0359157Y0191480D01*
X0359111Y0191444D01*
X0359063Y0191410D01*
X0359012Y0191380D01*
X0358959Y0191354D01*
X0358905Y0191331D01*
X0358850Y0191312D01*
X0358793Y0191296D01*
X0358735Y0191284D01*
X0358677Y0191276D01*
X0358618Y0191272D01*
X0358560Y0191272D01*
X0358501Y0191276D01*
X0358443Y0191284D01*
X0358385Y0191296D01*
X0358328Y0191312D01*
X0358273Y0191331D01*
X0358219Y0191354D01*
X0358166Y0191380D01*
X0358115Y0191410D01*
X0358067Y0191444D01*
X0358021Y0191480D01*
X0357977Y0191519D01*
X0357936Y0191562D01*
X0357898Y0191607D01*
X0357863Y0191654D01*
X0357832Y0191704D01*
X0357804Y0191755D01*
X0357779Y0191808D01*
X0357758Y0191863D01*
X0357740Y0191920D01*
X0357727Y0191977D01*
X0357717Y0192035D01*
X0357711Y0192093D01*
X0357709Y0192152D01*
X0358588Y0192152D02*
X0358590Y0192191D01*
X0358596Y0192230D01*
X0358606Y0192268D01*
X0358619Y0192305D01*
X0358636Y0192340D01*
X0358656Y0192374D01*
X0358680Y0192405D01*
X0358707Y0192434D01*
X0358736Y0192460D01*
X0358768Y0192483D01*
X0358802Y0192503D01*
X0358838Y0192519D01*
X0358875Y0192531D01*
X0358914Y0192540D01*
X0358953Y0192545D01*
X0358992Y0192546D01*
X0359031Y0192543D01*
X0359070Y0192536D01*
X0359107Y0192525D01*
X0359144Y0192511D01*
X0359179Y0192493D01*
X0359212Y0192472D01*
X0359243Y0192447D01*
X0359271Y0192420D01*
X0359296Y0192390D01*
X0359318Y0192357D01*
X0359337Y0192323D01*
X0359352Y0192287D01*
X0359364Y0192249D01*
X0359372Y0192211D01*
X0359376Y0192172D01*
X0359376Y0192132D01*
X0359372Y0192093D01*
X0359364Y0192055D01*
X0359352Y0192017D01*
X0359337Y0191981D01*
X0359318Y0191947D01*
X0359296Y0191914D01*
X0359271Y0191884D01*
X0359243Y0191857D01*
X0359212Y0191832D01*
X0359179Y0191811D01*
X0359144Y0191793D01*
X0359107Y0191779D01*
X0359070Y0191768D01*
X0359031Y0191761D01*
X0358992Y0191758D01*
X0358953Y0191759D01*
X0358914Y0191764D01*
X0358875Y0191773D01*
X0358838Y0191785D01*
X0358802Y0191801D01*
X0358768Y0191821D01*
X0358736Y0191844D01*
X0358707Y0191870D01*
X0358680Y0191899D01*
X0358656Y0191930D01*
X0358636Y0191964D01*
X0358619Y0191999D01*
X0358606Y0192036D01*
X0358596Y0192074D01*
X0358590Y0192113D01*
X0358588Y0192152D01*
X0366069Y0302535D02*
X0416463Y0302535D01*
X0416463Y0340331D01*
X0366069Y0340331D01*
X0366069Y0302535D01*
D14*
X0096374Y0185872D03*
X0096374Y0092122D03*
D15*
X0197978Y0175183D02*
X0197978Y0177683D01*
X0197978Y0180183D01*
X0207978Y0180183D01*
X0207978Y0177683D01*
X0207978Y0175183D01*
X0197978Y0175183D01*
X0197978Y0177683D02*
X0195978Y0177683D01*
X0207978Y0177683D02*
X0209978Y0177683D01*
X0229228Y0175433D02*
X0229228Y0192433D01*
X0229230Y0192493D01*
X0229235Y0192554D01*
X0229244Y0192613D01*
X0229257Y0192672D01*
X0229273Y0192731D01*
X0229293Y0192788D01*
X0229316Y0192843D01*
X0229343Y0192898D01*
X0229372Y0192950D01*
X0229405Y0193001D01*
X0229441Y0193050D01*
X0229479Y0193096D01*
X0229521Y0193140D01*
X0229565Y0193182D01*
X0229611Y0193220D01*
X0229660Y0193256D01*
X0229711Y0193289D01*
X0229763Y0193318D01*
X0229818Y0193345D01*
X0229873Y0193368D01*
X0229930Y0193388D01*
X0229989Y0193404D01*
X0230048Y0193417D01*
X0230107Y0193426D01*
X0230168Y0193431D01*
X0230228Y0193433D01*
X0238228Y0193433D01*
X0238288Y0193431D01*
X0238349Y0193426D01*
X0238408Y0193417D01*
X0238467Y0193404D01*
X0238526Y0193388D01*
X0238583Y0193368D01*
X0238638Y0193345D01*
X0238693Y0193318D01*
X0238745Y0193289D01*
X0238796Y0193256D01*
X0238845Y0193220D01*
X0238891Y0193182D01*
X0238935Y0193140D01*
X0238977Y0193096D01*
X0239015Y0193050D01*
X0239051Y0193001D01*
X0239084Y0192950D01*
X0239113Y0192898D01*
X0239140Y0192843D01*
X0239163Y0192788D01*
X0239183Y0192731D01*
X0239199Y0192672D01*
X0239212Y0192613D01*
X0239221Y0192554D01*
X0239226Y0192493D01*
X0239228Y0192433D01*
X0239228Y0175433D01*
X0239226Y0175373D01*
X0239221Y0175312D01*
X0239212Y0175253D01*
X0239199Y0175194D01*
X0239183Y0175135D01*
X0239163Y0175078D01*
X0239140Y0175023D01*
X0239113Y0174968D01*
X0239084Y0174916D01*
X0239051Y0174865D01*
X0239015Y0174816D01*
X0238977Y0174770D01*
X0238935Y0174726D01*
X0238891Y0174684D01*
X0238845Y0174646D01*
X0238796Y0174610D01*
X0238745Y0174577D01*
X0238693Y0174548D01*
X0238638Y0174521D01*
X0238583Y0174498D01*
X0238526Y0174478D01*
X0238467Y0174462D01*
X0238408Y0174449D01*
X0238349Y0174440D01*
X0238288Y0174435D01*
X0238228Y0174433D01*
X0230228Y0174433D01*
X0230168Y0174435D01*
X0230107Y0174440D01*
X0230048Y0174449D01*
X0229989Y0174462D01*
X0229930Y0174478D01*
X0229873Y0174498D01*
X0229818Y0174521D01*
X0229763Y0174548D01*
X0229711Y0174577D01*
X0229660Y0174610D01*
X0229611Y0174646D01*
X0229565Y0174684D01*
X0229521Y0174726D01*
X0229479Y0174770D01*
X0229441Y0174816D01*
X0229405Y0174865D01*
X0229372Y0174916D01*
X0229343Y0174968D01*
X0229316Y0175023D01*
X0229293Y0175078D01*
X0229273Y0175135D01*
X0229257Y0175194D01*
X0229244Y0175253D01*
X0229235Y0175312D01*
X0229230Y0175373D01*
X0229228Y0175433D01*
X0234228Y0182433D02*
X0234228Y0182933D01*
X0234228Y0184933D02*
X0234228Y0185433D01*
X0242728Y0191433D02*
X0243228Y0190933D01*
X0243228Y0176933D01*
X0242728Y0176433D01*
X0242728Y0174933D01*
X0242730Y0174873D01*
X0242735Y0174812D01*
X0242744Y0174753D01*
X0242757Y0174694D01*
X0242773Y0174635D01*
X0242793Y0174578D01*
X0242816Y0174523D01*
X0242843Y0174468D01*
X0242872Y0174416D01*
X0242905Y0174365D01*
X0242941Y0174316D01*
X0242979Y0174270D01*
X0243021Y0174226D01*
X0243065Y0174184D01*
X0243111Y0174146D01*
X0243160Y0174110D01*
X0243211Y0174077D01*
X0243263Y0174048D01*
X0243318Y0174021D01*
X0243373Y0173998D01*
X0243430Y0173978D01*
X0243489Y0173962D01*
X0243548Y0173949D01*
X0243607Y0173940D01*
X0243668Y0173935D01*
X0243728Y0173933D01*
X0249728Y0173933D01*
X0249788Y0173935D01*
X0249849Y0173940D01*
X0249908Y0173949D01*
X0249967Y0173962D01*
X0250026Y0173978D01*
X0250083Y0173998D01*
X0250138Y0174021D01*
X0250193Y0174048D01*
X0250245Y0174077D01*
X0250296Y0174110D01*
X0250345Y0174146D01*
X0250391Y0174184D01*
X0250435Y0174226D01*
X0250477Y0174270D01*
X0250515Y0174316D01*
X0250551Y0174365D01*
X0250584Y0174416D01*
X0250613Y0174468D01*
X0250640Y0174523D01*
X0250663Y0174578D01*
X0250683Y0174635D01*
X0250699Y0174694D01*
X0250712Y0174753D01*
X0250721Y0174812D01*
X0250726Y0174873D01*
X0250728Y0174933D01*
X0250728Y0176433D01*
X0250228Y0176933D01*
X0250228Y0190933D01*
X0250728Y0191433D01*
X0250728Y0192933D01*
X0250726Y0192993D01*
X0250721Y0193054D01*
X0250712Y0193113D01*
X0250699Y0193172D01*
X0250683Y0193231D01*
X0250663Y0193288D01*
X0250640Y0193343D01*
X0250613Y0193398D01*
X0250584Y0193450D01*
X0250551Y0193501D01*
X0250515Y0193550D01*
X0250477Y0193596D01*
X0250435Y0193640D01*
X0250391Y0193682D01*
X0250345Y0193720D01*
X0250296Y0193756D01*
X0250245Y0193789D01*
X0250193Y0193818D01*
X0250138Y0193845D01*
X0250083Y0193868D01*
X0250026Y0193888D01*
X0249967Y0193904D01*
X0249908Y0193917D01*
X0249849Y0193926D01*
X0249788Y0193931D01*
X0249728Y0193933D01*
X0243728Y0193933D01*
X0243668Y0193931D01*
X0243607Y0193926D01*
X0243548Y0193917D01*
X0243489Y0193904D01*
X0243430Y0193888D01*
X0243373Y0193868D01*
X0243318Y0193845D01*
X0243263Y0193818D01*
X0243211Y0193789D01*
X0243160Y0193756D01*
X0243111Y0193720D01*
X0243065Y0193682D01*
X0243021Y0193640D01*
X0242979Y0193596D01*
X0242941Y0193550D01*
X0242905Y0193501D01*
X0242872Y0193450D01*
X0242843Y0193398D01*
X0242816Y0193343D01*
X0242793Y0193288D01*
X0242773Y0193231D01*
X0242757Y0193172D01*
X0242744Y0193113D01*
X0242735Y0193054D01*
X0242730Y0192993D01*
X0242728Y0192933D01*
X0242728Y0191433D01*
X0255228Y0191433D02*
X0255728Y0190933D01*
X0255728Y0176933D01*
X0255228Y0176433D01*
X0255228Y0174933D01*
X0255230Y0174873D01*
X0255235Y0174812D01*
X0255244Y0174753D01*
X0255257Y0174694D01*
X0255273Y0174635D01*
X0255293Y0174578D01*
X0255316Y0174523D01*
X0255343Y0174468D01*
X0255372Y0174416D01*
X0255405Y0174365D01*
X0255441Y0174316D01*
X0255479Y0174270D01*
X0255521Y0174226D01*
X0255565Y0174184D01*
X0255611Y0174146D01*
X0255660Y0174110D01*
X0255711Y0174077D01*
X0255763Y0174048D01*
X0255818Y0174021D01*
X0255873Y0173998D01*
X0255930Y0173978D01*
X0255989Y0173962D01*
X0256048Y0173949D01*
X0256107Y0173940D01*
X0256168Y0173935D01*
X0256228Y0173933D01*
X0262228Y0173933D01*
X0262288Y0173935D01*
X0262349Y0173940D01*
X0262408Y0173949D01*
X0262467Y0173962D01*
X0262526Y0173978D01*
X0262583Y0173998D01*
X0262638Y0174021D01*
X0262693Y0174048D01*
X0262745Y0174077D01*
X0262796Y0174110D01*
X0262845Y0174146D01*
X0262891Y0174184D01*
X0262935Y0174226D01*
X0262977Y0174270D01*
X0263015Y0174316D01*
X0263051Y0174365D01*
X0263084Y0174416D01*
X0263113Y0174468D01*
X0263140Y0174523D01*
X0263163Y0174578D01*
X0263183Y0174635D01*
X0263199Y0174694D01*
X0263212Y0174753D01*
X0263221Y0174812D01*
X0263226Y0174873D01*
X0263228Y0174933D01*
X0263228Y0176433D01*
X0262728Y0176933D01*
X0262728Y0190933D01*
X0263228Y0191433D01*
X0263228Y0192933D01*
X0263226Y0192993D01*
X0263221Y0193054D01*
X0263212Y0193113D01*
X0263199Y0193172D01*
X0263183Y0193231D01*
X0263163Y0193288D01*
X0263140Y0193343D01*
X0263113Y0193398D01*
X0263084Y0193450D01*
X0263051Y0193501D01*
X0263015Y0193550D01*
X0262977Y0193596D01*
X0262935Y0193640D01*
X0262891Y0193682D01*
X0262845Y0193720D01*
X0262796Y0193756D01*
X0262745Y0193789D01*
X0262693Y0193818D01*
X0262638Y0193845D01*
X0262583Y0193868D01*
X0262526Y0193888D01*
X0262467Y0193904D01*
X0262408Y0193917D01*
X0262349Y0193926D01*
X0262288Y0193931D01*
X0262228Y0193933D01*
X0256228Y0193933D01*
X0256168Y0193931D01*
X0256107Y0193926D01*
X0256048Y0193917D01*
X0255989Y0193904D01*
X0255930Y0193888D01*
X0255873Y0193868D01*
X0255818Y0193845D01*
X0255763Y0193818D01*
X0255711Y0193789D01*
X0255660Y0193756D01*
X0255611Y0193720D01*
X0255565Y0193682D01*
X0255521Y0193640D01*
X0255479Y0193596D01*
X0255441Y0193550D01*
X0255405Y0193501D01*
X0255372Y0193450D01*
X0255343Y0193398D01*
X0255316Y0193343D01*
X0255293Y0193288D01*
X0255273Y0193231D01*
X0255257Y0193172D01*
X0255244Y0193113D01*
X0255235Y0193054D01*
X0255230Y0192993D01*
X0255228Y0192933D01*
X0255228Y0191433D01*
X0269853Y0189308D02*
X0269853Y0172308D01*
X0269855Y0172248D01*
X0269860Y0172187D01*
X0269869Y0172128D01*
X0269882Y0172069D01*
X0269898Y0172010D01*
X0269918Y0171953D01*
X0269941Y0171898D01*
X0269968Y0171843D01*
X0269997Y0171791D01*
X0270030Y0171740D01*
X0270066Y0171691D01*
X0270104Y0171645D01*
X0270146Y0171601D01*
X0270190Y0171559D01*
X0270236Y0171521D01*
X0270285Y0171485D01*
X0270336Y0171452D01*
X0270388Y0171423D01*
X0270443Y0171396D01*
X0270498Y0171373D01*
X0270555Y0171353D01*
X0270614Y0171337D01*
X0270673Y0171324D01*
X0270732Y0171315D01*
X0270793Y0171310D01*
X0270853Y0171308D01*
X0278853Y0171308D01*
X0278913Y0171310D01*
X0278974Y0171315D01*
X0279033Y0171324D01*
X0279092Y0171337D01*
X0279151Y0171353D01*
X0279208Y0171373D01*
X0279263Y0171396D01*
X0279318Y0171423D01*
X0279370Y0171452D01*
X0279421Y0171485D01*
X0279470Y0171521D01*
X0279516Y0171559D01*
X0279560Y0171601D01*
X0279602Y0171645D01*
X0279640Y0171691D01*
X0279676Y0171740D01*
X0279709Y0171791D01*
X0279738Y0171843D01*
X0279765Y0171898D01*
X0279788Y0171953D01*
X0279808Y0172010D01*
X0279824Y0172069D01*
X0279837Y0172128D01*
X0279846Y0172187D01*
X0279851Y0172248D01*
X0279853Y0172308D01*
X0279853Y0189308D01*
X0279851Y0189368D01*
X0279846Y0189429D01*
X0279837Y0189488D01*
X0279824Y0189547D01*
X0279808Y0189606D01*
X0279788Y0189663D01*
X0279765Y0189718D01*
X0279738Y0189773D01*
X0279709Y0189825D01*
X0279676Y0189876D01*
X0279640Y0189925D01*
X0279602Y0189971D01*
X0279560Y0190015D01*
X0279516Y0190057D01*
X0279470Y0190095D01*
X0279421Y0190131D01*
X0279370Y0190164D01*
X0279318Y0190193D01*
X0279263Y0190220D01*
X0279208Y0190243D01*
X0279151Y0190263D01*
X0279092Y0190279D01*
X0279033Y0190292D01*
X0278974Y0190301D01*
X0278913Y0190306D01*
X0278853Y0190308D01*
X0270853Y0190308D01*
X0270793Y0190306D01*
X0270732Y0190301D01*
X0270673Y0190292D01*
X0270614Y0190279D01*
X0270555Y0190263D01*
X0270498Y0190243D01*
X0270443Y0190220D01*
X0270388Y0190193D01*
X0270336Y0190164D01*
X0270285Y0190131D01*
X0270236Y0190095D01*
X0270190Y0190057D01*
X0270146Y0190015D01*
X0270104Y0189971D01*
X0270066Y0189925D01*
X0270030Y0189876D01*
X0269997Y0189825D01*
X0269968Y0189773D01*
X0269941Y0189718D01*
X0269918Y0189663D01*
X0269898Y0189606D01*
X0269882Y0189547D01*
X0269869Y0189488D01*
X0269860Y0189429D01*
X0269855Y0189368D01*
X0269853Y0189308D01*
X0274853Y0182308D02*
X0274853Y0181808D01*
X0274853Y0179808D02*
X0274853Y0179308D01*
X0275728Y0167058D02*
X0292728Y0167058D01*
X0292788Y0167056D01*
X0292849Y0167051D01*
X0292908Y0167042D01*
X0292967Y0167029D01*
X0293026Y0167013D01*
X0293083Y0166993D01*
X0293138Y0166970D01*
X0293193Y0166943D01*
X0293245Y0166914D01*
X0293296Y0166881D01*
X0293345Y0166845D01*
X0293391Y0166807D01*
X0293435Y0166765D01*
X0293477Y0166721D01*
X0293515Y0166675D01*
X0293551Y0166626D01*
X0293584Y0166575D01*
X0293613Y0166523D01*
X0293640Y0166468D01*
X0293663Y0166413D01*
X0293683Y0166356D01*
X0293699Y0166297D01*
X0293712Y0166238D01*
X0293721Y0166179D01*
X0293726Y0166118D01*
X0293728Y0166058D01*
X0293728Y0158058D01*
X0293726Y0157998D01*
X0293721Y0157937D01*
X0293712Y0157878D01*
X0293699Y0157819D01*
X0293683Y0157760D01*
X0293663Y0157703D01*
X0293640Y0157648D01*
X0293613Y0157593D01*
X0293584Y0157541D01*
X0293551Y0157490D01*
X0293515Y0157441D01*
X0293477Y0157395D01*
X0293435Y0157351D01*
X0293391Y0157309D01*
X0293345Y0157271D01*
X0293296Y0157235D01*
X0293245Y0157202D01*
X0293193Y0157173D01*
X0293138Y0157146D01*
X0293083Y0157123D01*
X0293026Y0157103D01*
X0292967Y0157087D01*
X0292908Y0157074D01*
X0292849Y0157065D01*
X0292788Y0157060D01*
X0292728Y0157058D01*
X0275728Y0157058D01*
X0275668Y0157060D01*
X0275607Y0157065D01*
X0275548Y0157074D01*
X0275489Y0157087D01*
X0275430Y0157103D01*
X0275373Y0157123D01*
X0275318Y0157146D01*
X0275263Y0157173D01*
X0275211Y0157202D01*
X0275160Y0157235D01*
X0275111Y0157271D01*
X0275065Y0157309D01*
X0275021Y0157351D01*
X0274979Y0157395D01*
X0274941Y0157441D01*
X0274905Y0157490D01*
X0274872Y0157541D01*
X0274843Y0157593D01*
X0274816Y0157648D01*
X0274793Y0157703D01*
X0274773Y0157760D01*
X0274757Y0157819D01*
X0274744Y0157878D01*
X0274735Y0157937D01*
X0274730Y0157998D01*
X0274728Y0158058D01*
X0274728Y0166058D01*
X0274730Y0166118D01*
X0274735Y0166179D01*
X0274744Y0166238D01*
X0274757Y0166297D01*
X0274773Y0166356D01*
X0274793Y0166413D01*
X0274816Y0166468D01*
X0274843Y0166523D01*
X0274872Y0166575D01*
X0274905Y0166626D01*
X0274941Y0166675D01*
X0274979Y0166721D01*
X0275021Y0166765D01*
X0275065Y0166807D01*
X0275111Y0166845D01*
X0275160Y0166881D01*
X0275211Y0166914D01*
X0275263Y0166943D01*
X0275318Y0166970D01*
X0275373Y0166993D01*
X0275430Y0167013D01*
X0275489Y0167029D01*
X0275548Y0167042D01*
X0275607Y0167051D01*
X0275668Y0167056D01*
X0275728Y0167058D01*
X0282728Y0162058D02*
X0283228Y0162058D01*
X0285228Y0162058D02*
X0285728Y0162058D01*
X0299728Y0164308D02*
X0299728Y0172308D01*
X0299730Y0172368D01*
X0299735Y0172429D01*
X0299744Y0172488D01*
X0299757Y0172547D01*
X0299773Y0172606D01*
X0299793Y0172663D01*
X0299816Y0172718D01*
X0299843Y0172773D01*
X0299872Y0172825D01*
X0299905Y0172876D01*
X0299941Y0172925D01*
X0299979Y0172971D01*
X0300021Y0173015D01*
X0300065Y0173057D01*
X0300111Y0173095D01*
X0300160Y0173131D01*
X0300211Y0173164D01*
X0300263Y0173193D01*
X0300318Y0173220D01*
X0300373Y0173243D01*
X0300430Y0173263D01*
X0300489Y0173279D01*
X0300548Y0173292D01*
X0300607Y0173301D01*
X0300668Y0173306D01*
X0300728Y0173308D01*
X0317728Y0173308D01*
X0317788Y0173306D01*
X0317849Y0173301D01*
X0317908Y0173292D01*
X0317967Y0173279D01*
X0318026Y0173263D01*
X0318083Y0173243D01*
X0318138Y0173220D01*
X0318193Y0173193D01*
X0318245Y0173164D01*
X0318296Y0173131D01*
X0318345Y0173095D01*
X0318391Y0173057D01*
X0318435Y0173015D01*
X0318477Y0172971D01*
X0318515Y0172925D01*
X0318551Y0172876D01*
X0318584Y0172825D01*
X0318613Y0172773D01*
X0318640Y0172718D01*
X0318663Y0172663D01*
X0318683Y0172606D01*
X0318699Y0172547D01*
X0318712Y0172488D01*
X0318721Y0172429D01*
X0318726Y0172368D01*
X0318728Y0172308D01*
X0318728Y0164308D01*
X0318726Y0164248D01*
X0318721Y0164187D01*
X0318712Y0164128D01*
X0318699Y0164069D01*
X0318683Y0164010D01*
X0318663Y0163953D01*
X0318640Y0163898D01*
X0318613Y0163843D01*
X0318584Y0163791D01*
X0318551Y0163740D01*
X0318515Y0163691D01*
X0318477Y0163645D01*
X0318435Y0163601D01*
X0318391Y0163559D01*
X0318345Y0163521D01*
X0318296Y0163485D01*
X0318245Y0163452D01*
X0318193Y0163423D01*
X0318138Y0163396D01*
X0318083Y0163373D01*
X0318026Y0163353D01*
X0317967Y0163337D01*
X0317908Y0163324D01*
X0317849Y0163315D01*
X0317788Y0163310D01*
X0317728Y0163308D01*
X0300728Y0163308D01*
X0300668Y0163310D01*
X0300607Y0163315D01*
X0300548Y0163324D01*
X0300489Y0163337D01*
X0300430Y0163353D01*
X0300373Y0163373D01*
X0300318Y0163396D01*
X0300263Y0163423D01*
X0300211Y0163452D01*
X0300160Y0163485D01*
X0300111Y0163521D01*
X0300065Y0163559D01*
X0300021Y0163601D01*
X0299979Y0163645D01*
X0299941Y0163691D01*
X0299905Y0163740D01*
X0299872Y0163791D01*
X0299843Y0163843D01*
X0299816Y0163898D01*
X0299793Y0163953D01*
X0299773Y0164010D01*
X0299757Y0164069D01*
X0299744Y0164128D01*
X0299735Y0164187D01*
X0299730Y0164248D01*
X0299728Y0164308D01*
X0307728Y0168308D02*
X0308228Y0168308D01*
X0310228Y0168308D02*
X0310728Y0168308D01*
X0314978Y0180558D02*
X0290978Y0180558D01*
X0290818Y0180560D01*
X0290659Y0180566D01*
X0290500Y0180576D01*
X0290341Y0180589D01*
X0290182Y0180607D01*
X0290024Y0180628D01*
X0289867Y0180654D01*
X0289710Y0180683D01*
X0289554Y0180716D01*
X0289399Y0180753D01*
X0289244Y0180793D01*
X0289091Y0180838D01*
X0288939Y0180886D01*
X0288788Y0180938D01*
X0288639Y0180994D01*
X0288491Y0181053D01*
X0288344Y0181116D01*
X0288199Y0181182D01*
X0288056Y0181252D01*
X0287914Y0181326D01*
X0287774Y0181402D01*
X0287636Y0181483D01*
X0287501Y0181566D01*
X0287367Y0181653D01*
X0287235Y0181744D01*
X0287106Y0181837D01*
X0286979Y0181934D01*
X0286854Y0182033D01*
X0286732Y0182136D01*
X0286613Y0182242D01*
X0286496Y0182350D01*
X0286382Y0182462D01*
X0286270Y0182576D01*
X0286162Y0182693D01*
X0286056Y0182812D01*
X0285953Y0182934D01*
X0285854Y0183059D01*
X0285757Y0183186D01*
X0285664Y0183315D01*
X0285573Y0183447D01*
X0285486Y0183581D01*
X0285403Y0183716D01*
X0285322Y0183854D01*
X0285246Y0183994D01*
X0285172Y0184136D01*
X0285102Y0184279D01*
X0285036Y0184424D01*
X0284973Y0184571D01*
X0284914Y0184719D01*
X0284858Y0184868D01*
X0284806Y0185019D01*
X0284758Y0185171D01*
X0284713Y0185324D01*
X0284673Y0185479D01*
X0284636Y0185634D01*
X0284603Y0185790D01*
X0284574Y0185947D01*
X0284548Y0186104D01*
X0284527Y0186262D01*
X0284509Y0186421D01*
X0284496Y0186580D01*
X0284486Y0186739D01*
X0284480Y0186898D01*
X0284478Y0187058D01*
X0284480Y0187218D01*
X0284486Y0187377D01*
X0284496Y0187536D01*
X0284509Y0187695D01*
X0284527Y0187854D01*
X0284548Y0188012D01*
X0284574Y0188169D01*
X0284603Y0188326D01*
X0284636Y0188482D01*
X0284673Y0188637D01*
X0284713Y0188792D01*
X0284758Y0188945D01*
X0284806Y0189097D01*
X0284858Y0189248D01*
X0284914Y0189397D01*
X0284973Y0189545D01*
X0285036Y0189692D01*
X0285102Y0189837D01*
X0285172Y0189980D01*
X0285246Y0190122D01*
X0285322Y0190262D01*
X0285403Y0190400D01*
X0285486Y0190535D01*
X0285573Y0190669D01*
X0285664Y0190801D01*
X0285757Y0190930D01*
X0285854Y0191057D01*
X0285953Y0191182D01*
X0286056Y0191304D01*
X0286162Y0191423D01*
X0286270Y0191540D01*
X0286382Y0191654D01*
X0286496Y0191766D01*
X0286613Y0191874D01*
X0286732Y0191980D01*
X0286854Y0192083D01*
X0286979Y0192182D01*
X0287106Y0192279D01*
X0287235Y0192372D01*
X0287367Y0192463D01*
X0287501Y0192550D01*
X0287636Y0192633D01*
X0287774Y0192714D01*
X0287914Y0192790D01*
X0288056Y0192864D01*
X0288199Y0192934D01*
X0288344Y0193000D01*
X0288491Y0193063D01*
X0288639Y0193122D01*
X0288788Y0193178D01*
X0288939Y0193230D01*
X0289091Y0193278D01*
X0289244Y0193323D01*
X0289399Y0193363D01*
X0289554Y0193400D01*
X0289710Y0193433D01*
X0289867Y0193462D01*
X0290024Y0193488D01*
X0290182Y0193509D01*
X0290341Y0193527D01*
X0290500Y0193540D01*
X0290659Y0193550D01*
X0290818Y0193556D01*
X0290978Y0193558D01*
X0314978Y0193558D01*
X0315138Y0193556D01*
X0315297Y0193550D01*
X0315456Y0193540D01*
X0315615Y0193527D01*
X0315774Y0193509D01*
X0315932Y0193488D01*
X0316089Y0193462D01*
X0316246Y0193433D01*
X0316402Y0193400D01*
X0316557Y0193363D01*
X0316712Y0193323D01*
X0316865Y0193278D01*
X0317017Y0193230D01*
X0317168Y0193178D01*
X0317317Y0193122D01*
X0317465Y0193063D01*
X0317612Y0193000D01*
X0317757Y0192934D01*
X0317900Y0192864D01*
X0318042Y0192790D01*
X0318182Y0192714D01*
X0318320Y0192633D01*
X0318455Y0192550D01*
X0318589Y0192463D01*
X0318721Y0192372D01*
X0318850Y0192279D01*
X0318977Y0192182D01*
X0319102Y0192083D01*
X0319224Y0191980D01*
X0319343Y0191874D01*
X0319460Y0191766D01*
X0319574Y0191654D01*
X0319686Y0191540D01*
X0319794Y0191423D01*
X0319900Y0191304D01*
X0320003Y0191182D01*
X0320102Y0191057D01*
X0320199Y0190930D01*
X0320292Y0190801D01*
X0320383Y0190669D01*
X0320470Y0190535D01*
X0320553Y0190400D01*
X0320634Y0190262D01*
X0320710Y0190122D01*
X0320784Y0189980D01*
X0320854Y0189837D01*
X0320920Y0189692D01*
X0320983Y0189545D01*
X0321042Y0189397D01*
X0321098Y0189248D01*
X0321150Y0189097D01*
X0321198Y0188945D01*
X0321243Y0188792D01*
X0321283Y0188637D01*
X0321320Y0188482D01*
X0321353Y0188326D01*
X0321382Y0188169D01*
X0321408Y0188012D01*
X0321429Y0187854D01*
X0321447Y0187695D01*
X0321460Y0187536D01*
X0321470Y0187377D01*
X0321476Y0187218D01*
X0321478Y0187058D01*
X0321476Y0186898D01*
X0321470Y0186739D01*
X0321460Y0186580D01*
X0321447Y0186421D01*
X0321429Y0186262D01*
X0321408Y0186104D01*
X0321382Y0185947D01*
X0321353Y0185790D01*
X0321320Y0185634D01*
X0321283Y0185479D01*
X0321243Y0185324D01*
X0321198Y0185171D01*
X0321150Y0185019D01*
X0321098Y0184868D01*
X0321042Y0184719D01*
X0320983Y0184571D01*
X0320920Y0184424D01*
X0320854Y0184279D01*
X0320784Y0184136D01*
X0320710Y0183994D01*
X0320634Y0183854D01*
X0320553Y0183716D01*
X0320470Y0183581D01*
X0320383Y0183447D01*
X0320292Y0183315D01*
X0320199Y0183186D01*
X0320102Y0183059D01*
X0320003Y0182934D01*
X0319900Y0182812D01*
X0319794Y0182693D01*
X0319686Y0182576D01*
X0319574Y0182462D01*
X0319460Y0182350D01*
X0319343Y0182242D01*
X0319224Y0182136D01*
X0319102Y0182033D01*
X0318977Y0181934D01*
X0318850Y0181837D01*
X0318721Y0181744D01*
X0318589Y0181653D01*
X0318455Y0181566D01*
X0318320Y0181483D01*
X0318182Y0181402D01*
X0318042Y0181326D01*
X0317900Y0181252D01*
X0317757Y0181182D01*
X0317612Y0181116D01*
X0317465Y0181053D01*
X0317317Y0180994D01*
X0317168Y0180938D01*
X0317017Y0180886D01*
X0316865Y0180838D01*
X0316712Y0180793D01*
X0316557Y0180753D01*
X0316402Y0180716D01*
X0316246Y0180683D01*
X0316089Y0180654D01*
X0315932Y0180628D01*
X0315774Y0180607D01*
X0315615Y0180589D01*
X0315456Y0180576D01*
X0315297Y0180566D01*
X0315138Y0180560D01*
X0314978Y0180558D01*
X0307978Y0187058D02*
X0305478Y0187058D01*
X0305478Y0190058D01*
X0303978Y0190058D02*
X0303978Y0184058D01*
X0301978Y0184058D01*
X0301978Y0190058D01*
X0303978Y0190058D01*
X0305478Y0187058D02*
X0305478Y0184058D01*
X0300478Y0184058D02*
X0300478Y0187058D01*
X0297978Y0187058D01*
X0300478Y0187058D02*
X0300478Y0190058D01*
X0300528Y0204683D02*
X0302928Y0204683D01*
X0310528Y0204683D02*
X0312928Y0204683D01*
X0320528Y0204683D02*
X0322928Y0204683D01*
X0330528Y0204683D02*
X0332928Y0204683D01*
X0340528Y0204683D02*
X0342928Y0204683D01*
X0350528Y0204683D02*
X0352928Y0204683D01*
X0360528Y0204683D02*
X0364728Y0204683D01*
X0364728Y0216483D01*
X0364728Y0218883D01*
X0364728Y0230683D01*
X0361028Y0230683D01*
X0352428Y0230683D02*
X0350528Y0230683D01*
X0342928Y0230683D02*
X0340528Y0230683D01*
X0332928Y0230683D02*
X0330528Y0230683D01*
X0322928Y0230683D02*
X0320528Y0230683D01*
X0312928Y0230683D02*
X0310528Y0230683D01*
X0302928Y0230683D02*
X0300528Y0230683D01*
X0292928Y0230683D02*
X0288728Y0230683D01*
X0288728Y0204683D01*
X0292928Y0204683D01*
X0264228Y0228558D02*
X0264228Y0245558D01*
X0264226Y0245618D01*
X0264221Y0245679D01*
X0264212Y0245738D01*
X0264199Y0245797D01*
X0264183Y0245856D01*
X0264163Y0245913D01*
X0264140Y0245968D01*
X0264113Y0246023D01*
X0264084Y0246075D01*
X0264051Y0246126D01*
X0264015Y0246175D01*
X0263977Y0246221D01*
X0263935Y0246265D01*
X0263891Y0246307D01*
X0263845Y0246345D01*
X0263796Y0246381D01*
X0263745Y0246414D01*
X0263693Y0246443D01*
X0263638Y0246470D01*
X0263583Y0246493D01*
X0263526Y0246513D01*
X0263467Y0246529D01*
X0263408Y0246542D01*
X0263349Y0246551D01*
X0263288Y0246556D01*
X0263228Y0246558D01*
X0255228Y0246558D01*
X0255168Y0246556D01*
X0255107Y0246551D01*
X0255048Y0246542D01*
X0254989Y0246529D01*
X0254930Y0246513D01*
X0254873Y0246493D01*
X0254818Y0246470D01*
X0254763Y0246443D01*
X0254711Y0246414D01*
X0254660Y0246381D01*
X0254611Y0246345D01*
X0254565Y0246307D01*
X0254521Y0246265D01*
X0254479Y0246221D01*
X0254441Y0246175D01*
X0254405Y0246126D01*
X0254372Y0246075D01*
X0254343Y0246023D01*
X0254316Y0245968D01*
X0254293Y0245913D01*
X0254273Y0245856D01*
X0254257Y0245797D01*
X0254244Y0245738D01*
X0254235Y0245679D01*
X0254230Y0245618D01*
X0254228Y0245558D01*
X0254228Y0228558D01*
X0254230Y0228498D01*
X0254235Y0228437D01*
X0254244Y0228378D01*
X0254257Y0228319D01*
X0254273Y0228260D01*
X0254293Y0228203D01*
X0254316Y0228148D01*
X0254343Y0228093D01*
X0254372Y0228041D01*
X0254405Y0227990D01*
X0254441Y0227941D01*
X0254479Y0227895D01*
X0254521Y0227851D01*
X0254565Y0227809D01*
X0254611Y0227771D01*
X0254660Y0227735D01*
X0254711Y0227702D01*
X0254763Y0227673D01*
X0254818Y0227646D01*
X0254873Y0227623D01*
X0254930Y0227603D01*
X0254989Y0227587D01*
X0255048Y0227574D01*
X0255107Y0227565D01*
X0255168Y0227560D01*
X0255228Y0227558D01*
X0263228Y0227558D01*
X0263288Y0227560D01*
X0263349Y0227565D01*
X0263408Y0227574D01*
X0263467Y0227587D01*
X0263526Y0227603D01*
X0263583Y0227623D01*
X0263638Y0227646D01*
X0263693Y0227673D01*
X0263745Y0227702D01*
X0263796Y0227735D01*
X0263845Y0227771D01*
X0263891Y0227809D01*
X0263935Y0227851D01*
X0263977Y0227895D01*
X0264015Y0227941D01*
X0264051Y0227990D01*
X0264084Y0228041D01*
X0264113Y0228093D01*
X0264140Y0228148D01*
X0264163Y0228203D01*
X0264183Y0228260D01*
X0264199Y0228319D01*
X0264212Y0228378D01*
X0264221Y0228437D01*
X0264226Y0228498D01*
X0264228Y0228558D01*
X0259228Y0235558D02*
X0259228Y0236058D01*
X0259228Y0238058D02*
X0259228Y0238558D01*
X0250728Y0236683D02*
X0250728Y0235183D01*
X0250228Y0234683D01*
X0250228Y0220683D01*
X0250728Y0220183D01*
X0250728Y0218683D01*
X0250726Y0218623D01*
X0250721Y0218562D01*
X0250712Y0218503D01*
X0250699Y0218444D01*
X0250683Y0218385D01*
X0250663Y0218328D01*
X0250640Y0218273D01*
X0250613Y0218218D01*
X0250584Y0218166D01*
X0250551Y0218115D01*
X0250515Y0218066D01*
X0250477Y0218020D01*
X0250435Y0217976D01*
X0250391Y0217934D01*
X0250345Y0217896D01*
X0250296Y0217860D01*
X0250245Y0217827D01*
X0250193Y0217798D01*
X0250138Y0217771D01*
X0250083Y0217748D01*
X0250026Y0217728D01*
X0249967Y0217712D01*
X0249908Y0217699D01*
X0249849Y0217690D01*
X0249788Y0217685D01*
X0249728Y0217683D01*
X0243728Y0217683D01*
X0243668Y0217685D01*
X0243607Y0217690D01*
X0243548Y0217699D01*
X0243489Y0217712D01*
X0243430Y0217728D01*
X0243373Y0217748D01*
X0243318Y0217771D01*
X0243263Y0217798D01*
X0243211Y0217827D01*
X0243160Y0217860D01*
X0243111Y0217896D01*
X0243065Y0217934D01*
X0243021Y0217976D01*
X0242979Y0218020D01*
X0242941Y0218066D01*
X0242905Y0218115D01*
X0242872Y0218166D01*
X0242843Y0218218D01*
X0242816Y0218273D01*
X0242793Y0218328D01*
X0242773Y0218385D01*
X0242757Y0218444D01*
X0242744Y0218503D01*
X0242735Y0218562D01*
X0242730Y0218623D01*
X0242728Y0218683D01*
X0242728Y0220183D01*
X0243228Y0220683D01*
X0243228Y0234683D01*
X0242728Y0235183D01*
X0242728Y0236683D01*
X0242730Y0236743D01*
X0242735Y0236804D01*
X0242744Y0236863D01*
X0242757Y0236922D01*
X0242773Y0236981D01*
X0242793Y0237038D01*
X0242816Y0237093D01*
X0242843Y0237148D01*
X0242872Y0237200D01*
X0242905Y0237251D01*
X0242941Y0237300D01*
X0242979Y0237346D01*
X0243021Y0237390D01*
X0243065Y0237432D01*
X0243111Y0237470D01*
X0243160Y0237506D01*
X0243211Y0237539D01*
X0243263Y0237568D01*
X0243318Y0237595D01*
X0243373Y0237618D01*
X0243430Y0237638D01*
X0243489Y0237654D01*
X0243548Y0237667D01*
X0243607Y0237676D01*
X0243668Y0237681D01*
X0243728Y0237683D01*
X0249728Y0237683D01*
X0249788Y0237681D01*
X0249849Y0237676D01*
X0249908Y0237667D01*
X0249967Y0237654D01*
X0250026Y0237638D01*
X0250083Y0237618D01*
X0250138Y0237595D01*
X0250193Y0237568D01*
X0250245Y0237539D01*
X0250296Y0237506D01*
X0250345Y0237470D01*
X0250391Y0237432D01*
X0250435Y0237390D01*
X0250477Y0237346D01*
X0250515Y0237300D01*
X0250551Y0237251D01*
X0250584Y0237200D01*
X0250613Y0237148D01*
X0250640Y0237093D01*
X0250663Y0237038D01*
X0250683Y0236981D01*
X0250699Y0236922D01*
X0250712Y0236863D01*
X0250721Y0236804D01*
X0250726Y0236743D01*
X0250728Y0236683D01*
X0238228Y0236683D02*
X0238228Y0235183D01*
X0237728Y0234683D01*
X0237728Y0220683D01*
X0238228Y0220183D01*
X0238228Y0218683D01*
X0238226Y0218623D01*
X0238221Y0218562D01*
X0238212Y0218503D01*
X0238199Y0218444D01*
X0238183Y0218385D01*
X0238163Y0218328D01*
X0238140Y0218273D01*
X0238113Y0218218D01*
X0238084Y0218166D01*
X0238051Y0218115D01*
X0238015Y0218066D01*
X0237977Y0218020D01*
X0237935Y0217976D01*
X0237891Y0217934D01*
X0237845Y0217896D01*
X0237796Y0217860D01*
X0237745Y0217827D01*
X0237693Y0217798D01*
X0237638Y0217771D01*
X0237583Y0217748D01*
X0237526Y0217728D01*
X0237467Y0217712D01*
X0237408Y0217699D01*
X0237349Y0217690D01*
X0237288Y0217685D01*
X0237228Y0217683D01*
X0231228Y0217683D01*
X0231168Y0217685D01*
X0231107Y0217690D01*
X0231048Y0217699D01*
X0230989Y0217712D01*
X0230930Y0217728D01*
X0230873Y0217748D01*
X0230818Y0217771D01*
X0230763Y0217798D01*
X0230711Y0217827D01*
X0230660Y0217860D01*
X0230611Y0217896D01*
X0230565Y0217934D01*
X0230521Y0217976D01*
X0230479Y0218020D01*
X0230441Y0218066D01*
X0230405Y0218115D01*
X0230372Y0218166D01*
X0230343Y0218218D01*
X0230316Y0218273D01*
X0230293Y0218328D01*
X0230273Y0218385D01*
X0230257Y0218444D01*
X0230244Y0218503D01*
X0230235Y0218562D01*
X0230230Y0218623D01*
X0230228Y0218683D01*
X0230228Y0220183D01*
X0230728Y0220683D01*
X0230728Y0234683D01*
X0230228Y0235183D01*
X0230228Y0236683D01*
X0230230Y0236743D01*
X0230235Y0236804D01*
X0230244Y0236863D01*
X0230257Y0236922D01*
X0230273Y0236981D01*
X0230293Y0237038D01*
X0230316Y0237093D01*
X0230343Y0237148D01*
X0230372Y0237200D01*
X0230405Y0237251D01*
X0230441Y0237300D01*
X0230479Y0237346D01*
X0230521Y0237390D01*
X0230565Y0237432D01*
X0230611Y0237470D01*
X0230660Y0237506D01*
X0230711Y0237539D01*
X0230763Y0237568D01*
X0230818Y0237595D01*
X0230873Y0237618D01*
X0230930Y0237638D01*
X0230989Y0237654D01*
X0231048Y0237667D01*
X0231107Y0237676D01*
X0231168Y0237681D01*
X0231228Y0237683D01*
X0237228Y0237683D01*
X0237288Y0237681D01*
X0237349Y0237676D01*
X0237408Y0237667D01*
X0237467Y0237654D01*
X0237526Y0237638D01*
X0237583Y0237618D01*
X0237638Y0237595D01*
X0237693Y0237568D01*
X0237745Y0237539D01*
X0237796Y0237506D01*
X0237845Y0237470D01*
X0237891Y0237432D01*
X0237935Y0237390D01*
X0237977Y0237346D01*
X0238015Y0237300D01*
X0238051Y0237251D01*
X0238084Y0237200D01*
X0238113Y0237148D01*
X0238140Y0237093D01*
X0238163Y0237038D01*
X0238183Y0236981D01*
X0238199Y0236922D01*
X0238212Y0236863D01*
X0238221Y0236804D01*
X0238226Y0236743D01*
X0238228Y0236683D01*
X0225728Y0224683D02*
X0217728Y0224683D01*
X0217668Y0224681D01*
X0217607Y0224676D01*
X0217548Y0224667D01*
X0217489Y0224654D01*
X0217430Y0224638D01*
X0217373Y0224618D01*
X0217318Y0224595D01*
X0217263Y0224568D01*
X0217211Y0224539D01*
X0217160Y0224506D01*
X0217111Y0224470D01*
X0217065Y0224432D01*
X0217021Y0224390D01*
X0216979Y0224346D01*
X0216941Y0224300D01*
X0216905Y0224251D01*
X0216872Y0224200D01*
X0216843Y0224148D01*
X0216816Y0224093D01*
X0216793Y0224038D01*
X0216773Y0223981D01*
X0216757Y0223922D01*
X0216744Y0223863D01*
X0216735Y0223804D01*
X0216730Y0223743D01*
X0216728Y0223683D01*
X0216728Y0206683D01*
X0216730Y0206623D01*
X0216735Y0206562D01*
X0216744Y0206503D01*
X0216757Y0206444D01*
X0216773Y0206385D01*
X0216793Y0206328D01*
X0216816Y0206273D01*
X0216843Y0206218D01*
X0216872Y0206166D01*
X0216905Y0206115D01*
X0216941Y0206066D01*
X0216979Y0206020D01*
X0217021Y0205976D01*
X0217065Y0205934D01*
X0217111Y0205896D01*
X0217160Y0205860D01*
X0217211Y0205827D01*
X0217263Y0205798D01*
X0217318Y0205771D01*
X0217373Y0205748D01*
X0217430Y0205728D01*
X0217489Y0205712D01*
X0217548Y0205699D01*
X0217607Y0205690D01*
X0217668Y0205685D01*
X0217728Y0205683D01*
X0225728Y0205683D01*
X0225788Y0205685D01*
X0225849Y0205690D01*
X0225908Y0205699D01*
X0225967Y0205712D01*
X0226026Y0205728D01*
X0226083Y0205748D01*
X0226138Y0205771D01*
X0226193Y0205798D01*
X0226245Y0205827D01*
X0226296Y0205860D01*
X0226345Y0205896D01*
X0226391Y0205934D01*
X0226435Y0205976D01*
X0226477Y0206020D01*
X0226515Y0206066D01*
X0226551Y0206115D01*
X0226584Y0206166D01*
X0226613Y0206218D01*
X0226640Y0206273D01*
X0226663Y0206328D01*
X0226683Y0206385D01*
X0226699Y0206444D01*
X0226712Y0206503D01*
X0226721Y0206562D01*
X0226726Y0206623D01*
X0226728Y0206683D01*
X0226728Y0223683D01*
X0226726Y0223743D01*
X0226721Y0223804D01*
X0226712Y0223863D01*
X0226699Y0223922D01*
X0226683Y0223981D01*
X0226663Y0224038D01*
X0226640Y0224093D01*
X0226613Y0224148D01*
X0226584Y0224200D01*
X0226551Y0224251D01*
X0226515Y0224300D01*
X0226477Y0224346D01*
X0226435Y0224390D01*
X0226391Y0224432D01*
X0226345Y0224470D01*
X0226296Y0224506D01*
X0226245Y0224539D01*
X0226193Y0224568D01*
X0226138Y0224595D01*
X0226083Y0224618D01*
X0226026Y0224638D01*
X0225967Y0224654D01*
X0225908Y0224667D01*
X0225849Y0224676D01*
X0225788Y0224681D01*
X0225728Y0224683D01*
X0221728Y0216683D02*
X0221728Y0216183D01*
X0221728Y0214183D02*
X0221728Y0213683D01*
X0216353Y0253933D02*
X0233353Y0253933D01*
X0233413Y0253935D01*
X0233474Y0253940D01*
X0233533Y0253949D01*
X0233592Y0253962D01*
X0233651Y0253978D01*
X0233708Y0253998D01*
X0233763Y0254021D01*
X0233818Y0254048D01*
X0233870Y0254077D01*
X0233921Y0254110D01*
X0233970Y0254146D01*
X0234016Y0254184D01*
X0234060Y0254226D01*
X0234102Y0254270D01*
X0234140Y0254316D01*
X0234176Y0254365D01*
X0234209Y0254416D01*
X0234238Y0254468D01*
X0234265Y0254523D01*
X0234288Y0254578D01*
X0234308Y0254635D01*
X0234324Y0254694D01*
X0234337Y0254753D01*
X0234346Y0254812D01*
X0234351Y0254873D01*
X0234353Y0254933D01*
X0234353Y0262933D01*
X0234351Y0262993D01*
X0234346Y0263054D01*
X0234337Y0263113D01*
X0234324Y0263172D01*
X0234308Y0263231D01*
X0234288Y0263288D01*
X0234265Y0263343D01*
X0234238Y0263398D01*
X0234209Y0263450D01*
X0234176Y0263501D01*
X0234140Y0263550D01*
X0234102Y0263596D01*
X0234060Y0263640D01*
X0234016Y0263682D01*
X0233970Y0263720D01*
X0233921Y0263756D01*
X0233870Y0263789D01*
X0233818Y0263818D01*
X0233763Y0263845D01*
X0233708Y0263868D01*
X0233651Y0263888D01*
X0233592Y0263904D01*
X0233533Y0263917D01*
X0233474Y0263926D01*
X0233413Y0263931D01*
X0233353Y0263933D01*
X0216353Y0263933D01*
X0216293Y0263931D01*
X0216232Y0263926D01*
X0216173Y0263917D01*
X0216114Y0263904D01*
X0216055Y0263888D01*
X0215998Y0263868D01*
X0215943Y0263845D01*
X0215888Y0263818D01*
X0215836Y0263789D01*
X0215785Y0263756D01*
X0215736Y0263720D01*
X0215690Y0263682D01*
X0215646Y0263640D01*
X0215604Y0263596D01*
X0215566Y0263550D01*
X0215530Y0263501D01*
X0215497Y0263450D01*
X0215468Y0263398D01*
X0215441Y0263343D01*
X0215418Y0263288D01*
X0215398Y0263231D01*
X0215382Y0263172D01*
X0215369Y0263113D01*
X0215360Y0263054D01*
X0215355Y0262993D01*
X0215353Y0262933D01*
X0215353Y0254933D01*
X0215355Y0254873D01*
X0215360Y0254812D01*
X0215369Y0254753D01*
X0215382Y0254694D01*
X0215398Y0254635D01*
X0215418Y0254578D01*
X0215441Y0254523D01*
X0215468Y0254468D01*
X0215497Y0254416D01*
X0215530Y0254365D01*
X0215566Y0254316D01*
X0215604Y0254270D01*
X0215646Y0254226D01*
X0215690Y0254184D01*
X0215736Y0254146D01*
X0215785Y0254110D01*
X0215836Y0254077D01*
X0215888Y0254048D01*
X0215943Y0254021D01*
X0215998Y0253998D01*
X0216055Y0253978D01*
X0216114Y0253962D01*
X0216173Y0253949D01*
X0216232Y0253940D01*
X0216293Y0253935D01*
X0216353Y0253933D01*
X0223353Y0258933D02*
X0223853Y0258933D01*
X0225853Y0258933D02*
X0226353Y0258933D01*
X0205978Y0280183D02*
X0199978Y0280183D01*
X0199918Y0280185D01*
X0199857Y0280190D01*
X0199798Y0280199D01*
X0199739Y0280212D01*
X0199680Y0280228D01*
X0199623Y0280248D01*
X0199568Y0280271D01*
X0199513Y0280298D01*
X0199461Y0280327D01*
X0199410Y0280360D01*
X0199361Y0280396D01*
X0199315Y0280434D01*
X0199271Y0280476D01*
X0199229Y0280520D01*
X0199191Y0280566D01*
X0199155Y0280615D01*
X0199122Y0280666D01*
X0199093Y0280718D01*
X0199066Y0280773D01*
X0199043Y0280828D01*
X0199023Y0280885D01*
X0199007Y0280944D01*
X0198994Y0281003D01*
X0198985Y0281062D01*
X0198980Y0281123D01*
X0198978Y0281183D01*
X0198978Y0282683D01*
X0199478Y0283183D01*
X0199478Y0297183D01*
X0198978Y0297683D01*
X0198978Y0299183D01*
X0198980Y0299243D01*
X0198985Y0299304D01*
X0198994Y0299363D01*
X0199007Y0299422D01*
X0199023Y0299481D01*
X0199043Y0299538D01*
X0199066Y0299593D01*
X0199093Y0299648D01*
X0199122Y0299700D01*
X0199155Y0299751D01*
X0199191Y0299800D01*
X0199229Y0299846D01*
X0199271Y0299890D01*
X0199315Y0299932D01*
X0199361Y0299970D01*
X0199410Y0300006D01*
X0199461Y0300039D01*
X0199513Y0300068D01*
X0199568Y0300095D01*
X0199623Y0300118D01*
X0199680Y0300138D01*
X0199739Y0300154D01*
X0199798Y0300167D01*
X0199857Y0300176D01*
X0199918Y0300181D01*
X0199978Y0300183D01*
X0205978Y0300183D01*
X0206038Y0300181D01*
X0206099Y0300176D01*
X0206158Y0300167D01*
X0206217Y0300154D01*
X0206276Y0300138D01*
X0206333Y0300118D01*
X0206388Y0300095D01*
X0206443Y0300068D01*
X0206495Y0300039D01*
X0206546Y0300006D01*
X0206595Y0299970D01*
X0206641Y0299932D01*
X0206685Y0299890D01*
X0206727Y0299846D01*
X0206765Y0299800D01*
X0206801Y0299751D01*
X0206834Y0299700D01*
X0206863Y0299648D01*
X0206890Y0299593D01*
X0206913Y0299538D01*
X0206933Y0299481D01*
X0206949Y0299422D01*
X0206962Y0299363D01*
X0206971Y0299304D01*
X0206976Y0299243D01*
X0206978Y0299183D01*
X0206978Y0297683D01*
X0206478Y0297183D01*
X0206478Y0283183D01*
X0206978Y0282683D01*
X0206978Y0281183D01*
X0206976Y0281123D01*
X0206971Y0281062D01*
X0206962Y0281003D01*
X0206949Y0280944D01*
X0206933Y0280885D01*
X0206913Y0280828D01*
X0206890Y0280773D01*
X0206863Y0280718D01*
X0206834Y0280666D01*
X0206801Y0280615D01*
X0206765Y0280566D01*
X0206727Y0280520D01*
X0206685Y0280476D01*
X0206641Y0280434D01*
X0206595Y0280396D01*
X0206546Y0280360D01*
X0206495Y0280327D01*
X0206443Y0280298D01*
X0206388Y0280271D01*
X0206333Y0280248D01*
X0206276Y0280228D01*
X0206217Y0280212D01*
X0206158Y0280199D01*
X0206099Y0280190D01*
X0206038Y0280185D01*
X0205978Y0280183D01*
X0194478Y0281183D02*
X0194478Y0282683D01*
X0193978Y0283183D01*
X0193978Y0297183D01*
X0194478Y0297683D01*
X0194478Y0299183D01*
X0194476Y0299243D01*
X0194471Y0299304D01*
X0194462Y0299363D01*
X0194449Y0299422D01*
X0194433Y0299481D01*
X0194413Y0299538D01*
X0194390Y0299593D01*
X0194363Y0299648D01*
X0194334Y0299700D01*
X0194301Y0299751D01*
X0194265Y0299800D01*
X0194227Y0299846D01*
X0194185Y0299890D01*
X0194141Y0299932D01*
X0194095Y0299970D01*
X0194046Y0300006D01*
X0193995Y0300039D01*
X0193943Y0300068D01*
X0193888Y0300095D01*
X0193833Y0300118D01*
X0193776Y0300138D01*
X0193717Y0300154D01*
X0193658Y0300167D01*
X0193599Y0300176D01*
X0193538Y0300181D01*
X0193478Y0300183D01*
X0187478Y0300183D01*
X0187418Y0300181D01*
X0187357Y0300176D01*
X0187298Y0300167D01*
X0187239Y0300154D01*
X0187180Y0300138D01*
X0187123Y0300118D01*
X0187068Y0300095D01*
X0187013Y0300068D01*
X0186961Y0300039D01*
X0186910Y0300006D01*
X0186861Y0299970D01*
X0186815Y0299932D01*
X0186771Y0299890D01*
X0186729Y0299846D01*
X0186691Y0299800D01*
X0186655Y0299751D01*
X0186622Y0299700D01*
X0186593Y0299648D01*
X0186566Y0299593D01*
X0186543Y0299538D01*
X0186523Y0299481D01*
X0186507Y0299422D01*
X0186494Y0299363D01*
X0186485Y0299304D01*
X0186480Y0299243D01*
X0186478Y0299183D01*
X0186478Y0297683D01*
X0186978Y0297183D01*
X0186978Y0283183D01*
X0186478Y0282683D01*
X0186478Y0281183D01*
X0186480Y0281123D01*
X0186485Y0281062D01*
X0186494Y0281003D01*
X0186507Y0280944D01*
X0186523Y0280885D01*
X0186543Y0280828D01*
X0186566Y0280773D01*
X0186593Y0280718D01*
X0186622Y0280666D01*
X0186655Y0280615D01*
X0186691Y0280566D01*
X0186729Y0280520D01*
X0186771Y0280476D01*
X0186815Y0280434D01*
X0186861Y0280396D01*
X0186910Y0280360D01*
X0186961Y0280327D01*
X0187013Y0280298D01*
X0187068Y0280271D01*
X0187123Y0280248D01*
X0187180Y0280228D01*
X0187239Y0280212D01*
X0187298Y0280199D01*
X0187357Y0280190D01*
X0187418Y0280185D01*
X0187478Y0280183D01*
X0193478Y0280183D01*
X0193538Y0280185D01*
X0193599Y0280190D01*
X0193658Y0280199D01*
X0193717Y0280212D01*
X0193776Y0280228D01*
X0193833Y0280248D01*
X0193888Y0280271D01*
X0193943Y0280298D01*
X0193995Y0280327D01*
X0194046Y0280360D01*
X0194095Y0280396D01*
X0194141Y0280434D01*
X0194185Y0280476D01*
X0194227Y0280520D01*
X0194265Y0280566D01*
X0194301Y0280615D01*
X0194334Y0280666D01*
X0194363Y0280718D01*
X0194390Y0280773D01*
X0194413Y0280828D01*
X0194433Y0280885D01*
X0194449Y0280944D01*
X0194462Y0281003D01*
X0194471Y0281062D01*
X0194476Y0281123D01*
X0194478Y0281183D01*
X0192728Y0311933D02*
X0200728Y0311933D01*
X0200788Y0311935D01*
X0200849Y0311940D01*
X0200908Y0311949D01*
X0200967Y0311962D01*
X0201026Y0311978D01*
X0201083Y0311998D01*
X0201138Y0312021D01*
X0201193Y0312048D01*
X0201245Y0312077D01*
X0201296Y0312110D01*
X0201345Y0312146D01*
X0201391Y0312184D01*
X0201435Y0312226D01*
X0201477Y0312270D01*
X0201515Y0312316D01*
X0201551Y0312365D01*
X0201584Y0312416D01*
X0201613Y0312468D01*
X0201640Y0312523D01*
X0201663Y0312578D01*
X0201683Y0312635D01*
X0201699Y0312694D01*
X0201712Y0312753D01*
X0201721Y0312812D01*
X0201726Y0312873D01*
X0201728Y0312933D01*
X0201728Y0329933D01*
X0201726Y0329993D01*
X0201721Y0330054D01*
X0201712Y0330113D01*
X0201699Y0330172D01*
X0201683Y0330231D01*
X0201663Y0330288D01*
X0201640Y0330343D01*
X0201613Y0330398D01*
X0201584Y0330450D01*
X0201551Y0330501D01*
X0201515Y0330550D01*
X0201477Y0330596D01*
X0201435Y0330640D01*
X0201391Y0330682D01*
X0201345Y0330720D01*
X0201296Y0330756D01*
X0201245Y0330789D01*
X0201193Y0330818D01*
X0201138Y0330845D01*
X0201083Y0330868D01*
X0201026Y0330888D01*
X0200967Y0330904D01*
X0200908Y0330917D01*
X0200849Y0330926D01*
X0200788Y0330931D01*
X0200728Y0330933D01*
X0192728Y0330933D01*
X0192668Y0330931D01*
X0192607Y0330926D01*
X0192548Y0330917D01*
X0192489Y0330904D01*
X0192430Y0330888D01*
X0192373Y0330868D01*
X0192318Y0330845D01*
X0192263Y0330818D01*
X0192211Y0330789D01*
X0192160Y0330756D01*
X0192111Y0330720D01*
X0192065Y0330682D01*
X0192021Y0330640D01*
X0191979Y0330596D01*
X0191941Y0330550D01*
X0191905Y0330501D01*
X0191872Y0330450D01*
X0191843Y0330398D01*
X0191816Y0330343D01*
X0191793Y0330288D01*
X0191773Y0330231D01*
X0191757Y0330172D01*
X0191744Y0330113D01*
X0191735Y0330054D01*
X0191730Y0329993D01*
X0191728Y0329933D01*
X0191728Y0312933D01*
X0191730Y0312873D01*
X0191735Y0312812D01*
X0191744Y0312753D01*
X0191757Y0312694D01*
X0191773Y0312635D01*
X0191793Y0312578D01*
X0191816Y0312523D01*
X0191843Y0312468D01*
X0191872Y0312416D01*
X0191905Y0312365D01*
X0191941Y0312316D01*
X0191979Y0312270D01*
X0192021Y0312226D01*
X0192065Y0312184D01*
X0192111Y0312146D01*
X0192160Y0312110D01*
X0192211Y0312077D01*
X0192263Y0312048D01*
X0192318Y0312021D01*
X0192373Y0311998D01*
X0192430Y0311978D01*
X0192489Y0311962D01*
X0192548Y0311949D01*
X0192607Y0311940D01*
X0192668Y0311935D01*
X0192728Y0311933D01*
X0196728Y0319933D02*
X0196728Y0320433D01*
X0196728Y0322433D02*
X0196728Y0322933D01*
X0212978Y0326433D02*
X0212978Y0316433D01*
X0215478Y0316433D01*
X0217978Y0316433D01*
X0217978Y0326433D01*
X0215478Y0326433D01*
X0212978Y0326433D01*
X0215478Y0326433D02*
X0215478Y0328433D01*
X0226103Y0331683D02*
X0226103Y0348683D01*
X0226105Y0348743D01*
X0226110Y0348804D01*
X0226119Y0348863D01*
X0226132Y0348922D01*
X0226148Y0348981D01*
X0226168Y0349038D01*
X0226191Y0349093D01*
X0226218Y0349148D01*
X0226247Y0349200D01*
X0226280Y0349251D01*
X0226316Y0349300D01*
X0226354Y0349346D01*
X0226396Y0349390D01*
X0226440Y0349432D01*
X0226486Y0349470D01*
X0226535Y0349506D01*
X0226586Y0349539D01*
X0226638Y0349568D01*
X0226693Y0349595D01*
X0226748Y0349618D01*
X0226805Y0349638D01*
X0226864Y0349654D01*
X0226923Y0349667D01*
X0226982Y0349676D01*
X0227043Y0349681D01*
X0227103Y0349683D01*
X0235103Y0349683D01*
X0235163Y0349681D01*
X0235224Y0349676D01*
X0235283Y0349667D01*
X0235342Y0349654D01*
X0235401Y0349638D01*
X0235458Y0349618D01*
X0235513Y0349595D01*
X0235568Y0349568D01*
X0235620Y0349539D01*
X0235671Y0349506D01*
X0235720Y0349470D01*
X0235766Y0349432D01*
X0235810Y0349390D01*
X0235852Y0349346D01*
X0235890Y0349300D01*
X0235926Y0349251D01*
X0235959Y0349200D01*
X0235988Y0349148D01*
X0236015Y0349093D01*
X0236038Y0349038D01*
X0236058Y0348981D01*
X0236074Y0348922D01*
X0236087Y0348863D01*
X0236096Y0348804D01*
X0236101Y0348743D01*
X0236103Y0348683D01*
X0236103Y0331683D01*
X0236101Y0331623D01*
X0236096Y0331562D01*
X0236087Y0331503D01*
X0236074Y0331444D01*
X0236058Y0331385D01*
X0236038Y0331328D01*
X0236015Y0331273D01*
X0235988Y0331218D01*
X0235959Y0331166D01*
X0235926Y0331115D01*
X0235890Y0331066D01*
X0235852Y0331020D01*
X0235810Y0330976D01*
X0235766Y0330934D01*
X0235720Y0330896D01*
X0235671Y0330860D01*
X0235620Y0330827D01*
X0235568Y0330798D01*
X0235513Y0330771D01*
X0235458Y0330748D01*
X0235401Y0330728D01*
X0235342Y0330712D01*
X0235283Y0330699D01*
X0235224Y0330690D01*
X0235163Y0330685D01*
X0235103Y0330683D01*
X0227103Y0330683D01*
X0227043Y0330685D01*
X0226982Y0330690D01*
X0226923Y0330699D01*
X0226864Y0330712D01*
X0226805Y0330728D01*
X0226748Y0330748D01*
X0226693Y0330771D01*
X0226638Y0330798D01*
X0226586Y0330827D01*
X0226535Y0330860D01*
X0226486Y0330896D01*
X0226440Y0330934D01*
X0226396Y0330976D01*
X0226354Y0331020D01*
X0226316Y0331066D01*
X0226280Y0331115D01*
X0226247Y0331166D01*
X0226218Y0331218D01*
X0226191Y0331273D01*
X0226168Y0331328D01*
X0226148Y0331385D01*
X0226132Y0331444D01*
X0226119Y0331503D01*
X0226110Y0331562D01*
X0226105Y0331623D01*
X0226103Y0331683D01*
X0231103Y0338683D02*
X0231103Y0339183D01*
X0231103Y0341183D02*
X0231103Y0341683D01*
X0251103Y0345558D02*
X0251103Y0328558D01*
X0251105Y0328498D01*
X0251110Y0328437D01*
X0251119Y0328378D01*
X0251132Y0328319D01*
X0251148Y0328260D01*
X0251168Y0328203D01*
X0251191Y0328148D01*
X0251218Y0328093D01*
X0251247Y0328041D01*
X0251280Y0327990D01*
X0251316Y0327941D01*
X0251354Y0327895D01*
X0251396Y0327851D01*
X0251440Y0327809D01*
X0251486Y0327771D01*
X0251535Y0327735D01*
X0251586Y0327702D01*
X0251638Y0327673D01*
X0251693Y0327646D01*
X0251748Y0327623D01*
X0251805Y0327603D01*
X0251864Y0327587D01*
X0251923Y0327574D01*
X0251982Y0327565D01*
X0252043Y0327560D01*
X0252103Y0327558D01*
X0260103Y0327558D01*
X0260163Y0327560D01*
X0260224Y0327565D01*
X0260283Y0327574D01*
X0260342Y0327587D01*
X0260401Y0327603D01*
X0260458Y0327623D01*
X0260513Y0327646D01*
X0260568Y0327673D01*
X0260620Y0327702D01*
X0260671Y0327735D01*
X0260720Y0327771D01*
X0260766Y0327809D01*
X0260810Y0327851D01*
X0260852Y0327895D01*
X0260890Y0327941D01*
X0260926Y0327990D01*
X0260959Y0328041D01*
X0260988Y0328093D01*
X0261015Y0328148D01*
X0261038Y0328203D01*
X0261058Y0328260D01*
X0261074Y0328319D01*
X0261087Y0328378D01*
X0261096Y0328437D01*
X0261101Y0328498D01*
X0261103Y0328558D01*
X0261103Y0345558D01*
X0261101Y0345618D01*
X0261096Y0345679D01*
X0261087Y0345738D01*
X0261074Y0345797D01*
X0261058Y0345856D01*
X0261038Y0345913D01*
X0261015Y0345968D01*
X0260988Y0346023D01*
X0260959Y0346075D01*
X0260926Y0346126D01*
X0260890Y0346175D01*
X0260852Y0346221D01*
X0260810Y0346265D01*
X0260766Y0346307D01*
X0260720Y0346345D01*
X0260671Y0346381D01*
X0260620Y0346414D01*
X0260568Y0346443D01*
X0260513Y0346470D01*
X0260458Y0346493D01*
X0260401Y0346513D01*
X0260342Y0346529D01*
X0260283Y0346542D01*
X0260224Y0346551D01*
X0260163Y0346556D01*
X0260103Y0346558D01*
X0252103Y0346558D01*
X0252043Y0346556D01*
X0251982Y0346551D01*
X0251923Y0346542D01*
X0251864Y0346529D01*
X0251805Y0346513D01*
X0251748Y0346493D01*
X0251693Y0346470D01*
X0251638Y0346443D01*
X0251586Y0346414D01*
X0251535Y0346381D01*
X0251486Y0346345D01*
X0251440Y0346307D01*
X0251396Y0346265D01*
X0251354Y0346221D01*
X0251316Y0346175D01*
X0251280Y0346126D01*
X0251247Y0346075D01*
X0251218Y0346023D01*
X0251191Y0345968D01*
X0251168Y0345913D01*
X0251148Y0345856D01*
X0251132Y0345797D01*
X0251119Y0345738D01*
X0251110Y0345679D01*
X0251105Y0345618D01*
X0251103Y0345558D01*
X0256103Y0338558D02*
X0256103Y0338058D01*
X0256103Y0336058D02*
X0256103Y0335558D01*
X0215478Y0316433D02*
X0215478Y0314433D01*
X0225728Y0157683D02*
X0242728Y0157683D01*
X0242788Y0157681D01*
X0242849Y0157676D01*
X0242908Y0157667D01*
X0242967Y0157654D01*
X0243026Y0157638D01*
X0243083Y0157618D01*
X0243138Y0157595D01*
X0243193Y0157568D01*
X0243245Y0157539D01*
X0243296Y0157506D01*
X0243345Y0157470D01*
X0243391Y0157432D01*
X0243435Y0157390D01*
X0243477Y0157346D01*
X0243515Y0157300D01*
X0243551Y0157251D01*
X0243584Y0157200D01*
X0243613Y0157148D01*
X0243640Y0157093D01*
X0243663Y0157038D01*
X0243683Y0156981D01*
X0243699Y0156922D01*
X0243712Y0156863D01*
X0243721Y0156804D01*
X0243726Y0156743D01*
X0243728Y0156683D01*
X0243728Y0148683D01*
X0243726Y0148623D01*
X0243721Y0148562D01*
X0243712Y0148503D01*
X0243699Y0148444D01*
X0243683Y0148385D01*
X0243663Y0148328D01*
X0243640Y0148273D01*
X0243613Y0148218D01*
X0243584Y0148166D01*
X0243551Y0148115D01*
X0243515Y0148066D01*
X0243477Y0148020D01*
X0243435Y0147976D01*
X0243391Y0147934D01*
X0243345Y0147896D01*
X0243296Y0147860D01*
X0243245Y0147827D01*
X0243193Y0147798D01*
X0243138Y0147771D01*
X0243083Y0147748D01*
X0243026Y0147728D01*
X0242967Y0147712D01*
X0242908Y0147699D01*
X0242849Y0147690D01*
X0242788Y0147685D01*
X0242728Y0147683D01*
X0225728Y0147683D01*
X0225668Y0147685D01*
X0225607Y0147690D01*
X0225548Y0147699D01*
X0225489Y0147712D01*
X0225430Y0147728D01*
X0225373Y0147748D01*
X0225318Y0147771D01*
X0225263Y0147798D01*
X0225211Y0147827D01*
X0225160Y0147860D01*
X0225111Y0147896D01*
X0225065Y0147934D01*
X0225021Y0147976D01*
X0224979Y0148020D01*
X0224941Y0148066D01*
X0224905Y0148115D01*
X0224872Y0148166D01*
X0224843Y0148218D01*
X0224816Y0148273D01*
X0224793Y0148328D01*
X0224773Y0148385D01*
X0224757Y0148444D01*
X0224744Y0148503D01*
X0224735Y0148562D01*
X0224730Y0148623D01*
X0224728Y0148683D01*
X0224728Y0156683D01*
X0224730Y0156743D01*
X0224735Y0156804D01*
X0224744Y0156863D01*
X0224757Y0156922D01*
X0224773Y0156981D01*
X0224793Y0157038D01*
X0224816Y0157093D01*
X0224843Y0157148D01*
X0224872Y0157200D01*
X0224905Y0157251D01*
X0224941Y0157300D01*
X0224979Y0157346D01*
X0225021Y0157390D01*
X0225065Y0157432D01*
X0225111Y0157470D01*
X0225160Y0157506D01*
X0225211Y0157539D01*
X0225263Y0157568D01*
X0225318Y0157595D01*
X0225373Y0157618D01*
X0225430Y0157638D01*
X0225489Y0157654D01*
X0225548Y0157667D01*
X0225607Y0157676D01*
X0225668Y0157681D01*
X0225728Y0157683D01*
X0232728Y0152683D02*
X0233228Y0152683D01*
X0235228Y0152683D02*
X0235728Y0152683D01*
X0249728Y0156683D02*
X0249728Y0148683D01*
X0249730Y0148623D01*
X0249735Y0148562D01*
X0249744Y0148503D01*
X0249757Y0148444D01*
X0249773Y0148385D01*
X0249793Y0148328D01*
X0249816Y0148273D01*
X0249843Y0148218D01*
X0249872Y0148166D01*
X0249905Y0148115D01*
X0249941Y0148066D01*
X0249979Y0148020D01*
X0250021Y0147976D01*
X0250065Y0147934D01*
X0250111Y0147896D01*
X0250160Y0147860D01*
X0250211Y0147827D01*
X0250263Y0147798D01*
X0250318Y0147771D01*
X0250373Y0147748D01*
X0250430Y0147728D01*
X0250489Y0147712D01*
X0250548Y0147699D01*
X0250607Y0147690D01*
X0250668Y0147685D01*
X0250728Y0147683D01*
X0267728Y0147683D01*
X0267788Y0147685D01*
X0267849Y0147690D01*
X0267908Y0147699D01*
X0267967Y0147712D01*
X0268026Y0147728D01*
X0268083Y0147748D01*
X0268138Y0147771D01*
X0268193Y0147798D01*
X0268245Y0147827D01*
X0268296Y0147860D01*
X0268345Y0147896D01*
X0268391Y0147934D01*
X0268435Y0147976D01*
X0268477Y0148020D01*
X0268515Y0148066D01*
X0268551Y0148115D01*
X0268584Y0148166D01*
X0268613Y0148218D01*
X0268640Y0148273D01*
X0268663Y0148328D01*
X0268683Y0148385D01*
X0268699Y0148444D01*
X0268712Y0148503D01*
X0268721Y0148562D01*
X0268726Y0148623D01*
X0268728Y0148683D01*
X0268728Y0156683D01*
X0268726Y0156743D01*
X0268721Y0156804D01*
X0268712Y0156863D01*
X0268699Y0156922D01*
X0268683Y0156981D01*
X0268663Y0157038D01*
X0268640Y0157093D01*
X0268613Y0157148D01*
X0268584Y0157200D01*
X0268551Y0157251D01*
X0268515Y0157300D01*
X0268477Y0157346D01*
X0268435Y0157390D01*
X0268391Y0157432D01*
X0268345Y0157470D01*
X0268296Y0157506D01*
X0268245Y0157539D01*
X0268193Y0157568D01*
X0268138Y0157595D01*
X0268083Y0157618D01*
X0268026Y0157638D01*
X0267967Y0157654D01*
X0267908Y0157667D01*
X0267849Y0157676D01*
X0267788Y0157681D01*
X0267728Y0157683D01*
X0250728Y0157683D01*
X0250668Y0157681D01*
X0250607Y0157676D01*
X0250548Y0157667D01*
X0250489Y0157654D01*
X0250430Y0157638D01*
X0250373Y0157618D01*
X0250318Y0157595D01*
X0250263Y0157568D01*
X0250211Y0157539D01*
X0250160Y0157506D01*
X0250111Y0157470D01*
X0250065Y0157432D01*
X0250021Y0157390D01*
X0249979Y0157346D01*
X0249941Y0157300D01*
X0249905Y0157251D01*
X0249872Y0157200D01*
X0249843Y0157148D01*
X0249816Y0157093D01*
X0249793Y0157038D01*
X0249773Y0156981D01*
X0249757Y0156922D01*
X0249744Y0156863D01*
X0249735Y0156804D01*
X0249730Y0156743D01*
X0249728Y0156683D01*
X0257728Y0152683D02*
X0258228Y0152683D01*
X0260228Y0152683D02*
X0260728Y0152683D01*
X0255978Y0137683D02*
X0249978Y0137683D01*
X0249918Y0137681D01*
X0249857Y0137676D01*
X0249798Y0137667D01*
X0249739Y0137654D01*
X0249680Y0137638D01*
X0249623Y0137618D01*
X0249568Y0137595D01*
X0249513Y0137568D01*
X0249461Y0137539D01*
X0249410Y0137506D01*
X0249361Y0137470D01*
X0249315Y0137432D01*
X0249271Y0137390D01*
X0249229Y0137346D01*
X0249191Y0137300D01*
X0249155Y0137251D01*
X0249122Y0137200D01*
X0249093Y0137148D01*
X0249066Y0137093D01*
X0249043Y0137038D01*
X0249023Y0136981D01*
X0249007Y0136922D01*
X0248994Y0136863D01*
X0248985Y0136804D01*
X0248980Y0136743D01*
X0248978Y0136683D01*
X0248978Y0135183D01*
X0249478Y0134683D01*
X0249478Y0120683D01*
X0248978Y0120183D01*
X0248978Y0118683D01*
X0248980Y0118623D01*
X0248985Y0118562D01*
X0248994Y0118503D01*
X0249007Y0118444D01*
X0249023Y0118385D01*
X0249043Y0118328D01*
X0249066Y0118273D01*
X0249093Y0118218D01*
X0249122Y0118166D01*
X0249155Y0118115D01*
X0249191Y0118066D01*
X0249229Y0118020D01*
X0249271Y0117976D01*
X0249315Y0117934D01*
X0249361Y0117896D01*
X0249410Y0117860D01*
X0249461Y0117827D01*
X0249513Y0117798D01*
X0249568Y0117771D01*
X0249623Y0117748D01*
X0249680Y0117728D01*
X0249739Y0117712D01*
X0249798Y0117699D01*
X0249857Y0117690D01*
X0249918Y0117685D01*
X0249978Y0117683D01*
X0255978Y0117683D01*
X0256038Y0117685D01*
X0256099Y0117690D01*
X0256158Y0117699D01*
X0256217Y0117712D01*
X0256276Y0117728D01*
X0256333Y0117748D01*
X0256388Y0117771D01*
X0256443Y0117798D01*
X0256495Y0117827D01*
X0256546Y0117860D01*
X0256595Y0117896D01*
X0256641Y0117934D01*
X0256685Y0117976D01*
X0256727Y0118020D01*
X0256765Y0118066D01*
X0256801Y0118115D01*
X0256834Y0118166D01*
X0256863Y0118218D01*
X0256890Y0118273D01*
X0256913Y0118328D01*
X0256933Y0118385D01*
X0256949Y0118444D01*
X0256962Y0118503D01*
X0256971Y0118562D01*
X0256976Y0118623D01*
X0256978Y0118683D01*
X0256978Y0120183D01*
X0256478Y0120683D01*
X0256478Y0134683D01*
X0256978Y0135183D01*
X0256978Y0136683D01*
X0256976Y0136743D01*
X0256971Y0136804D01*
X0256962Y0136863D01*
X0256949Y0136922D01*
X0256933Y0136981D01*
X0256913Y0137038D01*
X0256890Y0137093D01*
X0256863Y0137148D01*
X0256834Y0137200D01*
X0256801Y0137251D01*
X0256765Y0137300D01*
X0256727Y0137346D01*
X0256685Y0137390D01*
X0256641Y0137432D01*
X0256595Y0137470D01*
X0256546Y0137506D01*
X0256495Y0137539D01*
X0256443Y0137568D01*
X0256388Y0137595D01*
X0256333Y0137618D01*
X0256276Y0137638D01*
X0256217Y0137654D01*
X0256158Y0137667D01*
X0256099Y0137676D01*
X0256038Y0137681D01*
X0255978Y0137683D01*
X0266728Y0136183D02*
X0266728Y0119183D01*
X0266730Y0119123D01*
X0266735Y0119062D01*
X0266744Y0119003D01*
X0266757Y0118944D01*
X0266773Y0118885D01*
X0266793Y0118828D01*
X0266816Y0118773D01*
X0266843Y0118718D01*
X0266872Y0118666D01*
X0266905Y0118615D01*
X0266941Y0118566D01*
X0266979Y0118520D01*
X0267021Y0118476D01*
X0267065Y0118434D01*
X0267111Y0118396D01*
X0267160Y0118360D01*
X0267211Y0118327D01*
X0267263Y0118298D01*
X0267318Y0118271D01*
X0267373Y0118248D01*
X0267430Y0118228D01*
X0267489Y0118212D01*
X0267548Y0118199D01*
X0267607Y0118190D01*
X0267668Y0118185D01*
X0267728Y0118183D01*
X0275728Y0118183D01*
X0275788Y0118185D01*
X0275849Y0118190D01*
X0275908Y0118199D01*
X0275967Y0118212D01*
X0276026Y0118228D01*
X0276083Y0118248D01*
X0276138Y0118271D01*
X0276193Y0118298D01*
X0276245Y0118327D01*
X0276296Y0118360D01*
X0276345Y0118396D01*
X0276391Y0118434D01*
X0276435Y0118476D01*
X0276477Y0118520D01*
X0276515Y0118566D01*
X0276551Y0118615D01*
X0276584Y0118666D01*
X0276613Y0118718D01*
X0276640Y0118773D01*
X0276663Y0118828D01*
X0276683Y0118885D01*
X0276699Y0118944D01*
X0276712Y0119003D01*
X0276721Y0119062D01*
X0276726Y0119123D01*
X0276728Y0119183D01*
X0276728Y0136183D01*
X0276726Y0136243D01*
X0276721Y0136304D01*
X0276712Y0136363D01*
X0276699Y0136422D01*
X0276683Y0136481D01*
X0276663Y0136538D01*
X0276640Y0136593D01*
X0276613Y0136648D01*
X0276584Y0136700D01*
X0276551Y0136751D01*
X0276515Y0136800D01*
X0276477Y0136846D01*
X0276435Y0136890D01*
X0276391Y0136932D01*
X0276345Y0136970D01*
X0276296Y0137006D01*
X0276245Y0137039D01*
X0276193Y0137068D01*
X0276138Y0137095D01*
X0276083Y0137118D01*
X0276026Y0137138D01*
X0275967Y0137154D01*
X0275908Y0137167D01*
X0275849Y0137176D01*
X0275788Y0137181D01*
X0275728Y0137183D01*
X0267728Y0137183D01*
X0267668Y0137181D01*
X0267607Y0137176D01*
X0267548Y0137167D01*
X0267489Y0137154D01*
X0267430Y0137138D01*
X0267373Y0137118D01*
X0267318Y0137095D01*
X0267263Y0137068D01*
X0267211Y0137039D01*
X0267160Y0137006D01*
X0267111Y0136970D01*
X0267065Y0136932D01*
X0267021Y0136890D01*
X0266979Y0136846D01*
X0266941Y0136800D01*
X0266905Y0136751D01*
X0266872Y0136700D01*
X0266843Y0136648D01*
X0266816Y0136593D01*
X0266793Y0136538D01*
X0266773Y0136481D01*
X0266757Y0136422D01*
X0266744Y0136363D01*
X0266735Y0136304D01*
X0266730Y0136243D01*
X0266728Y0136183D01*
X0271728Y0129183D02*
X0271728Y0128683D01*
X0271728Y0126683D02*
X0271728Y0126183D01*
X0244478Y0120183D02*
X0244478Y0118683D01*
X0244476Y0118623D01*
X0244471Y0118562D01*
X0244462Y0118503D01*
X0244449Y0118444D01*
X0244433Y0118385D01*
X0244413Y0118328D01*
X0244390Y0118273D01*
X0244363Y0118218D01*
X0244334Y0118166D01*
X0244301Y0118115D01*
X0244265Y0118066D01*
X0244227Y0118020D01*
X0244185Y0117976D01*
X0244141Y0117934D01*
X0244095Y0117896D01*
X0244046Y0117860D01*
X0243995Y0117827D01*
X0243943Y0117798D01*
X0243888Y0117771D01*
X0243833Y0117748D01*
X0243776Y0117728D01*
X0243717Y0117712D01*
X0243658Y0117699D01*
X0243599Y0117690D01*
X0243538Y0117685D01*
X0243478Y0117683D01*
X0237478Y0117683D01*
X0237418Y0117685D01*
X0237357Y0117690D01*
X0237298Y0117699D01*
X0237239Y0117712D01*
X0237180Y0117728D01*
X0237123Y0117748D01*
X0237068Y0117771D01*
X0237013Y0117798D01*
X0236961Y0117827D01*
X0236910Y0117860D01*
X0236861Y0117896D01*
X0236815Y0117934D01*
X0236771Y0117976D01*
X0236729Y0118020D01*
X0236691Y0118066D01*
X0236655Y0118115D01*
X0236622Y0118166D01*
X0236593Y0118218D01*
X0236566Y0118273D01*
X0236543Y0118328D01*
X0236523Y0118385D01*
X0236507Y0118444D01*
X0236494Y0118503D01*
X0236485Y0118562D01*
X0236480Y0118623D01*
X0236478Y0118683D01*
X0236478Y0120183D01*
X0236978Y0120683D01*
X0236978Y0134683D01*
X0236478Y0135183D01*
X0236478Y0136683D01*
X0236480Y0136743D01*
X0236485Y0136804D01*
X0236494Y0136863D01*
X0236507Y0136922D01*
X0236523Y0136981D01*
X0236543Y0137038D01*
X0236566Y0137093D01*
X0236593Y0137148D01*
X0236622Y0137200D01*
X0236655Y0137251D01*
X0236691Y0137300D01*
X0236729Y0137346D01*
X0236771Y0137390D01*
X0236815Y0137432D01*
X0236861Y0137470D01*
X0236910Y0137506D01*
X0236961Y0137539D01*
X0237013Y0137568D01*
X0237068Y0137595D01*
X0237123Y0137618D01*
X0237180Y0137638D01*
X0237239Y0137654D01*
X0237298Y0137667D01*
X0237357Y0137676D01*
X0237418Y0137681D01*
X0237478Y0137683D01*
X0243478Y0137683D01*
X0243538Y0137681D01*
X0243599Y0137676D01*
X0243658Y0137667D01*
X0243717Y0137654D01*
X0243776Y0137638D01*
X0243833Y0137618D01*
X0243888Y0137595D01*
X0243943Y0137568D01*
X0243995Y0137539D01*
X0244046Y0137506D01*
X0244095Y0137470D01*
X0244141Y0137432D01*
X0244185Y0137390D01*
X0244227Y0137346D01*
X0244265Y0137300D01*
X0244301Y0137251D01*
X0244334Y0137200D01*
X0244363Y0137148D01*
X0244390Y0137093D01*
X0244413Y0137038D01*
X0244433Y0136981D01*
X0244449Y0136922D01*
X0244462Y0136863D01*
X0244471Y0136804D01*
X0244476Y0136743D01*
X0244478Y0136683D01*
X0244478Y0135183D01*
X0243978Y0134683D01*
X0243978Y0120683D01*
X0244478Y0120183D01*
X0228853Y0114808D02*
X0228853Y0113308D01*
X0228353Y0112808D01*
X0228353Y0098808D01*
X0228853Y0098308D01*
X0228853Y0096808D01*
X0228851Y0096748D01*
X0228846Y0096687D01*
X0228837Y0096628D01*
X0228824Y0096569D01*
X0228808Y0096510D01*
X0228788Y0096453D01*
X0228765Y0096398D01*
X0228738Y0096343D01*
X0228709Y0096291D01*
X0228676Y0096240D01*
X0228640Y0096191D01*
X0228602Y0096145D01*
X0228560Y0096101D01*
X0228516Y0096059D01*
X0228470Y0096021D01*
X0228421Y0095985D01*
X0228370Y0095952D01*
X0228318Y0095923D01*
X0228263Y0095896D01*
X0228208Y0095873D01*
X0228151Y0095853D01*
X0228092Y0095837D01*
X0228033Y0095824D01*
X0227974Y0095815D01*
X0227913Y0095810D01*
X0227853Y0095808D01*
X0221853Y0095808D01*
X0221793Y0095810D01*
X0221732Y0095815D01*
X0221673Y0095824D01*
X0221614Y0095837D01*
X0221555Y0095853D01*
X0221498Y0095873D01*
X0221443Y0095896D01*
X0221388Y0095923D01*
X0221336Y0095952D01*
X0221285Y0095985D01*
X0221236Y0096021D01*
X0221190Y0096059D01*
X0221146Y0096101D01*
X0221104Y0096145D01*
X0221066Y0096191D01*
X0221030Y0096240D01*
X0220997Y0096291D01*
X0220968Y0096343D01*
X0220941Y0096398D01*
X0220918Y0096453D01*
X0220898Y0096510D01*
X0220882Y0096569D01*
X0220869Y0096628D01*
X0220860Y0096687D01*
X0220855Y0096748D01*
X0220853Y0096808D01*
X0220853Y0098308D01*
X0221353Y0098808D01*
X0221353Y0112808D01*
X0220853Y0113308D01*
X0220853Y0114808D01*
X0220855Y0114868D01*
X0220860Y0114929D01*
X0220869Y0114988D01*
X0220882Y0115047D01*
X0220898Y0115106D01*
X0220918Y0115163D01*
X0220941Y0115218D01*
X0220968Y0115273D01*
X0220997Y0115325D01*
X0221030Y0115376D01*
X0221066Y0115425D01*
X0221104Y0115471D01*
X0221146Y0115515D01*
X0221190Y0115557D01*
X0221236Y0115595D01*
X0221285Y0115631D01*
X0221336Y0115664D01*
X0221388Y0115693D01*
X0221443Y0115720D01*
X0221498Y0115743D01*
X0221555Y0115763D01*
X0221614Y0115779D01*
X0221673Y0115792D01*
X0221732Y0115801D01*
X0221793Y0115806D01*
X0221853Y0115808D01*
X0227853Y0115808D01*
X0227913Y0115806D01*
X0227974Y0115801D01*
X0228033Y0115792D01*
X0228092Y0115779D01*
X0228151Y0115763D01*
X0228208Y0115743D01*
X0228263Y0115720D01*
X0228318Y0115693D01*
X0228370Y0115664D01*
X0228421Y0115631D01*
X0228470Y0115595D01*
X0228516Y0115557D01*
X0228560Y0115515D01*
X0228602Y0115471D01*
X0228640Y0115425D01*
X0228676Y0115376D01*
X0228709Y0115325D01*
X0228738Y0115273D01*
X0228765Y0115218D01*
X0228788Y0115163D01*
X0228808Y0115106D01*
X0228824Y0115047D01*
X0228837Y0114988D01*
X0228846Y0114929D01*
X0228851Y0114868D01*
X0228853Y0114808D01*
X0299728Y0145558D02*
X0299728Y0153558D01*
X0299730Y0153618D01*
X0299735Y0153679D01*
X0299744Y0153738D01*
X0299757Y0153797D01*
X0299773Y0153856D01*
X0299793Y0153913D01*
X0299816Y0153968D01*
X0299843Y0154023D01*
X0299872Y0154075D01*
X0299905Y0154126D01*
X0299941Y0154175D01*
X0299979Y0154221D01*
X0300021Y0154265D01*
X0300065Y0154307D01*
X0300111Y0154345D01*
X0300160Y0154381D01*
X0300211Y0154414D01*
X0300263Y0154443D01*
X0300318Y0154470D01*
X0300373Y0154493D01*
X0300430Y0154513D01*
X0300489Y0154529D01*
X0300548Y0154542D01*
X0300607Y0154551D01*
X0300668Y0154556D01*
X0300728Y0154558D01*
X0317728Y0154558D01*
X0317788Y0154556D01*
X0317849Y0154551D01*
X0317908Y0154542D01*
X0317967Y0154529D01*
X0318026Y0154513D01*
X0318083Y0154493D01*
X0318138Y0154470D01*
X0318193Y0154443D01*
X0318245Y0154414D01*
X0318296Y0154381D01*
X0318345Y0154345D01*
X0318391Y0154307D01*
X0318435Y0154265D01*
X0318477Y0154221D01*
X0318515Y0154175D01*
X0318551Y0154126D01*
X0318584Y0154075D01*
X0318613Y0154023D01*
X0318640Y0153968D01*
X0318663Y0153913D01*
X0318683Y0153856D01*
X0318699Y0153797D01*
X0318712Y0153738D01*
X0318721Y0153679D01*
X0318726Y0153618D01*
X0318728Y0153558D01*
X0318728Y0145558D01*
X0318726Y0145498D01*
X0318721Y0145437D01*
X0318712Y0145378D01*
X0318699Y0145319D01*
X0318683Y0145260D01*
X0318663Y0145203D01*
X0318640Y0145148D01*
X0318613Y0145093D01*
X0318584Y0145041D01*
X0318551Y0144990D01*
X0318515Y0144941D01*
X0318477Y0144895D01*
X0318435Y0144851D01*
X0318391Y0144809D01*
X0318345Y0144771D01*
X0318296Y0144735D01*
X0318245Y0144702D01*
X0318193Y0144673D01*
X0318138Y0144646D01*
X0318083Y0144623D01*
X0318026Y0144603D01*
X0317967Y0144587D01*
X0317908Y0144574D01*
X0317849Y0144565D01*
X0317788Y0144560D01*
X0317728Y0144558D01*
X0300728Y0144558D01*
X0300668Y0144560D01*
X0300607Y0144565D01*
X0300548Y0144574D01*
X0300489Y0144587D01*
X0300430Y0144603D01*
X0300373Y0144623D01*
X0300318Y0144646D01*
X0300263Y0144673D01*
X0300211Y0144702D01*
X0300160Y0144735D01*
X0300111Y0144771D01*
X0300065Y0144809D01*
X0300021Y0144851D01*
X0299979Y0144895D01*
X0299941Y0144941D01*
X0299905Y0144990D01*
X0299872Y0145041D01*
X0299843Y0145093D01*
X0299816Y0145148D01*
X0299793Y0145203D01*
X0299773Y0145260D01*
X0299757Y0145319D01*
X0299744Y0145378D01*
X0299735Y0145437D01*
X0299730Y0145498D01*
X0299728Y0145558D01*
X0307728Y0149558D02*
X0308228Y0149558D01*
X0310228Y0149558D02*
X0310728Y0149558D01*
X0304853Y0129808D02*
X0304853Y0122308D01*
X0304979Y0122306D01*
X0305104Y0122300D01*
X0305229Y0122290D01*
X0305354Y0122276D01*
X0305479Y0122259D01*
X0305603Y0122237D01*
X0305726Y0122212D01*
X0305848Y0122182D01*
X0305969Y0122149D01*
X0306089Y0122112D01*
X0306208Y0122072D01*
X0306325Y0122027D01*
X0306442Y0121979D01*
X0306556Y0121927D01*
X0306669Y0121872D01*
X0306780Y0121813D01*
X0306889Y0121751D01*
X0306996Y0121685D01*
X0307101Y0121616D01*
X0307204Y0121544D01*
X0307305Y0121469D01*
X0307403Y0121390D01*
X0307498Y0121308D01*
X0307591Y0121224D01*
X0307681Y0121136D01*
X0307769Y0121046D01*
X0307853Y0120953D01*
X0307935Y0120858D01*
X0308014Y0120760D01*
X0308089Y0120659D01*
X0308161Y0120556D01*
X0308230Y0120451D01*
X0308296Y0120344D01*
X0308358Y0120235D01*
X0308417Y0120124D01*
X0308472Y0120011D01*
X0308524Y0119897D01*
X0308572Y0119780D01*
X0308617Y0119663D01*
X0308657Y0119544D01*
X0308694Y0119424D01*
X0308727Y0119303D01*
X0308757Y0119181D01*
X0308782Y0119058D01*
X0308804Y0118934D01*
X0308821Y0118809D01*
X0308835Y0118684D01*
X0308845Y0118559D01*
X0308851Y0118434D01*
X0308853Y0118308D01*
X0308851Y0118182D01*
X0308845Y0118057D01*
X0308835Y0117932D01*
X0308821Y0117807D01*
X0308804Y0117682D01*
X0308782Y0117558D01*
X0308757Y0117435D01*
X0308727Y0117313D01*
X0308694Y0117192D01*
X0308657Y0117072D01*
X0308617Y0116953D01*
X0308572Y0116836D01*
X0308524Y0116719D01*
X0308472Y0116605D01*
X0308417Y0116492D01*
X0308358Y0116381D01*
X0308296Y0116272D01*
X0308230Y0116165D01*
X0308161Y0116060D01*
X0308089Y0115957D01*
X0308014Y0115856D01*
X0307935Y0115758D01*
X0307853Y0115663D01*
X0307769Y0115570D01*
X0307681Y0115480D01*
X0307591Y0115392D01*
X0307498Y0115308D01*
X0307403Y0115226D01*
X0307305Y0115147D01*
X0307204Y0115072D01*
X0307101Y0115000D01*
X0306996Y0114931D01*
X0306889Y0114865D01*
X0306780Y0114803D01*
X0306669Y0114744D01*
X0306556Y0114689D01*
X0306442Y0114637D01*
X0306325Y0114589D01*
X0306208Y0114544D01*
X0306089Y0114504D01*
X0305969Y0114467D01*
X0305848Y0114434D01*
X0305726Y0114404D01*
X0305603Y0114379D01*
X0305479Y0114357D01*
X0305354Y0114340D01*
X0305229Y0114326D01*
X0305104Y0114316D01*
X0304979Y0114310D01*
X0304853Y0114308D01*
X0304853Y0106808D01*
X0344853Y0106808D01*
X0344853Y0129808D01*
X0304853Y0129808D01*
X0347978Y0126808D02*
X0347978Y0109808D01*
X0347980Y0109748D01*
X0347985Y0109687D01*
X0347994Y0109628D01*
X0348007Y0109569D01*
X0348023Y0109510D01*
X0348043Y0109453D01*
X0348066Y0109398D01*
X0348093Y0109343D01*
X0348122Y0109291D01*
X0348155Y0109240D01*
X0348191Y0109191D01*
X0348229Y0109145D01*
X0348271Y0109101D01*
X0348315Y0109059D01*
X0348361Y0109021D01*
X0348410Y0108985D01*
X0348461Y0108952D01*
X0348513Y0108923D01*
X0348568Y0108896D01*
X0348623Y0108873D01*
X0348680Y0108853D01*
X0348739Y0108837D01*
X0348798Y0108824D01*
X0348857Y0108815D01*
X0348918Y0108810D01*
X0348978Y0108808D01*
X0356978Y0108808D01*
X0357038Y0108810D01*
X0357099Y0108815D01*
X0357158Y0108824D01*
X0357217Y0108837D01*
X0357276Y0108853D01*
X0357333Y0108873D01*
X0357388Y0108896D01*
X0357443Y0108923D01*
X0357495Y0108952D01*
X0357546Y0108985D01*
X0357595Y0109021D01*
X0357641Y0109059D01*
X0357685Y0109101D01*
X0357727Y0109145D01*
X0357765Y0109191D01*
X0357801Y0109240D01*
X0357834Y0109291D01*
X0357863Y0109343D01*
X0357890Y0109398D01*
X0357913Y0109453D01*
X0357933Y0109510D01*
X0357949Y0109569D01*
X0357962Y0109628D01*
X0357971Y0109687D01*
X0357976Y0109748D01*
X0357978Y0109808D01*
X0357978Y0126808D01*
X0357976Y0126868D01*
X0357971Y0126929D01*
X0357962Y0126988D01*
X0357949Y0127047D01*
X0357933Y0127106D01*
X0357913Y0127163D01*
X0357890Y0127218D01*
X0357863Y0127273D01*
X0357834Y0127325D01*
X0357801Y0127376D01*
X0357765Y0127425D01*
X0357727Y0127471D01*
X0357685Y0127515D01*
X0357641Y0127557D01*
X0357595Y0127595D01*
X0357546Y0127631D01*
X0357495Y0127664D01*
X0357443Y0127693D01*
X0357388Y0127720D01*
X0357333Y0127743D01*
X0357276Y0127763D01*
X0357217Y0127779D01*
X0357158Y0127792D01*
X0357099Y0127801D01*
X0357038Y0127806D01*
X0356978Y0127808D01*
X0348978Y0127808D01*
X0348918Y0127806D01*
X0348857Y0127801D01*
X0348798Y0127792D01*
X0348739Y0127779D01*
X0348680Y0127763D01*
X0348623Y0127743D01*
X0348568Y0127720D01*
X0348513Y0127693D01*
X0348461Y0127664D01*
X0348410Y0127631D01*
X0348361Y0127595D01*
X0348315Y0127557D01*
X0348271Y0127515D01*
X0348229Y0127471D01*
X0348191Y0127425D01*
X0348155Y0127376D01*
X0348122Y0127325D01*
X0348093Y0127273D01*
X0348066Y0127218D01*
X0348043Y0127163D01*
X0348023Y0127106D01*
X0348007Y0127047D01*
X0347994Y0126988D01*
X0347985Y0126929D01*
X0347980Y0126868D01*
X0347978Y0126808D01*
X0352978Y0119808D02*
X0352978Y0119308D01*
X0352978Y0117308D02*
X0352978Y0116808D01*
D16*
X0352978Y0117308D02*
X0349978Y0117308D01*
X0349978Y0119308D02*
X0352978Y0119308D01*
X0355978Y0119308D01*
X0355978Y0117308D02*
X0352978Y0117308D01*
X0310228Y0146558D02*
X0310228Y0149558D01*
X0310228Y0152558D01*
X0308228Y0152558D02*
X0308228Y0149558D01*
X0308228Y0146558D01*
X0308228Y0165308D02*
X0308228Y0168308D01*
X0308228Y0171308D01*
X0310228Y0171308D02*
X0310228Y0168308D01*
X0310228Y0165308D01*
X0285228Y0165058D02*
X0285228Y0162058D01*
X0285228Y0159058D01*
X0283228Y0159058D02*
X0283228Y0162058D01*
X0283228Y0165058D01*
X0277853Y0179808D02*
X0274853Y0179808D01*
X0271853Y0179808D01*
X0271853Y0181808D02*
X0274853Y0181808D01*
X0277853Y0181808D01*
X0260228Y0155683D02*
X0260228Y0152683D01*
X0260228Y0149683D01*
X0258228Y0149683D02*
X0258228Y0152683D01*
X0258228Y0155683D01*
X0235228Y0155683D02*
X0235228Y0152683D01*
X0235228Y0149683D01*
X0233228Y0149683D02*
X0233228Y0152683D01*
X0233228Y0155683D01*
X0234228Y0182933D02*
X0231228Y0182933D01*
X0231228Y0184933D02*
X0234228Y0184933D01*
X0237228Y0184933D01*
X0237228Y0182933D02*
X0234228Y0182933D01*
X0224728Y0214183D02*
X0221728Y0214183D01*
X0218728Y0214183D01*
X0218728Y0216183D02*
X0221728Y0216183D01*
X0224728Y0216183D01*
X0256228Y0236058D02*
X0259228Y0236058D01*
X0262228Y0236058D01*
X0262228Y0238058D02*
X0259228Y0238058D01*
X0256228Y0238058D01*
X0225853Y0255933D02*
X0225853Y0258933D01*
X0225853Y0261933D01*
X0223853Y0261933D02*
X0223853Y0258933D01*
X0223853Y0255933D01*
X0199728Y0320433D02*
X0196728Y0320433D01*
X0193728Y0320433D01*
X0193728Y0322433D02*
X0196728Y0322433D01*
X0199728Y0322433D01*
X0228103Y0339183D02*
X0231103Y0339183D01*
X0234103Y0339183D01*
X0234103Y0341183D02*
X0231103Y0341183D01*
X0228103Y0341183D01*
X0253103Y0338058D02*
X0256103Y0338058D01*
X0259103Y0338058D01*
X0259103Y0336058D02*
X0256103Y0336058D01*
X0253103Y0336058D01*
X0268728Y0128683D02*
X0271728Y0128683D01*
X0274728Y0128683D01*
X0274728Y0126683D02*
X0271728Y0126683D01*
X0268728Y0126683D01*
D17*
X0252978Y0116933D03*
X0240478Y0116933D03*
X0224853Y0116558D03*
X0224853Y0095058D03*
X0240478Y0138433D03*
X0252978Y0138433D03*
X0246728Y0173183D03*
X0259228Y0173183D03*
X0259228Y0194683D03*
X0246728Y0194683D03*
X0246728Y0216933D03*
X0234228Y0216933D03*
X0234228Y0238433D03*
X0246728Y0238433D03*
X0202978Y0279433D03*
X0190478Y0279433D03*
X0190478Y0300933D03*
X0202978Y0300933D03*
D18*
X0199927Y0393746D02*
X0199927Y0399120D01*
X0165552Y0412496D02*
X0165552Y0417870D01*
X0099927Y0418746D02*
X0099927Y0424120D01*
X0256177Y0399120D02*
X0256177Y0393746D01*
X0331177Y0393746D02*
X0331177Y0399120D01*
X0334155Y0406246D02*
X0334155Y0411620D01*
X0334155Y0415621D02*
X0334155Y0420995D01*
X0361478Y0190683D02*
X0374478Y0190683D01*
X0387478Y0190683D01*
X0387478Y0188683D01*
X0374478Y0188683D01*
X0374478Y0190683D01*
X0373478Y0185683D02*
X0373478Y0179683D01*
X0388478Y0179683D01*
X0388478Y0185683D01*
X0373478Y0185683D01*
X0373478Y0175683D02*
X0373478Y0169683D01*
X0388478Y0169683D01*
X0388478Y0175683D01*
X0373478Y0175683D01*
X0373478Y0165683D02*
X0373478Y0159683D01*
X0388478Y0159683D01*
X0388478Y0165683D01*
X0373478Y0165683D01*
X0373478Y0155683D02*
X0373478Y0149683D01*
X0388478Y0149683D01*
X0388478Y0155683D01*
X0373478Y0155683D01*
X0373478Y0145683D02*
X0373478Y0139683D01*
X0388478Y0139683D01*
X0388478Y0145683D01*
X0373478Y0145683D01*
X0373478Y0135683D02*
X0373478Y0129683D01*
X0388478Y0129683D01*
X0388478Y0135683D01*
X0373478Y0135683D01*
X0373478Y0125683D02*
X0373478Y0119683D01*
X0388478Y0119683D01*
X0388478Y0125683D01*
X0373478Y0125683D01*
X0373478Y0115683D02*
X0373478Y0109683D01*
X0388478Y0109683D01*
X0388478Y0115683D01*
X0373478Y0115683D01*
X0374478Y0106683D02*
X0374478Y0104683D01*
X0387478Y0104683D01*
X0400478Y0104683D01*
X0400478Y0190683D01*
X0387478Y0190683D01*
X0361478Y0190683D02*
X0361478Y0104683D01*
X0374478Y0104683D01*
X0374478Y0106683D02*
X0387478Y0106683D01*
X0387478Y0104683D01*
D19*
X0380228Y0112683D03*
X0377728Y0112683D03*
X0375228Y0112683D03*
X0375228Y0122683D03*
X0377728Y0122683D03*
X0380228Y0122683D03*
X0380228Y0132683D03*
X0377728Y0132683D03*
X0375228Y0132683D03*
X0375228Y0142683D03*
X0377728Y0142683D03*
X0380228Y0142683D03*
X0380228Y0152683D03*
X0377728Y0152683D03*
X0375228Y0152683D03*
X0375228Y0162683D03*
X0377728Y0162683D03*
X0380228Y0162683D03*
X0380228Y0172683D03*
X0377728Y0172683D03*
X0375228Y0172683D03*
X0375228Y0182683D03*
X0377728Y0182683D03*
X0380228Y0182683D03*
D20*
X0364728Y0216483D02*
X0364659Y0216485D01*
X0364591Y0216491D01*
X0364523Y0216501D01*
X0364456Y0216514D01*
X0364390Y0216532D01*
X0364325Y0216553D01*
X0364261Y0216578D01*
X0364199Y0216606D01*
X0364138Y0216638D01*
X0364079Y0216673D01*
X0364023Y0216712D01*
X0363968Y0216754D01*
X0363917Y0216799D01*
X0363867Y0216847D01*
X0363821Y0216897D01*
X0363778Y0216950D01*
X0363737Y0217006D01*
X0363700Y0217063D01*
X0363667Y0217123D01*
X0363636Y0217185D01*
X0363610Y0217248D01*
X0363587Y0217312D01*
X0363567Y0217378D01*
X0363552Y0217445D01*
X0363540Y0217512D01*
X0363532Y0217580D01*
X0363528Y0217649D01*
X0363528Y0217717D01*
X0363532Y0217786D01*
X0363540Y0217854D01*
X0363552Y0217921D01*
X0363567Y0217988D01*
X0363587Y0218054D01*
X0363610Y0218118D01*
X0363636Y0218181D01*
X0363667Y0218243D01*
X0363700Y0218303D01*
X0363737Y0218360D01*
X0363778Y0218416D01*
X0363821Y0218469D01*
X0363867Y0218519D01*
X0363917Y0218567D01*
X0363968Y0218612D01*
X0364023Y0218654D01*
X0364079Y0218693D01*
X0364138Y0218728D01*
X0364199Y0218760D01*
X0364261Y0218788D01*
X0364325Y0218813D01*
X0364390Y0218834D01*
X0364456Y0218852D01*
X0364523Y0218865D01*
X0364591Y0218875D01*
X0364659Y0218881D01*
X0364728Y0218883D01*
D21*
X0377634Y0296948D02*
X0379169Y0296948D01*
X0379936Y0297715D01*
X0379936Y0301552D01*
X0381470Y0300785D02*
X0382238Y0301552D01*
X0383772Y0301552D01*
X0384540Y0300785D01*
X0383772Y0299250D02*
X0382238Y0299250D01*
X0381470Y0300017D01*
X0381470Y0300785D01*
X0383005Y0302319D02*
X0383005Y0296181D01*
X0382238Y0296948D02*
X0383772Y0296948D01*
X0384540Y0297715D01*
X0384540Y0298483D01*
X0383772Y0299250D01*
X0386074Y0299250D02*
X0388376Y0299250D01*
X0389144Y0298483D01*
X0389144Y0297715D01*
X0388376Y0296948D01*
X0386842Y0296948D01*
X0386074Y0297715D01*
X0386074Y0299250D01*
X0387609Y0300785D01*
X0389144Y0301552D01*
X0382238Y0296948D02*
X0381470Y0297715D01*
X0377634Y0296948D02*
X0376867Y0297715D01*
X0376867Y0301552D01*
X0068190Y0401800D02*
X0068190Y0406404D01*
X0065121Y0406404D02*
X0068190Y0401800D01*
X0065121Y0401800D02*
X0065121Y0406404D01*
X0063587Y0406404D02*
X0062052Y0406404D01*
X0062819Y0406404D02*
X0062819Y0401800D01*
X0062052Y0401800D02*
X0063587Y0401800D01*
X0060517Y0401033D02*
X0057448Y0401033D01*
X0055913Y0401800D02*
X0054379Y0403335D01*
X0055146Y0403335D02*
X0052844Y0403335D01*
X0052844Y0401800D02*
X0052844Y0406404D01*
X0055146Y0406404D01*
X0055913Y0405637D01*
X0055913Y0404102D01*
X0055146Y0403335D01*
X0051309Y0401800D02*
X0048240Y0401800D01*
X0048240Y0406404D01*
X0051309Y0406404D01*
X0049775Y0404102D02*
X0048240Y0404102D01*
X0046705Y0401800D02*
X0046705Y0406404D01*
X0043636Y0406404D02*
X0043636Y0401800D01*
X0045171Y0403335D01*
X0046705Y0401800D01*
X0042102Y0402568D02*
X0042102Y0405637D01*
X0041334Y0406404D01*
X0039800Y0406404D01*
X0039032Y0405637D01*
X0039032Y0402568D01*
X0039800Y0401800D01*
X0041334Y0401800D01*
X0042102Y0402568D01*
X0037498Y0404102D02*
X0037498Y0405637D01*
X0036730Y0406404D01*
X0034428Y0406404D01*
X0034428Y0401800D01*
X0034428Y0403335D02*
X0036730Y0403335D01*
X0037498Y0404102D01*
D22*
X0290978Y0195558D02*
X0314978Y0195558D01*
X0315185Y0195555D01*
X0315392Y0195548D01*
X0315598Y0195535D01*
X0315805Y0195518D01*
X0316010Y0195495D01*
X0316216Y0195467D01*
X0316420Y0195435D01*
X0316624Y0195397D01*
X0316826Y0195355D01*
X0317028Y0195307D01*
X0317228Y0195255D01*
X0317427Y0195198D01*
X0317624Y0195136D01*
X0317820Y0195069D01*
X0318014Y0194997D01*
X0318207Y0194921D01*
X0318397Y0194840D01*
X0318586Y0194754D01*
X0318772Y0194664D01*
X0318956Y0194570D01*
X0319138Y0194470D01*
X0319317Y0194367D01*
X0319494Y0194259D01*
X0319668Y0194147D01*
X0319839Y0194031D01*
X0320008Y0193910D01*
X0320173Y0193786D01*
X0320335Y0193657D01*
X0320494Y0193525D01*
X0320650Y0193389D01*
X0320803Y0193249D01*
X0320952Y0193105D01*
X0321097Y0192958D01*
X0321239Y0192807D01*
X0321377Y0192653D01*
X0321512Y0192495D01*
X0321642Y0192335D01*
X0321768Y0192171D01*
X0321891Y0192004D01*
X0322009Y0191834D01*
X0322124Y0191661D01*
X0322234Y0191486D01*
X0322339Y0191308D01*
X0322441Y0191127D01*
X0322537Y0190945D01*
X0322630Y0190759D01*
X0322718Y0190572D01*
X0322801Y0190382D01*
X0322880Y0190191D01*
X0322954Y0189998D01*
X0323023Y0189802D01*
X0323087Y0189606D01*
X0323147Y0189408D01*
X0323202Y0189208D01*
X0323252Y0189007D01*
X0323297Y0188805D01*
X0323337Y0188602D01*
X0323372Y0188398D01*
X0323402Y0188193D01*
X0323427Y0187988D01*
X0323447Y0187782D01*
X0323462Y0187575D01*
X0323472Y0187368D01*
X0323477Y0187161D01*
X0323477Y0186955D01*
X0323472Y0186748D01*
X0323462Y0186541D01*
X0323447Y0186334D01*
X0323427Y0186128D01*
X0323402Y0185923D01*
X0323372Y0185718D01*
X0323337Y0185514D01*
X0323297Y0185311D01*
X0323252Y0185109D01*
X0323202Y0184908D01*
X0323147Y0184708D01*
X0323087Y0184510D01*
X0323023Y0184314D01*
X0322954Y0184118D01*
X0322880Y0183925D01*
X0322801Y0183734D01*
X0322718Y0183544D01*
X0322630Y0183357D01*
X0322537Y0183171D01*
X0322441Y0182989D01*
X0322339Y0182808D01*
X0322234Y0182630D01*
X0322124Y0182455D01*
X0322009Y0182282D01*
X0321891Y0182112D01*
X0321768Y0181945D01*
X0321642Y0181781D01*
X0321512Y0181621D01*
X0321377Y0181463D01*
X0321239Y0181309D01*
X0321097Y0181158D01*
X0320952Y0181011D01*
X0320803Y0180867D01*
X0320650Y0180727D01*
X0320494Y0180591D01*
X0320335Y0180459D01*
X0320173Y0180330D01*
X0320008Y0180206D01*
X0319839Y0180085D01*
X0319668Y0179969D01*
X0319494Y0179857D01*
X0319317Y0179749D01*
X0319138Y0179646D01*
X0318956Y0179546D01*
X0318772Y0179452D01*
X0318586Y0179362D01*
X0318397Y0179276D01*
X0318207Y0179195D01*
X0318014Y0179119D01*
X0317820Y0179047D01*
X0317624Y0178980D01*
X0317427Y0178918D01*
X0317228Y0178861D01*
X0317028Y0178809D01*
X0316826Y0178761D01*
X0316624Y0178719D01*
X0316420Y0178681D01*
X0316216Y0178649D01*
X0316010Y0178621D01*
X0315805Y0178598D01*
X0315598Y0178581D01*
X0315392Y0178568D01*
X0315185Y0178561D01*
X0314978Y0178558D01*
X0290978Y0178558D01*
X0290771Y0178561D01*
X0290564Y0178568D01*
X0290358Y0178581D01*
X0290151Y0178598D01*
X0289946Y0178621D01*
X0289740Y0178649D01*
X0289536Y0178681D01*
X0289332Y0178719D01*
X0289130Y0178761D01*
X0288928Y0178809D01*
X0288728Y0178861D01*
X0288529Y0178918D01*
X0288332Y0178980D01*
X0288136Y0179047D01*
X0287942Y0179119D01*
X0287749Y0179195D01*
X0287559Y0179276D01*
X0287370Y0179362D01*
X0287184Y0179452D01*
X0287000Y0179546D01*
X0286818Y0179646D01*
X0286639Y0179749D01*
X0286462Y0179857D01*
X0286288Y0179969D01*
X0286117Y0180085D01*
X0285948Y0180206D01*
X0285783Y0180330D01*
X0285621Y0180459D01*
X0285462Y0180591D01*
X0285306Y0180727D01*
X0285153Y0180867D01*
X0285004Y0181011D01*
X0284859Y0181158D01*
X0284717Y0181309D01*
X0284579Y0181463D01*
X0284444Y0181621D01*
X0284314Y0181781D01*
X0284188Y0181945D01*
X0284065Y0182112D01*
X0283947Y0182282D01*
X0283832Y0182455D01*
X0283722Y0182630D01*
X0283617Y0182808D01*
X0283515Y0182989D01*
X0283419Y0183171D01*
X0283326Y0183357D01*
X0283238Y0183544D01*
X0283155Y0183734D01*
X0283076Y0183925D01*
X0283002Y0184118D01*
X0282933Y0184314D01*
X0282869Y0184510D01*
X0282809Y0184708D01*
X0282754Y0184908D01*
X0282704Y0185109D01*
X0282659Y0185311D01*
X0282619Y0185514D01*
X0282584Y0185718D01*
X0282554Y0185923D01*
X0282529Y0186128D01*
X0282509Y0186334D01*
X0282494Y0186541D01*
X0282484Y0186748D01*
X0282479Y0186955D01*
X0282479Y0187161D01*
X0282484Y0187368D01*
X0282494Y0187575D01*
X0282509Y0187782D01*
X0282529Y0187988D01*
X0282554Y0188193D01*
X0282584Y0188398D01*
X0282619Y0188602D01*
X0282659Y0188805D01*
X0282704Y0189007D01*
X0282754Y0189208D01*
X0282809Y0189408D01*
X0282869Y0189606D01*
X0282933Y0189802D01*
X0283002Y0189998D01*
X0283076Y0190191D01*
X0283155Y0190382D01*
X0283238Y0190572D01*
X0283326Y0190759D01*
X0283419Y0190945D01*
X0283515Y0191127D01*
X0283617Y0191308D01*
X0283722Y0191486D01*
X0283832Y0191661D01*
X0283947Y0191834D01*
X0284065Y0192004D01*
X0284188Y0192171D01*
X0284314Y0192335D01*
X0284444Y0192495D01*
X0284579Y0192653D01*
X0284717Y0192807D01*
X0284859Y0192958D01*
X0285004Y0193105D01*
X0285153Y0193249D01*
X0285306Y0193389D01*
X0285462Y0193525D01*
X0285621Y0193657D01*
X0285783Y0193786D01*
X0285948Y0193910D01*
X0286117Y0194031D01*
X0286288Y0194147D01*
X0286462Y0194259D01*
X0286639Y0194367D01*
X0286818Y0194470D01*
X0287000Y0194570D01*
X0287184Y0194664D01*
X0287370Y0194754D01*
X0287559Y0194840D01*
X0287749Y0194921D01*
X0287942Y0194997D01*
X0288136Y0195069D01*
X0288332Y0195136D01*
X0288529Y0195198D01*
X0288728Y0195255D01*
X0288928Y0195307D01*
X0289130Y0195355D01*
X0289332Y0195397D01*
X0289536Y0195435D01*
X0289740Y0195467D01*
X0289946Y0195495D01*
X0290151Y0195518D01*
X0290358Y0195535D01*
X0290564Y0195548D01*
X0290771Y0195555D01*
X0290978Y0195558D01*
M02*
