%
M48
M72
T01C0.00787
T02C0.01378
T03C0.02756
T04C0.03150
T05C0.03200
T06C0.03543
T07C0.04000
%
T01
X379342Y162933
X382398Y159984
X391342Y160933
X394342Y157933
X397342Y154933
X394342Y145933
X400842Y179433
X390842Y186933
X380842Y184433
X378342Y189433
X370842Y196933
X368342Y199433
X358342Y191933
X348342Y194433
X320842Y181933
X315842Y179433
X253342Y186933
X243342Y184433
X240842Y189433
X233342Y196933
X230842Y199433
X220842Y191933
X216342Y196933
X210842Y194433
X183342Y181933
X175436Y181933
X165842Y179433
X155842Y186933
X145842Y184433
X143342Y189433
X135842Y196933
X133342Y199433
X123342Y191933
X113342Y194433
X85842Y181933
X68342Y179433
X73342Y209433
X83342Y214433
X93342Y216933
X103342Y219433
X103342Y211933
X93342Y224433
X78342Y229433
X125842Y229433
X128342Y221933
X159342Y219433
X173342Y209433
X180842Y214433
X190842Y216933
X200842Y219433
X200842Y211933
X190842Y224433
X223342Y226933
X278342Y209433
X280842Y211933
X283342Y214433
X285842Y216933
X288342Y219433
X290842Y221933
X293342Y224433
X295842Y226933
X298342Y229433
X318342Y214433
X325842Y221933
X338342Y224433
X325842Y229433
X348342Y219433
X338342Y211933
X308342Y209433
X250842Y201933
X153342Y201933
X388342Y201933
X405842Y209433
X415842Y214433
X425842Y221933
X425842Y229433
X435842Y224433
X445842Y216933
X435842Y211933
X468342Y199433
X463342Y196933
X455842Y191933
X445842Y194433
X470842Y184433
X478342Y189433
X490842Y186933
X505842Y191933
X508342Y189433
X510842Y186933
X513342Y184433
X515842Y181933
X518342Y179433
X550842Y179433
X553342Y181933
X583342Y194433
X593342Y191933
X603342Y196933
X598342Y199433
X594542Y209433
X577742Y219433
X573342Y219433
X568142Y221933
X563342Y216933
X555842Y214433
X543342Y209433
X573342Y211933
X583342Y224433
X563342Y229433
X548042Y224433
X536342Y229433
X495842Y201933
X498342Y199433
X500842Y196933
X503342Y194433
X485842Y201933
X418342Y181933
X396342Y110933
X608042Y179433
X613342Y184433
X623342Y186933
X634442Y181933
X641842Y179433
X651842Y181933
X666842Y184433
X676742Y186933
X691842Y191933
X681842Y194433
X701842Y199433
X704342Y196933
X711842Y189433
X721842Y186933
X709342Y184433
X719342Y201933
X681842Y221933
X671842Y219433
X661842Y216933
X671842Y211933
X649342Y214433
X639342Y209433
X620842Y201933
X610842Y189433
X661842Y229433
T02
X525342Y290933
X494842Y289933
T03
X426342Y99933
X416342Y99933
T04
X410342Y113933
X523342Y166933
X542948Y174433
X552948Y174433
X562948Y174433
X572948Y174433
X582948Y174433
X592948Y174433
X602948Y174433
X612948Y174433
X622948Y174433
X641448Y174433
X651448Y174433
X661448Y174433
X671448Y174433
X681448Y174433
X691448Y174433
X701448Y174433
X711448Y174433
X721448Y174433
X722236Y234433
X712236Y234433
X702236Y234433
X692236Y234433
X682236Y234433
X671448Y234433
X661448Y234433
X651448Y234433
X641448Y234433
X623736Y234433
X613736Y234433
X603736Y234433
X593736Y234433
X583736Y234433
X572948Y234433
X562948Y234433
X552948Y234433
X542948Y234433
X487236Y234433
X477236Y234433
X467236Y234433
X457236Y234433
X447236Y234433
X436448Y234433
X426448Y234433
X416448Y234433
X406448Y234433
X388736Y234433
X378736Y234433
X368736Y234433
X358736Y234433
X348736Y234433
X337948Y234433
X327948Y234433
X317948Y234433
X307948Y234433
X252236Y234433
X242236Y234433
X232236Y234433
X222236Y234433
X212236Y234433
X201448Y234433
X191448Y234433
X181448Y234433
X171448Y234433
X153736Y234433
X143736Y234433
X133736Y234433
X123736Y234433
X113736Y234433
X102948Y234433
X92948Y234433
X82948Y234433
X72948Y234433
X72948Y174433
X82948Y174433
X92948Y174433
X102948Y174433
X112948Y174433
X122948Y174433
X132948Y174433
X142948Y174433
X152948Y174433
X171448Y174433
X181448Y174433
X191448Y174433
X201448Y174433
X211448Y174433
X221448Y174433
X231448Y174433
X241448Y174433
X251448Y174433
X265342Y171933
X274342Y171933
X307948Y174433
X317948Y174433
X327948Y174433
X337948Y174433
X347948Y174433
X357948Y174433
X367948Y174433
X377948Y174433
X387948Y174433
X406448Y174433
X416448Y174433
X426448Y174433
X436448Y174433
X446448Y174433
X456448Y174433
X466448Y174433
X476448Y174433
X486448Y174433
T05
X157342Y90933
X157342Y100933
X208342Y100933
X208342Y90933
X259342Y90933
X259342Y100933
X263342Y122933
X285342Y122933
X285342Y132933
X263342Y132933
X241342Y132933
X219342Y132933
X219342Y122933
X241342Y122933
X178342Y128933
X178342Y138933
X152342Y138933
X152342Y128933
X126342Y128933
X126342Y138933
X100342Y138933
X100342Y128933
X74342Y128933
X74342Y138933
X310542Y109833
X320542Y109833
X330542Y109833
X340542Y109833
X385342Y85933
X340542Y79833
X330542Y79833
X320542Y79833
X310542Y79833
X435342Y85933
X543342Y133933
X553342Y133933
X570342Y133933
X580342Y133933
X597342Y133933
X607342Y133933
X642342Y133933
X652342Y133933
X669342Y133933
X679342Y133933
X696342Y133933
X706342Y133933
X706342Y153933
X696342Y153933
X679342Y152933
X669342Y152933
X652342Y152933
X642342Y152933
X607342Y152933
X597342Y152933
X580342Y152933
X570342Y152933
X553342Y152933
X543342Y152933
T06
X480067Y126111
X468617Y153755
T07
X377342Y117933
X367342Y117933
X357342Y117933
X357342Y94933
X367342Y94933
X377342Y94933
X454342Y97433
X454342Y108433
M30
