G75*
%MOIN*%
%OFA0B0*%
%FSLAX25Y25*%
%IPPOS*%
%LPD*%
%AMOC8*
5,1,8,0,0,1.08239X$1,22.5*
%
%ADD10C,0.06400*%
%ADD11OC8,0.06000*%
%ADD12R,0.07300X0.25800*%
%ADD13C,0.06000*%
%ADD14C,0.07300*%
%ADD15C,0.00500*%
%ADD16C,0.06343*%
%ADD17C,0.06800*%
%ADD18C,0.03778*%
%ADD19C,0.05550*%
%ADD20C,0.03187*%
D10*
X0072948Y0174433D03*
X0082948Y0174433D03*
X0092948Y0174433D03*
X0102948Y0174433D03*
X0112948Y0174433D03*
X0122948Y0174433D03*
X0132948Y0174433D03*
X0142948Y0174433D03*
X0152948Y0174433D03*
X0171448Y0174433D03*
X0181448Y0174433D03*
X0191448Y0174433D03*
X0201448Y0174433D03*
X0211448Y0174433D03*
X0221448Y0174433D03*
X0231448Y0174433D03*
X0241448Y0174433D03*
X0251448Y0174433D03*
X0307948Y0174433D03*
X0317948Y0174433D03*
X0327948Y0174433D03*
X0337948Y0174433D03*
X0347948Y0174433D03*
X0357948Y0174433D03*
X0367948Y0174433D03*
X0377948Y0174433D03*
X0387948Y0174433D03*
X0406448Y0174433D03*
X0416448Y0174433D03*
X0426448Y0174433D03*
X0436448Y0174433D03*
X0446448Y0174433D03*
X0456448Y0174433D03*
X0466448Y0174433D03*
X0476448Y0174433D03*
X0486448Y0174433D03*
X0542948Y0174433D03*
X0552948Y0174433D03*
X0562948Y0174433D03*
X0572948Y0174433D03*
X0582948Y0174433D03*
X0592948Y0174433D03*
X0602948Y0174433D03*
X0612948Y0174433D03*
X0622948Y0174433D03*
X0641448Y0174433D03*
X0651448Y0174433D03*
X0661448Y0174433D03*
X0671448Y0174433D03*
X0681448Y0174433D03*
X0691448Y0174433D03*
X0701448Y0174433D03*
X0711448Y0174433D03*
X0721448Y0174433D03*
X0722236Y0234433D03*
X0712236Y0234433D03*
X0702236Y0234433D03*
X0692236Y0234433D03*
X0682236Y0234433D03*
X0671448Y0234433D03*
X0661448Y0234433D03*
X0651448Y0234433D03*
X0641448Y0234433D03*
X0623736Y0234433D03*
X0613736Y0234433D03*
X0603736Y0234433D03*
X0593736Y0234433D03*
X0583736Y0234433D03*
X0572948Y0234433D03*
X0562948Y0234433D03*
X0552948Y0234433D03*
X0542948Y0234433D03*
X0487236Y0234433D03*
X0477236Y0234433D03*
X0467236Y0234433D03*
X0457236Y0234433D03*
X0447236Y0234433D03*
X0436448Y0234433D03*
X0426448Y0234433D03*
X0416448Y0234433D03*
X0406448Y0234433D03*
X0388736Y0234433D03*
X0378736Y0234433D03*
X0368736Y0234433D03*
X0358736Y0234433D03*
X0348736Y0234433D03*
X0337948Y0234433D03*
X0327948Y0234433D03*
X0317948Y0234433D03*
X0307948Y0234433D03*
X0252236Y0234433D03*
X0242236Y0234433D03*
X0232236Y0234433D03*
X0222236Y0234433D03*
X0212236Y0234433D03*
X0201448Y0234433D03*
X0191448Y0234433D03*
X0181448Y0234433D03*
X0171448Y0234433D03*
X0153736Y0234433D03*
X0143736Y0234433D03*
X0133736Y0234433D03*
X0123736Y0234433D03*
X0113736Y0234433D03*
X0102948Y0234433D03*
X0092948Y0234433D03*
X0082948Y0234433D03*
X0072948Y0234433D03*
D11*
X0157342Y0090933D03*
X0157342Y0100933D03*
X0208342Y0100933D03*
X0208342Y0090933D03*
X0259342Y0090933D03*
X0259342Y0100933D03*
X0263342Y0122933D03*
X0285342Y0122933D03*
X0285342Y0132933D03*
X0263342Y0132933D03*
X0241342Y0132933D03*
X0219342Y0132933D03*
X0219342Y0122933D03*
X0241342Y0122933D03*
X0178342Y0128933D03*
X0178342Y0138933D03*
X0152342Y0138933D03*
X0152342Y0128933D03*
X0126342Y0128933D03*
X0126342Y0138933D03*
X0100342Y0138933D03*
X0100342Y0128933D03*
X0074342Y0128933D03*
X0074342Y0138933D03*
X0385342Y0085933D03*
X0435342Y0085933D03*
X0543342Y0133933D03*
X0553342Y0133933D03*
X0570342Y0133933D03*
X0580342Y0133933D03*
X0597342Y0133933D03*
X0607342Y0133933D03*
X0642342Y0133933D03*
X0652342Y0133933D03*
X0669342Y0133933D03*
X0679342Y0133933D03*
X0696342Y0133933D03*
X0706342Y0133933D03*
X0706342Y0153933D03*
X0696342Y0153933D03*
X0679342Y0152933D03*
X0669342Y0152933D03*
X0652342Y0152933D03*
X0642342Y0152933D03*
X0607342Y0152933D03*
X0597342Y0152933D03*
X0580342Y0152933D03*
X0570342Y0152933D03*
X0553342Y0152933D03*
X0543342Y0152933D03*
D12*
X0535092Y0306433D03*
X0525092Y0306433D03*
X0515092Y0306433D03*
X0505092Y0306433D03*
X0495092Y0306433D03*
X0485092Y0306433D03*
X0475092Y0306433D03*
X0465092Y0306433D03*
X0455092Y0306433D03*
X0445092Y0306433D03*
X0435092Y0306433D03*
X0425092Y0306433D03*
X0415092Y0306433D03*
X0405092Y0306433D03*
X0395092Y0306433D03*
X0385092Y0306433D03*
X0375092Y0306433D03*
X0365092Y0306433D03*
X0355092Y0306433D03*
X0345092Y0306433D03*
X0335092Y0306433D03*
X0325092Y0306433D03*
X0315092Y0306433D03*
X0305092Y0306433D03*
X0295092Y0306433D03*
X0285092Y0306433D03*
X0275092Y0306433D03*
X0265092Y0306433D03*
D13*
X0310542Y0112433D02*
X0310542Y0107233D01*
X0320542Y0107233D02*
X0320542Y0112433D01*
X0330542Y0112433D02*
X0330542Y0107233D01*
X0340542Y0107233D02*
X0340542Y0112433D01*
X0340542Y0082433D02*
X0340542Y0077233D01*
X0330542Y0077233D02*
X0330542Y0082433D01*
X0320542Y0082433D02*
X0320542Y0077233D01*
X0310542Y0077233D02*
X0310542Y0082433D01*
D14*
X0416342Y0099933D03*
X0426342Y0099933D03*
D15*
X0450639Y0097757D02*
X0458081Y0097757D01*
X0458112Y0097443D02*
X0458045Y0096785D01*
X0457864Y0096148D01*
X0457576Y0095553D01*
X0457189Y0095016D01*
X0456714Y0094555D01*
X0456167Y0094184D01*
X0455563Y0093913D01*
X0454921Y0093751D01*
X0454261Y0093703D01*
X0453542Y0093781D01*
X0452852Y0093999D01*
X0452218Y0094347D01*
X0451664Y0094812D01*
X0451211Y0095376D01*
X0450877Y0096018D01*
X0450674Y0096712D01*
X0450611Y0097433D01*
X0450673Y0098158D01*
X0450875Y0098857D01*
X0451209Y0099503D01*
X0451663Y0100071D01*
X0452219Y0100540D01*
X0452856Y0100891D01*
X0453549Y0101112D01*
X0454272Y0101193D01*
X0454931Y0101143D01*
X0455572Y0100979D01*
X0456175Y0100707D01*
X0456722Y0100334D01*
X0457195Y0099872D01*
X0457581Y0099334D01*
X0457868Y0098738D01*
X0458046Y0098101D01*
X0458112Y0097443D01*
X0458093Y0097259D02*
X0450627Y0097259D01*
X0450670Y0096760D02*
X0458038Y0096760D01*
X0457896Y0096262D02*
X0450806Y0096262D01*
X0451009Y0095763D02*
X0457678Y0095763D01*
X0457368Y0095265D02*
X0451300Y0095265D01*
X0451718Y0094766D02*
X0456931Y0094766D01*
X0456291Y0094268D02*
X0452362Y0094268D01*
X0453653Y0093769D02*
X0454995Y0093769D01*
X0458003Y0098256D02*
X0450701Y0098256D01*
X0450845Y0098754D02*
X0457860Y0098754D01*
X0457620Y0099253D02*
X0451080Y0099253D01*
X0451408Y0099751D02*
X0457281Y0099751D01*
X0456808Y0100250D02*
X0451875Y0100250D01*
X0452597Y0100748D02*
X0456083Y0100748D01*
X0454921Y0104771D02*
X0454261Y0104723D01*
X0453542Y0104801D01*
X0452852Y0105019D01*
X0452218Y0105367D01*
X0451664Y0105832D01*
X0451211Y0106396D01*
X0450877Y0107038D01*
X0450674Y0107732D01*
X0450611Y0108453D01*
X0450673Y0109178D01*
X0450875Y0109877D01*
X0451209Y0110523D01*
X0451663Y0111091D01*
X0452219Y0111560D01*
X0452856Y0111911D01*
X0453549Y0112132D01*
X0454272Y0112213D01*
X0454931Y0112163D01*
X0455572Y0111999D01*
X0456175Y0111727D01*
X0456722Y0111354D01*
X0457195Y0110892D01*
X0457581Y0110354D01*
X0457868Y0109758D01*
X0458046Y0109121D01*
X0458112Y0108463D01*
X0458045Y0107805D01*
X0457864Y0107168D01*
X0457576Y0106573D01*
X0457189Y0106036D01*
X0456714Y0105575D01*
X0456167Y0105204D01*
X0455563Y0104933D01*
X0454921Y0104771D01*
X0454450Y0104737D02*
X0454136Y0104737D01*
X0452458Y0105235D02*
X0456213Y0105235D01*
X0456877Y0105734D02*
X0451781Y0105734D01*
X0451342Y0106232D02*
X0457330Y0106232D01*
X0457652Y0106731D02*
X0451037Y0106731D01*
X0450821Y0107229D02*
X0457881Y0107229D01*
X0458023Y0107728D02*
X0450676Y0107728D01*
X0450631Y0108226D02*
X0458088Y0108226D01*
X0458086Y0108725D02*
X0450635Y0108725D01*
X0450686Y0109223D02*
X0458018Y0109223D01*
X0457878Y0109722D02*
X0450830Y0109722D01*
X0451053Y0110220D02*
X0457645Y0110220D01*
X0457319Y0110719D02*
X0451366Y0110719D01*
X0451813Y0111217D02*
X0456862Y0111217D01*
X0456192Y0111716D02*
X0452502Y0111716D01*
D16*
X0480067Y0126111D03*
X0468617Y0153755D03*
D17*
X0377342Y0120933D02*
X0377342Y0114933D01*
X0367342Y0114933D02*
X0367342Y0120933D01*
X0357342Y0120933D02*
X0357342Y0114933D01*
X0357342Y0097933D02*
X0357342Y0091933D01*
X0367342Y0091933D02*
X0367342Y0097933D01*
X0377342Y0097933D02*
X0377342Y0091933D01*
D18*
X0494842Y0289933D03*
X0525342Y0290933D03*
D19*
X0274342Y0171933D03*
X0265342Y0171933D03*
X0410342Y0113933D03*
X0523342Y0166933D03*
D20*
X0518342Y0179433D03*
X0515842Y0181933D03*
X0513342Y0184433D03*
X0510842Y0186933D03*
X0508342Y0189433D03*
X0505842Y0191933D03*
X0503342Y0194433D03*
X0500842Y0196933D03*
X0498342Y0199433D03*
X0495842Y0201933D03*
X0485842Y0201933D03*
X0468342Y0199433D03*
X0463342Y0196933D03*
X0455842Y0191933D03*
X0445842Y0194433D03*
X0470842Y0184433D03*
X0478342Y0189433D03*
X0490842Y0186933D03*
X0543342Y0209433D03*
X0555842Y0214433D03*
X0563342Y0216933D03*
X0573342Y0219433D03*
X0577742Y0219433D03*
X0583342Y0224433D03*
X0568142Y0221933D03*
X0563342Y0229433D03*
X0548042Y0224433D03*
X0536342Y0229433D03*
X0573342Y0211933D03*
X0594542Y0209433D03*
X0598342Y0199433D03*
X0603342Y0196933D03*
X0593342Y0191933D03*
X0583342Y0194433D03*
X0610842Y0189433D03*
X0613342Y0184433D03*
X0608042Y0179433D03*
X0623342Y0186933D03*
X0634442Y0181933D03*
X0641842Y0179433D03*
X0651842Y0181933D03*
X0666842Y0184433D03*
X0676742Y0186933D03*
X0691842Y0191933D03*
X0681842Y0194433D03*
X0701842Y0199433D03*
X0704342Y0196933D03*
X0711842Y0189433D03*
X0721842Y0186933D03*
X0709342Y0184433D03*
X0719342Y0201933D03*
X0681842Y0221933D03*
X0671842Y0219433D03*
X0661842Y0216933D03*
X0671842Y0211933D03*
X0649342Y0214433D03*
X0639342Y0209433D03*
X0620842Y0201933D03*
X0661842Y0229433D03*
X0553342Y0181933D03*
X0550842Y0179433D03*
X0445842Y0216933D03*
X0435842Y0211933D03*
X0425842Y0221933D03*
X0425842Y0229433D03*
X0435842Y0224433D03*
X0415842Y0214433D03*
X0405842Y0209433D03*
X0388342Y0201933D03*
X0370842Y0196933D03*
X0368342Y0199433D03*
X0358342Y0191933D03*
X0348342Y0194433D03*
X0320842Y0181933D03*
X0315842Y0179433D03*
X0253342Y0186933D03*
X0243342Y0184433D03*
X0240842Y0189433D03*
X0233342Y0196933D03*
X0230842Y0199433D03*
X0220842Y0191933D03*
X0216342Y0196933D03*
X0210842Y0194433D03*
X0183342Y0181933D03*
X0175436Y0181933D03*
X0165842Y0179433D03*
X0155842Y0186933D03*
X0145842Y0184433D03*
X0143342Y0189433D03*
X0135842Y0196933D03*
X0133342Y0199433D03*
X0123342Y0191933D03*
X0113342Y0194433D03*
X0085842Y0181933D03*
X0068342Y0179433D03*
X0073342Y0209433D03*
X0083342Y0214433D03*
X0093342Y0216933D03*
X0103342Y0219433D03*
X0103342Y0211933D03*
X0093342Y0224433D03*
X0078342Y0229433D03*
X0125842Y0229433D03*
X0128342Y0221933D03*
X0159342Y0219433D03*
X0173342Y0209433D03*
X0180842Y0214433D03*
X0190842Y0216933D03*
X0200842Y0219433D03*
X0200842Y0211933D03*
X0190842Y0224433D03*
X0223342Y0226933D03*
X0278342Y0209433D03*
X0280842Y0211933D03*
X0283342Y0214433D03*
X0285842Y0216933D03*
X0288342Y0219433D03*
X0290842Y0221933D03*
X0293342Y0224433D03*
X0295842Y0226933D03*
X0298342Y0229433D03*
X0318342Y0214433D03*
X0325842Y0221933D03*
X0338342Y0224433D03*
X0325842Y0229433D03*
X0348342Y0219433D03*
X0338342Y0211933D03*
X0308342Y0209433D03*
X0250842Y0201933D03*
X0153342Y0201933D03*
X0378342Y0189433D03*
X0390842Y0186933D03*
X0380842Y0184433D03*
X0400842Y0179433D03*
X0418342Y0181933D03*
X0379342Y0162933D03*
X0382398Y0159984D03*
X0391342Y0160933D03*
X0394342Y0157933D03*
X0397342Y0154933D03*
X0394342Y0145933D03*
X0396342Y0110933D03*
M02*
