G75*
%MOIN*%
%OFA0B0*%
%FSLAX25Y25*%
%IPPOS*%
%LPD*%
%AMOC8*
5,1,8,0,0,1.08239X$1,22.5*
%
%ADD10C,0.05600*%
%ADD11OC8,0.05200*%
%ADD12R,0.06500X0.25000*%
%ADD13C,0.05200*%
%ADD14C,0.06500*%
%ADD15C,0.08000*%
%ADD16C,0.05543*%
%ADD17C,0.06000*%
%ADD18C,0.01200*%
%ADD19C,0.02978*%
%ADD20C,0.04750*%
%ADD21C,0.02000*%
%ADD22C,0.00600*%
%ADD23C,0.02387*%
D10*
X0072948Y0174433D03*
X0082948Y0174433D03*
X0092948Y0174433D03*
X0102948Y0174433D03*
X0112948Y0174433D03*
X0122948Y0174433D03*
X0132948Y0174433D03*
X0142948Y0174433D03*
X0152948Y0174433D03*
X0171448Y0174433D03*
X0181448Y0174433D03*
X0191448Y0174433D03*
X0201448Y0174433D03*
X0211448Y0174433D03*
X0221448Y0174433D03*
X0231448Y0174433D03*
X0241448Y0174433D03*
X0251448Y0174433D03*
X0307948Y0174433D03*
X0317948Y0174433D03*
X0327948Y0174433D03*
X0337948Y0174433D03*
X0347948Y0174433D03*
X0357948Y0174433D03*
X0367948Y0174433D03*
X0377948Y0174433D03*
X0387948Y0174433D03*
X0406448Y0174433D03*
X0416448Y0174433D03*
X0426448Y0174433D03*
X0436448Y0174433D03*
X0446448Y0174433D03*
X0456448Y0174433D03*
X0466448Y0174433D03*
X0476448Y0174433D03*
X0486448Y0174433D03*
X0542948Y0174433D03*
X0552948Y0174433D03*
X0562948Y0174433D03*
X0572948Y0174433D03*
X0582948Y0174433D03*
X0592948Y0174433D03*
X0602948Y0174433D03*
X0612948Y0174433D03*
X0622948Y0174433D03*
X0641448Y0174433D03*
X0651448Y0174433D03*
X0661448Y0174433D03*
X0671448Y0174433D03*
X0681448Y0174433D03*
X0691448Y0174433D03*
X0701448Y0174433D03*
X0711448Y0174433D03*
X0721448Y0174433D03*
X0722236Y0234433D03*
X0712236Y0234433D03*
X0702236Y0234433D03*
X0692236Y0234433D03*
X0682236Y0234433D03*
X0671448Y0234433D03*
X0661448Y0234433D03*
X0651448Y0234433D03*
X0641448Y0234433D03*
X0623736Y0234433D03*
X0613736Y0234433D03*
X0603736Y0234433D03*
X0593736Y0234433D03*
X0583736Y0234433D03*
X0572948Y0234433D03*
X0562948Y0234433D03*
X0552948Y0234433D03*
X0542948Y0234433D03*
X0487236Y0234433D03*
X0477236Y0234433D03*
X0467236Y0234433D03*
X0457236Y0234433D03*
X0447236Y0234433D03*
X0436448Y0234433D03*
X0426448Y0234433D03*
X0416448Y0234433D03*
X0406448Y0234433D03*
X0388736Y0234433D03*
X0378736Y0234433D03*
X0368736Y0234433D03*
X0358736Y0234433D03*
X0348736Y0234433D03*
X0337948Y0234433D03*
X0327948Y0234433D03*
X0317948Y0234433D03*
X0307948Y0234433D03*
X0252236Y0234433D03*
X0242236Y0234433D03*
X0232236Y0234433D03*
X0222236Y0234433D03*
X0212236Y0234433D03*
X0201448Y0234433D03*
X0191448Y0234433D03*
X0181448Y0234433D03*
X0171448Y0234433D03*
X0153736Y0234433D03*
X0143736Y0234433D03*
X0133736Y0234433D03*
X0123736Y0234433D03*
X0113736Y0234433D03*
X0102948Y0234433D03*
X0092948Y0234433D03*
X0082948Y0234433D03*
X0072948Y0234433D03*
D11*
X0157342Y0090933D03*
X0157342Y0100933D03*
X0208342Y0100933D03*
X0208342Y0090933D03*
X0259342Y0090933D03*
X0259342Y0100933D03*
X0263342Y0122933D03*
X0285342Y0122933D03*
X0285342Y0132933D03*
X0263342Y0132933D03*
X0241342Y0132933D03*
X0219342Y0132933D03*
X0219342Y0122933D03*
X0241342Y0122933D03*
X0178342Y0128933D03*
X0178342Y0138933D03*
X0152342Y0138933D03*
X0152342Y0128933D03*
X0126342Y0128933D03*
X0126342Y0138933D03*
X0100342Y0138933D03*
X0100342Y0128933D03*
X0074342Y0128933D03*
X0074342Y0138933D03*
X0385342Y0085933D03*
X0435342Y0085933D03*
X0543342Y0133933D03*
X0553342Y0133933D03*
X0570342Y0133933D03*
X0580342Y0133933D03*
X0597342Y0133933D03*
X0607342Y0133933D03*
X0642342Y0133933D03*
X0652342Y0133933D03*
X0669342Y0133933D03*
X0679342Y0133933D03*
X0696342Y0133933D03*
X0706342Y0133933D03*
X0706342Y0153933D03*
X0696342Y0153933D03*
X0679342Y0152933D03*
X0669342Y0152933D03*
X0652342Y0152933D03*
X0642342Y0152933D03*
X0607342Y0152933D03*
X0597342Y0152933D03*
X0580342Y0152933D03*
X0570342Y0152933D03*
X0553342Y0152933D03*
X0543342Y0152933D03*
D12*
X0535092Y0306433D03*
X0525092Y0306433D03*
X0515092Y0306433D03*
X0505092Y0306433D03*
X0495092Y0306433D03*
X0485092Y0306433D03*
X0475092Y0306433D03*
X0465092Y0306433D03*
X0455092Y0306433D03*
X0445092Y0306433D03*
X0435092Y0306433D03*
X0425092Y0306433D03*
X0415092Y0306433D03*
X0405092Y0306433D03*
X0395092Y0306433D03*
X0385092Y0306433D03*
X0375092Y0306433D03*
X0365092Y0306433D03*
X0355092Y0306433D03*
X0345092Y0306433D03*
X0335092Y0306433D03*
X0325092Y0306433D03*
X0315092Y0306433D03*
X0305092Y0306433D03*
X0295092Y0306433D03*
X0285092Y0306433D03*
X0275092Y0306433D03*
X0265092Y0306433D03*
D13*
X0310542Y0112433D02*
X0310542Y0107233D01*
X0320542Y0107233D02*
X0320542Y0112433D01*
X0330542Y0112433D02*
X0330542Y0107233D01*
X0340542Y0107233D02*
X0340542Y0112433D01*
X0340542Y0082433D02*
X0340542Y0077233D01*
X0330542Y0077233D02*
X0330542Y0082433D01*
X0320542Y0082433D02*
X0320542Y0077233D01*
X0310542Y0077233D02*
X0310542Y0082433D01*
D14*
X0416342Y0099933D03*
X0426342Y0099933D03*
D15*
X0454342Y0097433D03*
X0454342Y0108433D03*
D16*
X0480067Y0126111D03*
X0468617Y0153755D03*
D17*
X0377342Y0120933D02*
X0377342Y0114933D01*
X0367342Y0114933D02*
X0367342Y0120933D01*
X0357342Y0120933D02*
X0357342Y0114933D01*
X0357342Y0097933D02*
X0357342Y0091933D01*
X0367342Y0091933D02*
X0367342Y0097933D01*
X0377342Y0097933D02*
X0377342Y0091933D01*
D18*
X0487842Y0288933D02*
X0482342Y0294433D01*
X0482342Y0314083D01*
X0507842Y0314083D01*
X0507842Y0294433D01*
X0502342Y0288933D01*
X0487842Y0288933D01*
X0487353Y0289422D02*
X0502831Y0289422D01*
X0504029Y0290620D02*
X0486154Y0290620D01*
X0484956Y0291819D02*
X0505228Y0291819D01*
X0506426Y0293017D02*
X0483757Y0293017D01*
X0482559Y0294216D02*
X0507625Y0294216D01*
X0507842Y0295414D02*
X0482342Y0295414D01*
X0482342Y0296613D02*
X0507842Y0296613D01*
X0507842Y0297812D02*
X0482342Y0297812D01*
X0482342Y0299010D02*
X0507842Y0299010D01*
X0507842Y0300209D02*
X0482342Y0300209D01*
X0482342Y0301407D02*
X0507842Y0301407D01*
X0507842Y0302606D02*
X0482342Y0302606D01*
X0482342Y0303804D02*
X0507842Y0303804D01*
X0507842Y0305003D02*
X0482342Y0305003D01*
X0482342Y0306201D02*
X0507842Y0306201D01*
X0507842Y0307400D02*
X0482342Y0307400D01*
X0482342Y0308598D02*
X0507842Y0308598D01*
X0507842Y0309797D02*
X0482342Y0309797D01*
X0482342Y0310995D02*
X0507842Y0310995D01*
X0507842Y0312194D02*
X0482342Y0312194D01*
X0482342Y0313392D02*
X0507842Y0313392D01*
X0512342Y0313392D02*
X0537842Y0313392D01*
X0537842Y0314083D02*
X0537842Y0294433D01*
X0533342Y0289933D01*
X0516842Y0289933D01*
X0512342Y0294433D01*
X0512342Y0314083D01*
X0537842Y0314083D01*
X0537842Y0312194D02*
X0512342Y0312194D01*
X0512342Y0310995D02*
X0537842Y0310995D01*
X0537842Y0309797D02*
X0512342Y0309797D01*
X0512342Y0308598D02*
X0537842Y0308598D01*
X0537842Y0307400D02*
X0512342Y0307400D01*
X0512342Y0306201D02*
X0537842Y0306201D01*
X0537842Y0305003D02*
X0512342Y0305003D01*
X0512342Y0303804D02*
X0537842Y0303804D01*
X0537842Y0302606D02*
X0512342Y0302606D01*
X0512342Y0301407D02*
X0537842Y0301407D01*
X0537842Y0300209D02*
X0512342Y0300209D01*
X0512342Y0299010D02*
X0537842Y0299010D01*
X0537842Y0297812D02*
X0512342Y0297812D01*
X0512342Y0296613D02*
X0537842Y0296613D01*
X0537842Y0295414D02*
X0512342Y0295414D01*
X0512559Y0294216D02*
X0537625Y0294216D01*
X0536426Y0293017D02*
X0513757Y0293017D01*
X0514956Y0291819D02*
X0535228Y0291819D01*
X0534029Y0290620D02*
X0516154Y0290620D01*
D19*
X0525342Y0290933D03*
X0494842Y0289933D03*
D20*
X0274342Y0171933D03*
X0265342Y0171933D03*
X0410342Y0113933D03*
X0523342Y0166933D03*
D21*
X0523342Y0128933D01*
X0491842Y0097433D01*
X0454342Y0097433D01*
X0442842Y0085933D01*
X0435342Y0085933D01*
X0430342Y0085933D01*
X0416342Y0099933D01*
X0410342Y0105933D01*
X0410342Y0113933D01*
D22*
X0396342Y0110933D02*
X0396342Y0096933D01*
X0385342Y0085933D01*
X0377342Y0094933D02*
X0377342Y0117933D01*
X0372342Y0123933D02*
X0394342Y0145933D01*
X0397342Y0154933D02*
X0367342Y0124933D01*
X0367342Y0117933D01*
X0357342Y0117933D02*
X0357342Y0094933D01*
X0367342Y0094933D02*
X0372342Y0099933D01*
X0372342Y0123933D01*
X0363342Y0126933D02*
X0348342Y0126933D01*
X0339967Y0118558D01*
X0339842Y0118433D01*
X0337342Y0115933D01*
X0325342Y0115933D01*
X0320542Y0111133D01*
X0320542Y0109833D01*
X0319442Y0118933D02*
X0310342Y0109833D01*
X0310542Y0109833D01*
X0319442Y0118933D02*
X0337342Y0118933D01*
X0347342Y0128933D01*
X0359342Y0128933D01*
X0391342Y0160933D01*
X0394342Y0157933D02*
X0363342Y0126933D01*
X0395342Y0110933D02*
X0396342Y0110933D01*
X0454342Y0097433D02*
X0480067Y0123158D01*
X0480067Y0126111D01*
X0553342Y0133933D02*
X0553342Y0152933D01*
X0553340Y0164025D01*
X0558348Y0169033D01*
X0552948Y0174433D01*
X0558348Y0169033D02*
X0575742Y0169033D01*
X0580342Y0164433D01*
X0580342Y0152933D01*
X0580342Y0133933D01*
X0607342Y0133933D02*
X0607342Y0152933D01*
X0607342Y0163833D01*
X0602142Y0169033D01*
X0575742Y0169033D01*
X0550842Y0179433D02*
X0608042Y0179433D01*
X0641842Y0179433D01*
X0634442Y0181933D02*
X0651842Y0181933D01*
X0666842Y0184433D02*
X0709342Y0184433D01*
X0721842Y0186933D02*
X0676742Y0186933D01*
X0623342Y0186933D01*
X0510842Y0186933D01*
X0490842Y0186933D01*
X0390842Y0186933D01*
X0253342Y0186933D01*
X0155842Y0186933D01*
X0145842Y0184433D02*
X0243342Y0184433D01*
X0380842Y0184433D01*
X0470842Y0184433D01*
X0513342Y0184433D01*
X0613342Y0184433D01*
X0666842Y0184433D01*
X0651448Y0174433D02*
X0656848Y0169033D01*
X0648842Y0169033D01*
X0652342Y0165533D01*
X0652342Y0152933D01*
X0652342Y0133933D01*
X0679342Y0133933D02*
X0679342Y0152933D01*
X0679342Y0164933D01*
X0675242Y0169033D01*
X0656848Y0169033D01*
X0648842Y0169033D02*
X0602142Y0169033D01*
X0634442Y0181933D02*
X0553342Y0181933D01*
X0515842Y0181933D01*
X0418342Y0181933D01*
X0320842Y0181933D01*
X0183342Y0181933D01*
X0175436Y0181933D01*
X0085842Y0181933D01*
X0068342Y0179433D02*
X0165842Y0179433D01*
X0163342Y0176933D01*
X0163342Y0106933D01*
X0157342Y0100933D01*
X0157342Y0090933D02*
X0208342Y0090933D01*
X0178342Y0120933D01*
X0178342Y0128933D01*
X0186342Y0138933D02*
X0224342Y0100933D01*
X0259342Y0100933D01*
X0259342Y0090933D02*
X0208342Y0090933D01*
X0186342Y0138933D02*
X0186342Y0170327D01*
X0191448Y0174433D01*
X0165842Y0179433D02*
X0315842Y0179433D01*
X0400842Y0179433D01*
X0518342Y0179433D01*
X0550842Y0179433D01*
X0583342Y0194433D02*
X0681842Y0194433D01*
X0691842Y0191933D02*
X0593342Y0191933D01*
X0505842Y0191933D01*
X0455842Y0191933D01*
X0358342Y0191933D01*
X0220842Y0191933D01*
X0123342Y0191933D01*
X0113342Y0194433D02*
X0210842Y0194433D01*
X0348342Y0194433D01*
X0445842Y0194433D01*
X0503342Y0194433D01*
X0583342Y0194433D01*
X0598342Y0199433D02*
X0701842Y0199433D01*
X0704342Y0196933D02*
X0603342Y0196933D01*
X0500842Y0196933D01*
X0463342Y0196933D01*
X0370842Y0196933D01*
X0233342Y0196933D01*
X0216342Y0196933D01*
X0135842Y0196933D01*
X0133342Y0199433D02*
X0230842Y0199433D01*
X0368342Y0199433D01*
X0468342Y0199433D01*
X0498342Y0199433D01*
X0598342Y0199433D01*
X0594542Y0209433D02*
X0639342Y0209433D01*
X0649342Y0214433D02*
X0555842Y0214433D01*
X0415842Y0214433D01*
X0318342Y0214433D01*
X0283342Y0214433D01*
X0180842Y0214433D01*
X0083342Y0214433D01*
X0093342Y0216933D02*
X0190842Y0216933D01*
X0285842Y0216933D01*
X0445842Y0216933D01*
X0563342Y0216933D01*
X0661842Y0216933D01*
X0671842Y0219433D02*
X0577742Y0219433D01*
X0573342Y0219433D01*
X0348342Y0219433D01*
X0288342Y0219433D01*
X0200842Y0219433D01*
X0159342Y0219433D01*
X0103342Y0219433D01*
X0103342Y0211933D02*
X0200842Y0211933D01*
X0280842Y0211933D01*
X0338342Y0211933D01*
X0435842Y0211933D01*
X0573342Y0211933D01*
X0671842Y0211933D01*
X0681842Y0221933D02*
X0568142Y0221933D01*
X0425842Y0221933D01*
X0325842Y0221933D01*
X0290842Y0221933D01*
X0128342Y0221933D01*
X0125842Y0229433D02*
X0078342Y0229433D01*
X0093342Y0224433D02*
X0190842Y0224433D01*
X0293342Y0224433D01*
X0338342Y0224433D01*
X0435842Y0224433D01*
X0548042Y0224433D01*
X0583342Y0224433D01*
X0563342Y0229433D02*
X0661842Y0229433D01*
X0620842Y0201933D02*
X0719342Y0201933D01*
X0711842Y0189433D02*
X0610842Y0189433D01*
X0508342Y0189433D01*
X0478342Y0189433D01*
X0378342Y0189433D01*
X0240842Y0189433D01*
X0143342Y0189433D01*
X0153342Y0201933D02*
X0250842Y0201933D01*
X0388342Y0201933D01*
X0485842Y0201933D01*
X0495842Y0201933D01*
X0620842Y0201933D01*
X0594542Y0209433D02*
X0543342Y0209433D01*
X0405842Y0209433D01*
X0308342Y0209433D01*
X0278342Y0209433D01*
X0173342Y0209433D01*
X0073342Y0209433D01*
X0125842Y0229433D02*
X0298342Y0229433D01*
X0325842Y0229433D01*
X0425842Y0229433D01*
X0536342Y0229433D01*
X0563342Y0229433D01*
X0675242Y0169033D02*
X0701642Y0169033D01*
X0706342Y0164333D01*
X0706342Y0153933D01*
X0706342Y0133933D01*
X0382398Y0159984D02*
X0381449Y0159933D01*
X0276342Y0159933D01*
X0265342Y0171933D01*
X0274342Y0171933D02*
X0282342Y0162933D01*
X0379342Y0162933D01*
X0295842Y0226933D02*
X0223342Y0226933D01*
D23*
X0223342Y0226933D03*
X0200842Y0219433D03*
X0200842Y0211933D03*
X0190842Y0216933D03*
X0180842Y0214433D03*
X0173342Y0209433D03*
X0159342Y0219433D03*
X0128342Y0221933D03*
X0125842Y0229433D03*
X0103342Y0219433D03*
X0093342Y0216933D03*
X0083342Y0214433D03*
X0073342Y0209433D03*
X0103342Y0211933D03*
X0093342Y0224433D03*
X0078342Y0229433D03*
X0133342Y0199433D03*
X0135842Y0196933D03*
X0143342Y0189433D03*
X0145842Y0184433D03*
X0155842Y0186933D03*
X0165842Y0179433D03*
X0175436Y0181933D03*
X0183342Y0181933D03*
X0210842Y0194433D03*
X0216342Y0196933D03*
X0220842Y0191933D03*
X0230842Y0199433D03*
X0233342Y0196933D03*
X0240842Y0189433D03*
X0243342Y0184433D03*
X0253342Y0186933D03*
X0250842Y0201933D03*
X0278342Y0209433D03*
X0280842Y0211933D03*
X0283342Y0214433D03*
X0285842Y0216933D03*
X0288342Y0219433D03*
X0290842Y0221933D03*
X0293342Y0224433D03*
X0295842Y0226933D03*
X0298342Y0229433D03*
X0318342Y0214433D03*
X0325842Y0221933D03*
X0338342Y0224433D03*
X0325842Y0229433D03*
X0348342Y0219433D03*
X0338342Y0211933D03*
X0308342Y0209433D03*
X0348342Y0194433D03*
X0358342Y0191933D03*
X0368342Y0199433D03*
X0370842Y0196933D03*
X0378342Y0189433D03*
X0390842Y0186933D03*
X0380842Y0184433D03*
X0400842Y0179433D03*
X0418342Y0181933D03*
X0445842Y0194433D03*
X0455842Y0191933D03*
X0463342Y0196933D03*
X0468342Y0199433D03*
X0485842Y0201933D03*
X0495842Y0201933D03*
X0498342Y0199433D03*
X0500842Y0196933D03*
X0503342Y0194433D03*
X0505842Y0191933D03*
X0508342Y0189433D03*
X0510842Y0186933D03*
X0513342Y0184433D03*
X0515842Y0181933D03*
X0518342Y0179433D03*
X0490842Y0186933D03*
X0478342Y0189433D03*
X0470842Y0184433D03*
X0435842Y0211933D03*
X0445842Y0216933D03*
X0435842Y0224433D03*
X0425842Y0221933D03*
X0425842Y0229433D03*
X0415842Y0214433D03*
X0405842Y0209433D03*
X0388342Y0201933D03*
X0320842Y0181933D03*
X0315842Y0179433D03*
X0379342Y0162933D03*
X0382398Y0159984D03*
X0391342Y0160933D03*
X0394342Y0157933D03*
X0397342Y0154933D03*
X0394342Y0145933D03*
X0396342Y0110933D03*
X0550842Y0179433D03*
X0553342Y0181933D03*
X0583342Y0194433D03*
X0593342Y0191933D03*
X0603342Y0196933D03*
X0598342Y0199433D03*
X0594542Y0209433D03*
X0577742Y0219433D03*
X0573342Y0219433D03*
X0568142Y0221933D03*
X0563342Y0216933D03*
X0555842Y0214433D03*
X0543342Y0209433D03*
X0573342Y0211933D03*
X0583342Y0224433D03*
X0563342Y0229433D03*
X0548042Y0224433D03*
X0536342Y0229433D03*
X0610842Y0189433D03*
X0613342Y0184433D03*
X0608042Y0179433D03*
X0623342Y0186933D03*
X0634442Y0181933D03*
X0641842Y0179433D03*
X0651842Y0181933D03*
X0666842Y0184433D03*
X0676742Y0186933D03*
X0691842Y0191933D03*
X0681842Y0194433D03*
X0701842Y0199433D03*
X0704342Y0196933D03*
X0711842Y0189433D03*
X0721842Y0186933D03*
X0709342Y0184433D03*
X0719342Y0201933D03*
X0681842Y0221933D03*
X0671842Y0219433D03*
X0661842Y0216933D03*
X0671842Y0211933D03*
X0649342Y0214433D03*
X0639342Y0209433D03*
X0620842Y0201933D03*
X0661842Y0229433D03*
X0190842Y0224433D03*
X0153342Y0201933D03*
X0123342Y0191933D03*
X0113342Y0194433D03*
X0085842Y0181933D03*
X0068342Y0179433D03*
M02*
