G75*
%MOIN*%
%OFA0B0*%
%FSLAX25Y25*%
%IPPOS*%
%LPD*%
%AMOC8*
5,1,8,0,0,1.08239X$1,22.5*
%
%ADD10C,0.06400*%
%ADD11OC8,0.06000*%
%ADD12R,0.07300X0.25800*%
%ADD13R,0.06706X0.02769*%
%ADD14C,0.06000*%
%ADD15C,0.07300*%
%ADD16C,0.00500*%
%ADD17R,0.03950X0.03950*%
%ADD18R,0.04737X0.05131*%
%ADD19C,0.06343*%
%ADD20C,0.06800*%
%ADD21C,0.03778*%
%ADD22C,0.05550*%
%ADD23C,0.03187*%
D10*
X0072948Y0174433D03*
X0082948Y0174433D03*
X0092948Y0174433D03*
X0102948Y0174433D03*
X0112948Y0174433D03*
X0122948Y0174433D03*
X0132948Y0174433D03*
X0142948Y0174433D03*
X0152948Y0174433D03*
X0171448Y0174433D03*
X0181448Y0174433D03*
X0191448Y0174433D03*
X0201448Y0174433D03*
X0211448Y0174433D03*
X0221448Y0174433D03*
X0231448Y0174433D03*
X0241448Y0174433D03*
X0251448Y0174433D03*
X0307948Y0174433D03*
X0317948Y0174433D03*
X0327948Y0174433D03*
X0337948Y0174433D03*
X0347948Y0174433D03*
X0357948Y0174433D03*
X0367948Y0174433D03*
X0377948Y0174433D03*
X0387948Y0174433D03*
X0406448Y0174433D03*
X0416448Y0174433D03*
X0426448Y0174433D03*
X0436448Y0174433D03*
X0446448Y0174433D03*
X0456448Y0174433D03*
X0466448Y0174433D03*
X0476448Y0174433D03*
X0486448Y0174433D03*
X0542948Y0174433D03*
X0552948Y0174433D03*
X0562948Y0174433D03*
X0572948Y0174433D03*
X0582948Y0174433D03*
X0592948Y0174433D03*
X0602948Y0174433D03*
X0612948Y0174433D03*
X0622948Y0174433D03*
X0641448Y0174433D03*
X0651448Y0174433D03*
X0661448Y0174433D03*
X0671448Y0174433D03*
X0681448Y0174433D03*
X0691448Y0174433D03*
X0701448Y0174433D03*
X0711448Y0174433D03*
X0721448Y0174433D03*
X0722236Y0234433D03*
X0712236Y0234433D03*
X0702236Y0234433D03*
X0692236Y0234433D03*
X0682236Y0234433D03*
X0671448Y0234433D03*
X0661448Y0234433D03*
X0651448Y0234433D03*
X0641448Y0234433D03*
X0623736Y0234433D03*
X0613736Y0234433D03*
X0603736Y0234433D03*
X0593736Y0234433D03*
X0583736Y0234433D03*
X0572948Y0234433D03*
X0562948Y0234433D03*
X0552948Y0234433D03*
X0542948Y0234433D03*
X0487236Y0234433D03*
X0477236Y0234433D03*
X0467236Y0234433D03*
X0457236Y0234433D03*
X0447236Y0234433D03*
X0436448Y0234433D03*
X0426448Y0234433D03*
X0416448Y0234433D03*
X0406448Y0234433D03*
X0388736Y0234433D03*
X0378736Y0234433D03*
X0368736Y0234433D03*
X0358736Y0234433D03*
X0348736Y0234433D03*
X0337948Y0234433D03*
X0327948Y0234433D03*
X0317948Y0234433D03*
X0307948Y0234433D03*
X0252236Y0234433D03*
X0242236Y0234433D03*
X0232236Y0234433D03*
X0222236Y0234433D03*
X0212236Y0234433D03*
X0201448Y0234433D03*
X0191448Y0234433D03*
X0181448Y0234433D03*
X0171448Y0234433D03*
X0153736Y0234433D03*
X0143736Y0234433D03*
X0133736Y0234433D03*
X0123736Y0234433D03*
X0113736Y0234433D03*
X0102948Y0234433D03*
X0092948Y0234433D03*
X0082948Y0234433D03*
X0072948Y0234433D03*
D11*
X0157342Y0090933D03*
X0157342Y0100933D03*
X0208342Y0100933D03*
X0208342Y0090933D03*
X0259342Y0090933D03*
X0259342Y0100933D03*
X0263342Y0122933D03*
X0285342Y0122933D03*
X0285342Y0132933D03*
X0263342Y0132933D03*
X0241342Y0132933D03*
X0219342Y0132933D03*
X0219342Y0122933D03*
X0241342Y0122933D03*
X0178342Y0128933D03*
X0178342Y0138933D03*
X0152342Y0138933D03*
X0152342Y0128933D03*
X0126342Y0128933D03*
X0126342Y0138933D03*
X0100342Y0138933D03*
X0100342Y0128933D03*
X0074342Y0128933D03*
X0074342Y0138933D03*
X0385342Y0085933D03*
X0435342Y0085933D03*
X0543342Y0133933D03*
X0553342Y0133933D03*
X0570342Y0133933D03*
X0580342Y0133933D03*
X0597342Y0133933D03*
X0607342Y0133933D03*
X0642342Y0133933D03*
X0652342Y0133933D03*
X0669342Y0133933D03*
X0679342Y0133933D03*
X0696342Y0133933D03*
X0706342Y0133933D03*
X0706342Y0153933D03*
X0696342Y0153933D03*
X0679342Y0152933D03*
X0669342Y0152933D03*
X0652342Y0152933D03*
X0642342Y0152933D03*
X0607342Y0152933D03*
X0597342Y0152933D03*
X0580342Y0152933D03*
X0570342Y0152933D03*
X0553342Y0152933D03*
X0543342Y0152933D03*
D12*
X0535092Y0306433D03*
X0525092Y0306433D03*
X0515092Y0306433D03*
X0505092Y0306433D03*
X0495092Y0306433D03*
X0485092Y0306433D03*
X0475092Y0306433D03*
X0465092Y0306433D03*
X0455092Y0306433D03*
X0445092Y0306433D03*
X0435092Y0306433D03*
X0425092Y0306433D03*
X0415092Y0306433D03*
X0405092Y0306433D03*
X0395092Y0306433D03*
X0385092Y0306433D03*
X0375092Y0306433D03*
X0365092Y0306433D03*
X0355092Y0306433D03*
X0345092Y0306433D03*
X0335092Y0306433D03*
X0325092Y0306433D03*
X0315092Y0306433D03*
X0305092Y0306433D03*
X0295092Y0306433D03*
X0285092Y0306433D03*
X0275092Y0306433D03*
X0265092Y0306433D03*
D13*
X0402441Y0161905D03*
X0402441Y0158755D03*
X0402441Y0155606D03*
X0402441Y0152456D03*
X0402441Y0149306D03*
X0402441Y0146157D03*
X0402441Y0143007D03*
X0402441Y0139857D03*
X0402441Y0136708D03*
X0402441Y0133558D03*
X0402441Y0130409D03*
X0402441Y0127259D03*
X0402441Y0124109D03*
X0402441Y0120960D03*
X0402441Y0117810D03*
X0402441Y0114661D03*
X0402441Y0111511D03*
X0402441Y0108361D03*
X0439843Y0108361D03*
X0439843Y0111511D03*
X0439843Y0114661D03*
X0439843Y0117810D03*
X0439843Y0120960D03*
X0439843Y0124109D03*
X0439843Y0127259D03*
X0439843Y0130409D03*
X0439843Y0133558D03*
X0439843Y0136708D03*
X0439843Y0139857D03*
X0439843Y0143007D03*
X0439843Y0146157D03*
X0439843Y0149306D03*
X0439843Y0152456D03*
X0439843Y0155606D03*
X0439843Y0158755D03*
X0439843Y0161905D03*
D14*
X0340542Y0112433D02*
X0340542Y0107233D01*
X0330542Y0107233D02*
X0330542Y0112433D01*
X0320542Y0112433D02*
X0320542Y0107233D01*
X0310542Y0107233D02*
X0310542Y0112433D01*
X0310542Y0082433D02*
X0310542Y0077233D01*
X0320542Y0077233D02*
X0320542Y0082433D01*
X0330542Y0082433D02*
X0330542Y0077233D01*
X0340542Y0077233D02*
X0340542Y0082433D01*
D15*
X0416342Y0099933D03*
X0426342Y0099933D03*
D16*
X0452611Y0097443D02*
X0452651Y0097059D01*
X0452776Y0096693D01*
X0452979Y0096364D01*
X0453249Y0096089D01*
X0453575Y0095880D01*
X0453938Y0095750D01*
X0454322Y0095703D01*
X0454716Y0095741D01*
X0455093Y0095865D01*
X0455432Y0096071D01*
X0455717Y0096346D01*
X0455933Y0096678D01*
X0456070Y0097050D01*
X0456121Y0097443D01*
X0456066Y0097841D01*
X0455924Y0098217D01*
X0455702Y0098552D01*
X0455410Y0098829D01*
X0455065Y0099035D01*
X0454682Y0099158D01*
X0454282Y0099193D01*
X0453902Y0099141D01*
X0453544Y0099006D01*
X0453224Y0098795D01*
X0452960Y0098518D01*
X0452763Y0098189D01*
X0452645Y0097824D01*
X0452611Y0097443D01*
X0452631Y0097259D02*
X0456097Y0097259D01*
X0456078Y0097757D02*
X0452639Y0097757D01*
X0452803Y0098256D02*
X0455898Y0098256D01*
X0455489Y0098754D02*
X0453185Y0098754D01*
X0452753Y0096760D02*
X0455963Y0096760D01*
X0455630Y0096262D02*
X0453079Y0096262D01*
X0453900Y0095763D02*
X0454784Y0095763D01*
X0454322Y0106723D02*
X0453938Y0106770D01*
X0453575Y0106900D01*
X0453249Y0107109D01*
X0452979Y0107384D01*
X0452776Y0107713D01*
X0452651Y0108079D01*
X0452611Y0108463D01*
X0452645Y0108845D01*
X0452763Y0109209D01*
X0452960Y0109538D01*
X0453224Y0109815D01*
X0453544Y0110026D01*
X0453902Y0110161D01*
X0454282Y0110213D01*
X0454682Y0110178D01*
X0455065Y0110055D01*
X0455410Y0109849D01*
X0455702Y0109572D01*
X0455924Y0109237D01*
X0456066Y0108861D01*
X0456121Y0108463D01*
X0456070Y0108070D01*
X0455933Y0107698D01*
X0455717Y0107366D01*
X0455432Y0107091D01*
X0455093Y0106885D01*
X0454716Y0106761D01*
X0454322Y0106723D01*
X0454261Y0106731D02*
X0454399Y0106731D01*
X0455575Y0107229D02*
X0453131Y0107229D01*
X0452771Y0107728D02*
X0455944Y0107728D01*
X0456091Y0108226D02*
X0452636Y0108226D01*
X0452635Y0108725D02*
X0456085Y0108725D01*
X0455929Y0109223D02*
X0452772Y0109223D01*
X0453135Y0109722D02*
X0455545Y0109722D01*
D17*
X0340342Y0132980D03*
X0340342Y0138886D03*
X0330342Y0138886D03*
X0330342Y0132980D03*
X0320342Y0132980D03*
X0320342Y0138886D03*
X0310342Y0138886D03*
X0310342Y0132980D03*
D18*
X0310342Y0126280D03*
X0320342Y0126280D03*
X0330342Y0126280D03*
X0330342Y0119587D03*
X0320342Y0119587D03*
X0310342Y0119587D03*
X0340342Y0119587D03*
X0340342Y0126280D03*
D19*
X0468617Y0153755D03*
X0480067Y0126111D03*
D20*
X0377342Y0120933D02*
X0377342Y0114933D01*
X0367342Y0114933D02*
X0367342Y0120933D01*
X0357342Y0120933D02*
X0357342Y0114933D01*
X0357342Y0097933D02*
X0357342Y0091933D01*
X0367342Y0091933D02*
X0367342Y0097933D01*
X0377342Y0097933D02*
X0377342Y0091933D01*
D21*
X0494842Y0289933D03*
X0525342Y0290933D03*
D22*
X0274342Y0171933D03*
X0265342Y0171933D03*
X0410342Y0113933D03*
X0523342Y0166933D03*
D23*
X0518342Y0179433D03*
X0515842Y0181933D03*
X0513342Y0184433D03*
X0510842Y0186933D03*
X0508342Y0189433D03*
X0505842Y0191933D03*
X0503342Y0194433D03*
X0500842Y0196933D03*
X0498342Y0199433D03*
X0495842Y0201933D03*
X0485842Y0201933D03*
X0468342Y0199433D03*
X0463342Y0196933D03*
X0455842Y0191933D03*
X0445842Y0194433D03*
X0470842Y0184433D03*
X0478342Y0189433D03*
X0490842Y0186933D03*
X0543342Y0209433D03*
X0555842Y0214433D03*
X0563342Y0216933D03*
X0573342Y0219433D03*
X0577742Y0219433D03*
X0583342Y0224433D03*
X0568142Y0221933D03*
X0563342Y0229433D03*
X0548042Y0224433D03*
X0536342Y0229433D03*
X0573342Y0211933D03*
X0594542Y0209433D03*
X0598342Y0199433D03*
X0603342Y0196933D03*
X0593342Y0191933D03*
X0583342Y0194433D03*
X0610842Y0189433D03*
X0613342Y0184433D03*
X0608042Y0179433D03*
X0623342Y0186933D03*
X0634442Y0181933D03*
X0641842Y0179433D03*
X0651842Y0181933D03*
X0666842Y0184433D03*
X0676742Y0186933D03*
X0691842Y0191933D03*
X0681842Y0194433D03*
X0701842Y0199433D03*
X0704342Y0196933D03*
X0711842Y0189433D03*
X0721842Y0186933D03*
X0709342Y0184433D03*
X0719342Y0201933D03*
X0681842Y0221933D03*
X0671842Y0219433D03*
X0661842Y0216933D03*
X0671842Y0211933D03*
X0649342Y0214433D03*
X0639342Y0209433D03*
X0620842Y0201933D03*
X0661842Y0229433D03*
X0553342Y0181933D03*
X0550842Y0179433D03*
X0445842Y0216933D03*
X0435842Y0211933D03*
X0425842Y0221933D03*
X0425842Y0229433D03*
X0435842Y0224433D03*
X0415842Y0214433D03*
X0405842Y0209433D03*
X0388342Y0201933D03*
X0370842Y0196933D03*
X0368342Y0199433D03*
X0358342Y0191933D03*
X0348342Y0194433D03*
X0320842Y0181933D03*
X0315842Y0179433D03*
X0253342Y0186933D03*
X0243342Y0184433D03*
X0240842Y0189433D03*
X0233342Y0196933D03*
X0230842Y0199433D03*
X0220842Y0191933D03*
X0216342Y0196933D03*
X0210842Y0194433D03*
X0183342Y0181933D03*
X0175436Y0181933D03*
X0165842Y0179433D03*
X0155842Y0186933D03*
X0145842Y0184433D03*
X0143342Y0189433D03*
X0135842Y0196933D03*
X0133342Y0199433D03*
X0123342Y0191933D03*
X0113342Y0194433D03*
X0085842Y0181933D03*
X0068342Y0179433D03*
X0073342Y0209433D03*
X0083342Y0214433D03*
X0093342Y0216933D03*
X0103342Y0219433D03*
X0103342Y0211933D03*
X0093342Y0224433D03*
X0078342Y0229433D03*
X0125842Y0229433D03*
X0128342Y0221933D03*
X0159342Y0219433D03*
X0173342Y0209433D03*
X0180842Y0214433D03*
X0190842Y0216933D03*
X0200842Y0219433D03*
X0200842Y0211933D03*
X0190842Y0224433D03*
X0223342Y0226933D03*
X0278342Y0209433D03*
X0280842Y0211933D03*
X0283342Y0214433D03*
X0285842Y0216933D03*
X0288342Y0219433D03*
X0290842Y0221933D03*
X0293342Y0224433D03*
X0295842Y0226933D03*
X0298342Y0229433D03*
X0318342Y0214433D03*
X0325842Y0221933D03*
X0338342Y0224433D03*
X0325842Y0229433D03*
X0348342Y0219433D03*
X0338342Y0211933D03*
X0308342Y0209433D03*
X0250842Y0201933D03*
X0153342Y0201933D03*
X0378342Y0189433D03*
X0390842Y0186933D03*
X0380842Y0184433D03*
X0400842Y0179433D03*
X0418342Y0181933D03*
X0379342Y0162933D03*
X0382398Y0159984D03*
X0391342Y0160933D03*
X0394342Y0157933D03*
X0397342Y0154933D03*
X0394342Y0145933D03*
X0396342Y0110933D03*
M02*
