G75*
%MOIN*%
%OFA0B0*%
%FSLAX25Y25*%
%IPPOS*%
%LPD*%
%AMOC8*
5,1,8,0,0,1.08239X$1,22.5*
%
%ADD10C,0.06400*%
%ADD11OC8,0.06000*%
%ADD12R,0.07300X0.25800*%
%ADD13C,0.06000*%
%ADD14C,0.07300*%
%ADD15C,0.00500*%
%ADD16C,0.06343*%
%ADD17C,0.06800*%
%ADD18C,0.03778*%
%ADD19C,0.05550*%
%ADD20C,0.03187*%
%ADD21C,0.06706*%
D10*
X0016906Y0106800D03*
X0026906Y0106800D03*
X0036906Y0106800D03*
X0046906Y0106800D03*
X0056906Y0106800D03*
X0066906Y0106800D03*
X0076906Y0106800D03*
X0086906Y0106800D03*
X0096906Y0106800D03*
X0115406Y0106800D03*
X0125406Y0106800D03*
X0135406Y0106800D03*
X0145406Y0106800D03*
X0155406Y0106800D03*
X0165406Y0106800D03*
X0175406Y0106800D03*
X0185406Y0106800D03*
X0195406Y0106800D03*
X0251906Y0106800D03*
X0261906Y0106800D03*
X0271906Y0106800D03*
X0281906Y0106800D03*
X0291906Y0106800D03*
X0301906Y0106800D03*
X0311906Y0106800D03*
X0321906Y0106800D03*
X0331906Y0106800D03*
X0350406Y0106800D03*
X0360406Y0106800D03*
X0370406Y0106800D03*
X0380406Y0106800D03*
X0390406Y0106800D03*
X0400406Y0106800D03*
X0410406Y0106800D03*
X0420406Y0106800D03*
X0430406Y0106800D03*
X0486906Y0106800D03*
X0496906Y0106800D03*
X0506906Y0106800D03*
X0516906Y0106800D03*
X0526906Y0106800D03*
X0536906Y0106800D03*
X0546906Y0106800D03*
X0556906Y0106800D03*
X0566906Y0106800D03*
X0585406Y0106800D03*
X0595406Y0106800D03*
X0605406Y0106800D03*
X0615406Y0106800D03*
X0625406Y0106800D03*
X0635406Y0106800D03*
X0645406Y0106800D03*
X0655406Y0106800D03*
X0665406Y0106800D03*
X0666194Y0166800D03*
X0656194Y0166800D03*
X0646194Y0166800D03*
X0636194Y0166800D03*
X0626194Y0166800D03*
X0615406Y0166800D03*
X0605406Y0166800D03*
X0595406Y0166800D03*
X0585406Y0166800D03*
X0567694Y0166800D03*
X0557694Y0166800D03*
X0547694Y0166800D03*
X0537694Y0166800D03*
X0527694Y0166800D03*
X0516906Y0166800D03*
X0506906Y0166800D03*
X0496906Y0166800D03*
X0486906Y0166800D03*
X0431194Y0166800D03*
X0421194Y0166800D03*
X0411194Y0166800D03*
X0401194Y0166800D03*
X0391194Y0166800D03*
X0380406Y0166800D03*
X0370406Y0166800D03*
X0360406Y0166800D03*
X0350406Y0166800D03*
X0332694Y0166800D03*
X0322694Y0166800D03*
X0312694Y0166800D03*
X0302694Y0166800D03*
X0292694Y0166800D03*
X0281906Y0166800D03*
X0271906Y0166800D03*
X0261906Y0166800D03*
X0251906Y0166800D03*
X0196194Y0166800D03*
X0186194Y0166800D03*
X0176194Y0166800D03*
X0166194Y0166800D03*
X0156194Y0166800D03*
X0145406Y0166800D03*
X0135406Y0166800D03*
X0125406Y0166800D03*
X0115406Y0166800D03*
X0097694Y0166800D03*
X0087694Y0166800D03*
X0077694Y0166800D03*
X0067694Y0166800D03*
X0057694Y0166800D03*
X0046906Y0166800D03*
X0036906Y0166800D03*
X0026906Y0166800D03*
X0016906Y0166800D03*
D11*
X0101300Y0023300D03*
X0101300Y0033300D03*
X0152300Y0033300D03*
X0152300Y0023300D03*
X0203300Y0023300D03*
X0203300Y0033300D03*
X0207300Y0055300D03*
X0185300Y0055300D03*
X0185300Y0065300D03*
X0207300Y0065300D03*
X0229300Y0065300D03*
X0229300Y0055300D03*
X0163300Y0055300D03*
X0163300Y0065300D03*
X0122300Y0061300D03*
X0096300Y0061300D03*
X0096300Y0071300D03*
X0122300Y0071300D03*
X0070300Y0071300D03*
X0070300Y0061300D03*
X0044300Y0061300D03*
X0044300Y0071300D03*
X0018300Y0071300D03*
X0018300Y0061300D03*
X0329300Y0018300D03*
X0379300Y0018300D03*
X0487300Y0066300D03*
X0497300Y0066300D03*
X0514300Y0066300D03*
X0524300Y0066300D03*
X0541300Y0066300D03*
X0551300Y0066300D03*
X0586300Y0066300D03*
X0596300Y0066300D03*
X0613300Y0066300D03*
X0623300Y0066300D03*
X0640300Y0066300D03*
X0650300Y0066300D03*
X0650300Y0086300D03*
X0640300Y0086300D03*
X0623300Y0085300D03*
X0613300Y0085300D03*
X0596300Y0085300D03*
X0586300Y0085300D03*
X0551300Y0085300D03*
X0541300Y0085300D03*
X0524300Y0085300D03*
X0514300Y0085300D03*
X0497300Y0085300D03*
X0487300Y0085300D03*
D12*
X0479050Y0238800D03*
X0469050Y0238800D03*
X0459050Y0238800D03*
X0449050Y0238800D03*
X0439050Y0238800D03*
X0429050Y0238800D03*
X0419050Y0238800D03*
X0409050Y0238800D03*
X0399050Y0238800D03*
X0389050Y0238800D03*
X0379050Y0238800D03*
X0369050Y0238800D03*
X0359050Y0238800D03*
X0349050Y0238800D03*
X0339050Y0238800D03*
X0329050Y0238800D03*
X0319050Y0238800D03*
X0309050Y0238800D03*
X0299050Y0238800D03*
X0289050Y0238800D03*
X0279050Y0238800D03*
X0269050Y0238800D03*
X0259050Y0238800D03*
X0249050Y0238800D03*
X0239050Y0238800D03*
X0229050Y0238800D03*
X0219050Y0238800D03*
X0209050Y0238800D03*
D13*
X0254500Y0044800D02*
X0254500Y0039600D01*
X0264500Y0039600D02*
X0264500Y0044800D01*
X0274500Y0044800D02*
X0274500Y0039600D01*
X0284500Y0039600D02*
X0284500Y0044800D01*
X0284500Y0014800D02*
X0284500Y0009600D01*
X0274500Y0009600D02*
X0274500Y0014800D01*
X0264500Y0014800D02*
X0264500Y0009600D01*
X0254500Y0009600D02*
X0254500Y0014800D01*
D14*
X0360300Y0032300D03*
X0370300Y0032300D03*
D15*
X0394597Y0030124D02*
X0402039Y0030124D01*
X0402070Y0029810D02*
X0402003Y0029152D01*
X0401822Y0028515D01*
X0401534Y0027920D01*
X0401147Y0027383D01*
X0400672Y0026922D01*
X0400125Y0026551D01*
X0399521Y0026280D01*
X0398880Y0026118D01*
X0398220Y0026070D01*
X0397500Y0026148D01*
X0396810Y0026366D01*
X0396176Y0026714D01*
X0395622Y0027179D01*
X0395169Y0027743D01*
X0394835Y0028385D01*
X0394633Y0029079D01*
X0394570Y0029800D01*
X0394631Y0030525D01*
X0394833Y0031223D01*
X0395167Y0031869D01*
X0395621Y0032438D01*
X0396177Y0032907D01*
X0396814Y0033258D01*
X0397507Y0033478D01*
X0398230Y0033559D01*
X0398890Y0033510D01*
X0399531Y0033346D01*
X0400134Y0033074D01*
X0400680Y0032701D01*
X0401153Y0032239D01*
X0401539Y0031701D01*
X0401826Y0031105D01*
X0402005Y0030468D01*
X0402070Y0029810D01*
X0402051Y0029626D02*
X0394585Y0029626D01*
X0394628Y0029127D02*
X0401996Y0029127D01*
X0401855Y0028629D02*
X0394764Y0028629D01*
X0394967Y0028130D02*
X0401636Y0028130D01*
X0401326Y0027632D02*
X0395258Y0027632D01*
X0395676Y0027133D02*
X0400889Y0027133D01*
X0400249Y0026635D02*
X0396320Y0026635D01*
X0397611Y0026136D02*
X0398953Y0026136D01*
X0401961Y0030623D02*
X0394660Y0030623D01*
X0394804Y0031121D02*
X0401818Y0031121D01*
X0401578Y0031620D02*
X0395038Y0031620D01*
X0395366Y0032118D02*
X0401240Y0032118D01*
X0400766Y0032617D02*
X0395834Y0032617D01*
X0396555Y0033115D02*
X0400041Y0033115D01*
X0398880Y0037138D02*
X0398220Y0037090D01*
X0397500Y0037168D01*
X0396810Y0037386D01*
X0396176Y0037734D01*
X0395622Y0038199D01*
X0395169Y0038763D01*
X0394835Y0039405D01*
X0394633Y0040099D01*
X0394570Y0040820D01*
X0394631Y0041545D01*
X0394833Y0042244D01*
X0395167Y0042890D01*
X0395621Y0043458D01*
X0396177Y0043927D01*
X0396814Y0044278D01*
X0397507Y0044499D01*
X0398230Y0044580D01*
X0398890Y0044530D01*
X0399531Y0044366D01*
X0400134Y0044094D01*
X0400680Y0043721D01*
X0401153Y0043259D01*
X0401539Y0042721D01*
X0401826Y0042125D01*
X0402005Y0041488D01*
X0402070Y0040830D01*
X0402003Y0040172D01*
X0401822Y0039535D01*
X0401534Y0038940D01*
X0401147Y0038403D01*
X0400672Y0037942D01*
X0400125Y0037571D01*
X0399521Y0037300D01*
X0398880Y0037138D01*
X0398408Y0037103D02*
X0398094Y0037103D01*
X0396416Y0037602D02*
X0400171Y0037602D01*
X0400835Y0038101D02*
X0395739Y0038101D01*
X0395301Y0038599D02*
X0401288Y0038599D01*
X0401610Y0039098D02*
X0394995Y0039098D01*
X0394779Y0039596D02*
X0401840Y0039596D01*
X0401981Y0040095D02*
X0394634Y0040095D01*
X0394590Y0040593D02*
X0402046Y0040593D01*
X0402044Y0041092D02*
X0394593Y0041092D01*
X0394644Y0041590D02*
X0401976Y0041590D01*
X0401836Y0042089D02*
X0394788Y0042089D01*
X0395011Y0042587D02*
X0401604Y0042587D01*
X0401278Y0043086D02*
X0395324Y0043086D01*
X0395771Y0043584D02*
X0400820Y0043584D01*
X0400150Y0044083D02*
X0396460Y0044083D01*
X0415631Y0041545D02*
X0415570Y0040820D01*
X0415633Y0040099D01*
X0415835Y0039405D01*
X0416169Y0038763D01*
X0416622Y0038199D01*
X0417176Y0037734D01*
X0417810Y0037386D01*
X0418500Y0037168D01*
X0419220Y0037090D01*
X0419880Y0037138D01*
X0420521Y0037300D01*
X0421125Y0037571D01*
X0421672Y0037942D01*
X0422147Y0038403D01*
X0422534Y0038940D01*
X0422822Y0039535D01*
X0423003Y0040172D01*
X0423070Y0040830D01*
X0423005Y0041488D01*
X0422826Y0042125D01*
X0422539Y0042721D01*
X0422153Y0043259D01*
X0421680Y0043721D01*
X0421134Y0044094D01*
X0420531Y0044366D01*
X0419890Y0044530D01*
X0419230Y0044580D01*
X0418507Y0044499D01*
X0417814Y0044278D01*
X0417177Y0043927D01*
X0416621Y0043458D01*
X0416167Y0042890D01*
X0415833Y0042244D01*
X0415631Y0041545D01*
X0415644Y0041590D02*
X0422976Y0041590D01*
X0423044Y0041092D02*
X0415593Y0041092D01*
X0415590Y0040593D02*
X0423046Y0040593D01*
X0422981Y0040095D02*
X0415634Y0040095D01*
X0415779Y0039596D02*
X0422840Y0039596D01*
X0422610Y0039098D02*
X0415995Y0039098D01*
X0416301Y0038599D02*
X0422288Y0038599D01*
X0421835Y0038101D02*
X0416739Y0038101D01*
X0417416Y0037602D02*
X0421171Y0037602D01*
X0419408Y0037103D02*
X0419094Y0037103D01*
X0419230Y0033559D02*
X0419890Y0033510D01*
X0420531Y0033346D01*
X0421134Y0033074D01*
X0421680Y0032701D01*
X0422153Y0032239D01*
X0422539Y0031701D01*
X0422826Y0031105D01*
X0423005Y0030468D01*
X0423070Y0029810D01*
X0423003Y0029152D01*
X0422822Y0028515D01*
X0422534Y0027920D01*
X0422147Y0027383D01*
X0421672Y0026922D01*
X0421125Y0026551D01*
X0420521Y0026280D01*
X0419880Y0026118D01*
X0419220Y0026070D01*
X0418500Y0026148D01*
X0417810Y0026366D01*
X0417176Y0026714D01*
X0416622Y0027179D01*
X0416169Y0027743D01*
X0415835Y0028385D01*
X0415633Y0029079D01*
X0415570Y0029800D01*
X0415631Y0030525D01*
X0415833Y0031223D01*
X0416167Y0031869D01*
X0416621Y0032438D01*
X0417177Y0032907D01*
X0417814Y0033258D01*
X0418507Y0033478D01*
X0419230Y0033559D01*
X0417555Y0033115D02*
X0421041Y0033115D01*
X0421766Y0032617D02*
X0416834Y0032617D01*
X0416366Y0032118D02*
X0422240Y0032118D01*
X0422578Y0031620D02*
X0416038Y0031620D01*
X0415804Y0031121D02*
X0422818Y0031121D01*
X0422961Y0030623D02*
X0415660Y0030623D01*
X0415597Y0030124D02*
X0423039Y0030124D01*
X0423051Y0029626D02*
X0415585Y0029626D01*
X0415628Y0029127D02*
X0422996Y0029127D01*
X0422855Y0028629D02*
X0415764Y0028629D01*
X0415967Y0028130D02*
X0422636Y0028130D01*
X0422326Y0027632D02*
X0416258Y0027632D01*
X0416676Y0027133D02*
X0421889Y0027133D01*
X0421249Y0026635D02*
X0417320Y0026635D01*
X0418611Y0026136D02*
X0419953Y0026136D01*
X0422836Y0042089D02*
X0415788Y0042089D01*
X0416011Y0042587D02*
X0422604Y0042587D01*
X0422278Y0043086D02*
X0416324Y0043086D01*
X0416771Y0043584D02*
X0421820Y0043584D01*
X0421150Y0044083D02*
X0417460Y0044083D01*
D16*
X0424025Y0058478D03*
X0412575Y0086122D03*
D17*
X0321300Y0053300D02*
X0321300Y0047300D01*
X0311300Y0047300D02*
X0311300Y0053300D01*
X0301300Y0053300D02*
X0301300Y0047300D01*
X0301300Y0030300D02*
X0301300Y0024300D01*
X0311300Y0024300D02*
X0311300Y0030300D01*
X0321300Y0030300D02*
X0321300Y0024300D01*
D18*
X0438800Y0222300D03*
X0469300Y0223300D03*
D19*
X0467300Y0099300D03*
X0354300Y0046300D03*
D20*
X0340300Y0043300D03*
X0338300Y0078300D03*
X0341300Y0087300D03*
X0338300Y0090300D03*
X0335300Y0093300D03*
X0326356Y0092351D03*
X0323300Y0095300D03*
X0344800Y0111800D03*
X0334800Y0119300D03*
X0324800Y0116800D03*
X0322300Y0121800D03*
X0314800Y0129300D03*
X0312300Y0131800D03*
X0302300Y0124300D03*
X0292300Y0126800D03*
X0264800Y0114300D03*
X0259800Y0111800D03*
X0197300Y0119300D03*
X0187300Y0116800D03*
X0184800Y0121800D03*
X0177300Y0129300D03*
X0174800Y0131800D03*
X0160300Y0129300D03*
X0154800Y0126800D03*
X0164800Y0124300D03*
X0194800Y0134300D03*
X0222300Y0141800D03*
X0224800Y0144300D03*
X0227300Y0146800D03*
X0229800Y0149300D03*
X0232300Y0151800D03*
X0234800Y0154300D03*
X0237300Y0156800D03*
X0239800Y0159300D03*
X0242300Y0161800D03*
X0269800Y0161800D03*
X0282300Y0156800D03*
X0292300Y0151800D03*
X0282300Y0144300D03*
X0262300Y0146800D03*
X0252300Y0141800D03*
X0269800Y0154300D03*
X0332300Y0134300D03*
X0349800Y0141800D03*
X0359800Y0146800D03*
X0369800Y0154300D03*
X0379800Y0156800D03*
X0369800Y0161800D03*
X0389800Y0149300D03*
X0379800Y0144300D03*
X0412300Y0131800D03*
X0407300Y0129300D03*
X0399800Y0124300D03*
X0389800Y0126800D03*
X0414800Y0116800D03*
X0422300Y0121800D03*
X0434800Y0119300D03*
X0449800Y0124300D03*
X0447300Y0126800D03*
X0444800Y0129300D03*
X0442300Y0131800D03*
X0439800Y0134300D03*
X0429800Y0134300D03*
X0452300Y0121800D03*
X0454800Y0119300D03*
X0457300Y0116800D03*
X0459800Y0114300D03*
X0462300Y0111800D03*
X0494800Y0111800D03*
X0497300Y0114300D03*
X0527300Y0126800D03*
X0537300Y0124300D03*
X0547300Y0129300D03*
X0542300Y0131800D03*
X0564800Y0134300D03*
X0583300Y0141800D03*
X0593300Y0146800D03*
X0605800Y0149300D03*
X0615800Y0151800D03*
X0625800Y0154300D03*
X0605800Y0161800D03*
X0615800Y0144300D03*
X0645800Y0131800D03*
X0648300Y0129300D03*
X0635800Y0124300D03*
X0625800Y0126800D03*
X0620700Y0119300D03*
X0610800Y0116800D03*
X0595800Y0114300D03*
X0585800Y0111800D03*
X0578400Y0114300D03*
X0567300Y0119300D03*
X0557300Y0116800D03*
X0554800Y0121800D03*
X0552000Y0111800D03*
X0538500Y0141800D03*
X0517300Y0144300D03*
X0507300Y0149300D03*
X0499800Y0146800D03*
X0487300Y0141800D03*
X0517300Y0151800D03*
X0521700Y0151800D03*
X0512100Y0154300D03*
X0527300Y0156800D03*
X0507300Y0161800D03*
X0492000Y0156800D03*
X0480300Y0161800D03*
X0362300Y0114300D03*
X0167300Y0159300D03*
X0144800Y0151800D03*
X0134800Y0149300D03*
X0124800Y0146800D03*
X0117300Y0141800D03*
X0097300Y0134300D03*
X0079800Y0129300D03*
X0077300Y0131800D03*
X0067300Y0124300D03*
X0057300Y0126800D03*
X0087300Y0121800D03*
X0089800Y0116800D03*
X0099800Y0119300D03*
X0109800Y0111800D03*
X0119394Y0114300D03*
X0127300Y0114300D03*
X0144800Y0144300D03*
X0134800Y0156800D03*
X0103300Y0151800D03*
X0072300Y0154300D03*
X0069800Y0161800D03*
X0047300Y0151800D03*
X0037300Y0149300D03*
X0027300Y0146800D03*
X0017300Y0141800D03*
X0047300Y0144300D03*
X0037300Y0156800D03*
X0022300Y0161800D03*
X0029800Y0114300D03*
X0012300Y0111800D03*
X0653300Y0116800D03*
X0655800Y0121800D03*
X0665800Y0119300D03*
X0663300Y0134300D03*
D21*
X0218300Y0107300D03*
X0210300Y0102300D03*
M02*
