%
M48
M72
T01C0.00787
T02C0.01378
T03C0.02756
T04C0.03150
T05C0.03200
T06C0.03543
T07C0.03937
T08C0.04000
%
T01
X12300Y111800
X29800Y114300
X57300Y126800
X67300Y124300
X79800Y129300
X77300Y131800
X97300Y134300
X117300Y141800
X124800Y146800
X134800Y149300
X144800Y151800
X134800Y156800
X103300Y151800
X72300Y154300
X69800Y161800
X47300Y151800
X37300Y149300
X27300Y146800
X17300Y141800
X47300Y144300
X37300Y156800
X22300Y161800
X87300Y121800
X89800Y116800
X99800Y119300
X109800Y111800
X119394Y114300
X127300Y114300
X154800Y126800
X160300Y129300
X164800Y124300
X177300Y129300
X174800Y131800
X194800Y134300
X222300Y141800
X224800Y144300
X227300Y146800
X229800Y149300
X232300Y151800
X234800Y154300
X237300Y156800
X239800Y159300
X242300Y161800
X269800Y161800
X282300Y156800
X292300Y151800
X282300Y144300
X262300Y146800
X252300Y141800
X269800Y154300
X312300Y131800
X314800Y129300
X302300Y124300
X292300Y126800
X264800Y114300
X259800Y111800
X322300Y121800
X324800Y116800
X334800Y119300
X344800Y111800
X362300Y114300
X389800Y126800
X399800Y124300
X407300Y129300
X412300Y131800
X429800Y134300
X439800Y134300
X442300Y131800
X444800Y129300
X447300Y126800
X449800Y124300
X452300Y121800
X454800Y119300
X457300Y116800
X459800Y114300
X462300Y111800
X434800Y119300
X422300Y121800
X414800Y116800
X349800Y141800
X359800Y146800
X369800Y154300
X379800Y156800
X369800Y161800
X389800Y149300
X379800Y144300
X332300Y134300
X323300Y95300
X326356Y92351
X335300Y93300
X338300Y90300
X341300Y87300
X338300Y78300
X340300Y43300
X494800Y111800
X497300Y114300
X527300Y126800
X537300Y124300
X547300Y129300
X542300Y131800
X564800Y134300
X583300Y141800
X593300Y146800
X605800Y149300
X615800Y151800
X625800Y154300
X605800Y161800
X615800Y144300
X645800Y131800
X648300Y129300
X635800Y124300
X625800Y126800
X620700Y119300
X610800Y116800
X595800Y114300
X585800Y111800
X578400Y114300
X567300Y119300
X557300Y116800
X554800Y121800
X552000Y111800
X538500Y141800
X517300Y144300
X507300Y149300
X499800Y146800
X487300Y141800
X517300Y151800
X521700Y151800
X512100Y154300
X527300Y156800
X507300Y161800
X492000Y156800
X480300Y161800
X653300Y116800
X655800Y121800
X665800Y119300
X663300Y134300
X197300Y119300
X187300Y116800
X184800Y121800
X144800Y144300
X167300Y159300
T02
X438800Y222300
X469300Y223300
T03
X370300Y32300
X360300Y32300
T04
X354300Y46300
X467300Y99300
X486906Y106800
X496906Y106800
X506906Y106800
X516906Y106800
X526906Y106800
X536906Y106800
X546906Y106800
X556906Y106800
X566906Y106800
X585406Y106800
X595406Y106800
X605406Y106800
X615406Y106800
X625406Y106800
X635406Y106800
X645406Y106800
X655406Y106800
X665406Y106800
X666194Y166800
X656194Y166800
X646194Y166800
X636194Y166800
X626194Y166800
X615406Y166800
X605406Y166800
X595406Y166800
X585406Y166800
X567694Y166800
X557694Y166800
X547694Y166800
X537694Y166800
X527694Y166800
X516906Y166800
X506906Y166800
X496906Y166800
X486906Y166800
X431194Y166800
X421194Y166800
X411194Y166800
X401194Y166800
X391194Y166800
X380406Y166800
X370406Y166800
X360406Y166800
X350406Y166800
X332694Y166800
X322694Y166800
X312694Y166800
X302694Y166800
X292694Y166800
X281906Y166800
X271906Y166800
X261906Y166800
X251906Y166800
X196194Y166800
X186194Y166800
X176194Y166800
X166194Y166800
X156194Y166800
X145406Y166800
X135406Y166800
X125406Y166800
X115406Y166800
X97694Y166800
X87694Y166800
X77694Y166800
X67694Y166800
X57694Y166800
X46906Y166800
X36906Y166800
X26906Y166800
X16906Y166800
X16906Y106800
X26906Y106800
X36906Y106800
X46906Y106800
X56906Y106800
X66906Y106800
X76906Y106800
X86906Y106800
X96906Y106800
X115406Y106800
X125406Y106800
X135406Y106800
X145406Y106800
X155406Y106800
X165406Y106800
X175406Y106800
X185406Y106800
X195406Y106800
X251906Y106800
X261906Y106800
X271906Y106800
X281906Y106800
X291906Y106800
X301906Y106800
X311906Y106800
X321906Y106800
X331906Y106800
X350406Y106800
X360406Y106800
X370406Y106800
X380406Y106800
X390406Y106800
X400406Y106800
X410406Y106800
X420406Y106800
X430406Y106800
T05
X101300Y23300
X101300Y33300
X152300Y33300
X152300Y23300
X203300Y23300
X203300Y33300
X254500Y42200
X264500Y42200
X274500Y42200
X284500Y42200
X229300Y55300
X207300Y55300
X185300Y55300
X185300Y65300
X207300Y65300
X229300Y65300
X163300Y65300
X163300Y55300
X122300Y61300
X96300Y61300
X96300Y71300
X122300Y71300
X70300Y71300
X70300Y61300
X44300Y61300
X44300Y71300
X18300Y71300
X18300Y61300
X254500Y12200
X264500Y12200
X274500Y12200
X284500Y12200
X329300Y18300
X379300Y18300
X487300Y66300
X497300Y66300
X514300Y66300
X524300Y66300
X541300Y66300
X551300Y66300
X586300Y66300
X596300Y66300
X613300Y66300
X623300Y66300
X640300Y66300
X650300Y66300
X650300Y86300
X640300Y86300
X623300Y85300
X613300Y85300
X596300Y85300
X586300Y85300
X551300Y85300
X541300Y85300
X524300Y85300
X514300Y85300
X497300Y85300
X487300Y85300
T06
X424025Y58478
X412575Y86122
T07
X218300Y107300
X210300Y102300
T08
X301300Y50300
X311300Y50300
X321300Y50300
X321300Y27300
X311300Y27300
X301300Y27300
X398300Y29800
X419300Y29800
X419300Y40800
X398300Y40800
M30
