G75*
%MOIN*%
%OFA0B0*%
%FSLAX25Y25*%
%IPPOS*%
%LPD*%
%AMOC8*
5,1,8,0,0,1.08239X$1,22.5*
%
%ADD10C,0.05600*%
%ADD11OC8,0.05200*%
%ADD12R,0.06500X0.25000*%
%ADD13C,0.05200*%
%ADD14C,0.06500*%
%ADD15C,0.08000*%
%ADD16C,0.05543*%
%ADD17C,0.06000*%
%ADD18C,0.01200*%
%ADD19C,0.02978*%
%ADD20C,0.04750*%
%ADD21C,0.02000*%
%ADD22C,0.00600*%
%ADD23C,0.02387*%
%ADD24C,0.05906*%
D10*
X0016906Y0106800D03*
X0026906Y0106800D03*
X0036906Y0106800D03*
X0046906Y0106800D03*
X0056906Y0106800D03*
X0066906Y0106800D03*
X0076906Y0106800D03*
X0086906Y0106800D03*
X0096906Y0106800D03*
X0115406Y0106800D03*
X0125406Y0106800D03*
X0135406Y0106800D03*
X0145406Y0106800D03*
X0155406Y0106800D03*
X0165406Y0106800D03*
X0175406Y0106800D03*
X0185406Y0106800D03*
X0195406Y0106800D03*
X0251906Y0106800D03*
X0261906Y0106800D03*
X0271906Y0106800D03*
X0281906Y0106800D03*
X0291906Y0106800D03*
X0301906Y0106800D03*
X0311906Y0106800D03*
X0321906Y0106800D03*
X0331906Y0106800D03*
X0350406Y0106800D03*
X0360406Y0106800D03*
X0370406Y0106800D03*
X0380406Y0106800D03*
X0390406Y0106800D03*
X0400406Y0106800D03*
X0410406Y0106800D03*
X0420406Y0106800D03*
X0430406Y0106800D03*
X0486906Y0106800D03*
X0496906Y0106800D03*
X0506906Y0106800D03*
X0516906Y0106800D03*
X0526906Y0106800D03*
X0536906Y0106800D03*
X0546906Y0106800D03*
X0556906Y0106800D03*
X0566906Y0106800D03*
X0585406Y0106800D03*
X0595406Y0106800D03*
X0605406Y0106800D03*
X0615406Y0106800D03*
X0625406Y0106800D03*
X0635406Y0106800D03*
X0645406Y0106800D03*
X0655406Y0106800D03*
X0665406Y0106800D03*
X0666194Y0166800D03*
X0656194Y0166800D03*
X0646194Y0166800D03*
X0636194Y0166800D03*
X0626194Y0166800D03*
X0615406Y0166800D03*
X0605406Y0166800D03*
X0595406Y0166800D03*
X0585406Y0166800D03*
X0567694Y0166800D03*
X0557694Y0166800D03*
X0547694Y0166800D03*
X0537694Y0166800D03*
X0527694Y0166800D03*
X0516906Y0166800D03*
X0506906Y0166800D03*
X0496906Y0166800D03*
X0486906Y0166800D03*
X0431194Y0166800D03*
X0421194Y0166800D03*
X0411194Y0166800D03*
X0401194Y0166800D03*
X0391194Y0166800D03*
X0380406Y0166800D03*
X0370406Y0166800D03*
X0360406Y0166800D03*
X0350406Y0166800D03*
X0332694Y0166800D03*
X0322694Y0166800D03*
X0312694Y0166800D03*
X0302694Y0166800D03*
X0292694Y0166800D03*
X0281906Y0166800D03*
X0271906Y0166800D03*
X0261906Y0166800D03*
X0251906Y0166800D03*
X0196194Y0166800D03*
X0186194Y0166800D03*
X0176194Y0166800D03*
X0166194Y0166800D03*
X0156194Y0166800D03*
X0145406Y0166800D03*
X0135406Y0166800D03*
X0125406Y0166800D03*
X0115406Y0166800D03*
X0097694Y0166800D03*
X0087694Y0166800D03*
X0077694Y0166800D03*
X0067694Y0166800D03*
X0057694Y0166800D03*
X0046906Y0166800D03*
X0036906Y0166800D03*
X0026906Y0166800D03*
X0016906Y0166800D03*
D11*
X0101300Y0023300D03*
X0101300Y0033300D03*
X0152300Y0033300D03*
X0152300Y0023300D03*
X0203300Y0023300D03*
X0203300Y0033300D03*
X0207300Y0055300D03*
X0185300Y0055300D03*
X0185300Y0065300D03*
X0207300Y0065300D03*
X0229300Y0065300D03*
X0229300Y0055300D03*
X0163300Y0055300D03*
X0163300Y0065300D03*
X0122300Y0061300D03*
X0096300Y0061300D03*
X0096300Y0071300D03*
X0122300Y0071300D03*
X0070300Y0071300D03*
X0070300Y0061300D03*
X0044300Y0061300D03*
X0044300Y0071300D03*
X0018300Y0071300D03*
X0018300Y0061300D03*
X0329300Y0018300D03*
X0379300Y0018300D03*
X0487300Y0066300D03*
X0497300Y0066300D03*
X0514300Y0066300D03*
X0524300Y0066300D03*
X0541300Y0066300D03*
X0551300Y0066300D03*
X0586300Y0066300D03*
X0596300Y0066300D03*
X0613300Y0066300D03*
X0623300Y0066300D03*
X0640300Y0066300D03*
X0650300Y0066300D03*
X0650300Y0086300D03*
X0640300Y0086300D03*
X0623300Y0085300D03*
X0613300Y0085300D03*
X0596300Y0085300D03*
X0586300Y0085300D03*
X0551300Y0085300D03*
X0541300Y0085300D03*
X0524300Y0085300D03*
X0514300Y0085300D03*
X0497300Y0085300D03*
X0487300Y0085300D03*
D12*
X0479050Y0238800D03*
X0469050Y0238800D03*
X0459050Y0238800D03*
X0449050Y0238800D03*
X0439050Y0238800D03*
X0429050Y0238800D03*
X0419050Y0238800D03*
X0409050Y0238800D03*
X0399050Y0238800D03*
X0389050Y0238800D03*
X0379050Y0238800D03*
X0369050Y0238800D03*
X0359050Y0238800D03*
X0349050Y0238800D03*
X0339050Y0238800D03*
X0329050Y0238800D03*
X0319050Y0238800D03*
X0309050Y0238800D03*
X0299050Y0238800D03*
X0289050Y0238800D03*
X0279050Y0238800D03*
X0269050Y0238800D03*
X0259050Y0238800D03*
X0249050Y0238800D03*
X0239050Y0238800D03*
X0229050Y0238800D03*
X0219050Y0238800D03*
X0209050Y0238800D03*
D13*
X0254500Y0044800D02*
X0254500Y0039600D01*
X0264500Y0039600D02*
X0264500Y0044800D01*
X0274500Y0044800D02*
X0274500Y0039600D01*
X0284500Y0039600D02*
X0284500Y0044800D01*
X0284500Y0014800D02*
X0284500Y0009600D01*
X0274500Y0009600D02*
X0274500Y0014800D01*
X0264500Y0014800D02*
X0264500Y0009600D01*
X0254500Y0009600D02*
X0254500Y0014800D01*
D14*
X0360300Y0032300D03*
X0370300Y0032300D03*
D15*
X0398300Y0029800D03*
X0419300Y0029800D03*
X0419300Y0040800D03*
X0398300Y0040800D03*
D16*
X0424025Y0058478D03*
X0412575Y0086122D03*
D17*
X0321300Y0053300D02*
X0321300Y0047300D01*
X0311300Y0047300D02*
X0311300Y0053300D01*
X0301300Y0053300D02*
X0301300Y0047300D01*
X0301300Y0030300D02*
X0301300Y0024300D01*
X0311300Y0024300D02*
X0311300Y0030300D01*
X0321300Y0030300D02*
X0321300Y0024300D01*
D18*
X0431800Y0221300D02*
X0426300Y0226800D01*
X0426300Y0246450D01*
X0451800Y0246450D01*
X0451800Y0226800D01*
X0446300Y0221300D01*
X0431800Y0221300D01*
X0431311Y0221789D02*
X0446789Y0221789D01*
X0447987Y0222987D02*
X0430113Y0222987D01*
X0428914Y0224186D02*
X0449186Y0224186D01*
X0450384Y0225384D02*
X0427716Y0225384D01*
X0426517Y0226583D02*
X0451583Y0226583D01*
X0451800Y0227781D02*
X0426300Y0227781D01*
X0426300Y0228980D02*
X0451800Y0228980D01*
X0451800Y0230178D02*
X0426300Y0230178D01*
X0426300Y0231377D02*
X0451800Y0231377D01*
X0451800Y0232575D02*
X0426300Y0232575D01*
X0426300Y0233774D02*
X0451800Y0233774D01*
X0451800Y0234972D02*
X0426300Y0234972D01*
X0426300Y0236171D02*
X0451800Y0236171D01*
X0451800Y0237370D02*
X0426300Y0237370D01*
X0426300Y0238568D02*
X0451800Y0238568D01*
X0451800Y0239767D02*
X0426300Y0239767D01*
X0426300Y0240965D02*
X0451800Y0240965D01*
X0451800Y0242164D02*
X0426300Y0242164D01*
X0426300Y0243362D02*
X0451800Y0243362D01*
X0451800Y0244561D02*
X0426300Y0244561D01*
X0426300Y0245759D02*
X0451800Y0245759D01*
X0456300Y0245759D02*
X0481800Y0245759D01*
X0481800Y0246450D02*
X0481800Y0226800D01*
X0477300Y0222300D01*
X0460800Y0222300D01*
X0456300Y0226800D01*
X0456300Y0246450D01*
X0481800Y0246450D01*
X0481800Y0244561D02*
X0456300Y0244561D01*
X0456300Y0243362D02*
X0481800Y0243362D01*
X0481800Y0242164D02*
X0456300Y0242164D01*
X0456300Y0240965D02*
X0481800Y0240965D01*
X0481800Y0239767D02*
X0456300Y0239767D01*
X0456300Y0238568D02*
X0481800Y0238568D01*
X0481800Y0237370D02*
X0456300Y0237370D01*
X0456300Y0236171D02*
X0481800Y0236171D01*
X0481800Y0234972D02*
X0456300Y0234972D01*
X0456300Y0233774D02*
X0481800Y0233774D01*
X0481800Y0232575D02*
X0456300Y0232575D01*
X0456300Y0231377D02*
X0481800Y0231377D01*
X0481800Y0230178D02*
X0456300Y0230178D01*
X0456300Y0228980D02*
X0481800Y0228980D01*
X0481800Y0227781D02*
X0456300Y0227781D01*
X0456517Y0226583D02*
X0481583Y0226583D01*
X0480384Y0225384D02*
X0457716Y0225384D01*
X0458914Y0224186D02*
X0479186Y0224186D01*
X0477987Y0222987D02*
X0460113Y0222987D01*
D19*
X0469300Y0223300D03*
X0438800Y0222300D03*
D20*
X0467300Y0099300D03*
X0354300Y0046300D03*
D21*
X0354300Y0038300D01*
X0360300Y0032300D01*
X0374300Y0018300D01*
X0379300Y0018300D01*
X0386800Y0018300D01*
X0398300Y0029800D01*
X0419300Y0029800D01*
X0435800Y0029800D01*
X0467300Y0061300D01*
X0467300Y0099300D01*
D22*
X0497298Y0096392D02*
X0497300Y0085300D01*
X0497300Y0066300D01*
X0524300Y0066300D02*
X0524300Y0085300D01*
X0524300Y0096800D01*
X0519700Y0101400D01*
X0502306Y0101400D01*
X0497298Y0096392D01*
X0502306Y0101400D02*
X0496906Y0106800D01*
X0494800Y0111800D02*
X0552000Y0111800D01*
X0585800Y0111800D01*
X0578400Y0114300D02*
X0595800Y0114300D01*
X0610800Y0116800D02*
X0653300Y0116800D01*
X0655800Y0121800D02*
X0554800Y0121800D01*
X0452300Y0121800D01*
X0422300Y0121800D01*
X0322300Y0121800D01*
X0184800Y0121800D01*
X0087300Y0121800D01*
X0089800Y0116800D02*
X0187300Y0116800D01*
X0324800Y0116800D01*
X0414800Y0116800D01*
X0457300Y0116800D01*
X0557300Y0116800D01*
X0610800Y0116800D01*
X0620700Y0119300D02*
X0665800Y0119300D01*
X0648300Y0129300D02*
X0547300Y0129300D01*
X0444800Y0129300D01*
X0407300Y0129300D01*
X0314800Y0129300D01*
X0177300Y0129300D01*
X0160300Y0129300D01*
X0079800Y0129300D01*
X0077300Y0131800D02*
X0174800Y0131800D01*
X0312300Y0131800D01*
X0412300Y0131800D01*
X0442300Y0131800D01*
X0542300Y0131800D01*
X0645800Y0131800D01*
X0635800Y0124300D02*
X0537300Y0124300D01*
X0449800Y0124300D01*
X0399800Y0124300D01*
X0302300Y0124300D01*
X0164800Y0124300D01*
X0067300Y0124300D01*
X0057300Y0126800D02*
X0154800Y0126800D01*
X0292300Y0126800D01*
X0389800Y0126800D01*
X0447300Y0126800D01*
X0527300Y0126800D01*
X0625800Y0126800D01*
X0620700Y0119300D02*
X0567300Y0119300D01*
X0454800Y0119300D01*
X0434800Y0119300D01*
X0334800Y0119300D01*
X0197300Y0119300D01*
X0099800Y0119300D01*
X0107300Y0109300D02*
X0109800Y0111800D01*
X0012300Y0111800D01*
X0029800Y0114300D02*
X0119394Y0114300D01*
X0127300Y0114300D01*
X0264800Y0114300D01*
X0362300Y0114300D01*
X0459800Y0114300D01*
X0497300Y0114300D01*
X0578400Y0114300D01*
X0595406Y0106800D02*
X0600806Y0101400D01*
X0592800Y0101400D01*
X0596300Y0097900D01*
X0596300Y0085300D01*
X0596300Y0066300D01*
X0623300Y0066300D02*
X0623300Y0085300D01*
X0623300Y0097300D01*
X0619200Y0101400D01*
X0600806Y0101400D01*
X0592800Y0101400D02*
X0546100Y0101400D01*
X0551300Y0096200D01*
X0551300Y0085300D01*
X0551300Y0066300D01*
X0546100Y0101400D02*
X0519700Y0101400D01*
X0494800Y0111800D02*
X0462300Y0111800D01*
X0344800Y0111800D01*
X0259800Y0111800D01*
X0109800Y0111800D01*
X0107300Y0109300D02*
X0107300Y0039300D01*
X0101300Y0033300D01*
X0101300Y0023300D02*
X0152300Y0023300D01*
X0122300Y0053300D01*
X0122300Y0061300D01*
X0130300Y0071300D02*
X0168300Y0033300D01*
X0203300Y0033300D01*
X0203300Y0023300D02*
X0152300Y0023300D01*
X0254300Y0042200D02*
X0263400Y0051300D01*
X0281300Y0051300D01*
X0291300Y0061300D01*
X0303300Y0061300D01*
X0335300Y0093300D01*
X0338300Y0090300D02*
X0307300Y0059300D01*
X0292300Y0059300D01*
X0283925Y0050925D01*
X0283800Y0050800D01*
X0281300Y0048300D01*
X0269300Y0048300D01*
X0264500Y0043500D01*
X0264500Y0042200D01*
X0254500Y0042200D02*
X0254300Y0042200D01*
X0301300Y0050300D02*
X0301300Y0027300D01*
X0311300Y0027300D02*
X0316300Y0032300D01*
X0316300Y0056300D01*
X0338300Y0078300D01*
X0341300Y0087300D02*
X0311300Y0057300D01*
X0311300Y0050300D01*
X0321300Y0050300D02*
X0321300Y0027300D01*
X0329300Y0018300D02*
X0340300Y0029300D01*
X0340300Y0043300D01*
X0339300Y0043300D01*
X0398300Y0029800D02*
X0424025Y0055525D01*
X0424025Y0058478D01*
X0326356Y0092351D02*
X0325407Y0092300D01*
X0218300Y0092300D01*
X0210300Y0100300D01*
X0210300Y0102300D01*
X0218300Y0103300D02*
X0218300Y0107300D01*
X0218300Y0103300D02*
X0226300Y0095300D01*
X0323300Y0095300D01*
X0332300Y0134300D02*
X0194800Y0134300D01*
X0097300Y0134300D01*
X0117300Y0141800D02*
X0017300Y0141800D01*
X0027300Y0146800D02*
X0124800Y0146800D01*
X0227300Y0146800D01*
X0262300Y0146800D01*
X0359800Y0146800D01*
X0499800Y0146800D01*
X0593300Y0146800D01*
X0583300Y0141800D02*
X0538500Y0141800D01*
X0487300Y0141800D01*
X0349800Y0141800D01*
X0252300Y0141800D01*
X0222300Y0141800D01*
X0117300Y0141800D01*
X0134800Y0149300D02*
X0037300Y0149300D01*
X0047300Y0151800D02*
X0103300Y0151800D01*
X0144800Y0151800D01*
X0232300Y0151800D01*
X0292300Y0151800D01*
X0517300Y0151800D01*
X0521700Y0151800D01*
X0615800Y0151800D01*
X0625800Y0154300D02*
X0512100Y0154300D01*
X0369800Y0154300D01*
X0269800Y0154300D01*
X0234800Y0154300D01*
X0072300Y0154300D01*
X0069800Y0161800D02*
X0022300Y0161800D01*
X0037300Y0156800D02*
X0134800Y0156800D01*
X0237300Y0156800D01*
X0282300Y0156800D01*
X0379800Y0156800D01*
X0492000Y0156800D01*
X0527300Y0156800D01*
X0507300Y0161800D02*
X0605800Y0161800D01*
X0605800Y0149300D02*
X0507300Y0149300D01*
X0389800Y0149300D01*
X0229800Y0149300D01*
X0134800Y0149300D01*
X0144800Y0144300D02*
X0047300Y0144300D01*
X0069800Y0161800D02*
X0242300Y0161800D01*
X0269800Y0161800D01*
X0369800Y0161800D01*
X0480300Y0161800D01*
X0507300Y0161800D01*
X0517300Y0144300D02*
X0615800Y0144300D01*
X0663300Y0134300D02*
X0564800Y0134300D01*
X0439800Y0134300D01*
X0429800Y0134300D01*
X0332300Y0134300D01*
X0379800Y0144300D02*
X0282300Y0144300D01*
X0224800Y0144300D01*
X0144800Y0144300D01*
X0167300Y0159300D02*
X0239800Y0159300D01*
X0379800Y0144300D02*
X0517300Y0144300D01*
X0619200Y0101400D02*
X0645600Y0101400D01*
X0650300Y0096700D01*
X0650300Y0086300D01*
X0650300Y0066300D01*
X0135406Y0106800D02*
X0130300Y0102694D01*
X0130300Y0071300D01*
D23*
X0109800Y0111800D03*
X0119394Y0114300D03*
X0127300Y0114300D03*
X0099800Y0119300D03*
X0089800Y0116800D03*
X0087300Y0121800D03*
X0079800Y0129300D03*
X0077300Y0131800D03*
X0067300Y0124300D03*
X0057300Y0126800D03*
X0029800Y0114300D03*
X0012300Y0111800D03*
X0017300Y0141800D03*
X0027300Y0146800D03*
X0037300Y0149300D03*
X0047300Y0151800D03*
X0037300Y0156800D03*
X0022300Y0161800D03*
X0047300Y0144300D03*
X0072300Y0154300D03*
X0069800Y0161800D03*
X0103300Y0151800D03*
X0124800Y0146800D03*
X0134800Y0149300D03*
X0144800Y0151800D03*
X0134800Y0156800D03*
X0144800Y0144300D03*
X0117300Y0141800D03*
X0097300Y0134300D03*
X0154800Y0126800D03*
X0160300Y0129300D03*
X0164800Y0124300D03*
X0177300Y0129300D03*
X0174800Y0131800D03*
X0194800Y0134300D03*
X0222300Y0141800D03*
X0224800Y0144300D03*
X0227300Y0146800D03*
X0229800Y0149300D03*
X0232300Y0151800D03*
X0234800Y0154300D03*
X0237300Y0156800D03*
X0239800Y0159300D03*
X0242300Y0161800D03*
X0269800Y0161800D03*
X0282300Y0156800D03*
X0292300Y0151800D03*
X0282300Y0144300D03*
X0262300Y0146800D03*
X0252300Y0141800D03*
X0269800Y0154300D03*
X0312300Y0131800D03*
X0314800Y0129300D03*
X0302300Y0124300D03*
X0292300Y0126800D03*
X0264800Y0114300D03*
X0259800Y0111800D03*
X0322300Y0121800D03*
X0324800Y0116800D03*
X0334800Y0119300D03*
X0344800Y0111800D03*
X0362300Y0114300D03*
X0389800Y0126800D03*
X0399800Y0124300D03*
X0407300Y0129300D03*
X0412300Y0131800D03*
X0429800Y0134300D03*
X0439800Y0134300D03*
X0442300Y0131800D03*
X0444800Y0129300D03*
X0447300Y0126800D03*
X0449800Y0124300D03*
X0452300Y0121800D03*
X0454800Y0119300D03*
X0457300Y0116800D03*
X0459800Y0114300D03*
X0462300Y0111800D03*
X0434800Y0119300D03*
X0422300Y0121800D03*
X0414800Y0116800D03*
X0349800Y0141800D03*
X0359800Y0146800D03*
X0369800Y0154300D03*
X0379800Y0156800D03*
X0369800Y0161800D03*
X0389800Y0149300D03*
X0379800Y0144300D03*
X0332300Y0134300D03*
X0323300Y0095300D03*
X0326356Y0092351D03*
X0335300Y0093300D03*
X0338300Y0090300D03*
X0341300Y0087300D03*
X0338300Y0078300D03*
X0340300Y0043300D03*
X0494800Y0111800D03*
X0497300Y0114300D03*
X0527300Y0126800D03*
X0537300Y0124300D03*
X0547300Y0129300D03*
X0542300Y0131800D03*
X0564800Y0134300D03*
X0583300Y0141800D03*
X0593300Y0146800D03*
X0605800Y0149300D03*
X0615800Y0151800D03*
X0625800Y0154300D03*
X0605800Y0161800D03*
X0615800Y0144300D03*
X0645800Y0131800D03*
X0648300Y0129300D03*
X0635800Y0124300D03*
X0625800Y0126800D03*
X0620700Y0119300D03*
X0610800Y0116800D03*
X0595800Y0114300D03*
X0585800Y0111800D03*
X0578400Y0114300D03*
X0567300Y0119300D03*
X0557300Y0116800D03*
X0554800Y0121800D03*
X0552000Y0111800D03*
X0538500Y0141800D03*
X0517300Y0144300D03*
X0507300Y0149300D03*
X0499800Y0146800D03*
X0487300Y0141800D03*
X0517300Y0151800D03*
X0521700Y0151800D03*
X0512100Y0154300D03*
X0527300Y0156800D03*
X0507300Y0161800D03*
X0492000Y0156800D03*
X0480300Y0161800D03*
X0653300Y0116800D03*
X0655800Y0121800D03*
X0665800Y0119300D03*
X0663300Y0134300D03*
X0197300Y0119300D03*
X0187300Y0116800D03*
X0184800Y0121800D03*
X0167300Y0159300D03*
D24*
X0218300Y0107300D03*
X0210300Y0102300D03*
M02*
