G75*
%MOIN*%
%OFA0B0*%
%FSLAX25Y25*%
%IPPOS*%
%LPD*%
%AMOC8*
5,1,8,0,0,1.08239X$1,22.5*
%
%ADD10C,0.06400*%
%ADD11OC8,0.06000*%
%ADD12R,0.07300X0.25800*%
%ADD13R,0.06706X0.02769*%
%ADD14C,0.06000*%
%ADD15C,0.07300*%
%ADD16C,0.00500*%
%ADD17R,0.03950X0.03950*%
%ADD18R,0.04737X0.05131*%
%ADD19C,0.06343*%
%ADD20C,0.06800*%
%ADD21C,0.03778*%
%ADD22C,0.05550*%
%ADD23C,0.03187*%
%ADD24C,0.06706*%
D10*
X0016906Y0106800D03*
X0026906Y0106800D03*
X0036906Y0106800D03*
X0046906Y0106800D03*
X0056906Y0106800D03*
X0066906Y0106800D03*
X0076906Y0106800D03*
X0086906Y0106800D03*
X0096906Y0106800D03*
X0115406Y0106800D03*
X0125406Y0106800D03*
X0135406Y0106800D03*
X0145406Y0106800D03*
X0155406Y0106800D03*
X0165406Y0106800D03*
X0175406Y0106800D03*
X0185406Y0106800D03*
X0195406Y0106800D03*
X0251906Y0106800D03*
X0261906Y0106800D03*
X0271906Y0106800D03*
X0281906Y0106800D03*
X0291906Y0106800D03*
X0301906Y0106800D03*
X0311906Y0106800D03*
X0321906Y0106800D03*
X0331906Y0106800D03*
X0350406Y0106800D03*
X0360406Y0106800D03*
X0370406Y0106800D03*
X0380406Y0106800D03*
X0390406Y0106800D03*
X0400406Y0106800D03*
X0410406Y0106800D03*
X0420406Y0106800D03*
X0430406Y0106800D03*
X0486906Y0106800D03*
X0496906Y0106800D03*
X0506906Y0106800D03*
X0516906Y0106800D03*
X0526906Y0106800D03*
X0536906Y0106800D03*
X0546906Y0106800D03*
X0556906Y0106800D03*
X0566906Y0106800D03*
X0585406Y0106800D03*
X0595406Y0106800D03*
X0605406Y0106800D03*
X0615406Y0106800D03*
X0625406Y0106800D03*
X0635406Y0106800D03*
X0645406Y0106800D03*
X0655406Y0106800D03*
X0665406Y0106800D03*
X0666194Y0166800D03*
X0656194Y0166800D03*
X0646194Y0166800D03*
X0636194Y0166800D03*
X0626194Y0166800D03*
X0615406Y0166800D03*
X0605406Y0166800D03*
X0595406Y0166800D03*
X0585406Y0166800D03*
X0567694Y0166800D03*
X0557694Y0166800D03*
X0547694Y0166800D03*
X0537694Y0166800D03*
X0527694Y0166800D03*
X0516906Y0166800D03*
X0506906Y0166800D03*
X0496906Y0166800D03*
X0486906Y0166800D03*
X0431194Y0166800D03*
X0421194Y0166800D03*
X0411194Y0166800D03*
X0401194Y0166800D03*
X0391194Y0166800D03*
X0380406Y0166800D03*
X0370406Y0166800D03*
X0360406Y0166800D03*
X0350406Y0166800D03*
X0332694Y0166800D03*
X0322694Y0166800D03*
X0312694Y0166800D03*
X0302694Y0166800D03*
X0292694Y0166800D03*
X0281906Y0166800D03*
X0271906Y0166800D03*
X0261906Y0166800D03*
X0251906Y0166800D03*
X0196194Y0166800D03*
X0186194Y0166800D03*
X0176194Y0166800D03*
X0166194Y0166800D03*
X0156194Y0166800D03*
X0145406Y0166800D03*
X0135406Y0166800D03*
X0125406Y0166800D03*
X0115406Y0166800D03*
X0097694Y0166800D03*
X0087694Y0166800D03*
X0077694Y0166800D03*
X0067694Y0166800D03*
X0057694Y0166800D03*
X0046906Y0166800D03*
X0036906Y0166800D03*
X0026906Y0166800D03*
X0016906Y0166800D03*
D11*
X0101300Y0023300D03*
X0101300Y0033300D03*
X0152300Y0033300D03*
X0152300Y0023300D03*
X0203300Y0023300D03*
X0203300Y0033300D03*
X0207300Y0055300D03*
X0185300Y0055300D03*
X0185300Y0065300D03*
X0207300Y0065300D03*
X0229300Y0065300D03*
X0229300Y0055300D03*
X0163300Y0055300D03*
X0163300Y0065300D03*
X0122300Y0061300D03*
X0096300Y0061300D03*
X0096300Y0071300D03*
X0122300Y0071300D03*
X0070300Y0071300D03*
X0070300Y0061300D03*
X0044300Y0061300D03*
X0044300Y0071300D03*
X0018300Y0071300D03*
X0018300Y0061300D03*
X0329300Y0018300D03*
X0379300Y0018300D03*
X0487300Y0066300D03*
X0497300Y0066300D03*
X0514300Y0066300D03*
X0524300Y0066300D03*
X0541300Y0066300D03*
X0551300Y0066300D03*
X0586300Y0066300D03*
X0596300Y0066300D03*
X0613300Y0066300D03*
X0623300Y0066300D03*
X0640300Y0066300D03*
X0650300Y0066300D03*
X0650300Y0086300D03*
X0640300Y0086300D03*
X0623300Y0085300D03*
X0613300Y0085300D03*
X0596300Y0085300D03*
X0586300Y0085300D03*
X0551300Y0085300D03*
X0541300Y0085300D03*
X0524300Y0085300D03*
X0514300Y0085300D03*
X0497300Y0085300D03*
X0487300Y0085300D03*
D12*
X0479050Y0238800D03*
X0469050Y0238800D03*
X0459050Y0238800D03*
X0449050Y0238800D03*
X0439050Y0238800D03*
X0429050Y0238800D03*
X0419050Y0238800D03*
X0409050Y0238800D03*
X0399050Y0238800D03*
X0389050Y0238800D03*
X0379050Y0238800D03*
X0369050Y0238800D03*
X0359050Y0238800D03*
X0349050Y0238800D03*
X0339050Y0238800D03*
X0329050Y0238800D03*
X0319050Y0238800D03*
X0309050Y0238800D03*
X0299050Y0238800D03*
X0289050Y0238800D03*
X0279050Y0238800D03*
X0269050Y0238800D03*
X0259050Y0238800D03*
X0249050Y0238800D03*
X0239050Y0238800D03*
X0229050Y0238800D03*
X0219050Y0238800D03*
X0209050Y0238800D03*
D13*
X0346399Y0094272D03*
X0346399Y0091122D03*
X0346399Y0087972D03*
X0346399Y0084823D03*
X0346399Y0081673D03*
X0346399Y0078524D03*
X0346399Y0075374D03*
X0346399Y0072224D03*
X0346399Y0069075D03*
X0346399Y0065925D03*
X0346399Y0062776D03*
X0346399Y0059626D03*
X0346399Y0056476D03*
X0346399Y0053327D03*
X0346399Y0050177D03*
X0346399Y0047028D03*
X0346399Y0043878D03*
X0346399Y0040728D03*
X0383801Y0040728D03*
X0383801Y0043878D03*
X0383801Y0047028D03*
X0383801Y0050177D03*
X0383801Y0053327D03*
X0383801Y0056476D03*
X0383801Y0059626D03*
X0383801Y0062776D03*
X0383801Y0065925D03*
X0383801Y0069075D03*
X0383801Y0072224D03*
X0383801Y0075374D03*
X0383801Y0078524D03*
X0383801Y0081673D03*
X0383801Y0084823D03*
X0383801Y0087972D03*
X0383801Y0091122D03*
X0383801Y0094272D03*
D14*
X0284500Y0044800D02*
X0284500Y0039600D01*
X0274500Y0039600D02*
X0274500Y0044800D01*
X0264500Y0044800D02*
X0264500Y0039600D01*
X0254500Y0039600D02*
X0254500Y0044800D01*
X0254500Y0014800D02*
X0254500Y0009600D01*
X0264500Y0009600D02*
X0264500Y0014800D01*
X0274500Y0014800D02*
X0274500Y0009600D01*
X0284500Y0009600D02*
X0284500Y0014800D01*
D15*
X0360300Y0032300D03*
X0370300Y0032300D03*
D16*
X0396570Y0029810D02*
X0396610Y0029426D01*
X0396734Y0029060D01*
X0396937Y0028731D01*
X0397208Y0028456D01*
X0397533Y0028247D01*
X0397896Y0028117D01*
X0398280Y0028070D01*
X0398674Y0028108D01*
X0399051Y0028232D01*
X0399390Y0028438D01*
X0399675Y0028713D01*
X0399891Y0029045D01*
X0400028Y0029417D01*
X0400080Y0029810D01*
X0400025Y0030208D01*
X0399882Y0030584D01*
X0399660Y0030919D01*
X0399369Y0031196D01*
X0399023Y0031402D01*
X0398640Y0031525D01*
X0398240Y0031560D01*
X0397860Y0031508D01*
X0397502Y0031373D01*
X0397182Y0031162D01*
X0396918Y0030885D01*
X0396722Y0030556D01*
X0396604Y0030191D01*
X0396570Y0029810D01*
X0396589Y0029626D02*
X0400056Y0029626D01*
X0400036Y0030124D02*
X0396598Y0030124D01*
X0396762Y0030623D02*
X0399857Y0030623D01*
X0399447Y0031121D02*
X0397144Y0031121D01*
X0396711Y0029127D02*
X0399922Y0029127D01*
X0399588Y0028629D02*
X0397037Y0028629D01*
X0397858Y0028130D02*
X0398742Y0028130D01*
X0417570Y0029810D02*
X0417610Y0029426D01*
X0417734Y0029060D01*
X0417937Y0028731D01*
X0418208Y0028456D01*
X0418533Y0028247D01*
X0418896Y0028117D01*
X0419280Y0028070D01*
X0419674Y0028108D01*
X0420051Y0028232D01*
X0420390Y0028438D01*
X0420675Y0028713D01*
X0420891Y0029045D01*
X0421028Y0029417D01*
X0421080Y0029810D01*
X0421025Y0030208D01*
X0420882Y0030584D01*
X0420660Y0030919D01*
X0420369Y0031196D01*
X0420023Y0031402D01*
X0419640Y0031525D01*
X0419240Y0031560D01*
X0418860Y0031508D01*
X0418502Y0031373D01*
X0418182Y0031162D01*
X0417918Y0030885D01*
X0417722Y0030556D01*
X0417604Y0030191D01*
X0417570Y0029810D01*
X0417589Y0029626D02*
X0421056Y0029626D01*
X0421036Y0030124D02*
X0417598Y0030124D01*
X0417762Y0030623D02*
X0420857Y0030623D01*
X0420447Y0031121D02*
X0418144Y0031121D01*
X0417711Y0029127D02*
X0420922Y0029127D01*
X0420588Y0028629D02*
X0418037Y0028629D01*
X0418858Y0028130D02*
X0419742Y0028130D01*
X0419280Y0039090D02*
X0418896Y0039137D01*
X0418533Y0039267D01*
X0418208Y0039476D01*
X0417937Y0039751D01*
X0417734Y0040080D01*
X0417610Y0040446D01*
X0417570Y0040830D01*
X0417604Y0041211D01*
X0417722Y0041576D01*
X0417918Y0041905D01*
X0418182Y0042182D01*
X0418502Y0042393D01*
X0418860Y0042528D01*
X0419240Y0042580D01*
X0419640Y0042545D01*
X0420023Y0042422D01*
X0420369Y0042216D01*
X0420660Y0041939D01*
X0420882Y0041604D01*
X0421025Y0041228D01*
X0421080Y0040830D01*
X0421028Y0040437D01*
X0420891Y0040065D01*
X0420675Y0039733D01*
X0420390Y0039458D01*
X0420051Y0039252D01*
X0419674Y0039128D01*
X0419280Y0039090D01*
X0419219Y0039098D02*
X0419357Y0039098D01*
X0420533Y0039596D02*
X0418089Y0039596D01*
X0417729Y0040095D02*
X0420902Y0040095D01*
X0421049Y0040593D02*
X0417594Y0040593D01*
X0417593Y0041092D02*
X0421043Y0041092D01*
X0420888Y0041590D02*
X0417730Y0041590D01*
X0418093Y0042089D02*
X0420503Y0042089D01*
X0400080Y0040830D02*
X0400028Y0040437D01*
X0399891Y0040065D01*
X0399675Y0039733D01*
X0399390Y0039458D01*
X0399051Y0039252D01*
X0398674Y0039128D01*
X0398280Y0039090D01*
X0397896Y0039137D01*
X0397533Y0039267D01*
X0397208Y0039476D01*
X0396937Y0039751D01*
X0396734Y0040080D01*
X0396610Y0040446D01*
X0396570Y0040830D01*
X0396604Y0041211D01*
X0396722Y0041576D01*
X0396918Y0041905D01*
X0397182Y0042182D01*
X0397502Y0042393D01*
X0397860Y0042528D01*
X0398240Y0042580D01*
X0398640Y0042545D01*
X0399023Y0042422D01*
X0399369Y0042216D01*
X0399660Y0041939D01*
X0399882Y0041604D01*
X0400025Y0041228D01*
X0400080Y0040830D01*
X0400049Y0040593D02*
X0396594Y0040593D01*
X0396593Y0041092D02*
X0400043Y0041092D01*
X0399888Y0041590D02*
X0396730Y0041590D01*
X0397093Y0042089D02*
X0399503Y0042089D01*
X0399902Y0040095D02*
X0396729Y0040095D01*
X0397089Y0039596D02*
X0399533Y0039596D01*
X0398357Y0039098D02*
X0398219Y0039098D01*
D17*
X0284300Y0065347D03*
X0274300Y0065347D03*
X0274300Y0071253D03*
X0284300Y0071253D03*
X0264300Y0071253D03*
X0254300Y0071253D03*
X0254300Y0065347D03*
X0264300Y0065347D03*
D18*
X0264300Y0058646D03*
X0254300Y0058646D03*
X0254300Y0051954D03*
X0264300Y0051954D03*
X0274300Y0051954D03*
X0284300Y0051954D03*
X0284300Y0058646D03*
X0274300Y0058646D03*
D19*
X0412575Y0086122D03*
X0424025Y0058478D03*
D20*
X0321300Y0053300D02*
X0321300Y0047300D01*
X0311300Y0047300D02*
X0311300Y0053300D01*
X0301300Y0053300D02*
X0301300Y0047300D01*
X0301300Y0030300D02*
X0301300Y0024300D01*
X0311300Y0024300D02*
X0311300Y0030300D01*
X0321300Y0030300D02*
X0321300Y0024300D01*
D21*
X0438800Y0222300D03*
X0469300Y0223300D03*
D22*
X0467300Y0099300D03*
X0354300Y0046300D03*
D23*
X0340300Y0043300D03*
X0338300Y0078300D03*
X0341300Y0087300D03*
X0338300Y0090300D03*
X0335300Y0093300D03*
X0326356Y0092351D03*
X0323300Y0095300D03*
X0344800Y0111800D03*
X0334800Y0119300D03*
X0324800Y0116800D03*
X0322300Y0121800D03*
X0314800Y0129300D03*
X0312300Y0131800D03*
X0302300Y0124300D03*
X0292300Y0126800D03*
X0264800Y0114300D03*
X0259800Y0111800D03*
X0197300Y0119300D03*
X0187300Y0116800D03*
X0184800Y0121800D03*
X0177300Y0129300D03*
X0174800Y0131800D03*
X0160300Y0129300D03*
X0154800Y0126800D03*
X0164800Y0124300D03*
X0194800Y0134300D03*
X0222300Y0141800D03*
X0224800Y0144300D03*
X0227300Y0146800D03*
X0229800Y0149300D03*
X0232300Y0151800D03*
X0234800Y0154300D03*
X0237300Y0156800D03*
X0239800Y0159300D03*
X0242300Y0161800D03*
X0269800Y0161800D03*
X0282300Y0156800D03*
X0292300Y0151800D03*
X0282300Y0144300D03*
X0262300Y0146800D03*
X0252300Y0141800D03*
X0269800Y0154300D03*
X0332300Y0134300D03*
X0349800Y0141800D03*
X0359800Y0146800D03*
X0369800Y0154300D03*
X0379800Y0156800D03*
X0369800Y0161800D03*
X0389800Y0149300D03*
X0379800Y0144300D03*
X0412300Y0131800D03*
X0407300Y0129300D03*
X0399800Y0124300D03*
X0389800Y0126800D03*
X0414800Y0116800D03*
X0422300Y0121800D03*
X0434800Y0119300D03*
X0449800Y0124300D03*
X0447300Y0126800D03*
X0444800Y0129300D03*
X0442300Y0131800D03*
X0439800Y0134300D03*
X0429800Y0134300D03*
X0452300Y0121800D03*
X0454800Y0119300D03*
X0457300Y0116800D03*
X0459800Y0114300D03*
X0462300Y0111800D03*
X0494800Y0111800D03*
X0497300Y0114300D03*
X0527300Y0126800D03*
X0537300Y0124300D03*
X0547300Y0129300D03*
X0542300Y0131800D03*
X0564800Y0134300D03*
X0583300Y0141800D03*
X0593300Y0146800D03*
X0605800Y0149300D03*
X0615800Y0151800D03*
X0625800Y0154300D03*
X0605800Y0161800D03*
X0615800Y0144300D03*
X0645800Y0131800D03*
X0648300Y0129300D03*
X0635800Y0124300D03*
X0625800Y0126800D03*
X0620700Y0119300D03*
X0610800Y0116800D03*
X0595800Y0114300D03*
X0585800Y0111800D03*
X0578400Y0114300D03*
X0567300Y0119300D03*
X0557300Y0116800D03*
X0554800Y0121800D03*
X0552000Y0111800D03*
X0538500Y0141800D03*
X0517300Y0144300D03*
X0507300Y0149300D03*
X0499800Y0146800D03*
X0487300Y0141800D03*
X0517300Y0151800D03*
X0521700Y0151800D03*
X0512100Y0154300D03*
X0527300Y0156800D03*
X0507300Y0161800D03*
X0492000Y0156800D03*
X0480300Y0161800D03*
X0362300Y0114300D03*
X0167300Y0159300D03*
X0144800Y0151800D03*
X0134800Y0149300D03*
X0124800Y0146800D03*
X0117300Y0141800D03*
X0097300Y0134300D03*
X0079800Y0129300D03*
X0077300Y0131800D03*
X0067300Y0124300D03*
X0057300Y0126800D03*
X0087300Y0121800D03*
X0089800Y0116800D03*
X0099800Y0119300D03*
X0109800Y0111800D03*
X0119394Y0114300D03*
X0127300Y0114300D03*
X0144800Y0144300D03*
X0134800Y0156800D03*
X0103300Y0151800D03*
X0072300Y0154300D03*
X0069800Y0161800D03*
X0047300Y0151800D03*
X0037300Y0149300D03*
X0027300Y0146800D03*
X0017300Y0141800D03*
X0047300Y0144300D03*
X0037300Y0156800D03*
X0022300Y0161800D03*
X0029800Y0114300D03*
X0012300Y0111800D03*
X0653300Y0116800D03*
X0655800Y0121800D03*
X0665800Y0119300D03*
X0663300Y0134300D03*
D24*
X0218300Y0107300D03*
X0210300Y0102300D03*
M02*
