G75*
%MOIN*%
%OFA0B0*%
%FSLAX25Y25*%
%IPPOS*%
%LPD*%
%AMOC8*
5,1,8,0,0,1.08239X$1,22.5*
%
%ADD10R,0.06500X0.25000*%
%ADD11R,0.05906X0.01969*%
%ADD12R,0.03150X0.03150*%
%ADD13R,0.03937X0.04331*%
D10*
X0209050Y0238800D03*
X0219050Y0238800D03*
X0229050Y0238800D03*
X0239050Y0238800D03*
X0249050Y0238800D03*
X0259050Y0238800D03*
X0269050Y0238800D03*
X0279050Y0238800D03*
X0289050Y0238800D03*
X0299050Y0238800D03*
X0309050Y0238800D03*
X0319050Y0238800D03*
X0329050Y0238800D03*
X0339050Y0238800D03*
X0349050Y0238800D03*
X0359050Y0238800D03*
X0369050Y0238800D03*
X0379050Y0238800D03*
X0389050Y0238800D03*
X0399050Y0238800D03*
X0409050Y0238800D03*
X0419050Y0238800D03*
X0429050Y0238800D03*
X0439050Y0238800D03*
X0449050Y0238800D03*
X0459050Y0238800D03*
X0469050Y0238800D03*
X0479050Y0238800D03*
D11*
X0383801Y0094272D03*
X0383801Y0091122D03*
X0383801Y0087972D03*
X0383801Y0084823D03*
X0383801Y0081673D03*
X0383801Y0078524D03*
X0383801Y0075374D03*
X0383801Y0072224D03*
X0383801Y0069075D03*
X0383801Y0065925D03*
X0383801Y0062776D03*
X0383801Y0059626D03*
X0383801Y0056476D03*
X0383801Y0053327D03*
X0383801Y0050177D03*
X0383801Y0047028D03*
X0383801Y0043878D03*
X0383801Y0040728D03*
X0346399Y0040728D03*
X0346399Y0043878D03*
X0346399Y0047028D03*
X0346399Y0050177D03*
X0346399Y0053327D03*
X0346399Y0056476D03*
X0346399Y0059626D03*
X0346399Y0062776D03*
X0346399Y0065925D03*
X0346399Y0069075D03*
X0346399Y0072224D03*
X0346399Y0075374D03*
X0346399Y0078524D03*
X0346399Y0081673D03*
X0346399Y0084823D03*
X0346399Y0087972D03*
X0346399Y0091122D03*
X0346399Y0094272D03*
D12*
X0284300Y0071253D03*
X0274300Y0071253D03*
X0274300Y0065347D03*
X0284300Y0065347D03*
X0264300Y0065347D03*
X0254300Y0065347D03*
X0254300Y0071253D03*
X0264300Y0071253D03*
D13*
X0254300Y0051954D03*
X0264300Y0051954D03*
X0264300Y0058646D03*
X0254300Y0058646D03*
X0274300Y0058646D03*
X0284300Y0058646D03*
X0284300Y0051954D03*
X0274300Y0051954D03*
M02*
