%
M48
M72
T01C0.01378
T02C0.01969
T03C0.02362
T04C0.02756
T05C0.03200
T06C0.03543
T07C0.03937
T08C0.04000
T09C0.04921
T10C0.05000
T11C0.06299
T12C0.06693
T13C0.07087
T14C0.12850
%
T01
X10399Y82992
X35397Y82992
X107389Y40330
X156051Y37330
X224930Y87630
X251200Y65983
X257000Y71600
X267103Y60839
X277197Y60839
X282800Y60800
X288800Y60800
X288800Y42200
X282800Y42200
X277200Y42074
X267100Y42074
X257000Y42200
X244904Y59331
X194000Y201200
X192311Y209745
X181715Y221645
X169473Y210200
X166400Y201800
X155309Y213465
X151385Y217645
X148732Y246469
X150200Y250400
X135258Y255787
X134053Y264263
X130337Y270748
X126082Y267013
X124407Y256009
X112687Y266744
X102617Y256181
X130053Y288438
X140600Y279200
X135200Y273800
X140719Y271469
X157400Y301400
X175041Y319043
X171517Y322043
X171872Y349488
X174628Y356969
X202187Y304213
X179000Y263000
X182600Y255800
X198800Y233600
X202400Y230000
X273800Y302000
X277400Y306800
X278000Y312200
X278000Y317600
X341951Y353819
X276200Y392600
X97991Y292438
X96724Y220645
X105200Y180200
X11700Y250300
X32300Y370700
X82896Y392795
T02
X194838Y310118
X223841Y290433
X215798Y250463
X225809Y236950
X210463Y217636
T03
X92737Y179123
X87815Y179123
X82894Y179123
X77973Y179123
T04
X139692Y181169
X149692Y181169
X168361Y181597
X178361Y181597
X197600Y75400
X197600Y65400
T05
X203920Y55394
X208576Y83941
X191791Y83912
X162857Y78031
X162660Y92795
X191791Y113912
X208576Y113941
X168446Y165571
X149446Y165571
X150907Y198934
X151433Y209313
X121433Y209313
X120907Y198934
X132660Y92795
X132857Y78031
X233920Y55394
X269372Y88858
X299372Y88858
X299392Y80866
X299392Y70866
X299392Y100394
X299392Y110394
X299372Y118386
X299392Y129921
X299392Y139921
X299372Y147913
X299392Y159449
X299392Y169449
X299372Y177441
X299392Y188976
X299392Y198976
X299372Y206969
X299392Y218504
X299392Y228504
X299372Y236496
X299392Y248031
X299392Y258031
X299372Y266024
X299392Y277559
X299392Y287559
X299372Y295551
X299392Y307087
X299392Y317087
X299372Y325079
X299392Y336614
X299392Y346614
X299372Y354606
X269372Y354606
X269372Y325079
X269372Y295551
X269372Y266024
X269372Y236496
X269372Y206969
X269372Y177441
X269372Y147913
X269372Y118386
X329392Y110394
X329392Y100394
X346569Y103786
X358232Y112695
X345775Y131098
X358232Y142695
X345775Y161098
X358066Y170811
X345554Y190208
X358066Y200811
X345554Y220208
X358855Y229505
X345146Y250792
X358855Y259505
X345146Y280792
X358135Y289998
X344907Y308583
X358135Y319998
X344907Y338583
X329392Y336614
X329392Y346614
X329392Y317087
X329392Y307087
X329392Y287559
X329392Y277559
X329392Y258031
X329392Y248031
X329392Y228504
X329392Y218504
X329392Y198976
X329392Y188976
X329392Y169449
X329392Y159449
X329392Y139921
X329392Y129921
X329392Y80866
X329392Y70866
X346569Y73786
X98390Y315967
X80725Y320634
X98390Y345967
X110721Y346299
X140721Y346299
X154383Y350965
X184383Y350965
X80725Y350634
X362813Y349902
X392813Y349902
T06
X359878Y363508
X329878Y363508
X254600Y331400
X242600Y331400
X230600Y331400
X218600Y331400
X204363Y316513
X218600Y301400
X230600Y301400
X242600Y301400
X254600Y301400
X204363Y346513
X184562Y335630
X182895Y324549
X154562Y335630
X152895Y324549
X139454Y335634
X129454Y335634
X122454Y324635
X112454Y324635
X65686Y380776
X48363Y380776
X103880Y92795
X113880Y92795
X113880Y78031
X103880Y78031
T07
X76203Y40433
X75384Y229744
X75384Y239744
X65384Y239744
X65384Y229744
X55384Y229744
X55384Y239744
X45384Y239744
X45384Y229744
X35384Y229744
X35384Y239744
X25384Y239744
X25384Y229744
X85384Y229744
X85384Y239744
X95384Y239744
X105384Y239744
X105384Y229744
X95384Y229744
X115384Y229744
X115384Y239744
T08
X65429Y210581
X65429Y192781
X39829Y192781
X28194Y181273
X10394Y181273
X10394Y206873
X28194Y206873
X39829Y210581
X98200Y161600
X108200Y161600
X179500Y95900
X179500Y85900
X371479Y93386
X381479Y93386
X391479Y93386
X391479Y65039
X381479Y65039
X371479Y65039
X371479Y121732
X381479Y121732
X391479Y121732
X391479Y150079
X381479Y150079
X371479Y150079
X371479Y178425
X381479Y178425
X391479Y178425
X391479Y206772
X381479Y206772
X371479Y206772
X371479Y235118
X381479Y235118
X391479Y235118
X391479Y263465
X381479Y263465
X371479Y263465
X371479Y291811
X381479Y291811
X391479Y291811
X391279Y320157
X381279Y320157
X371279Y320157
T09
X53443Y157200
X53443Y147357
X53443Y137515
X53443Y127672
X53443Y117830
X53443Y107987
X43600Y107987
X43600Y117830
X43600Y127672
X43600Y137515
X43600Y147357
X43600Y157200
T10
X343849Y47173
X353849Y47173
X363849Y47173
T11
X35307Y69846
T12
X15332Y107987
X15332Y157200
T13
X17590Y69846
T14
X13900Y392500
X388900Y392500
M30
