G75*
%MOIN*%
%OFA0B0*%
%FSLAX25Y25*%
%IPPOS*%
%LPD*%
%AMOC8*
5,1,8,0,0,1.08239X$1,22.5*
%
%ADD10C,0.00500*%
%ADD11C,0.00400*%
%ADD12C,0.00600*%
%ADD13C,0.00800*%
%ADD14R,0.05906X0.09843*%
%ADD15R,0.01500X0.02000*%
%ADD16C,0.00591*%
%ADD17C,0.01682*%
%ADD18R,0.02000X0.01500*%
%ADD19C,0.01200*%
%ADD20C,0.01000*%
D10*
X0063750Y0036767D02*
X0064667Y0035850D01*
X0066502Y0035850D01*
X0067420Y0036767D01*
X0069275Y0036767D02*
X0070192Y0035850D01*
X0072027Y0035850D01*
X0072945Y0036767D01*
X0072945Y0038602D01*
X0072027Y0039520D01*
X0070192Y0039520D01*
X0069275Y0038602D01*
X0069275Y0036767D01*
X0067420Y0040437D02*
X0066502Y0041355D01*
X0064667Y0041355D01*
X0063750Y0040437D01*
X0063750Y0036767D01*
X0065585Y0044850D02*
X0065585Y0050355D01*
X0063750Y0050355D02*
X0067420Y0050355D01*
X0069275Y0050355D02*
X0069275Y0044850D01*
X0069275Y0047602D02*
X0070192Y0048520D01*
X0072027Y0048520D01*
X0072945Y0047602D01*
X0072945Y0044850D01*
X0074799Y0045767D02*
X0074799Y0047602D01*
X0075717Y0048520D01*
X0077552Y0048520D01*
X0078469Y0047602D01*
X0078469Y0046685D01*
X0074799Y0046685D01*
X0074799Y0045767D02*
X0075717Y0044850D01*
X0077552Y0044850D01*
X0077552Y0039520D02*
X0074799Y0039520D01*
X0074799Y0035850D01*
X0078469Y0035850D02*
X0078469Y0038602D01*
X0077552Y0039520D01*
X0080324Y0039520D02*
X0082159Y0035850D01*
X0083994Y0039520D01*
X0085849Y0038602D02*
X0086766Y0039520D01*
X0088601Y0039520D01*
X0089519Y0038602D01*
X0089519Y0037685D01*
X0085849Y0037685D01*
X0085849Y0038602D02*
X0085849Y0036767D01*
X0086766Y0035850D01*
X0088601Y0035850D01*
X0091374Y0035850D02*
X0091374Y0039520D01*
X0093208Y0039520D02*
X0091374Y0037685D01*
X0093208Y0039520D02*
X0094126Y0039520D01*
X0095978Y0039520D02*
X0097812Y0039520D01*
X0096895Y0040437D02*
X0096895Y0036767D01*
X0097812Y0035850D01*
X0099661Y0036767D02*
X0100578Y0035850D01*
X0102413Y0035850D01*
X0103330Y0037685D02*
X0099661Y0037685D01*
X0099661Y0038602D02*
X0100578Y0039520D01*
X0102413Y0039520D01*
X0103330Y0038602D01*
X0103330Y0037685D01*
X0105185Y0037685D02*
X0107020Y0039520D01*
X0107938Y0039520D01*
X0105185Y0039520D02*
X0105185Y0035850D01*
X0099661Y0036767D02*
X0099661Y0038602D01*
X0100568Y0044850D02*
X0097816Y0044850D01*
X0096898Y0045767D01*
X0096898Y0047602D01*
X0097816Y0048520D01*
X0100568Y0048520D01*
X0100568Y0050355D02*
X0100568Y0044850D01*
X0102423Y0045767D02*
X0102423Y0047602D01*
X0103340Y0048520D01*
X0105175Y0048520D01*
X0106093Y0047602D01*
X0106093Y0046685D01*
X0102423Y0046685D01*
X0102423Y0045767D02*
X0103340Y0044850D01*
X0105175Y0044850D01*
X0107948Y0044850D02*
X0107948Y0048520D01*
X0107948Y0046685D02*
X0109783Y0048520D01*
X0110700Y0048520D01*
X0112552Y0048520D02*
X0112552Y0045767D01*
X0113469Y0044850D01*
X0114387Y0045767D01*
X0115304Y0044850D01*
X0116221Y0045767D01*
X0116221Y0048520D01*
X0118994Y0048520D02*
X0120829Y0048520D01*
X0121746Y0047602D01*
X0121746Y0044850D01*
X0118994Y0044850D01*
X0118076Y0045767D01*
X0118994Y0046685D01*
X0121746Y0046685D01*
X0123601Y0048520D02*
X0125436Y0048520D01*
X0124519Y0049437D02*
X0124519Y0045767D01*
X0125436Y0044850D01*
X0127284Y0045767D02*
X0127284Y0047602D01*
X0128202Y0048520D01*
X0130037Y0048520D01*
X0130954Y0047602D01*
X0130954Y0046685D01*
X0127284Y0046685D01*
X0127284Y0045767D02*
X0128202Y0044850D01*
X0130037Y0044850D01*
X0132809Y0044850D02*
X0132809Y0048520D01*
X0132809Y0046685D02*
X0134644Y0048520D01*
X0135561Y0048520D01*
X0140162Y0041355D02*
X0140162Y0035850D01*
X0137410Y0035850D01*
X0136492Y0036767D01*
X0136492Y0038602D01*
X0137410Y0039520D01*
X0140162Y0039520D01*
X0134641Y0039520D02*
X0133723Y0039520D01*
X0131888Y0037685D01*
X0131888Y0035850D02*
X0131888Y0039520D01*
X0130033Y0038602D02*
X0130033Y0035850D01*
X0127281Y0035850D01*
X0126363Y0036767D01*
X0127281Y0037685D01*
X0130033Y0037685D01*
X0130033Y0038602D02*
X0129116Y0039520D01*
X0127281Y0039520D01*
X0124509Y0038602D02*
X0123591Y0039520D01*
X0121756Y0039520D01*
X0120839Y0038602D01*
X0120839Y0036767D01*
X0121756Y0035850D01*
X0123591Y0035850D01*
X0124509Y0036767D01*
X0124509Y0038602D01*
X0118984Y0037685D02*
X0118984Y0036767D01*
X0118066Y0035850D01*
X0115314Y0035850D01*
X0115314Y0041355D01*
X0118066Y0041355D01*
X0118984Y0040437D01*
X0118984Y0039520D01*
X0118066Y0038602D01*
X0115314Y0038602D01*
X0118066Y0038602D02*
X0118984Y0037685D01*
X0118997Y0053850D02*
X0118997Y0057520D01*
X0120832Y0059355D01*
X0122667Y0057520D01*
X0122667Y0053850D01*
X0124522Y0054767D02*
X0125439Y0053850D01*
X0128192Y0053850D01*
X0128192Y0057520D01*
X0130047Y0057520D02*
X0131881Y0057520D01*
X0130964Y0058437D02*
X0130964Y0054767D01*
X0131881Y0053850D01*
X0133730Y0054767D02*
X0134647Y0053850D01*
X0136482Y0053850D01*
X0137400Y0054767D01*
X0137400Y0056602D01*
X0136482Y0057520D01*
X0134647Y0057520D01*
X0133730Y0056602D01*
X0133730Y0054767D01*
X0139254Y0053850D02*
X0139254Y0057520D01*
X0140172Y0057520D01*
X0141089Y0056602D01*
X0142007Y0057520D01*
X0142924Y0056602D01*
X0142924Y0053850D01*
X0141089Y0053850D02*
X0141089Y0056602D01*
X0144779Y0056602D02*
X0144779Y0054767D01*
X0145697Y0053850D01*
X0147532Y0053850D01*
X0148449Y0054767D01*
X0148449Y0056602D01*
X0147532Y0057520D01*
X0145697Y0057520D01*
X0144779Y0056602D01*
X0145690Y0050355D02*
X0142938Y0050355D01*
X0142938Y0044850D01*
X0142938Y0046685D02*
X0145690Y0046685D01*
X0146607Y0047602D01*
X0146607Y0049437D01*
X0145690Y0050355D01*
X0144772Y0046685D02*
X0146607Y0044850D01*
X0148462Y0045767D02*
X0149380Y0044850D01*
X0151215Y0044850D01*
X0152132Y0045767D01*
X0152132Y0047602D01*
X0151215Y0048520D01*
X0149380Y0048520D01*
X0148462Y0047602D01*
X0148462Y0045767D01*
X0153987Y0044850D02*
X0156739Y0044850D01*
X0157657Y0045767D01*
X0157657Y0047602D01*
X0156739Y0048520D01*
X0153987Y0048520D01*
X0153987Y0050355D02*
X0153987Y0044850D01*
X0159512Y0045767D02*
X0160429Y0044850D01*
X0162264Y0044850D01*
X0163182Y0045767D01*
X0163182Y0047602D01*
X0162264Y0048520D01*
X0160429Y0048520D01*
X0159512Y0047602D01*
X0159512Y0045767D01*
X0165036Y0048520D02*
X0166871Y0048520D01*
X0165954Y0049437D02*
X0165954Y0045767D01*
X0166871Y0044850D01*
X0168720Y0044850D02*
X0170555Y0044850D01*
X0169637Y0044850D02*
X0169637Y0048520D01*
X0168720Y0048520D01*
X0169637Y0050355D02*
X0169637Y0051272D01*
X0165947Y0053850D02*
X0164112Y0053850D01*
X0163195Y0054767D01*
X0163195Y0056602D01*
X0164112Y0057520D01*
X0165947Y0057520D01*
X0166865Y0056602D01*
X0166865Y0055685D01*
X0163195Y0055685D01*
X0161340Y0057520D02*
X0159505Y0053850D01*
X0157670Y0057520D01*
X0154904Y0057520D02*
X0154904Y0053850D01*
X0153987Y0053850D02*
X0155822Y0053850D01*
X0152139Y0053850D02*
X0151221Y0054767D01*
X0151221Y0058437D01*
X0150304Y0057520D02*
X0152139Y0057520D01*
X0153987Y0057520D02*
X0154904Y0057520D01*
X0154904Y0059355D02*
X0154904Y0060272D01*
X0153980Y0062850D02*
X0152145Y0062850D01*
X0153063Y0062850D02*
X0153063Y0066520D01*
X0152145Y0066520D01*
X0153063Y0068355D02*
X0153063Y0069272D01*
X0155829Y0066520D02*
X0157664Y0062850D01*
X0159498Y0066520D01*
X0161353Y0065602D02*
X0161353Y0063767D01*
X0162271Y0062850D01*
X0164106Y0062850D01*
X0165023Y0064685D02*
X0161353Y0064685D01*
X0161353Y0065602D02*
X0162271Y0066520D01*
X0164106Y0066520D01*
X0165023Y0065602D01*
X0165023Y0064685D01*
X0166878Y0064685D02*
X0168713Y0066520D01*
X0169630Y0066520D01*
X0171482Y0066520D02*
X0172399Y0066520D01*
X0172399Y0062850D01*
X0171482Y0062850D02*
X0173317Y0062850D01*
X0176083Y0063767D02*
X0177000Y0062850D01*
X0176083Y0063767D02*
X0176083Y0067437D01*
X0177000Y0066520D02*
X0175165Y0066520D01*
X0172399Y0068355D02*
X0172399Y0069272D01*
X0166878Y0066520D02*
X0166878Y0062850D01*
X0174244Y0059355D02*
X0174244Y0053850D01*
X0174244Y0055685D02*
X0176997Y0055685D01*
X0177914Y0056602D01*
X0177914Y0058437D01*
X0176997Y0059355D01*
X0174244Y0059355D01*
X0176079Y0055685D02*
X0177914Y0053850D01*
X0179769Y0054767D02*
X0179769Y0056602D01*
X0180686Y0057520D01*
X0182521Y0057520D01*
X0183439Y0056602D01*
X0183439Y0055685D01*
X0179769Y0055685D01*
X0179769Y0054767D02*
X0180686Y0053850D01*
X0182521Y0053850D01*
X0185294Y0053850D02*
X0188046Y0053850D01*
X0188964Y0054767D01*
X0188046Y0055685D01*
X0186211Y0055685D01*
X0185294Y0056602D01*
X0186211Y0057520D01*
X0188964Y0057520D01*
X0190818Y0056602D02*
X0191736Y0057520D01*
X0193571Y0057520D01*
X0194488Y0056602D01*
X0194488Y0055685D01*
X0190818Y0055685D01*
X0190818Y0056602D02*
X0190818Y0054767D01*
X0191736Y0053850D01*
X0193571Y0053850D01*
X0196343Y0054767D02*
X0197261Y0055685D01*
X0200013Y0055685D01*
X0200013Y0056602D02*
X0200013Y0053850D01*
X0197261Y0053850D01*
X0196343Y0054767D01*
X0197261Y0057520D02*
X0199096Y0057520D01*
X0200013Y0056602D01*
X0201868Y0055685D02*
X0203703Y0057520D01*
X0204620Y0057520D01*
X0206472Y0056602D02*
X0206472Y0054767D01*
X0207389Y0053850D01*
X0210142Y0053850D01*
X0211997Y0053850D02*
X0211997Y0059355D01*
X0212914Y0057520D02*
X0214749Y0057520D01*
X0215666Y0056602D01*
X0215666Y0053850D01*
X0211997Y0056602D02*
X0212914Y0057520D01*
X0210142Y0057520D02*
X0207389Y0057520D01*
X0206472Y0056602D01*
X0201868Y0057520D02*
X0201868Y0053850D01*
X0202779Y0048520D02*
X0200944Y0048520D01*
X0202779Y0048520D02*
X0203696Y0047602D01*
X0203696Y0044850D01*
X0200944Y0044850D01*
X0200026Y0045767D01*
X0200944Y0046685D01*
X0203696Y0046685D01*
X0205551Y0048520D02*
X0206469Y0048520D01*
X0207386Y0047602D01*
X0208303Y0048520D01*
X0209221Y0047602D01*
X0209221Y0044850D01*
X0207386Y0044850D02*
X0207386Y0047602D01*
X0205551Y0048520D02*
X0205551Y0044850D01*
X0200934Y0040437D02*
X0197264Y0036767D01*
X0198181Y0035850D01*
X0200016Y0035850D01*
X0200934Y0036767D01*
X0200934Y0040437D01*
X0200016Y0041355D01*
X0198181Y0041355D01*
X0197264Y0040437D01*
X0197264Y0036767D01*
X0195419Y0036767D02*
X0195419Y0035850D01*
X0194502Y0035850D01*
X0194502Y0036767D01*
X0195419Y0036767D01*
X0192647Y0035850D02*
X0188977Y0035850D01*
X0192647Y0039520D01*
X0192647Y0040437D01*
X0191729Y0041355D01*
X0189894Y0041355D01*
X0188977Y0040437D01*
X0181607Y0036767D02*
X0181607Y0035850D01*
X0180690Y0035850D01*
X0180690Y0036767D01*
X0181607Y0036767D01*
X0178835Y0039520D02*
X0177000Y0035850D01*
X0175165Y0039520D01*
X0173310Y0038602D02*
X0173310Y0037685D01*
X0169640Y0037685D01*
X0169640Y0038602D02*
X0170558Y0039520D01*
X0172393Y0039520D01*
X0173310Y0038602D01*
X0172393Y0035850D02*
X0170558Y0035850D01*
X0169640Y0036767D01*
X0169640Y0038602D01*
X0167785Y0038602D02*
X0166868Y0037685D01*
X0164116Y0037685D01*
X0165951Y0037685D02*
X0167785Y0035850D01*
X0167785Y0038602D02*
X0167785Y0040437D01*
X0166868Y0041355D01*
X0164116Y0041355D01*
X0164116Y0035850D01*
X0156736Y0038602D02*
X0153066Y0038602D01*
X0151211Y0038602D02*
X0147542Y0038602D01*
X0146621Y0062850D02*
X0146621Y0066520D01*
X0149373Y0066520D01*
X0150291Y0065602D01*
X0150291Y0062850D01*
X0144766Y0063767D02*
X0144766Y0068355D01*
X0141096Y0068355D02*
X0141096Y0063767D01*
X0142013Y0062850D01*
X0143848Y0062850D01*
X0144766Y0063767D01*
X0133716Y0064685D02*
X0130047Y0064685D01*
X0130047Y0065602D02*
X0130047Y0063767D01*
X0130964Y0062850D01*
X0132799Y0062850D01*
X0133716Y0064685D02*
X0133716Y0065602D01*
X0132799Y0066520D01*
X0130964Y0066520D01*
X0130047Y0065602D01*
X0128198Y0066520D02*
X0126363Y0066520D01*
X0127281Y0067437D02*
X0127281Y0063767D01*
X0128198Y0062850D01*
X0124509Y0062850D02*
X0124509Y0065602D01*
X0123591Y0066520D01*
X0121756Y0066520D01*
X0121756Y0064685D02*
X0120839Y0063767D01*
X0121756Y0062850D01*
X0124509Y0062850D01*
X0124509Y0064685D02*
X0121756Y0064685D01*
X0118990Y0066520D02*
X0117156Y0066520D01*
X0118073Y0067437D02*
X0118073Y0063767D01*
X0118990Y0062850D01*
X0115301Y0063767D02*
X0114383Y0062850D01*
X0112548Y0062850D01*
X0111631Y0063767D01*
X0112548Y0065602D02*
X0114383Y0065602D01*
X0115301Y0064685D01*
X0115301Y0063767D01*
X0112548Y0065602D02*
X0111631Y0066520D01*
X0111631Y0067437D01*
X0112548Y0068355D01*
X0114383Y0068355D01*
X0115301Y0067437D01*
X0111621Y0057520D02*
X0110703Y0057520D01*
X0108869Y0055685D01*
X0108869Y0053850D02*
X0108869Y0057520D01*
X0107014Y0056602D02*
X0106096Y0057520D01*
X0104261Y0057520D01*
X0103344Y0056602D01*
X0103344Y0054767D01*
X0104261Y0053850D01*
X0106096Y0053850D01*
X0107014Y0054767D01*
X0107014Y0056602D01*
X0101496Y0056602D02*
X0099661Y0056602D01*
X0100578Y0058437D02*
X0100578Y0053850D01*
X0100578Y0058437D02*
X0101496Y0059355D01*
X0101499Y0062850D02*
X0100581Y0063767D01*
X0100581Y0065602D01*
X0101499Y0066520D01*
X0103334Y0066520D01*
X0104251Y0065602D01*
X0104251Y0063767D01*
X0103334Y0062850D01*
X0101499Y0062850D01*
X0098733Y0062850D02*
X0096898Y0062850D01*
X0097816Y0062850D02*
X0097816Y0066520D01*
X0096898Y0066520D01*
X0097816Y0068355D02*
X0097816Y0069272D01*
X0095043Y0065602D02*
X0095043Y0062850D01*
X0095043Y0065602D02*
X0094126Y0066520D01*
X0092291Y0066520D01*
X0091374Y0065602D01*
X0089519Y0063767D02*
X0089519Y0067437D01*
X0088601Y0068355D01*
X0086766Y0068355D01*
X0085849Y0067437D01*
X0085849Y0063767D01*
X0086766Y0062850D01*
X0088601Y0062850D01*
X0089519Y0063767D01*
X0091374Y0062850D02*
X0091374Y0068355D01*
X0091367Y0057520D02*
X0092284Y0057520D01*
X0091367Y0057520D02*
X0089532Y0055685D01*
X0089532Y0053850D02*
X0089532Y0057520D01*
X0087677Y0056602D02*
X0087677Y0055685D01*
X0084007Y0055685D01*
X0084007Y0056602D02*
X0084925Y0057520D01*
X0086760Y0057520D01*
X0087677Y0056602D01*
X0086760Y0053850D02*
X0084925Y0053850D01*
X0084007Y0054767D01*
X0084007Y0056602D01*
X0082159Y0057520D02*
X0080324Y0057520D01*
X0081242Y0058437D02*
X0081242Y0054767D01*
X0082159Y0053850D01*
X0078469Y0053850D02*
X0078469Y0056602D01*
X0077552Y0057520D01*
X0074799Y0057520D01*
X0074799Y0053850D01*
X0072945Y0055685D02*
X0069275Y0055685D01*
X0069275Y0056602D02*
X0070192Y0057520D01*
X0072027Y0057520D01*
X0072945Y0056602D01*
X0072945Y0055685D01*
X0072027Y0053850D02*
X0070192Y0053850D01*
X0069275Y0054767D01*
X0069275Y0056602D01*
X0067420Y0054767D02*
X0066502Y0053850D01*
X0064667Y0053850D01*
X0063750Y0054767D01*
X0063750Y0058437D01*
X0064667Y0059355D01*
X0066502Y0059355D01*
X0067420Y0058437D01*
X0065585Y0062850D02*
X0065585Y0068355D01*
X0063750Y0068355D02*
X0067420Y0068355D01*
X0069275Y0068355D02*
X0069275Y0062850D01*
X0069275Y0065602D02*
X0070192Y0066520D01*
X0072027Y0066520D01*
X0072945Y0065602D01*
X0072945Y0062850D01*
X0074799Y0063767D02*
X0074799Y0065602D01*
X0075717Y0066520D01*
X0077552Y0066520D01*
X0078469Y0065602D01*
X0078469Y0064685D01*
X0074799Y0064685D01*
X0074799Y0063767D02*
X0075717Y0062850D01*
X0077552Y0062850D01*
X0085849Y0050355D02*
X0085849Y0045767D01*
X0086766Y0044850D01*
X0088601Y0044850D01*
X0089519Y0045767D01*
X0089519Y0050355D01*
X0091374Y0048520D02*
X0094126Y0048520D01*
X0095043Y0047602D01*
X0095043Y0044850D01*
X0091374Y0044850D02*
X0091374Y0048520D01*
X0118997Y0056602D02*
X0122667Y0056602D01*
X0124522Y0057520D02*
X0124522Y0054767D01*
X0163342Y0092501D02*
X0163342Y0095503D01*
X0164093Y0096254D01*
X0165594Y0096254D01*
X0166345Y0095503D01*
X0167946Y0094753D02*
X0169447Y0096254D01*
X0169447Y0091750D01*
X0167946Y0091750D02*
X0170949Y0091750D01*
X0166345Y0092501D02*
X0165594Y0091750D01*
X0164093Y0091750D01*
X0163342Y0092501D01*
X0178848Y0066520D02*
X0178848Y0063767D01*
X0179766Y0062850D01*
X0182518Y0062850D01*
X0182518Y0061933D02*
X0181601Y0061015D01*
X0180683Y0061015D01*
X0182518Y0061933D02*
X0182518Y0066520D01*
X0188977Y0050355D02*
X0192647Y0050355D01*
X0190812Y0050355D02*
X0190812Y0044850D01*
X0194502Y0045767D02*
X0194502Y0047602D01*
X0195419Y0048520D01*
X0197254Y0048520D01*
X0198171Y0047602D01*
X0198171Y0046685D01*
X0194502Y0046685D01*
X0194502Y0045767D02*
X0195419Y0044850D01*
X0197254Y0044850D01*
X0181597Y0045767D02*
X0180680Y0046685D01*
X0178845Y0046685D01*
X0177927Y0047602D01*
X0178845Y0048520D01*
X0181597Y0048520D01*
X0181597Y0045767D02*
X0180680Y0044850D01*
X0177927Y0044850D01*
X0176073Y0044850D02*
X0173320Y0044850D01*
X0172403Y0045767D01*
X0172403Y0047602D01*
X0173320Y0048520D01*
X0176073Y0048520D01*
X0220300Y0115000D02*
X0095300Y0115000D01*
X0095300Y0195000D01*
X0220300Y0195000D01*
X0220300Y0115000D01*
X0256116Y0185750D02*
X0256116Y0190254D01*
X0254615Y0190254D02*
X0257617Y0190254D01*
X0259219Y0190254D02*
X0259219Y0185750D01*
X0262221Y0185750D01*
X0263822Y0185750D02*
X0263822Y0190254D01*
X0265324Y0188753D01*
X0266825Y0190254D01*
X0266825Y0185750D01*
X0268426Y0185750D02*
X0268426Y0190254D01*
X0270678Y0190254D01*
X0271429Y0189503D01*
X0271429Y0188002D01*
X0270678Y0187251D01*
X0268426Y0187251D01*
X0273030Y0186501D02*
X0273781Y0185750D01*
X0275282Y0185750D01*
X0276033Y0186501D01*
X0276033Y0187251D01*
X0275282Y0188002D01*
X0273781Y0188002D01*
X0273030Y0188753D01*
X0273030Y0189503D01*
X0273781Y0190254D01*
X0275282Y0190254D01*
X0276033Y0189503D01*
X0277634Y0190254D02*
X0277634Y0185750D01*
X0280637Y0185750D01*
X0282238Y0185750D02*
X0282238Y0190254D01*
X0285241Y0185750D01*
X0285241Y0190254D01*
X0286842Y0189503D02*
X0286842Y0188753D01*
X0287593Y0188002D01*
X0289094Y0188002D01*
X0289845Y0187251D01*
X0289845Y0186501D01*
X0289094Y0185750D01*
X0287593Y0185750D01*
X0286842Y0186501D01*
X0286842Y0189503D02*
X0287593Y0190254D01*
X0289094Y0190254D01*
X0289845Y0189503D01*
X0291446Y0190254D02*
X0291446Y0185750D01*
X0294449Y0185750D01*
X0292947Y0188002D02*
X0291446Y0188002D01*
X0291446Y0190254D02*
X0294449Y0190254D01*
X0302300Y0203000D02*
X0302300Y0348000D01*
X0074300Y0348000D01*
X0074300Y0203000D01*
X0302300Y0203000D01*
X0280637Y0190254D02*
X0277634Y0190254D01*
X0277634Y0188002D02*
X0279135Y0188002D01*
X0262221Y0190254D02*
X0259219Y0190254D01*
X0259219Y0188002D02*
X0260720Y0188002D01*
X0247248Y0194600D02*
X0230752Y0194600D01*
X0233472Y0188600D02*
X0234528Y0188600D01*
X0229454Y0192478D02*
X0229561Y0192703D01*
X0229673Y0192926D01*
X0229790Y0193146D01*
X0229912Y0193363D01*
X0230040Y0193578D01*
X0230173Y0193789D01*
X0230310Y0193997D01*
X0230453Y0194201D01*
X0230600Y0194403D01*
X0230752Y0194600D01*
X0229500Y0183628D02*
X0229612Y0183398D01*
X0229729Y0183171D01*
X0229851Y0182947D01*
X0229979Y0182726D01*
X0230113Y0182509D01*
X0230251Y0182294D01*
X0230395Y0182083D01*
X0230544Y0181876D01*
X0230698Y0181672D01*
X0230856Y0181472D01*
X0231020Y0181276D01*
X0231188Y0181084D01*
X0231361Y0180896D01*
X0231539Y0180712D01*
X0231720Y0180533D01*
X0231907Y0180358D01*
X0232097Y0180188D01*
X0232291Y0180023D01*
X0232490Y0179862D01*
X0232692Y0179706D01*
X0232898Y0179555D01*
X0233108Y0179409D01*
X0233321Y0179269D01*
X0233537Y0179133D01*
X0233757Y0179003D01*
X0233980Y0178878D01*
X0234205Y0178759D01*
X0234434Y0178645D01*
X0234665Y0178537D01*
X0234899Y0178434D01*
X0235135Y0178337D01*
X0235374Y0178246D01*
X0235614Y0178161D01*
X0235857Y0178081D01*
X0236102Y0178008D01*
X0236348Y0177940D01*
X0236596Y0177879D01*
X0236845Y0177824D01*
X0237095Y0177774D01*
X0237347Y0177731D01*
X0237600Y0177694D01*
X0237853Y0177663D01*
X0238107Y0177638D01*
X0238362Y0177619D01*
X0238617Y0177607D01*
X0238872Y0177601D01*
X0239128Y0177601D01*
X0239383Y0177607D01*
X0239638Y0177619D01*
X0239893Y0177638D01*
X0240147Y0177663D01*
X0240400Y0177694D01*
X0240653Y0177731D01*
X0240905Y0177774D01*
X0241155Y0177824D01*
X0241404Y0177879D01*
X0241652Y0177940D01*
X0241898Y0178008D01*
X0242143Y0178081D01*
X0242386Y0178161D01*
X0242626Y0178246D01*
X0242865Y0178337D01*
X0243101Y0178434D01*
X0243335Y0178537D01*
X0243566Y0178645D01*
X0243795Y0178759D01*
X0244020Y0178878D01*
X0244243Y0179003D01*
X0244463Y0179133D01*
X0244679Y0179269D01*
X0244892Y0179409D01*
X0245102Y0179555D01*
X0245308Y0179706D01*
X0245510Y0179862D01*
X0245709Y0180023D01*
X0245903Y0180188D01*
X0246093Y0180358D01*
X0246280Y0180533D01*
X0246461Y0180712D01*
X0246639Y0180896D01*
X0246812Y0181084D01*
X0246980Y0181276D01*
X0247144Y0181472D01*
X0247302Y0181672D01*
X0247456Y0181876D01*
X0247605Y0182083D01*
X0247749Y0182294D01*
X0247887Y0182509D01*
X0248021Y0182726D01*
X0248149Y0182947D01*
X0248271Y0183171D01*
X0248388Y0183398D01*
X0248500Y0183628D01*
X0244528Y0188600D02*
X0243472Y0188600D01*
X0248502Y0192572D02*
X0248398Y0192787D01*
X0248289Y0193000D01*
X0248175Y0193210D01*
X0248056Y0193417D01*
X0247933Y0193622D01*
X0247805Y0193824D01*
X0247672Y0194023D01*
X0247535Y0194218D01*
X0247394Y0194411D01*
X0247248Y0194600D01*
X0124075Y0364950D02*
X0124993Y0365867D01*
X0124993Y0369537D01*
X0124075Y0370455D01*
X0121323Y0370455D01*
X0121323Y0364950D01*
X0124075Y0364950D01*
X0119468Y0364950D02*
X0115798Y0364950D01*
X0115798Y0370455D01*
X0119468Y0370455D01*
X0117633Y0367702D02*
X0115798Y0367702D01*
X0113943Y0365867D02*
X0113026Y0364950D01*
X0111191Y0364950D01*
X0110274Y0365867D01*
X0110274Y0369537D01*
X0111191Y0370455D01*
X0113026Y0370455D01*
X0113943Y0369537D01*
X0108419Y0370455D02*
X0108419Y0364950D01*
X0104749Y0370455D01*
X0104749Y0364950D01*
X0102894Y0364950D02*
X0102894Y0368620D01*
X0101059Y0370455D01*
X0099224Y0368620D01*
X0099224Y0364950D01*
X0097369Y0364950D02*
X0093699Y0364950D01*
X0093699Y0370455D01*
X0091845Y0368620D02*
X0091845Y0364950D01*
X0091845Y0367702D02*
X0088175Y0367702D01*
X0088175Y0368620D02*
X0090010Y0370455D01*
X0091845Y0368620D01*
X0088175Y0368620D02*
X0088175Y0364950D01*
X0086320Y0365867D02*
X0085402Y0364950D01*
X0082650Y0364950D01*
X0082650Y0370455D01*
X0085402Y0370455D01*
X0086320Y0369537D01*
X0086320Y0368620D01*
X0085402Y0367702D01*
X0082650Y0367702D01*
X0085402Y0367702D02*
X0086320Y0366785D01*
X0086320Y0365867D01*
X0099224Y0367702D02*
X0102894Y0367702D01*
X0167550Y0379167D02*
X0168467Y0378250D01*
X0170302Y0378250D01*
X0171220Y0379167D01*
X0171220Y0380085D01*
X0170302Y0381002D01*
X0169385Y0381002D01*
X0170302Y0381002D02*
X0171220Y0381920D01*
X0171220Y0382837D01*
X0170302Y0383755D01*
X0168467Y0383755D01*
X0167550Y0382837D01*
X0173075Y0379167D02*
X0173992Y0379167D01*
X0173992Y0378250D01*
X0173075Y0378250D01*
X0173075Y0379167D01*
X0175837Y0379167D02*
X0176755Y0378250D01*
X0178589Y0378250D01*
X0179507Y0379167D01*
X0179507Y0380085D01*
X0178589Y0381002D01*
X0177672Y0381002D01*
X0178589Y0381002D02*
X0179507Y0381920D01*
X0179507Y0382837D01*
X0178589Y0383755D01*
X0176755Y0383755D01*
X0175837Y0382837D01*
X0181362Y0383755D02*
X0181362Y0380085D01*
X0183197Y0378250D01*
X0185032Y0380085D01*
X0185032Y0383755D01*
X0275550Y0380920D02*
X0277385Y0382755D01*
X0277385Y0377250D01*
X0275550Y0377250D02*
X0279220Y0377250D01*
X0281075Y0377250D02*
X0284745Y0380920D01*
X0284745Y0381837D01*
X0283827Y0382755D01*
X0281992Y0382755D01*
X0281075Y0381837D01*
X0281075Y0377250D02*
X0284745Y0377250D01*
X0286599Y0379085D02*
X0288434Y0377250D01*
X0290269Y0379085D01*
X0290269Y0382755D01*
X0286599Y0382755D02*
X0286599Y0379085D01*
D11*
X0321500Y0372635D02*
X0322668Y0373803D01*
X0322668Y0370300D01*
X0323835Y0370300D02*
X0321500Y0370300D01*
X0325091Y0370300D02*
X0327426Y0372635D01*
X0327426Y0373219D01*
X0326843Y0373803D01*
X0325675Y0373803D01*
X0325091Y0373219D01*
X0325091Y0370300D02*
X0327426Y0370300D01*
X0328682Y0371468D02*
X0329850Y0370300D01*
X0331017Y0371468D01*
X0331017Y0373803D01*
X0332273Y0373803D02*
X0334025Y0373803D01*
X0334609Y0373219D01*
X0334609Y0372051D01*
X0334025Y0371468D01*
X0332273Y0371468D01*
X0333441Y0371468D02*
X0334609Y0370300D01*
X0332273Y0370300D02*
X0332273Y0373803D01*
X0328682Y0373803D02*
X0328682Y0371468D01*
X0353500Y0375200D02*
X0356569Y0375200D01*
X0355035Y0375200D02*
X0355035Y0379804D01*
X0353500Y0378269D01*
X0358104Y0379037D02*
X0358871Y0379804D01*
X0360406Y0379804D01*
X0361173Y0379037D01*
X0361173Y0378269D01*
X0358104Y0375200D01*
X0361173Y0375200D01*
X0367312Y0376735D02*
X0368846Y0375200D01*
X0370381Y0376735D01*
X0370381Y0379804D01*
X0367312Y0379804D02*
X0367312Y0376735D01*
X0376520Y0375967D02*
X0377287Y0375200D01*
X0378822Y0375200D01*
X0379589Y0375967D01*
X0379589Y0379037D01*
X0378822Y0379804D01*
X0377287Y0379804D01*
X0376520Y0379037D01*
X0376520Y0375967D01*
X0381124Y0375967D02*
X0381124Y0379804D01*
X0384193Y0379804D02*
X0384193Y0375967D01*
X0383426Y0375200D01*
X0381891Y0375200D01*
X0381124Y0375967D01*
X0385727Y0379804D02*
X0388797Y0379804D01*
X0387262Y0379804D02*
X0387262Y0375200D01*
X0280589Y0285502D02*
X0280589Y0284735D01*
X0277520Y0284735D01*
X0277520Y0285502D02*
X0278287Y0286269D01*
X0279822Y0286269D01*
X0280589Y0285502D01*
X0279822Y0283200D02*
X0278287Y0283200D01*
X0277520Y0283967D01*
X0277520Y0285502D01*
X0275985Y0286269D02*
X0273683Y0286269D01*
X0272916Y0285502D01*
X0273683Y0284735D01*
X0275218Y0284735D01*
X0275985Y0283967D01*
X0275218Y0283200D01*
X0272916Y0283200D01*
X0271381Y0283200D02*
X0271381Y0285502D01*
X0270614Y0286269D01*
X0268312Y0286269D01*
X0268312Y0283200D01*
X0266777Y0284735D02*
X0263708Y0284735D01*
X0263708Y0285502D02*
X0264475Y0286269D01*
X0266010Y0286269D01*
X0266777Y0285502D01*
X0266777Y0284735D01*
X0266010Y0283200D02*
X0264475Y0283200D01*
X0263708Y0283967D01*
X0263708Y0285502D01*
X0262173Y0284735D02*
X0262173Y0283967D01*
X0261406Y0283200D01*
X0259871Y0283200D01*
X0259104Y0283967D01*
X0259871Y0285502D02*
X0261406Y0285502D01*
X0262173Y0284735D01*
X0262173Y0287037D02*
X0261406Y0287804D01*
X0259871Y0287804D01*
X0259104Y0287037D01*
X0259104Y0286269D01*
X0259871Y0285502D01*
X0257569Y0285502D02*
X0254500Y0285502D01*
X0254500Y0277804D02*
X0257569Y0277804D01*
X0256035Y0277804D02*
X0256035Y0273200D01*
X0259104Y0273200D02*
X0259104Y0276269D01*
X0259104Y0274735D02*
X0260639Y0276269D01*
X0261406Y0276269D01*
X0262941Y0276269D02*
X0263708Y0276269D01*
X0263708Y0273200D01*
X0262941Y0273200D02*
X0264475Y0273200D01*
X0266010Y0273200D02*
X0266010Y0276269D01*
X0266777Y0276269D01*
X0267544Y0275502D01*
X0268312Y0276269D01*
X0269079Y0275502D01*
X0269079Y0273200D01*
X0267544Y0273200D02*
X0267544Y0275502D01*
X0263708Y0277804D02*
X0263708Y0278571D01*
X0261406Y0267804D02*
X0259871Y0267804D01*
X0259104Y0267037D01*
X0259104Y0266269D01*
X0259871Y0265502D01*
X0261406Y0265502D01*
X0262173Y0264735D01*
X0262173Y0263967D01*
X0261406Y0263200D01*
X0259871Y0263200D01*
X0259104Y0263967D01*
X0257569Y0265502D02*
X0254500Y0265502D01*
X0256035Y0267037D02*
X0256035Y0263967D01*
X0261406Y0267804D02*
X0262173Y0267037D01*
X0263708Y0265502D02*
X0264475Y0266269D01*
X0266010Y0266269D01*
X0266777Y0265502D01*
X0266777Y0264735D01*
X0263708Y0264735D01*
X0263708Y0265502D02*
X0263708Y0263967D01*
X0264475Y0263200D01*
X0266010Y0263200D01*
X0268312Y0263200D02*
X0268312Y0266269D01*
X0270614Y0266269D01*
X0271381Y0265502D01*
X0271381Y0263200D01*
X0272916Y0263200D02*
X0275218Y0263200D01*
X0275985Y0263967D01*
X0275218Y0264735D01*
X0273683Y0264735D01*
X0272916Y0265502D01*
X0273683Y0266269D01*
X0275985Y0266269D01*
X0277520Y0265502D02*
X0278287Y0266269D01*
X0279822Y0266269D01*
X0280589Y0265502D01*
X0280589Y0264735D01*
X0277520Y0264735D01*
X0277520Y0265502D02*
X0277520Y0263967D01*
X0278287Y0263200D01*
X0279822Y0263200D01*
X0273683Y0247037D02*
X0273683Y0243967D01*
X0274450Y0243200D01*
X0271381Y0243200D02*
X0271381Y0246269D01*
X0272916Y0246269D02*
X0274450Y0246269D01*
X0271381Y0243200D02*
X0269079Y0243200D01*
X0268312Y0243967D01*
X0268312Y0246269D01*
X0266777Y0245502D02*
X0266010Y0246269D01*
X0264475Y0246269D01*
X0263708Y0245502D01*
X0263708Y0243967D01*
X0264475Y0243200D01*
X0266010Y0243200D01*
X0266777Y0243967D01*
X0266777Y0245502D01*
X0262173Y0244735D02*
X0262173Y0247804D01*
X0259104Y0247804D02*
X0259104Y0244735D01*
X0260639Y0243200D01*
X0262173Y0244735D01*
X0257569Y0245502D02*
X0254500Y0245502D01*
X0256035Y0247037D02*
X0256035Y0243967D01*
X0260639Y0303200D02*
X0262173Y0304735D01*
X0262173Y0307804D01*
X0263708Y0305502D02*
X0263708Y0303967D01*
X0264475Y0303200D01*
X0266010Y0303200D01*
X0266777Y0303967D01*
X0266777Y0305502D01*
X0266010Y0306269D01*
X0264475Y0306269D01*
X0263708Y0305502D01*
X0260639Y0303200D02*
X0259104Y0304735D01*
X0259104Y0307804D01*
X0257569Y0305502D02*
X0254500Y0305502D01*
X0268312Y0306269D02*
X0268312Y0303967D01*
X0269079Y0303200D01*
X0271381Y0303200D01*
X0271381Y0306269D01*
X0272916Y0306269D02*
X0274450Y0306269D01*
X0273683Y0307037D02*
X0273683Y0303967D01*
X0274450Y0303200D01*
X0209244Y0368200D02*
X0208077Y0369368D01*
X0208660Y0369368D02*
X0206909Y0369368D01*
X0206909Y0368200D02*
X0206909Y0371703D01*
X0208660Y0371703D01*
X0209244Y0371119D01*
X0209244Y0369951D01*
X0208660Y0369368D01*
X0205653Y0369368D02*
X0205653Y0371703D01*
X0203318Y0371703D02*
X0203318Y0369368D01*
X0204486Y0368200D01*
X0205653Y0369368D01*
X0202062Y0369368D02*
X0201478Y0369951D01*
X0200894Y0369951D01*
X0201478Y0369951D02*
X0202062Y0370535D01*
X0202062Y0371119D01*
X0201478Y0371703D01*
X0200311Y0371703D01*
X0199727Y0371119D01*
X0199727Y0368784D02*
X0200311Y0368200D01*
X0201478Y0368200D01*
X0202062Y0368784D01*
X0202062Y0369368D01*
X0198515Y0368784D02*
X0198515Y0368200D01*
X0197931Y0368200D01*
X0197931Y0368784D01*
X0198515Y0368784D01*
X0196676Y0368784D02*
X0196092Y0368200D01*
X0194924Y0368200D01*
X0194340Y0368784D01*
X0195508Y0369951D02*
X0196092Y0369951D01*
X0196676Y0369368D01*
X0196676Y0368784D01*
X0196092Y0369951D02*
X0196676Y0370535D01*
X0196676Y0371119D01*
X0196092Y0371703D01*
X0194924Y0371703D01*
X0194340Y0371119D01*
X0119846Y0305502D02*
X0119846Y0303200D01*
X0119846Y0305502D02*
X0119079Y0306269D01*
X0116777Y0306269D01*
X0116777Y0303200D01*
X0115242Y0303200D02*
X0113708Y0303200D01*
X0114475Y0303200D02*
X0114475Y0306269D01*
X0113708Y0306269D01*
X0114475Y0307804D02*
X0114475Y0308571D01*
X0112173Y0307804D02*
X0112173Y0304735D01*
X0110639Y0303200D01*
X0109104Y0304735D01*
X0109104Y0307804D01*
X0107569Y0305502D02*
X0104500Y0305502D01*
X0106035Y0307037D02*
X0106035Y0303967D01*
X0106802Y0277804D02*
X0107569Y0277037D01*
X0107569Y0273967D01*
X0106802Y0273200D01*
X0105267Y0273200D01*
X0104500Y0273967D01*
X0104500Y0277037D01*
X0105267Y0277804D01*
X0106802Y0277804D01*
X0109104Y0277804D02*
X0112173Y0273200D01*
X0112173Y0277804D01*
X0109104Y0277804D02*
X0109104Y0273200D01*
X0113708Y0273200D02*
X0116777Y0277804D01*
X0118312Y0277037D02*
X0118312Y0273967D01*
X0119079Y0273200D01*
X0120614Y0273200D01*
X0121381Y0273967D01*
X0121381Y0277037D01*
X0120614Y0277804D01*
X0119079Y0277804D01*
X0118312Y0277037D01*
X0122916Y0277804D02*
X0122916Y0273200D01*
X0122916Y0275502D02*
X0124450Y0275502D01*
X0122916Y0277804D02*
X0125985Y0277804D01*
X0127520Y0277804D02*
X0130589Y0277804D01*
X0129054Y0275502D02*
X0127520Y0275502D01*
X0127520Y0273200D02*
X0127520Y0277804D01*
X0114475Y0248571D02*
X0114475Y0247804D01*
X0114475Y0246269D02*
X0114475Y0243200D01*
X0113708Y0243200D02*
X0115242Y0243200D01*
X0116777Y0243200D02*
X0116777Y0246269D01*
X0119079Y0246269D01*
X0119846Y0245502D01*
X0119846Y0243200D01*
X0114475Y0246269D02*
X0113708Y0246269D01*
X0112173Y0244735D02*
X0110639Y0243200D01*
X0109104Y0244735D01*
X0109104Y0247804D01*
X0107569Y0245502D02*
X0104500Y0245502D01*
X0112173Y0244735D02*
X0112173Y0247804D01*
X0112798Y0180546D02*
X0112031Y0179779D01*
X0112031Y0177477D01*
X0115100Y0177477D01*
X0115100Y0175942D02*
X0115100Y0174408D01*
X0115100Y0175175D02*
X0112031Y0175175D01*
X0112031Y0174408D01*
X0110496Y0175175D02*
X0109729Y0175175D01*
X0110496Y0172873D02*
X0113565Y0172873D01*
X0115100Y0171339D01*
X0113565Y0169804D01*
X0110496Y0169804D01*
X0112798Y0168269D02*
X0112798Y0165200D01*
X0111263Y0166735D02*
X0114333Y0166735D01*
X0120496Y0169804D02*
X0123565Y0169804D01*
X0125100Y0171339D01*
X0123565Y0172873D01*
X0120496Y0172873D01*
X0122031Y0174408D02*
X0122031Y0175175D01*
X0125100Y0175175D01*
X0125100Y0174408D02*
X0125100Y0175942D01*
X0125100Y0177477D02*
X0122031Y0177477D01*
X0122031Y0179779D01*
X0122798Y0180546D01*
X0125100Y0180546D01*
X0120496Y0175175D02*
X0119729Y0175175D01*
X0115100Y0180546D02*
X0112798Y0180546D01*
X0122798Y0168269D02*
X0122798Y0165200D01*
X0121263Y0166735D02*
X0124333Y0166735D01*
X0125100Y0150546D02*
X0122798Y0150546D01*
X0122031Y0149779D01*
X0122031Y0147477D01*
X0125100Y0147477D01*
X0125100Y0145942D02*
X0125100Y0144408D01*
X0125100Y0145175D02*
X0122031Y0145175D01*
X0122031Y0144408D01*
X0120496Y0145175D02*
X0119729Y0145175D01*
X0120496Y0142873D02*
X0123565Y0142873D01*
X0125100Y0141339D01*
X0123565Y0139804D01*
X0120496Y0139804D01*
X0122798Y0138269D02*
X0122798Y0135200D01*
X0115100Y0141339D02*
X0113565Y0142873D01*
X0110496Y0142873D01*
X0112031Y0144408D02*
X0112031Y0145175D01*
X0115100Y0145175D01*
X0115100Y0144408D02*
X0115100Y0145942D01*
X0115100Y0147477D02*
X0112031Y0147477D01*
X0112031Y0149779D01*
X0112798Y0150546D01*
X0115100Y0150546D01*
X0110496Y0145175D02*
X0109729Y0145175D01*
X0105100Y0144408D02*
X0100496Y0147477D01*
X0101263Y0149012D02*
X0100496Y0149779D01*
X0100496Y0151314D01*
X0101263Y0152081D01*
X0104333Y0152081D01*
X0105100Y0151314D01*
X0105100Y0149779D01*
X0104333Y0149012D01*
X0101263Y0149012D01*
X0102798Y0153616D02*
X0102798Y0155150D01*
X0102798Y0156685D02*
X0102798Y0158220D01*
X0101263Y0157452D02*
X0100496Y0158220D01*
X0101263Y0157452D02*
X0105100Y0157452D01*
X0105100Y0154383D02*
X0101263Y0154383D01*
X0100496Y0155150D01*
X0102798Y0142873D02*
X0105100Y0142873D01*
X0102798Y0142873D02*
X0102031Y0142106D01*
X0102031Y0139804D01*
X0105100Y0139804D01*
X0104333Y0138269D02*
X0105100Y0137502D01*
X0105100Y0135967D01*
X0104333Y0135200D01*
X0101263Y0135200D01*
X0100496Y0135967D01*
X0100496Y0137502D01*
X0101263Y0138269D01*
X0104333Y0138269D01*
X0110496Y0139804D02*
X0113565Y0139804D01*
X0115100Y0141339D01*
X0112798Y0138269D02*
X0112798Y0135200D01*
X0087905Y0176200D02*
X0087905Y0180804D01*
X0084836Y0180804D02*
X0087905Y0176200D01*
X0084836Y0176200D02*
X0084836Y0180804D01*
X0083301Y0180804D02*
X0081767Y0180804D01*
X0082534Y0180804D02*
X0082534Y0176200D01*
X0081767Y0176200D02*
X0083301Y0176200D01*
X0075628Y0180037D02*
X0074094Y0178502D01*
X0074094Y0176200D01*
X0074094Y0178502D02*
X0072559Y0180037D01*
X0072559Y0180804D01*
X0071024Y0180037D02*
X0071024Y0178502D01*
X0070257Y0177735D01*
X0067955Y0177735D01*
X0069490Y0177735D02*
X0071024Y0176200D01*
X0067955Y0176200D02*
X0067955Y0180804D01*
X0070257Y0180804D01*
X0071024Y0180037D01*
X0075628Y0180037D02*
X0075628Y0180804D01*
X0066420Y0180804D02*
X0063351Y0180804D01*
X0063351Y0176200D01*
X0066420Y0176200D01*
X0064886Y0178502D02*
X0063351Y0178502D01*
X0061816Y0180804D02*
X0058747Y0180804D01*
X0057212Y0180804D02*
X0054143Y0180804D01*
X0055678Y0180804D02*
X0055678Y0176200D01*
X0052609Y0176200D02*
X0052609Y0179269D01*
X0051074Y0180804D01*
X0049539Y0179269D01*
X0049539Y0176200D01*
X0048005Y0176967D02*
X0047237Y0176200D01*
X0044935Y0176200D01*
X0044935Y0180804D01*
X0047237Y0180804D01*
X0048005Y0180037D01*
X0048005Y0179269D01*
X0047237Y0178502D01*
X0044935Y0178502D01*
X0047237Y0178502D02*
X0048005Y0177735D01*
X0048005Y0176967D01*
X0049539Y0178502D02*
X0052609Y0178502D01*
X0060282Y0176200D02*
X0060282Y0180804D01*
X0038797Y0180037D02*
X0038797Y0176967D01*
X0038029Y0176200D01*
X0035727Y0176200D01*
X0035727Y0180804D01*
X0038029Y0180804D01*
X0038797Y0180037D01*
X0034193Y0180804D02*
X0031124Y0180804D01*
X0031124Y0176200D01*
X0034193Y0176200D01*
X0032658Y0178502D02*
X0031124Y0178502D01*
X0029589Y0180037D02*
X0028822Y0180804D01*
X0027287Y0180804D01*
X0026520Y0180037D01*
X0026520Y0176967D01*
X0027287Y0176200D01*
X0028822Y0176200D01*
X0029589Y0176967D01*
X0024985Y0176200D02*
X0024985Y0180804D01*
X0021916Y0180804D02*
X0021916Y0176200D01*
X0020381Y0176200D02*
X0020381Y0179269D01*
X0018846Y0180804D01*
X0017312Y0179269D01*
X0017312Y0176200D01*
X0015777Y0176200D02*
X0012708Y0176200D01*
X0012708Y0180804D01*
X0011173Y0179269D02*
X0011173Y0176200D01*
X0011173Y0178502D02*
X0008104Y0178502D01*
X0008104Y0179269D02*
X0008104Y0176200D01*
X0006569Y0176967D02*
X0005802Y0176200D01*
X0003500Y0176200D01*
X0003500Y0180804D01*
X0005802Y0180804D01*
X0006569Y0180037D01*
X0006569Y0179269D01*
X0005802Y0178502D01*
X0003500Y0178502D01*
X0005802Y0178502D02*
X0006569Y0177735D01*
X0006569Y0176967D01*
X0008104Y0179269D02*
X0009639Y0180804D01*
X0011173Y0179269D01*
X0017312Y0178502D02*
X0020381Y0178502D01*
X0021916Y0180804D02*
X0024985Y0176200D01*
X0180496Y0167873D02*
X0183565Y0167873D01*
X0185100Y0166339D01*
X0183565Y0164804D01*
X0180496Y0164804D01*
X0182798Y0163269D02*
X0182798Y0160200D01*
X0182798Y0169408D02*
X0184333Y0169408D01*
X0185100Y0170175D01*
X0185100Y0171710D01*
X0184333Y0172477D01*
X0182798Y0172477D01*
X0182031Y0171710D01*
X0182031Y0170175D01*
X0182798Y0169408D01*
X0182031Y0174012D02*
X0184333Y0174012D01*
X0185100Y0174779D01*
X0185100Y0177081D01*
X0182031Y0177081D01*
X0182031Y0178616D02*
X0182031Y0180150D01*
X0181263Y0179383D02*
X0184333Y0179383D01*
X0185100Y0180150D01*
X0201263Y0179383D02*
X0204333Y0179383D01*
X0205100Y0180150D01*
X0205100Y0177081D02*
X0202031Y0177081D01*
X0202031Y0178616D02*
X0202031Y0180150D01*
X0205100Y0177081D02*
X0205100Y0174779D01*
X0204333Y0174012D01*
X0202031Y0174012D01*
X0202798Y0172477D02*
X0202031Y0171710D01*
X0202031Y0170175D01*
X0202798Y0169408D01*
X0204333Y0169408D01*
X0205100Y0170175D01*
X0205100Y0171710D01*
X0204333Y0172477D01*
X0202798Y0172477D01*
X0203565Y0167873D02*
X0200496Y0167873D01*
X0200496Y0164804D02*
X0203565Y0164804D01*
X0205100Y0166339D01*
X0203565Y0167873D01*
X0202798Y0163269D02*
X0202798Y0160200D01*
X0201263Y0161735D02*
X0204333Y0161735D01*
X0205100Y0145942D02*
X0205100Y0143641D01*
X0204333Y0142873D01*
X0202798Y0142873D01*
X0202031Y0143641D01*
X0202031Y0145942D01*
X0202031Y0141339D02*
X0202031Y0139804D01*
X0201263Y0140571D02*
X0204333Y0140571D01*
X0205100Y0141339D01*
X0205100Y0138269D02*
X0202798Y0138269D01*
X0202031Y0137502D01*
X0202031Y0135200D01*
X0205100Y0135200D01*
X0185100Y0135200D02*
X0182031Y0135200D01*
X0182031Y0137502D01*
X0182798Y0138269D01*
X0185100Y0138269D01*
X0184333Y0140571D02*
X0185100Y0141339D01*
X0184333Y0140571D02*
X0181263Y0140571D01*
X0182031Y0139804D02*
X0182031Y0141339D01*
X0182798Y0142873D02*
X0184333Y0142873D01*
X0185100Y0143641D01*
X0185100Y0145942D01*
X0182031Y0145942D02*
X0182031Y0143641D01*
X0182798Y0142873D01*
X0235597Y0094360D02*
X0237349Y0092609D01*
X0237349Y0094944D01*
X0239100Y0094360D02*
X0235597Y0094360D01*
X0236181Y0091353D02*
X0237349Y0091353D01*
X0237932Y0090769D01*
X0237932Y0089018D01*
X0237932Y0090186D02*
X0239100Y0091353D01*
X0239100Y0089018D02*
X0235597Y0089018D01*
X0235597Y0090769D01*
X0236181Y0091353D01*
X0241000Y0082126D02*
X0241000Y0079791D01*
X0241000Y0080959D02*
X0237497Y0080959D01*
X0238665Y0079791D01*
X0239249Y0078535D02*
X0239832Y0077951D01*
X0239832Y0076200D01*
X0239832Y0077368D02*
X0241000Y0078535D01*
X0239249Y0078535D02*
X0238081Y0078535D01*
X0237497Y0077951D01*
X0237497Y0076200D01*
X0241000Y0076200D01*
X0262597Y0089018D02*
X0262597Y0090769D01*
X0263181Y0091353D01*
X0264349Y0091353D01*
X0264932Y0090769D01*
X0264932Y0089018D01*
X0264932Y0090186D02*
X0266100Y0091353D01*
X0265516Y0092609D02*
X0266100Y0093193D01*
X0266100Y0094360D01*
X0265516Y0094944D01*
X0264932Y0094944D01*
X0264349Y0094360D01*
X0264349Y0093777D01*
X0264349Y0094360D02*
X0263765Y0094944D01*
X0263181Y0094944D01*
X0262597Y0094360D01*
X0262597Y0093193D01*
X0263181Y0092609D01*
X0262597Y0089018D02*
X0266100Y0089018D01*
X0277229Y0080839D02*
X0283367Y0080839D01*
X0282600Y0081606D02*
X0282600Y0080071D01*
X0281833Y0079304D01*
X0281833Y0077769D02*
X0277996Y0077769D01*
X0278763Y0079304D02*
X0277996Y0080071D01*
X0277996Y0081606D01*
X0278763Y0082373D01*
X0278763Y0083908D02*
X0279531Y0083908D01*
X0280298Y0084675D01*
X0280298Y0086210D01*
X0281065Y0086977D01*
X0281833Y0086977D01*
X0282600Y0086210D01*
X0282600Y0084675D01*
X0281833Y0083908D01*
X0281065Y0083908D01*
X0280298Y0084675D01*
X0280298Y0086210D02*
X0279531Y0086977D01*
X0278763Y0086977D01*
X0277996Y0086210D01*
X0277996Y0084675D01*
X0278763Y0083908D01*
X0280298Y0081606D02*
X0280298Y0080071D01*
X0279531Y0079304D01*
X0278763Y0079304D01*
X0280298Y0081606D02*
X0281065Y0082373D01*
X0281833Y0082373D01*
X0282600Y0081606D01*
X0281833Y0077769D02*
X0282600Y0077002D01*
X0282600Y0075467D01*
X0281833Y0074700D01*
X0277996Y0074700D01*
X0215000Y0076200D02*
X0211497Y0076200D01*
X0211497Y0077951D01*
X0212081Y0078535D01*
X0213249Y0078535D01*
X0213832Y0077951D01*
X0213832Y0076200D01*
X0213832Y0077368D02*
X0215000Y0078535D01*
X0215000Y0079791D02*
X0212665Y0082126D01*
X0212081Y0082126D01*
X0211497Y0081543D01*
X0211497Y0080375D01*
X0212081Y0079791D01*
X0215000Y0079791D02*
X0215000Y0082126D01*
X0262497Y0147200D02*
X0262497Y0148951D01*
X0263081Y0149535D01*
X0264249Y0149535D01*
X0264832Y0148951D01*
X0264832Y0147200D01*
X0264832Y0148368D02*
X0266000Y0149535D01*
X0265416Y0150791D02*
X0266000Y0151375D01*
X0266000Y0152543D01*
X0265416Y0153126D01*
X0264249Y0153126D01*
X0263665Y0152543D01*
X0263665Y0151959D01*
X0264249Y0150791D01*
X0262497Y0150791D01*
X0262497Y0153126D01*
X0262497Y0147200D02*
X0266000Y0147200D01*
X0274497Y0147200D02*
X0274497Y0148951D01*
X0275081Y0149535D01*
X0276249Y0149535D01*
X0276832Y0148951D01*
X0276832Y0147200D01*
X0276832Y0148368D02*
X0278000Y0149535D01*
X0277416Y0150791D02*
X0278000Y0151375D01*
X0278000Y0152543D01*
X0277416Y0153126D01*
X0276832Y0153126D01*
X0276249Y0152543D01*
X0276249Y0150791D01*
X0277416Y0150791D01*
X0276249Y0150791D02*
X0275081Y0151959D01*
X0274497Y0153126D01*
X0274497Y0147200D02*
X0278000Y0147200D01*
X0346597Y0193018D02*
X0346597Y0194769D01*
X0347181Y0195353D01*
X0348349Y0195353D01*
X0348932Y0194769D01*
X0348932Y0193018D01*
X0348932Y0194186D02*
X0350100Y0195353D01*
X0350100Y0196609D02*
X0349516Y0196609D01*
X0347181Y0198944D01*
X0346597Y0198944D01*
X0346597Y0196609D01*
X0346597Y0193018D02*
X0350100Y0193018D01*
X0356500Y0183803D02*
X0358251Y0183803D01*
X0358835Y0183219D01*
X0358835Y0182051D01*
X0358251Y0181468D01*
X0356500Y0181468D01*
X0357668Y0181468D02*
X0358835Y0180300D01*
X0360091Y0180884D02*
X0360091Y0181468D01*
X0360675Y0182051D01*
X0361843Y0182051D01*
X0362426Y0181468D01*
X0362426Y0180884D01*
X0361843Y0180300D01*
X0360675Y0180300D01*
X0360091Y0180884D01*
X0360675Y0182051D02*
X0360091Y0182635D01*
X0360091Y0183219D01*
X0360675Y0183803D01*
X0361843Y0183803D01*
X0362426Y0183219D01*
X0362426Y0182635D01*
X0361843Y0182051D01*
X0356500Y0180300D02*
X0356500Y0183803D01*
X0059744Y0353000D02*
X0058577Y0354168D01*
X0059160Y0354168D02*
X0057409Y0354168D01*
X0057409Y0353000D02*
X0057409Y0356503D01*
X0059160Y0356503D01*
X0059744Y0355919D01*
X0059744Y0354751D01*
X0059160Y0354168D01*
X0056153Y0353584D02*
X0056153Y0355919D01*
X0055569Y0356503D01*
X0053818Y0356503D01*
X0053818Y0353000D01*
X0055569Y0353000D01*
X0056153Y0353584D01*
X0052562Y0353000D02*
X0050227Y0353000D01*
X0050227Y0356503D01*
X0052562Y0356503D01*
X0051394Y0354751D02*
X0050227Y0354751D01*
X0048971Y0353584D02*
X0048387Y0353000D01*
X0047220Y0353000D01*
X0046636Y0353584D01*
X0046636Y0355919D01*
X0047220Y0356503D01*
X0048387Y0356503D01*
X0048971Y0355919D01*
X0045380Y0356503D02*
X0045380Y0353000D01*
X0043045Y0356503D01*
X0043045Y0353000D01*
X0041789Y0353000D02*
X0041789Y0355335D01*
X0040621Y0356503D01*
X0039454Y0355335D01*
X0039454Y0353000D01*
X0038198Y0353000D02*
X0035863Y0353000D01*
X0035863Y0356503D01*
X0034607Y0355335D02*
X0034607Y0353000D01*
X0034607Y0354751D02*
X0032271Y0354751D01*
X0032271Y0355335D02*
X0033439Y0356503D01*
X0034607Y0355335D01*
X0032271Y0355335D02*
X0032271Y0353000D01*
X0031016Y0353584D02*
X0031016Y0354168D01*
X0030432Y0354751D01*
X0028680Y0354751D01*
X0028680Y0353000D02*
X0028680Y0356503D01*
X0030432Y0356503D01*
X0031016Y0355919D01*
X0031016Y0355335D01*
X0030432Y0354751D01*
X0031016Y0353584D02*
X0030432Y0353000D01*
X0028680Y0353000D01*
X0039454Y0354751D02*
X0041789Y0354751D01*
D12*
X0037800Y0359000D02*
X0036300Y0359000D01*
X0036240Y0359002D01*
X0036179Y0359007D01*
X0036120Y0359016D01*
X0036061Y0359029D01*
X0036002Y0359045D01*
X0035945Y0359065D01*
X0035890Y0359088D01*
X0035835Y0359115D01*
X0035783Y0359144D01*
X0035732Y0359177D01*
X0035683Y0359213D01*
X0035637Y0359251D01*
X0035593Y0359293D01*
X0035551Y0359337D01*
X0035513Y0359383D01*
X0035477Y0359432D01*
X0035444Y0359483D01*
X0035415Y0359535D01*
X0035388Y0359590D01*
X0035365Y0359645D01*
X0035345Y0359702D01*
X0035329Y0359761D01*
X0035316Y0359820D01*
X0035307Y0359879D01*
X0035302Y0359940D01*
X0035300Y0360000D01*
X0035300Y0366000D01*
X0035302Y0366060D01*
X0035307Y0366121D01*
X0035316Y0366180D01*
X0035329Y0366239D01*
X0035345Y0366298D01*
X0035365Y0366355D01*
X0035388Y0366410D01*
X0035415Y0366465D01*
X0035444Y0366517D01*
X0035477Y0366568D01*
X0035513Y0366617D01*
X0035551Y0366663D01*
X0035593Y0366707D01*
X0035637Y0366749D01*
X0035683Y0366787D01*
X0035732Y0366823D01*
X0035783Y0366856D01*
X0035835Y0366885D01*
X0035890Y0366912D01*
X0035945Y0366935D01*
X0036002Y0366955D01*
X0036061Y0366971D01*
X0036120Y0366984D01*
X0036179Y0366993D01*
X0036240Y0366998D01*
X0036300Y0367000D01*
X0037800Y0367000D01*
X0038300Y0366500D01*
X0052300Y0366500D01*
X0052800Y0367000D01*
X0054300Y0367000D01*
X0054360Y0366998D01*
X0054421Y0366993D01*
X0054480Y0366984D01*
X0054539Y0366971D01*
X0054598Y0366955D01*
X0054655Y0366935D01*
X0054710Y0366912D01*
X0054765Y0366885D01*
X0054817Y0366856D01*
X0054868Y0366823D01*
X0054917Y0366787D01*
X0054963Y0366749D01*
X0055007Y0366707D01*
X0055049Y0366663D01*
X0055087Y0366617D01*
X0055123Y0366568D01*
X0055156Y0366517D01*
X0055185Y0366465D01*
X0055212Y0366410D01*
X0055235Y0366355D01*
X0055255Y0366298D01*
X0055271Y0366239D01*
X0055284Y0366180D01*
X0055293Y0366121D01*
X0055298Y0366060D01*
X0055300Y0366000D01*
X0055300Y0360000D01*
X0055298Y0359940D01*
X0055293Y0359879D01*
X0055284Y0359820D01*
X0055271Y0359761D01*
X0055255Y0359702D01*
X0055235Y0359645D01*
X0055212Y0359590D01*
X0055185Y0359535D01*
X0055156Y0359483D01*
X0055123Y0359432D01*
X0055087Y0359383D01*
X0055049Y0359337D01*
X0055007Y0359293D01*
X0054963Y0359251D01*
X0054917Y0359213D01*
X0054868Y0359177D01*
X0054817Y0359144D01*
X0054765Y0359115D01*
X0054710Y0359088D01*
X0054655Y0359065D01*
X0054598Y0359045D01*
X0054539Y0359029D01*
X0054480Y0359016D01*
X0054421Y0359007D01*
X0054360Y0359002D01*
X0054300Y0359000D01*
X0052800Y0359000D01*
X0052300Y0359500D01*
X0038300Y0359500D01*
X0037800Y0359000D01*
X0048426Y0385063D02*
X0064174Y0385063D01*
X0064174Y0392937D01*
X0048426Y0392937D02*
X0048426Y0385063D01*
X0083600Y0381103D02*
X0087870Y0381103D01*
X0085735Y0383238D02*
X0085735Y0378968D01*
X0125100Y0382403D02*
X0129370Y0382403D01*
X0153600Y0383503D02*
X0157870Y0383503D01*
X0155735Y0385638D02*
X0155735Y0381368D01*
X0194600Y0383503D02*
X0198870Y0383503D01*
X0211426Y0385063D02*
X0227174Y0385063D01*
X0227174Y0392937D01*
X0211426Y0392937D02*
X0211426Y0385063D01*
X0217800Y0366000D02*
X0217300Y0365500D01*
X0203300Y0365500D01*
X0202800Y0366000D01*
X0201300Y0366000D01*
X0201240Y0365998D01*
X0201179Y0365993D01*
X0201120Y0365984D01*
X0201061Y0365971D01*
X0201002Y0365955D01*
X0200945Y0365935D01*
X0200890Y0365912D01*
X0200835Y0365885D01*
X0200783Y0365856D01*
X0200732Y0365823D01*
X0200683Y0365787D01*
X0200637Y0365749D01*
X0200593Y0365707D01*
X0200551Y0365663D01*
X0200513Y0365617D01*
X0200477Y0365568D01*
X0200444Y0365517D01*
X0200415Y0365465D01*
X0200388Y0365410D01*
X0200365Y0365355D01*
X0200345Y0365298D01*
X0200329Y0365239D01*
X0200316Y0365180D01*
X0200307Y0365121D01*
X0200302Y0365060D01*
X0200300Y0365000D01*
X0200300Y0359000D01*
X0200302Y0358940D01*
X0200307Y0358879D01*
X0200316Y0358820D01*
X0200329Y0358761D01*
X0200345Y0358702D01*
X0200365Y0358645D01*
X0200388Y0358590D01*
X0200415Y0358535D01*
X0200444Y0358483D01*
X0200477Y0358432D01*
X0200513Y0358383D01*
X0200551Y0358337D01*
X0200593Y0358293D01*
X0200637Y0358251D01*
X0200683Y0358213D01*
X0200732Y0358177D01*
X0200783Y0358144D01*
X0200835Y0358115D01*
X0200890Y0358088D01*
X0200945Y0358065D01*
X0201002Y0358045D01*
X0201061Y0358029D01*
X0201120Y0358016D01*
X0201179Y0358007D01*
X0201240Y0358002D01*
X0201300Y0358000D01*
X0202800Y0358000D01*
X0203300Y0358500D01*
X0217300Y0358500D01*
X0217800Y0358000D01*
X0219300Y0358000D01*
X0219360Y0358002D01*
X0219421Y0358007D01*
X0219480Y0358016D01*
X0219539Y0358029D01*
X0219598Y0358045D01*
X0219655Y0358065D01*
X0219710Y0358088D01*
X0219765Y0358115D01*
X0219817Y0358144D01*
X0219868Y0358177D01*
X0219917Y0358213D01*
X0219963Y0358251D01*
X0220007Y0358293D01*
X0220049Y0358337D01*
X0220087Y0358383D01*
X0220123Y0358432D01*
X0220156Y0358483D01*
X0220185Y0358535D01*
X0220212Y0358590D01*
X0220235Y0358645D01*
X0220255Y0358702D01*
X0220271Y0358761D01*
X0220284Y0358820D01*
X0220293Y0358879D01*
X0220298Y0358940D01*
X0220300Y0359000D01*
X0220300Y0365000D01*
X0220298Y0365060D01*
X0220293Y0365121D01*
X0220284Y0365180D01*
X0220271Y0365239D01*
X0220255Y0365298D01*
X0220235Y0365355D01*
X0220212Y0365410D01*
X0220185Y0365465D01*
X0220156Y0365517D01*
X0220123Y0365568D01*
X0220087Y0365617D01*
X0220049Y0365663D01*
X0220007Y0365707D01*
X0219963Y0365749D01*
X0219917Y0365787D01*
X0219868Y0365823D01*
X0219817Y0365856D01*
X0219765Y0365885D01*
X0219710Y0365912D01*
X0219655Y0365935D01*
X0219598Y0365955D01*
X0219539Y0365971D01*
X0219480Y0365984D01*
X0219421Y0365993D01*
X0219360Y0365998D01*
X0219300Y0366000D01*
X0217800Y0366000D01*
X0263600Y0381503D02*
X0267870Y0381503D01*
X0265735Y0383638D02*
X0265735Y0379368D01*
X0304600Y0381503D02*
X0308870Y0381503D01*
X0321300Y0368000D02*
X0322800Y0368000D01*
X0323300Y0367500D01*
X0337300Y0367500D01*
X0337800Y0368000D01*
X0339300Y0368000D01*
X0339360Y0367998D01*
X0339421Y0367993D01*
X0339480Y0367984D01*
X0339539Y0367971D01*
X0339598Y0367955D01*
X0339655Y0367935D01*
X0339710Y0367912D01*
X0339765Y0367885D01*
X0339817Y0367856D01*
X0339868Y0367823D01*
X0339917Y0367787D01*
X0339963Y0367749D01*
X0340007Y0367707D01*
X0340049Y0367663D01*
X0340087Y0367617D01*
X0340123Y0367568D01*
X0340156Y0367517D01*
X0340185Y0367465D01*
X0340212Y0367410D01*
X0340235Y0367355D01*
X0340255Y0367298D01*
X0340271Y0367239D01*
X0340284Y0367180D01*
X0340293Y0367121D01*
X0340298Y0367060D01*
X0340300Y0367000D01*
X0340300Y0361000D01*
X0340298Y0360940D01*
X0340293Y0360879D01*
X0340284Y0360820D01*
X0340271Y0360761D01*
X0340255Y0360702D01*
X0340235Y0360645D01*
X0340212Y0360590D01*
X0340185Y0360535D01*
X0340156Y0360483D01*
X0340123Y0360432D01*
X0340087Y0360383D01*
X0340049Y0360337D01*
X0340007Y0360293D01*
X0339963Y0360251D01*
X0339917Y0360213D01*
X0339868Y0360177D01*
X0339817Y0360144D01*
X0339765Y0360115D01*
X0339710Y0360088D01*
X0339655Y0360065D01*
X0339598Y0360045D01*
X0339539Y0360029D01*
X0339480Y0360016D01*
X0339421Y0360007D01*
X0339360Y0360002D01*
X0339300Y0360000D01*
X0337800Y0360000D01*
X0337300Y0360500D01*
X0323300Y0360500D01*
X0322800Y0360000D01*
X0321300Y0360000D01*
X0321240Y0360002D01*
X0321179Y0360007D01*
X0321120Y0360016D01*
X0321061Y0360029D01*
X0321002Y0360045D01*
X0320945Y0360065D01*
X0320890Y0360088D01*
X0320835Y0360115D01*
X0320783Y0360144D01*
X0320732Y0360177D01*
X0320683Y0360213D01*
X0320637Y0360251D01*
X0320593Y0360293D01*
X0320551Y0360337D01*
X0320513Y0360383D01*
X0320477Y0360432D01*
X0320444Y0360483D01*
X0320415Y0360535D01*
X0320388Y0360590D01*
X0320365Y0360645D01*
X0320345Y0360702D01*
X0320329Y0360761D01*
X0320316Y0360820D01*
X0320307Y0360879D01*
X0320302Y0360940D01*
X0320300Y0361000D01*
X0320300Y0367000D01*
X0320302Y0367060D01*
X0320307Y0367121D01*
X0320316Y0367180D01*
X0320329Y0367239D01*
X0320345Y0367298D01*
X0320365Y0367355D01*
X0320388Y0367410D01*
X0320415Y0367465D01*
X0320444Y0367517D01*
X0320477Y0367568D01*
X0320513Y0367617D01*
X0320551Y0367663D01*
X0320593Y0367707D01*
X0320637Y0367749D01*
X0320683Y0367787D01*
X0320732Y0367823D01*
X0320783Y0367856D01*
X0320835Y0367885D01*
X0320890Y0367912D01*
X0320945Y0367935D01*
X0321002Y0367955D01*
X0321061Y0367971D01*
X0321120Y0367984D01*
X0321179Y0367993D01*
X0321240Y0367998D01*
X0321300Y0368000D01*
X0334426Y0385063D02*
X0350174Y0385063D01*
X0350174Y0392937D01*
X0334426Y0392937D02*
X0334426Y0385063D01*
X0330299Y0207675D02*
X0312583Y0207675D01*
X0312583Y0192557D01*
X0330299Y0192557D01*
X0330299Y0207675D01*
X0338300Y0200000D02*
X0344300Y0200000D01*
X0344360Y0199998D01*
X0344421Y0199993D01*
X0344480Y0199984D01*
X0344539Y0199971D01*
X0344598Y0199955D01*
X0344655Y0199935D01*
X0344710Y0199912D01*
X0344765Y0199885D01*
X0344817Y0199856D01*
X0344868Y0199823D01*
X0344917Y0199787D01*
X0344963Y0199749D01*
X0345007Y0199707D01*
X0345049Y0199663D01*
X0345087Y0199617D01*
X0345123Y0199568D01*
X0345156Y0199517D01*
X0345185Y0199465D01*
X0345212Y0199410D01*
X0345235Y0199355D01*
X0345255Y0199298D01*
X0345271Y0199239D01*
X0345284Y0199180D01*
X0345293Y0199121D01*
X0345298Y0199060D01*
X0345300Y0199000D01*
X0345300Y0197500D01*
X0344800Y0197000D01*
X0344800Y0183000D01*
X0345300Y0182500D01*
X0345300Y0181000D01*
X0345298Y0180940D01*
X0345293Y0180879D01*
X0345284Y0180820D01*
X0345271Y0180761D01*
X0345255Y0180702D01*
X0345235Y0180645D01*
X0345212Y0180590D01*
X0345185Y0180535D01*
X0345156Y0180483D01*
X0345123Y0180432D01*
X0345087Y0180383D01*
X0345049Y0180337D01*
X0345007Y0180293D01*
X0344963Y0180251D01*
X0344917Y0180213D01*
X0344868Y0180177D01*
X0344817Y0180144D01*
X0344765Y0180115D01*
X0344710Y0180088D01*
X0344655Y0180065D01*
X0344598Y0180045D01*
X0344539Y0180029D01*
X0344480Y0180016D01*
X0344421Y0180007D01*
X0344360Y0180002D01*
X0344300Y0180000D01*
X0338300Y0180000D01*
X0338240Y0180002D01*
X0338179Y0180007D01*
X0338120Y0180016D01*
X0338061Y0180029D01*
X0338002Y0180045D01*
X0337945Y0180065D01*
X0337890Y0180088D01*
X0337835Y0180115D01*
X0337783Y0180144D01*
X0337732Y0180177D01*
X0337683Y0180213D01*
X0337637Y0180251D01*
X0337593Y0180293D01*
X0337551Y0180337D01*
X0337513Y0180383D01*
X0337477Y0180432D01*
X0337444Y0180483D01*
X0337415Y0180535D01*
X0337388Y0180590D01*
X0337365Y0180645D01*
X0337345Y0180702D01*
X0337329Y0180761D01*
X0337316Y0180820D01*
X0337307Y0180879D01*
X0337302Y0180940D01*
X0337300Y0181000D01*
X0337300Y0182500D01*
X0337800Y0183000D01*
X0337800Y0197000D01*
X0337300Y0197500D01*
X0337300Y0199000D01*
X0337302Y0199060D01*
X0337307Y0199121D01*
X0337316Y0199180D01*
X0337329Y0199239D01*
X0337345Y0199298D01*
X0337365Y0199355D01*
X0337388Y0199410D01*
X0337415Y0199465D01*
X0337444Y0199517D01*
X0337477Y0199568D01*
X0337513Y0199617D01*
X0337551Y0199663D01*
X0337593Y0199707D01*
X0337637Y0199749D01*
X0337683Y0199787D01*
X0337732Y0199823D01*
X0337783Y0199856D01*
X0337835Y0199885D01*
X0337890Y0199912D01*
X0337945Y0199935D01*
X0338002Y0199955D01*
X0338061Y0199971D01*
X0338120Y0199984D01*
X0338179Y0199993D01*
X0338240Y0199998D01*
X0338300Y0200000D01*
X0357300Y0179000D02*
X0358800Y0179000D01*
X0359300Y0178500D01*
X0373300Y0178500D01*
X0373800Y0179000D01*
X0375300Y0179000D01*
X0375360Y0178998D01*
X0375421Y0178993D01*
X0375480Y0178984D01*
X0375539Y0178971D01*
X0375598Y0178955D01*
X0375655Y0178935D01*
X0375710Y0178912D01*
X0375765Y0178885D01*
X0375817Y0178856D01*
X0375868Y0178823D01*
X0375917Y0178787D01*
X0375963Y0178749D01*
X0376007Y0178707D01*
X0376049Y0178663D01*
X0376087Y0178617D01*
X0376123Y0178568D01*
X0376156Y0178517D01*
X0376185Y0178465D01*
X0376212Y0178410D01*
X0376235Y0178355D01*
X0376255Y0178298D01*
X0376271Y0178239D01*
X0376284Y0178180D01*
X0376293Y0178121D01*
X0376298Y0178060D01*
X0376300Y0178000D01*
X0376300Y0172000D01*
X0376298Y0171940D01*
X0376293Y0171879D01*
X0376284Y0171820D01*
X0376271Y0171761D01*
X0376255Y0171702D01*
X0376235Y0171645D01*
X0376212Y0171590D01*
X0376185Y0171535D01*
X0376156Y0171483D01*
X0376123Y0171432D01*
X0376087Y0171383D01*
X0376049Y0171337D01*
X0376007Y0171293D01*
X0375963Y0171251D01*
X0375917Y0171213D01*
X0375868Y0171177D01*
X0375817Y0171144D01*
X0375765Y0171115D01*
X0375710Y0171088D01*
X0375655Y0171065D01*
X0375598Y0171045D01*
X0375539Y0171029D01*
X0375480Y0171016D01*
X0375421Y0171007D01*
X0375360Y0171002D01*
X0375300Y0171000D01*
X0373800Y0171000D01*
X0373300Y0171500D01*
X0359300Y0171500D01*
X0358800Y0171000D01*
X0357300Y0171000D01*
X0357240Y0171002D01*
X0357179Y0171007D01*
X0357120Y0171016D01*
X0357061Y0171029D01*
X0357002Y0171045D01*
X0356945Y0171065D01*
X0356890Y0171088D01*
X0356835Y0171115D01*
X0356783Y0171144D01*
X0356732Y0171177D01*
X0356683Y0171213D01*
X0356637Y0171251D01*
X0356593Y0171293D01*
X0356551Y0171337D01*
X0356513Y0171383D01*
X0356477Y0171432D01*
X0356444Y0171483D01*
X0356415Y0171535D01*
X0356388Y0171590D01*
X0356365Y0171645D01*
X0356345Y0171702D01*
X0356329Y0171761D01*
X0356316Y0171820D01*
X0356307Y0171879D01*
X0356302Y0171940D01*
X0356300Y0172000D01*
X0356300Y0178000D01*
X0356302Y0178060D01*
X0356307Y0178121D01*
X0356316Y0178180D01*
X0356329Y0178239D01*
X0356345Y0178298D01*
X0356365Y0178355D01*
X0356388Y0178410D01*
X0356415Y0178465D01*
X0356444Y0178517D01*
X0356477Y0178568D01*
X0356513Y0178617D01*
X0356551Y0178663D01*
X0356593Y0178707D01*
X0356637Y0178749D01*
X0356683Y0178787D01*
X0356732Y0178823D01*
X0356783Y0178856D01*
X0356835Y0178885D01*
X0356890Y0178912D01*
X0356945Y0178935D01*
X0357002Y0178955D01*
X0357061Y0178971D01*
X0357120Y0178984D01*
X0357179Y0178993D01*
X0357240Y0178998D01*
X0357300Y0179000D01*
X0287300Y0166000D02*
X0287300Y0164500D01*
X0286800Y0164000D01*
X0286800Y0150000D01*
X0287300Y0149500D01*
X0287300Y0148000D01*
X0287298Y0147940D01*
X0287293Y0147879D01*
X0287284Y0147820D01*
X0287271Y0147761D01*
X0287255Y0147702D01*
X0287235Y0147645D01*
X0287212Y0147590D01*
X0287185Y0147535D01*
X0287156Y0147483D01*
X0287123Y0147432D01*
X0287087Y0147383D01*
X0287049Y0147337D01*
X0287007Y0147293D01*
X0286963Y0147251D01*
X0286917Y0147213D01*
X0286868Y0147177D01*
X0286817Y0147144D01*
X0286765Y0147115D01*
X0286710Y0147088D01*
X0286655Y0147065D01*
X0286598Y0147045D01*
X0286539Y0147029D01*
X0286480Y0147016D01*
X0286421Y0147007D01*
X0286360Y0147002D01*
X0286300Y0147000D01*
X0280300Y0147000D01*
X0280240Y0147002D01*
X0280179Y0147007D01*
X0280120Y0147016D01*
X0280061Y0147029D01*
X0280002Y0147045D01*
X0279945Y0147065D01*
X0279890Y0147088D01*
X0279835Y0147115D01*
X0279783Y0147144D01*
X0279732Y0147177D01*
X0279683Y0147213D01*
X0279637Y0147251D01*
X0279593Y0147293D01*
X0279551Y0147337D01*
X0279513Y0147383D01*
X0279477Y0147432D01*
X0279444Y0147483D01*
X0279415Y0147535D01*
X0279388Y0147590D01*
X0279365Y0147645D01*
X0279345Y0147702D01*
X0279329Y0147761D01*
X0279316Y0147820D01*
X0279307Y0147879D01*
X0279302Y0147940D01*
X0279300Y0148000D01*
X0279300Y0149500D01*
X0279800Y0150000D01*
X0279800Y0164000D01*
X0279300Y0164500D01*
X0279300Y0166000D01*
X0279302Y0166060D01*
X0279307Y0166121D01*
X0279316Y0166180D01*
X0279329Y0166239D01*
X0279345Y0166298D01*
X0279365Y0166355D01*
X0279388Y0166410D01*
X0279415Y0166465D01*
X0279444Y0166517D01*
X0279477Y0166568D01*
X0279513Y0166617D01*
X0279551Y0166663D01*
X0279593Y0166707D01*
X0279637Y0166749D01*
X0279683Y0166787D01*
X0279732Y0166823D01*
X0279783Y0166856D01*
X0279835Y0166885D01*
X0279890Y0166912D01*
X0279945Y0166935D01*
X0280002Y0166955D01*
X0280061Y0166971D01*
X0280120Y0166984D01*
X0280179Y0166993D01*
X0280240Y0166998D01*
X0280300Y0167000D01*
X0286300Y0167000D01*
X0286360Y0166998D01*
X0286421Y0166993D01*
X0286480Y0166984D01*
X0286539Y0166971D01*
X0286598Y0166955D01*
X0286655Y0166935D01*
X0286710Y0166912D01*
X0286765Y0166885D01*
X0286817Y0166856D01*
X0286868Y0166823D01*
X0286917Y0166787D01*
X0286963Y0166749D01*
X0287007Y0166707D01*
X0287049Y0166663D01*
X0287087Y0166617D01*
X0287123Y0166568D01*
X0287156Y0166517D01*
X0287185Y0166465D01*
X0287212Y0166410D01*
X0287235Y0166355D01*
X0287255Y0166298D01*
X0287271Y0166239D01*
X0287284Y0166180D01*
X0287293Y0166121D01*
X0287298Y0166060D01*
X0287300Y0166000D01*
X0275300Y0166000D02*
X0275300Y0164500D01*
X0274800Y0164000D01*
X0274800Y0150000D01*
X0275300Y0149500D01*
X0275300Y0148000D01*
X0275298Y0147940D01*
X0275293Y0147879D01*
X0275284Y0147820D01*
X0275271Y0147761D01*
X0275255Y0147702D01*
X0275235Y0147645D01*
X0275212Y0147590D01*
X0275185Y0147535D01*
X0275156Y0147483D01*
X0275123Y0147432D01*
X0275087Y0147383D01*
X0275049Y0147337D01*
X0275007Y0147293D01*
X0274963Y0147251D01*
X0274917Y0147213D01*
X0274868Y0147177D01*
X0274817Y0147144D01*
X0274765Y0147115D01*
X0274710Y0147088D01*
X0274655Y0147065D01*
X0274598Y0147045D01*
X0274539Y0147029D01*
X0274480Y0147016D01*
X0274421Y0147007D01*
X0274360Y0147002D01*
X0274300Y0147000D01*
X0268300Y0147000D01*
X0268240Y0147002D01*
X0268179Y0147007D01*
X0268120Y0147016D01*
X0268061Y0147029D01*
X0268002Y0147045D01*
X0267945Y0147065D01*
X0267890Y0147088D01*
X0267835Y0147115D01*
X0267783Y0147144D01*
X0267732Y0147177D01*
X0267683Y0147213D01*
X0267637Y0147251D01*
X0267593Y0147293D01*
X0267551Y0147337D01*
X0267513Y0147383D01*
X0267477Y0147432D01*
X0267444Y0147483D01*
X0267415Y0147535D01*
X0267388Y0147590D01*
X0267365Y0147645D01*
X0267345Y0147702D01*
X0267329Y0147761D01*
X0267316Y0147820D01*
X0267307Y0147879D01*
X0267302Y0147940D01*
X0267300Y0148000D01*
X0267300Y0149500D01*
X0267800Y0150000D01*
X0267800Y0164000D01*
X0267300Y0164500D01*
X0267300Y0166000D01*
X0267302Y0166060D01*
X0267307Y0166121D01*
X0267316Y0166180D01*
X0267329Y0166239D01*
X0267345Y0166298D01*
X0267365Y0166355D01*
X0267388Y0166410D01*
X0267415Y0166465D01*
X0267444Y0166517D01*
X0267477Y0166568D01*
X0267513Y0166617D01*
X0267551Y0166663D01*
X0267593Y0166707D01*
X0267637Y0166749D01*
X0267683Y0166787D01*
X0267732Y0166823D01*
X0267783Y0166856D01*
X0267835Y0166885D01*
X0267890Y0166912D01*
X0267945Y0166935D01*
X0268002Y0166955D01*
X0268061Y0166971D01*
X0268120Y0166984D01*
X0268179Y0166993D01*
X0268240Y0166998D01*
X0268300Y0167000D01*
X0274300Y0167000D01*
X0274360Y0166998D01*
X0274421Y0166993D01*
X0274480Y0166984D01*
X0274539Y0166971D01*
X0274598Y0166955D01*
X0274655Y0166935D01*
X0274710Y0166912D01*
X0274765Y0166885D01*
X0274817Y0166856D01*
X0274868Y0166823D01*
X0274917Y0166787D01*
X0274963Y0166749D01*
X0275007Y0166707D01*
X0275049Y0166663D01*
X0275087Y0166617D01*
X0275123Y0166568D01*
X0275156Y0166517D01*
X0275185Y0166465D01*
X0275212Y0166410D01*
X0275235Y0166355D01*
X0275255Y0166298D01*
X0275271Y0166239D01*
X0275284Y0166180D01*
X0275293Y0166121D01*
X0275298Y0166060D01*
X0275300Y0166000D01*
X0260300Y0096000D02*
X0254300Y0096000D01*
X0254240Y0095998D01*
X0254179Y0095993D01*
X0254120Y0095984D01*
X0254061Y0095971D01*
X0254002Y0095955D01*
X0253945Y0095935D01*
X0253890Y0095912D01*
X0253835Y0095885D01*
X0253783Y0095856D01*
X0253732Y0095823D01*
X0253683Y0095787D01*
X0253637Y0095749D01*
X0253593Y0095707D01*
X0253551Y0095663D01*
X0253513Y0095617D01*
X0253477Y0095568D01*
X0253444Y0095517D01*
X0253415Y0095465D01*
X0253388Y0095410D01*
X0253365Y0095355D01*
X0253345Y0095298D01*
X0253329Y0095239D01*
X0253316Y0095180D01*
X0253307Y0095121D01*
X0253302Y0095060D01*
X0253300Y0095000D01*
X0253300Y0093500D01*
X0253800Y0093000D01*
X0253800Y0079000D01*
X0253300Y0078500D01*
X0253300Y0077000D01*
X0253302Y0076940D01*
X0253307Y0076879D01*
X0253316Y0076820D01*
X0253329Y0076761D01*
X0253345Y0076702D01*
X0253365Y0076645D01*
X0253388Y0076590D01*
X0253415Y0076535D01*
X0253444Y0076483D01*
X0253477Y0076432D01*
X0253513Y0076383D01*
X0253551Y0076337D01*
X0253593Y0076293D01*
X0253637Y0076251D01*
X0253683Y0076213D01*
X0253732Y0076177D01*
X0253783Y0076144D01*
X0253835Y0076115D01*
X0253890Y0076088D01*
X0253945Y0076065D01*
X0254002Y0076045D01*
X0254061Y0076029D01*
X0254120Y0076016D01*
X0254179Y0076007D01*
X0254240Y0076002D01*
X0254300Y0076000D01*
X0260300Y0076000D01*
X0260360Y0076002D01*
X0260421Y0076007D01*
X0260480Y0076016D01*
X0260539Y0076029D01*
X0260598Y0076045D01*
X0260655Y0076065D01*
X0260710Y0076088D01*
X0260765Y0076115D01*
X0260817Y0076144D01*
X0260868Y0076177D01*
X0260917Y0076213D01*
X0260963Y0076251D01*
X0261007Y0076293D01*
X0261049Y0076337D01*
X0261087Y0076383D01*
X0261123Y0076432D01*
X0261156Y0076483D01*
X0261185Y0076535D01*
X0261212Y0076590D01*
X0261235Y0076645D01*
X0261255Y0076702D01*
X0261271Y0076761D01*
X0261284Y0076820D01*
X0261293Y0076879D01*
X0261298Y0076940D01*
X0261300Y0077000D01*
X0261300Y0078500D01*
X0260800Y0079000D01*
X0260800Y0093000D01*
X0261300Y0093500D01*
X0261300Y0095000D01*
X0261298Y0095060D01*
X0261293Y0095121D01*
X0261284Y0095180D01*
X0261271Y0095239D01*
X0261255Y0095298D01*
X0261235Y0095355D01*
X0261212Y0095410D01*
X0261185Y0095465D01*
X0261156Y0095517D01*
X0261123Y0095568D01*
X0261087Y0095617D01*
X0261049Y0095663D01*
X0261007Y0095707D01*
X0260963Y0095749D01*
X0260917Y0095787D01*
X0260868Y0095823D01*
X0260817Y0095856D01*
X0260765Y0095885D01*
X0260710Y0095912D01*
X0260655Y0095935D01*
X0260598Y0095955D01*
X0260539Y0095971D01*
X0260480Y0095984D01*
X0260421Y0095993D01*
X0260360Y0095998D01*
X0260300Y0096000D01*
X0250300Y0095000D02*
X0250300Y0093500D01*
X0249800Y0093000D01*
X0249800Y0079000D01*
X0250300Y0078500D01*
X0250300Y0077000D01*
X0250298Y0076940D01*
X0250293Y0076879D01*
X0250284Y0076820D01*
X0250271Y0076761D01*
X0250255Y0076702D01*
X0250235Y0076645D01*
X0250212Y0076590D01*
X0250185Y0076535D01*
X0250156Y0076483D01*
X0250123Y0076432D01*
X0250087Y0076383D01*
X0250049Y0076337D01*
X0250007Y0076293D01*
X0249963Y0076251D01*
X0249917Y0076213D01*
X0249868Y0076177D01*
X0249817Y0076144D01*
X0249765Y0076115D01*
X0249710Y0076088D01*
X0249655Y0076065D01*
X0249598Y0076045D01*
X0249539Y0076029D01*
X0249480Y0076016D01*
X0249421Y0076007D01*
X0249360Y0076002D01*
X0249300Y0076000D01*
X0243300Y0076000D01*
X0243240Y0076002D01*
X0243179Y0076007D01*
X0243120Y0076016D01*
X0243061Y0076029D01*
X0243002Y0076045D01*
X0242945Y0076065D01*
X0242890Y0076088D01*
X0242835Y0076115D01*
X0242783Y0076144D01*
X0242732Y0076177D01*
X0242683Y0076213D01*
X0242637Y0076251D01*
X0242593Y0076293D01*
X0242551Y0076337D01*
X0242513Y0076383D01*
X0242477Y0076432D01*
X0242444Y0076483D01*
X0242415Y0076535D01*
X0242388Y0076590D01*
X0242365Y0076645D01*
X0242345Y0076702D01*
X0242329Y0076761D01*
X0242316Y0076820D01*
X0242307Y0076879D01*
X0242302Y0076940D01*
X0242300Y0077000D01*
X0242300Y0078500D01*
X0242800Y0079000D01*
X0242800Y0093000D01*
X0242300Y0093500D01*
X0242300Y0095000D01*
X0242302Y0095060D01*
X0242307Y0095121D01*
X0242316Y0095180D01*
X0242329Y0095239D01*
X0242345Y0095298D01*
X0242365Y0095355D01*
X0242388Y0095410D01*
X0242415Y0095465D01*
X0242444Y0095517D01*
X0242477Y0095568D01*
X0242513Y0095617D01*
X0242551Y0095663D01*
X0242593Y0095707D01*
X0242637Y0095749D01*
X0242683Y0095787D01*
X0242732Y0095823D01*
X0242783Y0095856D01*
X0242835Y0095885D01*
X0242890Y0095912D01*
X0242945Y0095935D01*
X0243002Y0095955D01*
X0243061Y0095971D01*
X0243120Y0095984D01*
X0243179Y0095993D01*
X0243240Y0095998D01*
X0243300Y0096000D01*
X0249300Y0096000D01*
X0249360Y0095998D01*
X0249421Y0095993D01*
X0249480Y0095984D01*
X0249539Y0095971D01*
X0249598Y0095955D01*
X0249655Y0095935D01*
X0249710Y0095912D01*
X0249765Y0095885D01*
X0249817Y0095856D01*
X0249868Y0095823D01*
X0249917Y0095787D01*
X0249963Y0095749D01*
X0250007Y0095707D01*
X0250049Y0095663D01*
X0250087Y0095617D01*
X0250123Y0095568D01*
X0250156Y0095517D01*
X0250185Y0095465D01*
X0250212Y0095410D01*
X0250235Y0095355D01*
X0250255Y0095298D01*
X0250271Y0095239D01*
X0250284Y0095180D01*
X0250293Y0095121D01*
X0250298Y0095060D01*
X0250300Y0095000D01*
X0234300Y0095000D02*
X0234300Y0093500D01*
X0233800Y0093000D01*
X0233800Y0079000D01*
X0234300Y0078500D01*
X0234300Y0077000D01*
X0234298Y0076940D01*
X0234293Y0076879D01*
X0234284Y0076820D01*
X0234271Y0076761D01*
X0234255Y0076702D01*
X0234235Y0076645D01*
X0234212Y0076590D01*
X0234185Y0076535D01*
X0234156Y0076483D01*
X0234123Y0076432D01*
X0234087Y0076383D01*
X0234049Y0076337D01*
X0234007Y0076293D01*
X0233963Y0076251D01*
X0233917Y0076213D01*
X0233868Y0076177D01*
X0233817Y0076144D01*
X0233765Y0076115D01*
X0233710Y0076088D01*
X0233655Y0076065D01*
X0233598Y0076045D01*
X0233539Y0076029D01*
X0233480Y0076016D01*
X0233421Y0076007D01*
X0233360Y0076002D01*
X0233300Y0076000D01*
X0227300Y0076000D01*
X0227240Y0076002D01*
X0227179Y0076007D01*
X0227120Y0076016D01*
X0227061Y0076029D01*
X0227002Y0076045D01*
X0226945Y0076065D01*
X0226890Y0076088D01*
X0226835Y0076115D01*
X0226783Y0076144D01*
X0226732Y0076177D01*
X0226683Y0076213D01*
X0226637Y0076251D01*
X0226593Y0076293D01*
X0226551Y0076337D01*
X0226513Y0076383D01*
X0226477Y0076432D01*
X0226444Y0076483D01*
X0226415Y0076535D01*
X0226388Y0076590D01*
X0226365Y0076645D01*
X0226345Y0076702D01*
X0226329Y0076761D01*
X0226316Y0076820D01*
X0226307Y0076879D01*
X0226302Y0076940D01*
X0226300Y0077000D01*
X0226300Y0078500D01*
X0226800Y0079000D01*
X0226800Y0093000D01*
X0226300Y0093500D01*
X0226300Y0095000D01*
X0226302Y0095060D01*
X0226307Y0095121D01*
X0226316Y0095180D01*
X0226329Y0095239D01*
X0226345Y0095298D01*
X0226365Y0095355D01*
X0226388Y0095410D01*
X0226415Y0095465D01*
X0226444Y0095517D01*
X0226477Y0095568D01*
X0226513Y0095617D01*
X0226551Y0095663D01*
X0226593Y0095707D01*
X0226637Y0095749D01*
X0226683Y0095787D01*
X0226732Y0095823D01*
X0226783Y0095856D01*
X0226835Y0095885D01*
X0226890Y0095912D01*
X0226945Y0095935D01*
X0227002Y0095955D01*
X0227061Y0095971D01*
X0227120Y0095984D01*
X0227179Y0095993D01*
X0227240Y0095998D01*
X0227300Y0096000D01*
X0233300Y0096000D01*
X0233360Y0095998D01*
X0233421Y0095993D01*
X0233480Y0095984D01*
X0233539Y0095971D01*
X0233598Y0095955D01*
X0233655Y0095935D01*
X0233710Y0095912D01*
X0233765Y0095885D01*
X0233817Y0095856D01*
X0233868Y0095823D01*
X0233917Y0095787D01*
X0233963Y0095749D01*
X0234007Y0095707D01*
X0234049Y0095663D01*
X0234087Y0095617D01*
X0234123Y0095568D01*
X0234156Y0095517D01*
X0234185Y0095465D01*
X0234212Y0095410D01*
X0234235Y0095355D01*
X0234255Y0095298D01*
X0234271Y0095239D01*
X0234284Y0095180D01*
X0234293Y0095121D01*
X0234298Y0095060D01*
X0234300Y0095000D01*
X0224300Y0095000D02*
X0224300Y0093500D01*
X0223800Y0093000D01*
X0223800Y0079000D01*
X0224300Y0078500D01*
X0224300Y0077000D01*
X0224298Y0076940D01*
X0224293Y0076879D01*
X0224284Y0076820D01*
X0224271Y0076761D01*
X0224255Y0076702D01*
X0224235Y0076645D01*
X0224212Y0076590D01*
X0224185Y0076535D01*
X0224156Y0076483D01*
X0224123Y0076432D01*
X0224087Y0076383D01*
X0224049Y0076337D01*
X0224007Y0076293D01*
X0223963Y0076251D01*
X0223917Y0076213D01*
X0223868Y0076177D01*
X0223817Y0076144D01*
X0223765Y0076115D01*
X0223710Y0076088D01*
X0223655Y0076065D01*
X0223598Y0076045D01*
X0223539Y0076029D01*
X0223480Y0076016D01*
X0223421Y0076007D01*
X0223360Y0076002D01*
X0223300Y0076000D01*
X0217300Y0076000D01*
X0217240Y0076002D01*
X0217179Y0076007D01*
X0217120Y0076016D01*
X0217061Y0076029D01*
X0217002Y0076045D01*
X0216945Y0076065D01*
X0216890Y0076088D01*
X0216835Y0076115D01*
X0216783Y0076144D01*
X0216732Y0076177D01*
X0216683Y0076213D01*
X0216637Y0076251D01*
X0216593Y0076293D01*
X0216551Y0076337D01*
X0216513Y0076383D01*
X0216477Y0076432D01*
X0216444Y0076483D01*
X0216415Y0076535D01*
X0216388Y0076590D01*
X0216365Y0076645D01*
X0216345Y0076702D01*
X0216329Y0076761D01*
X0216316Y0076820D01*
X0216307Y0076879D01*
X0216302Y0076940D01*
X0216300Y0077000D01*
X0216300Y0078500D01*
X0216800Y0079000D01*
X0216800Y0093000D01*
X0216300Y0093500D01*
X0216300Y0095000D01*
X0216302Y0095060D01*
X0216307Y0095121D01*
X0216316Y0095180D01*
X0216329Y0095239D01*
X0216345Y0095298D01*
X0216365Y0095355D01*
X0216388Y0095410D01*
X0216415Y0095465D01*
X0216444Y0095517D01*
X0216477Y0095568D01*
X0216513Y0095617D01*
X0216551Y0095663D01*
X0216593Y0095707D01*
X0216637Y0095749D01*
X0216683Y0095787D01*
X0216732Y0095823D01*
X0216783Y0095856D01*
X0216835Y0095885D01*
X0216890Y0095912D01*
X0216945Y0095935D01*
X0217002Y0095955D01*
X0217061Y0095971D01*
X0217120Y0095984D01*
X0217179Y0095993D01*
X0217240Y0095998D01*
X0217300Y0096000D01*
X0223300Y0096000D01*
X0223360Y0095998D01*
X0223421Y0095993D01*
X0223480Y0095984D01*
X0223539Y0095971D01*
X0223598Y0095955D01*
X0223655Y0095935D01*
X0223710Y0095912D01*
X0223765Y0095885D01*
X0223817Y0095856D01*
X0223868Y0095823D01*
X0223917Y0095787D01*
X0223963Y0095749D01*
X0224007Y0095707D01*
X0224049Y0095663D01*
X0224087Y0095617D01*
X0224123Y0095568D01*
X0224156Y0095517D01*
X0224185Y0095465D01*
X0224212Y0095410D01*
X0224235Y0095355D01*
X0224255Y0095298D01*
X0224271Y0095239D01*
X0224284Y0095180D01*
X0224293Y0095121D01*
X0224298Y0095060D01*
X0224300Y0095000D01*
X0221735Y0062705D02*
X0223870Y0060570D01*
X0223870Y0056300D01*
X0226045Y0056300D02*
X0230316Y0056300D01*
X0228181Y0056300D02*
X0228181Y0062705D01*
X0226045Y0060570D01*
X0223870Y0059503D02*
X0219600Y0059503D01*
X0219600Y0060570D02*
X0221735Y0062705D01*
X0219600Y0060570D02*
X0219600Y0056300D01*
X0245600Y0056300D02*
X0245600Y0060570D01*
X0247735Y0062705D01*
X0249870Y0060570D01*
X0249870Y0056300D01*
X0252045Y0057368D02*
X0253113Y0056300D01*
X0255248Y0056300D01*
X0256316Y0057368D01*
X0256316Y0061638D01*
X0252045Y0057368D01*
X0252045Y0061638D01*
X0253113Y0062705D01*
X0255248Y0062705D01*
X0256316Y0061638D01*
X0249870Y0059503D02*
X0245600Y0059503D01*
X0173800Y0099500D02*
X0173800Y0104500D01*
X0173798Y0104587D01*
X0173792Y0104674D01*
X0173783Y0104761D01*
X0173770Y0104847D01*
X0173753Y0104933D01*
X0173732Y0105018D01*
X0173707Y0105101D01*
X0173679Y0105184D01*
X0173648Y0105265D01*
X0173613Y0105345D01*
X0173574Y0105423D01*
X0173532Y0105500D01*
X0173487Y0105575D01*
X0173438Y0105647D01*
X0173387Y0105718D01*
X0173332Y0105786D01*
X0173275Y0105851D01*
X0173214Y0105914D01*
X0173151Y0105975D01*
X0173086Y0106032D01*
X0173018Y0106087D01*
X0172947Y0106138D01*
X0172875Y0106187D01*
X0172800Y0106232D01*
X0172723Y0106274D01*
X0172645Y0106313D01*
X0172565Y0106348D01*
X0172484Y0106379D01*
X0172401Y0106407D01*
X0172318Y0106432D01*
X0172233Y0106453D01*
X0172147Y0106470D01*
X0172061Y0106483D01*
X0171974Y0106492D01*
X0171887Y0106498D01*
X0171800Y0106500D01*
X0158800Y0106500D01*
X0158713Y0106498D01*
X0158626Y0106492D01*
X0158539Y0106483D01*
X0158453Y0106470D01*
X0158367Y0106453D01*
X0158282Y0106432D01*
X0158199Y0106407D01*
X0158116Y0106379D01*
X0158035Y0106348D01*
X0157955Y0106313D01*
X0157877Y0106274D01*
X0157800Y0106232D01*
X0157725Y0106187D01*
X0157653Y0106138D01*
X0157582Y0106087D01*
X0157514Y0106032D01*
X0157449Y0105975D01*
X0157386Y0105914D01*
X0157325Y0105851D01*
X0157268Y0105786D01*
X0157213Y0105718D01*
X0157162Y0105647D01*
X0157113Y0105575D01*
X0157068Y0105500D01*
X0157026Y0105423D01*
X0156987Y0105345D01*
X0156952Y0105265D01*
X0156921Y0105184D01*
X0156893Y0105101D01*
X0156868Y0105018D01*
X0156847Y0104933D01*
X0156830Y0104847D01*
X0156817Y0104761D01*
X0156808Y0104674D01*
X0156802Y0104587D01*
X0156800Y0104500D01*
X0156800Y0099500D01*
X0156802Y0099413D01*
X0156808Y0099326D01*
X0156817Y0099239D01*
X0156830Y0099153D01*
X0156847Y0099067D01*
X0156868Y0098982D01*
X0156893Y0098899D01*
X0156921Y0098816D01*
X0156952Y0098735D01*
X0156987Y0098655D01*
X0157026Y0098577D01*
X0157068Y0098500D01*
X0157113Y0098425D01*
X0157162Y0098353D01*
X0157213Y0098282D01*
X0157268Y0098214D01*
X0157325Y0098149D01*
X0157386Y0098086D01*
X0157449Y0098025D01*
X0157514Y0097968D01*
X0157582Y0097913D01*
X0157653Y0097862D01*
X0157725Y0097813D01*
X0157800Y0097768D01*
X0157877Y0097726D01*
X0157955Y0097687D01*
X0158035Y0097652D01*
X0158116Y0097621D01*
X0158199Y0097593D01*
X0158282Y0097568D01*
X0158367Y0097547D01*
X0158453Y0097530D01*
X0158539Y0097517D01*
X0158626Y0097508D01*
X0158713Y0097502D01*
X0158800Y0097500D01*
X0171800Y0097500D01*
X0171887Y0097502D01*
X0171974Y0097508D01*
X0172061Y0097517D01*
X0172147Y0097530D01*
X0172233Y0097547D01*
X0172318Y0097568D01*
X0172401Y0097593D01*
X0172484Y0097621D01*
X0172565Y0097652D01*
X0172645Y0097687D01*
X0172723Y0097726D01*
X0172800Y0097768D01*
X0172875Y0097813D01*
X0172947Y0097862D01*
X0173018Y0097913D01*
X0173086Y0097968D01*
X0173151Y0098025D01*
X0173214Y0098086D01*
X0173275Y0098149D01*
X0173332Y0098214D01*
X0173387Y0098282D01*
X0173438Y0098353D01*
X0173487Y0098425D01*
X0173532Y0098500D01*
X0173574Y0098577D01*
X0173613Y0098655D01*
X0173648Y0098735D01*
X0173679Y0098816D01*
X0173707Y0098899D01*
X0173732Y0098982D01*
X0173753Y0099067D01*
X0173770Y0099153D01*
X0173783Y0099239D01*
X0173792Y0099326D01*
X0173798Y0099413D01*
X0173800Y0099500D01*
X0145843Y0089299D02*
X0145843Y0071583D01*
X0130725Y0071583D01*
X0130725Y0089299D01*
X0145843Y0089299D01*
D13*
X0052402Y0117943D02*
X0052402Y0122274D01*
X0052402Y0117943D02*
X0002796Y0117943D01*
X0002796Y0173061D01*
X0053189Y0173061D01*
X0053189Y0168730D01*
X0285857Y0095458D02*
X0285857Y0078542D01*
X0304743Y0078542D01*
X0304743Y0095458D01*
X0285857Y0095458D01*
X0347911Y0276541D02*
X0398304Y0276541D01*
X0398304Y0298659D01*
X0348698Y0298659D01*
X0348698Y0294328D01*
X0347911Y0280872D02*
X0347911Y0276541D01*
X0348111Y0309041D02*
X0398504Y0309041D01*
X0398504Y0331159D01*
X0348898Y0331159D01*
X0348898Y0326828D01*
X0348111Y0313372D02*
X0348111Y0309041D01*
D14*
X0395158Y0320100D03*
X0394958Y0287600D03*
X0006142Y0145502D03*
D15*
X0034550Y0363000D03*
X0056050Y0363000D03*
X0199550Y0362000D03*
X0221050Y0362000D03*
X0319550Y0364000D03*
X0341050Y0364000D03*
X0355550Y0175000D03*
X0377050Y0175000D03*
D16*
X0276796Y0126984D02*
X0276796Y0115016D01*
X0241796Y0115016D01*
X0241796Y0126984D01*
X0276796Y0126984D01*
D17*
X0287721Y0080799D03*
D18*
X0257300Y0075250D03*
X0246300Y0075250D03*
X0230300Y0075250D03*
X0220300Y0075250D03*
X0220300Y0096750D03*
X0230300Y0096750D03*
X0246300Y0096750D03*
X0257300Y0096750D03*
X0271300Y0146250D03*
X0283300Y0146250D03*
X0283300Y0167750D03*
X0271300Y0167750D03*
X0341300Y0179250D03*
X0341300Y0200750D03*
D19*
X0166500Y0105000D02*
X0166500Y0099000D01*
X0164000Y0099000D02*
X0164000Y0105000D01*
D20*
X0357363Y0203898D02*
X0357363Y0211772D01*
X0357363Y0203898D02*
X0400276Y0203898D01*
X0400276Y0266102D01*
X0357363Y0266102D01*
X0357363Y0258228D01*
X0357414Y0267765D02*
X0359716Y0267765D01*
X0360483Y0268532D01*
X0360483Y0271601D01*
X0359716Y0272368D01*
X0357414Y0272368D01*
X0357414Y0267765D01*
X0362571Y0267765D02*
X0364105Y0267765D01*
X0363338Y0267765D02*
X0363338Y0272368D01*
X0362571Y0272368D02*
X0364105Y0272368D01*
X0366008Y0270834D02*
X0367543Y0272368D01*
X0369077Y0270834D01*
X0369077Y0267765D01*
X0371165Y0267765D02*
X0371165Y0272368D01*
X0372699Y0270834D01*
X0374234Y0272368D01*
X0374234Y0267765D01*
X0376321Y0268532D02*
X0377088Y0267765D01*
X0378623Y0267765D01*
X0379390Y0268532D01*
X0379390Y0271601D01*
X0378623Y0272368D01*
X0377088Y0272368D01*
X0376321Y0271601D01*
X0376321Y0268532D01*
X0381477Y0267765D02*
X0381477Y0272368D01*
X0384547Y0267765D01*
X0384547Y0272368D01*
X0386634Y0272368D02*
X0388936Y0272368D01*
X0389703Y0271601D01*
X0389703Y0268532D01*
X0388936Y0267765D01*
X0386634Y0267765D01*
X0386634Y0272368D01*
X0369077Y0270067D02*
X0366008Y0270067D01*
X0366008Y0270834D02*
X0366008Y0267765D01*
X0384081Y0300700D02*
X0384081Y0305304D01*
X0387150Y0300700D01*
X0387150Y0305304D01*
X0389237Y0305304D02*
X0389237Y0301467D01*
X0390004Y0300700D01*
X0391539Y0300700D01*
X0392306Y0301467D01*
X0392306Y0305304D01*
X0394394Y0304537D02*
X0394394Y0301467D01*
X0395161Y0300700D01*
X0396696Y0300700D01*
X0397463Y0301467D01*
X0397463Y0304537D02*
X0396696Y0305304D01*
X0395161Y0305304D01*
X0394394Y0304537D01*
X0395561Y0333200D02*
X0394794Y0333967D01*
X0395561Y0333200D02*
X0397095Y0333200D01*
X0397863Y0333967D01*
X0397863Y0334735D01*
X0397095Y0335502D01*
X0395561Y0335502D01*
X0394794Y0336269D01*
X0394794Y0337037D01*
X0395561Y0337804D01*
X0397095Y0337804D01*
X0397863Y0337037D01*
X0392706Y0337037D02*
X0391939Y0337804D01*
X0390404Y0337804D01*
X0389637Y0337037D01*
X0389637Y0333967D01*
X0390404Y0333200D01*
X0391939Y0333200D01*
X0392706Y0333967D01*
X0387734Y0333200D02*
X0386200Y0333200D01*
X0386967Y0333200D02*
X0386967Y0337804D01*
X0386200Y0337804D02*
X0387734Y0337804D01*
X0384112Y0337804D02*
X0381043Y0337804D01*
X0382578Y0337804D02*
X0382578Y0333200D01*
X0378956Y0333200D02*
X0378956Y0336269D01*
X0377421Y0337804D01*
X0375887Y0336269D01*
X0375887Y0333200D01*
X0373800Y0333200D02*
X0373800Y0337804D01*
X0372265Y0336269D01*
X0370730Y0337804D01*
X0370730Y0333200D01*
X0368643Y0333200D02*
X0365574Y0333200D01*
X0365574Y0337804D01*
X0368643Y0337804D01*
X0367109Y0335502D02*
X0365574Y0335502D01*
X0363487Y0333967D02*
X0363487Y0337804D01*
X0360418Y0337804D02*
X0360418Y0333967D01*
X0361185Y0333200D01*
X0362719Y0333200D01*
X0363487Y0333967D01*
X0358330Y0333200D02*
X0358330Y0337804D01*
X0355261Y0337804D02*
X0358330Y0333200D01*
X0355261Y0333200D02*
X0355261Y0337804D01*
X0353174Y0337037D02*
X0353174Y0335502D01*
X0352407Y0334735D01*
X0350105Y0334735D01*
X0350105Y0333200D02*
X0350105Y0337804D01*
X0352407Y0337804D01*
X0353174Y0337037D01*
X0375887Y0335502D02*
X0378956Y0335502D01*
M02*
