%
M48
M72
T01C0.01378
T02C0.01969
T03C0.02559
T04C0.03000
T05C0.03200
T06C0.04000
T07C0.05600
T08C0.06000
T09C0.07874
T10C0.08000
T11C0.11811
T12C0.12850
%
T01
X161300Y80000
X270300Y119000
X301300Y110000
X304800Y67500
X366300Y170000
X306300Y190000
X321300Y389000
X205300Y389000
X115300Y389000
X41300Y389000
T02
X183300Y73300
T03
X76900Y34900
X106800Y34300
T04
X103300Y125000
X113300Y125000
X123300Y125000
X123300Y185000
X113300Y185000
X183300Y185000
X203300Y185000
X203300Y125000
X183300Y125000
T05
X170300Y102000
X160300Y102000
X220300Y101000
X230300Y101000
X246300Y101000
X257300Y101000
X257300Y71000
X246300Y71000
X230300Y71000
X220300Y71000
X271300Y142000
X283300Y142000
X283300Y172000
X271300Y172000
X249000Y188100
X239000Y188100
X229000Y188100
X341300Y175000
X351300Y175000
X381300Y175000
X341300Y205000
X345300Y364000
X315300Y364000
X225300Y362000
X195300Y362000
X60300Y363000
X30300Y363000
T06
X349489Y252717
X361300Y252717
X361300Y240906
X349489Y240906
X349489Y229094
X349489Y217283
X361300Y217283
X361300Y229094
T07
X343800Y287600
X322100Y287600
X322300Y320100
X344000Y320100
T08
X288300Y290500
X288300Y275500
X288300Y260500
X88300Y245500
X88300Y275500
X88300Y305500
T09
X79000Y162002
X79000Y145502
X79000Y129002
X57300Y129002
X57300Y145502
X57300Y162002
T10
X288300Y245500
X288300Y305500
T11
X372740Y320100
X372540Y287600
X378308Y244252
X378308Y225748
X28560Y162002
X28560Y129002
T12
X13800Y392500
X388800Y392500
M30
