G75*
%MOIN*%
%OFA0B0*%
%FSLAX25Y25*%
%IPPOS*%
%LPD*%
%AMOC8*
5,1,8,0,0,1.08239X$1,22.5*
%
%ADD10R,0.06500X0.25000*%
%ADD11OC8,0.13780*%
%ADD12R,0.13780X0.13780*%
%ADD13R,0.09000X0.09000*%
%ADD14R,0.12000X0.12000*%
%ADD15OC8,0.05200*%
%ADD16R,0.05000X0.05000*%
%ADD17OC8,0.10000*%
%ADD18R,0.10000X0.10000*%
%ADD19OC8,0.08000*%
%ADD20R,0.08000X0.08000*%
%ADD21C,0.05200*%
%ADD22C,0.00600*%
%ADD23C,0.02978*%
%ADD24C,0.01000*%
%ADD25C,0.07000*%
%ADD26C,0.01200*%
%ADD27C,0.05000*%
%ADD28C,0.04159*%
%ADD29C,0.03569*%
D10*
X0067050Y0017500D03*
X0077050Y0017500D03*
X0087050Y0017500D03*
X0097050Y0017500D03*
X0107050Y0017500D03*
X0117050Y0017500D03*
X0127050Y0017500D03*
X0137050Y0017500D03*
X0147050Y0017500D03*
X0157050Y0017500D03*
X0167050Y0017500D03*
X0177050Y0017500D03*
X0187050Y0017500D03*
X0197050Y0017500D03*
X0207050Y0017500D03*
X0217050Y0017500D03*
X0227050Y0017500D03*
X0237050Y0017500D03*
X0247050Y0017500D03*
X0257050Y0017500D03*
X0267050Y0017500D03*
X0277050Y0017500D03*
X0287050Y0017500D03*
X0297050Y0017500D03*
X0307050Y0017500D03*
X0317050Y0017500D03*
X0327050Y0017500D03*
X0337050Y0017500D03*
D11*
X0079000Y0129002D03*
X0079000Y0145502D03*
X0079000Y0162002D03*
X0057300Y0162002D03*
X0057300Y0145502D03*
D12*
X0057300Y0129002D03*
D13*
X0088300Y0245500D03*
X0088300Y0275500D03*
X0088300Y0305500D03*
X0288300Y0290500D03*
X0288300Y0275500D03*
X0288300Y0260500D03*
D14*
X0288300Y0245500D03*
X0288300Y0305500D03*
D15*
X0315300Y0364000D03*
X0345300Y0364000D03*
X0225300Y0362000D03*
X0195300Y0362000D03*
X0060300Y0363000D03*
X0030300Y0363000D03*
X0271300Y0172000D03*
X0283300Y0172000D03*
X0283300Y0142000D03*
X0271300Y0142000D03*
X0257300Y0101000D03*
X0246300Y0101000D03*
X0230300Y0101000D03*
X0220300Y0101000D03*
X0220300Y0071000D03*
X0230300Y0071000D03*
X0246300Y0071000D03*
X0257300Y0071000D03*
X0170300Y0102000D03*
X0160300Y0102000D03*
X0341300Y0175000D03*
X0351300Y0175000D03*
X0381300Y0175000D03*
X0341300Y0205000D03*
D16*
X0203300Y0185000D03*
X0183300Y0185000D03*
X0183300Y0125000D03*
X0203300Y0125000D03*
X0123300Y0125000D03*
X0113300Y0125000D03*
X0103300Y0125000D03*
X0113300Y0185000D03*
X0123300Y0185000D03*
D17*
X0322100Y0287600D03*
X0322300Y0320100D03*
D18*
X0344000Y0320100D03*
X0343800Y0287600D03*
D19*
X0349489Y0252717D03*
X0349489Y0240906D03*
X0361300Y0240906D03*
X0361300Y0229094D03*
X0361300Y0217283D03*
X0349489Y0217283D03*
X0349489Y0229094D03*
D20*
X0361300Y0252717D03*
D21*
X0249000Y0190700D02*
X0249000Y0185500D01*
X0239000Y0185500D02*
X0239000Y0190700D01*
X0229000Y0190700D02*
X0229000Y0185500D01*
D22*
X0228700Y0185750D02*
X0229300Y0185750D01*
X0229300Y0185152D02*
X0228700Y0185152D01*
X0228700Y0184553D02*
X0229300Y0184553D01*
X0229300Y0183955D02*
X0228700Y0183955D01*
X0228700Y0183356D02*
X0229300Y0183356D01*
X0229300Y0182758D02*
X0228700Y0182758D01*
X0228700Y0182159D02*
X0229300Y0182159D01*
X0229300Y0181600D02*
X0229384Y0181600D01*
X0230138Y0181750D01*
X0230847Y0182044D01*
X0231486Y0182471D01*
X0232029Y0183014D01*
X0232456Y0183653D01*
X0232750Y0184362D01*
X0232900Y0185116D01*
X0232900Y0187800D01*
X0229300Y0187800D01*
X0229300Y0188400D01*
X0228700Y0188400D01*
X0228700Y0194600D01*
X0228616Y0194600D01*
X0227862Y0194450D01*
X0227153Y0194156D01*
X0226514Y0193729D01*
X0225971Y0193186D01*
X0225544Y0192547D01*
X0225250Y0191838D01*
X0225100Y0191084D01*
X0225100Y0188400D01*
X0228700Y0188400D01*
X0228700Y0187800D01*
X0225100Y0187800D01*
X0225100Y0185116D01*
X0225250Y0184362D01*
X0225544Y0183653D01*
X0225971Y0183014D01*
X0226514Y0182471D01*
X0227153Y0182044D01*
X0227862Y0181750D01*
X0228616Y0181600D01*
X0228700Y0181600D01*
X0228700Y0187800D01*
X0229300Y0187800D01*
X0229300Y0181600D01*
X0231020Y0182159D02*
X0237378Y0182159D01*
X0236900Y0182357D02*
X0238263Y0181793D01*
X0239737Y0181793D01*
X0241100Y0182357D01*
X0242143Y0183400D01*
X0242707Y0184763D01*
X0242707Y0191437D01*
X0242143Y0192800D01*
X0241100Y0193843D01*
X0239737Y0194407D01*
X0238263Y0194407D01*
X0236900Y0193843D01*
X0235857Y0192800D01*
X0235293Y0191437D01*
X0235293Y0184763D01*
X0235857Y0183400D01*
X0236900Y0182357D01*
X0236500Y0182758D02*
X0231773Y0182758D01*
X0232258Y0183356D02*
X0235901Y0183356D01*
X0235627Y0183955D02*
X0232581Y0183955D01*
X0232788Y0184553D02*
X0235380Y0184553D01*
X0235293Y0185152D02*
X0232900Y0185152D01*
X0232900Y0185750D02*
X0235293Y0185750D01*
X0235293Y0186349D02*
X0232900Y0186349D01*
X0232900Y0186947D02*
X0235293Y0186947D01*
X0235293Y0187546D02*
X0232900Y0187546D01*
X0232900Y0188400D02*
X0232900Y0191084D01*
X0232750Y0191838D01*
X0232456Y0192547D01*
X0232029Y0193186D01*
X0231486Y0193729D01*
X0230847Y0194156D01*
X0230138Y0194450D01*
X0229384Y0194600D01*
X0229300Y0194600D01*
X0229300Y0188400D01*
X0232900Y0188400D01*
X0232900Y0188743D02*
X0235293Y0188743D01*
X0235293Y0189341D02*
X0232900Y0189341D01*
X0232900Y0189940D02*
X0235293Y0189940D01*
X0235293Y0190539D02*
X0232900Y0190539D01*
X0232889Y0191137D02*
X0235293Y0191137D01*
X0235416Y0191736D02*
X0232770Y0191736D01*
X0232544Y0192334D02*
X0235664Y0192334D01*
X0235990Y0192933D02*
X0232199Y0192933D01*
X0231684Y0193531D02*
X0236588Y0193531D01*
X0237593Y0194130D02*
X0230887Y0194130D01*
X0229300Y0194130D02*
X0228700Y0194130D01*
X0228700Y0193531D02*
X0229300Y0193531D01*
X0229300Y0192933D02*
X0228700Y0192933D01*
X0228700Y0192334D02*
X0229300Y0192334D01*
X0229300Y0191736D02*
X0228700Y0191736D01*
X0228700Y0191137D02*
X0229300Y0191137D01*
X0229300Y0190539D02*
X0228700Y0190539D01*
X0228700Y0189940D02*
X0229300Y0189940D01*
X0229300Y0189341D02*
X0228700Y0189341D01*
X0228700Y0188743D02*
X0229300Y0188743D01*
X0229300Y0188144D02*
X0235293Y0188144D01*
X0240407Y0194130D02*
X0247593Y0194130D01*
X0248263Y0194407D02*
X0246900Y0193843D01*
X0245857Y0192800D01*
X0245293Y0191437D01*
X0245293Y0184763D01*
X0245857Y0183400D01*
X0246900Y0182357D01*
X0248263Y0181793D01*
X0249737Y0181793D01*
X0251100Y0182357D01*
X0252143Y0183400D01*
X0252707Y0184763D01*
X0252707Y0191437D01*
X0252143Y0192800D01*
X0251100Y0193843D01*
X0249737Y0194407D01*
X0248263Y0194407D01*
X0246588Y0193531D02*
X0241412Y0193531D01*
X0242010Y0192933D02*
X0245990Y0192933D01*
X0245664Y0192334D02*
X0242336Y0192334D01*
X0242584Y0191736D02*
X0245416Y0191736D01*
X0245293Y0191137D02*
X0242707Y0191137D01*
X0242707Y0190539D02*
X0245293Y0190539D01*
X0245293Y0189940D02*
X0242707Y0189940D01*
X0242707Y0189341D02*
X0245293Y0189341D01*
X0245293Y0188743D02*
X0242707Y0188743D01*
X0242707Y0188144D02*
X0245293Y0188144D01*
X0245293Y0187546D02*
X0242707Y0187546D01*
X0242707Y0186947D02*
X0245293Y0186947D01*
X0245293Y0186349D02*
X0242707Y0186349D01*
X0242707Y0185750D02*
X0245293Y0185750D01*
X0245293Y0185152D02*
X0242707Y0185152D01*
X0242620Y0184553D02*
X0245380Y0184553D01*
X0245627Y0183955D02*
X0242373Y0183955D01*
X0242099Y0183356D02*
X0245901Y0183356D01*
X0246500Y0182758D02*
X0241500Y0182758D01*
X0240622Y0182159D02*
X0247378Y0182159D01*
X0250622Y0182159D02*
X0358800Y0182159D01*
X0358800Y0182500D02*
X0358800Y0176407D01*
X0355007Y0176407D01*
X0355007Y0176536D01*
X0352836Y0178707D01*
X0349764Y0178707D01*
X0347593Y0176536D01*
X0347593Y0173464D01*
X0349764Y0171293D01*
X0352836Y0171293D01*
X0355007Y0173464D01*
X0355007Y0173593D01*
X0358800Y0173593D01*
X0358800Y0137500D01*
X0322295Y0100995D01*
X0321883Y0101407D01*
X0311883Y0111407D01*
X0303527Y0111407D01*
X0303501Y0111471D01*
X0302771Y0112201D01*
X0301816Y0112596D01*
X0300784Y0112596D01*
X0299829Y0112201D01*
X0299099Y0111471D01*
X0298704Y0110516D01*
X0298704Y0109484D01*
X0299099Y0108529D01*
X0299829Y0107799D01*
X0300784Y0107404D01*
X0301816Y0107404D01*
X0302771Y0107799D01*
X0303501Y0108529D01*
X0303527Y0108593D01*
X0310717Y0108593D01*
X0319893Y0099417D01*
X0319893Y0098593D01*
X0316300Y0095000D01*
X0316300Y0067500D01*
X0303800Y0055000D01*
X0198800Y0055000D01*
X0143800Y0110000D01*
X0143800Y0399400D01*
X0251300Y0399400D01*
X0251300Y0207500D01*
X0266300Y0192500D01*
X0348800Y0192500D01*
X0358800Y0182500D01*
X0358542Y0182758D02*
X0251500Y0182758D01*
X0252099Y0183356D02*
X0357944Y0183356D01*
X0357345Y0183955D02*
X0252373Y0183955D01*
X0252620Y0184553D02*
X0356747Y0184553D01*
X0356148Y0185152D02*
X0252707Y0185152D01*
X0252707Y0185750D02*
X0355550Y0185750D01*
X0354951Y0186349D02*
X0252707Y0186349D01*
X0252707Y0186947D02*
X0354353Y0186947D01*
X0353754Y0187546D02*
X0252707Y0187546D01*
X0252707Y0188144D02*
X0353156Y0188144D01*
X0352557Y0188743D02*
X0252707Y0188743D01*
X0252707Y0189341D02*
X0351959Y0189341D01*
X0351360Y0189940D02*
X0252707Y0189940D01*
X0252707Y0190539D02*
X0350761Y0190539D01*
X0350163Y0191137D02*
X0252707Y0191137D01*
X0252584Y0191736D02*
X0349564Y0191736D01*
X0348966Y0192334D02*
X0252336Y0192334D01*
X0252010Y0192933D02*
X0265867Y0192933D01*
X0265269Y0193531D02*
X0251412Y0193531D01*
X0250407Y0194130D02*
X0264670Y0194130D01*
X0264072Y0194728D02*
X0143800Y0194728D01*
X0143800Y0194130D02*
X0227113Y0194130D01*
X0226316Y0193531D02*
X0143800Y0193531D01*
X0143800Y0192933D02*
X0225801Y0192933D01*
X0225456Y0192334D02*
X0143800Y0192334D01*
X0143800Y0191736D02*
X0225230Y0191736D01*
X0225111Y0191137D02*
X0143800Y0191137D01*
X0143800Y0190539D02*
X0225100Y0190539D01*
X0225100Y0189940D02*
X0143800Y0189940D01*
X0143800Y0189341D02*
X0225100Y0189341D01*
X0225100Y0188743D02*
X0186184Y0188743D01*
X0186302Y0188711D02*
X0185971Y0188800D01*
X0183600Y0188800D01*
X0183600Y0185300D01*
X0183000Y0185300D01*
X0183000Y0188800D01*
X0180629Y0188800D01*
X0180298Y0188711D01*
X0180002Y0188540D01*
X0179760Y0188298D01*
X0179589Y0188002D01*
X0179500Y0187671D01*
X0179500Y0185300D01*
X0183000Y0185300D01*
X0183000Y0184700D01*
X0183600Y0184700D01*
X0183600Y0185300D01*
X0187100Y0185300D01*
X0187100Y0187671D01*
X0187011Y0188002D01*
X0186840Y0188298D01*
X0186598Y0188540D01*
X0186302Y0188711D01*
X0186929Y0188144D02*
X0199879Y0188144D01*
X0199693Y0187959D02*
X0199693Y0182041D01*
X0200341Y0181393D01*
X0206259Y0181393D01*
X0206907Y0182041D01*
X0206907Y0187959D01*
X0206259Y0188607D01*
X0200341Y0188607D01*
X0199693Y0187959D01*
X0199693Y0187546D02*
X0187100Y0187546D01*
X0187100Y0186947D02*
X0199693Y0186947D01*
X0199693Y0186349D02*
X0187100Y0186349D01*
X0187100Y0185750D02*
X0199693Y0185750D01*
X0199693Y0185152D02*
X0183600Y0185152D01*
X0183600Y0184700D02*
X0187100Y0184700D01*
X0187100Y0182329D01*
X0187011Y0181998D01*
X0186840Y0181702D01*
X0186598Y0181460D01*
X0186302Y0181289D01*
X0185971Y0181200D01*
X0183600Y0181200D01*
X0183600Y0184700D01*
X0183600Y0184553D02*
X0183000Y0184553D01*
X0183000Y0184700D02*
X0183000Y0181200D01*
X0180629Y0181200D01*
X0180298Y0181289D01*
X0180002Y0181460D01*
X0179760Y0181702D01*
X0179589Y0181998D01*
X0179500Y0182329D01*
X0179500Y0184700D01*
X0183000Y0184700D01*
X0183000Y0185152D02*
X0143800Y0185152D01*
X0143800Y0185750D02*
X0179500Y0185750D01*
X0179500Y0186349D02*
X0143800Y0186349D01*
X0143800Y0186947D02*
X0179500Y0186947D01*
X0179500Y0187546D02*
X0143800Y0187546D01*
X0143800Y0188144D02*
X0179671Y0188144D01*
X0180416Y0188743D02*
X0143800Y0188743D01*
X0143800Y0184553D02*
X0179500Y0184553D01*
X0179500Y0183955D02*
X0143800Y0183955D01*
X0143800Y0183356D02*
X0179500Y0183356D01*
X0179500Y0182758D02*
X0143800Y0182758D01*
X0143800Y0182159D02*
X0179545Y0182159D01*
X0179901Y0181561D02*
X0143800Y0181561D01*
X0143800Y0180962D02*
X0358800Y0180962D01*
X0358800Y0180364D02*
X0143800Y0180364D01*
X0143800Y0179765D02*
X0358800Y0179765D01*
X0358800Y0179167D02*
X0143800Y0179167D01*
X0143800Y0178568D02*
X0339626Y0178568D01*
X0339764Y0178707D02*
X0337593Y0176536D01*
X0337593Y0173464D01*
X0339764Y0171293D01*
X0342836Y0171293D01*
X0345007Y0173464D01*
X0345007Y0176536D01*
X0342836Y0178707D01*
X0339764Y0178707D01*
X0339027Y0177970D02*
X0143800Y0177970D01*
X0143800Y0177371D02*
X0338429Y0177371D01*
X0337830Y0176773D02*
X0143800Y0176773D01*
X0143800Y0176174D02*
X0337593Y0176174D01*
X0337593Y0175576D02*
X0284967Y0175576D01*
X0284836Y0175707D02*
X0281764Y0175707D01*
X0279593Y0173536D01*
X0279593Y0170464D01*
X0281764Y0168293D01*
X0284836Y0168293D01*
X0287007Y0170464D01*
X0287007Y0173536D01*
X0284836Y0175707D01*
X0285565Y0174977D02*
X0337593Y0174977D01*
X0337593Y0174379D02*
X0286164Y0174379D01*
X0286762Y0173780D02*
X0337593Y0173780D01*
X0337876Y0173182D02*
X0287007Y0173182D01*
X0287007Y0172583D02*
X0338474Y0172583D01*
X0339073Y0171985D02*
X0287007Y0171985D01*
X0287007Y0171386D02*
X0339671Y0171386D01*
X0342929Y0171386D02*
X0349671Y0171386D01*
X0349073Y0171985D02*
X0343527Y0171985D01*
X0344126Y0172583D02*
X0348474Y0172583D01*
X0347876Y0173182D02*
X0344724Y0173182D01*
X0345007Y0173780D02*
X0347593Y0173780D01*
X0347593Y0174379D02*
X0345007Y0174379D01*
X0345007Y0174977D02*
X0347593Y0174977D01*
X0347593Y0175576D02*
X0345007Y0175576D01*
X0345007Y0176174D02*
X0347593Y0176174D01*
X0347830Y0176773D02*
X0344770Y0176773D01*
X0344171Y0177371D02*
X0348429Y0177371D01*
X0349027Y0177970D02*
X0343573Y0177970D01*
X0342974Y0178568D02*
X0349626Y0178568D01*
X0352974Y0178568D02*
X0358800Y0178568D01*
X0358800Y0177970D02*
X0353573Y0177970D01*
X0354171Y0177371D02*
X0358800Y0177371D01*
X0358800Y0176773D02*
X0354770Y0176773D01*
X0354724Y0173182D02*
X0358800Y0173182D01*
X0358800Y0172583D02*
X0354126Y0172583D01*
X0353527Y0171985D02*
X0358800Y0171985D01*
X0358800Y0171386D02*
X0352929Y0171386D01*
X0351300Y0175000D02*
X0361300Y0175000D01*
X0366300Y0170000D01*
X0358800Y0170189D02*
X0286732Y0170189D01*
X0287007Y0170788D02*
X0358800Y0170788D01*
X0358800Y0169591D02*
X0286133Y0169591D01*
X0285535Y0168992D02*
X0358800Y0168992D01*
X0358800Y0168394D02*
X0284936Y0168394D01*
X0281664Y0168394D02*
X0273209Y0168394D01*
X0272915Y0168100D02*
X0275200Y0170385D01*
X0275200Y0171700D01*
X0271600Y0171700D01*
X0271600Y0172300D01*
X0271000Y0172300D01*
X0271000Y0175900D01*
X0269685Y0175900D01*
X0267400Y0173615D01*
X0267400Y0172300D01*
X0271000Y0172300D01*
X0271000Y0171700D01*
X0267400Y0171700D01*
X0267400Y0170385D01*
X0269685Y0168100D01*
X0271000Y0168100D01*
X0271000Y0171700D01*
X0271600Y0171700D01*
X0271600Y0168100D01*
X0272915Y0168100D01*
X0273808Y0168992D02*
X0281065Y0168992D01*
X0280467Y0169591D02*
X0274406Y0169591D01*
X0275005Y0170189D02*
X0279868Y0170189D01*
X0279593Y0170788D02*
X0275200Y0170788D01*
X0275200Y0171386D02*
X0279593Y0171386D01*
X0279593Y0171985D02*
X0271600Y0171985D01*
X0271600Y0172300D02*
X0275200Y0172300D01*
X0275200Y0173615D01*
X0272915Y0175900D01*
X0271600Y0175900D01*
X0271600Y0172300D01*
X0271600Y0172583D02*
X0271000Y0172583D01*
X0271000Y0171985D02*
X0143800Y0171985D01*
X0143800Y0172583D02*
X0267400Y0172583D01*
X0267400Y0173182D02*
X0143800Y0173182D01*
X0143800Y0173780D02*
X0267565Y0173780D01*
X0268163Y0174379D02*
X0143800Y0174379D01*
X0143800Y0174977D02*
X0268762Y0174977D01*
X0269360Y0175576D02*
X0143800Y0175576D01*
X0143800Y0171386D02*
X0267400Y0171386D01*
X0267400Y0170788D02*
X0143800Y0170788D01*
X0143800Y0170189D02*
X0267595Y0170189D01*
X0268194Y0169591D02*
X0143800Y0169591D01*
X0143800Y0168992D02*
X0268792Y0168992D01*
X0269391Y0168394D02*
X0143800Y0168394D01*
X0143800Y0167795D02*
X0358800Y0167795D01*
X0358800Y0167197D02*
X0143800Y0167197D01*
X0143800Y0166598D02*
X0358800Y0166598D01*
X0358800Y0166000D02*
X0143800Y0166000D01*
X0143800Y0165401D02*
X0358800Y0165401D01*
X0358800Y0164803D02*
X0143800Y0164803D01*
X0143800Y0164204D02*
X0358800Y0164204D01*
X0358800Y0163605D02*
X0143800Y0163605D01*
X0143800Y0163007D02*
X0358800Y0163007D01*
X0358800Y0162408D02*
X0143800Y0162408D01*
X0143800Y0161810D02*
X0358800Y0161810D01*
X0358800Y0161211D02*
X0143800Y0161211D01*
X0143800Y0160613D02*
X0358800Y0160613D01*
X0358800Y0160014D02*
X0143800Y0160014D01*
X0143800Y0159416D02*
X0358800Y0159416D01*
X0358800Y0158817D02*
X0143800Y0158817D01*
X0143800Y0158219D02*
X0358800Y0158219D01*
X0358800Y0157620D02*
X0143800Y0157620D01*
X0143800Y0157022D02*
X0358800Y0157022D01*
X0358800Y0156423D02*
X0143800Y0156423D01*
X0143800Y0155825D02*
X0358800Y0155825D01*
X0358800Y0155226D02*
X0143800Y0155226D01*
X0143800Y0154628D02*
X0358800Y0154628D01*
X0358800Y0154029D02*
X0143800Y0154029D01*
X0143800Y0153431D02*
X0358800Y0153431D01*
X0358800Y0152832D02*
X0143800Y0152832D01*
X0143800Y0152234D02*
X0358800Y0152234D01*
X0358800Y0151635D02*
X0143800Y0151635D01*
X0143800Y0151037D02*
X0358800Y0151037D01*
X0358800Y0150438D02*
X0143800Y0150438D01*
X0143800Y0149840D02*
X0358800Y0149840D01*
X0358800Y0149241D02*
X0143800Y0149241D01*
X0143800Y0148643D02*
X0358800Y0148643D01*
X0358800Y0148044D02*
X0143800Y0148044D01*
X0143800Y0147446D02*
X0358800Y0147446D01*
X0358800Y0146847D02*
X0143800Y0146847D01*
X0143800Y0146249D02*
X0358800Y0146249D01*
X0358800Y0145650D02*
X0284892Y0145650D01*
X0284836Y0145707D02*
X0281764Y0145707D01*
X0279593Y0143536D01*
X0279593Y0140464D01*
X0281764Y0138293D01*
X0284836Y0138293D01*
X0287007Y0140464D01*
X0287007Y0143536D01*
X0284836Y0145707D01*
X0285491Y0145052D02*
X0358800Y0145052D01*
X0358800Y0144453D02*
X0286089Y0144453D01*
X0286688Y0143855D02*
X0358800Y0143855D01*
X0358800Y0143256D02*
X0287007Y0143256D01*
X0287007Y0142658D02*
X0358800Y0142658D01*
X0358800Y0142059D02*
X0287007Y0142059D01*
X0287007Y0141461D02*
X0358800Y0141461D01*
X0358800Y0140862D02*
X0287007Y0140862D01*
X0286806Y0140264D02*
X0358800Y0140264D01*
X0358800Y0139665D02*
X0286208Y0139665D01*
X0285609Y0139067D02*
X0358800Y0139067D01*
X0358800Y0138468D02*
X0285011Y0138468D01*
X0281589Y0138468D02*
X0273011Y0138468D01*
X0272836Y0138293D02*
X0275007Y0140464D01*
X0275007Y0143536D01*
X0272836Y0145707D01*
X0269764Y0145707D01*
X0267593Y0143536D01*
X0267593Y0140464D01*
X0269764Y0138293D01*
X0272836Y0138293D01*
X0273609Y0139067D02*
X0280991Y0139067D01*
X0280392Y0139665D02*
X0274208Y0139665D01*
X0274806Y0140264D02*
X0279794Y0140264D01*
X0279593Y0140862D02*
X0275007Y0140862D01*
X0275007Y0141461D02*
X0279593Y0141461D01*
X0279593Y0142059D02*
X0275007Y0142059D01*
X0275007Y0142658D02*
X0279593Y0142658D01*
X0279593Y0143256D02*
X0275007Y0143256D01*
X0274688Y0143855D02*
X0279912Y0143855D01*
X0280511Y0144453D02*
X0274089Y0144453D01*
X0273491Y0145052D02*
X0281109Y0145052D01*
X0281708Y0145650D02*
X0272892Y0145650D01*
X0269708Y0145650D02*
X0143800Y0145650D01*
X0143800Y0145052D02*
X0269109Y0145052D01*
X0268511Y0144453D02*
X0143800Y0144453D01*
X0143800Y0143855D02*
X0267912Y0143855D01*
X0267593Y0143256D02*
X0143800Y0143256D01*
X0143800Y0142658D02*
X0267593Y0142658D01*
X0267593Y0142059D02*
X0143800Y0142059D01*
X0143800Y0141461D02*
X0267593Y0141461D01*
X0267593Y0140862D02*
X0143800Y0140862D01*
X0143800Y0140264D02*
X0267794Y0140264D01*
X0268392Y0139665D02*
X0143800Y0139665D01*
X0143800Y0139067D02*
X0268991Y0139067D01*
X0269589Y0138468D02*
X0143800Y0138468D01*
X0143800Y0137870D02*
X0358800Y0137870D01*
X0358571Y0137271D02*
X0143800Y0137271D01*
X0143800Y0136672D02*
X0357972Y0136672D01*
X0357374Y0136074D02*
X0143800Y0136074D01*
X0143800Y0135475D02*
X0356775Y0135475D01*
X0356177Y0134877D02*
X0143800Y0134877D01*
X0143800Y0134278D02*
X0355578Y0134278D01*
X0354980Y0133680D02*
X0143800Y0133680D01*
X0143800Y0133081D02*
X0354381Y0133081D01*
X0353783Y0132483D02*
X0143800Y0132483D01*
X0143800Y0131884D02*
X0353184Y0131884D01*
X0352586Y0131286D02*
X0143800Y0131286D01*
X0143800Y0130687D02*
X0351987Y0130687D01*
X0351389Y0130089D02*
X0143800Y0130089D01*
X0143800Y0129490D02*
X0350790Y0129490D01*
X0350192Y0128892D02*
X0143800Y0128892D01*
X0143800Y0128293D02*
X0180028Y0128293D01*
X0180341Y0128607D02*
X0179693Y0127959D01*
X0179693Y0122041D01*
X0180341Y0121393D01*
X0186259Y0121393D01*
X0186907Y0122041D01*
X0186907Y0127959D01*
X0186259Y0128607D01*
X0180341Y0128607D01*
X0179693Y0127695D02*
X0143800Y0127695D01*
X0143800Y0127096D02*
X0179693Y0127096D01*
X0179693Y0126498D02*
X0143800Y0126498D01*
X0143800Y0125899D02*
X0179693Y0125899D01*
X0179693Y0125301D02*
X0143800Y0125301D01*
X0143800Y0124702D02*
X0179693Y0124702D01*
X0179693Y0124104D02*
X0143800Y0124104D01*
X0143800Y0123505D02*
X0179693Y0123505D01*
X0179693Y0122907D02*
X0143800Y0122907D01*
X0143800Y0122308D02*
X0179693Y0122308D01*
X0180025Y0121710D02*
X0143800Y0121710D01*
X0143800Y0121111D02*
X0342411Y0121111D01*
X0341813Y0120513D02*
X0143800Y0120513D01*
X0143800Y0119914D02*
X0341214Y0119914D01*
X0340616Y0119316D02*
X0143800Y0119316D01*
X0143800Y0118717D02*
X0340017Y0118717D01*
X0339419Y0118119D02*
X0143800Y0118119D01*
X0143800Y0117520D02*
X0338820Y0117520D01*
X0338222Y0116922D02*
X0143800Y0116922D01*
X0143800Y0116323D02*
X0337623Y0116323D01*
X0337025Y0115725D02*
X0143800Y0115725D01*
X0143800Y0115126D02*
X0336426Y0115126D01*
X0335828Y0114528D02*
X0143800Y0114528D01*
X0143800Y0113929D02*
X0335229Y0113929D01*
X0334631Y0113331D02*
X0143800Y0113331D01*
X0143800Y0112732D02*
X0334032Y0112732D01*
X0333434Y0112134D02*
X0302838Y0112134D01*
X0303436Y0111535D02*
X0332835Y0111535D01*
X0332237Y0110937D02*
X0312353Y0110937D01*
X0312952Y0110338D02*
X0331638Y0110338D01*
X0331039Y0109739D02*
X0313550Y0109739D01*
X0314149Y0109141D02*
X0330441Y0109141D01*
X0329842Y0108542D02*
X0314747Y0108542D01*
X0315346Y0107944D02*
X0329244Y0107944D01*
X0328645Y0107345D02*
X0315944Y0107345D01*
X0316543Y0106747D02*
X0328047Y0106747D01*
X0327448Y0106148D02*
X0317141Y0106148D01*
X0317740Y0105550D02*
X0326850Y0105550D01*
X0326251Y0104951D02*
X0318339Y0104951D01*
X0318937Y0104353D02*
X0325653Y0104353D01*
X0325054Y0103754D02*
X0319536Y0103754D01*
X0320134Y0103156D02*
X0324456Y0103156D01*
X0323857Y0102557D02*
X0320733Y0102557D01*
X0321331Y0101959D02*
X0323259Y0101959D01*
X0322660Y0101360D02*
X0321930Y0101360D01*
X0321300Y0100000D02*
X0321300Y0060000D01*
X0311300Y0050000D01*
X0191300Y0050000D01*
X0161300Y0080000D01*
X0168599Y0085201D02*
X0316300Y0085201D01*
X0316300Y0085799D02*
X0168001Y0085799D01*
X0167402Y0086398D02*
X0316300Y0086398D01*
X0316300Y0086996D02*
X0166804Y0086996D01*
X0166205Y0087595D02*
X0316300Y0087595D01*
X0316300Y0088193D02*
X0165607Y0088193D01*
X0165008Y0088792D02*
X0316300Y0088792D01*
X0316300Y0089390D02*
X0164410Y0089390D01*
X0163811Y0089989D02*
X0316300Y0089989D01*
X0316300Y0090587D02*
X0163213Y0090587D01*
X0162614Y0091186D02*
X0316300Y0091186D01*
X0316300Y0091784D02*
X0162016Y0091784D01*
X0161417Y0092383D02*
X0316300Y0092383D01*
X0316300Y0092981D02*
X0160819Y0092981D01*
X0160220Y0093580D02*
X0316300Y0093580D01*
X0316300Y0094178D02*
X0159622Y0094178D01*
X0159023Y0094777D02*
X0316300Y0094777D01*
X0316675Y0095375D02*
X0158425Y0095375D01*
X0157826Y0095974D02*
X0317274Y0095974D01*
X0317872Y0096572D02*
X0157228Y0096572D01*
X0156629Y0097171D02*
X0228614Y0097171D01*
X0228685Y0097100D02*
X0226400Y0099385D01*
X0226400Y0100700D01*
X0230000Y0100700D01*
X0230000Y0101300D01*
X0230000Y0104900D01*
X0228685Y0104900D01*
X0226400Y0102615D01*
X0226400Y0101300D01*
X0230000Y0101300D01*
X0230600Y0101300D01*
X0230600Y0104900D01*
X0231915Y0104900D01*
X0234200Y0102615D01*
X0234200Y0101300D01*
X0230600Y0101300D01*
X0230600Y0100700D01*
X0234200Y0100700D01*
X0234200Y0099385D01*
X0231915Y0097100D01*
X0230600Y0097100D01*
X0230600Y0100700D01*
X0230000Y0100700D01*
X0230000Y0097100D01*
X0228685Y0097100D01*
X0228015Y0097769D02*
X0222312Y0097769D01*
X0221836Y0097293D02*
X0224007Y0099464D01*
X0224007Y0102536D01*
X0221836Y0104707D01*
X0218764Y0104707D01*
X0216593Y0102536D01*
X0216593Y0099464D01*
X0218764Y0097293D01*
X0221836Y0097293D01*
X0222910Y0098368D02*
X0227417Y0098368D01*
X0226818Y0098966D02*
X0223509Y0098966D01*
X0224007Y0099565D02*
X0226400Y0099565D01*
X0226400Y0100163D02*
X0224007Y0100163D01*
X0224007Y0100762D02*
X0230000Y0100762D01*
X0230000Y0101360D02*
X0230600Y0101360D01*
X0230600Y0100762D02*
X0242593Y0100762D01*
X0242593Y0101360D02*
X0234200Y0101360D01*
X0234200Y0101959D02*
X0242593Y0101959D01*
X0242593Y0102536D02*
X0242593Y0099464D01*
X0244764Y0097293D01*
X0247836Y0097293D01*
X0250007Y0099464D01*
X0250007Y0102536D01*
X0247836Y0104707D01*
X0244764Y0104707D01*
X0242593Y0102536D01*
X0242615Y0102557D02*
X0234200Y0102557D01*
X0233660Y0103156D02*
X0243213Y0103156D01*
X0243812Y0103754D02*
X0233061Y0103754D01*
X0232463Y0104353D02*
X0244410Y0104353D01*
X0248190Y0104353D02*
X0255137Y0104353D01*
X0255685Y0104900D02*
X0253400Y0102615D01*
X0253400Y0101300D01*
X0257000Y0101300D01*
X0257000Y0104900D01*
X0255685Y0104900D01*
X0257000Y0104353D02*
X0257600Y0104353D01*
X0257600Y0104900D02*
X0257600Y0101300D01*
X0257000Y0101300D01*
X0257000Y0100700D01*
X0253400Y0100700D01*
X0253400Y0099385D01*
X0255685Y0097100D01*
X0257000Y0097100D01*
X0257000Y0100700D01*
X0257600Y0100700D01*
X0257600Y0101300D01*
X0261200Y0101300D01*
X0261200Y0102615D01*
X0258915Y0104900D01*
X0257600Y0104900D01*
X0257600Y0103754D02*
X0257000Y0103754D01*
X0257000Y0103156D02*
X0257600Y0103156D01*
X0257600Y0102557D02*
X0257000Y0102557D01*
X0257000Y0101959D02*
X0257600Y0101959D01*
X0257600Y0101360D02*
X0257000Y0101360D01*
X0257000Y0100762D02*
X0250007Y0100762D01*
X0250007Y0101360D02*
X0253400Y0101360D01*
X0253400Y0101959D02*
X0250007Y0101959D01*
X0249985Y0102557D02*
X0253400Y0102557D01*
X0253940Y0103156D02*
X0249387Y0103156D01*
X0248788Y0103754D02*
X0254539Y0103754D01*
X0253400Y0100163D02*
X0250007Y0100163D01*
X0250007Y0099565D02*
X0253400Y0099565D01*
X0253818Y0098966D02*
X0249509Y0098966D01*
X0248910Y0098368D02*
X0254417Y0098368D01*
X0255015Y0097769D02*
X0248312Y0097769D01*
X0244288Y0097769D02*
X0232585Y0097769D01*
X0233183Y0098368D02*
X0243690Y0098368D01*
X0243091Y0098966D02*
X0233782Y0098966D01*
X0234200Y0099565D02*
X0242593Y0099565D01*
X0242593Y0100163D02*
X0234200Y0100163D01*
X0230600Y0100163D02*
X0230000Y0100163D01*
X0230000Y0099565D02*
X0230600Y0099565D01*
X0230600Y0098966D02*
X0230000Y0098966D01*
X0230000Y0098368D02*
X0230600Y0098368D01*
X0230600Y0097769D02*
X0230000Y0097769D01*
X0230000Y0097171D02*
X0230600Y0097171D01*
X0231986Y0097171D02*
X0255614Y0097171D01*
X0257000Y0097171D02*
X0257600Y0097171D01*
X0257600Y0097100D02*
X0258915Y0097100D01*
X0261200Y0099385D01*
X0261200Y0100700D01*
X0257600Y0100700D01*
X0257600Y0097100D01*
X0257600Y0097769D02*
X0257000Y0097769D01*
X0257000Y0098368D02*
X0257600Y0098368D01*
X0257600Y0098966D02*
X0257000Y0098966D01*
X0257000Y0099565D02*
X0257600Y0099565D01*
X0257600Y0100163D02*
X0257000Y0100163D01*
X0257600Y0100762D02*
X0318548Y0100762D01*
X0317950Y0101360D02*
X0261200Y0101360D01*
X0261200Y0101959D02*
X0317351Y0101959D01*
X0316753Y0102557D02*
X0261200Y0102557D01*
X0260660Y0103156D02*
X0316154Y0103156D01*
X0315556Y0103754D02*
X0260061Y0103754D01*
X0259463Y0104353D02*
X0314957Y0104353D01*
X0314359Y0104951D02*
X0172864Y0104951D01*
X0173463Y0104353D02*
X0218410Y0104353D01*
X0217812Y0103754D02*
X0174061Y0103754D01*
X0174200Y0103615D02*
X0171915Y0105900D01*
X0170600Y0105900D01*
X0170600Y0102300D01*
X0174200Y0102300D01*
X0174200Y0103615D01*
X0174200Y0103156D02*
X0217213Y0103156D01*
X0216615Y0102557D02*
X0174200Y0102557D01*
X0174200Y0101700D02*
X0170600Y0101700D01*
X0170600Y0102300D01*
X0170000Y0102300D01*
X0170000Y0105900D01*
X0168685Y0105900D01*
X0166400Y0103615D01*
X0166400Y0102300D01*
X0170000Y0102300D01*
X0170000Y0101700D01*
X0170600Y0101700D01*
X0170600Y0098100D01*
X0171915Y0098100D01*
X0174200Y0100385D01*
X0174200Y0101700D01*
X0174200Y0101360D02*
X0216593Y0101360D01*
X0216593Y0100762D02*
X0174200Y0100762D01*
X0173979Y0100163D02*
X0216593Y0100163D01*
X0216593Y0099565D02*
X0173380Y0099565D01*
X0172782Y0098966D02*
X0217091Y0098966D01*
X0217690Y0098368D02*
X0172183Y0098368D01*
X0170600Y0098368D02*
X0170000Y0098368D01*
X0170000Y0098100D02*
X0170000Y0101700D01*
X0166400Y0101700D01*
X0166400Y0100385D01*
X0168685Y0098100D01*
X0170000Y0098100D01*
X0170000Y0098966D02*
X0170600Y0098966D01*
X0170600Y0099565D02*
X0170000Y0099565D01*
X0170000Y0100163D02*
X0170600Y0100163D01*
X0170600Y0100762D02*
X0170000Y0100762D01*
X0170000Y0101360D02*
X0170600Y0101360D01*
X0170600Y0101959D02*
X0216593Y0101959D01*
X0218288Y0097769D02*
X0156031Y0097769D01*
X0155432Y0098368D02*
X0158690Y0098368D01*
X0158764Y0098293D02*
X0161836Y0098293D01*
X0164007Y0100464D01*
X0164007Y0103536D01*
X0161836Y0105707D01*
X0158764Y0105707D01*
X0156593Y0103536D01*
X0156593Y0100464D01*
X0158764Y0098293D01*
X0158091Y0098966D02*
X0154834Y0098966D01*
X0154235Y0099565D02*
X0157493Y0099565D01*
X0156894Y0100163D02*
X0153637Y0100163D01*
X0153038Y0100762D02*
X0156593Y0100762D01*
X0156593Y0101360D02*
X0152440Y0101360D01*
X0151841Y0101959D02*
X0156593Y0101959D01*
X0156593Y0102557D02*
X0151243Y0102557D01*
X0150644Y0103156D02*
X0156593Y0103156D01*
X0156812Y0103754D02*
X0150046Y0103754D01*
X0149447Y0104353D02*
X0157410Y0104353D01*
X0158009Y0104951D02*
X0148849Y0104951D01*
X0148250Y0105550D02*
X0158607Y0105550D01*
X0161993Y0105550D02*
X0168334Y0105550D01*
X0167736Y0104951D02*
X0162591Y0104951D01*
X0163190Y0104353D02*
X0167137Y0104353D01*
X0166539Y0103754D02*
X0163788Y0103754D01*
X0164007Y0103156D02*
X0166400Y0103156D01*
X0166400Y0102557D02*
X0164007Y0102557D01*
X0164007Y0101959D02*
X0170000Y0101959D01*
X0170000Y0102557D02*
X0170600Y0102557D01*
X0170600Y0103156D02*
X0170000Y0103156D01*
X0170000Y0103754D02*
X0170600Y0103754D01*
X0170600Y0104353D02*
X0170000Y0104353D01*
X0170000Y0104951D02*
X0170600Y0104951D01*
X0170600Y0105550D02*
X0170000Y0105550D01*
X0172266Y0105550D02*
X0313760Y0105550D01*
X0313162Y0106148D02*
X0147652Y0106148D01*
X0147053Y0106747D02*
X0312563Y0106747D01*
X0311965Y0107345D02*
X0146455Y0107345D01*
X0145856Y0107944D02*
X0299685Y0107944D01*
X0299094Y0108542D02*
X0145258Y0108542D01*
X0144659Y0109141D02*
X0298846Y0109141D01*
X0298704Y0109739D02*
X0144061Y0109739D01*
X0143800Y0110338D02*
X0298704Y0110338D01*
X0298878Y0110937D02*
X0143800Y0110937D01*
X0143800Y0111535D02*
X0299164Y0111535D01*
X0299762Y0112134D02*
X0143800Y0112134D01*
X0136300Y0112134D02*
X0005900Y0112134D01*
X0005900Y0112732D02*
X0136300Y0112732D01*
X0136300Y0113331D02*
X0005900Y0113331D01*
X0005900Y0113929D02*
X0136300Y0113929D01*
X0136300Y0114528D02*
X0005900Y0114528D01*
X0005900Y0115126D02*
X0136300Y0115126D01*
X0136300Y0115725D02*
X0005900Y0115725D01*
X0005900Y0116323D02*
X0136300Y0116323D01*
X0136300Y0116922D02*
X0005900Y0116922D01*
X0005900Y0117520D02*
X0136300Y0117520D01*
X0136300Y0118119D02*
X0005900Y0118119D01*
X0005900Y0118717D02*
X0136300Y0118717D01*
X0136300Y0119316D02*
X0031841Y0119316D01*
X0032499Y0119492D02*
X0029903Y0118796D01*
X0027216Y0118796D01*
X0024621Y0119492D01*
X0022294Y0120836D01*
X0020393Y0122736D01*
X0019050Y0125063D01*
X0018354Y0127658D01*
X0018354Y0130346D01*
X0019050Y0132941D01*
X0020393Y0135268D01*
X0022294Y0137168D01*
X0024621Y0138512D01*
X0027216Y0139207D01*
X0029903Y0139207D01*
X0032499Y0138512D01*
X0034826Y0137168D01*
X0036726Y0135268D01*
X0038070Y0132941D01*
X0038765Y0130346D01*
X0038765Y0127658D01*
X0038070Y0125063D01*
X0036726Y0122736D01*
X0034826Y0120836D01*
X0032499Y0119492D01*
X0033230Y0119914D02*
X0136300Y0119914D01*
X0136300Y0120513D02*
X0034267Y0120513D01*
X0035102Y0121111D02*
X0049573Y0121111D01*
X0049612Y0121072D02*
X0049908Y0120901D01*
X0050239Y0120812D01*
X0057000Y0120812D01*
X0057000Y0128702D01*
X0049110Y0128702D01*
X0049110Y0121941D01*
X0049199Y0121610D01*
X0049370Y0121314D01*
X0049612Y0121072D01*
X0049172Y0121710D02*
X0035700Y0121710D01*
X0036299Y0122308D02*
X0049110Y0122308D01*
X0049110Y0122907D02*
X0036825Y0122907D01*
X0037171Y0123505D02*
X0049110Y0123505D01*
X0049110Y0124104D02*
X0037516Y0124104D01*
X0037862Y0124702D02*
X0049110Y0124702D01*
X0049110Y0125301D02*
X0038134Y0125301D01*
X0038294Y0125899D02*
X0049110Y0125899D01*
X0049110Y0126498D02*
X0038454Y0126498D01*
X0038615Y0127096D02*
X0049110Y0127096D01*
X0049110Y0127695D02*
X0038765Y0127695D01*
X0038765Y0128293D02*
X0049110Y0128293D01*
X0049110Y0129302D02*
X0057000Y0129302D01*
X0057000Y0137192D01*
X0050239Y0137192D01*
X0049908Y0137103D01*
X0049612Y0136932D01*
X0049370Y0136690D01*
X0049199Y0136394D01*
X0049110Y0136063D01*
X0049110Y0129302D01*
X0049110Y0129490D02*
X0038765Y0129490D01*
X0038765Y0128892D02*
X0057000Y0128892D01*
X0057000Y0128702D02*
X0057000Y0129302D01*
X0057600Y0129302D01*
X0057600Y0137192D01*
X0064361Y0137192D01*
X0064692Y0137103D01*
X0064988Y0136932D01*
X0065230Y0136690D01*
X0065401Y0136394D01*
X0065490Y0136063D01*
X0065490Y0129302D01*
X0057600Y0129302D01*
X0057600Y0128702D01*
X0065490Y0128702D01*
X0065490Y0121941D01*
X0065401Y0121610D01*
X0065230Y0121314D01*
X0064988Y0121072D01*
X0064692Y0120901D01*
X0064361Y0120812D01*
X0057600Y0120812D01*
X0057600Y0128702D01*
X0057000Y0128702D01*
X0057000Y0128293D02*
X0057600Y0128293D01*
X0057600Y0127695D02*
X0057000Y0127695D01*
X0057000Y0127096D02*
X0057600Y0127096D01*
X0057600Y0126498D02*
X0057000Y0126498D01*
X0057000Y0125899D02*
X0057600Y0125899D01*
X0057600Y0125301D02*
X0057000Y0125301D01*
X0057000Y0124702D02*
X0057600Y0124702D01*
X0057600Y0124104D02*
X0057000Y0124104D01*
X0057000Y0123505D02*
X0057600Y0123505D01*
X0057600Y0122907D02*
X0057000Y0122907D01*
X0057000Y0122308D02*
X0057600Y0122308D01*
X0057600Y0121710D02*
X0057000Y0121710D01*
X0057000Y0121111D02*
X0057600Y0121111D01*
X0065027Y0121111D02*
X0075582Y0121111D01*
X0075688Y0121005D02*
X0082312Y0121005D01*
X0086997Y0125690D01*
X0086997Y0132314D01*
X0082312Y0136999D01*
X0075688Y0136999D01*
X0071003Y0132314D01*
X0071003Y0125690D01*
X0075688Y0121005D01*
X0074983Y0121710D02*
X0065428Y0121710D01*
X0065490Y0122308D02*
X0074384Y0122308D01*
X0073786Y0122907D02*
X0065490Y0122907D01*
X0065490Y0123505D02*
X0073187Y0123505D01*
X0072589Y0124104D02*
X0065490Y0124104D01*
X0065490Y0124702D02*
X0071990Y0124702D01*
X0071392Y0125301D02*
X0065490Y0125301D01*
X0065490Y0125899D02*
X0071003Y0125899D01*
X0071003Y0126498D02*
X0065490Y0126498D01*
X0065490Y0127096D02*
X0071003Y0127096D01*
X0071003Y0127695D02*
X0065490Y0127695D01*
X0065490Y0128293D02*
X0071003Y0128293D01*
X0071003Y0128892D02*
X0057600Y0128892D01*
X0057600Y0129490D02*
X0057000Y0129490D01*
X0057000Y0130089D02*
X0057600Y0130089D01*
X0057600Y0130687D02*
X0057000Y0130687D01*
X0057000Y0131286D02*
X0057600Y0131286D01*
X0057600Y0131884D02*
X0057000Y0131884D01*
X0057000Y0132483D02*
X0057600Y0132483D01*
X0057600Y0133081D02*
X0057000Y0133081D01*
X0057000Y0133680D02*
X0057600Y0133680D01*
X0057600Y0134278D02*
X0057000Y0134278D01*
X0057000Y0134877D02*
X0057600Y0134877D01*
X0057600Y0135475D02*
X0057000Y0135475D01*
X0057000Y0136074D02*
X0057600Y0136074D01*
X0057600Y0136672D02*
X0057000Y0136672D01*
X0057000Y0137312D02*
X0057000Y0145202D01*
X0049110Y0145202D01*
X0049110Y0142110D01*
X0053908Y0137312D01*
X0057000Y0137312D01*
X0057000Y0137870D02*
X0057600Y0137870D01*
X0057600Y0137312D02*
X0060692Y0137312D01*
X0065490Y0142110D01*
X0065490Y0145202D01*
X0057600Y0145202D01*
X0057600Y0145802D01*
X0057000Y0145802D01*
X0057000Y0153692D01*
X0053908Y0153692D01*
X0049110Y0148894D01*
X0049110Y0145802D01*
X0057000Y0145802D01*
X0057000Y0145202D01*
X0057600Y0145202D01*
X0057600Y0137312D01*
X0057600Y0138468D02*
X0057000Y0138468D01*
X0057000Y0139067D02*
X0057600Y0139067D01*
X0057600Y0139665D02*
X0057000Y0139665D01*
X0057000Y0140264D02*
X0057600Y0140264D01*
X0057600Y0140862D02*
X0057000Y0140862D01*
X0057000Y0141461D02*
X0057600Y0141461D01*
X0057600Y0142059D02*
X0057000Y0142059D01*
X0057000Y0142658D02*
X0057600Y0142658D01*
X0057600Y0143256D02*
X0057000Y0143256D01*
X0057000Y0143855D02*
X0057600Y0143855D01*
X0057600Y0144453D02*
X0057000Y0144453D01*
X0057000Y0145052D02*
X0057600Y0145052D01*
X0057600Y0145650D02*
X0071003Y0145650D01*
X0071003Y0145052D02*
X0065490Y0145052D01*
X0065490Y0144453D02*
X0071003Y0144453D01*
X0071003Y0143855D02*
X0065490Y0143855D01*
X0065490Y0143256D02*
X0071003Y0143256D01*
X0071003Y0142658D02*
X0065490Y0142658D01*
X0065439Y0142059D02*
X0071134Y0142059D01*
X0071003Y0142190D02*
X0075688Y0137505D01*
X0082312Y0137505D01*
X0086997Y0142190D01*
X0086997Y0148814D01*
X0082312Y0153499D01*
X0075688Y0153499D01*
X0071003Y0148814D01*
X0071003Y0142190D01*
X0071732Y0141461D02*
X0064841Y0141461D01*
X0064242Y0140862D02*
X0072331Y0140862D01*
X0072929Y0140264D02*
X0063644Y0140264D01*
X0063045Y0139665D02*
X0073528Y0139665D01*
X0074126Y0139067D02*
X0062447Y0139067D01*
X0061848Y0138468D02*
X0074725Y0138468D01*
X0075323Y0137870D02*
X0061250Y0137870D01*
X0065240Y0136672D02*
X0075361Y0136672D01*
X0074763Y0136074D02*
X0065487Y0136074D01*
X0065490Y0135475D02*
X0074164Y0135475D01*
X0073566Y0134877D02*
X0065490Y0134877D01*
X0065490Y0134278D02*
X0072967Y0134278D01*
X0072369Y0133680D02*
X0065490Y0133680D01*
X0065490Y0133081D02*
X0071770Y0133081D01*
X0071172Y0132483D02*
X0065490Y0132483D01*
X0065490Y0131884D02*
X0071003Y0131884D01*
X0071003Y0131286D02*
X0065490Y0131286D01*
X0065490Y0130687D02*
X0071003Y0130687D01*
X0071003Y0130089D02*
X0065490Y0130089D01*
X0065490Y0129490D02*
X0071003Y0129490D01*
X0082639Y0136672D02*
X0136300Y0136672D01*
X0136300Y0136074D02*
X0083237Y0136074D01*
X0083836Y0135475D02*
X0136300Y0135475D01*
X0136300Y0134877D02*
X0084434Y0134877D01*
X0085033Y0134278D02*
X0136300Y0134278D01*
X0136300Y0133680D02*
X0085631Y0133680D01*
X0086230Y0133081D02*
X0136300Y0133081D01*
X0136300Y0132483D02*
X0086828Y0132483D01*
X0086997Y0131884D02*
X0136300Y0131884D01*
X0136300Y0131286D02*
X0086997Y0131286D01*
X0086997Y0130687D02*
X0136300Y0130687D01*
X0136300Y0130089D02*
X0086997Y0130089D01*
X0086997Y0129490D02*
X0136300Y0129490D01*
X0136300Y0128892D02*
X0086997Y0128892D01*
X0086997Y0128293D02*
X0099757Y0128293D01*
X0099760Y0128298D02*
X0099589Y0128002D01*
X0099500Y0127671D01*
X0099500Y0125300D01*
X0103000Y0125300D01*
X0103000Y0128800D01*
X0100629Y0128800D01*
X0100298Y0128711D01*
X0100002Y0128540D01*
X0099760Y0128298D01*
X0099506Y0127695D02*
X0086997Y0127695D01*
X0086997Y0127096D02*
X0099500Y0127096D01*
X0099500Y0126498D02*
X0086997Y0126498D01*
X0086997Y0125899D02*
X0099500Y0125899D01*
X0099500Y0125301D02*
X0086608Y0125301D01*
X0086010Y0124702D02*
X0103000Y0124702D01*
X0103000Y0124700D02*
X0099500Y0124700D01*
X0099500Y0122329D01*
X0099589Y0121998D01*
X0099760Y0121702D01*
X0100002Y0121460D01*
X0100298Y0121289D01*
X0100629Y0121200D01*
X0103000Y0121200D01*
X0103000Y0124700D01*
X0103600Y0124700D01*
X0103600Y0125300D01*
X0103000Y0125300D01*
X0103000Y0124700D01*
X0103000Y0124104D02*
X0103600Y0124104D01*
X0103600Y0124700D02*
X0103600Y0121200D01*
X0105971Y0121200D01*
X0106302Y0121289D01*
X0106598Y0121460D01*
X0106840Y0121702D01*
X0107011Y0121998D01*
X0107100Y0122329D01*
X0107100Y0124700D01*
X0103600Y0124700D01*
X0103600Y0124702D02*
X0113000Y0124702D01*
X0113000Y0124700D02*
X0109500Y0124700D01*
X0109500Y0122329D01*
X0109589Y0121998D01*
X0109760Y0121702D01*
X0110002Y0121460D01*
X0110298Y0121289D01*
X0110629Y0121200D01*
X0113000Y0121200D01*
X0113000Y0124700D01*
X0113600Y0124700D01*
X0113600Y0125300D01*
X0113000Y0125300D01*
X0113000Y0128800D01*
X0110629Y0128800D01*
X0110298Y0128711D01*
X0110002Y0128540D01*
X0109760Y0128298D01*
X0109589Y0128002D01*
X0109500Y0127671D01*
X0109500Y0125300D01*
X0113000Y0125300D01*
X0113000Y0124700D01*
X0113000Y0124104D02*
X0113600Y0124104D01*
X0113600Y0124700D02*
X0113600Y0121200D01*
X0115971Y0121200D01*
X0116302Y0121289D01*
X0116598Y0121460D01*
X0116840Y0121702D01*
X0117011Y0121998D01*
X0117100Y0122329D01*
X0117100Y0124700D01*
X0113600Y0124700D01*
X0113600Y0124702D02*
X0123000Y0124702D01*
X0123000Y0124700D02*
X0119500Y0124700D01*
X0119500Y0122329D01*
X0119589Y0121998D01*
X0119760Y0121702D01*
X0120002Y0121460D01*
X0120298Y0121289D01*
X0120629Y0121200D01*
X0123000Y0121200D01*
X0123000Y0124700D01*
X0123600Y0124700D01*
X0123600Y0125300D01*
X0123000Y0125300D01*
X0123000Y0128800D01*
X0120629Y0128800D01*
X0120298Y0128711D01*
X0120002Y0128540D01*
X0119760Y0128298D01*
X0119589Y0128002D01*
X0119500Y0127671D01*
X0119500Y0125300D01*
X0123000Y0125300D01*
X0123000Y0124700D01*
X0123000Y0124104D02*
X0123600Y0124104D01*
X0123600Y0124700D02*
X0123600Y0121200D01*
X0125971Y0121200D01*
X0126302Y0121289D01*
X0126598Y0121460D01*
X0126840Y0121702D01*
X0127011Y0121998D01*
X0127100Y0122329D01*
X0127100Y0124700D01*
X0123600Y0124700D01*
X0123600Y0124702D02*
X0136300Y0124702D01*
X0136300Y0124104D02*
X0127100Y0124104D01*
X0127100Y0123505D02*
X0136300Y0123505D01*
X0136300Y0122907D02*
X0127100Y0122907D01*
X0127094Y0122308D02*
X0136300Y0122308D01*
X0136300Y0121710D02*
X0126845Y0121710D01*
X0123600Y0121710D02*
X0123000Y0121710D01*
X0123000Y0122308D02*
X0123600Y0122308D01*
X0123600Y0122907D02*
X0123000Y0122907D01*
X0123000Y0123505D02*
X0123600Y0123505D01*
X0123600Y0125300D02*
X0127100Y0125300D01*
X0127100Y0127671D01*
X0127011Y0128002D01*
X0126840Y0128298D01*
X0126598Y0128540D01*
X0126302Y0128711D01*
X0125971Y0128800D01*
X0123600Y0128800D01*
X0123600Y0125300D01*
X0123600Y0125301D02*
X0123000Y0125301D01*
X0123000Y0125899D02*
X0123600Y0125899D01*
X0123600Y0126498D02*
X0123000Y0126498D01*
X0123000Y0127096D02*
X0123600Y0127096D01*
X0123600Y0127695D02*
X0123000Y0127695D01*
X0123000Y0128293D02*
X0123600Y0128293D01*
X0126843Y0128293D02*
X0136300Y0128293D01*
X0136300Y0127695D02*
X0127094Y0127695D01*
X0127100Y0127096D02*
X0136300Y0127096D01*
X0136300Y0126498D02*
X0127100Y0126498D01*
X0127100Y0125899D02*
X0136300Y0125899D01*
X0136300Y0125301D02*
X0127100Y0125301D01*
X0119500Y0125301D02*
X0117100Y0125301D01*
X0117100Y0125300D02*
X0117100Y0127671D01*
X0117011Y0128002D01*
X0116840Y0128298D01*
X0116598Y0128540D01*
X0116302Y0128711D01*
X0115971Y0128800D01*
X0113600Y0128800D01*
X0113600Y0125300D01*
X0117100Y0125300D01*
X0117100Y0125899D02*
X0119500Y0125899D01*
X0119500Y0126498D02*
X0117100Y0126498D01*
X0117100Y0127096D02*
X0119500Y0127096D01*
X0119506Y0127695D02*
X0117094Y0127695D01*
X0116843Y0128293D02*
X0119757Y0128293D01*
X0119500Y0124104D02*
X0117100Y0124104D01*
X0117100Y0123505D02*
X0119500Y0123505D01*
X0119500Y0122907D02*
X0117100Y0122907D01*
X0117094Y0122308D02*
X0119506Y0122308D01*
X0119755Y0121710D02*
X0116845Y0121710D01*
X0113600Y0121710D02*
X0113000Y0121710D01*
X0113000Y0122308D02*
X0113600Y0122308D01*
X0113600Y0122907D02*
X0113000Y0122907D01*
X0113000Y0123505D02*
X0113600Y0123505D01*
X0113600Y0125301D02*
X0113000Y0125301D01*
X0113000Y0125899D02*
X0113600Y0125899D01*
X0113600Y0126498D02*
X0113000Y0126498D01*
X0113000Y0127096D02*
X0113600Y0127096D01*
X0113600Y0127695D02*
X0113000Y0127695D01*
X0113000Y0128293D02*
X0113600Y0128293D01*
X0109757Y0128293D02*
X0106843Y0128293D01*
X0106840Y0128298D02*
X0106598Y0128540D01*
X0106302Y0128711D01*
X0105971Y0128800D01*
X0103600Y0128800D01*
X0103600Y0125300D01*
X0107100Y0125300D01*
X0107100Y0127671D01*
X0107011Y0128002D01*
X0106840Y0128298D01*
X0107094Y0127695D02*
X0109506Y0127695D01*
X0109500Y0127096D02*
X0107100Y0127096D01*
X0107100Y0126498D02*
X0109500Y0126498D01*
X0109500Y0125899D02*
X0107100Y0125899D01*
X0107100Y0125301D02*
X0109500Y0125301D01*
X0109500Y0124104D02*
X0107100Y0124104D01*
X0107100Y0123505D02*
X0109500Y0123505D01*
X0109500Y0122907D02*
X0107100Y0122907D01*
X0107094Y0122308D02*
X0109506Y0122308D01*
X0109755Y0121710D02*
X0106845Y0121710D01*
X0103600Y0121710D02*
X0103000Y0121710D01*
X0103000Y0122308D02*
X0103600Y0122308D01*
X0103600Y0122907D02*
X0103000Y0122907D01*
X0103000Y0123505D02*
X0103600Y0123505D01*
X0103600Y0125301D02*
X0103000Y0125301D01*
X0103000Y0125899D02*
X0103600Y0125899D01*
X0103600Y0126498D02*
X0103000Y0126498D01*
X0103000Y0127096D02*
X0103600Y0127096D01*
X0103600Y0127695D02*
X0103000Y0127695D01*
X0103000Y0128293D02*
X0103600Y0128293D01*
X0099500Y0124104D02*
X0085411Y0124104D01*
X0084813Y0123505D02*
X0099500Y0123505D01*
X0099500Y0122907D02*
X0084214Y0122907D01*
X0083615Y0122308D02*
X0099506Y0122308D01*
X0099755Y0121710D02*
X0083017Y0121710D01*
X0082418Y0121111D02*
X0136300Y0121111D01*
X0136300Y0111535D02*
X0005900Y0111535D01*
X0005900Y0110937D02*
X0136300Y0110937D01*
X0136300Y0110338D02*
X0005900Y0110338D01*
X0005900Y0109739D02*
X0136039Y0109739D01*
X0136300Y0110000D02*
X0136300Y0399400D01*
X0022067Y0399400D01*
X0022382Y0399085D01*
X0023794Y0396640D01*
X0024525Y0393912D01*
X0024525Y0391088D01*
X0023794Y0388360D01*
X0022382Y0385915D01*
X0020385Y0383918D01*
X0017940Y0382506D01*
X0015212Y0381775D01*
X0012388Y0381775D01*
X0009660Y0382506D01*
X0007215Y0383918D01*
X0005900Y0385233D01*
X0005900Y0098000D01*
X0124300Y0098000D01*
X0136300Y0110000D01*
X0135441Y0109141D02*
X0005900Y0109141D01*
X0005900Y0108542D02*
X0134842Y0108542D01*
X0134244Y0107944D02*
X0005900Y0107944D01*
X0005900Y0107345D02*
X0133645Y0107345D01*
X0133047Y0106747D02*
X0005900Y0106747D01*
X0005900Y0106148D02*
X0132448Y0106148D01*
X0131850Y0105550D02*
X0005900Y0105550D01*
X0005900Y0104951D02*
X0131251Y0104951D01*
X0130653Y0104353D02*
X0005900Y0104353D01*
X0005900Y0103754D02*
X0130054Y0103754D01*
X0129456Y0103156D02*
X0005900Y0103156D01*
X0005900Y0102557D02*
X0128857Y0102557D01*
X0128259Y0101959D02*
X0005900Y0101959D01*
X0005900Y0101360D02*
X0127660Y0101360D01*
X0127062Y0100762D02*
X0005900Y0100762D01*
X0005900Y0100163D02*
X0126463Y0100163D01*
X0125865Y0099565D02*
X0005900Y0099565D01*
X0005900Y0098966D02*
X0125266Y0098966D01*
X0124668Y0098368D02*
X0005900Y0098368D01*
X0005900Y0119316D02*
X0025279Y0119316D01*
X0023889Y0119914D02*
X0005900Y0119914D01*
X0005900Y0120513D02*
X0022853Y0120513D01*
X0022018Y0121111D02*
X0005900Y0121111D01*
X0005900Y0121710D02*
X0021419Y0121710D01*
X0020821Y0122308D02*
X0005900Y0122308D01*
X0005900Y0122907D02*
X0020295Y0122907D01*
X0019949Y0123505D02*
X0005900Y0123505D01*
X0005900Y0124104D02*
X0019604Y0124104D01*
X0019258Y0124702D02*
X0005900Y0124702D01*
X0005900Y0125301D02*
X0018986Y0125301D01*
X0018826Y0125899D02*
X0005900Y0125899D01*
X0005900Y0126498D02*
X0018665Y0126498D01*
X0018505Y0127096D02*
X0005900Y0127096D01*
X0005900Y0127695D02*
X0018354Y0127695D01*
X0018354Y0128293D02*
X0005900Y0128293D01*
X0005900Y0128892D02*
X0018354Y0128892D01*
X0018354Y0129490D02*
X0005900Y0129490D01*
X0005900Y0130089D02*
X0018354Y0130089D01*
X0018446Y0130687D02*
X0005900Y0130687D01*
X0005900Y0131286D02*
X0018606Y0131286D01*
X0018767Y0131884D02*
X0005900Y0131884D01*
X0005900Y0132483D02*
X0018927Y0132483D01*
X0019131Y0133081D02*
X0005900Y0133081D01*
X0005900Y0133680D02*
X0019476Y0133680D01*
X0019822Y0134278D02*
X0005900Y0134278D01*
X0005900Y0134877D02*
X0020167Y0134877D01*
X0020601Y0135475D02*
X0005900Y0135475D01*
X0005900Y0136074D02*
X0021199Y0136074D01*
X0021798Y0136672D02*
X0005900Y0136672D01*
X0005900Y0137271D02*
X0022471Y0137271D01*
X0023508Y0137870D02*
X0005900Y0137870D01*
X0005900Y0138468D02*
X0024545Y0138468D01*
X0026690Y0139067D02*
X0005900Y0139067D01*
X0005900Y0139665D02*
X0051555Y0139665D01*
X0052153Y0139067D02*
X0030429Y0139067D01*
X0032575Y0138468D02*
X0052752Y0138468D01*
X0053350Y0137870D02*
X0033612Y0137870D01*
X0034648Y0137271D02*
X0136300Y0137271D01*
X0136300Y0137870D02*
X0082677Y0137870D01*
X0083275Y0138468D02*
X0136300Y0138468D01*
X0136300Y0139067D02*
X0083874Y0139067D01*
X0084472Y0139665D02*
X0136300Y0139665D01*
X0136300Y0140264D02*
X0085071Y0140264D01*
X0085669Y0140862D02*
X0136300Y0140862D01*
X0136300Y0141461D02*
X0086268Y0141461D01*
X0086866Y0142059D02*
X0136300Y0142059D01*
X0136300Y0142658D02*
X0086997Y0142658D01*
X0086997Y0143256D02*
X0136300Y0143256D01*
X0136300Y0143855D02*
X0086997Y0143855D01*
X0086997Y0144453D02*
X0136300Y0144453D01*
X0136300Y0145052D02*
X0086997Y0145052D01*
X0086997Y0145650D02*
X0136300Y0145650D01*
X0136300Y0146249D02*
X0086997Y0146249D01*
X0086997Y0146847D02*
X0136300Y0146847D01*
X0136300Y0147446D02*
X0086997Y0147446D01*
X0086997Y0148044D02*
X0136300Y0148044D01*
X0136300Y0148643D02*
X0086997Y0148643D01*
X0086570Y0149241D02*
X0136300Y0149241D01*
X0136300Y0149840D02*
X0085971Y0149840D01*
X0085373Y0150438D02*
X0136300Y0150438D01*
X0136300Y0151037D02*
X0084774Y0151037D01*
X0084176Y0151635D02*
X0136300Y0151635D01*
X0136300Y0152234D02*
X0083577Y0152234D01*
X0082979Y0152832D02*
X0136300Y0152832D01*
X0136300Y0153431D02*
X0082380Y0153431D01*
X0082312Y0154005D02*
X0086997Y0158690D01*
X0086997Y0165314D01*
X0082312Y0169999D01*
X0075688Y0169999D01*
X0071003Y0165314D01*
X0071003Y0158690D01*
X0075688Y0154005D01*
X0082312Y0154005D01*
X0082337Y0154029D02*
X0136300Y0154029D01*
X0136300Y0154628D02*
X0082935Y0154628D01*
X0083534Y0155226D02*
X0136300Y0155226D01*
X0136300Y0155825D02*
X0084132Y0155825D01*
X0084731Y0156423D02*
X0136300Y0156423D01*
X0136300Y0157022D02*
X0085329Y0157022D01*
X0085928Y0157620D02*
X0136300Y0157620D01*
X0136300Y0158219D02*
X0086526Y0158219D01*
X0086997Y0158817D02*
X0136300Y0158817D01*
X0136300Y0159416D02*
X0086997Y0159416D01*
X0086997Y0160014D02*
X0136300Y0160014D01*
X0136300Y0160613D02*
X0086997Y0160613D01*
X0086997Y0161211D02*
X0136300Y0161211D01*
X0136300Y0161810D02*
X0086997Y0161810D01*
X0086997Y0162408D02*
X0136300Y0162408D01*
X0136300Y0163007D02*
X0086997Y0163007D01*
X0086997Y0163605D02*
X0136300Y0163605D01*
X0136300Y0164204D02*
X0086997Y0164204D01*
X0086997Y0164803D02*
X0136300Y0164803D01*
X0136300Y0165401D02*
X0086910Y0165401D01*
X0086312Y0166000D02*
X0136300Y0166000D01*
X0136300Y0166598D02*
X0085713Y0166598D01*
X0085115Y0167197D02*
X0136300Y0167197D01*
X0136300Y0167795D02*
X0084516Y0167795D01*
X0083918Y0168394D02*
X0136300Y0168394D01*
X0136300Y0168992D02*
X0083319Y0168992D01*
X0082721Y0169591D02*
X0136300Y0169591D01*
X0136300Y0170189D02*
X0060695Y0170189D01*
X0060692Y0170192D02*
X0057600Y0170192D01*
X0057600Y0162302D01*
X0057000Y0162302D01*
X0057000Y0170192D01*
X0053908Y0170192D01*
X0049110Y0165394D01*
X0049110Y0162302D01*
X0057000Y0162302D01*
X0057000Y0161702D01*
X0049110Y0161702D01*
X0049110Y0158610D01*
X0053908Y0153812D01*
X0057000Y0153812D01*
X0057000Y0161702D01*
X0057600Y0161702D01*
X0057600Y0162302D01*
X0065490Y0162302D01*
X0065490Y0165394D01*
X0060692Y0170192D01*
X0061293Y0169591D02*
X0075279Y0169591D01*
X0074681Y0168992D02*
X0061892Y0168992D01*
X0062490Y0168394D02*
X0074082Y0168394D01*
X0073484Y0167795D02*
X0063089Y0167795D01*
X0063687Y0167197D02*
X0072885Y0167197D01*
X0072287Y0166598D02*
X0064286Y0166598D01*
X0064884Y0166000D02*
X0071688Y0166000D01*
X0071090Y0165401D02*
X0065483Y0165401D01*
X0065490Y0164803D02*
X0071003Y0164803D01*
X0071003Y0164204D02*
X0065490Y0164204D01*
X0065490Y0163605D02*
X0071003Y0163605D01*
X0071003Y0163007D02*
X0065490Y0163007D01*
X0065490Y0162408D02*
X0071003Y0162408D01*
X0071003Y0161810D02*
X0057600Y0161810D01*
X0057600Y0161702D02*
X0065490Y0161702D01*
X0065490Y0158610D01*
X0060692Y0153812D01*
X0057600Y0153812D01*
X0057600Y0161702D01*
X0057600Y0161211D02*
X0057000Y0161211D01*
X0057000Y0160613D02*
X0057600Y0160613D01*
X0057600Y0160014D02*
X0057000Y0160014D01*
X0057000Y0159416D02*
X0057600Y0159416D01*
X0057600Y0158817D02*
X0057000Y0158817D01*
X0057000Y0158219D02*
X0057600Y0158219D01*
X0057600Y0157620D02*
X0057000Y0157620D01*
X0057000Y0157022D02*
X0057600Y0157022D01*
X0057600Y0156423D02*
X0057000Y0156423D01*
X0057000Y0155825D02*
X0057600Y0155825D01*
X0057600Y0155226D02*
X0057000Y0155226D01*
X0057000Y0154628D02*
X0057600Y0154628D01*
X0057600Y0154029D02*
X0057000Y0154029D01*
X0057000Y0153431D02*
X0057600Y0153431D01*
X0057600Y0153692D02*
X0060692Y0153692D01*
X0065490Y0148894D01*
X0065490Y0145802D01*
X0057600Y0145802D01*
X0057600Y0153692D01*
X0057600Y0152832D02*
X0057000Y0152832D01*
X0057000Y0152234D02*
X0057600Y0152234D01*
X0057600Y0151635D02*
X0057000Y0151635D01*
X0057000Y0151037D02*
X0057600Y0151037D01*
X0057600Y0150438D02*
X0057000Y0150438D01*
X0057000Y0149840D02*
X0057600Y0149840D01*
X0057600Y0149241D02*
X0057000Y0149241D01*
X0057000Y0148643D02*
X0057600Y0148643D01*
X0057600Y0148044D02*
X0057000Y0148044D01*
X0057000Y0147446D02*
X0057600Y0147446D01*
X0057600Y0146847D02*
X0057000Y0146847D01*
X0057000Y0146249D02*
X0057600Y0146249D01*
X0057000Y0145650D02*
X0005900Y0145650D01*
X0005900Y0145052D02*
X0049110Y0145052D01*
X0049110Y0144453D02*
X0005900Y0144453D01*
X0005900Y0143855D02*
X0049110Y0143855D01*
X0049110Y0143256D02*
X0005900Y0143256D01*
X0005900Y0142658D02*
X0049110Y0142658D01*
X0049161Y0142059D02*
X0005900Y0142059D01*
X0005900Y0141461D02*
X0049759Y0141461D01*
X0050358Y0140862D02*
X0005900Y0140862D01*
X0005900Y0140264D02*
X0050956Y0140264D01*
X0049360Y0136672D02*
X0035322Y0136672D01*
X0035921Y0136074D02*
X0049113Y0136074D01*
X0049110Y0135475D02*
X0036519Y0135475D01*
X0036952Y0134877D02*
X0049110Y0134877D01*
X0049110Y0134278D02*
X0037298Y0134278D01*
X0037643Y0133680D02*
X0049110Y0133680D01*
X0049110Y0133081D02*
X0037989Y0133081D01*
X0038193Y0132483D02*
X0049110Y0132483D01*
X0049110Y0131884D02*
X0038353Y0131884D01*
X0038513Y0131286D02*
X0049110Y0131286D01*
X0049110Y0130687D02*
X0038674Y0130687D01*
X0038765Y0130089D02*
X0049110Y0130089D01*
X0049110Y0146249D02*
X0005900Y0146249D01*
X0005900Y0146847D02*
X0049110Y0146847D01*
X0049110Y0147446D02*
X0005900Y0147446D01*
X0005900Y0148044D02*
X0049110Y0148044D01*
X0049110Y0148643D02*
X0005900Y0148643D01*
X0005900Y0149241D02*
X0049457Y0149241D01*
X0050056Y0149840D02*
X0005900Y0149840D01*
X0005900Y0150438D02*
X0050654Y0150438D01*
X0051253Y0151037D02*
X0005900Y0151037D01*
X0005900Y0151635D02*
X0051851Y0151635D01*
X0052450Y0152234D02*
X0031536Y0152234D01*
X0032499Y0152492D02*
X0029903Y0151796D01*
X0027216Y0151796D01*
X0024621Y0152492D01*
X0022294Y0153836D01*
X0020393Y0155736D01*
X0019050Y0158063D01*
X0018354Y0160658D01*
X0018354Y0163346D01*
X0019050Y0165941D01*
X0020393Y0168268D01*
X0022294Y0170168D01*
X0024621Y0171512D01*
X0027216Y0172207D01*
X0029903Y0172207D01*
X0032499Y0171512D01*
X0034826Y0170168D01*
X0036726Y0168268D01*
X0038070Y0165941D01*
X0038765Y0163346D01*
X0038765Y0160658D01*
X0038070Y0158063D01*
X0036726Y0155736D01*
X0034826Y0153836D01*
X0032499Y0152492D01*
X0033089Y0152832D02*
X0053048Y0152832D01*
X0053647Y0153431D02*
X0034125Y0153431D01*
X0035020Y0154029D02*
X0053691Y0154029D01*
X0053092Y0154628D02*
X0035618Y0154628D01*
X0036217Y0155226D02*
X0052494Y0155226D01*
X0051895Y0155825D02*
X0036778Y0155825D01*
X0037123Y0156423D02*
X0051297Y0156423D01*
X0050698Y0157022D02*
X0037469Y0157022D01*
X0037814Y0157620D02*
X0050100Y0157620D01*
X0049501Y0158219D02*
X0038112Y0158219D01*
X0038272Y0158817D02*
X0049110Y0158817D01*
X0049110Y0159416D02*
X0038432Y0159416D01*
X0038593Y0160014D02*
X0049110Y0160014D01*
X0049110Y0160613D02*
X0038753Y0160613D01*
X0038765Y0161211D02*
X0049110Y0161211D01*
X0049110Y0162408D02*
X0038765Y0162408D01*
X0038765Y0161810D02*
X0057000Y0161810D01*
X0057000Y0162408D02*
X0057600Y0162408D01*
X0057600Y0163007D02*
X0057000Y0163007D01*
X0057000Y0163605D02*
X0057600Y0163605D01*
X0057600Y0164204D02*
X0057000Y0164204D01*
X0057000Y0164803D02*
X0057600Y0164803D01*
X0057600Y0165401D02*
X0057000Y0165401D01*
X0057000Y0166000D02*
X0057600Y0166000D01*
X0057600Y0166598D02*
X0057000Y0166598D01*
X0057000Y0167197D02*
X0057600Y0167197D01*
X0057600Y0167795D02*
X0057000Y0167795D01*
X0057000Y0168394D02*
X0057600Y0168394D01*
X0057600Y0168992D02*
X0057000Y0168992D01*
X0057000Y0169591D02*
X0057600Y0169591D01*
X0057600Y0170189D02*
X0057000Y0170189D01*
X0053905Y0170189D02*
X0034790Y0170189D01*
X0035404Y0169591D02*
X0053307Y0169591D01*
X0052708Y0168992D02*
X0036002Y0168992D01*
X0036601Y0168394D02*
X0052110Y0168394D01*
X0051511Y0167795D02*
X0036999Y0167795D01*
X0037345Y0167197D02*
X0050913Y0167197D01*
X0050314Y0166598D02*
X0037691Y0166598D01*
X0038036Y0166000D02*
X0049716Y0166000D01*
X0049117Y0165401D02*
X0038215Y0165401D01*
X0038375Y0164803D02*
X0049110Y0164803D01*
X0049110Y0164204D02*
X0038535Y0164204D01*
X0038696Y0163605D02*
X0049110Y0163605D01*
X0049110Y0163007D02*
X0038765Y0163007D01*
X0033754Y0170788D02*
X0136300Y0170788D01*
X0136300Y0171386D02*
X0032717Y0171386D01*
X0030735Y0171985D02*
X0136300Y0171985D01*
X0136300Y0172583D02*
X0005900Y0172583D01*
X0005900Y0171985D02*
X0026385Y0171985D01*
X0024403Y0171386D02*
X0005900Y0171386D01*
X0005900Y0170788D02*
X0023366Y0170788D01*
X0022329Y0170189D02*
X0005900Y0170189D01*
X0005900Y0169591D02*
X0021716Y0169591D01*
X0021117Y0168992D02*
X0005900Y0168992D01*
X0005900Y0168394D02*
X0020519Y0168394D01*
X0020120Y0167795D02*
X0005900Y0167795D01*
X0005900Y0167197D02*
X0019775Y0167197D01*
X0019429Y0166598D02*
X0005900Y0166598D01*
X0005900Y0166000D02*
X0019084Y0166000D01*
X0018905Y0165401D02*
X0005900Y0165401D01*
X0005900Y0164803D02*
X0018745Y0164803D01*
X0018584Y0164204D02*
X0005900Y0164204D01*
X0005900Y0163605D02*
X0018424Y0163605D01*
X0018354Y0163007D02*
X0005900Y0163007D01*
X0005900Y0162408D02*
X0018354Y0162408D01*
X0018354Y0161810D02*
X0005900Y0161810D01*
X0005900Y0161211D02*
X0018354Y0161211D01*
X0018366Y0160613D02*
X0005900Y0160613D01*
X0005900Y0160014D02*
X0018527Y0160014D01*
X0018687Y0159416D02*
X0005900Y0159416D01*
X0005900Y0158817D02*
X0018848Y0158817D01*
X0019008Y0158219D02*
X0005900Y0158219D01*
X0005900Y0157620D02*
X0019305Y0157620D01*
X0019651Y0157022D02*
X0005900Y0157022D01*
X0005900Y0156423D02*
X0019996Y0156423D01*
X0020342Y0155825D02*
X0005900Y0155825D01*
X0005900Y0155226D02*
X0020903Y0155226D01*
X0021501Y0154628D02*
X0005900Y0154628D01*
X0005900Y0154029D02*
X0022100Y0154029D01*
X0022994Y0153431D02*
X0005900Y0153431D01*
X0005900Y0152832D02*
X0024031Y0152832D01*
X0025584Y0152234D02*
X0005900Y0152234D01*
X0005900Y0173182D02*
X0136300Y0173182D01*
X0136300Y0173780D02*
X0005900Y0173780D01*
X0005900Y0174379D02*
X0136300Y0174379D01*
X0136300Y0174977D02*
X0005900Y0174977D01*
X0005900Y0175576D02*
X0136300Y0175576D01*
X0136300Y0176174D02*
X0005900Y0176174D01*
X0005900Y0176773D02*
X0136300Y0176773D01*
X0136300Y0177371D02*
X0005900Y0177371D01*
X0005900Y0177970D02*
X0136300Y0177970D01*
X0136300Y0178568D02*
X0005900Y0178568D01*
X0005900Y0179167D02*
X0136300Y0179167D01*
X0136300Y0179765D02*
X0005900Y0179765D01*
X0005900Y0180364D02*
X0136300Y0180364D01*
X0136300Y0180962D02*
X0005900Y0180962D01*
X0005900Y0181561D02*
X0110173Y0181561D01*
X0110341Y0181393D02*
X0116259Y0181393D01*
X0116907Y0182041D01*
X0116907Y0187959D01*
X0116259Y0188607D01*
X0110341Y0188607D01*
X0109693Y0187959D01*
X0109693Y0182041D01*
X0110341Y0181393D01*
X0109693Y0182159D02*
X0005900Y0182159D01*
X0005900Y0182758D02*
X0109693Y0182758D01*
X0109693Y0183356D02*
X0005900Y0183356D01*
X0005900Y0183955D02*
X0109693Y0183955D01*
X0109693Y0184553D02*
X0005900Y0184553D01*
X0005900Y0185152D02*
X0109693Y0185152D01*
X0109693Y0185750D02*
X0005900Y0185750D01*
X0005900Y0186349D02*
X0109693Y0186349D01*
X0109693Y0186947D02*
X0005900Y0186947D01*
X0005900Y0187546D02*
X0109693Y0187546D01*
X0109879Y0188144D02*
X0005900Y0188144D01*
X0005900Y0188743D02*
X0136300Y0188743D01*
X0136300Y0189341D02*
X0005900Y0189341D01*
X0005900Y0189940D02*
X0136300Y0189940D01*
X0136300Y0190539D02*
X0005900Y0190539D01*
X0005900Y0191137D02*
X0136300Y0191137D01*
X0136300Y0191736D02*
X0005900Y0191736D01*
X0005900Y0192334D02*
X0136300Y0192334D01*
X0136300Y0192933D02*
X0005900Y0192933D01*
X0005900Y0193531D02*
X0136300Y0193531D01*
X0136300Y0194130D02*
X0005900Y0194130D01*
X0005900Y0194728D02*
X0136300Y0194728D01*
X0136300Y0195327D02*
X0005900Y0195327D01*
X0005900Y0195925D02*
X0136300Y0195925D01*
X0136300Y0196524D02*
X0005900Y0196524D01*
X0005900Y0197122D02*
X0136300Y0197122D01*
X0136300Y0197721D02*
X0005900Y0197721D01*
X0005900Y0198319D02*
X0136300Y0198319D01*
X0136300Y0198918D02*
X0005900Y0198918D01*
X0005900Y0199516D02*
X0136300Y0199516D01*
X0136300Y0200115D02*
X0005900Y0200115D01*
X0005900Y0200713D02*
X0136300Y0200713D01*
X0136300Y0201312D02*
X0005900Y0201312D01*
X0005900Y0201910D02*
X0136300Y0201910D01*
X0136300Y0202509D02*
X0005900Y0202509D01*
X0005900Y0203107D02*
X0136300Y0203107D01*
X0136300Y0203706D02*
X0005900Y0203706D01*
X0005900Y0204304D02*
X0136300Y0204304D01*
X0136300Y0204903D02*
X0005900Y0204903D01*
X0005900Y0205501D02*
X0136300Y0205501D01*
X0136300Y0206100D02*
X0005900Y0206100D01*
X0005900Y0206698D02*
X0136300Y0206698D01*
X0136300Y0207297D02*
X0005900Y0207297D01*
X0005900Y0207895D02*
X0136300Y0207895D01*
X0136300Y0208494D02*
X0005900Y0208494D01*
X0005900Y0209092D02*
X0136300Y0209092D01*
X0136300Y0209691D02*
X0005900Y0209691D01*
X0005900Y0210289D02*
X0136300Y0210289D01*
X0136300Y0210888D02*
X0005900Y0210888D01*
X0005900Y0211486D02*
X0136300Y0211486D01*
X0136300Y0212085D02*
X0005900Y0212085D01*
X0005900Y0212683D02*
X0136300Y0212683D01*
X0136300Y0213282D02*
X0005900Y0213282D01*
X0005900Y0213880D02*
X0136300Y0213880D01*
X0136300Y0214479D02*
X0005900Y0214479D01*
X0005900Y0215077D02*
X0136300Y0215077D01*
X0136300Y0215676D02*
X0005900Y0215676D01*
X0005900Y0216274D02*
X0136300Y0216274D01*
X0136300Y0216873D02*
X0005900Y0216873D01*
X0005900Y0217472D02*
X0136300Y0217472D01*
X0136300Y0218070D02*
X0005900Y0218070D01*
X0005900Y0218669D02*
X0136300Y0218669D01*
X0136300Y0219267D02*
X0005900Y0219267D01*
X0005900Y0219866D02*
X0136300Y0219866D01*
X0136300Y0220464D02*
X0005900Y0220464D01*
X0005900Y0221063D02*
X0136300Y0221063D01*
X0136300Y0221661D02*
X0005900Y0221661D01*
X0005900Y0222260D02*
X0136300Y0222260D01*
X0136300Y0222858D02*
X0005900Y0222858D01*
X0005900Y0223457D02*
X0136300Y0223457D01*
X0136300Y0224055D02*
X0005900Y0224055D01*
X0005900Y0224654D02*
X0136300Y0224654D01*
X0136300Y0225252D02*
X0005900Y0225252D01*
X0005900Y0225851D02*
X0136300Y0225851D01*
X0136300Y0226449D02*
X0005900Y0226449D01*
X0005900Y0227048D02*
X0136300Y0227048D01*
X0136300Y0227646D02*
X0005900Y0227646D01*
X0005900Y0228245D02*
X0136300Y0228245D01*
X0136300Y0228843D02*
X0005900Y0228843D01*
X0005900Y0229442D02*
X0136300Y0229442D01*
X0136300Y0230040D02*
X0005900Y0230040D01*
X0005900Y0230639D02*
X0136300Y0230639D01*
X0136300Y0231237D02*
X0005900Y0231237D01*
X0005900Y0231836D02*
X0136300Y0231836D01*
X0136300Y0232434D02*
X0005900Y0232434D01*
X0005900Y0233033D02*
X0136300Y0233033D01*
X0136300Y0233631D02*
X0005900Y0233631D01*
X0005900Y0234230D02*
X0136300Y0234230D01*
X0136300Y0234828D02*
X0005900Y0234828D01*
X0005900Y0235427D02*
X0136300Y0235427D01*
X0136300Y0236025D02*
X0005900Y0236025D01*
X0005900Y0236624D02*
X0136300Y0236624D01*
X0136300Y0237222D02*
X0005900Y0237222D01*
X0005900Y0237821D02*
X0136300Y0237821D01*
X0136300Y0238419D02*
X0005900Y0238419D01*
X0005900Y0239018D02*
X0136300Y0239018D01*
X0136300Y0239616D02*
X0005900Y0239616D01*
X0005900Y0240215D02*
X0082752Y0240215D01*
X0082760Y0240202D02*
X0083002Y0239960D01*
X0083298Y0239789D01*
X0083629Y0239700D01*
X0088000Y0239700D01*
X0088000Y0245200D01*
X0088600Y0245200D01*
X0088600Y0245800D01*
X0094100Y0245800D01*
X0094100Y0250171D01*
X0094011Y0250502D01*
X0093840Y0250798D01*
X0093598Y0251040D01*
X0093302Y0251211D01*
X0092971Y0251300D01*
X0088600Y0251300D01*
X0088600Y0245800D01*
X0088000Y0245800D01*
X0088000Y0251300D01*
X0083629Y0251300D01*
X0083298Y0251211D01*
X0083002Y0251040D01*
X0082760Y0250798D01*
X0082589Y0250502D01*
X0082500Y0250171D01*
X0082500Y0245800D01*
X0088000Y0245800D01*
X0088000Y0245200D01*
X0082500Y0245200D01*
X0082500Y0240829D01*
X0082589Y0240498D01*
X0082760Y0240202D01*
X0082504Y0240813D02*
X0005900Y0240813D01*
X0005900Y0241412D02*
X0082500Y0241412D01*
X0082500Y0242010D02*
X0005900Y0242010D01*
X0005900Y0242609D02*
X0082500Y0242609D01*
X0082500Y0243208D02*
X0005900Y0243208D01*
X0005900Y0243806D02*
X0082500Y0243806D01*
X0082500Y0244405D02*
X0005900Y0244405D01*
X0005900Y0245003D02*
X0082500Y0245003D01*
X0082500Y0246200D02*
X0005900Y0246200D01*
X0005900Y0245602D02*
X0088000Y0245602D01*
X0088000Y0246200D02*
X0088600Y0246200D01*
X0088600Y0245602D02*
X0136300Y0245602D01*
X0136300Y0246200D02*
X0094100Y0246200D01*
X0094100Y0246799D02*
X0136300Y0246799D01*
X0136300Y0247397D02*
X0094100Y0247397D01*
X0094100Y0247996D02*
X0136300Y0247996D01*
X0136300Y0248594D02*
X0094100Y0248594D01*
X0094100Y0249193D02*
X0136300Y0249193D01*
X0136300Y0249791D02*
X0094100Y0249791D01*
X0094041Y0250390D02*
X0136300Y0250390D01*
X0136300Y0250988D02*
X0093650Y0250988D01*
X0094100Y0245200D02*
X0088600Y0245200D01*
X0088600Y0239700D01*
X0092971Y0239700D01*
X0093302Y0239789D01*
X0093598Y0239960D01*
X0093840Y0240202D01*
X0094011Y0240498D01*
X0094100Y0240829D01*
X0094100Y0245200D01*
X0094100Y0245003D02*
X0136300Y0245003D01*
X0136300Y0244405D02*
X0094100Y0244405D01*
X0094100Y0243806D02*
X0136300Y0243806D01*
X0136300Y0243208D02*
X0094100Y0243208D01*
X0094100Y0242609D02*
X0136300Y0242609D01*
X0136300Y0242010D02*
X0094100Y0242010D01*
X0094100Y0241412D02*
X0136300Y0241412D01*
X0136300Y0240813D02*
X0094096Y0240813D01*
X0093848Y0240215D02*
X0136300Y0240215D01*
X0143800Y0240215D02*
X0251300Y0240215D01*
X0251300Y0240813D02*
X0143800Y0240813D01*
X0143800Y0241412D02*
X0251300Y0241412D01*
X0251300Y0242010D02*
X0143800Y0242010D01*
X0143800Y0242609D02*
X0251300Y0242609D01*
X0251300Y0243208D02*
X0143800Y0243208D01*
X0143800Y0243806D02*
X0251300Y0243806D01*
X0251300Y0244405D02*
X0143800Y0244405D01*
X0143800Y0245003D02*
X0251300Y0245003D01*
X0251300Y0245602D02*
X0143800Y0245602D01*
X0143800Y0246200D02*
X0251300Y0246200D01*
X0251300Y0246799D02*
X0143800Y0246799D01*
X0143800Y0247397D02*
X0251300Y0247397D01*
X0251300Y0247996D02*
X0143800Y0247996D01*
X0143800Y0248594D02*
X0251300Y0248594D01*
X0251300Y0249193D02*
X0143800Y0249193D01*
X0143800Y0249791D02*
X0251300Y0249791D01*
X0251300Y0250390D02*
X0143800Y0250390D01*
X0143800Y0250988D02*
X0251300Y0250988D01*
X0251300Y0251587D02*
X0143800Y0251587D01*
X0143800Y0252185D02*
X0251300Y0252185D01*
X0251300Y0252784D02*
X0143800Y0252784D01*
X0143800Y0253382D02*
X0251300Y0253382D01*
X0251300Y0253981D02*
X0143800Y0253981D01*
X0143800Y0254579D02*
X0251300Y0254579D01*
X0251300Y0255178D02*
X0143800Y0255178D01*
X0143800Y0255776D02*
X0251300Y0255776D01*
X0251300Y0256375D02*
X0143800Y0256375D01*
X0143800Y0256973D02*
X0251300Y0256973D01*
X0251300Y0257572D02*
X0143800Y0257572D01*
X0143800Y0258170D02*
X0251300Y0258170D01*
X0251300Y0258769D02*
X0143800Y0258769D01*
X0143800Y0259367D02*
X0251300Y0259367D01*
X0251300Y0259966D02*
X0143800Y0259966D01*
X0143800Y0260564D02*
X0251300Y0260564D01*
X0251300Y0261163D02*
X0143800Y0261163D01*
X0143800Y0261761D02*
X0251300Y0261761D01*
X0251300Y0262360D02*
X0143800Y0262360D01*
X0143800Y0262958D02*
X0251300Y0262958D01*
X0251300Y0263557D02*
X0143800Y0263557D01*
X0143800Y0264155D02*
X0251300Y0264155D01*
X0251300Y0264754D02*
X0143800Y0264754D01*
X0143800Y0265352D02*
X0251300Y0265352D01*
X0251300Y0265951D02*
X0143800Y0265951D01*
X0143800Y0266549D02*
X0251300Y0266549D01*
X0251300Y0267148D02*
X0143800Y0267148D01*
X0143800Y0267746D02*
X0251300Y0267746D01*
X0251300Y0268345D02*
X0143800Y0268345D01*
X0143800Y0268943D02*
X0251300Y0268943D01*
X0251300Y0269542D02*
X0143800Y0269542D01*
X0143800Y0270141D02*
X0251300Y0270141D01*
X0251300Y0270739D02*
X0143800Y0270739D01*
X0143800Y0271338D02*
X0251300Y0271338D01*
X0251300Y0271936D02*
X0143800Y0271936D01*
X0143800Y0272535D02*
X0251300Y0272535D01*
X0251300Y0273133D02*
X0143800Y0273133D01*
X0143800Y0273732D02*
X0251300Y0273732D01*
X0251300Y0274330D02*
X0143800Y0274330D01*
X0143800Y0274929D02*
X0251300Y0274929D01*
X0251300Y0275527D02*
X0143800Y0275527D01*
X0143800Y0276126D02*
X0251300Y0276126D01*
X0251300Y0276724D02*
X0143800Y0276724D01*
X0143800Y0277323D02*
X0251300Y0277323D01*
X0251300Y0277921D02*
X0143800Y0277921D01*
X0143800Y0278520D02*
X0251300Y0278520D01*
X0251300Y0279118D02*
X0143800Y0279118D01*
X0143800Y0279717D02*
X0251300Y0279717D01*
X0251300Y0280315D02*
X0143800Y0280315D01*
X0143800Y0280914D02*
X0251300Y0280914D01*
X0251300Y0281512D02*
X0143800Y0281512D01*
X0143800Y0282111D02*
X0251300Y0282111D01*
X0251300Y0282709D02*
X0143800Y0282709D01*
X0143800Y0283308D02*
X0251300Y0283308D01*
X0251300Y0283906D02*
X0143800Y0283906D01*
X0143800Y0284505D02*
X0251300Y0284505D01*
X0251300Y0285103D02*
X0143800Y0285103D01*
X0143800Y0285702D02*
X0251300Y0285702D01*
X0251300Y0286300D02*
X0143800Y0286300D01*
X0143800Y0286899D02*
X0251300Y0286899D01*
X0251300Y0287497D02*
X0143800Y0287497D01*
X0143800Y0288096D02*
X0251300Y0288096D01*
X0251300Y0288694D02*
X0143800Y0288694D01*
X0143800Y0289293D02*
X0251300Y0289293D01*
X0251300Y0289891D02*
X0143800Y0289891D01*
X0143800Y0290490D02*
X0251300Y0290490D01*
X0251300Y0291088D02*
X0143800Y0291088D01*
X0143800Y0291687D02*
X0251300Y0291687D01*
X0251300Y0292285D02*
X0143800Y0292285D01*
X0143800Y0292884D02*
X0251300Y0292884D01*
X0251300Y0293482D02*
X0143800Y0293482D01*
X0143800Y0294081D02*
X0251300Y0294081D01*
X0251300Y0294679D02*
X0143800Y0294679D01*
X0143800Y0295278D02*
X0251300Y0295278D01*
X0251300Y0295877D02*
X0143800Y0295877D01*
X0143800Y0296475D02*
X0251300Y0296475D01*
X0251300Y0297074D02*
X0143800Y0297074D01*
X0143800Y0297672D02*
X0251300Y0297672D01*
X0251300Y0298271D02*
X0143800Y0298271D01*
X0143800Y0298869D02*
X0251300Y0298869D01*
X0251300Y0299468D02*
X0143800Y0299468D01*
X0143800Y0300066D02*
X0251300Y0300066D01*
X0251300Y0300665D02*
X0143800Y0300665D01*
X0143800Y0301263D02*
X0251300Y0301263D01*
X0251300Y0301862D02*
X0143800Y0301862D01*
X0143800Y0302460D02*
X0251300Y0302460D01*
X0251300Y0303059D02*
X0143800Y0303059D01*
X0143800Y0303657D02*
X0251300Y0303657D01*
X0251300Y0304256D02*
X0143800Y0304256D01*
X0143800Y0304854D02*
X0251300Y0304854D01*
X0251300Y0305453D02*
X0143800Y0305453D01*
X0143800Y0306051D02*
X0251300Y0306051D01*
X0251300Y0306650D02*
X0143800Y0306650D01*
X0143800Y0307248D02*
X0251300Y0307248D01*
X0251300Y0307847D02*
X0143800Y0307847D01*
X0143800Y0308445D02*
X0251300Y0308445D01*
X0251300Y0309044D02*
X0143800Y0309044D01*
X0143800Y0309642D02*
X0251300Y0309642D01*
X0251300Y0310241D02*
X0143800Y0310241D01*
X0143800Y0310839D02*
X0251300Y0310839D01*
X0251300Y0311438D02*
X0143800Y0311438D01*
X0143800Y0312036D02*
X0251300Y0312036D01*
X0251300Y0312635D02*
X0143800Y0312635D01*
X0143800Y0313233D02*
X0251300Y0313233D01*
X0251300Y0313832D02*
X0143800Y0313832D01*
X0143800Y0314430D02*
X0251300Y0314430D01*
X0251300Y0315029D02*
X0143800Y0315029D01*
X0143800Y0315627D02*
X0251300Y0315627D01*
X0251300Y0316226D02*
X0143800Y0316226D01*
X0143800Y0316824D02*
X0251300Y0316824D01*
X0251300Y0317423D02*
X0143800Y0317423D01*
X0143800Y0318021D02*
X0251300Y0318021D01*
X0251300Y0318620D02*
X0143800Y0318620D01*
X0143800Y0319218D02*
X0251300Y0319218D01*
X0251300Y0319817D02*
X0143800Y0319817D01*
X0143800Y0320415D02*
X0251300Y0320415D01*
X0251300Y0321014D02*
X0143800Y0321014D01*
X0143800Y0321612D02*
X0251300Y0321612D01*
X0251300Y0322211D02*
X0143800Y0322211D01*
X0143800Y0322810D02*
X0251300Y0322810D01*
X0251300Y0323408D02*
X0143800Y0323408D01*
X0143800Y0324007D02*
X0251300Y0324007D01*
X0251300Y0324605D02*
X0143800Y0324605D01*
X0143800Y0325204D02*
X0251300Y0325204D01*
X0251300Y0325802D02*
X0143800Y0325802D01*
X0143800Y0326401D02*
X0251300Y0326401D01*
X0251300Y0326999D02*
X0143800Y0326999D01*
X0143800Y0327598D02*
X0251300Y0327598D01*
X0251300Y0328196D02*
X0143800Y0328196D01*
X0143800Y0328795D02*
X0251300Y0328795D01*
X0251300Y0329393D02*
X0143800Y0329393D01*
X0143800Y0329992D02*
X0251300Y0329992D01*
X0251300Y0330590D02*
X0143800Y0330590D01*
X0143800Y0331189D02*
X0251300Y0331189D01*
X0251300Y0331787D02*
X0143800Y0331787D01*
X0143800Y0332386D02*
X0251300Y0332386D01*
X0251300Y0332984D02*
X0143800Y0332984D01*
X0143800Y0333583D02*
X0251300Y0333583D01*
X0251300Y0334181D02*
X0143800Y0334181D01*
X0143800Y0334780D02*
X0251300Y0334780D01*
X0251300Y0335378D02*
X0143800Y0335378D01*
X0143800Y0335977D02*
X0251300Y0335977D01*
X0251300Y0336575D02*
X0143800Y0336575D01*
X0143800Y0337174D02*
X0251300Y0337174D01*
X0251300Y0337772D02*
X0143800Y0337772D01*
X0143800Y0338371D02*
X0251300Y0338371D01*
X0251300Y0338969D02*
X0143800Y0338969D01*
X0143800Y0339568D02*
X0251300Y0339568D01*
X0251300Y0340166D02*
X0143800Y0340166D01*
X0143800Y0340765D02*
X0251300Y0340765D01*
X0251300Y0341363D02*
X0143800Y0341363D01*
X0143800Y0341962D02*
X0251300Y0341962D01*
X0251300Y0342560D02*
X0143800Y0342560D01*
X0143800Y0343159D02*
X0251300Y0343159D01*
X0251300Y0343757D02*
X0143800Y0343757D01*
X0143800Y0344356D02*
X0251300Y0344356D01*
X0251300Y0344954D02*
X0143800Y0344954D01*
X0143800Y0345553D02*
X0251300Y0345553D01*
X0251300Y0346151D02*
X0143800Y0346151D01*
X0143800Y0346750D02*
X0251300Y0346750D01*
X0251300Y0347348D02*
X0143800Y0347348D01*
X0143800Y0347947D02*
X0251300Y0347947D01*
X0251300Y0348545D02*
X0143800Y0348545D01*
X0143800Y0349144D02*
X0251300Y0349144D01*
X0251300Y0349743D02*
X0143800Y0349743D01*
X0143800Y0350341D02*
X0251300Y0350341D01*
X0251300Y0350940D02*
X0143800Y0350940D01*
X0143800Y0351538D02*
X0251300Y0351538D01*
X0251300Y0352137D02*
X0143800Y0352137D01*
X0143800Y0352735D02*
X0251300Y0352735D01*
X0251300Y0353334D02*
X0143800Y0353334D01*
X0143800Y0353932D02*
X0251300Y0353932D01*
X0251300Y0354531D02*
X0143800Y0354531D01*
X0143800Y0355129D02*
X0251300Y0355129D01*
X0251300Y0355728D02*
X0143800Y0355728D01*
X0143800Y0356326D02*
X0251300Y0356326D01*
X0251300Y0356925D02*
X0143800Y0356925D01*
X0143800Y0357523D02*
X0251300Y0357523D01*
X0251300Y0358122D02*
X0143800Y0358122D01*
X0143800Y0358720D02*
X0193337Y0358720D01*
X0193764Y0358293D02*
X0191593Y0360464D01*
X0191593Y0363536D01*
X0193764Y0365707D01*
X0196836Y0365707D01*
X0199007Y0363536D01*
X0199007Y0360464D01*
X0196836Y0358293D01*
X0193764Y0358293D01*
X0192739Y0359319D02*
X0143800Y0359319D01*
X0143800Y0359917D02*
X0192140Y0359917D01*
X0191593Y0360516D02*
X0143800Y0360516D01*
X0143800Y0361114D02*
X0191593Y0361114D01*
X0191593Y0361713D02*
X0143800Y0361713D01*
X0143800Y0362311D02*
X0191593Y0362311D01*
X0191593Y0362910D02*
X0143800Y0362910D01*
X0143800Y0363508D02*
X0191593Y0363508D01*
X0192164Y0364107D02*
X0143800Y0364107D01*
X0143800Y0364705D02*
X0192763Y0364705D01*
X0193361Y0365304D02*
X0143800Y0365304D01*
X0143800Y0365902D02*
X0251300Y0365902D01*
X0251300Y0365304D02*
X0227239Y0365304D01*
X0226836Y0365707D02*
X0223764Y0365707D01*
X0221593Y0363536D01*
X0221593Y0360464D01*
X0223764Y0358293D01*
X0226836Y0358293D01*
X0229007Y0360464D01*
X0229007Y0363536D01*
X0226836Y0365707D01*
X0227837Y0364705D02*
X0251300Y0364705D01*
X0251300Y0364107D02*
X0228436Y0364107D01*
X0229007Y0363508D02*
X0251300Y0363508D01*
X0251300Y0362910D02*
X0229007Y0362910D01*
X0229007Y0362311D02*
X0251300Y0362311D01*
X0251300Y0361713D02*
X0229007Y0361713D01*
X0229007Y0361114D02*
X0251300Y0361114D01*
X0251300Y0360516D02*
X0229007Y0360516D01*
X0228460Y0359917D02*
X0251300Y0359917D01*
X0251300Y0359319D02*
X0227861Y0359319D01*
X0227263Y0358720D02*
X0251300Y0358720D01*
X0251300Y0366501D02*
X0143800Y0366501D01*
X0143800Y0367099D02*
X0251300Y0367099D01*
X0251300Y0367698D02*
X0143800Y0367698D01*
X0143800Y0368296D02*
X0251300Y0368296D01*
X0251300Y0368895D02*
X0143800Y0368895D01*
X0143800Y0369493D02*
X0251300Y0369493D01*
X0251300Y0370092D02*
X0143800Y0370092D01*
X0143800Y0370690D02*
X0251300Y0370690D01*
X0251300Y0371289D02*
X0143800Y0371289D01*
X0143800Y0371887D02*
X0251300Y0371887D01*
X0251300Y0372486D02*
X0143800Y0372486D01*
X0143800Y0373084D02*
X0251300Y0373084D01*
X0251300Y0373683D02*
X0143800Y0373683D01*
X0143800Y0374281D02*
X0251300Y0374281D01*
X0251300Y0374880D02*
X0143800Y0374880D01*
X0143800Y0375479D02*
X0251300Y0375479D01*
X0251300Y0376077D02*
X0143800Y0376077D01*
X0143800Y0376676D02*
X0251300Y0376676D01*
X0251300Y0377274D02*
X0143800Y0377274D01*
X0143800Y0377873D02*
X0251300Y0377873D01*
X0251300Y0378471D02*
X0143800Y0378471D01*
X0143800Y0379070D02*
X0251300Y0379070D01*
X0251300Y0379668D02*
X0143800Y0379668D01*
X0143800Y0380267D02*
X0251300Y0380267D01*
X0251300Y0380865D02*
X0143800Y0380865D01*
X0143800Y0381464D02*
X0251300Y0381464D01*
X0251300Y0382062D02*
X0143800Y0382062D01*
X0143800Y0382661D02*
X0251300Y0382661D01*
X0251300Y0383259D02*
X0143800Y0383259D01*
X0143800Y0383858D02*
X0251300Y0383858D01*
X0251300Y0384456D02*
X0143800Y0384456D01*
X0143800Y0385055D02*
X0251300Y0385055D01*
X0251300Y0385653D02*
X0143800Y0385653D01*
X0143800Y0386252D02*
X0251300Y0386252D01*
X0251300Y0386850D02*
X0143800Y0386850D01*
X0143800Y0387449D02*
X0251300Y0387449D01*
X0251300Y0388047D02*
X0143800Y0388047D01*
X0143800Y0388646D02*
X0251300Y0388646D01*
X0251300Y0389244D02*
X0143800Y0389244D01*
X0143800Y0389843D02*
X0251300Y0389843D01*
X0251300Y0390441D02*
X0143800Y0390441D01*
X0143800Y0391040D02*
X0251300Y0391040D01*
X0251300Y0391638D02*
X0143800Y0391638D01*
X0143800Y0392237D02*
X0251300Y0392237D01*
X0251300Y0392835D02*
X0143800Y0392835D01*
X0143800Y0393434D02*
X0251300Y0393434D01*
X0251300Y0394032D02*
X0143800Y0394032D01*
X0143800Y0394631D02*
X0251300Y0394631D01*
X0251300Y0395229D02*
X0143800Y0395229D01*
X0143800Y0395828D02*
X0251300Y0395828D01*
X0251300Y0396426D02*
X0143800Y0396426D01*
X0143800Y0397025D02*
X0251300Y0397025D01*
X0251300Y0397623D02*
X0143800Y0397623D01*
X0143800Y0398222D02*
X0251300Y0398222D01*
X0251300Y0398820D02*
X0143800Y0398820D01*
X0136300Y0398820D02*
X0022535Y0398820D01*
X0022881Y0398222D02*
X0136300Y0398222D01*
X0136300Y0397623D02*
X0023226Y0397623D01*
X0023572Y0397025D02*
X0136300Y0397025D01*
X0136300Y0396426D02*
X0023851Y0396426D01*
X0024012Y0395828D02*
X0136300Y0395828D01*
X0136300Y0395229D02*
X0024172Y0395229D01*
X0024332Y0394631D02*
X0136300Y0394631D01*
X0136300Y0394032D02*
X0024493Y0394032D01*
X0024525Y0393434D02*
X0136300Y0393434D01*
X0136300Y0392835D02*
X0024525Y0392835D01*
X0024525Y0392237D02*
X0136300Y0392237D01*
X0136300Y0391638D02*
X0024525Y0391638D01*
X0024512Y0391040D02*
X0136300Y0391040D01*
X0136300Y0390441D02*
X0024352Y0390441D01*
X0024191Y0389843D02*
X0136300Y0389843D01*
X0136300Y0389244D02*
X0024031Y0389244D01*
X0023871Y0388646D02*
X0136300Y0388646D01*
X0136300Y0388047D02*
X0023613Y0388047D01*
X0023268Y0387449D02*
X0136300Y0387449D01*
X0136300Y0386850D02*
X0022922Y0386850D01*
X0022577Y0386252D02*
X0136300Y0386252D01*
X0136300Y0385653D02*
X0022121Y0385653D01*
X0021522Y0385055D02*
X0136300Y0385055D01*
X0136300Y0384456D02*
X0020924Y0384456D01*
X0020281Y0383858D02*
X0136300Y0383858D01*
X0136300Y0383259D02*
X0019244Y0383259D01*
X0018208Y0382661D02*
X0136300Y0382661D01*
X0136300Y0382062D02*
X0016284Y0382062D01*
X0011316Y0382062D02*
X0005900Y0382062D01*
X0005900Y0381464D02*
X0136300Y0381464D01*
X0136300Y0380865D02*
X0005900Y0380865D01*
X0005900Y0380267D02*
X0136300Y0380267D01*
X0136300Y0379668D02*
X0005900Y0379668D01*
X0005900Y0379070D02*
X0136300Y0379070D01*
X0136300Y0378471D02*
X0005900Y0378471D01*
X0005900Y0377873D02*
X0136300Y0377873D01*
X0136300Y0377274D02*
X0005900Y0377274D01*
X0005900Y0376676D02*
X0136300Y0376676D01*
X0136300Y0376077D02*
X0005900Y0376077D01*
X0005900Y0375479D02*
X0136300Y0375479D01*
X0136300Y0374880D02*
X0005900Y0374880D01*
X0005900Y0374281D02*
X0136300Y0374281D01*
X0136300Y0373683D02*
X0005900Y0373683D01*
X0005900Y0373084D02*
X0136300Y0373084D01*
X0136300Y0372486D02*
X0005900Y0372486D01*
X0005900Y0371887D02*
X0136300Y0371887D01*
X0136300Y0371289D02*
X0005900Y0371289D01*
X0005900Y0370690D02*
X0136300Y0370690D01*
X0136300Y0370092D02*
X0005900Y0370092D01*
X0005900Y0369493D02*
X0136300Y0369493D01*
X0136300Y0368895D02*
X0005900Y0368895D01*
X0005900Y0368296D02*
X0136300Y0368296D01*
X0136300Y0367698D02*
X0005900Y0367698D01*
X0005900Y0367099D02*
X0136300Y0367099D01*
X0136300Y0366501D02*
X0062042Y0366501D01*
X0061836Y0366707D02*
X0058764Y0366707D01*
X0056593Y0364536D01*
X0056593Y0361464D01*
X0058764Y0359293D01*
X0061836Y0359293D01*
X0064007Y0361464D01*
X0064007Y0364536D01*
X0061836Y0366707D01*
X0062640Y0365902D02*
X0136300Y0365902D01*
X0136300Y0365304D02*
X0063239Y0365304D01*
X0063837Y0364705D02*
X0136300Y0364705D01*
X0136300Y0364107D02*
X0064007Y0364107D01*
X0064007Y0363508D02*
X0136300Y0363508D01*
X0136300Y0362910D02*
X0064007Y0362910D01*
X0064007Y0362311D02*
X0136300Y0362311D01*
X0136300Y0361713D02*
X0064007Y0361713D01*
X0063657Y0361114D02*
X0136300Y0361114D01*
X0136300Y0360516D02*
X0063058Y0360516D01*
X0062460Y0359917D02*
X0136300Y0359917D01*
X0136300Y0359319D02*
X0061861Y0359319D01*
X0058739Y0359319D02*
X0031861Y0359319D01*
X0031836Y0359293D02*
X0034007Y0361464D01*
X0034007Y0364536D01*
X0031836Y0366707D01*
X0028764Y0366707D01*
X0026593Y0364536D01*
X0026593Y0361464D01*
X0028764Y0359293D01*
X0031836Y0359293D01*
X0032460Y0359917D02*
X0058140Y0359917D01*
X0057542Y0360516D02*
X0033058Y0360516D01*
X0033657Y0361114D02*
X0056943Y0361114D01*
X0056593Y0361713D02*
X0034007Y0361713D01*
X0034007Y0362311D02*
X0056593Y0362311D01*
X0056593Y0362910D02*
X0034007Y0362910D01*
X0034007Y0363508D02*
X0056593Y0363508D01*
X0056593Y0364107D02*
X0034007Y0364107D01*
X0033837Y0364705D02*
X0056763Y0364705D01*
X0057361Y0365304D02*
X0033239Y0365304D01*
X0032640Y0365902D02*
X0057960Y0365902D01*
X0058558Y0366501D02*
X0032042Y0366501D01*
X0028558Y0366501D02*
X0005900Y0366501D01*
X0005900Y0365902D02*
X0027960Y0365902D01*
X0027361Y0365304D02*
X0005900Y0365304D01*
X0005900Y0364705D02*
X0026763Y0364705D01*
X0026593Y0364107D02*
X0005900Y0364107D01*
X0005900Y0363508D02*
X0026593Y0363508D01*
X0026593Y0362910D02*
X0005900Y0362910D01*
X0005900Y0362311D02*
X0026593Y0362311D01*
X0026593Y0361713D02*
X0005900Y0361713D01*
X0005900Y0361114D02*
X0026943Y0361114D01*
X0027542Y0360516D02*
X0005900Y0360516D01*
X0005900Y0359917D02*
X0028140Y0359917D01*
X0028739Y0359319D02*
X0005900Y0359319D01*
X0005900Y0358720D02*
X0136300Y0358720D01*
X0136300Y0358122D02*
X0005900Y0358122D01*
X0005900Y0357523D02*
X0136300Y0357523D01*
X0136300Y0356925D02*
X0005900Y0356925D01*
X0005900Y0356326D02*
X0136300Y0356326D01*
X0136300Y0355728D02*
X0005900Y0355728D01*
X0005900Y0355129D02*
X0136300Y0355129D01*
X0136300Y0354531D02*
X0005900Y0354531D01*
X0005900Y0353932D02*
X0136300Y0353932D01*
X0136300Y0353334D02*
X0005900Y0353334D01*
X0005900Y0352735D02*
X0136300Y0352735D01*
X0136300Y0352137D02*
X0005900Y0352137D01*
X0005900Y0351538D02*
X0136300Y0351538D01*
X0136300Y0350940D02*
X0005900Y0350940D01*
X0005900Y0350341D02*
X0136300Y0350341D01*
X0136300Y0349743D02*
X0005900Y0349743D01*
X0005900Y0349144D02*
X0136300Y0349144D01*
X0136300Y0348545D02*
X0005900Y0348545D01*
X0005900Y0347947D02*
X0136300Y0347947D01*
X0136300Y0347348D02*
X0005900Y0347348D01*
X0005900Y0346750D02*
X0136300Y0346750D01*
X0136300Y0346151D02*
X0005900Y0346151D01*
X0005900Y0345553D02*
X0136300Y0345553D01*
X0136300Y0344954D02*
X0005900Y0344954D01*
X0005900Y0344356D02*
X0136300Y0344356D01*
X0136300Y0343757D02*
X0005900Y0343757D01*
X0005900Y0343159D02*
X0136300Y0343159D01*
X0136300Y0342560D02*
X0005900Y0342560D01*
X0005900Y0341962D02*
X0136300Y0341962D01*
X0136300Y0341363D02*
X0005900Y0341363D01*
X0005900Y0340765D02*
X0136300Y0340765D01*
X0136300Y0340166D02*
X0005900Y0340166D01*
X0005900Y0339568D02*
X0136300Y0339568D01*
X0136300Y0338969D02*
X0005900Y0338969D01*
X0005900Y0338371D02*
X0136300Y0338371D01*
X0136300Y0337772D02*
X0005900Y0337772D01*
X0005900Y0337174D02*
X0136300Y0337174D01*
X0136300Y0336575D02*
X0005900Y0336575D01*
X0005900Y0335977D02*
X0136300Y0335977D01*
X0136300Y0335378D02*
X0005900Y0335378D01*
X0005900Y0334780D02*
X0136300Y0334780D01*
X0136300Y0334181D02*
X0005900Y0334181D01*
X0005900Y0333583D02*
X0136300Y0333583D01*
X0136300Y0332984D02*
X0005900Y0332984D01*
X0005900Y0332386D02*
X0136300Y0332386D01*
X0136300Y0331787D02*
X0005900Y0331787D01*
X0005900Y0331189D02*
X0136300Y0331189D01*
X0136300Y0330590D02*
X0005900Y0330590D01*
X0005900Y0329992D02*
X0136300Y0329992D01*
X0136300Y0329393D02*
X0005900Y0329393D01*
X0005900Y0328795D02*
X0136300Y0328795D01*
X0136300Y0328196D02*
X0005900Y0328196D01*
X0005900Y0327598D02*
X0136300Y0327598D01*
X0136300Y0326999D02*
X0005900Y0326999D01*
X0005900Y0326401D02*
X0136300Y0326401D01*
X0136300Y0325802D02*
X0005900Y0325802D01*
X0005900Y0325204D02*
X0136300Y0325204D01*
X0136300Y0324605D02*
X0005900Y0324605D01*
X0005900Y0324007D02*
X0136300Y0324007D01*
X0136300Y0323408D02*
X0005900Y0323408D01*
X0005900Y0322810D02*
X0136300Y0322810D01*
X0136300Y0322211D02*
X0005900Y0322211D01*
X0005900Y0321612D02*
X0136300Y0321612D01*
X0136300Y0321014D02*
X0005900Y0321014D01*
X0005900Y0320415D02*
X0136300Y0320415D01*
X0136300Y0319817D02*
X0005900Y0319817D01*
X0005900Y0319218D02*
X0136300Y0319218D01*
X0136300Y0318620D02*
X0005900Y0318620D01*
X0005900Y0318021D02*
X0136300Y0318021D01*
X0136300Y0317423D02*
X0005900Y0317423D01*
X0005900Y0316824D02*
X0136300Y0316824D01*
X0136300Y0316226D02*
X0005900Y0316226D01*
X0005900Y0315627D02*
X0136300Y0315627D01*
X0136300Y0315029D02*
X0005900Y0315029D01*
X0005900Y0314430D02*
X0136300Y0314430D01*
X0136300Y0313832D02*
X0005900Y0313832D01*
X0005900Y0313233D02*
X0136300Y0313233D01*
X0136300Y0312635D02*
X0005900Y0312635D01*
X0005900Y0312036D02*
X0136300Y0312036D01*
X0136300Y0311438D02*
X0005900Y0311438D01*
X0005900Y0310839D02*
X0083074Y0310839D01*
X0083341Y0311107D02*
X0082693Y0310459D01*
X0082693Y0300541D01*
X0083341Y0299893D01*
X0093259Y0299893D01*
X0093907Y0300541D01*
X0093907Y0310459D01*
X0093259Y0311107D01*
X0083341Y0311107D01*
X0082693Y0310241D02*
X0005900Y0310241D01*
X0005900Y0309642D02*
X0082693Y0309642D01*
X0082693Y0309044D02*
X0005900Y0309044D01*
X0005900Y0308445D02*
X0082693Y0308445D01*
X0082693Y0307847D02*
X0005900Y0307847D01*
X0005900Y0307248D02*
X0082693Y0307248D01*
X0082693Y0306650D02*
X0005900Y0306650D01*
X0005900Y0306051D02*
X0082693Y0306051D01*
X0082693Y0305453D02*
X0005900Y0305453D01*
X0005900Y0304854D02*
X0082693Y0304854D01*
X0082693Y0304256D02*
X0005900Y0304256D01*
X0005900Y0303657D02*
X0082693Y0303657D01*
X0082693Y0303059D02*
X0005900Y0303059D01*
X0005900Y0302460D02*
X0082693Y0302460D01*
X0082693Y0301862D02*
X0005900Y0301862D01*
X0005900Y0301263D02*
X0082693Y0301263D01*
X0082693Y0300665D02*
X0005900Y0300665D01*
X0005900Y0300066D02*
X0083168Y0300066D01*
X0093432Y0300066D02*
X0136300Y0300066D01*
X0136300Y0299468D02*
X0005900Y0299468D01*
X0005900Y0298869D02*
X0136300Y0298869D01*
X0136300Y0298271D02*
X0005900Y0298271D01*
X0005900Y0297672D02*
X0136300Y0297672D01*
X0136300Y0297074D02*
X0005900Y0297074D01*
X0005900Y0296475D02*
X0136300Y0296475D01*
X0136300Y0295877D02*
X0005900Y0295877D01*
X0005900Y0295278D02*
X0136300Y0295278D01*
X0136300Y0294679D02*
X0005900Y0294679D01*
X0005900Y0294081D02*
X0136300Y0294081D01*
X0136300Y0293482D02*
X0005900Y0293482D01*
X0005900Y0292884D02*
X0136300Y0292884D01*
X0136300Y0292285D02*
X0005900Y0292285D01*
X0005900Y0291687D02*
X0136300Y0291687D01*
X0136300Y0291088D02*
X0005900Y0291088D01*
X0005900Y0290490D02*
X0136300Y0290490D01*
X0136300Y0289891D02*
X0005900Y0289891D01*
X0005900Y0289293D02*
X0136300Y0289293D01*
X0136300Y0288694D02*
X0005900Y0288694D01*
X0005900Y0288096D02*
X0136300Y0288096D01*
X0136300Y0287497D02*
X0005900Y0287497D01*
X0005900Y0286899D02*
X0136300Y0286899D01*
X0136300Y0286300D02*
X0005900Y0286300D01*
X0005900Y0285702D02*
X0136300Y0285702D01*
X0136300Y0285103D02*
X0005900Y0285103D01*
X0005900Y0284505D02*
X0136300Y0284505D01*
X0136300Y0283906D02*
X0005900Y0283906D01*
X0005900Y0283308D02*
X0136300Y0283308D01*
X0136300Y0282709D02*
X0005900Y0282709D01*
X0005900Y0282111D02*
X0136300Y0282111D01*
X0136300Y0281512D02*
X0005900Y0281512D01*
X0005900Y0280914D02*
X0083148Y0280914D01*
X0083341Y0281107D02*
X0082693Y0280459D01*
X0082693Y0270541D01*
X0083341Y0269893D01*
X0093259Y0269893D01*
X0093907Y0270541D01*
X0093907Y0280459D01*
X0093259Y0281107D01*
X0083341Y0281107D01*
X0082693Y0280315D02*
X0005900Y0280315D01*
X0005900Y0279717D02*
X0082693Y0279717D01*
X0082693Y0279118D02*
X0005900Y0279118D01*
X0005900Y0278520D02*
X0082693Y0278520D01*
X0082693Y0277921D02*
X0005900Y0277921D01*
X0005900Y0277323D02*
X0082693Y0277323D01*
X0082693Y0276724D02*
X0005900Y0276724D01*
X0005900Y0276126D02*
X0082693Y0276126D01*
X0082693Y0275527D02*
X0005900Y0275527D01*
X0005900Y0274929D02*
X0082693Y0274929D01*
X0082693Y0274330D02*
X0005900Y0274330D01*
X0005900Y0273732D02*
X0082693Y0273732D01*
X0082693Y0273133D02*
X0005900Y0273133D01*
X0005900Y0272535D02*
X0082693Y0272535D01*
X0082693Y0271936D02*
X0005900Y0271936D01*
X0005900Y0271338D02*
X0082693Y0271338D01*
X0082693Y0270739D02*
X0005900Y0270739D01*
X0005900Y0270141D02*
X0083094Y0270141D01*
X0093506Y0270141D02*
X0136300Y0270141D01*
X0136300Y0270739D02*
X0093907Y0270739D01*
X0093907Y0271338D02*
X0136300Y0271338D01*
X0136300Y0271936D02*
X0093907Y0271936D01*
X0093907Y0272535D02*
X0136300Y0272535D01*
X0136300Y0273133D02*
X0093907Y0273133D01*
X0093907Y0273732D02*
X0136300Y0273732D01*
X0136300Y0274330D02*
X0093907Y0274330D01*
X0093907Y0274929D02*
X0136300Y0274929D01*
X0136300Y0275527D02*
X0093907Y0275527D01*
X0093907Y0276126D02*
X0136300Y0276126D01*
X0136300Y0276724D02*
X0093907Y0276724D01*
X0093907Y0277323D02*
X0136300Y0277323D01*
X0136300Y0277921D02*
X0093907Y0277921D01*
X0093907Y0278520D02*
X0136300Y0278520D01*
X0136300Y0279118D02*
X0093907Y0279118D01*
X0093907Y0279717D02*
X0136300Y0279717D01*
X0136300Y0280315D02*
X0093907Y0280315D01*
X0093452Y0280914D02*
X0136300Y0280914D01*
X0136300Y0269542D02*
X0005900Y0269542D01*
X0005900Y0268943D02*
X0136300Y0268943D01*
X0136300Y0268345D02*
X0005900Y0268345D01*
X0005900Y0267746D02*
X0136300Y0267746D01*
X0136300Y0267148D02*
X0005900Y0267148D01*
X0005900Y0266549D02*
X0136300Y0266549D01*
X0136300Y0265951D02*
X0005900Y0265951D01*
X0005900Y0265352D02*
X0136300Y0265352D01*
X0136300Y0264754D02*
X0005900Y0264754D01*
X0005900Y0264155D02*
X0136300Y0264155D01*
X0136300Y0263557D02*
X0005900Y0263557D01*
X0005900Y0262958D02*
X0136300Y0262958D01*
X0136300Y0262360D02*
X0005900Y0262360D01*
X0005900Y0261761D02*
X0136300Y0261761D01*
X0136300Y0261163D02*
X0005900Y0261163D01*
X0005900Y0260564D02*
X0136300Y0260564D01*
X0136300Y0259966D02*
X0005900Y0259966D01*
X0005900Y0259367D02*
X0136300Y0259367D01*
X0136300Y0258769D02*
X0005900Y0258769D01*
X0005900Y0258170D02*
X0136300Y0258170D01*
X0136300Y0257572D02*
X0005900Y0257572D01*
X0005900Y0256973D02*
X0136300Y0256973D01*
X0136300Y0256375D02*
X0005900Y0256375D01*
X0005900Y0255776D02*
X0136300Y0255776D01*
X0136300Y0255178D02*
X0005900Y0255178D01*
X0005900Y0254579D02*
X0136300Y0254579D01*
X0136300Y0253981D02*
X0005900Y0253981D01*
X0005900Y0253382D02*
X0136300Y0253382D01*
X0136300Y0252784D02*
X0005900Y0252784D01*
X0005900Y0252185D02*
X0136300Y0252185D01*
X0136300Y0251587D02*
X0005900Y0251587D01*
X0005900Y0250988D02*
X0082950Y0250988D01*
X0082559Y0250390D02*
X0005900Y0250390D01*
X0005900Y0249791D02*
X0082500Y0249791D01*
X0082500Y0249193D02*
X0005900Y0249193D01*
X0005900Y0248594D02*
X0082500Y0248594D01*
X0082500Y0247996D02*
X0005900Y0247996D01*
X0005900Y0247397D02*
X0082500Y0247397D01*
X0082500Y0246799D02*
X0005900Y0246799D01*
X0088000Y0246799D02*
X0088600Y0246799D01*
X0088600Y0247397D02*
X0088000Y0247397D01*
X0088000Y0247996D02*
X0088600Y0247996D01*
X0088600Y0248594D02*
X0088000Y0248594D01*
X0088000Y0249193D02*
X0088600Y0249193D01*
X0088600Y0249791D02*
X0088000Y0249791D01*
X0088000Y0250390D02*
X0088600Y0250390D01*
X0088600Y0250988D02*
X0088000Y0250988D01*
X0088000Y0245003D02*
X0088600Y0245003D01*
X0088600Y0244405D02*
X0088000Y0244405D01*
X0088000Y0243806D02*
X0088600Y0243806D01*
X0088600Y0243208D02*
X0088000Y0243208D01*
X0088000Y0242609D02*
X0088600Y0242609D01*
X0088600Y0242010D02*
X0088000Y0242010D01*
X0088000Y0241412D02*
X0088600Y0241412D01*
X0088600Y0240813D02*
X0088000Y0240813D01*
X0088000Y0240215D02*
X0088600Y0240215D01*
X0116721Y0188144D02*
X0119879Y0188144D01*
X0119693Y0187959D02*
X0119693Y0182041D01*
X0120341Y0181393D01*
X0126259Y0181393D01*
X0126907Y0182041D01*
X0126907Y0187959D01*
X0126259Y0188607D01*
X0120341Y0188607D01*
X0119693Y0187959D01*
X0119693Y0187546D02*
X0116907Y0187546D01*
X0116907Y0186947D02*
X0119693Y0186947D01*
X0119693Y0186349D02*
X0116907Y0186349D01*
X0116907Y0185750D02*
X0119693Y0185750D01*
X0119693Y0185152D02*
X0116907Y0185152D01*
X0116907Y0184553D02*
X0119693Y0184553D01*
X0119693Y0183955D02*
X0116907Y0183955D01*
X0116907Y0183356D02*
X0119693Y0183356D01*
X0119693Y0182758D02*
X0116907Y0182758D01*
X0116907Y0182159D02*
X0119693Y0182159D01*
X0120173Y0181561D02*
X0116426Y0181561D01*
X0126426Y0181561D02*
X0136300Y0181561D01*
X0136300Y0182159D02*
X0126907Y0182159D01*
X0126907Y0182758D02*
X0136300Y0182758D01*
X0136300Y0183356D02*
X0126907Y0183356D01*
X0126907Y0183955D02*
X0136300Y0183955D01*
X0136300Y0184553D02*
X0126907Y0184553D01*
X0126907Y0185152D02*
X0136300Y0185152D01*
X0136300Y0185750D02*
X0126907Y0185750D01*
X0126907Y0186349D02*
X0136300Y0186349D01*
X0136300Y0186947D02*
X0126907Y0186947D01*
X0126907Y0187546D02*
X0136300Y0187546D01*
X0136300Y0188144D02*
X0126721Y0188144D01*
X0143800Y0195327D02*
X0263473Y0195327D01*
X0262875Y0195925D02*
X0143800Y0195925D01*
X0143800Y0196524D02*
X0262276Y0196524D01*
X0261678Y0197122D02*
X0143800Y0197122D01*
X0143800Y0197721D02*
X0261079Y0197721D01*
X0260481Y0198319D02*
X0143800Y0198319D01*
X0143800Y0198918D02*
X0259882Y0198918D01*
X0259284Y0199516D02*
X0143800Y0199516D01*
X0143800Y0200115D02*
X0258685Y0200115D01*
X0258087Y0200713D02*
X0143800Y0200713D01*
X0143800Y0201312D02*
X0257488Y0201312D01*
X0256890Y0201910D02*
X0143800Y0201910D01*
X0143800Y0202509D02*
X0256291Y0202509D01*
X0255693Y0203107D02*
X0143800Y0203107D01*
X0143800Y0203706D02*
X0255094Y0203706D01*
X0254496Y0204304D02*
X0143800Y0204304D01*
X0143800Y0204903D02*
X0253897Y0204903D01*
X0253299Y0205501D02*
X0143800Y0205501D01*
X0143800Y0206100D02*
X0252700Y0206100D01*
X0252102Y0206698D02*
X0143800Y0206698D01*
X0143800Y0207297D02*
X0251503Y0207297D01*
X0251300Y0207895D02*
X0143800Y0207895D01*
X0143800Y0208494D02*
X0251300Y0208494D01*
X0251300Y0209092D02*
X0143800Y0209092D01*
X0143800Y0209691D02*
X0251300Y0209691D01*
X0251300Y0210289D02*
X0143800Y0210289D01*
X0143800Y0210888D02*
X0251300Y0210888D01*
X0251300Y0211486D02*
X0143800Y0211486D01*
X0143800Y0212085D02*
X0251300Y0212085D01*
X0251300Y0212683D02*
X0143800Y0212683D01*
X0143800Y0213282D02*
X0251300Y0213282D01*
X0251300Y0213880D02*
X0143800Y0213880D01*
X0143800Y0214479D02*
X0251300Y0214479D01*
X0251300Y0215077D02*
X0143800Y0215077D01*
X0143800Y0215676D02*
X0251300Y0215676D01*
X0251300Y0216274D02*
X0143800Y0216274D01*
X0143800Y0216873D02*
X0251300Y0216873D01*
X0251300Y0217472D02*
X0143800Y0217472D01*
X0143800Y0218070D02*
X0251300Y0218070D01*
X0251300Y0218669D02*
X0143800Y0218669D01*
X0143800Y0219267D02*
X0251300Y0219267D01*
X0251300Y0219866D02*
X0143800Y0219866D01*
X0143800Y0220464D02*
X0251300Y0220464D01*
X0251300Y0221063D02*
X0143800Y0221063D01*
X0143800Y0221661D02*
X0251300Y0221661D01*
X0251300Y0222260D02*
X0143800Y0222260D01*
X0143800Y0222858D02*
X0251300Y0222858D01*
X0251300Y0223457D02*
X0143800Y0223457D01*
X0143800Y0224055D02*
X0251300Y0224055D01*
X0251300Y0224654D02*
X0143800Y0224654D01*
X0143800Y0225252D02*
X0251300Y0225252D01*
X0251300Y0225851D02*
X0143800Y0225851D01*
X0143800Y0226449D02*
X0251300Y0226449D01*
X0251300Y0227048D02*
X0143800Y0227048D01*
X0143800Y0227646D02*
X0251300Y0227646D01*
X0251300Y0228245D02*
X0143800Y0228245D01*
X0143800Y0228843D02*
X0251300Y0228843D01*
X0251300Y0229442D02*
X0143800Y0229442D01*
X0143800Y0230040D02*
X0251300Y0230040D01*
X0251300Y0230639D02*
X0143800Y0230639D01*
X0143800Y0231237D02*
X0251300Y0231237D01*
X0251300Y0231836D02*
X0143800Y0231836D01*
X0143800Y0232434D02*
X0251300Y0232434D01*
X0251300Y0233033D02*
X0143800Y0233033D01*
X0143800Y0233631D02*
X0251300Y0233631D01*
X0251300Y0234230D02*
X0143800Y0234230D01*
X0143800Y0234828D02*
X0251300Y0234828D01*
X0251300Y0235427D02*
X0143800Y0235427D01*
X0143800Y0236025D02*
X0251300Y0236025D01*
X0251300Y0236624D02*
X0143800Y0236624D01*
X0143800Y0237222D02*
X0251300Y0237222D01*
X0251300Y0237821D02*
X0143800Y0237821D01*
X0143800Y0238419D02*
X0251300Y0238419D01*
X0251300Y0239018D02*
X0143800Y0239018D01*
X0143800Y0239616D02*
X0251300Y0239616D01*
X0228700Y0188144D02*
X0206721Y0188144D01*
X0206907Y0187546D02*
X0225100Y0187546D01*
X0225100Y0186947D02*
X0206907Y0186947D01*
X0206907Y0186349D02*
X0225100Y0186349D01*
X0225100Y0185750D02*
X0206907Y0185750D01*
X0206907Y0185152D02*
X0225100Y0185152D01*
X0225212Y0184553D02*
X0206907Y0184553D01*
X0206907Y0183955D02*
X0225419Y0183955D01*
X0225742Y0183356D02*
X0206907Y0183356D01*
X0206907Y0182758D02*
X0226227Y0182758D01*
X0226980Y0182159D02*
X0206907Y0182159D01*
X0206426Y0181561D02*
X0358800Y0181561D01*
X0349593Y0128293D02*
X0206572Y0128293D01*
X0206259Y0128607D02*
X0206907Y0127959D01*
X0206907Y0122041D01*
X0206259Y0121393D01*
X0200341Y0121393D01*
X0199693Y0122041D01*
X0199693Y0127959D01*
X0200341Y0128607D01*
X0206259Y0128607D01*
X0206907Y0127695D02*
X0348995Y0127695D01*
X0348396Y0127096D02*
X0206907Y0127096D01*
X0206907Y0126498D02*
X0347798Y0126498D01*
X0347199Y0125899D02*
X0206907Y0125899D01*
X0206907Y0125301D02*
X0346601Y0125301D01*
X0346002Y0124702D02*
X0206907Y0124702D01*
X0206907Y0124104D02*
X0345404Y0124104D01*
X0344805Y0123505D02*
X0206907Y0123505D01*
X0206907Y0122907D02*
X0344207Y0122907D01*
X0343608Y0122308D02*
X0206907Y0122308D01*
X0206575Y0121710D02*
X0343010Y0121710D01*
X0321300Y0100000D02*
X0311300Y0110000D01*
X0301300Y0110000D01*
X0302915Y0107944D02*
X0311366Y0107944D01*
X0310768Y0108542D02*
X0303506Y0108542D01*
X0319147Y0100163D02*
X0261200Y0100163D01*
X0261200Y0099565D02*
X0319745Y0099565D01*
X0319893Y0098966D02*
X0260782Y0098966D01*
X0260183Y0098368D02*
X0319668Y0098368D01*
X0319069Y0097769D02*
X0259585Y0097769D01*
X0258986Y0097171D02*
X0318471Y0097171D01*
X0316300Y0084602D02*
X0169198Y0084602D01*
X0169797Y0084003D02*
X0316300Y0084003D01*
X0316300Y0083405D02*
X0170395Y0083405D01*
X0170994Y0082806D02*
X0316300Y0082806D01*
X0316300Y0082208D02*
X0171592Y0082208D01*
X0172191Y0081609D02*
X0316300Y0081609D01*
X0316300Y0081011D02*
X0172789Y0081011D01*
X0173388Y0080412D02*
X0316300Y0080412D01*
X0316300Y0079814D02*
X0173986Y0079814D01*
X0174585Y0079215D02*
X0316300Y0079215D01*
X0316300Y0078617D02*
X0175183Y0078617D01*
X0175782Y0078018D02*
X0316300Y0078018D01*
X0316300Y0077420D02*
X0176380Y0077420D01*
X0176979Y0076821D02*
X0316300Y0076821D01*
X0316300Y0076223D02*
X0177577Y0076223D01*
X0178176Y0075624D02*
X0316300Y0075624D01*
X0316300Y0075026D02*
X0178774Y0075026D01*
X0179373Y0074427D02*
X0218485Y0074427D01*
X0218764Y0074707D02*
X0216593Y0072536D01*
X0216593Y0069464D01*
X0218764Y0067293D01*
X0221836Y0067293D01*
X0224007Y0069464D01*
X0224007Y0072536D01*
X0221836Y0074707D01*
X0218764Y0074707D01*
X0217886Y0073829D02*
X0179971Y0073829D01*
X0180570Y0073230D02*
X0217288Y0073230D01*
X0216689Y0072632D02*
X0181168Y0072632D01*
X0181767Y0072033D02*
X0216593Y0072033D01*
X0216593Y0071435D02*
X0182365Y0071435D01*
X0182964Y0070836D02*
X0216593Y0070836D01*
X0216593Y0070238D02*
X0183562Y0070238D01*
X0184161Y0069639D02*
X0216593Y0069639D01*
X0217017Y0069041D02*
X0184759Y0069041D01*
X0185358Y0068442D02*
X0217615Y0068442D01*
X0218214Y0067844D02*
X0185956Y0067844D01*
X0186555Y0067245D02*
X0316045Y0067245D01*
X0316300Y0067844D02*
X0259386Y0067844D01*
X0258836Y0067293D02*
X0261007Y0069464D01*
X0261007Y0072536D01*
X0258836Y0074707D01*
X0255764Y0074707D01*
X0253593Y0072536D01*
X0253593Y0069464D01*
X0255764Y0067293D01*
X0258836Y0067293D01*
X0259985Y0068442D02*
X0316300Y0068442D01*
X0316300Y0069041D02*
X0260583Y0069041D01*
X0261007Y0069639D02*
X0316300Y0069639D01*
X0316300Y0070238D02*
X0261007Y0070238D01*
X0261007Y0070836D02*
X0316300Y0070836D01*
X0316300Y0071435D02*
X0261007Y0071435D01*
X0261007Y0072033D02*
X0316300Y0072033D01*
X0316300Y0072632D02*
X0260911Y0072632D01*
X0260312Y0073230D02*
X0316300Y0073230D01*
X0316300Y0073829D02*
X0259714Y0073829D01*
X0259115Y0074427D02*
X0316300Y0074427D01*
X0315447Y0066647D02*
X0187153Y0066647D01*
X0187752Y0066048D02*
X0314848Y0066048D01*
X0314250Y0065450D02*
X0188350Y0065450D01*
X0188949Y0064851D02*
X0313651Y0064851D01*
X0313053Y0064253D02*
X0189547Y0064253D01*
X0190146Y0063654D02*
X0312454Y0063654D01*
X0311856Y0063056D02*
X0190744Y0063056D01*
X0191343Y0062457D02*
X0311257Y0062457D01*
X0310659Y0061859D02*
X0191941Y0061859D01*
X0192540Y0061260D02*
X0310060Y0061260D01*
X0309462Y0060662D02*
X0193138Y0060662D01*
X0193737Y0060063D02*
X0308863Y0060063D01*
X0308265Y0059465D02*
X0194335Y0059465D01*
X0194934Y0058866D02*
X0307666Y0058866D01*
X0307068Y0058268D02*
X0195532Y0058268D01*
X0196131Y0057669D02*
X0306469Y0057669D01*
X0305870Y0057070D02*
X0196730Y0057070D01*
X0197328Y0056472D02*
X0305272Y0056472D01*
X0304673Y0055873D02*
X0197927Y0055873D01*
X0198525Y0055275D02*
X0304075Y0055275D01*
X0255214Y0067844D02*
X0248386Y0067844D01*
X0247836Y0067293D02*
X0250007Y0069464D01*
X0250007Y0072536D01*
X0247836Y0074707D01*
X0244764Y0074707D01*
X0242593Y0072536D01*
X0242593Y0069464D01*
X0244764Y0067293D01*
X0247836Y0067293D01*
X0248985Y0068442D02*
X0254615Y0068442D01*
X0254017Y0069041D02*
X0249583Y0069041D01*
X0250007Y0069639D02*
X0253593Y0069639D01*
X0253593Y0070238D02*
X0250007Y0070238D01*
X0250007Y0070836D02*
X0253593Y0070836D01*
X0253593Y0071435D02*
X0250007Y0071435D01*
X0250007Y0072033D02*
X0253593Y0072033D01*
X0253689Y0072632D02*
X0249911Y0072632D01*
X0249312Y0073230D02*
X0254288Y0073230D01*
X0254886Y0073829D02*
X0248714Y0073829D01*
X0248115Y0074427D02*
X0255485Y0074427D01*
X0244485Y0074427D02*
X0232115Y0074427D01*
X0231836Y0074707D02*
X0228764Y0074707D01*
X0226593Y0072536D01*
X0226593Y0069464D01*
X0228764Y0067293D01*
X0231836Y0067293D01*
X0234007Y0069464D01*
X0234007Y0072536D01*
X0231836Y0074707D01*
X0232714Y0073829D02*
X0243886Y0073829D01*
X0243288Y0073230D02*
X0233312Y0073230D01*
X0233911Y0072632D02*
X0242689Y0072632D01*
X0242593Y0072033D02*
X0234007Y0072033D01*
X0234007Y0071435D02*
X0242593Y0071435D01*
X0242593Y0070836D02*
X0234007Y0070836D01*
X0234007Y0070238D02*
X0242593Y0070238D01*
X0242593Y0069639D02*
X0234007Y0069639D01*
X0233583Y0069041D02*
X0243017Y0069041D01*
X0243615Y0068442D02*
X0232985Y0068442D01*
X0232386Y0067844D02*
X0244214Y0067844D01*
X0228214Y0067844D02*
X0222386Y0067844D01*
X0222985Y0068442D02*
X0227615Y0068442D01*
X0227017Y0069041D02*
X0223583Y0069041D01*
X0224007Y0069639D02*
X0226593Y0069639D01*
X0226593Y0070238D02*
X0224007Y0070238D01*
X0224007Y0070836D02*
X0226593Y0070836D01*
X0226593Y0071435D02*
X0224007Y0071435D01*
X0224007Y0072033D02*
X0226593Y0072033D01*
X0226689Y0072632D02*
X0223911Y0072632D01*
X0223312Y0073230D02*
X0227288Y0073230D01*
X0227886Y0073829D02*
X0222714Y0073829D01*
X0222115Y0074427D02*
X0228485Y0074427D01*
X0226400Y0101360D02*
X0224007Y0101360D01*
X0224007Y0101959D02*
X0226400Y0101959D01*
X0226400Y0102557D02*
X0223985Y0102557D01*
X0223387Y0103156D02*
X0226940Y0103156D01*
X0227539Y0103754D02*
X0222788Y0103754D01*
X0222190Y0104353D02*
X0228137Y0104353D01*
X0230000Y0104353D02*
X0230600Y0104353D01*
X0230600Y0103754D02*
X0230000Y0103754D01*
X0230000Y0103156D02*
X0230600Y0103156D01*
X0230600Y0102557D02*
X0230000Y0102557D01*
X0230000Y0101959D02*
X0230600Y0101959D01*
X0200025Y0121710D02*
X0186575Y0121710D01*
X0186907Y0122308D02*
X0199693Y0122308D01*
X0199693Y0122907D02*
X0186907Y0122907D01*
X0186907Y0123505D02*
X0199693Y0123505D01*
X0199693Y0124104D02*
X0186907Y0124104D01*
X0186907Y0124702D02*
X0199693Y0124702D01*
X0199693Y0125301D02*
X0186907Y0125301D01*
X0186907Y0125899D02*
X0199693Y0125899D01*
X0199693Y0126498D02*
X0186907Y0126498D01*
X0186907Y0127096D02*
X0199693Y0127096D01*
X0199693Y0127695D02*
X0186907Y0127695D01*
X0186572Y0128293D02*
X0200028Y0128293D01*
X0166400Y0101360D02*
X0164007Y0101360D01*
X0164007Y0100762D02*
X0166400Y0100762D01*
X0166621Y0100163D02*
X0163706Y0100163D01*
X0163107Y0099565D02*
X0167220Y0099565D01*
X0167818Y0098966D02*
X0162509Y0098966D01*
X0161910Y0098368D02*
X0168417Y0098368D01*
X0183000Y0181561D02*
X0183600Y0181561D01*
X0183600Y0182159D02*
X0183000Y0182159D01*
X0183000Y0182758D02*
X0183600Y0182758D01*
X0183600Y0183356D02*
X0183000Y0183356D01*
X0183000Y0183955D02*
X0183600Y0183955D01*
X0183600Y0185750D02*
X0183000Y0185750D01*
X0183000Y0186349D02*
X0183600Y0186349D01*
X0183600Y0186947D02*
X0183000Y0186947D01*
X0183000Y0187546D02*
X0183600Y0187546D01*
X0183600Y0188144D02*
X0183000Y0188144D01*
X0183000Y0188743D02*
X0183600Y0188743D01*
X0187100Y0184553D02*
X0199693Y0184553D01*
X0199693Y0183955D02*
X0187100Y0183955D01*
X0187100Y0183356D02*
X0199693Y0183356D01*
X0199693Y0182758D02*
X0187100Y0182758D01*
X0187055Y0182159D02*
X0199693Y0182159D01*
X0200173Y0181561D02*
X0186699Y0181561D01*
X0228700Y0186349D02*
X0229300Y0186349D01*
X0229300Y0186947D02*
X0228700Y0186947D01*
X0228700Y0187546D02*
X0229300Y0187546D01*
X0271000Y0175576D02*
X0271600Y0175576D01*
X0271600Y0174977D02*
X0271000Y0174977D01*
X0271000Y0174379D02*
X0271600Y0174379D01*
X0271600Y0173780D02*
X0271000Y0173780D01*
X0271000Y0173182D02*
X0271600Y0173182D01*
X0271600Y0171386D02*
X0271000Y0171386D01*
X0271000Y0170788D02*
X0271600Y0170788D01*
X0271600Y0170189D02*
X0271000Y0170189D01*
X0271000Y0169591D02*
X0271600Y0169591D01*
X0271600Y0168992D02*
X0271000Y0168992D01*
X0271000Y0168394D02*
X0271600Y0168394D01*
X0275200Y0172583D02*
X0279593Y0172583D01*
X0279593Y0173182D02*
X0275200Y0173182D01*
X0275035Y0173780D02*
X0279838Y0173780D01*
X0280436Y0174379D02*
X0274437Y0174379D01*
X0273838Y0174977D02*
X0281035Y0174977D01*
X0281633Y0175576D02*
X0273240Y0175576D01*
X0136300Y0300665D02*
X0093907Y0300665D01*
X0093907Y0301263D02*
X0136300Y0301263D01*
X0136300Y0301862D02*
X0093907Y0301862D01*
X0093907Y0302460D02*
X0136300Y0302460D01*
X0136300Y0303059D02*
X0093907Y0303059D01*
X0093907Y0303657D02*
X0136300Y0303657D01*
X0136300Y0304256D02*
X0093907Y0304256D01*
X0093907Y0304854D02*
X0136300Y0304854D01*
X0136300Y0305453D02*
X0093907Y0305453D01*
X0093907Y0306051D02*
X0136300Y0306051D01*
X0136300Y0306650D02*
X0093907Y0306650D01*
X0093907Y0307248D02*
X0136300Y0307248D01*
X0136300Y0307847D02*
X0093907Y0307847D01*
X0093907Y0308445D02*
X0136300Y0308445D01*
X0136300Y0309044D02*
X0093907Y0309044D01*
X0093907Y0309642D02*
X0136300Y0309642D01*
X0136300Y0310241D02*
X0093907Y0310241D01*
X0093526Y0310839D02*
X0136300Y0310839D01*
X0197263Y0358720D02*
X0223337Y0358720D01*
X0222739Y0359319D02*
X0197861Y0359319D01*
X0198460Y0359917D02*
X0222140Y0359917D01*
X0221593Y0360516D02*
X0199007Y0360516D01*
X0199007Y0361114D02*
X0221593Y0361114D01*
X0221593Y0361713D02*
X0199007Y0361713D01*
X0199007Y0362311D02*
X0221593Y0362311D01*
X0221593Y0362910D02*
X0199007Y0362910D01*
X0199007Y0363508D02*
X0221593Y0363508D01*
X0222164Y0364107D02*
X0198436Y0364107D01*
X0197837Y0364705D02*
X0222763Y0364705D01*
X0223361Y0365304D02*
X0197239Y0365304D01*
X0009392Y0382661D02*
X0005900Y0382661D01*
X0005900Y0383259D02*
X0008356Y0383259D01*
X0007319Y0383858D02*
X0005900Y0383858D01*
X0005900Y0384456D02*
X0006676Y0384456D01*
X0006078Y0385055D02*
X0005900Y0385055D01*
X0065490Y0161211D02*
X0071003Y0161211D01*
X0071003Y0160613D02*
X0065490Y0160613D01*
X0065490Y0160014D02*
X0071003Y0160014D01*
X0071003Y0159416D02*
X0065490Y0159416D01*
X0065490Y0158817D02*
X0071003Y0158817D01*
X0071474Y0158219D02*
X0065099Y0158219D01*
X0064500Y0157620D02*
X0072072Y0157620D01*
X0072671Y0157022D02*
X0063902Y0157022D01*
X0063303Y0156423D02*
X0073269Y0156423D01*
X0073868Y0155825D02*
X0062705Y0155825D01*
X0062106Y0155226D02*
X0074466Y0155226D01*
X0075065Y0154628D02*
X0061508Y0154628D01*
X0060909Y0154029D02*
X0075663Y0154029D01*
X0075620Y0153431D02*
X0060953Y0153431D01*
X0061552Y0152832D02*
X0075021Y0152832D01*
X0074423Y0152234D02*
X0062150Y0152234D01*
X0062749Y0151635D02*
X0073824Y0151635D01*
X0073226Y0151037D02*
X0063347Y0151037D01*
X0063946Y0150438D02*
X0072627Y0150438D01*
X0072029Y0149840D02*
X0064544Y0149840D01*
X0065143Y0149241D02*
X0071430Y0149241D01*
X0071003Y0148643D02*
X0065490Y0148643D01*
X0065490Y0148044D02*
X0071003Y0148044D01*
X0071003Y0147446D02*
X0065490Y0147446D01*
X0065490Y0146847D02*
X0071003Y0146847D01*
X0071003Y0146249D02*
X0065490Y0146249D01*
D23*
X0161300Y0080000D03*
X0270300Y0119000D03*
X0301300Y0110000D03*
X0304800Y0067500D03*
X0366300Y0170000D03*
X0306300Y0190000D03*
X0321300Y0389000D03*
X0205300Y0389000D03*
X0115300Y0389000D03*
X0041300Y0389000D03*
D24*
X0196300Y0389000D02*
X0205300Y0389000D01*
X0257300Y0389427D02*
X0378313Y0389427D01*
X0378045Y0390425D02*
X0257300Y0390425D01*
X0257300Y0391424D02*
X0377875Y0391424D01*
X0377875Y0391062D02*
X0378620Y0388283D01*
X0380058Y0385792D01*
X0382092Y0383758D01*
X0384583Y0382320D01*
X0387362Y0381575D01*
X0390238Y0381575D01*
X0393017Y0382320D01*
X0395508Y0383758D01*
X0396500Y0384750D01*
X0396500Y0200000D01*
X0269300Y0200000D01*
X0257300Y0212000D01*
X0257300Y0399200D01*
X0380053Y0399200D01*
X0378620Y0396717D01*
X0377875Y0393938D01*
X0377875Y0391062D01*
X0377875Y0392422D02*
X0257300Y0392422D01*
X0257300Y0393421D02*
X0377875Y0393421D01*
X0378004Y0394419D02*
X0257300Y0394419D01*
X0257300Y0395418D02*
X0378271Y0395418D01*
X0378539Y0396416D02*
X0257300Y0396416D01*
X0257300Y0397415D02*
X0379023Y0397415D01*
X0379599Y0398413D02*
X0257300Y0398413D01*
X0257300Y0388428D02*
X0378581Y0388428D01*
X0379112Y0387430D02*
X0257300Y0387430D01*
X0257300Y0386431D02*
X0379689Y0386431D01*
X0380417Y0385433D02*
X0257300Y0385433D01*
X0257300Y0384434D02*
X0381415Y0384434D01*
X0382650Y0383436D02*
X0257300Y0383436D01*
X0257300Y0382437D02*
X0384379Y0382437D01*
X0393221Y0382437D02*
X0396500Y0382437D01*
X0396500Y0381439D02*
X0257300Y0381439D01*
X0257300Y0380440D02*
X0396500Y0380440D01*
X0396500Y0379442D02*
X0257300Y0379442D01*
X0257300Y0378443D02*
X0396500Y0378443D01*
X0396500Y0377445D02*
X0257300Y0377445D01*
X0257300Y0376446D02*
X0396500Y0376446D01*
X0396500Y0375448D02*
X0257300Y0375448D01*
X0257300Y0374449D02*
X0396500Y0374449D01*
X0396500Y0373451D02*
X0257300Y0373451D01*
X0257300Y0372452D02*
X0396500Y0372452D01*
X0396500Y0371454D02*
X0257300Y0371454D01*
X0257300Y0370455D02*
X0396500Y0370455D01*
X0396500Y0369457D02*
X0257300Y0369457D01*
X0257300Y0368458D02*
X0396500Y0368458D01*
X0396500Y0367460D02*
X0347366Y0367460D01*
X0346918Y0367907D02*
X0343682Y0367907D01*
X0341393Y0365618D01*
X0341393Y0362382D01*
X0343682Y0360093D01*
X0346918Y0360093D01*
X0349207Y0362382D01*
X0349207Y0365618D01*
X0346918Y0367907D01*
X0348364Y0366461D02*
X0396500Y0366461D01*
X0396500Y0365463D02*
X0349207Y0365463D01*
X0349207Y0364464D02*
X0396500Y0364464D01*
X0396500Y0363466D02*
X0349207Y0363466D01*
X0349207Y0362467D02*
X0396500Y0362467D01*
X0396500Y0361469D02*
X0348294Y0361469D01*
X0347295Y0360470D02*
X0396500Y0360470D01*
X0396500Y0359472D02*
X0257300Y0359472D01*
X0257300Y0360470D02*
X0313305Y0360470D01*
X0313682Y0360093D02*
X0316918Y0360093D01*
X0319207Y0362382D01*
X0319207Y0365618D01*
X0316918Y0367907D01*
X0313682Y0367907D01*
X0311393Y0365618D01*
X0311393Y0362382D01*
X0313682Y0360093D01*
X0312306Y0361469D02*
X0257300Y0361469D01*
X0257300Y0362467D02*
X0311393Y0362467D01*
X0311393Y0363466D02*
X0257300Y0363466D01*
X0257300Y0364464D02*
X0311393Y0364464D01*
X0311393Y0365463D02*
X0257300Y0365463D01*
X0257300Y0366461D02*
X0312236Y0366461D01*
X0313234Y0367460D02*
X0257300Y0367460D01*
X0257300Y0358473D02*
X0396500Y0358473D01*
X0396500Y0357474D02*
X0257300Y0357474D01*
X0257300Y0356476D02*
X0396500Y0356476D01*
X0396500Y0355477D02*
X0257300Y0355477D01*
X0257300Y0354479D02*
X0396500Y0354479D01*
X0396500Y0353480D02*
X0257300Y0353480D01*
X0257300Y0352482D02*
X0396500Y0352482D01*
X0396500Y0351483D02*
X0257300Y0351483D01*
X0257300Y0350485D02*
X0396500Y0350485D01*
X0396500Y0349486D02*
X0257300Y0349486D01*
X0257300Y0348488D02*
X0396500Y0348488D01*
X0396500Y0347489D02*
X0257300Y0347489D01*
X0257300Y0346491D02*
X0396500Y0346491D01*
X0396500Y0345492D02*
X0257300Y0345492D01*
X0257300Y0344494D02*
X0396500Y0344494D01*
X0396500Y0343495D02*
X0257300Y0343495D01*
X0257300Y0342497D02*
X0396500Y0342497D01*
X0396500Y0341498D02*
X0257300Y0341498D01*
X0257300Y0340500D02*
X0396500Y0340500D01*
X0396500Y0339501D02*
X0257300Y0339501D01*
X0257300Y0338503D02*
X0396500Y0338503D01*
X0396500Y0337504D02*
X0257300Y0337504D01*
X0257300Y0336506D02*
X0396500Y0336506D01*
X0396500Y0335507D02*
X0257300Y0335507D01*
X0257300Y0334509D02*
X0396500Y0334509D01*
X0396500Y0333510D02*
X0257300Y0333510D01*
X0257300Y0332512D02*
X0396500Y0332512D01*
X0396500Y0331513D02*
X0257300Y0331513D01*
X0257300Y0330515D02*
X0396500Y0330515D01*
X0396500Y0329516D02*
X0377242Y0329516D01*
X0376757Y0329796D02*
X0374110Y0330505D01*
X0371370Y0330505D01*
X0368724Y0329796D01*
X0366351Y0328426D01*
X0364414Y0326489D01*
X0363044Y0324116D01*
X0362335Y0321470D01*
X0362335Y0318730D01*
X0363044Y0316084D01*
X0364414Y0313711D01*
X0366351Y0311774D01*
X0368724Y0310404D01*
X0371370Y0309694D01*
X0374110Y0309694D01*
X0376757Y0310404D01*
X0379129Y0311774D01*
X0381067Y0313711D01*
X0382437Y0316084D01*
X0383146Y0318730D01*
X0383146Y0321470D01*
X0382437Y0324116D01*
X0381067Y0326489D01*
X0379129Y0328426D01*
X0376757Y0329796D01*
X0378971Y0328518D02*
X0396500Y0328518D01*
X0396500Y0327519D02*
X0380037Y0327519D01*
X0381035Y0326521D02*
X0396500Y0326521D01*
X0396500Y0325522D02*
X0381625Y0325522D01*
X0382201Y0324524D02*
X0396500Y0324524D01*
X0396500Y0323525D02*
X0382595Y0323525D01*
X0382863Y0322527D02*
X0396500Y0322527D01*
X0396500Y0321528D02*
X0383130Y0321528D01*
X0383146Y0320530D02*
X0396500Y0320530D01*
X0396500Y0319531D02*
X0383146Y0319531D01*
X0383093Y0318533D02*
X0396500Y0318533D01*
X0396500Y0317534D02*
X0382825Y0317534D01*
X0382558Y0316536D02*
X0396500Y0316536D01*
X0396500Y0315537D02*
X0382121Y0315537D01*
X0381544Y0314539D02*
X0396500Y0314539D01*
X0396500Y0313540D02*
X0380896Y0313540D01*
X0379897Y0312541D02*
X0396500Y0312541D01*
X0396500Y0311543D02*
X0378730Y0311543D01*
X0377001Y0310544D02*
X0396500Y0310544D01*
X0396500Y0309546D02*
X0295800Y0309546D01*
X0295800Y0310544D02*
X0368480Y0310544D01*
X0366750Y0311543D02*
X0295800Y0311543D01*
X0295800Y0311697D02*
X0295698Y0312079D01*
X0295500Y0312421D01*
X0295221Y0312700D01*
X0294879Y0312898D01*
X0294497Y0313000D01*
X0288800Y0313000D01*
X0288800Y0306000D01*
X0295800Y0306000D01*
X0295800Y0311697D01*
X0295380Y0312541D02*
X0365583Y0312541D01*
X0364585Y0313540D02*
X0257300Y0313540D01*
X0257300Y0314539D02*
X0318669Y0314539D01*
X0319608Y0313600D02*
X0321800Y0313600D01*
X0321800Y0319600D01*
X0322800Y0319600D01*
X0322800Y0320600D01*
X0328800Y0320600D01*
X0328800Y0322792D01*
X0324992Y0326600D01*
X0322800Y0326600D01*
X0322800Y0320600D01*
X0321800Y0320600D01*
X0321800Y0326600D01*
X0319608Y0326600D01*
X0315800Y0322792D01*
X0315800Y0320600D01*
X0321800Y0320600D01*
X0321800Y0319600D01*
X0315800Y0319600D01*
X0315800Y0317408D01*
X0319608Y0313600D01*
X0321800Y0314539D02*
X0322800Y0314539D01*
X0322800Y0313600D02*
X0324992Y0313600D01*
X0328800Y0317408D01*
X0328800Y0319600D01*
X0322800Y0319600D01*
X0322800Y0313600D01*
X0322800Y0315537D02*
X0321800Y0315537D01*
X0321800Y0316536D02*
X0322800Y0316536D01*
X0322800Y0317534D02*
X0321800Y0317534D01*
X0321800Y0318533D02*
X0322800Y0318533D01*
X0322800Y0319531D02*
X0321800Y0319531D01*
X0321800Y0320530D02*
X0257300Y0320530D01*
X0257300Y0321528D02*
X0315800Y0321528D01*
X0315800Y0322527D02*
X0257300Y0322527D01*
X0257300Y0323525D02*
X0316533Y0323525D01*
X0317531Y0324524D02*
X0257300Y0324524D01*
X0257300Y0325522D02*
X0318530Y0325522D01*
X0319528Y0326521D02*
X0257300Y0326521D01*
X0257300Y0327519D02*
X0365444Y0327519D01*
X0364445Y0326521D02*
X0325072Y0326521D01*
X0326070Y0325522D02*
X0337693Y0325522D01*
X0337693Y0325641D02*
X0338459Y0326407D01*
X0349541Y0326407D01*
X0350307Y0325641D01*
X0350307Y0314559D01*
X0349541Y0313793D01*
X0338459Y0313793D01*
X0337693Y0314559D01*
X0337693Y0325641D01*
X0337693Y0324524D02*
X0327069Y0324524D01*
X0328067Y0323525D02*
X0337693Y0323525D01*
X0337693Y0322527D02*
X0328800Y0322527D01*
X0328800Y0321528D02*
X0337693Y0321528D01*
X0337693Y0320530D02*
X0322800Y0320530D01*
X0322800Y0321528D02*
X0321800Y0321528D01*
X0321800Y0322527D02*
X0322800Y0322527D01*
X0322800Y0323525D02*
X0321800Y0323525D01*
X0321800Y0324524D02*
X0322800Y0324524D01*
X0322800Y0325522D02*
X0321800Y0325522D01*
X0321800Y0326521D02*
X0322800Y0326521D01*
X0328800Y0319531D02*
X0337693Y0319531D01*
X0337693Y0318533D02*
X0328800Y0318533D01*
X0328800Y0317534D02*
X0337693Y0317534D01*
X0337693Y0316536D02*
X0327928Y0316536D01*
X0326929Y0315537D02*
X0337693Y0315537D01*
X0337713Y0314539D02*
X0325931Y0314539D01*
X0317671Y0315537D02*
X0257300Y0315537D01*
X0257300Y0316536D02*
X0316672Y0316536D01*
X0315800Y0317534D02*
X0257300Y0317534D01*
X0257300Y0318533D02*
X0315800Y0318533D01*
X0315800Y0319531D02*
X0257300Y0319531D01*
X0257300Y0312541D02*
X0281220Y0312541D01*
X0281100Y0312421D02*
X0280902Y0312079D01*
X0280800Y0311697D01*
X0280800Y0306000D01*
X0287800Y0306000D01*
X0287800Y0313000D01*
X0282103Y0313000D01*
X0281721Y0312898D01*
X0281379Y0312700D01*
X0281100Y0312421D01*
X0280800Y0311543D02*
X0257300Y0311543D01*
X0257300Y0310544D02*
X0280800Y0310544D01*
X0280800Y0309546D02*
X0257300Y0309546D01*
X0257300Y0308547D02*
X0280800Y0308547D01*
X0280800Y0307549D02*
X0257300Y0307549D01*
X0257300Y0306550D02*
X0280800Y0306550D01*
X0280800Y0305000D02*
X0280800Y0299303D01*
X0280902Y0298921D01*
X0281100Y0298579D01*
X0281379Y0298300D01*
X0281721Y0298102D01*
X0282103Y0298000D01*
X0287800Y0298000D01*
X0287800Y0305000D01*
X0288800Y0305000D01*
X0288800Y0306000D01*
X0287800Y0306000D01*
X0287800Y0305000D01*
X0280800Y0305000D01*
X0280800Y0304553D02*
X0257300Y0304553D01*
X0257300Y0303555D02*
X0280800Y0303555D01*
X0280800Y0302556D02*
X0257300Y0302556D01*
X0257300Y0301558D02*
X0280800Y0301558D01*
X0280800Y0300559D02*
X0257300Y0300559D01*
X0257300Y0299561D02*
X0280800Y0299561D01*
X0281116Y0298562D02*
X0257300Y0298562D01*
X0257300Y0297564D02*
X0369522Y0297564D01*
X0368524Y0297296D02*
X0366151Y0295926D01*
X0364214Y0293989D01*
X0362844Y0291616D01*
X0362135Y0288970D01*
X0362135Y0286230D01*
X0362844Y0283584D01*
X0364214Y0281211D01*
X0366151Y0279274D01*
X0368524Y0277904D01*
X0371170Y0277194D01*
X0373910Y0277194D01*
X0376557Y0277904D01*
X0378929Y0279274D01*
X0380867Y0281211D01*
X0382237Y0283584D01*
X0382946Y0286230D01*
X0382946Y0288970D01*
X0382237Y0291616D01*
X0380867Y0293989D01*
X0378929Y0295926D01*
X0376557Y0297296D01*
X0373910Y0298005D01*
X0371170Y0298005D01*
X0368524Y0297296D01*
X0367258Y0296565D02*
X0257300Y0296565D01*
X0257300Y0295567D02*
X0282518Y0295567D01*
X0282493Y0295541D02*
X0282493Y0285459D01*
X0283259Y0284693D01*
X0293341Y0284693D01*
X0294107Y0285459D01*
X0294107Y0295541D01*
X0293341Y0296307D01*
X0283259Y0296307D01*
X0282493Y0295541D01*
X0282493Y0294568D02*
X0257300Y0294568D01*
X0257300Y0293570D02*
X0282493Y0293570D01*
X0282493Y0292571D02*
X0257300Y0292571D01*
X0257300Y0291573D02*
X0282493Y0291573D01*
X0282493Y0290574D02*
X0257300Y0290574D01*
X0257300Y0289576D02*
X0282493Y0289576D01*
X0282493Y0288577D02*
X0257300Y0288577D01*
X0257300Y0287579D02*
X0282493Y0287579D01*
X0282493Y0286580D02*
X0257300Y0286580D01*
X0257300Y0285582D02*
X0282493Y0285582D01*
X0283259Y0281307D02*
X0282493Y0280541D01*
X0282493Y0270459D01*
X0283259Y0269693D01*
X0293341Y0269693D01*
X0294107Y0270459D01*
X0294107Y0280541D01*
X0293341Y0281307D01*
X0283259Y0281307D01*
X0282541Y0280589D02*
X0257300Y0280589D01*
X0257300Y0279591D02*
X0282493Y0279591D01*
X0282493Y0278592D02*
X0257300Y0278592D01*
X0257300Y0277594D02*
X0282493Y0277594D01*
X0282493Y0276595D02*
X0257300Y0276595D01*
X0257300Y0275597D02*
X0282493Y0275597D01*
X0282493Y0274598D02*
X0257300Y0274598D01*
X0257300Y0273600D02*
X0282493Y0273600D01*
X0282493Y0272601D02*
X0257300Y0272601D01*
X0257300Y0271603D02*
X0282493Y0271603D01*
X0282493Y0270604D02*
X0257300Y0270604D01*
X0257300Y0269605D02*
X0396500Y0269605D01*
X0396500Y0268607D02*
X0257300Y0268607D01*
X0257300Y0267608D02*
X0396500Y0267608D01*
X0396500Y0266610D02*
X0257300Y0266610D01*
X0257300Y0265611D02*
X0282563Y0265611D01*
X0282493Y0265541D02*
X0282493Y0255459D01*
X0283259Y0254693D01*
X0293341Y0254693D01*
X0294107Y0255459D01*
X0294107Y0265541D01*
X0293341Y0266307D01*
X0283259Y0266307D01*
X0282493Y0265541D01*
X0282493Y0264613D02*
X0257300Y0264613D01*
X0257300Y0263614D02*
X0282493Y0263614D01*
X0282493Y0262616D02*
X0257300Y0262616D01*
X0257300Y0261617D02*
X0282493Y0261617D01*
X0282493Y0260619D02*
X0257300Y0260619D01*
X0257300Y0259620D02*
X0282493Y0259620D01*
X0282493Y0258622D02*
X0257300Y0258622D01*
X0257300Y0257623D02*
X0282493Y0257623D01*
X0282493Y0256625D02*
X0257300Y0256625D01*
X0257300Y0255626D02*
X0282493Y0255626D01*
X0281759Y0252807D02*
X0280993Y0252041D01*
X0280993Y0238959D01*
X0281759Y0238193D01*
X0294841Y0238193D01*
X0295607Y0238959D01*
X0295607Y0252041D01*
X0294841Y0252807D01*
X0281759Y0252807D01*
X0281582Y0252631D02*
X0257300Y0252631D01*
X0257300Y0253629D02*
X0343989Y0253629D01*
X0343989Y0253217D02*
X0348989Y0253217D01*
X0348989Y0258217D01*
X0347211Y0258217D01*
X0343989Y0254995D01*
X0343989Y0253217D01*
X0343989Y0252217D02*
X0343989Y0250438D01*
X0347211Y0247217D01*
X0348989Y0247217D01*
X0348989Y0252216D01*
X0349989Y0252216D01*
X0349989Y0247217D01*
X0351767Y0247217D01*
X0354989Y0250438D01*
X0354989Y0252217D01*
X0349989Y0252217D01*
X0349989Y0253217D01*
X0348989Y0253217D01*
X0348989Y0252217D01*
X0343989Y0252217D01*
X0343989Y0251632D02*
X0295607Y0251632D01*
X0295607Y0250634D02*
X0343989Y0250634D01*
X0344792Y0249635D02*
X0295607Y0249635D01*
X0295607Y0248637D02*
X0345791Y0248637D01*
X0346789Y0247638D02*
X0295607Y0247638D01*
X0295607Y0246640D02*
X0368175Y0246640D01*
X0368443Y0247638D02*
X0366070Y0247638D01*
X0365841Y0247409D02*
X0366607Y0248175D01*
X0366607Y0257258D01*
X0365841Y0258024D01*
X0356759Y0258024D01*
X0355993Y0257258D01*
X0355993Y0248175D01*
X0356759Y0247409D01*
X0365841Y0247409D01*
X0366607Y0248637D02*
X0368824Y0248637D01*
X0368611Y0248268D02*
X0367902Y0245622D01*
X0367902Y0242882D01*
X0368611Y0240236D01*
X0369981Y0237863D01*
X0371919Y0235925D01*
X0373522Y0235000D01*
X0371919Y0234075D01*
X0369981Y0232137D01*
X0368611Y0229764D01*
X0367902Y0227118D01*
X0367902Y0224378D01*
X0368611Y0221732D01*
X0369981Y0219359D01*
X0371919Y0217422D01*
X0374291Y0216052D01*
X0376938Y0215343D01*
X0379678Y0215343D01*
X0382324Y0216052D01*
X0384697Y0217422D01*
X0386634Y0219359D01*
X0388004Y0221732D01*
X0388713Y0224378D01*
X0388713Y0227118D01*
X0388004Y0229764D01*
X0386634Y0232137D01*
X0384697Y0234075D01*
X0383094Y0235000D01*
X0384697Y0235925D01*
X0386634Y0237863D01*
X0388004Y0240236D01*
X0388713Y0242882D01*
X0388713Y0245622D01*
X0388004Y0248268D01*
X0386634Y0250641D01*
X0384697Y0252578D01*
X0382324Y0253948D01*
X0379678Y0254657D01*
X0376938Y0254657D01*
X0374291Y0253948D01*
X0371919Y0252578D01*
X0369981Y0250641D01*
X0368611Y0248268D01*
X0369401Y0249635D02*
X0366607Y0249635D01*
X0366607Y0250634D02*
X0369977Y0250634D01*
X0370973Y0251632D02*
X0366607Y0251632D01*
X0366607Y0252631D02*
X0372009Y0252631D01*
X0373739Y0253629D02*
X0366607Y0253629D01*
X0366607Y0254628D02*
X0376827Y0254628D01*
X0379788Y0254628D02*
X0396500Y0254628D01*
X0396500Y0255626D02*
X0366607Y0255626D01*
X0366607Y0256625D02*
X0396500Y0256625D01*
X0396500Y0257623D02*
X0366242Y0257623D01*
X0356358Y0257623D02*
X0352360Y0257623D01*
X0351767Y0258217D02*
X0349989Y0258217D01*
X0349989Y0253217D01*
X0354989Y0253217D01*
X0354989Y0254995D01*
X0351767Y0258217D01*
X0349989Y0257623D02*
X0348989Y0257623D01*
X0348989Y0256625D02*
X0349989Y0256625D01*
X0349989Y0255626D02*
X0348989Y0255626D01*
X0348989Y0254628D02*
X0349989Y0254628D01*
X0349989Y0253629D02*
X0348989Y0253629D01*
X0348989Y0252631D02*
X0295018Y0252631D01*
X0294107Y0255626D02*
X0344621Y0255626D01*
X0343989Y0254628D02*
X0257300Y0254628D01*
X0257300Y0251632D02*
X0280993Y0251632D01*
X0280993Y0250634D02*
X0257300Y0250634D01*
X0257300Y0249635D02*
X0280993Y0249635D01*
X0280993Y0248637D02*
X0257300Y0248637D01*
X0257300Y0247638D02*
X0280993Y0247638D01*
X0280993Y0246640D02*
X0257300Y0246640D01*
X0257300Y0245641D02*
X0280993Y0245641D01*
X0280993Y0244643D02*
X0257300Y0244643D01*
X0257300Y0243644D02*
X0280993Y0243644D01*
X0280993Y0242646D02*
X0257300Y0242646D01*
X0257300Y0241647D02*
X0280993Y0241647D01*
X0280993Y0240649D02*
X0257300Y0240649D01*
X0257300Y0239650D02*
X0280993Y0239650D01*
X0281300Y0238652D02*
X0257300Y0238652D01*
X0257300Y0237653D02*
X0344963Y0237653D01*
X0343989Y0238627D02*
X0347211Y0235406D01*
X0348989Y0235405D01*
X0348989Y0240405D01*
X0349989Y0240405D01*
X0349989Y0235406D01*
X0351767Y0235406D01*
X0354989Y0238627D01*
X0354989Y0240406D01*
X0349989Y0240406D01*
X0349989Y0241405D01*
X0354989Y0241405D01*
X0354989Y0243184D01*
X0351767Y0246405D01*
X0349989Y0246405D01*
X0349989Y0241406D01*
X0348989Y0241406D01*
X0348989Y0246405D01*
X0347211Y0246405D01*
X0343989Y0243184D01*
X0343989Y0241405D01*
X0348989Y0241405D01*
X0348989Y0240406D01*
X0343989Y0240406D01*
X0343989Y0238627D01*
X0343989Y0238652D02*
X0295300Y0238652D01*
X0295607Y0239650D02*
X0343989Y0239650D01*
X0343989Y0241647D02*
X0295607Y0241647D01*
X0295607Y0240649D02*
X0348989Y0240649D01*
X0348989Y0241647D02*
X0349989Y0241647D01*
X0349989Y0240649D02*
X0355993Y0240649D01*
X0355993Y0241647D02*
X0354989Y0241647D01*
X0354989Y0242646D02*
X0355993Y0242646D01*
X0355993Y0243104D02*
X0355993Y0238707D01*
X0359102Y0235598D01*
X0363498Y0235598D01*
X0366607Y0238707D01*
X0366607Y0243104D01*
X0363498Y0246213D01*
X0359102Y0246213D01*
X0355993Y0243104D01*
X0356533Y0243644D02*
X0354528Y0243644D01*
X0353530Y0244643D02*
X0357532Y0244643D01*
X0358530Y0245641D02*
X0352531Y0245641D01*
X0352189Y0247638D02*
X0356530Y0247638D01*
X0355993Y0248637D02*
X0353187Y0248637D01*
X0354186Y0249635D02*
X0355993Y0249635D01*
X0355993Y0250634D02*
X0354989Y0250634D01*
X0354989Y0251632D02*
X0355993Y0251632D01*
X0355993Y0252631D02*
X0349989Y0252631D01*
X0349989Y0251632D02*
X0348989Y0251632D01*
X0348989Y0250634D02*
X0349989Y0250634D01*
X0349989Y0249635D02*
X0348989Y0249635D01*
X0348989Y0248637D02*
X0349989Y0248637D01*
X0349989Y0247638D02*
X0348989Y0247638D01*
X0348989Y0245641D02*
X0349989Y0245641D01*
X0349989Y0244643D02*
X0348989Y0244643D01*
X0348989Y0243644D02*
X0349989Y0243644D01*
X0349989Y0242646D02*
X0348989Y0242646D01*
X0348989Y0239650D02*
X0349989Y0239650D01*
X0349989Y0238652D02*
X0348989Y0238652D01*
X0348989Y0237653D02*
X0349989Y0237653D01*
X0349989Y0236655D02*
X0348989Y0236655D01*
X0348989Y0235656D02*
X0349989Y0235656D01*
X0349989Y0234594D02*
X0351767Y0234594D01*
X0354989Y0231373D01*
X0354989Y0229594D01*
X0349989Y0229594D01*
X0349989Y0228594D01*
X0349989Y0223594D01*
X0351767Y0223594D01*
X0354989Y0226816D01*
X0354989Y0228594D01*
X0349989Y0228594D01*
X0348989Y0228594D01*
X0348989Y0223594D01*
X0347211Y0223594D01*
X0343989Y0226816D01*
X0343989Y0228594D01*
X0348989Y0228594D01*
X0348989Y0229594D01*
X0343989Y0229594D01*
X0343989Y0231373D01*
X0347211Y0234594D01*
X0348989Y0234594D01*
X0348989Y0229595D01*
X0349989Y0229595D01*
X0349989Y0234594D01*
X0349989Y0233659D02*
X0348989Y0233659D01*
X0348989Y0232661D02*
X0349989Y0232661D01*
X0349989Y0231662D02*
X0348989Y0231662D01*
X0348989Y0230664D02*
X0349989Y0230664D01*
X0349989Y0229665D02*
X0348989Y0229665D01*
X0348989Y0228667D02*
X0257300Y0228667D01*
X0257300Y0229665D02*
X0343989Y0229665D01*
X0343989Y0230664D02*
X0257300Y0230664D01*
X0257300Y0231662D02*
X0344278Y0231662D01*
X0345277Y0232661D02*
X0257300Y0232661D01*
X0257300Y0233659D02*
X0346275Y0233659D01*
X0346960Y0235656D02*
X0257300Y0235656D01*
X0257300Y0234658D02*
X0372929Y0234658D01*
X0372385Y0235656D02*
X0363556Y0235656D01*
X0363498Y0234402D02*
X0359102Y0234402D01*
X0355993Y0231293D01*
X0355993Y0226896D01*
X0359102Y0223787D01*
X0363498Y0223787D01*
X0366607Y0226896D01*
X0366607Y0231293D01*
X0363498Y0234402D01*
X0364241Y0233659D02*
X0371503Y0233659D01*
X0370505Y0232661D02*
X0365239Y0232661D01*
X0366238Y0231662D02*
X0369707Y0231662D01*
X0369131Y0230664D02*
X0366607Y0230664D01*
X0366607Y0229665D02*
X0368585Y0229665D01*
X0368317Y0228667D02*
X0366607Y0228667D01*
X0366607Y0227668D02*
X0368050Y0227668D01*
X0367902Y0226670D02*
X0366380Y0226670D01*
X0365382Y0225671D02*
X0367902Y0225671D01*
X0367902Y0224672D02*
X0364383Y0224672D01*
X0363498Y0222591D02*
X0359102Y0222591D01*
X0355993Y0219482D01*
X0355993Y0215085D01*
X0359102Y0211976D01*
X0363498Y0211976D01*
X0366607Y0215085D01*
X0366607Y0219482D01*
X0363498Y0222591D01*
X0364412Y0221677D02*
X0368643Y0221677D01*
X0368359Y0222675D02*
X0351875Y0222675D01*
X0351767Y0222783D02*
X0349989Y0222783D01*
X0349989Y0217784D01*
X0348989Y0217784D01*
X0348989Y0222783D01*
X0347211Y0222783D01*
X0343989Y0219562D01*
X0343989Y0217783D01*
X0348989Y0217783D01*
X0348989Y0216783D01*
X0349989Y0216783D01*
X0349989Y0211783D01*
X0351767Y0211783D01*
X0354989Y0215005D01*
X0354989Y0216783D01*
X0349989Y0216783D01*
X0349989Y0217783D01*
X0354989Y0217783D01*
X0354989Y0219562D01*
X0351767Y0222783D01*
X0351847Y0223674D02*
X0368091Y0223674D01*
X0369220Y0220678D02*
X0365410Y0220678D01*
X0366409Y0219680D02*
X0369796Y0219680D01*
X0370659Y0218681D02*
X0366607Y0218681D01*
X0366607Y0217683D02*
X0371657Y0217683D01*
X0373195Y0216684D02*
X0366607Y0216684D01*
X0366607Y0215686D02*
X0375656Y0215686D01*
X0380959Y0215686D02*
X0396500Y0215686D01*
X0396500Y0216684D02*
X0383420Y0216684D01*
X0384958Y0217683D02*
X0396500Y0217683D01*
X0396500Y0218681D02*
X0385957Y0218681D01*
X0386820Y0219680D02*
X0396500Y0219680D01*
X0396500Y0220678D02*
X0387396Y0220678D01*
X0387973Y0221677D02*
X0396500Y0221677D01*
X0396500Y0222675D02*
X0388257Y0222675D01*
X0388525Y0223674D02*
X0396500Y0223674D01*
X0396500Y0224672D02*
X0388713Y0224672D01*
X0388713Y0225671D02*
X0396500Y0225671D01*
X0396500Y0226670D02*
X0388713Y0226670D01*
X0388566Y0227668D02*
X0396500Y0227668D01*
X0396500Y0228667D02*
X0388298Y0228667D01*
X0388031Y0229665D02*
X0396500Y0229665D01*
X0396500Y0230664D02*
X0387485Y0230664D01*
X0386909Y0231662D02*
X0396500Y0231662D01*
X0396500Y0232661D02*
X0386111Y0232661D01*
X0385112Y0233659D02*
X0396500Y0233659D01*
X0396500Y0234658D02*
X0383687Y0234658D01*
X0384230Y0235656D02*
X0396500Y0235656D01*
X0396500Y0236655D02*
X0385426Y0236655D01*
X0386425Y0237653D02*
X0396500Y0237653D01*
X0396500Y0238652D02*
X0387090Y0238652D01*
X0387666Y0239650D02*
X0396500Y0239650D01*
X0396500Y0240649D02*
X0388115Y0240649D01*
X0388382Y0241647D02*
X0396500Y0241647D01*
X0396500Y0242646D02*
X0388650Y0242646D01*
X0388713Y0243644D02*
X0396500Y0243644D01*
X0396500Y0244643D02*
X0388713Y0244643D01*
X0388708Y0245641D02*
X0396500Y0245641D01*
X0396500Y0246640D02*
X0388441Y0246640D01*
X0388173Y0247638D02*
X0396500Y0247638D01*
X0396500Y0248637D02*
X0387792Y0248637D01*
X0387215Y0249635D02*
X0396500Y0249635D01*
X0396500Y0250634D02*
X0386639Y0250634D01*
X0385643Y0251632D02*
X0396500Y0251632D01*
X0396500Y0252631D02*
X0384606Y0252631D01*
X0382877Y0253629D02*
X0396500Y0253629D01*
X0396500Y0258622D02*
X0294107Y0258622D01*
X0294107Y0259620D02*
X0396500Y0259620D01*
X0396500Y0260619D02*
X0294107Y0260619D01*
X0294107Y0261617D02*
X0396500Y0261617D01*
X0396500Y0262616D02*
X0294107Y0262616D01*
X0294107Y0263614D02*
X0396500Y0263614D01*
X0396500Y0264613D02*
X0294107Y0264613D01*
X0294037Y0265611D02*
X0396500Y0265611D01*
X0396500Y0270604D02*
X0294107Y0270604D01*
X0294107Y0271603D02*
X0396500Y0271603D01*
X0396500Y0272601D02*
X0294107Y0272601D01*
X0294107Y0273600D02*
X0396500Y0273600D01*
X0396500Y0274598D02*
X0294107Y0274598D01*
X0294107Y0275597D02*
X0396500Y0275597D01*
X0396500Y0276595D02*
X0294107Y0276595D01*
X0294107Y0277594D02*
X0369681Y0277594D01*
X0367331Y0278592D02*
X0294107Y0278592D01*
X0294107Y0279591D02*
X0365834Y0279591D01*
X0364835Y0280589D02*
X0294059Y0280589D01*
X0294107Y0285582D02*
X0315600Y0285582D01*
X0315600Y0284908D02*
X0319408Y0281100D01*
X0321600Y0281100D01*
X0321600Y0287100D01*
X0322600Y0287100D01*
X0322600Y0288100D01*
X0328600Y0288100D01*
X0328600Y0290292D01*
X0324792Y0294100D01*
X0322600Y0294100D01*
X0322600Y0288100D01*
X0321600Y0288100D01*
X0321600Y0294100D01*
X0319408Y0294100D01*
X0315600Y0290292D01*
X0315600Y0288100D01*
X0321600Y0288100D01*
X0321600Y0287100D01*
X0315600Y0287100D01*
X0315600Y0284908D01*
X0315924Y0284583D02*
X0257300Y0284583D01*
X0257300Y0283585D02*
X0316923Y0283585D01*
X0317921Y0282586D02*
X0257300Y0282586D01*
X0257300Y0281588D02*
X0318920Y0281588D01*
X0321600Y0281588D02*
X0322600Y0281588D01*
X0322600Y0281100D02*
X0324792Y0281100D01*
X0328600Y0284908D01*
X0328600Y0287100D01*
X0322600Y0287100D01*
X0322600Y0281100D01*
X0322600Y0282586D02*
X0321600Y0282586D01*
X0321600Y0283585D02*
X0322600Y0283585D01*
X0322600Y0284583D02*
X0321600Y0284583D01*
X0321600Y0285582D02*
X0322600Y0285582D01*
X0322600Y0286580D02*
X0321600Y0286580D01*
X0321600Y0287579D02*
X0294107Y0287579D01*
X0294107Y0288577D02*
X0315600Y0288577D01*
X0315600Y0289576D02*
X0294107Y0289576D01*
X0294107Y0290574D02*
X0315882Y0290574D01*
X0316880Y0291573D02*
X0294107Y0291573D01*
X0294107Y0292571D02*
X0317879Y0292571D01*
X0318877Y0293570D02*
X0294107Y0293570D01*
X0294107Y0294568D02*
X0364793Y0294568D01*
X0363972Y0293570D02*
X0349679Y0293570D01*
X0349341Y0293907D02*
X0338259Y0293907D01*
X0337493Y0293141D01*
X0337493Y0282059D01*
X0338259Y0281293D01*
X0349341Y0281293D01*
X0350107Y0282059D01*
X0350107Y0293141D01*
X0349341Y0293907D01*
X0350107Y0292571D02*
X0363395Y0292571D01*
X0362832Y0291573D02*
X0350107Y0291573D01*
X0350107Y0290574D02*
X0362565Y0290574D01*
X0362297Y0289576D02*
X0350107Y0289576D01*
X0350107Y0288577D02*
X0362135Y0288577D01*
X0362135Y0287579D02*
X0350107Y0287579D01*
X0350107Y0286580D02*
X0362135Y0286580D01*
X0362308Y0285582D02*
X0350107Y0285582D01*
X0350107Y0284583D02*
X0362576Y0284583D01*
X0362843Y0283585D02*
X0350107Y0283585D01*
X0350107Y0282586D02*
X0363420Y0282586D01*
X0363996Y0281588D02*
X0349636Y0281588D01*
X0337964Y0281588D02*
X0325280Y0281588D01*
X0326279Y0282586D02*
X0337493Y0282586D01*
X0337493Y0283585D02*
X0327277Y0283585D01*
X0328276Y0284583D02*
X0337493Y0284583D01*
X0337493Y0285582D02*
X0328600Y0285582D01*
X0328600Y0286580D02*
X0337493Y0286580D01*
X0337493Y0287579D02*
X0322600Y0287579D01*
X0322600Y0288577D02*
X0321600Y0288577D01*
X0321600Y0289576D02*
X0322600Y0289576D01*
X0322600Y0290574D02*
X0321600Y0290574D01*
X0321600Y0291573D02*
X0322600Y0291573D01*
X0322600Y0292571D02*
X0321600Y0292571D01*
X0321600Y0293570D02*
X0322600Y0293570D01*
X0325323Y0293570D02*
X0337921Y0293570D01*
X0337493Y0292571D02*
X0326321Y0292571D01*
X0327320Y0291573D02*
X0337493Y0291573D01*
X0337493Y0290574D02*
X0328318Y0290574D01*
X0328600Y0289576D02*
X0337493Y0289576D01*
X0337493Y0288577D02*
X0328600Y0288577D01*
X0315600Y0286580D02*
X0294107Y0286580D01*
X0294082Y0295567D02*
X0365791Y0295567D01*
X0375558Y0297564D02*
X0396500Y0297564D01*
X0396500Y0298562D02*
X0295484Y0298562D01*
X0295500Y0298579D02*
X0295698Y0298921D01*
X0295800Y0299303D01*
X0295800Y0305000D01*
X0288800Y0305000D01*
X0288800Y0298000D01*
X0294497Y0298000D01*
X0294879Y0298102D01*
X0295221Y0298300D01*
X0295500Y0298579D01*
X0295800Y0299561D02*
X0396500Y0299561D01*
X0396500Y0300559D02*
X0295800Y0300559D01*
X0295800Y0301558D02*
X0396500Y0301558D01*
X0396500Y0302556D02*
X0295800Y0302556D01*
X0295800Y0303555D02*
X0396500Y0303555D01*
X0396500Y0304553D02*
X0295800Y0304553D01*
X0295800Y0306550D02*
X0396500Y0306550D01*
X0396500Y0305552D02*
X0288800Y0305552D01*
X0288800Y0306550D02*
X0287800Y0306550D01*
X0287800Y0305552D02*
X0257300Y0305552D01*
X0257300Y0328518D02*
X0366509Y0328518D01*
X0368238Y0329516D02*
X0257300Y0329516D01*
X0287800Y0312541D02*
X0288800Y0312541D01*
X0288800Y0311543D02*
X0287800Y0311543D01*
X0287800Y0310544D02*
X0288800Y0310544D01*
X0288800Y0309546D02*
X0287800Y0309546D01*
X0287800Y0308547D02*
X0288800Y0308547D01*
X0288800Y0307549D02*
X0287800Y0307549D01*
X0287800Y0304553D02*
X0288800Y0304553D01*
X0288800Y0303555D02*
X0287800Y0303555D01*
X0287800Y0302556D02*
X0288800Y0302556D01*
X0288800Y0301558D02*
X0287800Y0301558D01*
X0287800Y0300559D02*
X0288800Y0300559D01*
X0288800Y0299561D02*
X0287800Y0299561D01*
X0287800Y0298562D02*
X0288800Y0298562D01*
X0295800Y0307549D02*
X0396500Y0307549D01*
X0396500Y0308547D02*
X0295800Y0308547D01*
X0294107Y0257623D02*
X0346618Y0257623D01*
X0345619Y0256625D02*
X0294107Y0256625D01*
X0295607Y0245641D02*
X0346447Y0245641D01*
X0345448Y0244643D02*
X0295607Y0244643D01*
X0295607Y0243644D02*
X0344450Y0243644D01*
X0343989Y0242646D02*
X0295607Y0242646D01*
X0261602Y0207698D02*
X0338472Y0207698D01*
X0337474Y0206699D02*
X0262601Y0206699D01*
X0263599Y0205701D02*
X0337393Y0205701D01*
X0337393Y0206618D02*
X0337393Y0203382D01*
X0339682Y0201093D01*
X0342918Y0201093D01*
X0345207Y0203382D01*
X0345207Y0206618D01*
X0342918Y0208907D01*
X0339682Y0208907D01*
X0337393Y0206618D01*
X0337393Y0204702D02*
X0264598Y0204702D01*
X0265596Y0203704D02*
X0337393Y0203704D01*
X0338069Y0202705D02*
X0266595Y0202705D01*
X0267593Y0201707D02*
X0339068Y0201707D01*
X0343532Y0201707D02*
X0396500Y0201707D01*
X0396500Y0202705D02*
X0344531Y0202705D01*
X0345207Y0203704D02*
X0396500Y0203704D01*
X0396500Y0204702D02*
X0345207Y0204702D01*
X0345207Y0205701D02*
X0396500Y0205701D01*
X0396500Y0206699D02*
X0345126Y0206699D01*
X0344128Y0207698D02*
X0396500Y0207698D01*
X0396500Y0208696D02*
X0343129Y0208696D01*
X0339471Y0208696D02*
X0260604Y0208696D01*
X0259605Y0209695D02*
X0396500Y0209695D01*
X0396500Y0210693D02*
X0258607Y0210693D01*
X0257608Y0211692D02*
X0396500Y0211692D01*
X0396500Y0212690D02*
X0364212Y0212690D01*
X0365211Y0213689D02*
X0396500Y0213689D01*
X0396500Y0214687D02*
X0366209Y0214687D01*
X0358388Y0212690D02*
X0352674Y0212690D01*
X0353673Y0213689D02*
X0357389Y0213689D01*
X0356391Y0214687D02*
X0354671Y0214687D01*
X0354989Y0215686D02*
X0355993Y0215686D01*
X0355993Y0216684D02*
X0354989Y0216684D01*
X0355993Y0217683D02*
X0349989Y0217683D01*
X0349989Y0218681D02*
X0348989Y0218681D01*
X0348989Y0217683D02*
X0257300Y0217683D01*
X0257300Y0218681D02*
X0343989Y0218681D01*
X0344107Y0219680D02*
X0257300Y0219680D01*
X0257300Y0220678D02*
X0345106Y0220678D01*
X0346104Y0221677D02*
X0257300Y0221677D01*
X0257300Y0222675D02*
X0347103Y0222675D01*
X0347131Y0223674D02*
X0257300Y0223674D01*
X0257300Y0224672D02*
X0346133Y0224672D01*
X0345134Y0225671D02*
X0257300Y0225671D01*
X0257300Y0226670D02*
X0344136Y0226670D01*
X0343989Y0227668D02*
X0257300Y0227668D01*
X0257300Y0236655D02*
X0345962Y0236655D01*
X0352018Y0235656D02*
X0359044Y0235656D01*
X0358046Y0236655D02*
X0353016Y0236655D01*
X0354015Y0237653D02*
X0357047Y0237653D01*
X0356049Y0238652D02*
X0354989Y0238652D01*
X0354989Y0239650D02*
X0355993Y0239650D01*
X0358359Y0233659D02*
X0352703Y0233659D01*
X0353701Y0232661D02*
X0357361Y0232661D01*
X0356362Y0231662D02*
X0354700Y0231662D01*
X0354989Y0230664D02*
X0355993Y0230664D01*
X0355993Y0229665D02*
X0354989Y0229665D01*
X0355993Y0228667D02*
X0349989Y0228667D01*
X0349989Y0227668D02*
X0348989Y0227668D01*
X0348989Y0226670D02*
X0349989Y0226670D01*
X0349989Y0225671D02*
X0348989Y0225671D01*
X0348989Y0224672D02*
X0349989Y0224672D01*
X0349989Y0223674D02*
X0348989Y0223674D01*
X0348989Y0222675D02*
X0349989Y0222675D01*
X0349989Y0221677D02*
X0348989Y0221677D01*
X0348989Y0220678D02*
X0349989Y0220678D01*
X0349989Y0219680D02*
X0348989Y0219680D01*
X0348989Y0216783D02*
X0343989Y0216783D01*
X0343989Y0215005D01*
X0347211Y0211783D01*
X0348989Y0211783D01*
X0348989Y0216783D01*
X0348989Y0216684D02*
X0349989Y0216684D01*
X0349989Y0215686D02*
X0348989Y0215686D01*
X0348989Y0214687D02*
X0349989Y0214687D01*
X0349989Y0213689D02*
X0348989Y0213689D01*
X0348989Y0212690D02*
X0349989Y0212690D01*
X0346304Y0212690D02*
X0257300Y0212690D01*
X0257300Y0213689D02*
X0345305Y0213689D01*
X0344307Y0214687D02*
X0257300Y0214687D01*
X0257300Y0215686D02*
X0343989Y0215686D01*
X0343989Y0216684D02*
X0257300Y0216684D01*
X0268592Y0200708D02*
X0396500Y0200708D01*
X0371190Y0236655D02*
X0364554Y0236655D01*
X0365553Y0237653D02*
X0370191Y0237653D01*
X0369526Y0238652D02*
X0366551Y0238652D01*
X0366607Y0239650D02*
X0368949Y0239650D01*
X0368501Y0240649D02*
X0366607Y0240649D01*
X0366607Y0241647D02*
X0368233Y0241647D01*
X0367966Y0242646D02*
X0366607Y0242646D01*
X0366067Y0243644D02*
X0367902Y0243644D01*
X0367902Y0244643D02*
X0365068Y0244643D01*
X0364070Y0245641D02*
X0367908Y0245641D01*
X0355993Y0253629D02*
X0354989Y0253629D01*
X0354989Y0254628D02*
X0355993Y0254628D01*
X0355993Y0255626D02*
X0354357Y0255626D01*
X0353359Y0256625D02*
X0355993Y0256625D01*
X0375400Y0277594D02*
X0396500Y0277594D01*
X0396500Y0278592D02*
X0377749Y0278592D01*
X0379246Y0279591D02*
X0396500Y0279591D01*
X0396500Y0280589D02*
X0380245Y0280589D01*
X0381084Y0281588D02*
X0396500Y0281588D01*
X0396500Y0282586D02*
X0381661Y0282586D01*
X0382237Y0283585D02*
X0396500Y0283585D01*
X0396500Y0284583D02*
X0382504Y0284583D01*
X0382772Y0285582D02*
X0396500Y0285582D01*
X0396500Y0286580D02*
X0382946Y0286580D01*
X0382946Y0287579D02*
X0396500Y0287579D01*
X0396500Y0288577D02*
X0382946Y0288577D01*
X0382783Y0289576D02*
X0396500Y0289576D01*
X0396500Y0290574D02*
X0382516Y0290574D01*
X0382248Y0291573D02*
X0396500Y0291573D01*
X0396500Y0292571D02*
X0381685Y0292571D01*
X0381109Y0293570D02*
X0396500Y0293570D01*
X0396500Y0294568D02*
X0380287Y0294568D01*
X0379289Y0295567D02*
X0396500Y0295567D01*
X0396500Y0296565D02*
X0377823Y0296565D01*
X0363936Y0314539D02*
X0350287Y0314539D01*
X0350307Y0315537D02*
X0363359Y0315537D01*
X0362923Y0316536D02*
X0350307Y0316536D01*
X0350307Y0317534D02*
X0362655Y0317534D01*
X0362388Y0318533D02*
X0350307Y0318533D01*
X0350307Y0319531D02*
X0362335Y0319531D01*
X0362335Y0320530D02*
X0350307Y0320530D01*
X0350307Y0321528D02*
X0362350Y0321528D01*
X0362618Y0322527D02*
X0350307Y0322527D01*
X0350307Y0323525D02*
X0362885Y0323525D01*
X0363279Y0324524D02*
X0350307Y0324524D01*
X0350307Y0325522D02*
X0363855Y0325522D01*
X0343305Y0360470D02*
X0317295Y0360470D01*
X0318294Y0361469D02*
X0342306Y0361469D01*
X0341393Y0362467D02*
X0319207Y0362467D01*
X0319207Y0363466D02*
X0341393Y0363466D01*
X0341393Y0364464D02*
X0319207Y0364464D01*
X0319207Y0365463D02*
X0341393Y0365463D01*
X0342236Y0366461D02*
X0318364Y0366461D01*
X0317366Y0367460D02*
X0343234Y0367460D01*
X0394950Y0383436D02*
X0396500Y0383436D01*
X0396500Y0384434D02*
X0396185Y0384434D01*
X0355993Y0227668D02*
X0354989Y0227668D01*
X0354842Y0226670D02*
X0356220Y0226670D01*
X0357218Y0225671D02*
X0353844Y0225671D01*
X0352845Y0224672D02*
X0358217Y0224672D01*
X0358188Y0221677D02*
X0352874Y0221677D01*
X0353872Y0220678D02*
X0357190Y0220678D01*
X0356191Y0219680D02*
X0354871Y0219680D01*
X0354989Y0218681D02*
X0355993Y0218681D01*
X0261998Y0105000D02*
X0262651Y0104346D01*
D25*
X0376300Y0206700D02*
X0381300Y0201700D01*
X0381300Y0175000D01*
D26*
X0064300Y0035000D02*
X0064300Y0015000D01*
X0066300Y0013000D01*
X0088300Y0013000D01*
X0090300Y0015000D01*
X0090300Y0035000D01*
X0087300Y0038000D01*
X0067300Y0038000D01*
X0064300Y0035000D01*
X0064300Y0034963D02*
X0090300Y0034963D01*
X0090300Y0033764D02*
X0064300Y0033764D01*
X0064300Y0032566D02*
X0090300Y0032566D01*
X0090300Y0031367D02*
X0064300Y0031367D01*
X0064300Y0030169D02*
X0090300Y0030169D01*
X0090300Y0028970D02*
X0064300Y0028970D01*
X0064300Y0027772D02*
X0090300Y0027772D01*
X0090300Y0026573D02*
X0064300Y0026573D01*
X0064300Y0025375D02*
X0090300Y0025375D01*
X0090300Y0024176D02*
X0064300Y0024176D01*
X0064300Y0022978D02*
X0090300Y0022978D01*
X0090300Y0021779D02*
X0064300Y0021779D01*
X0064300Y0020581D02*
X0090300Y0020581D01*
X0090300Y0019382D02*
X0064300Y0019382D01*
X0064300Y0018184D02*
X0090300Y0018184D01*
X0090300Y0016985D02*
X0064300Y0016985D01*
X0064300Y0015787D02*
X0090300Y0015787D01*
X0089888Y0014588D02*
X0064712Y0014588D01*
X0065910Y0013390D02*
X0088690Y0013390D01*
X0094300Y0015000D02*
X0094300Y0035000D01*
X0097300Y0038000D01*
X0116300Y0038000D01*
X0119300Y0035000D01*
X0119300Y0016000D01*
X0116300Y0013000D01*
X0096300Y0013000D01*
X0094300Y0015000D01*
X0094712Y0014588D02*
X0117888Y0014588D01*
X0116690Y0013390D02*
X0095910Y0013390D01*
X0094300Y0015787D02*
X0119087Y0015787D01*
X0119300Y0016985D02*
X0094300Y0016985D01*
X0094300Y0018184D02*
X0119300Y0018184D01*
X0119300Y0019382D02*
X0094300Y0019382D01*
X0094300Y0020581D02*
X0119300Y0020581D01*
X0119300Y0021779D02*
X0094300Y0021779D01*
X0094300Y0022978D02*
X0119300Y0022978D01*
X0119300Y0024176D02*
X0094300Y0024176D01*
X0094300Y0025375D02*
X0119300Y0025375D01*
X0119300Y0026573D02*
X0094300Y0026573D01*
X0094300Y0027772D02*
X0119300Y0027772D01*
X0119300Y0028970D02*
X0094300Y0028970D01*
X0094300Y0030169D02*
X0119300Y0030169D01*
X0119300Y0031367D02*
X0094300Y0031367D01*
X0094300Y0031600D02*
X0094300Y0035000D01*
X0097300Y0038000D01*
X0116300Y0038000D01*
X0119300Y0035000D01*
X0119300Y0031600D01*
X0117650Y0031600D01*
X0117650Y0018100D01*
X0116450Y0018100D01*
X0116450Y0031600D01*
X0113589Y0031600D01*
X0113182Y0031491D01*
X0112818Y0031280D01*
X0112520Y0030982D01*
X0112309Y0030618D01*
X0112200Y0030211D01*
X0112200Y0018100D01*
X0116450Y0018100D01*
X0116450Y0016900D01*
X0112200Y0016900D01*
X0112200Y0013000D01*
X0111900Y0013000D01*
X0111900Y0016900D01*
X0107650Y0016900D01*
X0107650Y0018100D01*
X0106450Y0018100D01*
X0106450Y0031600D01*
X0103589Y0031600D01*
X0103182Y0031491D01*
X0102818Y0031280D01*
X0102520Y0030982D01*
X0102309Y0030618D01*
X0102200Y0030211D01*
X0102200Y0018100D01*
X0106450Y0018100D01*
X0106450Y0016900D01*
X0102200Y0016900D01*
X0102200Y0013000D01*
X0101900Y0013000D01*
X0101900Y0016900D01*
X0097650Y0016900D01*
X0097650Y0018100D01*
X0096450Y0018100D01*
X0096450Y0031600D01*
X0094300Y0031600D01*
X0094300Y0032566D02*
X0119300Y0032566D01*
X0094300Y0032566D01*
X0094300Y0033764D02*
X0119300Y0033764D01*
X0094300Y0033764D01*
X0094300Y0034963D02*
X0119300Y0034963D01*
X0094300Y0034963D01*
X0095461Y0036161D02*
X0118139Y0036161D01*
X0095461Y0036161D01*
X0096660Y0037360D02*
X0116940Y0037360D01*
X0096660Y0037360D01*
X0089139Y0036161D02*
X0065461Y0036161D01*
X0066660Y0037360D02*
X0087940Y0037360D01*
X0096450Y0031367D02*
X0097650Y0031367D01*
X0097650Y0031600D02*
X0097650Y0018100D01*
X0101900Y0018100D01*
X0101900Y0030211D01*
X0101791Y0030618D01*
X0101580Y0030982D01*
X0101282Y0031280D01*
X0100918Y0031491D01*
X0100511Y0031600D01*
X0097650Y0031600D01*
X0097650Y0030169D02*
X0096450Y0030169D01*
X0096450Y0028970D02*
X0097650Y0028970D01*
X0097650Y0027772D02*
X0096450Y0027772D01*
X0096450Y0026573D02*
X0097650Y0026573D01*
X0097650Y0025375D02*
X0096450Y0025375D01*
X0096450Y0024176D02*
X0097650Y0024176D01*
X0097650Y0022978D02*
X0096450Y0022978D01*
X0096450Y0021779D02*
X0097650Y0021779D01*
X0097650Y0020581D02*
X0096450Y0020581D01*
X0096450Y0019382D02*
X0097650Y0019382D01*
X0097650Y0018184D02*
X0096450Y0018184D01*
X0097650Y0016985D02*
X0106450Y0016985D01*
X0106450Y0018184D02*
X0107650Y0018184D01*
X0107650Y0018100D02*
X0107650Y0031600D01*
X0110511Y0031600D01*
X0110918Y0031491D01*
X0111282Y0031280D01*
X0111580Y0030982D01*
X0111791Y0030618D01*
X0111900Y0030211D01*
X0111900Y0018100D01*
X0107650Y0018100D01*
X0107650Y0016985D02*
X0116450Y0016985D01*
X0116450Y0018184D02*
X0117650Y0018184D01*
X0117650Y0019382D02*
X0116450Y0019382D01*
X0116450Y0020581D02*
X0117650Y0020581D01*
X0117650Y0021779D02*
X0116450Y0021779D01*
X0116450Y0022978D02*
X0117650Y0022978D01*
X0117650Y0024176D02*
X0116450Y0024176D01*
X0116450Y0025375D02*
X0117650Y0025375D01*
X0117650Y0026573D02*
X0116450Y0026573D01*
X0116450Y0027772D02*
X0117650Y0027772D01*
X0117650Y0028970D02*
X0116450Y0028970D01*
X0116450Y0030169D02*
X0117650Y0030169D01*
X0117650Y0031367D02*
X0116450Y0031367D01*
X0112968Y0031367D02*
X0111132Y0031367D01*
X0111900Y0030169D02*
X0112200Y0030169D01*
X0112200Y0028970D02*
X0111900Y0028970D01*
X0111900Y0027772D02*
X0112200Y0027772D01*
X0112200Y0026573D02*
X0111900Y0026573D01*
X0111900Y0025375D02*
X0112200Y0025375D01*
X0112200Y0024176D02*
X0111900Y0024176D01*
X0111900Y0022978D02*
X0112200Y0022978D01*
X0112200Y0021779D02*
X0111900Y0021779D01*
X0111900Y0020581D02*
X0112200Y0020581D01*
X0112200Y0019382D02*
X0111900Y0019382D01*
X0111900Y0018184D02*
X0112200Y0018184D01*
X0112200Y0015787D02*
X0111900Y0015787D01*
X0111900Y0014588D02*
X0112200Y0014588D01*
X0112200Y0013390D02*
X0111900Y0013390D01*
X0107650Y0019382D02*
X0106450Y0019382D01*
X0106450Y0020581D02*
X0107650Y0020581D01*
X0107650Y0021779D02*
X0106450Y0021779D01*
X0106450Y0022978D02*
X0107650Y0022978D01*
X0107650Y0024176D02*
X0106450Y0024176D01*
X0106450Y0025375D02*
X0107650Y0025375D01*
X0107650Y0026573D02*
X0106450Y0026573D01*
X0106450Y0027772D02*
X0107650Y0027772D01*
X0107650Y0028970D02*
X0106450Y0028970D01*
X0106450Y0030169D02*
X0107650Y0030169D01*
X0107650Y0031367D02*
X0106450Y0031367D01*
X0102968Y0031367D02*
X0101132Y0031367D01*
X0101900Y0030169D02*
X0102200Y0030169D01*
X0102200Y0028970D02*
X0101900Y0028970D01*
X0101900Y0027772D02*
X0102200Y0027772D01*
X0102200Y0026573D02*
X0101900Y0026573D01*
X0101900Y0025375D02*
X0102200Y0025375D01*
X0102200Y0024176D02*
X0101900Y0024176D01*
X0101900Y0022978D02*
X0102200Y0022978D01*
X0102200Y0021779D02*
X0101900Y0021779D01*
X0101900Y0020581D02*
X0102200Y0020581D01*
X0102200Y0019382D02*
X0101900Y0019382D01*
X0101900Y0018184D02*
X0102200Y0018184D01*
X0102200Y0015787D02*
X0101900Y0015787D01*
X0101900Y0014588D02*
X0102200Y0014588D01*
X0102200Y0013390D02*
X0101900Y0013390D01*
D27*
X0106300Y0033307D02*
X0107300Y0060000D01*
X0153300Y0107000D01*
X0153300Y0156000D01*
X0183300Y0185000D01*
X0074000Y0032800D02*
X0077050Y0029750D01*
X0077050Y0017500D01*
X0074000Y0024450D02*
X0074000Y0032800D01*
X0074000Y0024450D02*
X0067050Y0017500D01*
D28*
X0076900Y0034900D03*
X0106800Y0034300D03*
D29*
X0183300Y0073300D03*
M02*
