G75*
%MOIN*%
%OFA0B0*%
%FSLAX25Y25*%
%IPPOS*%
%LPD*%
%AMOC8*
5,1,8,0,0,1.08239X$1,22.5*
%
%ADD10C,0.13650*%
%ADD11R,0.07300X0.25800*%
%ADD12OC8,0.14580*%
%ADD13R,0.14580X0.14580*%
%ADD14C,0.12611*%
%ADD15R,0.09800X0.09800*%
%ADD16R,0.12800X0.12800*%
%ADD17R,0.05131X0.05131*%
%ADD18OC8,0.06000*%
%ADD19C,0.05800*%
%ADD20R,0.05800X0.05800*%
%ADD21R,0.03359X0.07690*%
%ADD22R,0.07690X0.03359*%
%ADD23R,0.07808X0.02808*%
%ADD24R,0.09816X0.10800*%
%ADD25R,0.02178X0.04343*%
%ADD26OC8,0.10800*%
%ADD27R,0.10800X0.10800*%
%ADD28OC8,0.08800*%
%ADD29R,0.08800X0.08800*%
%ADD30C,0.06000*%
%ADD31C,0.03778*%
%ADD32C,0.04959*%
%ADD33C,0.04369*%
D10*
X0013800Y0392500D03*
X0388800Y0392500D03*
D11*
X0067050Y0017500D03*
X0077050Y0017500D03*
X0087050Y0017500D03*
X0097050Y0017500D03*
X0107050Y0017500D03*
X0117050Y0017500D03*
X0127050Y0017500D03*
X0137050Y0017500D03*
X0147050Y0017500D03*
X0157050Y0017500D03*
X0167050Y0017500D03*
X0177050Y0017500D03*
X0187050Y0017500D03*
X0197050Y0017500D03*
X0207050Y0017500D03*
X0217050Y0017500D03*
X0227050Y0017500D03*
X0237050Y0017500D03*
X0247050Y0017500D03*
X0257050Y0017500D03*
X0267050Y0017500D03*
X0277050Y0017500D03*
X0287050Y0017500D03*
X0297050Y0017500D03*
X0307050Y0017500D03*
X0317050Y0017500D03*
X0327050Y0017500D03*
X0337050Y0017500D03*
D12*
X0079000Y0129002D03*
X0079000Y0145502D03*
X0079000Y0162002D03*
X0057300Y0162002D03*
X0057300Y0145502D03*
D13*
X0057300Y0129002D03*
D14*
X0028560Y0129002D03*
X0028560Y0162002D03*
X0372540Y0287600D03*
X0372740Y0320100D03*
X0378308Y0244252D03*
X0378308Y0225748D03*
D15*
X0288300Y0260500D03*
X0288300Y0275500D03*
X0288300Y0290500D03*
X0088300Y0275500D03*
X0088300Y0245500D03*
X0088300Y0305500D03*
D16*
X0288300Y0305500D03*
X0288300Y0245500D03*
D17*
X0338363Y0389000D03*
X0346237Y0389000D03*
X0223237Y0389000D03*
X0215363Y0389000D03*
X0060237Y0389000D03*
X0052363Y0389000D03*
D18*
X0060300Y0363000D03*
X0030300Y0363000D03*
X0195300Y0362000D03*
X0225300Y0362000D03*
X0315300Y0364000D03*
X0345300Y0364000D03*
X0341300Y0205000D03*
X0341300Y0175000D03*
X0351300Y0175000D03*
X0381300Y0175000D03*
X0283300Y0172000D03*
X0271300Y0172000D03*
X0271300Y0142000D03*
X0283300Y0142000D03*
X0257300Y0101000D03*
X0246300Y0101000D03*
X0230300Y0101000D03*
X0220300Y0101000D03*
X0220300Y0071000D03*
X0230300Y0071000D03*
X0246300Y0071000D03*
X0257300Y0071000D03*
X0170300Y0102000D03*
X0160300Y0102000D03*
D19*
X0156300Y0389000D03*
X0126300Y0389000D03*
X0086300Y0389000D03*
X0196300Y0389000D03*
X0266300Y0389000D03*
X0306300Y0389000D03*
D20*
X0203300Y0185000D03*
X0183300Y0185000D03*
X0183300Y0125000D03*
X0203300Y0125000D03*
X0123300Y0125000D03*
X0113300Y0125000D03*
X0103300Y0125000D03*
X0113300Y0185000D03*
X0123300Y0185000D03*
D21*
X0314000Y0189053D03*
X0319000Y0189053D03*
X0324000Y0189053D03*
X0329000Y0189053D03*
X0329000Y0211100D03*
X0324000Y0211100D03*
X0319000Y0211100D03*
X0314000Y0211100D03*
D22*
X0149347Y0088000D03*
X0149347Y0083000D03*
X0149347Y0078000D03*
X0149347Y0073000D03*
X0127300Y0073000D03*
X0127300Y0078000D03*
X0127300Y0083000D03*
X0127300Y0088000D03*
D23*
X0280300Y0116000D03*
X0280300Y0121000D03*
X0280300Y0126000D03*
D24*
X0237288Y0121000D03*
D25*
X0286343Y0098319D03*
X0288902Y0098319D03*
X0291461Y0098319D03*
X0294020Y0098319D03*
X0296580Y0098319D03*
X0299139Y0098319D03*
X0301698Y0098319D03*
X0304257Y0098319D03*
X0304257Y0075681D03*
X0301698Y0075681D03*
X0299139Y0075681D03*
X0296580Y0075681D03*
X0294020Y0075681D03*
X0291461Y0075681D03*
X0288902Y0075681D03*
X0286343Y0075681D03*
D26*
X0322100Y0287600D03*
X0322300Y0320100D03*
D27*
X0344000Y0320100D03*
X0343800Y0287600D03*
D28*
X0349489Y0252717D03*
X0349489Y0240906D03*
X0361300Y0240906D03*
X0361300Y0229094D03*
X0361300Y0217283D03*
X0349489Y0217283D03*
X0349489Y0229094D03*
D29*
X0361300Y0252717D03*
D30*
X0249000Y0190700D02*
X0249000Y0185500D01*
X0239000Y0185500D02*
X0239000Y0190700D01*
X0229000Y0190700D02*
X0229000Y0185500D01*
D31*
X0270300Y0119000D03*
X0301300Y0110000D03*
X0304800Y0067500D03*
X0366300Y0170000D03*
X0306300Y0190000D03*
X0161300Y0080000D03*
X0205300Y0389000D03*
X0115300Y0389000D03*
X0041300Y0389000D03*
X0321300Y0389000D03*
D32*
X0106800Y0034300D03*
X0076900Y0034900D03*
D33*
X0183300Y0073300D03*
M02*
