G75*
%MOIN*%
%OFA0B0*%
%FSLAX25Y25*%
%IPPOS*%
%LPD*%
%AMOC8*
5,1,8,0,0,1.08239X$1,22.5*
%
%ADD10R,0.06500X0.25000*%
%ADD11R,0.04331X0.04331*%
%ADD12R,0.02559X0.06890*%
%ADD13R,0.06890X0.02559*%
%ADD14R,0.07008X0.02008*%
%ADD15R,0.09016X0.10000*%
%ADD16R,0.01378X0.03543*%
D10*
X0067050Y0017500D03*
X0077050Y0017500D03*
X0087050Y0017500D03*
X0097050Y0017500D03*
X0107050Y0017500D03*
X0117050Y0017500D03*
X0127050Y0017500D03*
X0137050Y0017500D03*
X0147050Y0017500D03*
X0157050Y0017500D03*
X0167050Y0017500D03*
X0177050Y0017500D03*
X0187050Y0017500D03*
X0197050Y0017500D03*
X0207050Y0017500D03*
X0217050Y0017500D03*
X0227050Y0017500D03*
X0237050Y0017500D03*
X0247050Y0017500D03*
X0257050Y0017500D03*
X0267050Y0017500D03*
X0277050Y0017500D03*
X0287050Y0017500D03*
X0297050Y0017500D03*
X0307050Y0017500D03*
X0317050Y0017500D03*
X0327050Y0017500D03*
X0337050Y0017500D03*
D11*
X0338363Y0389000D03*
X0346237Y0389000D03*
X0223237Y0389000D03*
X0215363Y0389000D03*
X0060237Y0389000D03*
X0052363Y0389000D03*
D12*
X0314000Y0211100D03*
X0319000Y0211100D03*
X0324000Y0211100D03*
X0329000Y0211100D03*
X0329000Y0189053D03*
X0324000Y0189053D03*
X0319000Y0189053D03*
X0314000Y0189053D03*
D13*
X0149347Y0088000D03*
X0149347Y0083000D03*
X0149347Y0078000D03*
X0149347Y0073000D03*
X0127300Y0073000D03*
X0127300Y0078000D03*
X0127300Y0083000D03*
X0127300Y0088000D03*
D14*
X0280300Y0116000D03*
X0280300Y0121000D03*
X0280300Y0126000D03*
D15*
X0237288Y0121000D03*
D16*
X0286343Y0098319D03*
X0288902Y0098319D03*
X0291461Y0098319D03*
X0294020Y0098319D03*
X0296580Y0098319D03*
X0299139Y0098319D03*
X0301698Y0098319D03*
X0304257Y0098319D03*
X0304257Y0075681D03*
X0301698Y0075681D03*
X0299139Y0075681D03*
X0296580Y0075681D03*
X0294020Y0075681D03*
X0291461Y0075681D03*
X0288902Y0075681D03*
X0286343Y0075681D03*
M02*
