G75*
%MOIN*%
%OFA0B0*%
%FSLAX25Y25*%
%IPPOS*%
%LPD*%
%AMOC8*
5,1,8,0,0,1.08239X$1,22.5*
%
%ADD10C,0.13650*%
%ADD11R,0.06737X0.06737*%
%ADD12C,0.06737*%
%ADD13OC8,0.07100*%
%ADD14OC8,0.06000*%
%ADD15C,0.06000*%
%ADD16C,0.06619*%
%ADD17C,0.10800*%
%ADD18C,0.15800*%
%ADD19R,0.06700X0.06700*%
%ADD20C,0.06700*%
%ADD21C,0.05800*%
%ADD22C,0.11430*%
%ADD23C,0.12611*%
%ADD24C,0.07250*%
%ADD25C,0.14186*%
%ADD26R,0.05524X0.06312*%
%ADD27R,0.04737X0.05131*%
%ADD28R,0.05131X0.04737*%
%ADD29R,0.07300X0.25800*%
%ADD30R,0.03162X0.06902*%
%ADD31C,0.06000*%
%ADD32C,0.03778*%
%ADD33C,0.04565*%
D10*
X0034228Y0421433D03*
X0409228Y0421433D03*
D11*
X0096374Y0197683D03*
X0096374Y0103933D03*
D12*
X0106374Y0103933D03*
X0116374Y0103933D03*
X0116374Y0163933D03*
X0106374Y0163933D03*
X0106374Y0197683D03*
X0116374Y0197683D03*
X0176374Y0197683D03*
X0196374Y0197683D03*
X0196374Y0163933D03*
X0176374Y0163933D03*
X0176374Y0103933D03*
X0196374Y0103933D03*
X0196374Y0257683D03*
X0176374Y0257683D03*
X0116374Y0257683D03*
X0106374Y0257683D03*
D13*
X0196728Y0316433D03*
X0196728Y0326433D03*
X0231103Y0335183D03*
X0231103Y0345183D03*
X0256103Y0342058D03*
X0256103Y0332058D03*
X0256228Y0319183D03*
X0256228Y0309183D03*
X0229853Y0258933D03*
X0219853Y0258933D03*
X0221728Y0220183D03*
X0221728Y0210183D03*
X0234228Y0188933D03*
X0234228Y0178933D03*
X0229228Y0152683D03*
X0239228Y0152683D03*
X0254228Y0152683D03*
X0264228Y0152683D03*
X0279228Y0162058D03*
X0289228Y0162058D03*
X0304228Y0168308D03*
X0314228Y0168308D03*
X0314228Y0149558D03*
X0304228Y0149558D03*
X0274853Y0175808D03*
X0274853Y0185808D03*
X0259228Y0232058D03*
X0259228Y0242058D03*
X0271728Y0132683D03*
X0271728Y0122683D03*
X0352978Y0123308D03*
X0352978Y0113308D03*
D14*
X0259228Y0168933D03*
X0246728Y0168933D03*
X0240478Y0142683D03*
X0252978Y0142683D03*
X0224853Y0120808D03*
X0240478Y0112683D03*
X0252978Y0112683D03*
X0224853Y0090808D03*
X0212978Y0177683D03*
X0192978Y0177683D03*
X0234228Y0212683D03*
X0246728Y0212683D03*
X0246728Y0198933D03*
X0259228Y0198933D03*
X0246728Y0242683D03*
X0234228Y0242683D03*
X0202978Y0275183D03*
X0190478Y0275183D03*
X0190478Y0305183D03*
X0202978Y0305183D03*
X0215478Y0311433D03*
X0227728Y0316683D03*
X0240478Y0317683D03*
X0215478Y0331433D03*
X0240478Y0287683D03*
X0227728Y0286683D03*
D15*
X0309853Y0135908D02*
X0309853Y0130708D01*
X0319853Y0130708D02*
X0319853Y0135908D01*
X0329853Y0135908D02*
X0329853Y0130708D01*
X0339853Y0130708D02*
X0339853Y0135908D01*
X0339853Y0105908D02*
X0339853Y0100708D01*
X0329853Y0100708D02*
X0329853Y0105908D01*
X0319853Y0105908D02*
X0319853Y0100708D01*
X0309853Y0100708D02*
X0309853Y0105908D01*
D16*
X0363069Y0112683D02*
X0368888Y0112683D01*
X0368888Y0122683D02*
X0363069Y0122683D01*
X0363069Y0132683D02*
X0368888Y0132683D01*
X0368888Y0142683D02*
X0363069Y0142683D01*
X0363069Y0152683D02*
X0368888Y0152683D01*
X0368888Y0162683D02*
X0363069Y0162683D01*
X0363069Y0172683D02*
X0368888Y0172683D01*
X0368888Y0182683D02*
X0363069Y0182683D01*
X0393069Y0182683D02*
X0398888Y0182683D01*
X0398888Y0172683D02*
X0393069Y0172683D01*
X0393069Y0162683D02*
X0398888Y0162683D01*
X0398888Y0152683D02*
X0393069Y0152683D01*
X0393069Y0142683D02*
X0398888Y0142683D01*
X0398888Y0132683D02*
X0393069Y0132683D01*
X0393069Y0122683D02*
X0398888Y0122683D01*
X0398888Y0112683D02*
X0393069Y0112683D01*
D17*
X0299228Y0307683D03*
X0299228Y0322683D03*
X0299228Y0337683D03*
X0099228Y0322683D03*
X0099228Y0292683D03*
X0099228Y0352683D03*
D18*
X0299228Y0352683D03*
X0299228Y0292683D03*
D19*
X0356728Y0232683D03*
D20*
X0346728Y0232683D03*
X0336728Y0232683D03*
X0326728Y0232683D03*
X0316728Y0232683D03*
X0306728Y0232683D03*
X0296728Y0232683D03*
X0296728Y0202683D03*
X0306728Y0202683D03*
X0316728Y0202683D03*
X0326728Y0202683D03*
X0336728Y0202683D03*
X0346728Y0202683D03*
X0356728Y0202683D03*
D21*
X0309228Y0421433D03*
X0293603Y0421433D03*
X0277978Y0421433D03*
X0262353Y0421433D03*
X0246728Y0421433D03*
X0231103Y0421433D03*
X0215478Y0421433D03*
X0199853Y0421433D03*
X0184228Y0421433D03*
D22*
X0097122Y0390183D03*
X0075469Y0390183D03*
X0340085Y0329701D03*
X0340085Y0313165D03*
X0361738Y0313165D03*
X0361738Y0329701D03*
D23*
X0390478Y0321433D03*
X0046728Y0390183D03*
D24*
X0074478Y0130183D03*
X0074478Y0120183D03*
X0074478Y0110183D03*
X0074478Y0100183D03*
D25*
X0040478Y0094683D03*
X0040478Y0135683D03*
D26*
X0184573Y0396433D03*
X0196384Y0396433D03*
X0162009Y0415183D03*
X0150198Y0415183D03*
X0096384Y0421433D03*
X0084573Y0421433D03*
X0240823Y0396433D03*
X0252634Y0396433D03*
X0315823Y0396433D03*
X0327634Y0396433D03*
X0337698Y0408933D03*
X0337698Y0418308D03*
X0349509Y0418308D03*
X0349509Y0408933D03*
D27*
X0149853Y0402905D03*
X0149853Y0396212D03*
X0084228Y0405587D03*
X0084228Y0412280D03*
X0299853Y0121655D03*
X0299853Y0114962D03*
D28*
X0324632Y0165183D03*
X0331325Y0165183D03*
X0331325Y0174558D03*
X0324632Y0174558D03*
X0306325Y0396433D03*
X0299632Y0396433D03*
X0359007Y0408933D03*
X0365700Y0408933D03*
X0365700Y0418308D03*
X0359007Y0418308D03*
X0231325Y0396433D03*
X0224632Y0396433D03*
X0175075Y0396433D03*
X0168382Y0396433D03*
D29*
X0087478Y0046433D03*
X0097478Y0046433D03*
X0107478Y0046433D03*
X0117478Y0046433D03*
X0127478Y0046433D03*
X0137478Y0046433D03*
X0147478Y0046433D03*
X0157478Y0046433D03*
X0167478Y0046433D03*
X0177478Y0046433D03*
X0187478Y0046433D03*
X0197478Y0046433D03*
X0207478Y0046433D03*
X0217478Y0046433D03*
X0227478Y0046433D03*
X0237478Y0046433D03*
X0247478Y0046433D03*
X0257478Y0046433D03*
X0267478Y0046433D03*
X0277478Y0046433D03*
X0287478Y0046433D03*
X0297478Y0046433D03*
X0307478Y0046433D03*
X0317478Y0046433D03*
X0327478Y0046433D03*
X0337478Y0046433D03*
X0347478Y0046433D03*
X0357478Y0046433D03*
D30*
X0355557Y0170065D03*
X0350596Y0170065D03*
X0345557Y0170065D03*
X0340557Y0170065D03*
X0340557Y0191285D03*
X0345557Y0191285D03*
X0350596Y0191285D03*
X0355557Y0191325D03*
D31*
X0312478Y0187058D03*
X0293478Y0187058D03*
D32*
X0271728Y0202683D03*
X0318603Y0158933D03*
X0352978Y0183933D03*
X0340478Y0240183D03*
X0277978Y0296433D03*
X0276728Y0304683D03*
X0265478Y0290183D03*
X0259228Y0290183D03*
X0284228Y0324558D03*
X0280728Y0339683D03*
X0259228Y0396433D03*
X0215478Y0346433D03*
X0202978Y0396433D03*
X0168603Y0415183D03*
X0102978Y0421433D03*
X0146728Y0280808D03*
X0140478Y0246433D03*
X0140478Y0227683D03*
X0181103Y0202683D03*
X0190478Y0202683D03*
X0196728Y0221433D03*
X0184228Y0240183D03*
X0202978Y0149558D03*
X0196728Y0133933D03*
X0224228Y0090183D03*
X0227353Y0090808D03*
X0202978Y0083933D03*
X0177978Y0083933D03*
X0168603Y0090183D03*
X0140478Y0115183D03*
X0246728Y0071433D03*
X0265478Y0065183D03*
X0343603Y0083933D03*
X0352978Y0071433D03*
X0371728Y0093933D03*
X0406103Y0296433D03*
X0409228Y0327683D03*
X0340478Y0346433D03*
X0340478Y0358933D03*
X0331103Y0408933D03*
X0331103Y0418308D03*
X0371728Y0418308D03*
X0371728Y0408933D03*
D33*
X0165478Y0246433D03*
X0115478Y0077683D03*
M02*
