%
M48
M72
T01C0.01969
T02C0.04000
T03C0.05600
T04C0.09400
T05C0.11811
T06C0.12850
%
T01
X188500Y120000
X188500Y257500
T02
X123500Y70000
X123500Y100000
X123500Y127500
X123500Y157500
X158000Y155000
X169000Y155000
X123500Y195000
X123500Y225000
X123500Y245000
X123500Y275000
X298500Y142500
X298500Y117500
X328500Y117500
X328500Y142500
T03
X323500Y213500
X323500Y230000
X323500Y246500
X301800Y246500
X301800Y230000
X301800Y213500
X95200Y191500
X95200Y175000
X95200Y158500
X73500Y158500
X73500Y175000
X73500Y191500
X73500Y276000
X73500Y292500
X73500Y309000
X95200Y309000
X95200Y292500
X95200Y276000
T04
X187000Y317500
X208500Y317500
X230000Y317500
X230000Y192500
X208500Y192500
X187000Y192500
T05
X44760Y191500
X44760Y158500
X44760Y276000
X44760Y309000
X352240Y246500
X352240Y213500
T06
X388500Y392500
X13500Y392500
M30
