G75*
%MOIN*%
%OFA0B0*%
%FSLAX25Y25*%
%IPPOS*%
%LPD*%
%AMOC8*
5,1,8,0,0,1.08239X$1,22.5*
%
%ADD10C,0.13650*%
%ADD11C,0.15800*%
%ADD12R,0.07300X0.25800*%
%ADD13OC8,0.10800*%
%ADD14R,0.10800X0.10800*%
%ADD15C,0.12611*%
%ADD16C,0.00500*%
%ADD17C,0.04369*%
D10*
X0013500Y0392500D03*
X0388500Y0392500D03*
D11*
X0230000Y0317500D03*
X0208500Y0317500D03*
X0187000Y0317500D03*
X0187000Y0192500D03*
X0208500Y0192500D03*
X0230000Y0192500D03*
D12*
X0066750Y0017500D03*
X0076750Y0017500D03*
X0086750Y0017500D03*
X0096750Y0017500D03*
X0106750Y0017500D03*
X0116750Y0017500D03*
X0126750Y0017500D03*
X0136750Y0017500D03*
X0146750Y0017500D03*
X0156750Y0017500D03*
X0166750Y0017500D03*
X0176750Y0017500D03*
X0186750Y0017500D03*
X0196750Y0017500D03*
X0206750Y0017500D03*
X0216750Y0017500D03*
X0226750Y0017500D03*
X0236750Y0017500D03*
X0246750Y0017500D03*
X0256750Y0017500D03*
X0266750Y0017500D03*
X0276750Y0017500D03*
X0286750Y0017500D03*
X0296750Y0017500D03*
X0306750Y0017500D03*
X0316750Y0017500D03*
X0326750Y0017500D03*
X0336750Y0017500D03*
D13*
X0323500Y0213500D03*
X0323500Y0230000D03*
X0301800Y0230000D03*
X0301800Y0213500D03*
X0301800Y0246500D03*
X0095200Y0276000D03*
X0095200Y0292500D03*
X0095200Y0309000D03*
X0073500Y0309000D03*
X0073500Y0292500D03*
X0073500Y0191500D03*
X0073500Y0175000D03*
X0095200Y0175000D03*
X0095200Y0158500D03*
X0095200Y0191500D03*
D14*
X0073500Y0158500D03*
X0073500Y0276000D03*
X0323500Y0246500D03*
D15*
X0352240Y0246500D03*
X0352240Y0213500D03*
X0044760Y0191500D03*
X0044760Y0158500D03*
X0044760Y0276000D03*
X0044760Y0309000D03*
D16*
X0119967Y0276325D02*
X0119787Y0275688D01*
X0119720Y0275030D01*
X0119785Y0274372D01*
X0119964Y0273735D01*
X0120251Y0273138D01*
X0120637Y0272601D01*
X0121110Y0272139D01*
X0121656Y0271766D01*
X0122259Y0271494D01*
X0122900Y0271330D01*
X0123560Y0271280D01*
X0124283Y0271361D01*
X0124976Y0271582D01*
X0125613Y0271933D01*
X0126169Y0272402D01*
X0126622Y0272970D01*
X0126957Y0273616D01*
X0127158Y0274315D01*
X0127220Y0275040D01*
X0127157Y0275761D01*
X0126955Y0276455D01*
X0126621Y0277097D01*
X0126168Y0277661D01*
X0125614Y0278126D01*
X0124979Y0278474D01*
X0124289Y0278691D01*
X0123570Y0278770D01*
X0122910Y0278722D01*
X0122269Y0278560D01*
X0121665Y0278289D01*
X0121118Y0277918D01*
X0120643Y0277457D01*
X0120256Y0276920D01*
X0119967Y0276325D01*
X0119929Y0276190D02*
X0127032Y0276190D01*
X0127163Y0275692D02*
X0119788Y0275692D01*
X0119736Y0275193D02*
X0127207Y0275193D01*
X0127191Y0274695D02*
X0119753Y0274695D01*
X0119834Y0274196D02*
X0127124Y0274196D01*
X0126980Y0273698D02*
X0119982Y0273698D01*
X0120221Y0273199D02*
X0126741Y0273199D01*
X0126407Y0272701D02*
X0120565Y0272701D01*
X0121045Y0272202D02*
X0125932Y0272202D01*
X0125197Y0271704D02*
X0121794Y0271704D01*
X0120144Y0276689D02*
X0126833Y0276689D01*
X0126548Y0277187D02*
X0120448Y0277187D01*
X0120879Y0277686D02*
X0126139Y0277686D01*
X0125508Y0278184D02*
X0121510Y0278184D01*
X0122755Y0278683D02*
X0124317Y0278683D01*
X0123600Y0248740D02*
X0124319Y0248662D01*
X0125009Y0248444D01*
X0125644Y0248096D01*
X0126198Y0247631D01*
X0126651Y0247067D01*
X0126985Y0246425D01*
X0127187Y0245731D01*
X0127250Y0245010D01*
X0127188Y0244285D01*
X0126987Y0243586D01*
X0126652Y0242940D01*
X0126198Y0242372D01*
X0125642Y0241903D01*
X0125006Y0241552D01*
X0124313Y0241331D01*
X0123590Y0241250D01*
X0122930Y0241300D01*
X0122289Y0241464D01*
X0121686Y0241736D01*
X0121140Y0242109D01*
X0120666Y0242571D01*
X0120281Y0243109D01*
X0119994Y0243705D01*
X0119815Y0244342D01*
X0119750Y0245000D01*
X0119817Y0245658D01*
X0119997Y0246295D01*
X0120286Y0246890D01*
X0120673Y0247427D01*
X0121148Y0247888D01*
X0121695Y0248259D01*
X0122299Y0248530D01*
X0122940Y0248692D01*
X0123600Y0248740D01*
X0125320Y0248274D02*
X0121727Y0248274D01*
X0121032Y0247775D02*
X0126026Y0247775D01*
X0126482Y0247277D02*
X0120565Y0247277D01*
X0120231Y0246778D02*
X0126801Y0246778D01*
X0127027Y0246279D02*
X0119993Y0246279D01*
X0119852Y0245781D02*
X0127172Y0245781D01*
X0127226Y0245282D02*
X0119778Y0245282D01*
X0119771Y0244784D02*
X0127231Y0244784D01*
X0127188Y0244285D02*
X0119831Y0244285D01*
X0119971Y0243787D02*
X0127045Y0243787D01*
X0126832Y0243288D02*
X0120194Y0243288D01*
X0120509Y0242790D02*
X0126532Y0242790D01*
X0126103Y0242291D02*
X0120953Y0242291D01*
X0121603Y0241793D02*
X0125443Y0241793D01*
X0123982Y0241294D02*
X0123006Y0241294D01*
X0123570Y0228770D02*
X0124289Y0228691D01*
X0124979Y0228474D01*
X0125614Y0228126D01*
X0126168Y0227661D01*
X0126621Y0227097D01*
X0126955Y0226455D01*
X0127157Y0225761D01*
X0127220Y0225040D01*
X0127158Y0224315D01*
X0126957Y0223616D01*
X0126622Y0222970D01*
X0126169Y0222402D01*
X0125613Y0221933D01*
X0124976Y0221582D01*
X0124283Y0221361D01*
X0123560Y0221280D01*
X0122900Y0221330D01*
X0122259Y0221494D01*
X0121656Y0221766D01*
X0121110Y0222139D01*
X0120637Y0222601D01*
X0120251Y0223138D01*
X0119964Y0223735D01*
X0119785Y0224372D01*
X0119720Y0225030D01*
X0119787Y0225688D01*
X0119967Y0226325D01*
X0120256Y0226920D01*
X0120643Y0227457D01*
X0121118Y0227918D01*
X0121665Y0228289D01*
X0122269Y0228560D01*
X0122910Y0228722D01*
X0123570Y0228770D01*
X0125236Y0228333D02*
X0121763Y0228333D01*
X0121032Y0227835D02*
X0125961Y0227835D01*
X0126429Y0227336D02*
X0120556Y0227336D01*
X0120216Y0226838D02*
X0126756Y0226838D01*
X0126989Y0226339D02*
X0119974Y0226339D01*
X0119830Y0225841D02*
X0127134Y0225841D01*
X0127194Y0225342D02*
X0119752Y0225342D01*
X0119738Y0224843D02*
X0127203Y0224843D01*
X0127161Y0224345D02*
X0119793Y0224345D01*
X0119933Y0223846D02*
X0127023Y0223846D01*
X0126818Y0223348D02*
X0120150Y0223348D01*
X0120458Y0222849D02*
X0126526Y0222849D01*
X0126108Y0222351D02*
X0120893Y0222351D01*
X0121530Y0221852D02*
X0125466Y0221852D01*
X0124217Y0221354D02*
X0122807Y0221354D01*
X0123600Y0198740D02*
X0124319Y0198662D01*
X0125009Y0198444D01*
X0125644Y0198096D01*
X0126198Y0197631D01*
X0126651Y0197067D01*
X0126985Y0196425D01*
X0127187Y0195731D01*
X0127250Y0195010D01*
X0127188Y0194285D01*
X0126987Y0193586D01*
X0126652Y0192940D01*
X0126198Y0192372D01*
X0125642Y0191903D01*
X0125006Y0191552D01*
X0124313Y0191331D01*
X0123590Y0191250D01*
X0122930Y0191300D01*
X0122289Y0191464D01*
X0121686Y0191736D01*
X0121140Y0192109D01*
X0120666Y0192571D01*
X0120281Y0193109D01*
X0119994Y0193705D01*
X0119815Y0194342D01*
X0119750Y0195000D01*
X0119817Y0195658D01*
X0119997Y0196295D01*
X0120286Y0196890D01*
X0120673Y0197427D01*
X0121148Y0197888D01*
X0121695Y0198259D01*
X0122299Y0198530D01*
X0122940Y0198692D01*
X0123600Y0198740D01*
X0125049Y0198422D02*
X0122059Y0198422D01*
X0121201Y0197924D02*
X0125849Y0197924D01*
X0126363Y0197425D02*
X0120672Y0197425D01*
X0120312Y0196927D02*
X0126724Y0196927D01*
X0126983Y0196428D02*
X0120062Y0196428D01*
X0119894Y0195930D02*
X0127129Y0195930D01*
X0127213Y0195431D02*
X0119794Y0195431D01*
X0119756Y0194933D02*
X0127243Y0194933D01*
X0127201Y0194434D02*
X0119806Y0194434D01*
X0119929Y0193936D02*
X0127088Y0193936D01*
X0126909Y0193437D02*
X0120122Y0193437D01*
X0120402Y0192939D02*
X0126651Y0192939D01*
X0126253Y0192440D02*
X0120801Y0192440D01*
X0121385Y0191942D02*
X0125688Y0191942D01*
X0124664Y0191443D02*
X0122369Y0191443D01*
X0123570Y0161270D02*
X0124289Y0161191D01*
X0124979Y0160974D01*
X0125614Y0160626D01*
X0126168Y0160161D01*
X0126621Y0159597D01*
X0126955Y0158955D01*
X0127157Y0158261D01*
X0127220Y0157540D01*
X0127158Y0156815D01*
X0126957Y0156116D01*
X0126622Y0155470D01*
X0126169Y0154902D01*
X0125613Y0154433D01*
X0124976Y0154082D01*
X0124283Y0153861D01*
X0123560Y0153780D01*
X0122900Y0153830D01*
X0122259Y0153994D01*
X0121656Y0154266D01*
X0121110Y0154639D01*
X0120637Y0155101D01*
X0120251Y0155638D01*
X0119964Y0156235D01*
X0119785Y0156872D01*
X0119720Y0157530D01*
X0119787Y0158188D01*
X0119967Y0158825D01*
X0120256Y0159420D01*
X0120643Y0159957D01*
X0121118Y0160418D01*
X0121665Y0160789D01*
X0122269Y0161060D01*
X0122910Y0161222D01*
X0123570Y0161270D01*
X0124789Y0161034D02*
X0122211Y0161034D01*
X0121291Y0160536D02*
X0125722Y0160536D01*
X0126267Y0160037D02*
X0120726Y0160037D01*
X0120341Y0159539D02*
X0126651Y0159539D01*
X0126911Y0159040D02*
X0120072Y0159040D01*
X0119887Y0158541D02*
X0127075Y0158541D01*
X0127176Y0158043D02*
X0119772Y0158043D01*
X0119721Y0157544D02*
X0127220Y0157544D01*
X0127178Y0157046D02*
X0119768Y0157046D01*
X0119876Y0156547D02*
X0127081Y0156547D01*
X0126922Y0156049D02*
X0120053Y0156049D01*
X0120314Y0155550D02*
X0126664Y0155550D01*
X0126288Y0155052D02*
X0120687Y0155052D01*
X0121235Y0154553D02*
X0125755Y0154553D01*
X0124891Y0154055D02*
X0122123Y0154055D01*
X0123600Y0131240D02*
X0124319Y0131162D01*
X0125009Y0130944D01*
X0125644Y0130596D01*
X0126198Y0130131D01*
X0126651Y0129567D01*
X0126985Y0128925D01*
X0127187Y0128231D01*
X0127250Y0127510D01*
X0127188Y0126785D01*
X0126987Y0126086D01*
X0126652Y0125440D01*
X0126198Y0124872D01*
X0125642Y0124403D01*
X0125006Y0124052D01*
X0124313Y0123831D01*
X0123590Y0123750D01*
X0122930Y0123800D01*
X0122289Y0123964D01*
X0121686Y0124236D01*
X0121140Y0124609D01*
X0120666Y0125071D01*
X0120281Y0125609D01*
X0119994Y0126205D01*
X0119815Y0126842D01*
X0119750Y0127500D01*
X0119817Y0128158D01*
X0119997Y0128795D01*
X0120286Y0129390D01*
X0120673Y0129927D01*
X0121148Y0130388D01*
X0121695Y0130759D01*
X0122299Y0131030D01*
X0122940Y0131192D01*
X0123600Y0131240D01*
X0124440Y0131123D02*
X0122668Y0131123D01*
X0121497Y0130625D02*
X0125591Y0130625D01*
X0126202Y0130126D02*
X0120879Y0130126D01*
X0120457Y0129628D02*
X0126602Y0129628D01*
X0126878Y0129129D02*
X0120159Y0129129D01*
X0119951Y0128631D02*
X0127070Y0128631D01*
X0127196Y0128132D02*
X0119814Y0128132D01*
X0119763Y0127634D02*
X0127239Y0127634D01*
X0127218Y0127135D02*
X0119786Y0127135D01*
X0119873Y0126637D02*
X0127146Y0126637D01*
X0127002Y0126138D02*
X0120026Y0126138D01*
X0120266Y0125640D02*
X0126755Y0125640D01*
X0126413Y0125141D02*
X0120616Y0125141D01*
X0121105Y0124643D02*
X0125927Y0124643D01*
X0125173Y0124144D02*
X0121889Y0124144D01*
X0123570Y0103770D02*
X0124289Y0103691D01*
X0124979Y0103474D01*
X0125614Y0103126D01*
X0126168Y0102661D01*
X0126621Y0102097D01*
X0126955Y0101455D01*
X0127157Y0100761D01*
X0127220Y0100040D01*
X0127158Y0099315D01*
X0126957Y0098616D01*
X0126622Y0097970D01*
X0126169Y0097402D01*
X0125613Y0096933D01*
X0124976Y0096582D01*
X0124283Y0096361D01*
X0123560Y0096280D01*
X0122900Y0096330D01*
X0122259Y0096494D01*
X0121656Y0096766D01*
X0121110Y0097139D01*
X0120637Y0097601D01*
X0120251Y0098138D01*
X0119964Y0098735D01*
X0119785Y0099372D01*
X0119720Y0100030D01*
X0119787Y0100688D01*
X0119967Y0101325D01*
X0120256Y0101920D01*
X0120643Y0102457D01*
X0121118Y0102918D01*
X0121665Y0103289D01*
X0122269Y0103560D01*
X0122910Y0103722D01*
X0123570Y0103770D01*
X0124163Y0103705D02*
X0122844Y0103705D01*
X0121544Y0103207D02*
X0125467Y0103207D01*
X0126112Y0102708D02*
X0120902Y0102708D01*
X0120465Y0102210D02*
X0126530Y0102210D01*
X0126821Y0101711D02*
X0120155Y0101711D01*
X0119936Y0101213D02*
X0127025Y0101213D01*
X0127161Y0100714D02*
X0119794Y0100714D01*
X0119739Y0100216D02*
X0127205Y0100216D01*
X0127193Y0099717D02*
X0119751Y0099717D01*
X0119828Y0099219D02*
X0127131Y0099219D01*
X0126987Y0098720D02*
X0119971Y0098720D01*
X0120211Y0098222D02*
X0126752Y0098222D01*
X0126425Y0097723D02*
X0120549Y0097723D01*
X0121022Y0097225D02*
X0125958Y0097225D01*
X0125237Y0096726D02*
X0121745Y0096726D01*
X0123600Y0073740D02*
X0124319Y0073662D01*
X0125009Y0073444D01*
X0125644Y0073096D01*
X0126198Y0072631D01*
X0126651Y0072067D01*
X0126985Y0071425D01*
X0127187Y0070731D01*
X0127250Y0070010D01*
X0127188Y0069285D01*
X0126987Y0068586D01*
X0126652Y0067940D01*
X0126198Y0067372D01*
X0125642Y0066903D01*
X0125006Y0066552D01*
X0124313Y0066331D01*
X0123590Y0066250D01*
X0122930Y0066300D01*
X0122289Y0066464D01*
X0121686Y0066736D01*
X0121140Y0067109D01*
X0120666Y0067571D01*
X0120281Y0068109D01*
X0119994Y0068705D01*
X0119815Y0069342D01*
X0119750Y0070000D01*
X0119817Y0070658D01*
X0119997Y0071295D01*
X0120286Y0071890D01*
X0120673Y0072427D01*
X0121148Y0072888D01*
X0121695Y0073259D01*
X0122299Y0073530D01*
X0122940Y0073692D01*
X0123600Y0073740D01*
X0125279Y0073296D02*
X0121777Y0073296D01*
X0121055Y0072798D02*
X0126000Y0072798D01*
X0126464Y0072299D02*
X0120581Y0072299D01*
X0120242Y0071801D02*
X0126789Y0071801D01*
X0127021Y0071302D02*
X0120001Y0071302D01*
X0119858Y0070803D02*
X0127166Y0070803D01*
X0127224Y0070305D02*
X0119781Y0070305D01*
X0119769Y0069806D02*
X0127233Y0069806D01*
X0127190Y0069308D02*
X0119825Y0069308D01*
X0119964Y0068809D02*
X0127051Y0068809D01*
X0126844Y0068311D02*
X0120183Y0068311D01*
X0120493Y0067812D02*
X0126550Y0067812D01*
X0126130Y0067314D02*
X0120930Y0067314D01*
X0121570Y0066815D02*
X0125483Y0066815D01*
X0124183Y0066317D02*
X0122864Y0066317D01*
X0156715Y0151478D02*
X0156120Y0151766D01*
X0155583Y0152153D01*
X0155122Y0152628D01*
X0154751Y0153175D01*
X0154480Y0153779D01*
X0154318Y0154420D01*
X0154270Y0155080D01*
X0154348Y0155800D01*
X0154566Y0156490D01*
X0154914Y0157124D01*
X0155379Y0157678D01*
X0155943Y0158131D01*
X0156585Y0158465D01*
X0157279Y0158667D01*
X0158000Y0158730D01*
X0158725Y0158669D01*
X0159423Y0158467D01*
X0160069Y0158133D01*
X0160638Y0157679D01*
X0161107Y0157123D01*
X0161458Y0156486D01*
X0161678Y0155793D01*
X0161759Y0155070D01*
X0161710Y0154410D01*
X0161546Y0153769D01*
X0161274Y0153166D01*
X0160901Y0152620D01*
X0160439Y0152147D01*
X0159901Y0151761D01*
X0159305Y0151474D01*
X0158668Y0151295D01*
X0158010Y0151230D01*
X0157352Y0151297D01*
X0156715Y0151478D01*
X0156540Y0151562D02*
X0159488Y0151562D01*
X0160319Y0152061D02*
X0155711Y0152061D01*
X0155189Y0152559D02*
X0160842Y0152559D01*
X0161200Y0153058D02*
X0154830Y0153058D01*
X0154580Y0153556D02*
X0161450Y0153556D01*
X0161619Y0154055D02*
X0154410Y0154055D01*
X0154308Y0154553D02*
X0161721Y0154553D01*
X0161758Y0155052D02*
X0154272Y0155052D01*
X0154321Y0155550D02*
X0161706Y0155550D01*
X0161597Y0156049D02*
X0154427Y0156049D01*
X0154598Y0156547D02*
X0161424Y0156547D01*
X0161149Y0157046D02*
X0154871Y0157046D01*
X0155267Y0157544D02*
X0160751Y0157544D01*
X0160182Y0158043D02*
X0155833Y0158043D01*
X0156847Y0158541D02*
X0159165Y0158541D01*
X0165586Y0156490D02*
X0165934Y0157124D01*
X0166399Y0157678D01*
X0166963Y0158131D01*
X0167605Y0158465D01*
X0168299Y0158667D01*
X0169020Y0158730D01*
X0169745Y0158669D01*
X0170444Y0158467D01*
X0171090Y0158133D01*
X0171658Y0157679D01*
X0172127Y0157123D01*
X0172478Y0156486D01*
X0172699Y0155793D01*
X0172780Y0155070D01*
X0172730Y0154410D01*
X0172566Y0153769D01*
X0172294Y0153166D01*
X0171921Y0152620D01*
X0171459Y0152147D01*
X0170921Y0151761D01*
X0170325Y0151474D01*
X0169688Y0151295D01*
X0169030Y0151230D01*
X0168372Y0151297D01*
X0167735Y0151478D01*
X0167140Y0151766D01*
X0166603Y0152153D01*
X0166142Y0152628D01*
X0165771Y0153175D01*
X0165500Y0153779D01*
X0165338Y0154420D01*
X0165290Y0155080D01*
X0165368Y0155800D01*
X0165586Y0156490D01*
X0165618Y0156547D02*
X0172444Y0156547D01*
X0172617Y0156049D02*
X0165447Y0156049D01*
X0165341Y0155550D02*
X0172726Y0155550D01*
X0172778Y0155052D02*
X0165292Y0155052D01*
X0165328Y0154553D02*
X0172741Y0154553D01*
X0172639Y0154055D02*
X0165430Y0154055D01*
X0165600Y0153556D02*
X0172470Y0153556D01*
X0172220Y0153058D02*
X0165850Y0153058D01*
X0166209Y0152559D02*
X0171862Y0152559D01*
X0171339Y0152061D02*
X0166731Y0152061D01*
X0167560Y0151562D02*
X0170509Y0151562D01*
X0172169Y0157046D02*
X0165891Y0157046D01*
X0166287Y0157544D02*
X0171771Y0157544D01*
X0171202Y0158043D02*
X0166853Y0158043D01*
X0167867Y0158541D02*
X0170185Y0158541D01*
X0294800Y0143070D02*
X0294964Y0143711D01*
X0295236Y0144314D01*
X0295609Y0144860D01*
X0296071Y0145334D01*
X0296609Y0145719D01*
X0297205Y0146006D01*
X0297842Y0146185D01*
X0298500Y0146250D01*
X0299158Y0146183D01*
X0299795Y0146003D01*
X0300390Y0145714D01*
X0300927Y0145327D01*
X0301388Y0144852D01*
X0301759Y0144305D01*
X0302030Y0143701D01*
X0302192Y0143060D01*
X0302240Y0142400D01*
X0302162Y0141681D01*
X0301944Y0140991D01*
X0301596Y0140356D01*
X0301131Y0139802D01*
X0300567Y0139349D01*
X0299925Y0139015D01*
X0299231Y0138813D01*
X0298510Y0138750D01*
X0297785Y0138812D01*
X0297086Y0139013D01*
X0296440Y0139348D01*
X0295872Y0139802D01*
X0295403Y0140358D01*
X0295052Y0140994D01*
X0294831Y0141687D01*
X0294750Y0142410D01*
X0294800Y0143070D01*
X0294805Y0143088D02*
X0302185Y0143088D01*
X0302226Y0142589D02*
X0294764Y0142589D01*
X0294786Y0142091D02*
X0302206Y0142091D01*
X0302134Y0141592D02*
X0294862Y0141592D01*
X0295020Y0141094D02*
X0301977Y0141094D01*
X0301727Y0140595D02*
X0295272Y0140595D01*
X0295623Y0140097D02*
X0301378Y0140097D01*
X0300877Y0139598D02*
X0296127Y0139598D01*
X0296920Y0139100D02*
X0300087Y0139100D01*
X0302059Y0143586D02*
X0294932Y0143586D01*
X0295133Y0144085D02*
X0301858Y0144085D01*
X0301570Y0144583D02*
X0295420Y0144583D01*
X0295825Y0145082D02*
X0301165Y0145082D01*
X0300576Y0145580D02*
X0296415Y0145580D01*
X0297463Y0146079D02*
X0299527Y0146079D01*
X0298460Y0121220D02*
X0297739Y0121157D01*
X0297045Y0120955D01*
X0296403Y0120621D01*
X0295839Y0120168D01*
X0295374Y0119614D01*
X0295026Y0118979D01*
X0294809Y0118289D01*
X0294730Y0117570D01*
X0294778Y0116910D01*
X0294940Y0116269D01*
X0295211Y0115665D01*
X0295582Y0115118D01*
X0296043Y0114643D01*
X0296580Y0114256D01*
X0297175Y0113967D01*
X0297812Y0113787D01*
X0298470Y0113720D01*
X0299128Y0113785D01*
X0299765Y0113964D01*
X0300362Y0114251D01*
X0300899Y0114637D01*
X0301361Y0115110D01*
X0301734Y0115656D01*
X0302006Y0116259D01*
X0302170Y0116900D01*
X0302220Y0117560D01*
X0302139Y0118283D01*
X0301918Y0118976D01*
X0301567Y0119613D01*
X0301098Y0120169D01*
X0300530Y0120622D01*
X0299884Y0120957D01*
X0299185Y0121158D01*
X0298460Y0121220D01*
X0297726Y0121153D02*
X0299203Y0121153D01*
X0300467Y0120655D02*
X0296468Y0120655D01*
X0295829Y0120156D02*
X0301109Y0120156D01*
X0301529Y0119658D02*
X0295411Y0119658D01*
X0295125Y0119159D02*
X0301817Y0119159D01*
X0302019Y0118661D02*
X0294926Y0118661D01*
X0294795Y0118162D02*
X0302152Y0118162D01*
X0302208Y0117664D02*
X0294740Y0117664D01*
X0294759Y0117165D02*
X0302190Y0117165D01*
X0302110Y0116667D02*
X0294840Y0116667D01*
X0294985Y0116168D02*
X0301965Y0116168D01*
X0301740Y0115670D02*
X0295209Y0115670D01*
X0295546Y0115171D02*
X0301403Y0115171D01*
X0300934Y0114672D02*
X0296015Y0114672D01*
X0296749Y0114174D02*
X0300202Y0114174D01*
X0324808Y0116940D02*
X0324760Y0117600D01*
X0324838Y0118319D01*
X0325056Y0119009D01*
X0325404Y0119644D01*
X0325869Y0120198D01*
X0326433Y0120651D01*
X0327075Y0120985D01*
X0327769Y0121187D01*
X0328490Y0121250D01*
X0329215Y0121188D01*
X0329914Y0120987D01*
X0330560Y0120652D01*
X0331128Y0120198D01*
X0331597Y0119642D01*
X0331948Y0119006D01*
X0332169Y0118313D01*
X0332250Y0117590D01*
X0332200Y0116930D01*
X0332036Y0116289D01*
X0331764Y0115686D01*
X0331391Y0115140D01*
X0330929Y0114666D01*
X0330391Y0114281D01*
X0329795Y0113994D01*
X0329158Y0113815D01*
X0328500Y0113750D01*
X0327842Y0113817D01*
X0327205Y0113997D01*
X0326610Y0114286D01*
X0326073Y0114673D01*
X0325612Y0115148D01*
X0325241Y0115695D01*
X0324970Y0116299D01*
X0324808Y0116940D01*
X0324792Y0117165D02*
X0332218Y0117165D01*
X0332241Y0117664D02*
X0324767Y0117664D01*
X0324821Y0118162D02*
X0332185Y0118162D01*
X0332058Y0118661D02*
X0324946Y0118661D01*
X0325138Y0119159D02*
X0331864Y0119159D01*
X0331584Y0119658D02*
X0325416Y0119658D01*
X0325834Y0120156D02*
X0331164Y0120156D01*
X0330555Y0120655D02*
X0326441Y0120655D01*
X0327653Y0121153D02*
X0329337Y0121153D01*
X0332133Y0116667D02*
X0324877Y0116667D01*
X0325028Y0116168D02*
X0331982Y0116168D01*
X0331753Y0115670D02*
X0325258Y0115670D01*
X0325596Y0115171D02*
X0331412Y0115171D01*
X0330935Y0114672D02*
X0326074Y0114672D01*
X0326840Y0114174D02*
X0330170Y0114174D01*
X0328540Y0138780D02*
X0329261Y0138843D01*
X0329955Y0139045D01*
X0330597Y0139379D01*
X0331161Y0139832D01*
X0331626Y0140386D01*
X0331974Y0141021D01*
X0332191Y0141711D01*
X0332270Y0142430D01*
X0332222Y0143090D01*
X0332060Y0143731D01*
X0331789Y0144335D01*
X0331418Y0144882D01*
X0330957Y0145357D01*
X0330420Y0145744D01*
X0329825Y0146033D01*
X0329188Y0146213D01*
X0328530Y0146280D01*
X0327872Y0146215D01*
X0327235Y0146036D01*
X0326638Y0145749D01*
X0326101Y0145363D01*
X0325639Y0144890D01*
X0325266Y0144344D01*
X0324994Y0143741D01*
X0324830Y0143100D01*
X0324780Y0142440D01*
X0324861Y0141717D01*
X0325082Y0141024D01*
X0325433Y0140387D01*
X0325902Y0139831D01*
X0326470Y0139378D01*
X0327116Y0139043D01*
X0327815Y0138842D01*
X0328540Y0138780D01*
X0330059Y0139100D02*
X0327008Y0139100D01*
X0326194Y0139598D02*
X0330869Y0139598D01*
X0331383Y0140097D02*
X0325678Y0140097D01*
X0325319Y0140595D02*
X0331741Y0140595D01*
X0331997Y0141094D02*
X0325060Y0141094D01*
X0324901Y0141592D02*
X0332154Y0141592D01*
X0332233Y0142091D02*
X0324819Y0142091D01*
X0324792Y0142589D02*
X0332258Y0142589D01*
X0332222Y0143088D02*
X0324829Y0143088D01*
X0324954Y0143586D02*
X0332097Y0143586D01*
X0331901Y0144085D02*
X0325149Y0144085D01*
X0325429Y0144583D02*
X0331621Y0144583D01*
X0331224Y0145082D02*
X0325826Y0145082D01*
X0326403Y0145580D02*
X0330647Y0145580D01*
X0329662Y0146079D02*
X0327387Y0146079D01*
D17*
X0188500Y0120000D03*
X0188500Y0257500D03*
M02*
