%
M48
M72
T01C0.01378
T02C0.01969
T03C0.02756
T04C0.03200
T05C0.03543
T06C0.03937
T07C0.04000
T08C0.04724
T09C0.04921
T10C0.05000
T11C0.05118
T12C0.06299
T13C0.06693
T14C0.07087
T15C0.12850
%
T01
X41300Y50902
X76300Y34652
X108800Y100902
X85050Y104652
X158800Y193402
X166300Y199652
X192550Y184652
X212550Y184652
X217550Y184652
X223800Y183402
X216300Y202152
X226300Y217152
X232550Y214652
X226300Y224652
X233800Y234652
X221300Y242152
X213800Y237152
X216300Y223402
X213800Y219652
X198800Y232152
X191300Y239652
X186300Y238402
X170050Y242152
X166300Y238402
X143800Y252152
X121300Y242152
X113800Y217152
X113800Y212152
X88800Y212152
X178800Y277152
X195050Y268402
X200050Y268402
X203800Y267152
X210050Y265902
X208800Y252152
X203800Y252152
X221300Y279652
X196300Y222152
X118800Y357152
X83800Y357152
X243800Y389652
X358800Y394652
X298800Y68402
X308800Y55902
X306300Y33402
X316300Y33402
X256300Y34652
X256300Y54652
T02
X106300Y34652
T03
X168233Y150483
X178233Y150483
X186313Y150745
X196313Y150745
T04
X196691Y134632
X177691Y134632
X83800Y249652
X83800Y259652
X83800Y269652
X83800Y279652
X53800Y279652
X53800Y269652
X53800Y259652
X53800Y249652
X56550Y105902
X48550Y105902
X48800Y89652
X48800Y59652
X301300Y75902
X301300Y85902
X301300Y108102
X301300Y118102
X301300Y140302
X301300Y150302
X301300Y172502
X301300Y182502
X301300Y204702
X301300Y214702
X301300Y236902
X301300Y246902
X301300Y269102
X301300Y279102
X301300Y301302
X301300Y311302
X301300Y333502
X301300Y343502
X331300Y343502
X331300Y333502
X331300Y311302
X331300Y301302
X331300Y279102
X331300Y269102
X331300Y246902
X331300Y236902
X331300Y214702
X331300Y204702
X331300Y182502
X331300Y172502
X331300Y150302
X331300Y140302
X331300Y118102
X331300Y108102
X331300Y85902
X331300Y75902
T05
X357550Y88402
X357550Y118402
X346300Y119452
X346300Y149452
X356300Y152152
X356300Y182152
X346300Y185102
X346300Y215102
X356300Y217152
X356300Y247152
X346300Y249502
X346300Y279502
X356300Y280902
X356300Y310902
X346300Y313402
X346300Y343402
X333397Y370917
X363397Y370917
X290050Y353402
X260050Y353402
X260050Y321202
X290050Y321202
X290050Y289002
X260050Y289002
X260050Y256802
X290050Y256802
X290050Y224602
X260050Y224602
X260050Y192402
X290050Y192402
X290050Y160202
X260050Y160202
X245050Y125902
X275050Y125902
X260050Y95802
X290050Y95802
X361300Y52152
X391300Y52152
X213800Y284652
X203800Y284652
X193800Y284652
X183800Y284652
X166300Y284652
X156300Y284652
X143800Y284652
X132550Y284652
X132550Y314652
X143800Y314652
X156300Y314652
X166300Y314652
X183800Y314652
X193800Y314652
X203800Y314652
X213800Y314652
X137678Y328784
X107678Y328784
X110446Y377621
X93124Y377621
X120226Y225233
X135065Y224299
X120226Y195233
X135065Y194299
T06
X29309Y203753
X29309Y213753
X29309Y223753
X29309Y233753
X29309Y243753
X29309Y253753
X29309Y263753
X29309Y273753
X29309Y283753
X29309Y293753
X19309Y293753
X19309Y283753
X19309Y273753
X19309Y263753
X19309Y253753
X19309Y243753
X19309Y233753
X19309Y223753
X19309Y213753
X19309Y203753
T07
X53296Y194977
X53296Y212777
X78896Y212777
X78896Y194977
X116424Y153409
X134224Y153409
X134224Y127809
X116424Y127809
X152590Y107354
X162590Y107354
X172590Y107354
X371300Y118002
X381300Y118002
X391300Y118002
X391300Y150202
X381300Y150202
X371300Y150202
X371300Y182402
X381300Y182402
X391300Y182402
X391300Y214602
X381300Y214602
X371300Y214602
X371300Y246802
X381300Y246802
X391300Y246802
X391300Y279002
X381300Y279002
X371300Y279002
X371300Y311202
X381300Y311202
X391300Y311202
X391300Y343402
X381300Y343402
X371300Y343402
X371300Y80802
X381300Y80802
X391300Y80802
T08
X142028Y177802
X132186Y177802
X122343Y177802
X112501Y177802
T09
X58819Y171779
X48976Y171779
X48976Y161936
X48976Y152094
X58819Y152094
X58819Y161936
X58819Y142251
X48976Y142251
X48976Y132409
X58819Y132409
X58819Y122566
X48976Y122566
T10
X320895Y49427
X330895Y49427
X340895Y49427
T11
X127265Y183077
T12
X9624Y72969
T13
X20708Y122566
X20708Y171779
T14
X27341Y72969
T15
X13800Y392152
X388800Y392152
M30
