G75*
%MOIN*%
%OFA0B0*%
%FSLAX25Y25*%
%IPPOS*%
%LPD*%
%AMOC8*
5,1,8,0,0,1.08239X$1,22.5*
%
%ADD10R,0.05709X0.01181*%
%ADD11R,0.01969X0.09843*%
%ADD12R,0.07874X0.09843*%
%ADD13R,0.06500X0.25000*%
%ADD14R,0.05906X0.09449*%
%ADD15R,0.04331X0.03937*%
%ADD16R,0.03937X0.04331*%
%ADD17C,0.01181*%
D10*
G36*
X0172376Y0200630D02*
X0176411Y0204665D01*
X0177246Y0203830D01*
X0173211Y0199795D01*
X0172376Y0200630D01*
G37*
G36*
X0170984Y0202022D02*
X0175019Y0206057D01*
X0175854Y0205222D01*
X0171819Y0201187D01*
X0170984Y0202022D01*
G37*
G36*
X0169592Y0203414D02*
X0173627Y0207449D01*
X0174462Y0206614D01*
X0170427Y0202579D01*
X0169592Y0203414D01*
G37*
G36*
X0168200Y0204806D02*
X0172235Y0208841D01*
X0173070Y0208006D01*
X0169035Y0203971D01*
X0168200Y0204806D01*
G37*
G36*
X0166808Y0206198D02*
X0170843Y0210233D01*
X0171678Y0209398D01*
X0167643Y0205363D01*
X0166808Y0206198D01*
G37*
G36*
X0165417Y0207590D02*
X0169452Y0211625D01*
X0170287Y0210790D01*
X0166252Y0206755D01*
X0165417Y0207590D01*
G37*
G36*
X0164025Y0208982D02*
X0168060Y0213017D01*
X0168895Y0212182D01*
X0164860Y0208147D01*
X0164025Y0208982D01*
G37*
G36*
X0162633Y0210374D02*
X0166668Y0214409D01*
X0167503Y0213574D01*
X0163468Y0209539D01*
X0162633Y0210374D01*
G37*
G36*
X0161241Y0211766D02*
X0165276Y0215801D01*
X0166111Y0214966D01*
X0162076Y0210931D01*
X0161241Y0211766D01*
G37*
G36*
X0159849Y0213158D02*
X0163884Y0217193D01*
X0164719Y0216358D01*
X0160684Y0212323D01*
X0159849Y0213158D01*
G37*
G36*
X0158457Y0214549D02*
X0162492Y0218584D01*
X0163327Y0217749D01*
X0159292Y0213714D01*
X0158457Y0214549D01*
G37*
G36*
X0157065Y0215941D02*
X0161100Y0219976D01*
X0161935Y0219141D01*
X0157900Y0215106D01*
X0157065Y0215941D01*
G37*
G36*
X0155673Y0217333D02*
X0159708Y0221368D01*
X0160543Y0220533D01*
X0156508Y0216498D01*
X0155673Y0217333D01*
G37*
G36*
X0154281Y0218725D02*
X0158316Y0222760D01*
X0159151Y0221925D01*
X0155116Y0217890D01*
X0154281Y0218725D01*
G37*
G36*
X0152889Y0220117D02*
X0156924Y0224152D01*
X0157759Y0223317D01*
X0153724Y0219282D01*
X0152889Y0220117D01*
G37*
G36*
X0151497Y0221509D02*
X0155532Y0225544D01*
X0156367Y0224709D01*
X0152332Y0220674D01*
X0151497Y0221509D01*
G37*
G36*
X0152332Y0236680D02*
X0156367Y0232645D01*
X0155532Y0231810D01*
X0151497Y0235845D01*
X0152332Y0236680D01*
G37*
G36*
X0153724Y0238072D02*
X0157759Y0234037D01*
X0156924Y0233202D01*
X0152889Y0237237D01*
X0153724Y0238072D01*
G37*
G36*
X0155116Y0239464D02*
X0159151Y0235429D01*
X0158316Y0234594D01*
X0154281Y0238629D01*
X0155116Y0239464D01*
G37*
G36*
X0156508Y0240856D02*
X0160543Y0236821D01*
X0159708Y0235986D01*
X0155673Y0240021D01*
X0156508Y0240856D01*
G37*
G36*
X0157900Y0242247D02*
X0161935Y0238212D01*
X0161100Y0237377D01*
X0157065Y0241412D01*
X0157900Y0242247D01*
G37*
G36*
X0159292Y0243639D02*
X0163327Y0239604D01*
X0162492Y0238769D01*
X0158457Y0242804D01*
X0159292Y0243639D01*
G37*
G36*
X0160684Y0245031D02*
X0164719Y0240996D01*
X0163884Y0240161D01*
X0159849Y0244196D01*
X0160684Y0245031D01*
G37*
G36*
X0162076Y0246423D02*
X0166111Y0242388D01*
X0165276Y0241553D01*
X0161241Y0245588D01*
X0162076Y0246423D01*
G37*
G36*
X0163468Y0247815D02*
X0167503Y0243780D01*
X0166668Y0242945D01*
X0162633Y0246980D01*
X0163468Y0247815D01*
G37*
G36*
X0164860Y0249207D02*
X0168895Y0245172D01*
X0168060Y0244337D01*
X0164025Y0248372D01*
X0164860Y0249207D01*
G37*
G36*
X0166252Y0250599D02*
X0170287Y0246564D01*
X0169452Y0245729D01*
X0165417Y0249764D01*
X0166252Y0250599D01*
G37*
G36*
X0167643Y0251991D02*
X0171678Y0247956D01*
X0170843Y0247121D01*
X0166808Y0251156D01*
X0167643Y0251991D01*
G37*
G36*
X0169035Y0253383D02*
X0173070Y0249348D01*
X0172235Y0248513D01*
X0168200Y0252548D01*
X0169035Y0253383D01*
G37*
G36*
X0170427Y0254775D02*
X0174462Y0250740D01*
X0173627Y0249905D01*
X0169592Y0253940D01*
X0170427Y0254775D01*
G37*
G36*
X0171819Y0256167D02*
X0175854Y0252132D01*
X0175019Y0251297D01*
X0170984Y0255332D01*
X0171819Y0256167D01*
G37*
G36*
X0173211Y0257559D02*
X0177246Y0253524D01*
X0176411Y0252689D01*
X0172376Y0256724D01*
X0173211Y0257559D01*
G37*
G36*
X0183512Y0253524D02*
X0187547Y0257559D01*
X0188382Y0256724D01*
X0184347Y0252689D01*
X0183512Y0253524D01*
G37*
G36*
X0184904Y0252132D02*
X0188939Y0256167D01*
X0189774Y0255332D01*
X0185739Y0251297D01*
X0184904Y0252132D01*
G37*
G36*
X0186296Y0250740D02*
X0190331Y0254775D01*
X0191166Y0253940D01*
X0187131Y0249905D01*
X0186296Y0250740D01*
G37*
G36*
X0187688Y0249348D02*
X0191723Y0253383D01*
X0192558Y0252548D01*
X0188523Y0248513D01*
X0187688Y0249348D01*
G37*
G36*
X0189080Y0247956D02*
X0193115Y0251991D01*
X0193950Y0251156D01*
X0189915Y0247121D01*
X0189080Y0247956D01*
G37*
G36*
X0190471Y0246564D02*
X0194506Y0250599D01*
X0195341Y0249764D01*
X0191306Y0245729D01*
X0190471Y0246564D01*
G37*
G36*
X0191863Y0245172D02*
X0195898Y0249207D01*
X0196733Y0248372D01*
X0192698Y0244337D01*
X0191863Y0245172D01*
G37*
G36*
X0193255Y0243780D02*
X0197290Y0247815D01*
X0198125Y0246980D01*
X0194090Y0242945D01*
X0193255Y0243780D01*
G37*
G36*
X0194647Y0242388D02*
X0198682Y0246423D01*
X0199517Y0245588D01*
X0195482Y0241553D01*
X0194647Y0242388D01*
G37*
G36*
X0196039Y0240996D02*
X0200074Y0245031D01*
X0200909Y0244196D01*
X0196874Y0240161D01*
X0196039Y0240996D01*
G37*
G36*
X0197431Y0239604D02*
X0201466Y0243639D01*
X0202301Y0242804D01*
X0198266Y0238769D01*
X0197431Y0239604D01*
G37*
G36*
X0198823Y0238212D02*
X0202858Y0242247D01*
X0203693Y0241412D01*
X0199658Y0237377D01*
X0198823Y0238212D01*
G37*
G36*
X0200215Y0236821D02*
X0204250Y0240856D01*
X0205085Y0240021D01*
X0201050Y0235986D01*
X0200215Y0236821D01*
G37*
G36*
X0201607Y0235429D02*
X0205642Y0239464D01*
X0206477Y0238629D01*
X0202442Y0234594D01*
X0201607Y0235429D01*
G37*
G36*
X0202999Y0234037D02*
X0207034Y0238072D01*
X0207869Y0237237D01*
X0203834Y0233202D01*
X0202999Y0234037D01*
G37*
G36*
X0204391Y0232645D02*
X0208426Y0236680D01*
X0209261Y0235845D01*
X0205226Y0231810D01*
X0204391Y0232645D01*
G37*
G36*
X0205226Y0225544D02*
X0209261Y0221509D01*
X0208426Y0220674D01*
X0204391Y0224709D01*
X0205226Y0225544D01*
G37*
G36*
X0203834Y0224152D02*
X0207869Y0220117D01*
X0207034Y0219282D01*
X0202999Y0223317D01*
X0203834Y0224152D01*
G37*
G36*
X0202442Y0222760D02*
X0206477Y0218725D01*
X0205642Y0217890D01*
X0201607Y0221925D01*
X0202442Y0222760D01*
G37*
G36*
X0201050Y0221368D02*
X0205085Y0217333D01*
X0204250Y0216498D01*
X0200215Y0220533D01*
X0201050Y0221368D01*
G37*
G36*
X0199658Y0219976D02*
X0203693Y0215941D01*
X0202858Y0215106D01*
X0198823Y0219141D01*
X0199658Y0219976D01*
G37*
G36*
X0198266Y0218584D02*
X0202301Y0214549D01*
X0201466Y0213714D01*
X0197431Y0217749D01*
X0198266Y0218584D01*
G37*
G36*
X0196874Y0217193D02*
X0200909Y0213158D01*
X0200074Y0212323D01*
X0196039Y0216358D01*
X0196874Y0217193D01*
G37*
G36*
X0195482Y0215801D02*
X0199517Y0211766D01*
X0198682Y0210931D01*
X0194647Y0214966D01*
X0195482Y0215801D01*
G37*
G36*
X0194090Y0214409D02*
X0198125Y0210374D01*
X0197290Y0209539D01*
X0193255Y0213574D01*
X0194090Y0214409D01*
G37*
G36*
X0192698Y0213017D02*
X0196733Y0208982D01*
X0195898Y0208147D01*
X0191863Y0212182D01*
X0192698Y0213017D01*
G37*
G36*
X0191306Y0211625D02*
X0195341Y0207590D01*
X0194506Y0206755D01*
X0190471Y0210790D01*
X0191306Y0211625D01*
G37*
G36*
X0189915Y0210233D02*
X0193950Y0206198D01*
X0193115Y0205363D01*
X0189080Y0209398D01*
X0189915Y0210233D01*
G37*
G36*
X0188523Y0208841D02*
X0192558Y0204806D01*
X0191723Y0203971D01*
X0187688Y0208006D01*
X0188523Y0208841D01*
G37*
G36*
X0187131Y0207449D02*
X0191166Y0203414D01*
X0190331Y0202579D01*
X0186296Y0206614D01*
X0187131Y0207449D01*
G37*
G36*
X0185739Y0206057D02*
X0189774Y0202022D01*
X0188939Y0201187D01*
X0184904Y0205222D01*
X0185739Y0206057D01*
G37*
G36*
X0184347Y0204665D02*
X0188382Y0200630D01*
X0187547Y0199795D01*
X0183512Y0203830D01*
X0184347Y0204665D01*
G37*
D11*
X0108084Y0367778D03*
X0104935Y0367778D03*
X0101785Y0367778D03*
X0098635Y0367778D03*
X0095486Y0367778D03*
D12*
X0084068Y0367778D03*
X0084068Y0389432D03*
X0119502Y0389432D03*
X0119502Y0367778D03*
D13*
X0116494Y0017500D03*
X0106494Y0017500D03*
X0096494Y0017500D03*
X0086494Y0017500D03*
X0076494Y0017500D03*
X0066494Y0017500D03*
X0126494Y0017500D03*
X0136494Y0017500D03*
X0146494Y0017500D03*
X0156494Y0017500D03*
X0166494Y0017500D03*
X0176494Y0017500D03*
X0186494Y0017500D03*
X0196494Y0017500D03*
X0206494Y0017500D03*
X0216494Y0017500D03*
X0226494Y0017500D03*
X0236494Y0017500D03*
X0246494Y0017500D03*
X0256494Y0017500D03*
X0266494Y0017500D03*
X0276494Y0017500D03*
X0286494Y0017500D03*
X0296494Y0017500D03*
X0306494Y0017500D03*
X0316494Y0017500D03*
X0326494Y0017500D03*
X0336494Y0017500D03*
D14*
X0009624Y0050528D03*
X0033640Y0050528D03*
X0033640Y0095410D03*
X0009624Y0095410D03*
D15*
X0134444Y0234973D03*
X0141136Y0234973D03*
X0134135Y0241912D03*
X0127443Y0241912D03*
X0144022Y0246936D03*
X0150714Y0246936D03*
X0178964Y0264042D03*
X0179196Y0271790D03*
X0185888Y0271790D03*
X0185656Y0264042D03*
X0221464Y0236159D03*
X0228156Y0236159D03*
X0171136Y0193051D03*
X0164444Y0193051D03*
D16*
X0212612Y0207796D03*
X0212612Y0214488D03*
X0221268Y0214488D03*
X0221268Y0207796D03*
D17*
X0220178Y0382321D02*
X0217422Y0382321D01*
X0217422Y0385077D01*
X0220178Y0385077D01*
X0220178Y0382321D01*
X0220178Y0383501D02*
X0217422Y0383501D01*
X0217422Y0384681D02*
X0220178Y0384681D01*
X0220178Y0389227D02*
X0217422Y0389227D01*
X0217422Y0391983D01*
X0220178Y0391983D01*
X0220178Y0389227D01*
X0220178Y0390407D02*
X0217422Y0390407D01*
X0217422Y0391587D02*
X0220178Y0391587D01*
X0232422Y0389227D02*
X0235178Y0389227D01*
X0232422Y0389227D02*
X0232422Y0391983D01*
X0235178Y0391983D01*
X0235178Y0389227D01*
X0235178Y0390407D02*
X0232422Y0390407D01*
X0232422Y0391587D02*
X0235178Y0391587D01*
X0235178Y0382321D02*
X0232422Y0382321D01*
X0232422Y0385077D01*
X0235178Y0385077D01*
X0235178Y0382321D01*
X0235178Y0383501D02*
X0232422Y0383501D01*
X0232422Y0384681D02*
X0235178Y0384681D01*
X0205178Y0382321D02*
X0202422Y0382321D01*
X0202422Y0385077D01*
X0205178Y0385077D01*
X0205178Y0382321D01*
X0205178Y0383501D02*
X0202422Y0383501D01*
X0202422Y0384681D02*
X0205178Y0384681D01*
X0205178Y0389227D02*
X0202422Y0389227D01*
X0202422Y0391983D01*
X0205178Y0391983D01*
X0205178Y0389227D01*
X0205178Y0390407D02*
X0202422Y0390407D01*
X0202422Y0391587D02*
X0205178Y0391587D01*
X0190178Y0389227D02*
X0187422Y0389227D01*
X0187422Y0391983D01*
X0190178Y0391983D01*
X0190178Y0389227D01*
X0190178Y0390407D02*
X0187422Y0390407D01*
X0187422Y0391587D02*
X0190178Y0391587D01*
X0190178Y0382321D02*
X0187422Y0382321D01*
X0187422Y0385077D01*
X0190178Y0385077D01*
X0190178Y0382321D01*
X0190178Y0383501D02*
X0187422Y0383501D01*
X0187422Y0384681D02*
X0190178Y0384681D01*
X0175178Y0382321D02*
X0172422Y0382321D01*
X0172422Y0385077D01*
X0175178Y0385077D01*
X0175178Y0382321D01*
X0175178Y0383501D02*
X0172422Y0383501D01*
X0172422Y0384681D02*
X0175178Y0384681D01*
X0175178Y0389227D02*
X0172422Y0389227D01*
X0172422Y0391983D01*
X0175178Y0391983D01*
X0175178Y0389227D01*
X0175178Y0390407D02*
X0172422Y0390407D01*
X0172422Y0391587D02*
X0175178Y0391587D01*
X0160178Y0389227D02*
X0157422Y0389227D01*
X0157422Y0391983D01*
X0160178Y0391983D01*
X0160178Y0389227D01*
X0160178Y0390407D02*
X0157422Y0390407D01*
X0157422Y0391587D02*
X0160178Y0391587D01*
X0160178Y0382321D02*
X0157422Y0382321D01*
X0157422Y0385077D01*
X0160178Y0385077D01*
X0160178Y0382321D01*
X0160178Y0383501D02*
X0157422Y0383501D01*
X0157422Y0384681D02*
X0160178Y0384681D01*
X0145178Y0382321D02*
X0142422Y0382321D01*
X0142422Y0385077D01*
X0145178Y0385077D01*
X0145178Y0382321D01*
X0145178Y0383501D02*
X0142422Y0383501D01*
X0142422Y0384681D02*
X0145178Y0384681D01*
X0145178Y0389227D02*
X0142422Y0389227D01*
X0142422Y0391983D01*
X0145178Y0391983D01*
X0145178Y0389227D01*
X0145178Y0390407D02*
X0142422Y0390407D01*
X0142422Y0391587D02*
X0145178Y0391587D01*
X0361578Y0389234D02*
X0364334Y0389234D01*
X0361578Y0389234D02*
X0361578Y0391990D01*
X0364334Y0391990D01*
X0364334Y0389234D01*
X0364334Y0390414D02*
X0361578Y0390414D01*
X0361578Y0391594D02*
X0364334Y0391594D01*
X0364334Y0382328D02*
X0361578Y0382328D01*
X0361578Y0385084D01*
X0364334Y0385084D01*
X0364334Y0382328D01*
X0364334Y0383508D02*
X0361578Y0383508D01*
X0361578Y0384688D02*
X0364334Y0384688D01*
M02*
