G75*
%MOIN*%
%OFA0B0*%
%FSLAX25Y25*%
%IPPOS*%
%LPD*%
%AMOC8*
5,1,8,0,0,1.08239X$1,22.5*
%
%ADD10C,0.13650*%
%ADD11R,0.06509X0.01981*%
%ADD12R,0.06737X0.06737*%
%ADD13C,0.06737*%
%ADD14R,0.02769X0.10643*%
%ADD15R,0.08674X0.10643*%
%ADD16C,0.04343*%
%ADD17R,0.07300X0.25800*%
%ADD18C,0.08182*%
%ADD19C,0.07493*%
%ADD20R,0.06706X0.10249*%
%ADD21C,0.07099*%
%ADD22C,0.07887*%
%ADD23C,0.08200*%
%ADD24C,0.06000*%
%ADD25R,0.08300X0.08300*%
%ADD26C,0.08300*%
%ADD27C,0.06000*%
%ADD28R,0.05131X0.04737*%
%ADD29R,0.04737X0.05131*%
%ADD30C,0.01421*%
%ADD31C,0.06800*%
%ADD32C,0.07300*%
%ADD33C,0.09400*%
%ADD34C,0.05918*%
%ADD35OC8,0.06000*%
%ADD36C,0.04369*%
%ADD37C,0.03778*%
D10*
X0013800Y0392152D03*
X0388800Y0392152D03*
D11*
G36*
X0203826Y0232645D02*
X0208426Y0237245D01*
X0209826Y0235845D01*
X0205226Y0231245D01*
X0203826Y0232645D01*
G37*
G36*
X0202434Y0234037D02*
X0207034Y0238637D01*
X0208434Y0237237D01*
X0203834Y0232637D01*
X0202434Y0234037D01*
G37*
G36*
X0201042Y0235429D02*
X0205642Y0240029D01*
X0207042Y0238629D01*
X0202442Y0234029D01*
X0201042Y0235429D01*
G37*
G36*
X0199650Y0236821D02*
X0204250Y0241421D01*
X0205650Y0240021D01*
X0201050Y0235421D01*
X0199650Y0236821D01*
G37*
G36*
X0198258Y0238212D02*
X0202858Y0242812D01*
X0204258Y0241412D01*
X0199658Y0236812D01*
X0198258Y0238212D01*
G37*
G36*
X0196866Y0239604D02*
X0201466Y0244204D01*
X0202866Y0242804D01*
X0198266Y0238204D01*
X0196866Y0239604D01*
G37*
G36*
X0195474Y0240996D02*
X0200074Y0245596D01*
X0201474Y0244196D01*
X0196874Y0239596D01*
X0195474Y0240996D01*
G37*
G36*
X0194082Y0242388D02*
X0198682Y0246988D01*
X0200082Y0245588D01*
X0195482Y0240988D01*
X0194082Y0242388D01*
G37*
G36*
X0192690Y0243780D02*
X0197290Y0248380D01*
X0198690Y0246980D01*
X0194090Y0242380D01*
X0192690Y0243780D01*
G37*
G36*
X0191298Y0245172D02*
X0195898Y0249772D01*
X0197298Y0248372D01*
X0192698Y0243772D01*
X0191298Y0245172D01*
G37*
G36*
X0189906Y0246564D02*
X0194506Y0251164D01*
X0195906Y0249764D01*
X0191306Y0245164D01*
X0189906Y0246564D01*
G37*
G36*
X0188515Y0247956D02*
X0193115Y0252556D01*
X0194515Y0251156D01*
X0189915Y0246556D01*
X0188515Y0247956D01*
G37*
G36*
X0187123Y0249348D02*
X0191723Y0253948D01*
X0193123Y0252548D01*
X0188523Y0247948D01*
X0187123Y0249348D01*
G37*
G36*
X0185731Y0250740D02*
X0190331Y0255340D01*
X0191731Y0253940D01*
X0187131Y0249340D01*
X0185731Y0250740D01*
G37*
G36*
X0184339Y0252132D02*
X0188939Y0256732D01*
X0190339Y0255332D01*
X0185739Y0250732D01*
X0184339Y0252132D01*
G37*
G36*
X0182947Y0253524D02*
X0187547Y0258124D01*
X0188947Y0256724D01*
X0184347Y0252124D01*
X0182947Y0253524D01*
G37*
G36*
X0173211Y0258124D02*
X0177811Y0253524D01*
X0176411Y0252124D01*
X0171811Y0256724D01*
X0173211Y0258124D01*
G37*
G36*
X0171819Y0256732D02*
X0176419Y0252132D01*
X0175019Y0250732D01*
X0170419Y0255332D01*
X0171819Y0256732D01*
G37*
G36*
X0170427Y0255340D02*
X0175027Y0250740D01*
X0173627Y0249340D01*
X0169027Y0253940D01*
X0170427Y0255340D01*
G37*
G36*
X0169035Y0253948D02*
X0173635Y0249348D01*
X0172235Y0247948D01*
X0167635Y0252548D01*
X0169035Y0253948D01*
G37*
G36*
X0167643Y0252556D02*
X0172243Y0247956D01*
X0170843Y0246556D01*
X0166243Y0251156D01*
X0167643Y0252556D01*
G37*
G36*
X0166252Y0251164D02*
X0170852Y0246564D01*
X0169452Y0245164D01*
X0164852Y0249764D01*
X0166252Y0251164D01*
G37*
G36*
X0164860Y0249772D02*
X0169460Y0245172D01*
X0168060Y0243772D01*
X0163460Y0248372D01*
X0164860Y0249772D01*
G37*
G36*
X0163468Y0248380D02*
X0168068Y0243780D01*
X0166668Y0242380D01*
X0162068Y0246980D01*
X0163468Y0248380D01*
G37*
G36*
X0162076Y0246988D02*
X0166676Y0242388D01*
X0165276Y0240988D01*
X0160676Y0245588D01*
X0162076Y0246988D01*
G37*
G36*
X0160684Y0245596D02*
X0165284Y0240996D01*
X0163884Y0239596D01*
X0159284Y0244196D01*
X0160684Y0245596D01*
G37*
G36*
X0159292Y0244204D02*
X0163892Y0239604D01*
X0162492Y0238204D01*
X0157892Y0242804D01*
X0159292Y0244204D01*
G37*
G36*
X0157900Y0242812D02*
X0162500Y0238212D01*
X0161100Y0236812D01*
X0156500Y0241412D01*
X0157900Y0242812D01*
G37*
G36*
X0156508Y0241421D02*
X0161108Y0236821D01*
X0159708Y0235421D01*
X0155108Y0240021D01*
X0156508Y0241421D01*
G37*
G36*
X0155116Y0240029D02*
X0159716Y0235429D01*
X0158316Y0234029D01*
X0153716Y0238629D01*
X0155116Y0240029D01*
G37*
G36*
X0153724Y0238637D02*
X0158324Y0234037D01*
X0156924Y0232637D01*
X0152324Y0237237D01*
X0153724Y0238637D01*
G37*
G36*
X0152332Y0237245D02*
X0156932Y0232645D01*
X0155532Y0231245D01*
X0150932Y0235845D01*
X0152332Y0237245D01*
G37*
G36*
X0150932Y0221509D02*
X0155532Y0226109D01*
X0156932Y0224709D01*
X0152332Y0220109D01*
X0150932Y0221509D01*
G37*
G36*
X0152324Y0220117D02*
X0156924Y0224717D01*
X0158324Y0223317D01*
X0153724Y0218717D01*
X0152324Y0220117D01*
G37*
G36*
X0153716Y0218725D02*
X0158316Y0223325D01*
X0159716Y0221925D01*
X0155116Y0217325D01*
X0153716Y0218725D01*
G37*
G36*
X0155108Y0217333D02*
X0159708Y0221933D01*
X0161108Y0220533D01*
X0156508Y0215933D01*
X0155108Y0217333D01*
G37*
G36*
X0156500Y0215941D02*
X0161100Y0220541D01*
X0162500Y0219141D01*
X0157900Y0214541D01*
X0156500Y0215941D01*
G37*
G36*
X0157892Y0214549D02*
X0162492Y0219149D01*
X0163892Y0217749D01*
X0159292Y0213149D01*
X0157892Y0214549D01*
G37*
G36*
X0159284Y0213158D02*
X0163884Y0217758D01*
X0165284Y0216358D01*
X0160684Y0211758D01*
X0159284Y0213158D01*
G37*
G36*
X0160676Y0211766D02*
X0165276Y0216366D01*
X0166676Y0214966D01*
X0162076Y0210366D01*
X0160676Y0211766D01*
G37*
G36*
X0162068Y0210374D02*
X0166668Y0214974D01*
X0168068Y0213574D01*
X0163468Y0208974D01*
X0162068Y0210374D01*
G37*
G36*
X0163460Y0208982D02*
X0168060Y0213582D01*
X0169460Y0212182D01*
X0164860Y0207582D01*
X0163460Y0208982D01*
G37*
G36*
X0164852Y0207590D02*
X0169452Y0212190D01*
X0170852Y0210790D01*
X0166252Y0206190D01*
X0164852Y0207590D01*
G37*
G36*
X0166243Y0206198D02*
X0170843Y0210798D01*
X0172243Y0209398D01*
X0167643Y0204798D01*
X0166243Y0206198D01*
G37*
G36*
X0167635Y0204806D02*
X0172235Y0209406D01*
X0173635Y0208006D01*
X0169035Y0203406D01*
X0167635Y0204806D01*
G37*
G36*
X0169027Y0203414D02*
X0173627Y0208014D01*
X0175027Y0206614D01*
X0170427Y0202014D01*
X0169027Y0203414D01*
G37*
G36*
X0170419Y0202022D02*
X0175019Y0206622D01*
X0176419Y0205222D01*
X0171819Y0200622D01*
X0170419Y0202022D01*
G37*
G36*
X0171811Y0200630D02*
X0176411Y0205230D01*
X0177811Y0203830D01*
X0173211Y0199230D01*
X0171811Y0200630D01*
G37*
G36*
X0184347Y0205230D02*
X0188947Y0200630D01*
X0187547Y0199230D01*
X0182947Y0203830D01*
X0184347Y0205230D01*
G37*
G36*
X0185739Y0206622D02*
X0190339Y0202022D01*
X0188939Y0200622D01*
X0184339Y0205222D01*
X0185739Y0206622D01*
G37*
G36*
X0187131Y0208014D02*
X0191731Y0203414D01*
X0190331Y0202014D01*
X0185731Y0206614D01*
X0187131Y0208014D01*
G37*
G36*
X0188523Y0209406D02*
X0193123Y0204806D01*
X0191723Y0203406D01*
X0187123Y0208006D01*
X0188523Y0209406D01*
G37*
G36*
X0189915Y0210798D02*
X0194515Y0206198D01*
X0193115Y0204798D01*
X0188515Y0209398D01*
X0189915Y0210798D01*
G37*
G36*
X0191306Y0212190D02*
X0195906Y0207590D01*
X0194506Y0206190D01*
X0189906Y0210790D01*
X0191306Y0212190D01*
G37*
G36*
X0192698Y0213582D02*
X0197298Y0208982D01*
X0195898Y0207582D01*
X0191298Y0212182D01*
X0192698Y0213582D01*
G37*
G36*
X0194090Y0214974D02*
X0198690Y0210374D01*
X0197290Y0208974D01*
X0192690Y0213574D01*
X0194090Y0214974D01*
G37*
G36*
X0195482Y0216366D02*
X0200082Y0211766D01*
X0198682Y0210366D01*
X0194082Y0214966D01*
X0195482Y0216366D01*
G37*
G36*
X0196874Y0217758D02*
X0201474Y0213158D01*
X0200074Y0211758D01*
X0195474Y0216358D01*
X0196874Y0217758D01*
G37*
G36*
X0198266Y0219149D02*
X0202866Y0214549D01*
X0201466Y0213149D01*
X0196866Y0217749D01*
X0198266Y0219149D01*
G37*
G36*
X0199658Y0220541D02*
X0204258Y0215941D01*
X0202858Y0214541D01*
X0198258Y0219141D01*
X0199658Y0220541D01*
G37*
G36*
X0201050Y0221933D02*
X0205650Y0217333D01*
X0204250Y0215933D01*
X0199650Y0220533D01*
X0201050Y0221933D01*
G37*
G36*
X0202442Y0223325D02*
X0207042Y0218725D01*
X0205642Y0217325D01*
X0201042Y0221925D01*
X0202442Y0223325D01*
G37*
G36*
X0203834Y0224717D02*
X0208434Y0220117D01*
X0207034Y0218717D01*
X0202434Y0223317D01*
X0203834Y0224717D01*
G37*
G36*
X0205226Y0226109D02*
X0209826Y0221509D01*
X0208426Y0220109D01*
X0203826Y0224709D01*
X0205226Y0226109D01*
G37*
D12*
X0019309Y0293753D03*
D13*
X0029309Y0293753D03*
X0029309Y0283753D03*
X0029309Y0273753D03*
X0029309Y0263753D03*
X0029309Y0253753D03*
X0029309Y0243753D03*
X0029309Y0233753D03*
X0029309Y0223753D03*
X0029309Y0213753D03*
X0029309Y0203753D03*
X0019309Y0203753D03*
X0019309Y0213753D03*
X0019309Y0223753D03*
X0019309Y0233753D03*
X0019309Y0243753D03*
X0019309Y0253753D03*
X0019309Y0263753D03*
X0019309Y0273753D03*
X0019309Y0283753D03*
D14*
X0095486Y0367778D03*
X0098635Y0367778D03*
X0101785Y0367778D03*
X0104935Y0367778D03*
X0108084Y0367778D03*
D15*
X0119502Y0367778D03*
X0119502Y0389432D03*
X0084068Y0389432D03*
X0084068Y0367778D03*
D16*
X0093124Y0377621D03*
X0110446Y0377621D03*
D17*
X0106494Y0017500D03*
X0116494Y0017500D03*
X0126494Y0017500D03*
X0136494Y0017500D03*
X0146494Y0017500D03*
X0156494Y0017500D03*
X0166494Y0017500D03*
X0176494Y0017500D03*
X0186494Y0017500D03*
X0196494Y0017500D03*
X0206494Y0017500D03*
X0216494Y0017500D03*
X0226494Y0017500D03*
X0236494Y0017500D03*
X0246494Y0017500D03*
X0256494Y0017500D03*
X0266494Y0017500D03*
X0276494Y0017500D03*
X0286494Y0017500D03*
X0296494Y0017500D03*
X0306494Y0017500D03*
X0316494Y0017500D03*
X0326494Y0017500D03*
X0336494Y0017500D03*
X0096494Y0017500D03*
X0086494Y0017500D03*
X0076494Y0017500D03*
X0066494Y0017500D03*
D18*
X0058819Y0122566D03*
X0058819Y0132409D03*
X0048976Y0132409D03*
X0048976Y0122566D03*
X0048976Y0142251D03*
X0058819Y0142251D03*
X0058819Y0152094D03*
X0058819Y0161936D03*
X0048976Y0161936D03*
X0048976Y0152094D03*
X0048976Y0171779D03*
X0058819Y0171779D03*
D19*
X0020708Y0171779D03*
X0020708Y0122566D03*
D20*
X0009624Y0050528D03*
X0033640Y0050528D03*
X0033640Y0095410D03*
X0009624Y0095410D03*
D21*
X0009624Y0072969D03*
D22*
X0027341Y0072969D03*
D23*
X0135065Y0194299D03*
X0120226Y0195233D03*
X0120226Y0225233D03*
X0135065Y0224299D03*
X0132550Y0284652D03*
X0143800Y0284652D03*
X0156300Y0284652D03*
X0166300Y0284652D03*
X0183800Y0284652D03*
X0193800Y0284652D03*
X0203800Y0284652D03*
X0213800Y0284652D03*
X0213800Y0314652D03*
X0203800Y0314652D03*
X0193800Y0314652D03*
X0183800Y0314652D03*
X0166300Y0314652D03*
X0156300Y0314652D03*
X0143800Y0314652D03*
X0132550Y0314652D03*
X0137678Y0328784D03*
X0107678Y0328784D03*
X0260050Y0321202D03*
X0290050Y0321202D03*
X0290050Y0353402D03*
X0260050Y0353402D03*
X0260050Y0289002D03*
X0290050Y0289002D03*
X0290050Y0256802D03*
X0260050Y0256802D03*
X0260050Y0224602D03*
X0290050Y0224602D03*
X0290050Y0192402D03*
X0260050Y0192402D03*
X0260050Y0160202D03*
X0290050Y0160202D03*
X0275050Y0125902D03*
X0245050Y0125902D03*
X0260050Y0095802D03*
X0290050Y0095802D03*
X0346300Y0119452D03*
X0357550Y0118402D03*
X0371300Y0118002D03*
X0381300Y0118002D03*
X0391300Y0118002D03*
X0391300Y0150202D03*
X0381300Y0150202D03*
X0371300Y0150202D03*
X0356300Y0152152D03*
X0346300Y0149452D03*
X0356300Y0182152D03*
X0346300Y0185102D03*
X0371300Y0182402D03*
X0381300Y0182402D03*
X0391300Y0182402D03*
X0391300Y0214602D03*
X0381300Y0214602D03*
X0371300Y0214602D03*
X0356300Y0217152D03*
X0346300Y0215102D03*
X0356300Y0247152D03*
X0346300Y0249502D03*
X0371300Y0246802D03*
X0381300Y0246802D03*
X0391300Y0246802D03*
X0391300Y0279002D03*
X0381300Y0279002D03*
X0371300Y0279002D03*
X0356300Y0280902D03*
X0346300Y0279502D03*
X0356300Y0310902D03*
X0346300Y0313402D03*
X0371300Y0311202D03*
X0381300Y0311202D03*
X0391300Y0311202D03*
X0391300Y0343402D03*
X0381300Y0343402D03*
X0371300Y0343402D03*
X0346300Y0343402D03*
X0333397Y0370917D03*
X0363397Y0370917D03*
X0172590Y0107354D03*
X0162590Y0107354D03*
X0152590Y0107354D03*
X0357550Y0088402D03*
X0371300Y0080802D03*
X0381300Y0080802D03*
X0391300Y0080802D03*
X0391300Y0052152D03*
X0361300Y0052152D03*
D24*
X0196691Y0134632D03*
X0177691Y0134632D03*
X0048550Y0105902D03*
D25*
X0320895Y0049427D03*
D26*
X0330895Y0049427D03*
X0340895Y0049427D03*
D27*
X0336500Y0075902D02*
X0331300Y0075902D01*
X0331300Y0085902D02*
X0336500Y0085902D01*
X0336500Y0108102D02*
X0331300Y0108102D01*
X0331300Y0118102D02*
X0336500Y0118102D01*
X0336500Y0140302D02*
X0331300Y0140302D01*
X0331300Y0150302D02*
X0336500Y0150302D01*
X0336500Y0172502D02*
X0331300Y0172502D01*
X0331300Y0182502D02*
X0336500Y0182502D01*
X0336500Y0204702D02*
X0331300Y0204702D01*
X0331300Y0214702D02*
X0336500Y0214702D01*
X0336500Y0236902D02*
X0331300Y0236902D01*
X0331300Y0246902D02*
X0336500Y0246902D01*
X0336500Y0269102D02*
X0331300Y0269102D01*
X0331300Y0279102D02*
X0336500Y0279102D01*
X0336500Y0301302D02*
X0331300Y0301302D01*
X0331300Y0311302D02*
X0336500Y0311302D01*
X0336500Y0333502D02*
X0331300Y0333502D01*
X0331300Y0343502D02*
X0336500Y0343502D01*
X0301300Y0343502D02*
X0296100Y0343502D01*
X0296100Y0333502D02*
X0301300Y0333502D01*
X0301300Y0311302D02*
X0296100Y0311302D01*
X0296100Y0301302D02*
X0301300Y0301302D01*
X0301300Y0279102D02*
X0296100Y0279102D01*
X0296100Y0269102D02*
X0301300Y0269102D01*
X0301300Y0246902D02*
X0296100Y0246902D01*
X0296100Y0236902D02*
X0301300Y0236902D01*
X0301300Y0214702D02*
X0296100Y0214702D01*
X0296100Y0204702D02*
X0301300Y0204702D01*
X0301300Y0182502D02*
X0296100Y0182502D01*
X0296100Y0172502D02*
X0301300Y0172502D01*
X0301300Y0150302D02*
X0296100Y0150302D01*
X0296100Y0140302D02*
X0301300Y0140302D01*
X0301300Y0118102D02*
X0296100Y0118102D01*
X0296100Y0108102D02*
X0301300Y0108102D01*
X0301300Y0085902D02*
X0296100Y0085902D01*
X0296100Y0075902D02*
X0301300Y0075902D01*
X0086400Y0249652D02*
X0081200Y0249652D01*
X0081200Y0259652D02*
X0086400Y0259652D01*
X0086400Y0269652D02*
X0081200Y0269652D01*
X0081200Y0279652D02*
X0086400Y0279652D01*
X0056400Y0279652D02*
X0051200Y0279652D01*
X0051200Y0269652D02*
X0056400Y0269652D01*
X0056400Y0259652D02*
X0051200Y0259652D01*
X0051200Y0249652D02*
X0056400Y0249652D01*
D28*
X0127443Y0241912D03*
X0134135Y0241912D03*
X0134444Y0234973D03*
X0141136Y0234973D03*
X0144022Y0246936D03*
X0150714Y0246936D03*
X0178964Y0264042D03*
X0179196Y0271790D03*
X0185888Y0271790D03*
X0185656Y0264042D03*
X0221464Y0236159D03*
X0228156Y0236159D03*
X0171136Y0193051D03*
X0164444Y0193051D03*
D29*
X0212612Y0207796D03*
X0212612Y0214488D03*
X0221268Y0214488D03*
X0221268Y0207796D03*
D30*
X0220458Y0382041D02*
X0217142Y0382041D01*
X0217142Y0385357D01*
X0220458Y0385357D01*
X0220458Y0382041D01*
X0220458Y0383461D02*
X0217142Y0383461D01*
X0217142Y0384881D02*
X0220458Y0384881D01*
X0220458Y0388947D02*
X0217142Y0388947D01*
X0217142Y0392263D01*
X0220458Y0392263D01*
X0220458Y0388947D01*
X0220458Y0390367D02*
X0217142Y0390367D01*
X0217142Y0391787D02*
X0220458Y0391787D01*
X0232142Y0388947D02*
X0235458Y0388947D01*
X0232142Y0388947D02*
X0232142Y0392263D01*
X0235458Y0392263D01*
X0235458Y0388947D01*
X0235458Y0390367D02*
X0232142Y0390367D01*
X0232142Y0391787D02*
X0235458Y0391787D01*
X0235458Y0382041D02*
X0232142Y0382041D01*
X0232142Y0385357D01*
X0235458Y0385357D01*
X0235458Y0382041D01*
X0235458Y0383461D02*
X0232142Y0383461D01*
X0232142Y0384881D02*
X0235458Y0384881D01*
X0205458Y0382041D02*
X0202142Y0382041D01*
X0202142Y0385357D01*
X0205458Y0385357D01*
X0205458Y0382041D01*
X0205458Y0383461D02*
X0202142Y0383461D01*
X0202142Y0384881D02*
X0205458Y0384881D01*
X0205458Y0388947D02*
X0202142Y0388947D01*
X0202142Y0392263D01*
X0205458Y0392263D01*
X0205458Y0388947D01*
X0205458Y0390367D02*
X0202142Y0390367D01*
X0202142Y0391787D02*
X0205458Y0391787D01*
X0190458Y0388947D02*
X0187142Y0388947D01*
X0187142Y0392263D01*
X0190458Y0392263D01*
X0190458Y0388947D01*
X0190458Y0390367D02*
X0187142Y0390367D01*
X0187142Y0391787D02*
X0190458Y0391787D01*
X0190458Y0382041D02*
X0187142Y0382041D01*
X0187142Y0385357D01*
X0190458Y0385357D01*
X0190458Y0382041D01*
X0190458Y0383461D02*
X0187142Y0383461D01*
X0187142Y0384881D02*
X0190458Y0384881D01*
X0175458Y0382041D02*
X0172142Y0382041D01*
X0172142Y0385357D01*
X0175458Y0385357D01*
X0175458Y0382041D01*
X0175458Y0383461D02*
X0172142Y0383461D01*
X0172142Y0384881D02*
X0175458Y0384881D01*
X0175458Y0388947D02*
X0172142Y0388947D01*
X0172142Y0392263D01*
X0175458Y0392263D01*
X0175458Y0388947D01*
X0175458Y0390367D02*
X0172142Y0390367D01*
X0172142Y0391787D02*
X0175458Y0391787D01*
X0160458Y0388947D02*
X0157142Y0388947D01*
X0157142Y0392263D01*
X0160458Y0392263D01*
X0160458Y0388947D01*
X0160458Y0390367D02*
X0157142Y0390367D01*
X0157142Y0391787D02*
X0160458Y0391787D01*
X0160458Y0382041D02*
X0157142Y0382041D01*
X0157142Y0385357D01*
X0160458Y0385357D01*
X0160458Y0382041D01*
X0160458Y0383461D02*
X0157142Y0383461D01*
X0157142Y0384881D02*
X0160458Y0384881D01*
X0145458Y0382041D02*
X0142142Y0382041D01*
X0142142Y0385357D01*
X0145458Y0385357D01*
X0145458Y0382041D01*
X0145458Y0383461D02*
X0142142Y0383461D01*
X0142142Y0384881D02*
X0145458Y0384881D01*
X0145458Y0388947D02*
X0142142Y0388947D01*
X0142142Y0392263D01*
X0145458Y0392263D01*
X0145458Y0388947D01*
X0145458Y0390367D02*
X0142142Y0390367D01*
X0142142Y0391787D02*
X0145458Y0391787D01*
X0361298Y0388954D02*
X0364614Y0388954D01*
X0361298Y0388954D02*
X0361298Y0392270D01*
X0364614Y0392270D01*
X0364614Y0388954D01*
X0364614Y0390374D02*
X0361298Y0390374D01*
X0361298Y0391794D02*
X0364614Y0391794D01*
X0364614Y0382048D02*
X0361298Y0382048D01*
X0361298Y0385364D01*
X0364614Y0385364D01*
X0364614Y0382048D01*
X0364614Y0383468D02*
X0361298Y0383468D01*
X0361298Y0384888D02*
X0364614Y0384888D01*
D31*
X0134224Y0156409D02*
X0134224Y0150409D01*
X0116424Y0150409D02*
X0116424Y0156409D01*
X0116424Y0130809D02*
X0116424Y0124809D01*
X0134224Y0124809D02*
X0134224Y0130809D01*
X0081896Y0194977D02*
X0075896Y0194977D01*
X0075896Y0212777D02*
X0081896Y0212777D01*
X0056296Y0212777D02*
X0050296Y0212777D01*
X0050296Y0194977D02*
X0056296Y0194977D01*
D32*
X0168233Y0150483D03*
X0178233Y0150483D03*
X0186313Y0150745D03*
X0196313Y0150745D03*
D33*
X0142028Y0177802D03*
X0132186Y0177802D03*
X0122343Y0177802D03*
X0112501Y0177802D03*
D34*
X0127265Y0183077D03*
D35*
X0056550Y0105902D03*
X0048800Y0089652D03*
X0048800Y0059652D03*
D36*
X0106300Y0034652D03*
D37*
X0076300Y0034652D03*
X0041300Y0050902D03*
X0085050Y0104652D03*
X0108800Y0100902D03*
X0192550Y0184652D03*
X0212550Y0184652D03*
X0217550Y0184652D03*
X0223800Y0183402D03*
X0216300Y0202152D03*
X0226300Y0217152D03*
X0232550Y0214652D03*
X0226300Y0224652D03*
X0233800Y0234652D03*
X0221300Y0242152D03*
X0213800Y0237152D03*
X0216300Y0223402D03*
X0213800Y0219652D03*
X0198800Y0232152D03*
X0191300Y0239652D03*
X0186300Y0238402D03*
X0170050Y0242152D03*
X0166300Y0238402D03*
X0143800Y0252152D03*
X0121300Y0242152D03*
X0113800Y0217152D03*
X0113800Y0212152D03*
X0088800Y0212152D03*
X0158800Y0193402D03*
X0166300Y0199652D03*
X0196300Y0222152D03*
X0203800Y0252152D03*
X0208800Y0252152D03*
X0210050Y0265902D03*
X0203800Y0267152D03*
X0200050Y0268402D03*
X0195050Y0268402D03*
X0178800Y0277152D03*
X0221300Y0279652D03*
X0118800Y0357152D03*
X0083800Y0357152D03*
X0243800Y0389652D03*
X0358800Y0394652D03*
X0298800Y0068402D03*
X0308800Y0055902D03*
X0306300Y0033402D03*
X0316300Y0033402D03*
X0256300Y0034652D03*
X0256300Y0054652D03*
M02*
