G75*
%MOIN*%
%OFA0B0*%
%FSLAX25Y25*%
%IPPOS*%
%LPD*%
%AMOC8*
5,1,8,0,0,1.08239X$1,22.5*
%
%ADD10C,0.00600*%
%ADD11C,0.00000*%
%ADD12R,0.05709X0.01181*%
%ADD13R,0.05937X0.05937*%
%ADD14C,0.05937*%
%ADD15R,0.01969X0.09843*%
%ADD16R,0.07874X0.09843*%
%ADD17R,0.06500X0.25000*%
%ADD18C,0.00500*%
%ADD19C,0.07382*%
%ADD20R,0.05906X0.09449*%
%ADD21C,0.07400*%
%ADD22C,0.05200*%
%ADD23R,0.07500X0.07500*%
%ADD24C,0.07500*%
%ADD25C,0.05200*%
%ADD26R,0.04331X0.03937*%
%ADD27R,0.03937X0.04331*%
%ADD28C,0.01181*%
%ADD29C,0.06000*%
%ADD30C,0.06500*%
%ADD31C,0.08600*%
%ADD32OC8,0.05200*%
%ADD33C,0.03569*%
%ADD34C,0.02978*%
%ADD35C,0.01200*%
%ADD36C,0.03200*%
%ADD37C,0.03000*%
D10*
X0001300Y0035361D02*
X0056418Y0035361D01*
X0056418Y0004652D01*
X0346182Y0004652D01*
X0346182Y0035361D01*
X0401300Y0035361D01*
X0401300Y0404652D01*
X0001300Y0404652D01*
X0001300Y0035361D01*
X0063800Y0035176D02*
X0088800Y0035176D01*
X0088800Y0034578D02*
X0063800Y0034578D01*
X0063800Y0033979D02*
X0088800Y0033979D01*
X0088800Y0033381D02*
X0063800Y0033381D01*
X0063800Y0032782D02*
X0088800Y0032782D01*
X0088800Y0032184D02*
X0063800Y0032184D01*
X0063800Y0031585D02*
X0088800Y0031585D01*
X0088800Y0030986D02*
X0063800Y0030986D01*
X0063800Y0030388D02*
X0088800Y0030388D01*
X0088800Y0029789D02*
X0063800Y0029789D01*
X0063800Y0029191D02*
X0088800Y0029191D01*
X0088800Y0028592D02*
X0063800Y0028592D01*
X0063800Y0027994D02*
X0088800Y0027994D01*
X0088800Y0027395D02*
X0063800Y0027395D01*
X0063800Y0026797D02*
X0088800Y0026797D01*
X0088800Y0026198D02*
X0063800Y0026198D01*
X0063800Y0025600D02*
X0088800Y0025600D01*
X0088800Y0025001D02*
X0063800Y0025001D01*
X0063800Y0024403D02*
X0088800Y0024403D01*
X0088800Y0023804D02*
X0063800Y0023804D01*
X0063800Y0023206D02*
X0088800Y0023206D01*
X0088800Y0022607D02*
X0063800Y0022607D01*
X0063800Y0022009D02*
X0088800Y0022009D01*
X0088800Y0021410D02*
X0063800Y0021410D01*
X0063800Y0020812D02*
X0088800Y0020812D01*
X0088800Y0020213D02*
X0063800Y0020213D01*
X0063800Y0019615D02*
X0088800Y0019615D01*
X0088800Y0019016D02*
X0063800Y0019016D01*
X0063800Y0018418D02*
X0088800Y0018418D01*
X0088800Y0017819D02*
X0063800Y0017819D01*
X0063800Y0017221D02*
X0088800Y0017221D01*
X0088800Y0017152D02*
X0063800Y0017152D01*
X0063800Y0037152D01*
X0070050Y0043402D01*
X0082550Y0043402D01*
X0088800Y0037152D01*
X0088800Y0017152D01*
X0093800Y0017152D02*
X0118800Y0017152D01*
X0118800Y0037152D01*
X0093800Y0037152D01*
X0093800Y0017152D01*
X0093800Y0017221D02*
X0118800Y0017221D01*
X0118800Y0017819D02*
X0093800Y0017819D01*
X0093800Y0018418D02*
X0118800Y0018418D01*
X0118800Y0019016D02*
X0093800Y0019016D01*
X0093800Y0019615D02*
X0118800Y0019615D01*
X0118800Y0020213D02*
X0093800Y0020213D01*
X0093800Y0020812D02*
X0118800Y0020812D01*
X0118800Y0021410D02*
X0093800Y0021410D01*
X0093800Y0022009D02*
X0118800Y0022009D01*
X0118800Y0022607D02*
X0093800Y0022607D01*
X0093800Y0023206D02*
X0118800Y0023206D01*
X0118800Y0023804D02*
X0093800Y0023804D01*
X0093800Y0024403D02*
X0118800Y0024403D01*
X0118800Y0025001D02*
X0093800Y0025001D01*
X0093800Y0025600D02*
X0118800Y0025600D01*
X0118800Y0026198D02*
X0093800Y0026198D01*
X0093800Y0026797D02*
X0118800Y0026797D01*
X0118800Y0027395D02*
X0093800Y0027395D01*
X0093800Y0027994D02*
X0118800Y0027994D01*
X0118800Y0028592D02*
X0093800Y0028592D01*
X0093800Y0029191D02*
X0118800Y0029191D01*
X0118800Y0029789D02*
X0093800Y0029789D01*
X0093800Y0030388D02*
X0118800Y0030388D01*
X0118800Y0030986D02*
X0093800Y0030986D01*
X0093800Y0031585D02*
X0118800Y0031585D01*
X0118800Y0032184D02*
X0093800Y0032184D01*
X0093800Y0032782D02*
X0118800Y0032782D01*
X0118800Y0033381D02*
X0093800Y0033381D01*
X0093800Y0033979D02*
X0118800Y0033979D01*
X0118800Y0034578D02*
X0093800Y0034578D01*
X0093800Y0035176D02*
X0118800Y0035176D01*
X0118800Y0035775D02*
X0093800Y0035775D01*
X0093800Y0036373D02*
X0118800Y0036373D01*
X0118800Y0036972D02*
X0093800Y0036972D01*
X0088800Y0036972D02*
X0063800Y0036972D01*
X0063800Y0036373D02*
X0088800Y0036373D01*
X0088800Y0035775D02*
X0063800Y0035775D01*
X0064218Y0037570D02*
X0088382Y0037570D01*
X0087783Y0038169D02*
X0064817Y0038169D01*
X0065415Y0038767D02*
X0087185Y0038767D01*
X0086586Y0039366D02*
X0066014Y0039366D01*
X0066612Y0039964D02*
X0085988Y0039964D01*
X0085389Y0040563D02*
X0067211Y0040563D01*
X0067809Y0041161D02*
X0084791Y0041161D01*
X0084192Y0041760D02*
X0068408Y0041760D01*
X0069006Y0042358D02*
X0083594Y0042358D01*
X0082995Y0042957D02*
X0069605Y0042957D01*
X0105050Y0085902D02*
X0091300Y0099652D01*
X0091300Y0125902D01*
X0074951Y0142251D01*
X0058819Y0142251D01*
X0058819Y0152094D02*
X0068858Y0152094D01*
X0095050Y0125902D01*
X0095050Y0100902D01*
X0107550Y0088402D01*
X0182550Y0088402D01*
X0207393Y0113245D01*
X0207393Y0205839D01*
X0198474Y0214758D01*
X0199866Y0216149D02*
X0203800Y0212216D01*
X0203800Y0212152D01*
X0208800Y0207152D01*
X0208800Y0112152D01*
X0182550Y0085902D01*
X0105050Y0085902D01*
X0108800Y0090902D02*
X0098800Y0100902D01*
X0098800Y0127152D01*
X0064016Y0161936D01*
X0058819Y0161936D01*
X0058819Y0171779D02*
X0065423Y0171779D01*
X0102550Y0134652D01*
X0102550Y0100902D01*
X0110050Y0093402D01*
X0182550Y0093402D01*
X0204579Y0115431D01*
X0204579Y0203085D01*
X0195690Y0211974D01*
X0194298Y0210582D02*
X0177728Y0227152D01*
X0153800Y0227152D01*
X0141300Y0214652D01*
X0116300Y0214652D01*
X0113800Y0217152D01*
X0118800Y0217152D02*
X0093800Y0242152D01*
X0093800Y0262152D01*
X0086300Y0269652D01*
X0083800Y0269652D01*
X0083800Y0279652D01*
X0083800Y0259652D02*
X0083800Y0249652D01*
X0083800Y0238481D01*
X0112725Y0209556D01*
X0143163Y0209556D01*
X0155324Y0221717D01*
X0153932Y0223109D02*
X0142975Y0212152D01*
X0142550Y0212152D01*
X0113800Y0212152D01*
X0118800Y0217152D02*
X0141300Y0217152D01*
X0153800Y0229652D01*
X0156300Y0229652D01*
X0158800Y0232152D01*
X0158800Y0233510D01*
X0158867Y0233577D01*
X0158867Y0234878D01*
X0156716Y0237029D01*
X0163676Y0243605D02*
X0165827Y0241454D01*
X0165827Y0241375D01*
X0166300Y0240902D01*
X0166300Y0238402D01*
X0168800Y0242152D02*
X0170050Y0242152D01*
X0168800Y0242152D02*
X0167723Y0243229D01*
X0167602Y0243229D01*
X0165451Y0245380D01*
X0165068Y0245380D01*
X0163676Y0243988D02*
X0163676Y0243605D01*
X0167852Y0248164D02*
X0168235Y0248164D01*
X0170654Y0245745D01*
X0174383Y0245745D01*
X0180207Y0251569D01*
X0180207Y0255235D01*
X0166067Y0269375D01*
X0166300Y0284652D01*
X0156300Y0284652D02*
X0156300Y0277152D01*
X0178800Y0254652D01*
X0178800Y0252152D01*
X0173800Y0247152D01*
X0171648Y0247152D01*
X0169243Y0249556D01*
X0170635Y0250948D02*
X0166931Y0254652D01*
X0162550Y0254652D01*
X0132550Y0284652D01*
X0143800Y0284652D02*
X0143800Y0280567D01*
X0172027Y0252340D01*
X0188731Y0252340D02*
X0188988Y0252340D01*
X0198800Y0262152D01*
X0227550Y0262152D01*
X0238800Y0273402D01*
X0238800Y0332152D01*
X0260050Y0353402D01*
X0290050Y0353402D02*
X0299950Y0343502D01*
X0301300Y0343502D01*
X0290050Y0321202D02*
X0299950Y0311302D01*
X0301300Y0311302D01*
X0290050Y0289002D02*
X0299950Y0279102D01*
X0301300Y0279102D01*
X0290050Y0256802D02*
X0299950Y0246902D01*
X0301300Y0246902D01*
X0290050Y0224602D02*
X0299950Y0214702D01*
X0301300Y0214702D01*
X0290050Y0192402D02*
X0299950Y0182502D01*
X0301300Y0182502D01*
X0290050Y0160202D02*
X0299950Y0150302D01*
X0301300Y0150302D01*
X0275050Y0125902D02*
X0282850Y0118102D01*
X0301300Y0118102D01*
X0290050Y0095802D02*
X0299950Y0085902D01*
X0301300Y0085902D01*
X0298800Y0068402D02*
X0261300Y0068402D01*
X0223800Y0105902D01*
X0223800Y0183402D01*
X0217550Y0184652D02*
X0217550Y0099652D01*
X0261300Y0055902D01*
X0308800Y0055902D01*
X0306300Y0033402D02*
X0306300Y0017694D01*
X0306494Y0017500D01*
X0316300Y0017694D02*
X0316300Y0033402D01*
X0316300Y0017694D02*
X0316494Y0017500D01*
X0361300Y0052152D02*
X0371300Y0062152D01*
X0371300Y0080802D01*
X0371200Y0080902D01*
X0346300Y0080902D01*
X0341300Y0085902D01*
X0331300Y0085902D01*
X0340050Y0113402D02*
X0352550Y0113402D01*
X0357550Y0118402D01*
X0370900Y0118402D01*
X0371300Y0118002D01*
X0367000Y0145902D02*
X0350050Y0145902D01*
X0346500Y0149452D01*
X0346300Y0149452D01*
X0345450Y0150302D01*
X0331300Y0150302D01*
X0338800Y0178402D02*
X0352550Y0178402D01*
X0356300Y0182152D01*
X0371050Y0182152D01*
X0371300Y0182402D01*
X0356300Y0182152D02*
X0355950Y0182502D01*
X0338800Y0178402D02*
X0334700Y0182502D01*
X0331300Y0182502D01*
X0351300Y0209652D02*
X0366350Y0209652D01*
X0371300Y0214602D01*
X0351300Y0209652D02*
X0346300Y0214652D01*
X0346300Y0215102D01*
X0345900Y0214702D01*
X0331300Y0214702D01*
X0340050Y0243402D02*
X0352550Y0243402D01*
X0356300Y0247152D01*
X0370950Y0247152D01*
X0371300Y0246802D01*
X0356300Y0247152D02*
X0356050Y0246902D01*
X0340050Y0243402D02*
X0336550Y0246902D01*
X0331300Y0246902D01*
X0348800Y0275902D02*
X0368200Y0275902D01*
X0371300Y0279002D01*
X0348800Y0275902D02*
X0345200Y0279502D01*
X0346300Y0279502D01*
X0344650Y0279102D01*
X0331300Y0279102D01*
X0338800Y0307152D02*
X0352550Y0307152D01*
X0356300Y0310902D01*
X0359100Y0311202D01*
X0371300Y0311202D01*
X0356300Y0310902D02*
X0353400Y0311302D01*
X0338800Y0307152D02*
X0334650Y0311302D01*
X0331300Y0311302D01*
X0331300Y0343502D02*
X0346200Y0343502D01*
X0346300Y0343402D01*
X0371300Y0343402D01*
X0363397Y0370917D02*
X0363397Y0383265D01*
X0362956Y0383706D01*
X0362956Y0390612D02*
X0358916Y0394652D01*
X0358800Y0394652D01*
X0260050Y0321202D02*
X0240207Y0299809D01*
X0240207Y0272819D01*
X0228133Y0260745D01*
X0199919Y0260745D01*
X0190123Y0250948D01*
X0188988Y0252340D02*
X0188731Y0252340D01*
X0188731Y0252710D01*
X0192906Y0248164D02*
X0203144Y0258402D01*
X0235050Y0258402D01*
X0260050Y0283402D01*
X0260050Y0289002D01*
X0260050Y0256802D02*
X0261300Y0254652D01*
X0202178Y0254652D01*
X0194298Y0246772D01*
X0195690Y0245380D02*
X0202462Y0252152D01*
X0203800Y0252152D01*
X0204875Y0249556D02*
X0207471Y0252152D01*
X0208800Y0252152D01*
X0204875Y0249556D02*
X0202650Y0249556D01*
X0197082Y0243988D01*
X0198474Y0242596D02*
X0198857Y0242596D01*
X0203570Y0247309D01*
X0238133Y0247309D01*
X0258290Y0227152D01*
X0258800Y0227152D01*
X0260050Y0225902D01*
X0260050Y0224602D01*
X0252550Y0230902D02*
X0237550Y0245902D01*
X0204564Y0245902D01*
X0199866Y0241204D01*
X0201258Y0239812D02*
X0198755Y0237309D01*
X0193643Y0237309D01*
X0191300Y0239652D01*
X0188800Y0235902D02*
X0200132Y0235902D01*
X0202650Y0238421D01*
X0205434Y0235637D02*
X0201949Y0232152D01*
X0198800Y0232152D01*
X0206826Y0234245D02*
X0209733Y0237152D01*
X0213800Y0237152D01*
X0216300Y0223402D02*
X0216007Y0223109D01*
X0206826Y0223109D01*
X0205817Y0221717D02*
X0207968Y0219566D01*
X0208885Y0219566D01*
X0208971Y0219652D01*
X0213800Y0219652D01*
X0205817Y0221717D02*
X0205434Y0221717D01*
X0201258Y0217541D02*
X0196648Y0222152D01*
X0196300Y0222152D01*
X0197082Y0213366D02*
X0205986Y0204462D01*
X0205986Y0114338D01*
X0182550Y0090902D01*
X0108800Y0090902D01*
X0112550Y0097152D02*
X0108800Y0100902D01*
X0112550Y0097152D02*
X0162550Y0097152D01*
X0167550Y0102152D01*
X0167550Y0123402D01*
X0163800Y0127152D01*
X0163800Y0159652D01*
X0192393Y0188245D01*
X0192393Y0201352D01*
X0188731Y0205014D01*
X0190123Y0206023D02*
X0190123Y0206406D01*
X0193800Y0202728D01*
X0193800Y0185902D01*
X0192550Y0184652D01*
X0195050Y0183481D02*
X0195050Y0167300D01*
X0178233Y0150483D01*
X0178233Y0135174D01*
X0177691Y0134632D01*
X0196313Y0135010D02*
X0196313Y0150745D01*
X0200050Y0154482D01*
X0200050Y0202152D01*
X0193012Y0209190D01*
X0192906Y0209190D01*
X0191515Y0207798D02*
X0191515Y0207415D01*
X0195207Y0203722D01*
X0195207Y0183638D01*
X0195050Y0183481D01*
X0190986Y0189338D02*
X0162393Y0160745D01*
X0162393Y0107551D01*
X0162590Y0107354D01*
X0152590Y0107354D02*
X0152590Y0119070D01*
X0160986Y0127466D01*
X0160986Y0161328D01*
X0181300Y0181642D01*
X0181300Y0203334D01*
X0176061Y0208572D01*
X0173185Y0208572D01*
X0171018Y0206406D01*
X0170635Y0206406D01*
X0172027Y0205014D02*
X0172219Y0204822D01*
X0174561Y0207165D01*
X0175479Y0207165D01*
X0178800Y0203844D01*
X0178800Y0181132D01*
X0159935Y0162267D01*
X0151070Y0153402D01*
X0134224Y0153402D01*
X0134224Y0153409D01*
X0134224Y0153402D02*
X0134224Y0127809D01*
X0159579Y0161911D02*
X0159935Y0162267D01*
X0134124Y0180236D02*
X0134124Y0193358D01*
X0135065Y0194299D01*
X0135418Y0194652D01*
X0153800Y0194652D01*
X0165701Y0206552D01*
X0165701Y0206656D01*
X0167852Y0208807D01*
X0167852Y0209190D01*
X0166460Y0210582D02*
X0160915Y0205037D01*
X0158030Y0202152D01*
X0127145Y0202152D01*
X0120226Y0195233D01*
X0120406Y0195053D01*
X0120406Y0180236D01*
X0122343Y0178298D01*
X0122343Y0177802D01*
X0132186Y0177802D02*
X0132186Y0178298D01*
X0134124Y0180236D01*
X0158800Y0193402D02*
X0164093Y0193402D01*
X0164444Y0193051D01*
X0166300Y0199652D02*
X0166416Y0199768D01*
X0169934Y0199768D01*
X0173419Y0203252D01*
X0173419Y0203622D01*
X0163676Y0213366D02*
X0154962Y0204652D01*
X0118800Y0204652D01*
X0103800Y0189652D01*
X0026300Y0189652D01*
X0011507Y0204445D01*
X0011507Y0275951D01*
X0019309Y0283753D01*
X0025208Y0279652D02*
X0019309Y0273753D01*
X0025208Y0269652D02*
X0053800Y0269652D01*
X0061300Y0267152D02*
X0053800Y0259652D01*
X0053800Y0249652D02*
X0051300Y0249652D01*
X0041300Y0259652D01*
X0023410Y0259652D01*
X0019309Y0263753D01*
X0025208Y0269652D01*
X0025208Y0279652D02*
X0053800Y0279652D01*
X0056300Y0279652D01*
X0061300Y0274652D01*
X0061300Y0267152D01*
X0061300Y0239652D02*
X0048800Y0239652D01*
X0038800Y0249652D01*
X0023410Y0249652D01*
X0019309Y0253753D01*
X0019309Y0233753D02*
X0013800Y0228244D01*
X0013800Y0212152D01*
X0016300Y0209652D01*
X0038800Y0209652D01*
X0041300Y0207152D01*
X0154678Y0207152D01*
X0162284Y0214758D01*
X0160915Y0205037D02*
X0160530Y0204652D01*
X0142975Y0212152D02*
X0142550Y0212152D01*
X0187339Y0203622D02*
X0190986Y0199975D01*
X0190986Y0189338D01*
X0212550Y0184652D02*
X0212550Y0098402D01*
X0256300Y0054652D01*
X0256300Y0034652D02*
X0256494Y0034458D01*
X0256494Y0017500D01*
X0260050Y0095802D02*
X0260050Y0120902D01*
X0232550Y0148402D01*
X0232550Y0214652D01*
X0228800Y0214652D02*
X0226300Y0217152D01*
X0228800Y0214652D02*
X0228800Y0142152D01*
X0245050Y0125902D01*
X0260050Y0160202D02*
X0260050Y0172152D01*
X0243800Y0188402D01*
X0243800Y0207152D01*
X0226300Y0224652D01*
X0252550Y0230902D02*
X0252550Y0213402D01*
X0260050Y0205902D01*
X0260050Y0192402D01*
X0196691Y0134632D02*
X0196313Y0135010D01*
X0205986Y0114652D02*
X0205986Y0114338D01*
X0088800Y0212152D02*
X0061300Y0239652D01*
X0046421Y0219652D02*
X0053296Y0212777D01*
X0078896Y0212777D01*
X0046421Y0219652D02*
X0023800Y0219652D01*
X0019699Y0223753D01*
X0019309Y0223753D01*
X0058819Y0171779D02*
X0061673Y0171779D01*
X0058819Y0132409D02*
X0067293Y0132409D01*
X0085050Y0114652D01*
X0085050Y0104652D01*
X0188800Y0235902D02*
X0186300Y0238402D01*
X0203800Y0267152D02*
X0203800Y0284652D01*
X0210050Y0282292D02*
X0210050Y0277292D01*
X0210050Y0277152D01*
X0210050Y0265902D01*
X0200050Y0268402D02*
X0200050Y0279050D01*
X0193800Y0284652D01*
X0195050Y0275873D02*
X0183800Y0284652D01*
X0195050Y0275873D02*
X0195050Y0268402D01*
X0210050Y0282292D02*
X0213800Y0284652D01*
X0213800Y0314652D02*
X0216300Y0314652D01*
X0233800Y0332152D01*
X0233800Y0383699D01*
X0218800Y0383699D02*
X0218800Y0329652D01*
X0203800Y0314652D01*
X0201300Y0322152D02*
X0201300Y0381199D01*
X0203800Y0383699D01*
X0188800Y0383699D02*
X0188800Y0319652D01*
X0183800Y0314652D01*
X0173800Y0322152D02*
X0173800Y0383699D01*
X0158800Y0383699D02*
X0158800Y0317152D01*
X0156300Y0314652D01*
X0166300Y0314652D02*
X0173800Y0322152D01*
X0193800Y0314652D02*
X0201300Y0322152D01*
X0143800Y0314652D02*
X0141536Y0314652D01*
X0104935Y0351253D01*
X0104935Y0367778D01*
X0101785Y0367778D02*
X0101785Y0343630D01*
X0130763Y0314652D01*
X0132550Y0314652D01*
X0137678Y0328784D02*
X0143800Y0334906D01*
X0143800Y0383699D01*
X0371300Y0150202D02*
X0367000Y0145902D01*
X0335350Y0118102D02*
X0340050Y0113402D01*
X0335350Y0118102D02*
X0331300Y0118102D01*
D11*
X0124706Y0183077D02*
X0124708Y0183178D01*
X0124714Y0183279D01*
X0124724Y0183380D01*
X0124738Y0183480D01*
X0124756Y0183579D01*
X0124778Y0183678D01*
X0124803Y0183776D01*
X0124833Y0183873D01*
X0124866Y0183968D01*
X0124903Y0184062D01*
X0124944Y0184155D01*
X0124988Y0184246D01*
X0125036Y0184335D01*
X0125088Y0184422D01*
X0125143Y0184507D01*
X0125201Y0184589D01*
X0125262Y0184670D01*
X0125327Y0184748D01*
X0125394Y0184823D01*
X0125464Y0184895D01*
X0125538Y0184965D01*
X0125614Y0185032D01*
X0125692Y0185096D01*
X0125773Y0185156D01*
X0125856Y0185213D01*
X0125942Y0185267D01*
X0126030Y0185318D01*
X0126119Y0185365D01*
X0126210Y0185409D01*
X0126303Y0185448D01*
X0126398Y0185485D01*
X0126493Y0185517D01*
X0126590Y0185546D01*
X0126689Y0185570D01*
X0126787Y0185591D01*
X0126887Y0185608D01*
X0126987Y0185621D01*
X0127088Y0185630D01*
X0127189Y0185635D01*
X0127290Y0185636D01*
X0127391Y0185633D01*
X0127492Y0185626D01*
X0127593Y0185615D01*
X0127693Y0185600D01*
X0127792Y0185581D01*
X0127891Y0185558D01*
X0127988Y0185532D01*
X0128085Y0185501D01*
X0128180Y0185467D01*
X0128273Y0185429D01*
X0128366Y0185387D01*
X0128456Y0185342D01*
X0128545Y0185293D01*
X0128631Y0185241D01*
X0128715Y0185185D01*
X0128798Y0185126D01*
X0128877Y0185064D01*
X0128955Y0184999D01*
X0129029Y0184931D01*
X0129101Y0184859D01*
X0129170Y0184786D01*
X0129236Y0184709D01*
X0129299Y0184630D01*
X0129359Y0184548D01*
X0129415Y0184464D01*
X0129468Y0184378D01*
X0129518Y0184290D01*
X0129564Y0184200D01*
X0129607Y0184109D01*
X0129646Y0184015D01*
X0129681Y0183920D01*
X0129712Y0183824D01*
X0129740Y0183727D01*
X0129764Y0183629D01*
X0129784Y0183530D01*
X0129800Y0183430D01*
X0129812Y0183329D01*
X0129820Y0183229D01*
X0129824Y0183128D01*
X0129824Y0183026D01*
X0129820Y0182925D01*
X0129812Y0182825D01*
X0129800Y0182724D01*
X0129784Y0182624D01*
X0129764Y0182525D01*
X0129740Y0182427D01*
X0129712Y0182330D01*
X0129681Y0182234D01*
X0129646Y0182139D01*
X0129607Y0182045D01*
X0129564Y0181954D01*
X0129518Y0181864D01*
X0129468Y0181776D01*
X0129415Y0181690D01*
X0129359Y0181606D01*
X0129299Y0181524D01*
X0129236Y0181445D01*
X0129170Y0181368D01*
X0129101Y0181295D01*
X0129029Y0181223D01*
X0128955Y0181155D01*
X0128877Y0181090D01*
X0128798Y0181028D01*
X0128715Y0180969D01*
X0128631Y0180913D01*
X0128544Y0180861D01*
X0128456Y0180812D01*
X0128366Y0180767D01*
X0128273Y0180725D01*
X0128180Y0180687D01*
X0128085Y0180653D01*
X0127988Y0180622D01*
X0127891Y0180596D01*
X0127792Y0180573D01*
X0127693Y0180554D01*
X0127593Y0180539D01*
X0127492Y0180528D01*
X0127391Y0180521D01*
X0127290Y0180518D01*
X0127189Y0180519D01*
X0127088Y0180524D01*
X0126987Y0180533D01*
X0126887Y0180546D01*
X0126787Y0180563D01*
X0126689Y0180584D01*
X0126590Y0180608D01*
X0126493Y0180637D01*
X0126398Y0180669D01*
X0126303Y0180706D01*
X0126210Y0180745D01*
X0126119Y0180789D01*
X0126030Y0180836D01*
X0125942Y0180887D01*
X0125856Y0180941D01*
X0125773Y0180998D01*
X0125692Y0181058D01*
X0125614Y0181122D01*
X0125538Y0181189D01*
X0125464Y0181259D01*
X0125394Y0181331D01*
X0125327Y0181406D01*
X0125262Y0181484D01*
X0125201Y0181565D01*
X0125143Y0181647D01*
X0125088Y0181732D01*
X0125036Y0181819D01*
X0124988Y0181908D01*
X0124944Y0181999D01*
X0124903Y0182092D01*
X0124866Y0182186D01*
X0124833Y0182281D01*
X0124803Y0182378D01*
X0124778Y0182476D01*
X0124756Y0182575D01*
X0124738Y0182674D01*
X0124724Y0182774D01*
X0124714Y0182875D01*
X0124708Y0182976D01*
X0124706Y0183077D01*
X0017362Y0171779D02*
X0017364Y0171894D01*
X0017370Y0172010D01*
X0017380Y0172125D01*
X0017394Y0172240D01*
X0017412Y0172354D01*
X0017434Y0172467D01*
X0017459Y0172580D01*
X0017489Y0172691D01*
X0017522Y0172802D01*
X0017559Y0172911D01*
X0017600Y0173019D01*
X0017645Y0173126D01*
X0017693Y0173231D01*
X0017745Y0173334D01*
X0017801Y0173435D01*
X0017860Y0173535D01*
X0017922Y0173632D01*
X0017988Y0173727D01*
X0018056Y0173820D01*
X0018128Y0173910D01*
X0018203Y0173998D01*
X0018282Y0174083D01*
X0018363Y0174165D01*
X0018446Y0174245D01*
X0018533Y0174321D01*
X0018622Y0174395D01*
X0018713Y0174465D01*
X0018807Y0174533D01*
X0018903Y0174597D01*
X0019002Y0174657D01*
X0019102Y0174714D01*
X0019204Y0174768D01*
X0019308Y0174818D01*
X0019414Y0174865D01*
X0019521Y0174908D01*
X0019630Y0174947D01*
X0019740Y0174982D01*
X0019851Y0175013D01*
X0019963Y0175041D01*
X0020076Y0175065D01*
X0020190Y0175085D01*
X0020305Y0175101D01*
X0020420Y0175113D01*
X0020535Y0175121D01*
X0020650Y0175125D01*
X0020766Y0175125D01*
X0020881Y0175121D01*
X0020996Y0175113D01*
X0021111Y0175101D01*
X0021226Y0175085D01*
X0021340Y0175065D01*
X0021453Y0175041D01*
X0021565Y0175013D01*
X0021676Y0174982D01*
X0021786Y0174947D01*
X0021895Y0174908D01*
X0022002Y0174865D01*
X0022108Y0174818D01*
X0022212Y0174768D01*
X0022314Y0174714D01*
X0022414Y0174657D01*
X0022513Y0174597D01*
X0022609Y0174533D01*
X0022703Y0174465D01*
X0022794Y0174395D01*
X0022883Y0174321D01*
X0022970Y0174245D01*
X0023053Y0174165D01*
X0023134Y0174083D01*
X0023213Y0173998D01*
X0023288Y0173910D01*
X0023360Y0173820D01*
X0023428Y0173727D01*
X0023494Y0173632D01*
X0023556Y0173535D01*
X0023615Y0173435D01*
X0023671Y0173334D01*
X0023723Y0173231D01*
X0023771Y0173126D01*
X0023816Y0173019D01*
X0023857Y0172911D01*
X0023894Y0172802D01*
X0023927Y0172691D01*
X0023957Y0172580D01*
X0023982Y0172467D01*
X0024004Y0172354D01*
X0024022Y0172240D01*
X0024036Y0172125D01*
X0024046Y0172010D01*
X0024052Y0171894D01*
X0024054Y0171779D01*
X0024052Y0171664D01*
X0024046Y0171548D01*
X0024036Y0171433D01*
X0024022Y0171318D01*
X0024004Y0171204D01*
X0023982Y0171091D01*
X0023957Y0170978D01*
X0023927Y0170867D01*
X0023894Y0170756D01*
X0023857Y0170647D01*
X0023816Y0170539D01*
X0023771Y0170432D01*
X0023723Y0170327D01*
X0023671Y0170224D01*
X0023615Y0170123D01*
X0023556Y0170023D01*
X0023494Y0169926D01*
X0023428Y0169831D01*
X0023360Y0169738D01*
X0023288Y0169648D01*
X0023213Y0169560D01*
X0023134Y0169475D01*
X0023053Y0169393D01*
X0022970Y0169313D01*
X0022883Y0169237D01*
X0022794Y0169163D01*
X0022703Y0169093D01*
X0022609Y0169025D01*
X0022513Y0168961D01*
X0022414Y0168901D01*
X0022314Y0168844D01*
X0022212Y0168790D01*
X0022108Y0168740D01*
X0022002Y0168693D01*
X0021895Y0168650D01*
X0021786Y0168611D01*
X0021676Y0168576D01*
X0021565Y0168545D01*
X0021453Y0168517D01*
X0021340Y0168493D01*
X0021226Y0168473D01*
X0021111Y0168457D01*
X0020996Y0168445D01*
X0020881Y0168437D01*
X0020766Y0168433D01*
X0020650Y0168433D01*
X0020535Y0168437D01*
X0020420Y0168445D01*
X0020305Y0168457D01*
X0020190Y0168473D01*
X0020076Y0168493D01*
X0019963Y0168517D01*
X0019851Y0168545D01*
X0019740Y0168576D01*
X0019630Y0168611D01*
X0019521Y0168650D01*
X0019414Y0168693D01*
X0019308Y0168740D01*
X0019204Y0168790D01*
X0019102Y0168844D01*
X0019002Y0168901D01*
X0018903Y0168961D01*
X0018807Y0169025D01*
X0018713Y0169093D01*
X0018622Y0169163D01*
X0018533Y0169237D01*
X0018446Y0169313D01*
X0018363Y0169393D01*
X0018282Y0169475D01*
X0018203Y0169560D01*
X0018128Y0169648D01*
X0018056Y0169738D01*
X0017988Y0169831D01*
X0017922Y0169926D01*
X0017860Y0170023D01*
X0017801Y0170123D01*
X0017745Y0170224D01*
X0017693Y0170327D01*
X0017645Y0170432D01*
X0017600Y0170539D01*
X0017559Y0170647D01*
X0017522Y0170756D01*
X0017489Y0170867D01*
X0017459Y0170978D01*
X0017434Y0171091D01*
X0017412Y0171204D01*
X0017394Y0171318D01*
X0017380Y0171433D01*
X0017370Y0171548D01*
X0017364Y0171664D01*
X0017362Y0171779D01*
X0017362Y0122566D02*
X0017364Y0122681D01*
X0017370Y0122797D01*
X0017380Y0122912D01*
X0017394Y0123027D01*
X0017412Y0123141D01*
X0017434Y0123254D01*
X0017459Y0123367D01*
X0017489Y0123478D01*
X0017522Y0123589D01*
X0017559Y0123698D01*
X0017600Y0123806D01*
X0017645Y0123913D01*
X0017693Y0124018D01*
X0017745Y0124121D01*
X0017801Y0124222D01*
X0017860Y0124322D01*
X0017922Y0124419D01*
X0017988Y0124514D01*
X0018056Y0124607D01*
X0018128Y0124697D01*
X0018203Y0124785D01*
X0018282Y0124870D01*
X0018363Y0124952D01*
X0018446Y0125032D01*
X0018533Y0125108D01*
X0018622Y0125182D01*
X0018713Y0125252D01*
X0018807Y0125320D01*
X0018903Y0125384D01*
X0019002Y0125444D01*
X0019102Y0125501D01*
X0019204Y0125555D01*
X0019308Y0125605D01*
X0019414Y0125652D01*
X0019521Y0125695D01*
X0019630Y0125734D01*
X0019740Y0125769D01*
X0019851Y0125800D01*
X0019963Y0125828D01*
X0020076Y0125852D01*
X0020190Y0125872D01*
X0020305Y0125888D01*
X0020420Y0125900D01*
X0020535Y0125908D01*
X0020650Y0125912D01*
X0020766Y0125912D01*
X0020881Y0125908D01*
X0020996Y0125900D01*
X0021111Y0125888D01*
X0021226Y0125872D01*
X0021340Y0125852D01*
X0021453Y0125828D01*
X0021565Y0125800D01*
X0021676Y0125769D01*
X0021786Y0125734D01*
X0021895Y0125695D01*
X0022002Y0125652D01*
X0022108Y0125605D01*
X0022212Y0125555D01*
X0022314Y0125501D01*
X0022414Y0125444D01*
X0022513Y0125384D01*
X0022609Y0125320D01*
X0022703Y0125252D01*
X0022794Y0125182D01*
X0022883Y0125108D01*
X0022970Y0125032D01*
X0023053Y0124952D01*
X0023134Y0124870D01*
X0023213Y0124785D01*
X0023288Y0124697D01*
X0023360Y0124607D01*
X0023428Y0124514D01*
X0023494Y0124419D01*
X0023556Y0124322D01*
X0023615Y0124222D01*
X0023671Y0124121D01*
X0023723Y0124018D01*
X0023771Y0123913D01*
X0023816Y0123806D01*
X0023857Y0123698D01*
X0023894Y0123589D01*
X0023927Y0123478D01*
X0023957Y0123367D01*
X0023982Y0123254D01*
X0024004Y0123141D01*
X0024022Y0123027D01*
X0024036Y0122912D01*
X0024046Y0122797D01*
X0024052Y0122681D01*
X0024054Y0122566D01*
X0024052Y0122451D01*
X0024046Y0122335D01*
X0024036Y0122220D01*
X0024022Y0122105D01*
X0024004Y0121991D01*
X0023982Y0121878D01*
X0023957Y0121765D01*
X0023927Y0121654D01*
X0023894Y0121543D01*
X0023857Y0121434D01*
X0023816Y0121326D01*
X0023771Y0121219D01*
X0023723Y0121114D01*
X0023671Y0121011D01*
X0023615Y0120910D01*
X0023556Y0120810D01*
X0023494Y0120713D01*
X0023428Y0120618D01*
X0023360Y0120525D01*
X0023288Y0120435D01*
X0023213Y0120347D01*
X0023134Y0120262D01*
X0023053Y0120180D01*
X0022970Y0120100D01*
X0022883Y0120024D01*
X0022794Y0119950D01*
X0022703Y0119880D01*
X0022609Y0119812D01*
X0022513Y0119748D01*
X0022414Y0119688D01*
X0022314Y0119631D01*
X0022212Y0119577D01*
X0022108Y0119527D01*
X0022002Y0119480D01*
X0021895Y0119437D01*
X0021786Y0119398D01*
X0021676Y0119363D01*
X0021565Y0119332D01*
X0021453Y0119304D01*
X0021340Y0119280D01*
X0021226Y0119260D01*
X0021111Y0119244D01*
X0020996Y0119232D01*
X0020881Y0119224D01*
X0020766Y0119220D01*
X0020650Y0119220D01*
X0020535Y0119224D01*
X0020420Y0119232D01*
X0020305Y0119244D01*
X0020190Y0119260D01*
X0020076Y0119280D01*
X0019963Y0119304D01*
X0019851Y0119332D01*
X0019740Y0119363D01*
X0019630Y0119398D01*
X0019521Y0119437D01*
X0019414Y0119480D01*
X0019308Y0119527D01*
X0019204Y0119577D01*
X0019102Y0119631D01*
X0019002Y0119688D01*
X0018903Y0119748D01*
X0018807Y0119812D01*
X0018713Y0119880D01*
X0018622Y0119950D01*
X0018533Y0120024D01*
X0018446Y0120100D01*
X0018363Y0120180D01*
X0018282Y0120262D01*
X0018203Y0120347D01*
X0018128Y0120435D01*
X0018056Y0120525D01*
X0017988Y0120618D01*
X0017922Y0120713D01*
X0017860Y0120810D01*
X0017801Y0120910D01*
X0017745Y0121011D01*
X0017693Y0121114D01*
X0017645Y0121219D01*
X0017600Y0121326D01*
X0017559Y0121434D01*
X0017522Y0121543D01*
X0017489Y0121654D01*
X0017459Y0121765D01*
X0017434Y0121878D01*
X0017412Y0121991D01*
X0017394Y0122105D01*
X0017380Y0122220D01*
X0017370Y0122335D01*
X0017364Y0122451D01*
X0017362Y0122566D01*
X0006474Y0072969D02*
X0006476Y0073081D01*
X0006482Y0073192D01*
X0006492Y0073304D01*
X0006506Y0073415D01*
X0006523Y0073525D01*
X0006545Y0073635D01*
X0006571Y0073744D01*
X0006600Y0073852D01*
X0006633Y0073958D01*
X0006670Y0074064D01*
X0006711Y0074168D01*
X0006756Y0074271D01*
X0006804Y0074372D01*
X0006855Y0074471D01*
X0006910Y0074568D01*
X0006969Y0074663D01*
X0007030Y0074757D01*
X0007095Y0074848D01*
X0007164Y0074936D01*
X0007235Y0075022D01*
X0007309Y0075106D01*
X0007387Y0075186D01*
X0007467Y0075264D01*
X0007550Y0075340D01*
X0007635Y0075412D01*
X0007723Y0075481D01*
X0007813Y0075547D01*
X0007906Y0075609D01*
X0008001Y0075669D01*
X0008098Y0075725D01*
X0008196Y0075777D01*
X0008297Y0075826D01*
X0008399Y0075871D01*
X0008503Y0075913D01*
X0008608Y0075951D01*
X0008715Y0075985D01*
X0008822Y0076015D01*
X0008931Y0076042D01*
X0009040Y0076064D01*
X0009151Y0076083D01*
X0009261Y0076098D01*
X0009373Y0076109D01*
X0009484Y0076116D01*
X0009596Y0076119D01*
X0009708Y0076118D01*
X0009820Y0076113D01*
X0009931Y0076104D01*
X0010042Y0076091D01*
X0010153Y0076074D01*
X0010263Y0076054D01*
X0010372Y0076029D01*
X0010480Y0076001D01*
X0010587Y0075968D01*
X0010693Y0075932D01*
X0010797Y0075892D01*
X0010900Y0075849D01*
X0011002Y0075802D01*
X0011101Y0075751D01*
X0011199Y0075697D01*
X0011295Y0075639D01*
X0011389Y0075578D01*
X0011480Y0075514D01*
X0011569Y0075447D01*
X0011656Y0075376D01*
X0011740Y0075302D01*
X0011822Y0075226D01*
X0011900Y0075146D01*
X0011976Y0075064D01*
X0012049Y0074979D01*
X0012119Y0074892D01*
X0012185Y0074802D01*
X0012249Y0074710D01*
X0012309Y0074616D01*
X0012366Y0074520D01*
X0012419Y0074421D01*
X0012469Y0074321D01*
X0012515Y0074220D01*
X0012558Y0074116D01*
X0012597Y0074011D01*
X0012632Y0073905D01*
X0012663Y0073798D01*
X0012691Y0073689D01*
X0012714Y0073580D01*
X0012734Y0073470D01*
X0012750Y0073359D01*
X0012762Y0073248D01*
X0012770Y0073137D01*
X0012774Y0073025D01*
X0012774Y0072913D01*
X0012770Y0072801D01*
X0012762Y0072690D01*
X0012750Y0072579D01*
X0012734Y0072468D01*
X0012714Y0072358D01*
X0012691Y0072249D01*
X0012663Y0072140D01*
X0012632Y0072033D01*
X0012597Y0071927D01*
X0012558Y0071822D01*
X0012515Y0071718D01*
X0012469Y0071617D01*
X0012419Y0071517D01*
X0012366Y0071418D01*
X0012309Y0071322D01*
X0012249Y0071228D01*
X0012185Y0071136D01*
X0012119Y0071046D01*
X0012049Y0070959D01*
X0011976Y0070874D01*
X0011900Y0070792D01*
X0011822Y0070712D01*
X0011740Y0070636D01*
X0011656Y0070562D01*
X0011569Y0070491D01*
X0011480Y0070424D01*
X0011389Y0070360D01*
X0011295Y0070299D01*
X0011199Y0070241D01*
X0011101Y0070187D01*
X0011002Y0070136D01*
X0010900Y0070089D01*
X0010797Y0070046D01*
X0010693Y0070006D01*
X0010587Y0069970D01*
X0010480Y0069937D01*
X0010372Y0069909D01*
X0010263Y0069884D01*
X0010153Y0069864D01*
X0010042Y0069847D01*
X0009931Y0069834D01*
X0009820Y0069825D01*
X0009708Y0069820D01*
X0009596Y0069819D01*
X0009484Y0069822D01*
X0009373Y0069829D01*
X0009261Y0069840D01*
X0009151Y0069855D01*
X0009040Y0069874D01*
X0008931Y0069896D01*
X0008822Y0069923D01*
X0008715Y0069953D01*
X0008608Y0069987D01*
X0008503Y0070025D01*
X0008399Y0070067D01*
X0008297Y0070112D01*
X0008196Y0070161D01*
X0008098Y0070213D01*
X0008001Y0070269D01*
X0007906Y0070329D01*
X0007813Y0070391D01*
X0007723Y0070457D01*
X0007635Y0070526D01*
X0007550Y0070598D01*
X0007467Y0070674D01*
X0007387Y0070752D01*
X0007309Y0070832D01*
X0007235Y0070916D01*
X0007164Y0071002D01*
X0007095Y0071090D01*
X0007030Y0071181D01*
X0006969Y0071275D01*
X0006910Y0071370D01*
X0006855Y0071467D01*
X0006804Y0071566D01*
X0006756Y0071667D01*
X0006711Y0071770D01*
X0006670Y0071874D01*
X0006633Y0071980D01*
X0006600Y0072086D01*
X0006571Y0072194D01*
X0006545Y0072303D01*
X0006523Y0072413D01*
X0006506Y0072523D01*
X0006492Y0072634D01*
X0006482Y0072746D01*
X0006476Y0072857D01*
X0006474Y0072969D01*
X0023798Y0072969D02*
X0023800Y0073087D01*
X0023806Y0073206D01*
X0023816Y0073324D01*
X0023830Y0073441D01*
X0023847Y0073558D01*
X0023869Y0073675D01*
X0023895Y0073790D01*
X0023924Y0073905D01*
X0023957Y0074019D01*
X0023994Y0074131D01*
X0024035Y0074242D01*
X0024079Y0074352D01*
X0024127Y0074460D01*
X0024179Y0074567D01*
X0024234Y0074672D01*
X0024293Y0074775D01*
X0024355Y0074875D01*
X0024420Y0074974D01*
X0024489Y0075071D01*
X0024560Y0075165D01*
X0024635Y0075256D01*
X0024713Y0075346D01*
X0024794Y0075432D01*
X0024878Y0075516D01*
X0024964Y0075597D01*
X0025054Y0075675D01*
X0025145Y0075750D01*
X0025239Y0075821D01*
X0025336Y0075890D01*
X0025435Y0075955D01*
X0025535Y0076017D01*
X0025638Y0076076D01*
X0025743Y0076131D01*
X0025850Y0076183D01*
X0025958Y0076231D01*
X0026068Y0076275D01*
X0026179Y0076316D01*
X0026291Y0076353D01*
X0026405Y0076386D01*
X0026520Y0076415D01*
X0026635Y0076441D01*
X0026752Y0076463D01*
X0026869Y0076480D01*
X0026986Y0076494D01*
X0027104Y0076504D01*
X0027223Y0076510D01*
X0027341Y0076512D01*
X0027459Y0076510D01*
X0027578Y0076504D01*
X0027696Y0076494D01*
X0027813Y0076480D01*
X0027930Y0076463D01*
X0028047Y0076441D01*
X0028162Y0076415D01*
X0028277Y0076386D01*
X0028391Y0076353D01*
X0028503Y0076316D01*
X0028614Y0076275D01*
X0028724Y0076231D01*
X0028832Y0076183D01*
X0028939Y0076131D01*
X0029044Y0076076D01*
X0029147Y0076017D01*
X0029247Y0075955D01*
X0029346Y0075890D01*
X0029443Y0075821D01*
X0029537Y0075750D01*
X0029628Y0075675D01*
X0029718Y0075597D01*
X0029804Y0075516D01*
X0029888Y0075432D01*
X0029969Y0075346D01*
X0030047Y0075256D01*
X0030122Y0075165D01*
X0030193Y0075071D01*
X0030262Y0074974D01*
X0030327Y0074875D01*
X0030389Y0074775D01*
X0030448Y0074672D01*
X0030503Y0074567D01*
X0030555Y0074460D01*
X0030603Y0074352D01*
X0030647Y0074242D01*
X0030688Y0074131D01*
X0030725Y0074019D01*
X0030758Y0073905D01*
X0030787Y0073790D01*
X0030813Y0073675D01*
X0030835Y0073558D01*
X0030852Y0073441D01*
X0030866Y0073324D01*
X0030876Y0073206D01*
X0030882Y0073087D01*
X0030884Y0072969D01*
X0030882Y0072851D01*
X0030876Y0072732D01*
X0030866Y0072614D01*
X0030852Y0072497D01*
X0030835Y0072380D01*
X0030813Y0072263D01*
X0030787Y0072148D01*
X0030758Y0072033D01*
X0030725Y0071919D01*
X0030688Y0071807D01*
X0030647Y0071696D01*
X0030603Y0071586D01*
X0030555Y0071478D01*
X0030503Y0071371D01*
X0030448Y0071266D01*
X0030389Y0071163D01*
X0030327Y0071063D01*
X0030262Y0070964D01*
X0030193Y0070867D01*
X0030122Y0070773D01*
X0030047Y0070682D01*
X0029969Y0070592D01*
X0029888Y0070506D01*
X0029804Y0070422D01*
X0029718Y0070341D01*
X0029628Y0070263D01*
X0029537Y0070188D01*
X0029443Y0070117D01*
X0029346Y0070048D01*
X0029247Y0069983D01*
X0029147Y0069921D01*
X0029044Y0069862D01*
X0028939Y0069807D01*
X0028832Y0069755D01*
X0028724Y0069707D01*
X0028614Y0069663D01*
X0028503Y0069622D01*
X0028391Y0069585D01*
X0028277Y0069552D01*
X0028162Y0069523D01*
X0028047Y0069497D01*
X0027930Y0069475D01*
X0027813Y0069458D01*
X0027696Y0069444D01*
X0027578Y0069434D01*
X0027459Y0069428D01*
X0027341Y0069426D01*
X0027223Y0069428D01*
X0027104Y0069434D01*
X0026986Y0069444D01*
X0026869Y0069458D01*
X0026752Y0069475D01*
X0026635Y0069497D01*
X0026520Y0069523D01*
X0026405Y0069552D01*
X0026291Y0069585D01*
X0026179Y0069622D01*
X0026068Y0069663D01*
X0025958Y0069707D01*
X0025850Y0069755D01*
X0025743Y0069807D01*
X0025638Y0069862D01*
X0025535Y0069921D01*
X0025435Y0069983D01*
X0025336Y0070048D01*
X0025239Y0070117D01*
X0025145Y0070188D01*
X0025054Y0070263D01*
X0024964Y0070341D01*
X0024878Y0070422D01*
X0024794Y0070506D01*
X0024713Y0070592D01*
X0024635Y0070682D01*
X0024560Y0070773D01*
X0024489Y0070867D01*
X0024420Y0070964D01*
X0024355Y0071063D01*
X0024293Y0071163D01*
X0024234Y0071266D01*
X0024179Y0071371D01*
X0024127Y0071478D01*
X0024079Y0071586D01*
X0024035Y0071696D01*
X0023994Y0071807D01*
X0023957Y0071919D01*
X0023924Y0072033D01*
X0023895Y0072148D01*
X0023869Y0072263D01*
X0023847Y0072380D01*
X0023830Y0072497D01*
X0023816Y0072614D01*
X0023806Y0072732D01*
X0023800Y0072851D01*
X0023798Y0072969D01*
X0091352Y0377621D02*
X0091354Y0377705D01*
X0091360Y0377788D01*
X0091370Y0377871D01*
X0091384Y0377954D01*
X0091401Y0378036D01*
X0091423Y0378117D01*
X0091448Y0378196D01*
X0091477Y0378275D01*
X0091510Y0378352D01*
X0091546Y0378427D01*
X0091586Y0378501D01*
X0091629Y0378573D01*
X0091676Y0378642D01*
X0091726Y0378709D01*
X0091779Y0378774D01*
X0091835Y0378836D01*
X0091893Y0378896D01*
X0091955Y0378953D01*
X0092019Y0379006D01*
X0092086Y0379057D01*
X0092155Y0379104D01*
X0092226Y0379149D01*
X0092299Y0379189D01*
X0092374Y0379226D01*
X0092451Y0379260D01*
X0092529Y0379290D01*
X0092608Y0379316D01*
X0092689Y0379339D01*
X0092771Y0379357D01*
X0092853Y0379372D01*
X0092936Y0379383D01*
X0093019Y0379390D01*
X0093103Y0379393D01*
X0093187Y0379392D01*
X0093270Y0379387D01*
X0093354Y0379378D01*
X0093436Y0379365D01*
X0093518Y0379349D01*
X0093599Y0379328D01*
X0093680Y0379304D01*
X0093758Y0379276D01*
X0093836Y0379244D01*
X0093912Y0379208D01*
X0093986Y0379169D01*
X0094058Y0379127D01*
X0094128Y0379081D01*
X0094196Y0379032D01*
X0094261Y0378980D01*
X0094324Y0378925D01*
X0094384Y0378867D01*
X0094442Y0378806D01*
X0094496Y0378742D01*
X0094548Y0378676D01*
X0094596Y0378608D01*
X0094641Y0378537D01*
X0094682Y0378464D01*
X0094721Y0378390D01*
X0094755Y0378314D01*
X0094786Y0378236D01*
X0094813Y0378157D01*
X0094837Y0378076D01*
X0094856Y0377995D01*
X0094872Y0377913D01*
X0094884Y0377830D01*
X0094892Y0377746D01*
X0094896Y0377663D01*
X0094896Y0377579D01*
X0094892Y0377496D01*
X0094884Y0377412D01*
X0094872Y0377329D01*
X0094856Y0377247D01*
X0094837Y0377166D01*
X0094813Y0377085D01*
X0094786Y0377006D01*
X0094755Y0376928D01*
X0094721Y0376852D01*
X0094682Y0376778D01*
X0094641Y0376705D01*
X0094596Y0376634D01*
X0094548Y0376566D01*
X0094496Y0376500D01*
X0094442Y0376436D01*
X0094384Y0376375D01*
X0094324Y0376317D01*
X0094261Y0376262D01*
X0094196Y0376210D01*
X0094128Y0376161D01*
X0094058Y0376115D01*
X0093986Y0376073D01*
X0093912Y0376034D01*
X0093836Y0375998D01*
X0093758Y0375966D01*
X0093680Y0375938D01*
X0093599Y0375914D01*
X0093518Y0375893D01*
X0093436Y0375877D01*
X0093354Y0375864D01*
X0093270Y0375855D01*
X0093187Y0375850D01*
X0093103Y0375849D01*
X0093019Y0375852D01*
X0092936Y0375859D01*
X0092853Y0375870D01*
X0092771Y0375885D01*
X0092689Y0375903D01*
X0092608Y0375926D01*
X0092529Y0375952D01*
X0092451Y0375982D01*
X0092374Y0376016D01*
X0092299Y0376053D01*
X0092226Y0376093D01*
X0092155Y0376138D01*
X0092086Y0376185D01*
X0092019Y0376236D01*
X0091955Y0376289D01*
X0091893Y0376346D01*
X0091835Y0376406D01*
X0091779Y0376468D01*
X0091726Y0376533D01*
X0091676Y0376600D01*
X0091629Y0376669D01*
X0091586Y0376741D01*
X0091546Y0376815D01*
X0091510Y0376890D01*
X0091477Y0376967D01*
X0091448Y0377046D01*
X0091423Y0377125D01*
X0091401Y0377206D01*
X0091384Y0377288D01*
X0091370Y0377371D01*
X0091360Y0377454D01*
X0091354Y0377537D01*
X0091352Y0377621D01*
X0108674Y0377621D02*
X0108676Y0377705D01*
X0108682Y0377788D01*
X0108692Y0377871D01*
X0108706Y0377954D01*
X0108723Y0378036D01*
X0108745Y0378117D01*
X0108770Y0378196D01*
X0108799Y0378275D01*
X0108832Y0378352D01*
X0108868Y0378427D01*
X0108908Y0378501D01*
X0108951Y0378573D01*
X0108998Y0378642D01*
X0109048Y0378709D01*
X0109101Y0378774D01*
X0109157Y0378836D01*
X0109215Y0378896D01*
X0109277Y0378953D01*
X0109341Y0379006D01*
X0109408Y0379057D01*
X0109477Y0379104D01*
X0109548Y0379149D01*
X0109621Y0379189D01*
X0109696Y0379226D01*
X0109773Y0379260D01*
X0109851Y0379290D01*
X0109930Y0379316D01*
X0110011Y0379339D01*
X0110093Y0379357D01*
X0110175Y0379372D01*
X0110258Y0379383D01*
X0110341Y0379390D01*
X0110425Y0379393D01*
X0110509Y0379392D01*
X0110592Y0379387D01*
X0110676Y0379378D01*
X0110758Y0379365D01*
X0110840Y0379349D01*
X0110921Y0379328D01*
X0111002Y0379304D01*
X0111080Y0379276D01*
X0111158Y0379244D01*
X0111234Y0379208D01*
X0111308Y0379169D01*
X0111380Y0379127D01*
X0111450Y0379081D01*
X0111518Y0379032D01*
X0111583Y0378980D01*
X0111646Y0378925D01*
X0111706Y0378867D01*
X0111764Y0378806D01*
X0111818Y0378742D01*
X0111870Y0378676D01*
X0111918Y0378608D01*
X0111963Y0378537D01*
X0112004Y0378464D01*
X0112043Y0378390D01*
X0112077Y0378314D01*
X0112108Y0378236D01*
X0112135Y0378157D01*
X0112159Y0378076D01*
X0112178Y0377995D01*
X0112194Y0377913D01*
X0112206Y0377830D01*
X0112214Y0377746D01*
X0112218Y0377663D01*
X0112218Y0377579D01*
X0112214Y0377496D01*
X0112206Y0377412D01*
X0112194Y0377329D01*
X0112178Y0377247D01*
X0112159Y0377166D01*
X0112135Y0377085D01*
X0112108Y0377006D01*
X0112077Y0376928D01*
X0112043Y0376852D01*
X0112004Y0376778D01*
X0111963Y0376705D01*
X0111918Y0376634D01*
X0111870Y0376566D01*
X0111818Y0376500D01*
X0111764Y0376436D01*
X0111706Y0376375D01*
X0111646Y0376317D01*
X0111583Y0376262D01*
X0111518Y0376210D01*
X0111450Y0376161D01*
X0111380Y0376115D01*
X0111308Y0376073D01*
X0111234Y0376034D01*
X0111158Y0375998D01*
X0111080Y0375966D01*
X0111002Y0375938D01*
X0110921Y0375914D01*
X0110840Y0375893D01*
X0110758Y0375877D01*
X0110676Y0375864D01*
X0110592Y0375855D01*
X0110509Y0375850D01*
X0110425Y0375849D01*
X0110341Y0375852D01*
X0110258Y0375859D01*
X0110175Y0375870D01*
X0110093Y0375885D01*
X0110011Y0375903D01*
X0109930Y0375926D01*
X0109851Y0375952D01*
X0109773Y0375982D01*
X0109696Y0376016D01*
X0109621Y0376053D01*
X0109548Y0376093D01*
X0109477Y0376138D01*
X0109408Y0376185D01*
X0109341Y0376236D01*
X0109277Y0376289D01*
X0109215Y0376346D01*
X0109157Y0376406D01*
X0109101Y0376468D01*
X0109048Y0376533D01*
X0108998Y0376600D01*
X0108951Y0376669D01*
X0108908Y0376741D01*
X0108868Y0376815D01*
X0108832Y0376890D01*
X0108799Y0376967D01*
X0108770Y0377046D01*
X0108745Y0377125D01*
X0108723Y0377206D01*
X0108706Y0377288D01*
X0108692Y0377371D01*
X0108682Y0377454D01*
X0108676Y0377537D01*
X0108674Y0377621D01*
X0007375Y0392152D02*
X0007377Y0392312D01*
X0007383Y0392472D01*
X0007393Y0392632D01*
X0007407Y0392792D01*
X0007425Y0392951D01*
X0007447Y0393110D01*
X0007473Y0393268D01*
X0007502Y0393425D01*
X0007536Y0393582D01*
X0007574Y0393737D01*
X0007615Y0393892D01*
X0007660Y0394046D01*
X0007710Y0394198D01*
X0007762Y0394349D01*
X0007819Y0394499D01*
X0007880Y0394648D01*
X0007944Y0394795D01*
X0008011Y0394940D01*
X0008083Y0395083D01*
X0008157Y0395225D01*
X0008236Y0395365D01*
X0008318Y0395502D01*
X0008403Y0395638D01*
X0008491Y0395771D01*
X0008583Y0395903D01*
X0008678Y0396031D01*
X0008777Y0396158D01*
X0008878Y0396282D01*
X0008983Y0396403D01*
X0009090Y0396522D01*
X0009201Y0396638D01*
X0009314Y0396751D01*
X0009430Y0396862D01*
X0009549Y0396969D01*
X0009670Y0397074D01*
X0009794Y0397175D01*
X0009921Y0397274D01*
X0010049Y0397369D01*
X0010181Y0397461D01*
X0010314Y0397549D01*
X0010450Y0397634D01*
X0010588Y0397716D01*
X0010727Y0397795D01*
X0010869Y0397869D01*
X0011012Y0397941D01*
X0011157Y0398008D01*
X0011304Y0398072D01*
X0011453Y0398133D01*
X0011603Y0398190D01*
X0011754Y0398242D01*
X0011906Y0398292D01*
X0012060Y0398337D01*
X0012215Y0398378D01*
X0012370Y0398416D01*
X0012527Y0398450D01*
X0012684Y0398479D01*
X0012842Y0398505D01*
X0013001Y0398527D01*
X0013160Y0398545D01*
X0013320Y0398559D01*
X0013480Y0398569D01*
X0013640Y0398575D01*
X0013800Y0398577D01*
X0013960Y0398575D01*
X0014120Y0398569D01*
X0014280Y0398559D01*
X0014440Y0398545D01*
X0014599Y0398527D01*
X0014758Y0398505D01*
X0014916Y0398479D01*
X0015073Y0398450D01*
X0015230Y0398416D01*
X0015385Y0398378D01*
X0015540Y0398337D01*
X0015694Y0398292D01*
X0015846Y0398242D01*
X0015997Y0398190D01*
X0016147Y0398133D01*
X0016296Y0398072D01*
X0016443Y0398008D01*
X0016588Y0397941D01*
X0016731Y0397869D01*
X0016873Y0397795D01*
X0017013Y0397716D01*
X0017150Y0397634D01*
X0017286Y0397549D01*
X0017419Y0397461D01*
X0017551Y0397369D01*
X0017679Y0397274D01*
X0017806Y0397175D01*
X0017930Y0397074D01*
X0018051Y0396969D01*
X0018170Y0396862D01*
X0018286Y0396751D01*
X0018399Y0396638D01*
X0018510Y0396522D01*
X0018617Y0396403D01*
X0018722Y0396282D01*
X0018823Y0396158D01*
X0018922Y0396031D01*
X0019017Y0395903D01*
X0019109Y0395771D01*
X0019197Y0395638D01*
X0019282Y0395502D01*
X0019364Y0395364D01*
X0019443Y0395225D01*
X0019517Y0395083D01*
X0019589Y0394940D01*
X0019656Y0394795D01*
X0019720Y0394648D01*
X0019781Y0394499D01*
X0019838Y0394349D01*
X0019890Y0394198D01*
X0019940Y0394046D01*
X0019985Y0393892D01*
X0020026Y0393737D01*
X0020064Y0393582D01*
X0020098Y0393425D01*
X0020127Y0393268D01*
X0020153Y0393110D01*
X0020175Y0392951D01*
X0020193Y0392792D01*
X0020207Y0392632D01*
X0020217Y0392472D01*
X0020223Y0392312D01*
X0020225Y0392152D01*
X0020223Y0391992D01*
X0020217Y0391832D01*
X0020207Y0391672D01*
X0020193Y0391512D01*
X0020175Y0391353D01*
X0020153Y0391194D01*
X0020127Y0391036D01*
X0020098Y0390879D01*
X0020064Y0390722D01*
X0020026Y0390567D01*
X0019985Y0390412D01*
X0019940Y0390258D01*
X0019890Y0390106D01*
X0019838Y0389955D01*
X0019781Y0389805D01*
X0019720Y0389656D01*
X0019656Y0389509D01*
X0019589Y0389364D01*
X0019517Y0389221D01*
X0019443Y0389079D01*
X0019364Y0388939D01*
X0019282Y0388802D01*
X0019197Y0388666D01*
X0019109Y0388533D01*
X0019017Y0388401D01*
X0018922Y0388273D01*
X0018823Y0388146D01*
X0018722Y0388022D01*
X0018617Y0387901D01*
X0018510Y0387782D01*
X0018399Y0387666D01*
X0018286Y0387553D01*
X0018170Y0387442D01*
X0018051Y0387335D01*
X0017930Y0387230D01*
X0017806Y0387129D01*
X0017679Y0387030D01*
X0017551Y0386935D01*
X0017419Y0386843D01*
X0017286Y0386755D01*
X0017150Y0386670D01*
X0017012Y0386588D01*
X0016873Y0386509D01*
X0016731Y0386435D01*
X0016588Y0386363D01*
X0016443Y0386296D01*
X0016296Y0386232D01*
X0016147Y0386171D01*
X0015997Y0386114D01*
X0015846Y0386062D01*
X0015694Y0386012D01*
X0015540Y0385967D01*
X0015385Y0385926D01*
X0015230Y0385888D01*
X0015073Y0385854D01*
X0014916Y0385825D01*
X0014758Y0385799D01*
X0014599Y0385777D01*
X0014440Y0385759D01*
X0014280Y0385745D01*
X0014120Y0385735D01*
X0013960Y0385729D01*
X0013800Y0385727D01*
X0013640Y0385729D01*
X0013480Y0385735D01*
X0013320Y0385745D01*
X0013160Y0385759D01*
X0013001Y0385777D01*
X0012842Y0385799D01*
X0012684Y0385825D01*
X0012527Y0385854D01*
X0012370Y0385888D01*
X0012215Y0385926D01*
X0012060Y0385967D01*
X0011906Y0386012D01*
X0011754Y0386062D01*
X0011603Y0386114D01*
X0011453Y0386171D01*
X0011304Y0386232D01*
X0011157Y0386296D01*
X0011012Y0386363D01*
X0010869Y0386435D01*
X0010727Y0386509D01*
X0010587Y0386588D01*
X0010450Y0386670D01*
X0010314Y0386755D01*
X0010181Y0386843D01*
X0010049Y0386935D01*
X0009921Y0387030D01*
X0009794Y0387129D01*
X0009670Y0387230D01*
X0009549Y0387335D01*
X0009430Y0387442D01*
X0009314Y0387553D01*
X0009201Y0387666D01*
X0009090Y0387782D01*
X0008983Y0387901D01*
X0008878Y0388022D01*
X0008777Y0388146D01*
X0008678Y0388273D01*
X0008583Y0388401D01*
X0008491Y0388533D01*
X0008403Y0388666D01*
X0008318Y0388802D01*
X0008236Y0388940D01*
X0008157Y0389079D01*
X0008083Y0389221D01*
X0008011Y0389364D01*
X0007944Y0389509D01*
X0007880Y0389656D01*
X0007819Y0389805D01*
X0007762Y0389955D01*
X0007710Y0390106D01*
X0007660Y0390258D01*
X0007615Y0390412D01*
X0007574Y0390567D01*
X0007536Y0390722D01*
X0007502Y0390879D01*
X0007473Y0391036D01*
X0007447Y0391194D01*
X0007425Y0391353D01*
X0007407Y0391512D01*
X0007393Y0391672D01*
X0007383Y0391832D01*
X0007377Y0391992D01*
X0007375Y0392152D01*
X0382375Y0392152D02*
X0382377Y0392312D01*
X0382383Y0392472D01*
X0382393Y0392632D01*
X0382407Y0392792D01*
X0382425Y0392951D01*
X0382447Y0393110D01*
X0382473Y0393268D01*
X0382502Y0393425D01*
X0382536Y0393582D01*
X0382574Y0393737D01*
X0382615Y0393892D01*
X0382660Y0394046D01*
X0382710Y0394198D01*
X0382762Y0394349D01*
X0382819Y0394499D01*
X0382880Y0394648D01*
X0382944Y0394795D01*
X0383011Y0394940D01*
X0383083Y0395083D01*
X0383157Y0395225D01*
X0383236Y0395365D01*
X0383318Y0395502D01*
X0383403Y0395638D01*
X0383491Y0395771D01*
X0383583Y0395903D01*
X0383678Y0396031D01*
X0383777Y0396158D01*
X0383878Y0396282D01*
X0383983Y0396403D01*
X0384090Y0396522D01*
X0384201Y0396638D01*
X0384314Y0396751D01*
X0384430Y0396862D01*
X0384549Y0396969D01*
X0384670Y0397074D01*
X0384794Y0397175D01*
X0384921Y0397274D01*
X0385049Y0397369D01*
X0385181Y0397461D01*
X0385314Y0397549D01*
X0385450Y0397634D01*
X0385588Y0397716D01*
X0385727Y0397795D01*
X0385869Y0397869D01*
X0386012Y0397941D01*
X0386157Y0398008D01*
X0386304Y0398072D01*
X0386453Y0398133D01*
X0386603Y0398190D01*
X0386754Y0398242D01*
X0386906Y0398292D01*
X0387060Y0398337D01*
X0387215Y0398378D01*
X0387370Y0398416D01*
X0387527Y0398450D01*
X0387684Y0398479D01*
X0387842Y0398505D01*
X0388001Y0398527D01*
X0388160Y0398545D01*
X0388320Y0398559D01*
X0388480Y0398569D01*
X0388640Y0398575D01*
X0388800Y0398577D01*
X0388960Y0398575D01*
X0389120Y0398569D01*
X0389280Y0398559D01*
X0389440Y0398545D01*
X0389599Y0398527D01*
X0389758Y0398505D01*
X0389916Y0398479D01*
X0390073Y0398450D01*
X0390230Y0398416D01*
X0390385Y0398378D01*
X0390540Y0398337D01*
X0390694Y0398292D01*
X0390846Y0398242D01*
X0390997Y0398190D01*
X0391147Y0398133D01*
X0391296Y0398072D01*
X0391443Y0398008D01*
X0391588Y0397941D01*
X0391731Y0397869D01*
X0391873Y0397795D01*
X0392013Y0397716D01*
X0392150Y0397634D01*
X0392286Y0397549D01*
X0392419Y0397461D01*
X0392551Y0397369D01*
X0392679Y0397274D01*
X0392806Y0397175D01*
X0392930Y0397074D01*
X0393051Y0396969D01*
X0393170Y0396862D01*
X0393286Y0396751D01*
X0393399Y0396638D01*
X0393510Y0396522D01*
X0393617Y0396403D01*
X0393722Y0396282D01*
X0393823Y0396158D01*
X0393922Y0396031D01*
X0394017Y0395903D01*
X0394109Y0395771D01*
X0394197Y0395638D01*
X0394282Y0395502D01*
X0394364Y0395364D01*
X0394443Y0395225D01*
X0394517Y0395083D01*
X0394589Y0394940D01*
X0394656Y0394795D01*
X0394720Y0394648D01*
X0394781Y0394499D01*
X0394838Y0394349D01*
X0394890Y0394198D01*
X0394940Y0394046D01*
X0394985Y0393892D01*
X0395026Y0393737D01*
X0395064Y0393582D01*
X0395098Y0393425D01*
X0395127Y0393268D01*
X0395153Y0393110D01*
X0395175Y0392951D01*
X0395193Y0392792D01*
X0395207Y0392632D01*
X0395217Y0392472D01*
X0395223Y0392312D01*
X0395225Y0392152D01*
X0395223Y0391992D01*
X0395217Y0391832D01*
X0395207Y0391672D01*
X0395193Y0391512D01*
X0395175Y0391353D01*
X0395153Y0391194D01*
X0395127Y0391036D01*
X0395098Y0390879D01*
X0395064Y0390722D01*
X0395026Y0390567D01*
X0394985Y0390412D01*
X0394940Y0390258D01*
X0394890Y0390106D01*
X0394838Y0389955D01*
X0394781Y0389805D01*
X0394720Y0389656D01*
X0394656Y0389509D01*
X0394589Y0389364D01*
X0394517Y0389221D01*
X0394443Y0389079D01*
X0394364Y0388939D01*
X0394282Y0388802D01*
X0394197Y0388666D01*
X0394109Y0388533D01*
X0394017Y0388401D01*
X0393922Y0388273D01*
X0393823Y0388146D01*
X0393722Y0388022D01*
X0393617Y0387901D01*
X0393510Y0387782D01*
X0393399Y0387666D01*
X0393286Y0387553D01*
X0393170Y0387442D01*
X0393051Y0387335D01*
X0392930Y0387230D01*
X0392806Y0387129D01*
X0392679Y0387030D01*
X0392551Y0386935D01*
X0392419Y0386843D01*
X0392286Y0386755D01*
X0392150Y0386670D01*
X0392012Y0386588D01*
X0391873Y0386509D01*
X0391731Y0386435D01*
X0391588Y0386363D01*
X0391443Y0386296D01*
X0391296Y0386232D01*
X0391147Y0386171D01*
X0390997Y0386114D01*
X0390846Y0386062D01*
X0390694Y0386012D01*
X0390540Y0385967D01*
X0390385Y0385926D01*
X0390230Y0385888D01*
X0390073Y0385854D01*
X0389916Y0385825D01*
X0389758Y0385799D01*
X0389599Y0385777D01*
X0389440Y0385759D01*
X0389280Y0385745D01*
X0389120Y0385735D01*
X0388960Y0385729D01*
X0388800Y0385727D01*
X0388640Y0385729D01*
X0388480Y0385735D01*
X0388320Y0385745D01*
X0388160Y0385759D01*
X0388001Y0385777D01*
X0387842Y0385799D01*
X0387684Y0385825D01*
X0387527Y0385854D01*
X0387370Y0385888D01*
X0387215Y0385926D01*
X0387060Y0385967D01*
X0386906Y0386012D01*
X0386754Y0386062D01*
X0386603Y0386114D01*
X0386453Y0386171D01*
X0386304Y0386232D01*
X0386157Y0386296D01*
X0386012Y0386363D01*
X0385869Y0386435D01*
X0385727Y0386509D01*
X0385587Y0386588D01*
X0385450Y0386670D01*
X0385314Y0386755D01*
X0385181Y0386843D01*
X0385049Y0386935D01*
X0384921Y0387030D01*
X0384794Y0387129D01*
X0384670Y0387230D01*
X0384549Y0387335D01*
X0384430Y0387442D01*
X0384314Y0387553D01*
X0384201Y0387666D01*
X0384090Y0387782D01*
X0383983Y0387901D01*
X0383878Y0388022D01*
X0383777Y0388146D01*
X0383678Y0388273D01*
X0383583Y0388401D01*
X0383491Y0388533D01*
X0383403Y0388666D01*
X0383318Y0388802D01*
X0383236Y0388940D01*
X0383157Y0389079D01*
X0383083Y0389221D01*
X0383011Y0389364D01*
X0382944Y0389509D01*
X0382880Y0389656D01*
X0382819Y0389805D01*
X0382762Y0389955D01*
X0382710Y0390106D01*
X0382660Y0390258D01*
X0382615Y0390412D01*
X0382574Y0390567D01*
X0382536Y0390722D01*
X0382502Y0390879D01*
X0382473Y0391036D01*
X0382447Y0391194D01*
X0382425Y0391353D01*
X0382407Y0391512D01*
X0382393Y0391672D01*
X0382383Y0391832D01*
X0382377Y0391992D01*
X0382375Y0392152D01*
D12*
G36*
X0204391Y0232645D02*
X0208426Y0236680D01*
X0209261Y0235845D01*
X0205226Y0231810D01*
X0204391Y0232645D01*
G37*
G36*
X0202999Y0234037D02*
X0207034Y0238072D01*
X0207869Y0237237D01*
X0203834Y0233202D01*
X0202999Y0234037D01*
G37*
G36*
X0201607Y0235429D02*
X0205642Y0239464D01*
X0206477Y0238629D01*
X0202442Y0234594D01*
X0201607Y0235429D01*
G37*
G36*
X0200215Y0236821D02*
X0204250Y0240856D01*
X0205085Y0240021D01*
X0201050Y0235986D01*
X0200215Y0236821D01*
G37*
G36*
X0198823Y0238212D02*
X0202858Y0242247D01*
X0203693Y0241412D01*
X0199658Y0237377D01*
X0198823Y0238212D01*
G37*
G36*
X0197431Y0239604D02*
X0201466Y0243639D01*
X0202301Y0242804D01*
X0198266Y0238769D01*
X0197431Y0239604D01*
G37*
G36*
X0196039Y0240996D02*
X0200074Y0245031D01*
X0200909Y0244196D01*
X0196874Y0240161D01*
X0196039Y0240996D01*
G37*
G36*
X0194647Y0242388D02*
X0198682Y0246423D01*
X0199517Y0245588D01*
X0195482Y0241553D01*
X0194647Y0242388D01*
G37*
G36*
X0193255Y0243780D02*
X0197290Y0247815D01*
X0198125Y0246980D01*
X0194090Y0242945D01*
X0193255Y0243780D01*
G37*
G36*
X0191863Y0245172D02*
X0195898Y0249207D01*
X0196733Y0248372D01*
X0192698Y0244337D01*
X0191863Y0245172D01*
G37*
G36*
X0190471Y0246564D02*
X0194506Y0250599D01*
X0195341Y0249764D01*
X0191306Y0245729D01*
X0190471Y0246564D01*
G37*
G36*
X0189080Y0247956D02*
X0193115Y0251991D01*
X0193950Y0251156D01*
X0189915Y0247121D01*
X0189080Y0247956D01*
G37*
G36*
X0187688Y0249348D02*
X0191723Y0253383D01*
X0192558Y0252548D01*
X0188523Y0248513D01*
X0187688Y0249348D01*
G37*
G36*
X0186296Y0250740D02*
X0190331Y0254775D01*
X0191166Y0253940D01*
X0187131Y0249905D01*
X0186296Y0250740D01*
G37*
G36*
X0184904Y0252132D02*
X0188939Y0256167D01*
X0189774Y0255332D01*
X0185739Y0251297D01*
X0184904Y0252132D01*
G37*
G36*
X0183512Y0253524D02*
X0187547Y0257559D01*
X0188382Y0256724D01*
X0184347Y0252689D01*
X0183512Y0253524D01*
G37*
G36*
X0173211Y0257559D02*
X0177246Y0253524D01*
X0176411Y0252689D01*
X0172376Y0256724D01*
X0173211Y0257559D01*
G37*
G36*
X0171819Y0256167D02*
X0175854Y0252132D01*
X0175019Y0251297D01*
X0170984Y0255332D01*
X0171819Y0256167D01*
G37*
G36*
X0170427Y0254775D02*
X0174462Y0250740D01*
X0173627Y0249905D01*
X0169592Y0253940D01*
X0170427Y0254775D01*
G37*
G36*
X0169035Y0253383D02*
X0173070Y0249348D01*
X0172235Y0248513D01*
X0168200Y0252548D01*
X0169035Y0253383D01*
G37*
G36*
X0167643Y0251991D02*
X0171678Y0247956D01*
X0170843Y0247121D01*
X0166808Y0251156D01*
X0167643Y0251991D01*
G37*
G36*
X0166252Y0250599D02*
X0170287Y0246564D01*
X0169452Y0245729D01*
X0165417Y0249764D01*
X0166252Y0250599D01*
G37*
G36*
X0164860Y0249207D02*
X0168895Y0245172D01*
X0168060Y0244337D01*
X0164025Y0248372D01*
X0164860Y0249207D01*
G37*
G36*
X0163468Y0247815D02*
X0167503Y0243780D01*
X0166668Y0242945D01*
X0162633Y0246980D01*
X0163468Y0247815D01*
G37*
G36*
X0162076Y0246423D02*
X0166111Y0242388D01*
X0165276Y0241553D01*
X0161241Y0245588D01*
X0162076Y0246423D01*
G37*
G36*
X0160684Y0245031D02*
X0164719Y0240996D01*
X0163884Y0240161D01*
X0159849Y0244196D01*
X0160684Y0245031D01*
G37*
G36*
X0159292Y0243639D02*
X0163327Y0239604D01*
X0162492Y0238769D01*
X0158457Y0242804D01*
X0159292Y0243639D01*
G37*
G36*
X0157900Y0242247D02*
X0161935Y0238212D01*
X0161100Y0237377D01*
X0157065Y0241412D01*
X0157900Y0242247D01*
G37*
G36*
X0156508Y0240856D02*
X0160543Y0236821D01*
X0159708Y0235986D01*
X0155673Y0240021D01*
X0156508Y0240856D01*
G37*
G36*
X0155116Y0239464D02*
X0159151Y0235429D01*
X0158316Y0234594D01*
X0154281Y0238629D01*
X0155116Y0239464D01*
G37*
G36*
X0153724Y0238072D02*
X0157759Y0234037D01*
X0156924Y0233202D01*
X0152889Y0237237D01*
X0153724Y0238072D01*
G37*
G36*
X0152332Y0236680D02*
X0156367Y0232645D01*
X0155532Y0231810D01*
X0151497Y0235845D01*
X0152332Y0236680D01*
G37*
G36*
X0151497Y0221509D02*
X0155532Y0225544D01*
X0156367Y0224709D01*
X0152332Y0220674D01*
X0151497Y0221509D01*
G37*
G36*
X0152889Y0220117D02*
X0156924Y0224152D01*
X0157759Y0223317D01*
X0153724Y0219282D01*
X0152889Y0220117D01*
G37*
G36*
X0154281Y0218725D02*
X0158316Y0222760D01*
X0159151Y0221925D01*
X0155116Y0217890D01*
X0154281Y0218725D01*
G37*
G36*
X0155673Y0217333D02*
X0159708Y0221368D01*
X0160543Y0220533D01*
X0156508Y0216498D01*
X0155673Y0217333D01*
G37*
G36*
X0157065Y0215941D02*
X0161100Y0219976D01*
X0161935Y0219141D01*
X0157900Y0215106D01*
X0157065Y0215941D01*
G37*
G36*
X0158457Y0214549D02*
X0162492Y0218584D01*
X0163327Y0217749D01*
X0159292Y0213714D01*
X0158457Y0214549D01*
G37*
G36*
X0159849Y0213158D02*
X0163884Y0217193D01*
X0164719Y0216358D01*
X0160684Y0212323D01*
X0159849Y0213158D01*
G37*
G36*
X0161241Y0211766D02*
X0165276Y0215801D01*
X0166111Y0214966D01*
X0162076Y0210931D01*
X0161241Y0211766D01*
G37*
G36*
X0162633Y0210374D02*
X0166668Y0214409D01*
X0167503Y0213574D01*
X0163468Y0209539D01*
X0162633Y0210374D01*
G37*
G36*
X0164025Y0208982D02*
X0168060Y0213017D01*
X0168895Y0212182D01*
X0164860Y0208147D01*
X0164025Y0208982D01*
G37*
G36*
X0165417Y0207590D02*
X0169452Y0211625D01*
X0170287Y0210790D01*
X0166252Y0206755D01*
X0165417Y0207590D01*
G37*
G36*
X0166808Y0206198D02*
X0170843Y0210233D01*
X0171678Y0209398D01*
X0167643Y0205363D01*
X0166808Y0206198D01*
G37*
G36*
X0168200Y0204806D02*
X0172235Y0208841D01*
X0173070Y0208006D01*
X0169035Y0203971D01*
X0168200Y0204806D01*
G37*
G36*
X0169592Y0203414D02*
X0173627Y0207449D01*
X0174462Y0206614D01*
X0170427Y0202579D01*
X0169592Y0203414D01*
G37*
G36*
X0170984Y0202022D02*
X0175019Y0206057D01*
X0175854Y0205222D01*
X0171819Y0201187D01*
X0170984Y0202022D01*
G37*
G36*
X0172376Y0200630D02*
X0176411Y0204665D01*
X0177246Y0203830D01*
X0173211Y0199795D01*
X0172376Y0200630D01*
G37*
G36*
X0184347Y0204665D02*
X0188382Y0200630D01*
X0187547Y0199795D01*
X0183512Y0203830D01*
X0184347Y0204665D01*
G37*
G36*
X0185739Y0206057D02*
X0189774Y0202022D01*
X0188939Y0201187D01*
X0184904Y0205222D01*
X0185739Y0206057D01*
G37*
G36*
X0187131Y0207449D02*
X0191166Y0203414D01*
X0190331Y0202579D01*
X0186296Y0206614D01*
X0187131Y0207449D01*
G37*
G36*
X0188523Y0208841D02*
X0192558Y0204806D01*
X0191723Y0203971D01*
X0187688Y0208006D01*
X0188523Y0208841D01*
G37*
G36*
X0189915Y0210233D02*
X0193950Y0206198D01*
X0193115Y0205363D01*
X0189080Y0209398D01*
X0189915Y0210233D01*
G37*
G36*
X0191306Y0211625D02*
X0195341Y0207590D01*
X0194506Y0206755D01*
X0190471Y0210790D01*
X0191306Y0211625D01*
G37*
G36*
X0192698Y0213017D02*
X0196733Y0208982D01*
X0195898Y0208147D01*
X0191863Y0212182D01*
X0192698Y0213017D01*
G37*
G36*
X0194090Y0214409D02*
X0198125Y0210374D01*
X0197290Y0209539D01*
X0193255Y0213574D01*
X0194090Y0214409D01*
G37*
G36*
X0195482Y0215801D02*
X0199517Y0211766D01*
X0198682Y0210931D01*
X0194647Y0214966D01*
X0195482Y0215801D01*
G37*
G36*
X0196874Y0217193D02*
X0200909Y0213158D01*
X0200074Y0212323D01*
X0196039Y0216358D01*
X0196874Y0217193D01*
G37*
G36*
X0198266Y0218584D02*
X0202301Y0214549D01*
X0201466Y0213714D01*
X0197431Y0217749D01*
X0198266Y0218584D01*
G37*
G36*
X0199658Y0219976D02*
X0203693Y0215941D01*
X0202858Y0215106D01*
X0198823Y0219141D01*
X0199658Y0219976D01*
G37*
G36*
X0201050Y0221368D02*
X0205085Y0217333D01*
X0204250Y0216498D01*
X0200215Y0220533D01*
X0201050Y0221368D01*
G37*
G36*
X0202442Y0222760D02*
X0206477Y0218725D01*
X0205642Y0217890D01*
X0201607Y0221925D01*
X0202442Y0222760D01*
G37*
G36*
X0203834Y0224152D02*
X0207869Y0220117D01*
X0207034Y0219282D01*
X0202999Y0223317D01*
X0203834Y0224152D01*
G37*
G36*
X0205226Y0225544D02*
X0209261Y0221509D01*
X0208426Y0220674D01*
X0204391Y0224709D01*
X0205226Y0225544D01*
G37*
D13*
X0019309Y0293753D03*
D14*
X0029309Y0293753D03*
X0029309Y0283753D03*
X0029309Y0273753D03*
X0029309Y0263753D03*
X0029309Y0253753D03*
X0029309Y0243753D03*
X0029309Y0233753D03*
X0029309Y0223753D03*
X0029309Y0213753D03*
X0029309Y0203753D03*
X0019309Y0203753D03*
X0019309Y0213753D03*
X0019309Y0223753D03*
X0019309Y0233753D03*
X0019309Y0243753D03*
X0019309Y0253753D03*
X0019309Y0263753D03*
X0019309Y0273753D03*
X0019309Y0283753D03*
D15*
X0095486Y0367778D03*
X0098635Y0367778D03*
X0101785Y0367778D03*
X0104935Y0367778D03*
X0108084Y0367778D03*
D16*
X0119502Y0367778D03*
X0119502Y0389432D03*
X0084068Y0389432D03*
X0084068Y0367778D03*
D17*
X0086494Y0017500D03*
X0096494Y0017500D03*
X0106494Y0017500D03*
X0116494Y0017500D03*
X0126494Y0017500D03*
X0136494Y0017500D03*
X0146494Y0017500D03*
X0156494Y0017500D03*
X0166494Y0017500D03*
X0176494Y0017500D03*
X0186494Y0017500D03*
X0196494Y0017500D03*
X0206494Y0017500D03*
X0216494Y0017500D03*
X0226494Y0017500D03*
X0236494Y0017500D03*
X0246494Y0017500D03*
X0256494Y0017500D03*
X0266494Y0017500D03*
X0276494Y0017500D03*
X0286494Y0017500D03*
X0296494Y0017500D03*
X0306494Y0017500D03*
X0316494Y0017500D03*
X0326494Y0017500D03*
X0336494Y0017500D03*
X0076494Y0017500D03*
X0066494Y0017500D03*
D18*
X0056494Y0005000D02*
X0056494Y0035000D01*
X0056494Y0005000D02*
X0346494Y0005000D01*
X0346769Y0005000D02*
X0346769Y0035000D01*
D19*
X0058819Y0122566D03*
X0058819Y0132409D03*
X0048976Y0132409D03*
X0048976Y0122566D03*
X0048976Y0142251D03*
X0058819Y0142251D03*
X0058819Y0152094D03*
X0058819Y0161936D03*
X0048976Y0161936D03*
X0048976Y0152094D03*
X0048976Y0171779D03*
X0058819Y0171779D03*
D20*
X0033640Y0095410D03*
X0009624Y0095410D03*
X0009624Y0050528D03*
X0033640Y0050528D03*
D21*
X0152590Y0107354D03*
X0162590Y0107354D03*
X0172590Y0107354D03*
X0245050Y0125902D03*
X0275050Y0125902D03*
X0260050Y0095802D03*
X0290050Y0095802D03*
X0346300Y0119452D03*
X0357550Y0118402D03*
X0371300Y0118002D03*
X0381300Y0118002D03*
X0391300Y0118002D03*
X0391300Y0150202D03*
X0381300Y0150202D03*
X0371300Y0150202D03*
X0356300Y0152152D03*
X0346300Y0149452D03*
X0356300Y0182152D03*
X0346300Y0185102D03*
X0371300Y0182402D03*
X0381300Y0182402D03*
X0391300Y0182402D03*
X0391300Y0214602D03*
X0381300Y0214602D03*
X0371300Y0214602D03*
X0356300Y0217152D03*
X0346300Y0215102D03*
X0356300Y0247152D03*
X0346300Y0249502D03*
X0371300Y0246802D03*
X0381300Y0246802D03*
X0391300Y0246802D03*
X0391300Y0279002D03*
X0381300Y0279002D03*
X0371300Y0279002D03*
X0356300Y0280902D03*
X0346300Y0279502D03*
X0356300Y0310902D03*
X0346300Y0313402D03*
X0371300Y0311202D03*
X0381300Y0311202D03*
X0391300Y0311202D03*
X0391300Y0343402D03*
X0381300Y0343402D03*
X0371300Y0343402D03*
X0346300Y0343402D03*
X0333397Y0370917D03*
X0363397Y0370917D03*
X0290050Y0353402D03*
X0260050Y0353402D03*
X0260050Y0321202D03*
X0290050Y0321202D03*
X0290050Y0289002D03*
X0260050Y0289002D03*
X0260050Y0256802D03*
X0290050Y0256802D03*
X0290050Y0224602D03*
X0260050Y0224602D03*
X0260050Y0192402D03*
X0290050Y0192402D03*
X0290050Y0160202D03*
X0260050Y0160202D03*
X0357550Y0088402D03*
X0371300Y0080802D03*
X0381300Y0080802D03*
X0391300Y0080802D03*
X0391300Y0052152D03*
X0361300Y0052152D03*
X0135065Y0194299D03*
X0120226Y0195233D03*
X0120226Y0225233D03*
X0135065Y0224299D03*
X0132550Y0284652D03*
X0143800Y0284652D03*
X0156300Y0284652D03*
X0166300Y0284652D03*
X0183800Y0284652D03*
X0193800Y0284652D03*
X0203800Y0284652D03*
X0213800Y0284652D03*
X0213800Y0314652D03*
X0203800Y0314652D03*
X0193800Y0314652D03*
X0183800Y0314652D03*
X0166300Y0314652D03*
X0156300Y0314652D03*
X0143800Y0314652D03*
X0132550Y0314652D03*
X0137678Y0328784D03*
X0107678Y0328784D03*
D22*
X0177691Y0134632D03*
X0196691Y0134632D03*
X0048550Y0105902D03*
D23*
X0320895Y0049427D03*
D24*
X0330895Y0049427D03*
X0340895Y0049427D03*
D25*
X0336500Y0075902D02*
X0331300Y0075902D01*
X0331300Y0085902D02*
X0336500Y0085902D01*
X0336500Y0108102D02*
X0331300Y0108102D01*
X0331300Y0118102D02*
X0336500Y0118102D01*
X0336500Y0140302D02*
X0331300Y0140302D01*
X0331300Y0150302D02*
X0336500Y0150302D01*
X0336500Y0172502D02*
X0331300Y0172502D01*
X0331300Y0182502D02*
X0336500Y0182502D01*
X0336500Y0204702D02*
X0331300Y0204702D01*
X0331300Y0214702D02*
X0336500Y0214702D01*
X0336500Y0236902D02*
X0331300Y0236902D01*
X0331300Y0246902D02*
X0336500Y0246902D01*
X0336500Y0269102D02*
X0331300Y0269102D01*
X0331300Y0279102D02*
X0336500Y0279102D01*
X0336500Y0301302D02*
X0331300Y0301302D01*
X0331300Y0311302D02*
X0336500Y0311302D01*
X0336500Y0333502D02*
X0331300Y0333502D01*
X0331300Y0343502D02*
X0336500Y0343502D01*
X0301300Y0343502D02*
X0296100Y0343502D01*
X0296100Y0333502D02*
X0301300Y0333502D01*
X0301300Y0311302D02*
X0296100Y0311302D01*
X0296100Y0301302D02*
X0301300Y0301302D01*
X0301300Y0279102D02*
X0296100Y0279102D01*
X0296100Y0269102D02*
X0301300Y0269102D01*
X0301300Y0246902D02*
X0296100Y0246902D01*
X0296100Y0236902D02*
X0301300Y0236902D01*
X0301300Y0214702D02*
X0296100Y0214702D01*
X0296100Y0204702D02*
X0301300Y0204702D01*
X0301300Y0182502D02*
X0296100Y0182502D01*
X0296100Y0172502D02*
X0301300Y0172502D01*
X0301300Y0150302D02*
X0296100Y0150302D01*
X0296100Y0140302D02*
X0301300Y0140302D01*
X0301300Y0118102D02*
X0296100Y0118102D01*
X0296100Y0108102D02*
X0301300Y0108102D01*
X0301300Y0085902D02*
X0296100Y0085902D01*
X0296100Y0075902D02*
X0301300Y0075902D01*
X0086400Y0249652D02*
X0081200Y0249652D01*
X0081200Y0259652D02*
X0086400Y0259652D01*
X0086400Y0269652D02*
X0081200Y0269652D01*
X0081200Y0279652D02*
X0086400Y0279652D01*
X0056400Y0279652D02*
X0051200Y0279652D01*
X0051200Y0269652D02*
X0056400Y0269652D01*
X0056400Y0259652D02*
X0051200Y0259652D01*
X0051200Y0249652D02*
X0056400Y0249652D01*
D26*
X0127443Y0241912D03*
X0134135Y0241912D03*
X0134444Y0234973D03*
X0141136Y0234973D03*
X0144022Y0246936D03*
X0150714Y0246936D03*
X0178964Y0264042D03*
X0179196Y0271790D03*
X0185888Y0271790D03*
X0185656Y0264042D03*
X0221464Y0236159D03*
X0228156Y0236159D03*
X0171136Y0193051D03*
X0164444Y0193051D03*
D27*
X0212612Y0207796D03*
X0212612Y0214488D03*
X0221268Y0214488D03*
X0221268Y0207796D03*
D28*
X0220178Y0382321D02*
X0217422Y0382321D01*
X0217422Y0385077D01*
X0220178Y0385077D01*
X0220178Y0382321D01*
X0220178Y0383501D02*
X0217422Y0383501D01*
X0217422Y0384681D02*
X0220178Y0384681D01*
X0220178Y0389227D02*
X0217422Y0389227D01*
X0217422Y0391983D01*
X0220178Y0391983D01*
X0220178Y0389227D01*
X0220178Y0390407D02*
X0217422Y0390407D01*
X0217422Y0391587D02*
X0220178Y0391587D01*
X0232422Y0389227D02*
X0235178Y0389227D01*
X0232422Y0389227D02*
X0232422Y0391983D01*
X0235178Y0391983D01*
X0235178Y0389227D01*
X0235178Y0390407D02*
X0232422Y0390407D01*
X0232422Y0391587D02*
X0235178Y0391587D01*
X0235178Y0382321D02*
X0232422Y0382321D01*
X0232422Y0385077D01*
X0235178Y0385077D01*
X0235178Y0382321D01*
X0235178Y0383501D02*
X0232422Y0383501D01*
X0232422Y0384681D02*
X0235178Y0384681D01*
X0205178Y0382321D02*
X0202422Y0382321D01*
X0202422Y0385077D01*
X0205178Y0385077D01*
X0205178Y0382321D01*
X0205178Y0383501D02*
X0202422Y0383501D01*
X0202422Y0384681D02*
X0205178Y0384681D01*
X0205178Y0389227D02*
X0202422Y0389227D01*
X0202422Y0391983D01*
X0205178Y0391983D01*
X0205178Y0389227D01*
X0205178Y0390407D02*
X0202422Y0390407D01*
X0202422Y0391587D02*
X0205178Y0391587D01*
X0190178Y0389227D02*
X0187422Y0389227D01*
X0187422Y0391983D01*
X0190178Y0391983D01*
X0190178Y0389227D01*
X0190178Y0390407D02*
X0187422Y0390407D01*
X0187422Y0391587D02*
X0190178Y0391587D01*
X0190178Y0382321D02*
X0187422Y0382321D01*
X0187422Y0385077D01*
X0190178Y0385077D01*
X0190178Y0382321D01*
X0190178Y0383501D02*
X0187422Y0383501D01*
X0187422Y0384681D02*
X0190178Y0384681D01*
X0175178Y0382321D02*
X0172422Y0382321D01*
X0172422Y0385077D01*
X0175178Y0385077D01*
X0175178Y0382321D01*
X0175178Y0383501D02*
X0172422Y0383501D01*
X0172422Y0384681D02*
X0175178Y0384681D01*
X0175178Y0389227D02*
X0172422Y0389227D01*
X0172422Y0391983D01*
X0175178Y0391983D01*
X0175178Y0389227D01*
X0175178Y0390407D02*
X0172422Y0390407D01*
X0172422Y0391587D02*
X0175178Y0391587D01*
X0160178Y0389227D02*
X0157422Y0389227D01*
X0157422Y0391983D01*
X0160178Y0391983D01*
X0160178Y0389227D01*
X0160178Y0390407D02*
X0157422Y0390407D01*
X0157422Y0391587D02*
X0160178Y0391587D01*
X0160178Y0382321D02*
X0157422Y0382321D01*
X0157422Y0385077D01*
X0160178Y0385077D01*
X0160178Y0382321D01*
X0160178Y0383501D02*
X0157422Y0383501D01*
X0157422Y0384681D02*
X0160178Y0384681D01*
X0145178Y0382321D02*
X0142422Y0382321D01*
X0142422Y0385077D01*
X0145178Y0385077D01*
X0145178Y0382321D01*
X0145178Y0383501D02*
X0142422Y0383501D01*
X0142422Y0384681D02*
X0145178Y0384681D01*
X0145178Y0389227D02*
X0142422Y0389227D01*
X0142422Y0391983D01*
X0145178Y0391983D01*
X0145178Y0389227D01*
X0145178Y0390407D02*
X0142422Y0390407D01*
X0142422Y0391587D02*
X0145178Y0391587D01*
X0361578Y0389234D02*
X0364334Y0389234D01*
X0361578Y0389234D02*
X0361578Y0391990D01*
X0364334Y0391990D01*
X0364334Y0389234D01*
X0364334Y0390414D02*
X0361578Y0390414D01*
X0361578Y0391594D02*
X0364334Y0391594D01*
X0364334Y0382328D02*
X0361578Y0382328D01*
X0361578Y0385084D01*
X0364334Y0385084D01*
X0364334Y0382328D01*
X0364334Y0383508D02*
X0361578Y0383508D01*
X0361578Y0384688D02*
X0364334Y0384688D01*
D29*
X0134224Y0156409D02*
X0134224Y0150409D01*
X0116424Y0150409D02*
X0116424Y0156409D01*
X0116424Y0130809D02*
X0116424Y0124809D01*
X0134224Y0124809D02*
X0134224Y0130809D01*
X0081896Y0194977D02*
X0075896Y0194977D01*
X0075896Y0212777D02*
X0081896Y0212777D01*
X0056296Y0212777D02*
X0050296Y0212777D01*
X0050296Y0194977D02*
X0056296Y0194977D01*
D30*
X0168233Y0150483D03*
X0178233Y0150483D03*
X0186313Y0150745D03*
X0196313Y0150745D03*
D31*
X0142028Y0177802D03*
X0132186Y0177802D03*
X0122343Y0177802D03*
X0112501Y0177802D03*
D32*
X0056550Y0105902D03*
X0048800Y0089652D03*
X0048800Y0059652D03*
D33*
X0106300Y0034652D03*
D34*
X0076300Y0034652D03*
X0041300Y0050902D03*
X0085050Y0104652D03*
X0108800Y0100902D03*
X0192550Y0184652D03*
X0212550Y0184652D03*
X0217550Y0184652D03*
X0223800Y0183402D03*
X0216300Y0202152D03*
X0226300Y0217152D03*
X0232550Y0214652D03*
X0226300Y0224652D03*
X0233800Y0234652D03*
X0221300Y0242152D03*
X0213800Y0237152D03*
X0216300Y0223402D03*
X0213800Y0219652D03*
X0198800Y0232152D03*
X0191300Y0239652D03*
X0186300Y0238402D03*
X0170050Y0242152D03*
X0166300Y0238402D03*
X0143800Y0252152D03*
X0121300Y0242152D03*
X0113800Y0217152D03*
X0113800Y0212152D03*
X0088800Y0212152D03*
X0158800Y0193402D03*
X0166300Y0199652D03*
X0196300Y0222152D03*
X0203800Y0252152D03*
X0208800Y0252152D03*
X0210050Y0265902D03*
X0203800Y0267152D03*
X0200050Y0268402D03*
X0195050Y0268402D03*
X0178800Y0277152D03*
X0221300Y0279652D03*
X0118800Y0357152D03*
X0083800Y0357152D03*
X0243800Y0389652D03*
X0358800Y0394652D03*
X0298800Y0068402D03*
X0308800Y0055902D03*
X0306300Y0033402D03*
X0316300Y0033402D03*
X0256300Y0034652D03*
X0256300Y0054652D03*
D35*
X0171136Y0193051D02*
X0171136Y0198555D01*
X0174811Y0202230D01*
X0202650Y0218933D02*
X0207095Y0214488D01*
X0212612Y0214488D01*
X0212612Y0207796D02*
X0212612Y0205840D01*
X0216300Y0202152D01*
X0221268Y0207120D01*
X0221268Y0207796D01*
X0233800Y0234652D02*
X0232293Y0236159D01*
X0228156Y0236159D01*
X0221464Y0236159D02*
X0216464Y0241159D01*
X0208172Y0241159D01*
X0204042Y0237029D01*
X0187339Y0253732D02*
X0191300Y0257693D01*
X0191300Y0269652D01*
X0189162Y0271790D01*
X0185888Y0271790D01*
X0185656Y0265301D02*
X0185656Y0264042D01*
X0179196Y0270503D01*
X0179196Y0271790D01*
X0178800Y0272186D01*
X0178800Y0277152D01*
X0178964Y0264042D02*
X0185947Y0257059D01*
X0185947Y0255124D01*
X0155324Y0235637D02*
X0155315Y0235637D01*
X0152550Y0238402D01*
X0152550Y0245100D01*
X0150714Y0246936D01*
X0144022Y0246936D02*
X0143800Y0247158D01*
X0143800Y0252152D01*
X0134135Y0241912D02*
X0141074Y0234973D01*
X0141136Y0234973D01*
X0141136Y0230370D01*
X0135065Y0224299D01*
X0134131Y0225233D01*
X0120226Y0225233D01*
X0121540Y0241912D02*
X0121300Y0242152D01*
X0121540Y0241912D02*
X0127443Y0241912D01*
X0134382Y0234973D01*
X0134444Y0234973D01*
X0141136Y0234973D02*
X0143315Y0237152D01*
X0151025Y0237152D01*
X0153932Y0234245D01*
X0155315Y0235637D02*
X0155324Y0235637D01*
X0113800Y0294652D02*
X0107678Y0300774D01*
X0107678Y0328784D01*
X0118800Y0357152D02*
X0118800Y0367077D01*
X0119502Y0367778D01*
X0119502Y0389432D01*
X0084068Y0389432D01*
X0084068Y0367778D01*
X0083800Y0367510D01*
X0083800Y0357152D01*
X0084068Y0367778D02*
X0095486Y0367778D01*
X0119502Y0389432D02*
X0120674Y0390605D01*
X0143800Y0390605D01*
X0142627Y0389432D01*
X0143800Y0390605D02*
X0158800Y0390605D01*
X0173800Y0390605D01*
X0188800Y0390605D01*
X0203800Y0390605D01*
X0218800Y0390605D01*
X0233800Y0390605D01*
X0242847Y0390605D01*
X0243800Y0389652D01*
D36*
X0325050Y0362570D02*
X0325050Y0327152D01*
X0331300Y0333502D01*
X0325050Y0327152D02*
X0325050Y0297152D01*
X0329200Y0301302D01*
X0331300Y0301302D01*
X0325050Y0297152D02*
X0325050Y0262152D01*
X0331300Y0268402D01*
X0331300Y0269102D01*
X0325050Y0262152D02*
X0325050Y0230902D01*
X0331050Y0236902D01*
X0331300Y0236902D01*
X0325050Y0230902D02*
X0325050Y0198402D01*
X0331300Y0204652D01*
X0331300Y0204702D01*
X0325050Y0198402D02*
X0325050Y0165902D01*
X0331300Y0172152D01*
X0331300Y0172502D01*
X0325050Y0165902D02*
X0325050Y0133402D01*
X0331300Y0139652D01*
X0331300Y0140302D01*
X0325050Y0133402D02*
X0325050Y0102152D01*
X0331000Y0108102D01*
X0331300Y0108102D01*
X0325050Y0102152D02*
X0325050Y0068402D01*
X0331300Y0074652D01*
X0331300Y0075902D01*
X0325050Y0068402D02*
X0325050Y0065272D01*
X0340895Y0049427D01*
X0331300Y0049022D02*
X0331300Y0044652D01*
X0326300Y0039652D01*
X0143800Y0039652D01*
X0136494Y0032346D01*
X0136494Y0017500D01*
X0126494Y0017500D02*
X0126494Y0034846D01*
X0138800Y0047152D01*
X0318620Y0047152D01*
X0320895Y0049427D01*
X0330895Y0049427D02*
X0331300Y0049022D01*
X0221268Y0214488D02*
X0212612Y0214488D01*
X0221268Y0214488D02*
X0221300Y0214520D01*
X0221300Y0235995D01*
X0221464Y0236159D01*
X0221300Y0236323D01*
X0221300Y0242152D01*
X0221300Y0279652D02*
X0221300Y0287152D01*
X0213800Y0294652D01*
X0166300Y0294652D01*
X0113800Y0294652D01*
X0108800Y0294652D01*
X0134135Y0269317D01*
X0134135Y0241912D01*
X0173800Y0269206D02*
X0178964Y0264042D01*
X0173800Y0269206D02*
X0173800Y0287152D01*
X0166300Y0294652D01*
X0108800Y0294652D02*
X0030208Y0294652D01*
X0029309Y0293753D01*
X0019309Y0293753D01*
X0007200Y0281644D01*
X0007200Y0198752D01*
X0034173Y0171779D01*
X0048976Y0171779D01*
X0048976Y0174828D01*
X0052550Y0178402D01*
X0065050Y0178402D01*
X0078800Y0164652D01*
X0136300Y0164652D01*
X0142028Y0170380D01*
X0142028Y0177802D01*
X0151379Y0187152D01*
X0168800Y0187152D01*
X0171136Y0189488D01*
X0171136Y0193051D01*
X0048976Y0171779D02*
X0048976Y0161936D01*
X0048976Y0152094D01*
X0048976Y0142251D01*
X0048976Y0132409D01*
X0048976Y0122566D01*
X0033640Y0095410D02*
X0033640Y0092312D01*
X0041300Y0084652D01*
X0041300Y0067152D01*
X0048800Y0059652D01*
X0067550Y0059652D01*
X0076300Y0050902D01*
X0076300Y0034652D01*
X0041300Y0050902D02*
X0040926Y0050528D01*
X0033640Y0050528D01*
X0009624Y0050528D01*
X0009624Y0095410D02*
X0033640Y0095410D01*
X0325050Y0362570D02*
X0333397Y0370917D01*
D37*
X0048976Y0122566D02*
X0048976Y0106328D01*
X0048550Y0105902D01*
X0048800Y0105652D01*
X0048800Y0089652D01*
M02*
