%
M48
M72
T01C0.01378
T02C0.01969
T03C0.02362
T04C0.02756
T05C0.03200
T06C0.03543
T07C0.03937
T08C0.04000
T09C0.05000
T10C0.05600
T11C0.06299
T12C0.07087
T13C0.11811
T14C0.12850
%
T01
X107389Y40330
X123721Y47662
X144386Y41996
X156051Y37330
X298704Y69994
X303037Y54995
X306370Y41996
X316369Y41996
X160849Y212787
X151385Y217645
X181715Y221645
X185382Y247642
X181715Y261974
X183048Y266641
X202187Y304213
X184715Y342300
X155051Y304637
X133053Y292638
X130337Y270748
X126082Y267013
X117116Y271174
X112687Y266744
X108389Y254975
X99723Y288638
X91391Y296638
X52728Y328634
X26064Y316302
X51728Y364297
X96724Y220645
X242709Y260308
X248042Y259974
T02
X225809Y236950
X213998Y251063
X210463Y217636
X147132Y249094
X194838Y310118
X223841Y290433
X36833Y302113
X13211Y268780
X58487Y75866
X66361Y60118
T03
X77973Y179123
X82894Y179123
X87815Y179123
X92737Y179123
T04
X127692Y181769
X137692Y181769
X156361Y182197
X166361Y182197
T05
X156446Y166771
X137446Y166771
X195714Y301302
X195714Y331302
X184383Y350965
X154383Y350965
X140721Y346299
X110721Y346299
X98390Y345967
X80725Y350634
X80725Y320634
X98390Y315967
X277842Y307088
X277842Y297088
X277842Y276576
X277842Y266576
X277842Y246064
X277842Y236064
X277842Y214568
X277842Y204568
X277842Y184056
X277842Y174056
X277842Y153544
X277842Y143544
X307842Y143544
X307842Y153544
X307842Y174056
X307842Y184056
X307842Y204568
X307842Y214568
X307842Y236064
X307842Y246064
X307842Y266576
X307842Y276576
X307842Y297088
X307842Y307088
X307842Y326615
X307842Y336615
X307842Y356143
X307842Y366143
X277842Y366143
X277842Y356143
X277842Y336615
X277842Y326615
X277509Y113367
X277509Y103367
X278077Y84217
X278077Y74217
X308077Y74217
X308077Y84217
X307509Y103367
X307509Y113367
T06
X262227Y123031
X262227Y133031
X262227Y152559
X262227Y162559
X262227Y182087
X262227Y192087
X262227Y211614
X262227Y221614
X261940Y236142
X261940Y246142
X261893Y265113
X261893Y275113
X262227Y294291
X262227Y304291
X262227Y319882
X262227Y329882
X262227Y349409
X262227Y359409
X184562Y335630
X182895Y324549
X154562Y335630
X152895Y324549
X137054Y335634
X127054Y335634
X129054Y324635
X119054Y324635
X29324Y337863
X29324Y355186
X103574Y204652
X103574Y194652
X117734Y194970
X117734Y204970
X262227Y102520
X262227Y92520
T07
X115384Y229744
X115384Y239744
X105384Y239744
X105384Y229744
X95384Y229744
X95384Y239744
X85384Y239744
X85384Y229744
X75384Y229744
X75384Y239744
X65384Y239744
X65384Y229744
X55384Y229744
X55384Y239744
X45384Y239744
X45384Y229744
X35384Y229744
X35384Y239744
X25384Y239744
X25384Y229744
X76203Y40433
T08
X56529Y184081
X56529Y201881
X30929Y201881
X30929Y184081
X354307Y197836
X363307Y197836
X372307Y197836
X391164Y198740
X391164Y188740
X391164Y177244
X391164Y167244
X391164Y157244
X391164Y145748
X391164Y135748
X391164Y125748
X391164Y114252
X391164Y104252
X391164Y94252
X391213Y83002
X391213Y73002
X391213Y63002
X371111Y72610
X362111Y72610
X353111Y72610
X353974Y102618
X362974Y102618
X371974Y102618
X372641Y134797
X363641Y134797
X354641Y134797
X354641Y167100
X363641Y167100
X372641Y167100
X391164Y208740
X391164Y220236
X391164Y230236
X391164Y240236
X391164Y251732
X391164Y261732
X391164Y271732
X391164Y283228
X391164Y293228
X391164Y303228
X391164Y314724
X391164Y324724
X391164Y334724
X391164Y346220
X391164Y356220
X391164Y366220
X372605Y356342
X363605Y356342
X354605Y356342
X354641Y324580
X363641Y324580
X372641Y324580
X372307Y292845
X363307Y292845
X354307Y292845
X354641Y261224
X363641Y261224
X372641Y261224
X372641Y229410
X363641Y229410
X354641Y229410
T09
X353849Y47173
X343849Y47173
X363849Y47173
T10
X84427Y100905
X84427Y117405
X84427Y133905
X84427Y150405
X62727Y150405
X62727Y133905
X62727Y117405
X62727Y100905
T11
X45248Y51752
T12
X45248Y69469
T13
X33987Y100905
X33987Y150405
T14
X13900Y392500
X388900Y392500
M30
