G75*
%MOIN*%
%OFA0B0*%
%FSLAX25Y25*%
%IPPOS*%
%LPD*%
%AMOC8*
5,1,8,0,0,1.08239X$1,22.5*
%
%ADD10C,0.13650*%
%ADD11R,0.06737X0.06737*%
%ADD12C,0.06737*%
%ADD13C,0.04343*%
%ADD14R,0.07300X0.25800*%
%ADD15C,0.08182*%
%ADD16C,0.07493*%
%ADD17C,0.07099*%
%ADD18C,0.07887*%
%ADD19C,0.08200*%
%ADD20C,0.06000*%
%ADD21R,0.08300X0.08300*%
%ADD22C,0.08300*%
%ADD23C,0.06000*%
%ADD24C,0.06800*%
%ADD25C,0.07300*%
%ADD26C,0.09400*%
%ADD27C,0.05918*%
%ADD28OC8,0.06000*%
%ADD29C,0.04369*%
%ADD30C,0.03778*%
D10*
X0013800Y0392152D03*
X0388800Y0392152D03*
D11*
X0019309Y0293753D03*
D12*
X0029309Y0293753D03*
X0029309Y0283753D03*
X0029309Y0273753D03*
X0029309Y0263753D03*
X0029309Y0253753D03*
X0029309Y0243753D03*
X0029309Y0233753D03*
X0029309Y0223753D03*
X0029309Y0213753D03*
X0029309Y0203753D03*
X0019309Y0203753D03*
X0019309Y0213753D03*
X0019309Y0223753D03*
X0019309Y0233753D03*
X0019309Y0243753D03*
X0019309Y0253753D03*
X0019309Y0263753D03*
X0019309Y0273753D03*
X0019309Y0283753D03*
D13*
X0093124Y0377621D03*
X0110446Y0377621D03*
D14*
X0106494Y0017500D03*
X0116494Y0017500D03*
X0126494Y0017500D03*
X0136494Y0017500D03*
X0146494Y0017500D03*
X0156494Y0017500D03*
X0166494Y0017500D03*
X0176494Y0017500D03*
X0186494Y0017500D03*
X0196494Y0017500D03*
X0206494Y0017500D03*
X0216494Y0017500D03*
X0226494Y0017500D03*
X0236494Y0017500D03*
X0246494Y0017500D03*
X0256494Y0017500D03*
X0266494Y0017500D03*
X0276494Y0017500D03*
X0286494Y0017500D03*
X0296494Y0017500D03*
X0306494Y0017500D03*
X0316494Y0017500D03*
X0326494Y0017500D03*
X0336494Y0017500D03*
X0096494Y0017500D03*
X0086494Y0017500D03*
X0076494Y0017500D03*
X0066494Y0017500D03*
D15*
X0058819Y0122566D03*
X0058819Y0132409D03*
X0048976Y0132409D03*
X0048976Y0122566D03*
X0048976Y0142251D03*
X0058819Y0142251D03*
X0058819Y0152094D03*
X0058819Y0161936D03*
X0048976Y0161936D03*
X0048976Y0152094D03*
X0048976Y0171779D03*
X0058819Y0171779D03*
D16*
X0020708Y0171779D03*
X0020708Y0122566D03*
D17*
X0009624Y0072969D03*
D18*
X0027341Y0072969D03*
D19*
X0135065Y0194299D03*
X0120226Y0195233D03*
X0120226Y0225233D03*
X0135065Y0224299D03*
X0132550Y0284652D03*
X0143800Y0284652D03*
X0156300Y0284652D03*
X0166300Y0284652D03*
X0183800Y0284652D03*
X0193800Y0284652D03*
X0203800Y0284652D03*
X0213800Y0284652D03*
X0213800Y0314652D03*
X0203800Y0314652D03*
X0193800Y0314652D03*
X0183800Y0314652D03*
X0166300Y0314652D03*
X0156300Y0314652D03*
X0143800Y0314652D03*
X0132550Y0314652D03*
X0137678Y0328784D03*
X0107678Y0328784D03*
X0260050Y0321202D03*
X0290050Y0321202D03*
X0290050Y0353402D03*
X0260050Y0353402D03*
X0260050Y0289002D03*
X0290050Y0289002D03*
X0290050Y0256802D03*
X0260050Y0256802D03*
X0260050Y0224602D03*
X0290050Y0224602D03*
X0290050Y0192402D03*
X0260050Y0192402D03*
X0260050Y0160202D03*
X0290050Y0160202D03*
X0275050Y0125902D03*
X0245050Y0125902D03*
X0260050Y0095802D03*
X0290050Y0095802D03*
X0346300Y0119452D03*
X0357550Y0118402D03*
X0371300Y0118002D03*
X0381300Y0118002D03*
X0391300Y0118002D03*
X0391300Y0150202D03*
X0381300Y0150202D03*
X0371300Y0150202D03*
X0356300Y0152152D03*
X0346300Y0149452D03*
X0356300Y0182152D03*
X0346300Y0185102D03*
X0371300Y0182402D03*
X0381300Y0182402D03*
X0391300Y0182402D03*
X0391300Y0214602D03*
X0381300Y0214602D03*
X0371300Y0214602D03*
X0356300Y0217152D03*
X0346300Y0215102D03*
X0356300Y0247152D03*
X0346300Y0249502D03*
X0371300Y0246802D03*
X0381300Y0246802D03*
X0391300Y0246802D03*
X0391300Y0279002D03*
X0381300Y0279002D03*
X0371300Y0279002D03*
X0356300Y0280902D03*
X0346300Y0279502D03*
X0356300Y0310902D03*
X0346300Y0313402D03*
X0371300Y0311202D03*
X0381300Y0311202D03*
X0391300Y0311202D03*
X0391300Y0343402D03*
X0381300Y0343402D03*
X0371300Y0343402D03*
X0346300Y0343402D03*
X0333397Y0370917D03*
X0363397Y0370917D03*
X0172590Y0107354D03*
X0162590Y0107354D03*
X0152590Y0107354D03*
X0357550Y0088402D03*
X0371300Y0080802D03*
X0381300Y0080802D03*
X0391300Y0080802D03*
X0391300Y0052152D03*
X0361300Y0052152D03*
D20*
X0196691Y0134632D03*
X0177691Y0134632D03*
X0048550Y0105902D03*
D21*
X0320895Y0049427D03*
D22*
X0330895Y0049427D03*
X0340895Y0049427D03*
D23*
X0336500Y0075902D02*
X0331300Y0075902D01*
X0331300Y0085902D02*
X0336500Y0085902D01*
X0336500Y0108102D02*
X0331300Y0108102D01*
X0331300Y0118102D02*
X0336500Y0118102D01*
X0336500Y0140302D02*
X0331300Y0140302D01*
X0331300Y0150302D02*
X0336500Y0150302D01*
X0336500Y0172502D02*
X0331300Y0172502D01*
X0331300Y0182502D02*
X0336500Y0182502D01*
X0336500Y0204702D02*
X0331300Y0204702D01*
X0331300Y0214702D02*
X0336500Y0214702D01*
X0336500Y0236902D02*
X0331300Y0236902D01*
X0331300Y0246902D02*
X0336500Y0246902D01*
X0336500Y0269102D02*
X0331300Y0269102D01*
X0331300Y0279102D02*
X0336500Y0279102D01*
X0336500Y0301302D02*
X0331300Y0301302D01*
X0331300Y0311302D02*
X0336500Y0311302D01*
X0336500Y0333502D02*
X0331300Y0333502D01*
X0331300Y0343502D02*
X0336500Y0343502D01*
X0301300Y0343502D02*
X0296100Y0343502D01*
X0296100Y0333502D02*
X0301300Y0333502D01*
X0301300Y0311302D02*
X0296100Y0311302D01*
X0296100Y0301302D02*
X0301300Y0301302D01*
X0301300Y0279102D02*
X0296100Y0279102D01*
X0296100Y0269102D02*
X0301300Y0269102D01*
X0301300Y0246902D02*
X0296100Y0246902D01*
X0296100Y0236902D02*
X0301300Y0236902D01*
X0301300Y0214702D02*
X0296100Y0214702D01*
X0296100Y0204702D02*
X0301300Y0204702D01*
X0301300Y0182502D02*
X0296100Y0182502D01*
X0296100Y0172502D02*
X0301300Y0172502D01*
X0301300Y0150302D02*
X0296100Y0150302D01*
X0296100Y0140302D02*
X0301300Y0140302D01*
X0301300Y0118102D02*
X0296100Y0118102D01*
X0296100Y0108102D02*
X0301300Y0108102D01*
X0301300Y0085902D02*
X0296100Y0085902D01*
X0296100Y0075902D02*
X0301300Y0075902D01*
X0086400Y0249652D02*
X0081200Y0249652D01*
X0081200Y0259652D02*
X0086400Y0259652D01*
X0086400Y0269652D02*
X0081200Y0269652D01*
X0081200Y0279652D02*
X0086400Y0279652D01*
X0056400Y0279652D02*
X0051200Y0279652D01*
X0051200Y0269652D02*
X0056400Y0269652D01*
X0056400Y0259652D02*
X0051200Y0259652D01*
X0051200Y0249652D02*
X0056400Y0249652D01*
D24*
X0056296Y0212777D02*
X0050296Y0212777D01*
X0050296Y0194977D02*
X0056296Y0194977D01*
X0075896Y0194977D02*
X0081896Y0194977D01*
X0081896Y0212777D02*
X0075896Y0212777D01*
X0116424Y0156409D02*
X0116424Y0150409D01*
X0134224Y0150409D02*
X0134224Y0156409D01*
X0134224Y0130809D02*
X0134224Y0124809D01*
X0116424Y0124809D02*
X0116424Y0130809D01*
D25*
X0168233Y0150483D03*
X0178233Y0150483D03*
X0186313Y0150745D03*
X0196313Y0150745D03*
D26*
X0142028Y0177802D03*
X0132186Y0177802D03*
X0122343Y0177802D03*
X0112501Y0177802D03*
D27*
X0127265Y0183077D03*
D28*
X0056550Y0105902D03*
X0048800Y0089652D03*
X0048800Y0059652D03*
D29*
X0106300Y0034652D03*
D30*
X0041300Y0050902D03*
X0076300Y0034652D03*
X0108800Y0100902D03*
X0085050Y0104652D03*
X0158800Y0193402D03*
X0166300Y0199652D03*
X0192550Y0184652D03*
X0212550Y0184652D03*
X0217550Y0184652D03*
X0223800Y0183402D03*
X0216300Y0202152D03*
X0226300Y0217152D03*
X0232550Y0214652D03*
X0226300Y0224652D03*
X0233800Y0234652D03*
X0221300Y0242152D03*
X0213800Y0237152D03*
X0216300Y0223402D03*
X0213800Y0219652D03*
X0198800Y0232152D03*
X0191300Y0239652D03*
X0186300Y0238402D03*
X0170050Y0242152D03*
X0166300Y0238402D03*
X0143800Y0252152D03*
X0121300Y0242152D03*
X0113800Y0217152D03*
X0113800Y0212152D03*
X0088800Y0212152D03*
X0178800Y0277152D03*
X0195050Y0268402D03*
X0200050Y0268402D03*
X0203800Y0267152D03*
X0210050Y0265902D03*
X0208800Y0252152D03*
X0203800Y0252152D03*
X0221300Y0279652D03*
X0196300Y0222152D03*
X0118800Y0357152D03*
X0083800Y0357152D03*
X0243800Y0389652D03*
X0358800Y0394652D03*
X0298800Y0068402D03*
X0308800Y0055902D03*
X0306300Y0033402D03*
X0316300Y0033402D03*
X0256300Y0034652D03*
X0256300Y0054652D03*
M02*
