G75*
%MOIN*%
%OFA0B0*%
%FSLAX25Y25*%
%IPPOS*%
%LPD*%
%AMOC8*
5,1,8,0,0,1.08239X$1,22.5*
%
%ADD10C,0.13650*%
%ADD11R,0.07300X0.25800*%
%ADD12C,0.04343*%
%ADD13R,0.05162X0.05162*%
%ADD14C,0.05162*%
%ADD15C,0.07099*%
%ADD16C,0.07887*%
%ADD17C,0.06000*%
%ADD18C,0.08200*%
%ADD19R,0.06737X0.06737*%
%ADD20C,0.06737*%
%ADD21C,0.06000*%
%ADD22C,0.06800*%
%ADD23R,0.08300X0.08300*%
%ADD24C,0.08300*%
%ADD25C,0.07300*%
%ADD26OC8,0.10800*%
%ADD27R,0.10800X0.10800*%
%ADD28C,0.12611*%
%ADD29OC8,0.06000*%
%ADD30C,0.03778*%
%ADD31C,0.04369*%
%ADD32C,0.06706*%
D10*
X0013900Y0392500D03*
X0388900Y0392500D03*
D11*
X0337150Y0017500D03*
X0327150Y0017500D03*
X0317150Y0017500D03*
X0307150Y0017500D03*
X0297150Y0017500D03*
X0287150Y0017500D03*
X0277150Y0017500D03*
X0267150Y0017500D03*
X0257150Y0017500D03*
X0247150Y0017500D03*
X0237150Y0017500D03*
X0227150Y0017500D03*
X0217150Y0017500D03*
X0207150Y0017500D03*
X0197150Y0017500D03*
X0187150Y0017500D03*
X0177150Y0017500D03*
X0167150Y0017500D03*
X0157150Y0017500D03*
X0147150Y0017500D03*
X0137150Y0017500D03*
X0127150Y0017500D03*
X0117150Y0017500D03*
X0107150Y0017500D03*
X0097150Y0017500D03*
X0087150Y0017500D03*
X0077150Y0017500D03*
X0067150Y0017500D03*
D12*
X0029324Y0337863D03*
X0029324Y0355186D03*
D13*
X0077973Y0179123D03*
D14*
X0082894Y0179123D03*
X0087815Y0179123D03*
X0092737Y0179123D03*
D15*
X0045248Y0051752D03*
D16*
X0045248Y0069469D03*
D17*
X0272877Y0074217D02*
X0278077Y0074217D01*
X0278077Y0084217D02*
X0272877Y0084217D01*
X0272309Y0103367D02*
X0277509Y0103367D01*
X0277509Y0113367D02*
X0272309Y0113367D01*
X0272642Y0143544D02*
X0277842Y0143544D01*
X0277842Y0153544D02*
X0272642Y0153544D01*
X0272642Y0174056D02*
X0277842Y0174056D01*
X0277842Y0184056D02*
X0272642Y0184056D01*
X0272642Y0204568D02*
X0277842Y0204568D01*
X0277842Y0214568D02*
X0272642Y0214568D01*
X0272642Y0236064D02*
X0277842Y0236064D01*
X0277842Y0246064D02*
X0272642Y0246064D01*
X0272642Y0266576D02*
X0277842Y0266576D01*
X0277842Y0276576D02*
X0272642Y0276576D01*
X0272642Y0297088D02*
X0277842Y0297088D01*
X0277842Y0307088D02*
X0272642Y0307088D01*
X0272642Y0326615D02*
X0277842Y0326615D01*
X0277842Y0336615D02*
X0272642Y0336615D01*
X0272642Y0356143D02*
X0277842Y0356143D01*
X0277842Y0366143D02*
X0272642Y0366143D01*
X0307842Y0366143D02*
X0313042Y0366143D01*
X0313042Y0356143D02*
X0307842Y0356143D01*
X0307842Y0336615D02*
X0313042Y0336615D01*
X0313042Y0326615D02*
X0307842Y0326615D01*
X0307842Y0307088D02*
X0313042Y0307088D01*
X0313042Y0297088D02*
X0307842Y0297088D01*
X0307842Y0276576D02*
X0313042Y0276576D01*
X0313042Y0266576D02*
X0307842Y0266576D01*
X0307842Y0246064D02*
X0313042Y0246064D01*
X0313042Y0236064D02*
X0307842Y0236064D01*
X0307842Y0214568D02*
X0313042Y0214568D01*
X0313042Y0204568D02*
X0307842Y0204568D01*
X0307842Y0184056D02*
X0313042Y0184056D01*
X0313042Y0174056D02*
X0307842Y0174056D01*
X0307842Y0153544D02*
X0313042Y0153544D01*
X0313042Y0143544D02*
X0307842Y0143544D01*
X0307509Y0113367D02*
X0312709Y0113367D01*
X0312709Y0103367D02*
X0307509Y0103367D01*
X0308077Y0084217D02*
X0313277Y0084217D01*
X0313277Y0074217D02*
X0308077Y0074217D01*
D18*
X0262227Y0092520D03*
X0262227Y0102520D03*
X0262227Y0123031D03*
X0262227Y0133031D03*
X0262227Y0152559D03*
X0262227Y0162559D03*
X0262227Y0182087D03*
X0262227Y0192087D03*
X0262227Y0211614D03*
X0262227Y0221614D03*
X0261940Y0236142D03*
X0261940Y0246142D03*
X0261893Y0265113D03*
X0261893Y0275113D03*
X0262227Y0294291D03*
X0262227Y0304291D03*
X0262227Y0319882D03*
X0262227Y0329882D03*
X0262227Y0349409D03*
X0262227Y0359409D03*
X0184562Y0335630D03*
X0182895Y0324549D03*
X0154562Y0335630D03*
X0152895Y0324549D03*
X0137054Y0335634D03*
X0127054Y0335634D03*
X0129054Y0324635D03*
X0119054Y0324635D03*
X0117734Y0204970D03*
X0117734Y0194970D03*
X0103574Y0194652D03*
X0103574Y0204652D03*
X0391164Y0208740D03*
X0391164Y0220236D03*
X0391164Y0230236D03*
X0391164Y0240236D03*
X0391164Y0251732D03*
X0391164Y0261732D03*
X0391164Y0271732D03*
X0391164Y0283228D03*
X0391164Y0293228D03*
X0391164Y0303228D03*
X0391164Y0314724D03*
X0391164Y0324724D03*
X0391164Y0334724D03*
X0391164Y0346220D03*
X0391164Y0356220D03*
X0391164Y0366220D03*
X0391164Y0198740D03*
X0391164Y0188740D03*
X0391164Y0177244D03*
X0391164Y0167244D03*
X0391164Y0157244D03*
X0391164Y0145748D03*
X0391164Y0135748D03*
X0391164Y0125748D03*
X0391164Y0114252D03*
X0391164Y0104252D03*
X0391164Y0094252D03*
X0391213Y0083002D03*
X0391213Y0073002D03*
X0391213Y0063002D03*
D19*
X0115384Y0239744D03*
D20*
X0105384Y0239744D03*
X0105384Y0229744D03*
X0115384Y0229744D03*
X0095384Y0229744D03*
X0095384Y0239744D03*
X0085384Y0239744D03*
X0085384Y0229744D03*
X0075384Y0229744D03*
X0075384Y0239744D03*
X0065384Y0239744D03*
X0065384Y0229744D03*
X0055384Y0229744D03*
X0055384Y0239744D03*
X0045384Y0239744D03*
X0045384Y0229744D03*
X0035384Y0229744D03*
X0035384Y0239744D03*
X0025384Y0239744D03*
X0025384Y0229744D03*
D21*
X0137446Y0166771D03*
X0156446Y0166771D03*
D22*
X0059529Y0184081D02*
X0053529Y0184081D01*
X0053529Y0201881D02*
X0059529Y0201881D01*
X0033929Y0201881D02*
X0027929Y0201881D01*
X0027929Y0184081D02*
X0033929Y0184081D01*
X0354307Y0194836D02*
X0354307Y0200836D01*
X0363307Y0200836D02*
X0363307Y0194836D01*
X0372307Y0194836D02*
X0372307Y0200836D01*
X0372641Y0226410D02*
X0372641Y0232410D01*
X0363641Y0232410D02*
X0363641Y0226410D01*
X0354641Y0226410D02*
X0354641Y0232410D01*
X0354641Y0258224D02*
X0354641Y0264224D01*
X0363641Y0264224D02*
X0363641Y0258224D01*
X0372641Y0258224D02*
X0372641Y0264224D01*
X0372307Y0289845D02*
X0372307Y0295845D01*
X0363307Y0295845D02*
X0363307Y0289845D01*
X0354307Y0289845D02*
X0354307Y0295845D01*
X0354641Y0321580D02*
X0354641Y0327580D01*
X0363641Y0327580D02*
X0363641Y0321580D01*
X0372641Y0321580D02*
X0372641Y0327580D01*
X0372605Y0353342D02*
X0372605Y0359342D01*
X0363605Y0359342D02*
X0363605Y0353342D01*
X0354605Y0353342D02*
X0354605Y0359342D01*
X0354641Y0170100D02*
X0354641Y0164100D01*
X0363641Y0164100D02*
X0363641Y0170100D01*
X0372641Y0170100D02*
X0372641Y0164100D01*
X0372641Y0137797D02*
X0372641Y0131797D01*
X0363641Y0131797D02*
X0363641Y0137797D01*
X0354641Y0137797D02*
X0354641Y0131797D01*
X0353974Y0105618D02*
X0353974Y0099618D01*
X0362974Y0099618D02*
X0362974Y0105618D01*
X0371974Y0105618D02*
X0371974Y0099618D01*
X0371111Y0075610D02*
X0371111Y0069610D01*
X0362111Y0069610D02*
X0362111Y0075610D01*
X0353111Y0075610D02*
X0353111Y0069610D01*
D23*
X0343849Y0047173D03*
D24*
X0353849Y0047173D03*
X0363849Y0047173D03*
D25*
X0166361Y0182197D03*
X0156361Y0182197D03*
X0137692Y0181769D03*
X0127692Y0181769D03*
D26*
X0084427Y0150405D03*
X0084427Y0133905D03*
X0084427Y0117405D03*
X0084427Y0100905D03*
X0062727Y0117405D03*
X0062727Y0133905D03*
X0062727Y0150405D03*
D27*
X0062727Y0100905D03*
D28*
X0033987Y0100905D03*
X0033987Y0150405D03*
D29*
X0195714Y0301302D03*
X0195714Y0331302D03*
X0184383Y0350965D03*
X0154383Y0350965D03*
X0140721Y0346299D03*
X0110721Y0346299D03*
X0098390Y0345967D03*
X0080725Y0350634D03*
X0080725Y0320634D03*
X0098390Y0315967D03*
D30*
X0091391Y0296638D03*
X0099723Y0288638D03*
X0117116Y0271174D03*
X0112687Y0266744D03*
X0108389Y0254975D03*
X0126082Y0267013D03*
X0130337Y0270748D03*
X0133053Y0292638D03*
X0155051Y0304637D03*
X0183048Y0266641D03*
X0181715Y0261974D03*
X0185382Y0247642D03*
X0181715Y0221645D03*
X0160849Y0212787D03*
X0151385Y0217645D03*
X0096724Y0220645D03*
X0026064Y0316302D03*
X0052728Y0328634D03*
X0051728Y0364297D03*
X0184715Y0342300D03*
X0202187Y0304213D03*
X0242709Y0260308D03*
X0248042Y0259974D03*
X0298704Y0069994D03*
X0303037Y0054995D03*
X0306370Y0041996D03*
X0316369Y0041996D03*
X0156051Y0037330D03*
X0144386Y0041996D03*
X0123721Y0047662D03*
X0107389Y0040330D03*
D31*
X0066361Y0060118D03*
X0058487Y0075866D03*
X0210463Y0217636D03*
X0225809Y0236950D03*
X0213998Y0251063D03*
X0223841Y0290433D03*
X0194838Y0310118D03*
X0147132Y0249094D03*
X0036833Y0302113D03*
X0013211Y0268780D03*
D32*
X0076203Y0040433D03*
M02*
