G75*
%MOIN*%
%OFA0B0*%
%FSLAX25Y25*%
%IPPOS*%
%LPD*%
%AMOC8*
5,1,8,0,0,1.08239X$1,22.5*
%
%ADD10C,0.00300*%
%ADD11C,0.00400*%
%ADD12C,0.00700*%
%ADD13R,0.23750X0.07500*%
%ADD14C,0.00600*%
%ADD15C,0.00197*%
%ADD16C,0.00787*%
%ADD17C,0.00984*%
%ADD18C,0.00800*%
%ADD19C,0.00500*%
%ADD20C,0.01600*%
%ADD21C,0.00200*%
%ADD22R,0.01500X0.04000*%
%ADD23R,0.02000X0.01500*%
D10*
X0091814Y0243552D02*
X0092431Y0243552D01*
X0093048Y0244169D01*
X0093048Y0245404D01*
X0093666Y0246021D01*
X0094283Y0246021D01*
X0094900Y0245404D01*
X0094900Y0244169D01*
X0094283Y0243552D01*
X0091814Y0243552D02*
X0091197Y0244169D01*
X0091197Y0245404D01*
X0091814Y0246021D01*
X0091197Y0247235D02*
X0094900Y0247235D01*
X0093666Y0248470D01*
X0094900Y0249704D01*
X0091197Y0249704D01*
X0091197Y0250918D02*
X0091197Y0252770D01*
X0091814Y0253387D01*
X0094283Y0253387D01*
X0094900Y0252770D01*
X0094900Y0250918D01*
X0091197Y0250918D01*
X0091197Y0254601D02*
X0091197Y0255836D01*
X0091197Y0255219D02*
X0094900Y0255219D01*
X0094900Y0255836D02*
X0094900Y0254601D01*
X0094283Y0257057D02*
X0091814Y0257057D01*
X0091197Y0257674D01*
X0091197Y0258908D01*
X0091814Y0259526D01*
X0094283Y0259526D01*
X0094900Y0258908D01*
X0094900Y0257674D01*
X0094283Y0257057D01*
X0094283Y0269802D02*
X0094900Y0270419D01*
X0094900Y0271036D01*
X0094283Y0271654D01*
X0091197Y0271654D01*
X0091197Y0272271D02*
X0091197Y0271036D01*
X0091197Y0273485D02*
X0091197Y0275954D01*
X0091197Y0277168D02*
X0091197Y0279020D01*
X0091814Y0279637D01*
X0094283Y0279637D01*
X0094900Y0279020D01*
X0094900Y0277168D01*
X0091197Y0277168D01*
X0091197Y0274720D02*
X0094900Y0274720D01*
X0094900Y0280851D02*
X0094900Y0282086D01*
X0094900Y0281469D02*
X0091197Y0281469D01*
X0091197Y0282086D02*
X0091197Y0280851D01*
D11*
X0064000Y0038219D02*
X0064867Y0037352D01*
X0066602Y0037352D01*
X0067470Y0038219D01*
X0069156Y0038219D02*
X0070024Y0037352D01*
X0071759Y0037352D01*
X0072626Y0038219D01*
X0072626Y0039954D01*
X0071759Y0040822D01*
X0070024Y0040822D01*
X0069156Y0039954D01*
X0069156Y0038219D01*
X0067470Y0041689D02*
X0066602Y0042556D01*
X0064867Y0042556D01*
X0064000Y0041689D01*
X0064000Y0038219D01*
X0064867Y0045752D02*
X0064000Y0046619D01*
X0064000Y0050956D01*
X0064867Y0054152D02*
X0064000Y0055019D01*
X0064000Y0058489D01*
X0064867Y0059356D01*
X0066602Y0059356D01*
X0067470Y0058489D01*
X0069156Y0056754D02*
X0070024Y0057622D01*
X0071759Y0057622D01*
X0072626Y0056754D01*
X0072626Y0055887D01*
X0069156Y0055887D01*
X0069156Y0056754D02*
X0069156Y0055019D01*
X0070024Y0054152D01*
X0071759Y0054152D01*
X0074313Y0054152D02*
X0074313Y0057622D01*
X0076915Y0057622D01*
X0077782Y0056754D01*
X0077782Y0054152D01*
X0080337Y0055019D02*
X0081204Y0054152D01*
X0080337Y0055019D02*
X0080337Y0058489D01*
X0079469Y0057622D02*
X0081204Y0057622D01*
X0082907Y0056754D02*
X0083774Y0057622D01*
X0085509Y0057622D01*
X0086376Y0056754D01*
X0086376Y0055887D01*
X0082907Y0055887D01*
X0082907Y0056754D02*
X0082907Y0055019D01*
X0083774Y0054152D01*
X0085509Y0054152D01*
X0088063Y0054152D02*
X0088063Y0057622D01*
X0088063Y0055887D02*
X0089798Y0057622D01*
X0090665Y0057622D01*
X0089782Y0062552D02*
X0089782Y0067756D01*
X0088095Y0066889D02*
X0088095Y0063419D01*
X0087228Y0062552D01*
X0085493Y0062552D01*
X0084626Y0063419D01*
X0084626Y0066889D01*
X0085493Y0067756D01*
X0087228Y0067756D01*
X0088095Y0066889D01*
X0089782Y0065154D02*
X0090649Y0066022D01*
X0092384Y0066022D01*
X0093252Y0065154D01*
X0093252Y0062552D01*
X0094938Y0062552D02*
X0096673Y0062552D01*
X0095806Y0062552D02*
X0095806Y0066022D01*
X0094938Y0066022D01*
X0095806Y0067756D02*
X0095806Y0068624D01*
X0099243Y0066022D02*
X0098376Y0065154D01*
X0098376Y0063419D01*
X0099243Y0062552D01*
X0100978Y0062552D01*
X0101846Y0063419D01*
X0101846Y0065154D01*
X0100978Y0066022D01*
X0099243Y0066022D01*
X0097517Y0059356D02*
X0100986Y0059356D01*
X0103540Y0057622D02*
X0102673Y0056754D01*
X0102673Y0055019D01*
X0103540Y0054152D01*
X0105275Y0054152D01*
X0106143Y0055019D01*
X0106143Y0056754D01*
X0105275Y0057622D01*
X0103540Y0057622D01*
X0107829Y0057622D02*
X0107829Y0054152D01*
X0107829Y0055887D02*
X0109564Y0057622D01*
X0110432Y0057622D01*
X0111291Y0062552D02*
X0109556Y0062552D01*
X0108689Y0063419D01*
X0109556Y0065154D02*
X0108689Y0066022D01*
X0108689Y0066889D01*
X0109556Y0067756D01*
X0111291Y0067756D01*
X0112158Y0066889D01*
X0113845Y0066022D02*
X0115580Y0066022D01*
X0114713Y0066889D02*
X0114713Y0063419D01*
X0115580Y0062552D01*
X0117283Y0063419D02*
X0118150Y0064287D01*
X0120752Y0064287D01*
X0120752Y0065154D02*
X0120752Y0062552D01*
X0118150Y0062552D01*
X0117283Y0063419D01*
X0118150Y0066022D02*
X0119885Y0066022D01*
X0120752Y0065154D01*
X0122439Y0066022D02*
X0124174Y0066022D01*
X0123307Y0066889D02*
X0123307Y0063419D01*
X0124174Y0062552D01*
X0125877Y0063419D02*
X0125877Y0065154D01*
X0126744Y0066022D01*
X0128479Y0066022D01*
X0129346Y0065154D01*
X0129346Y0064287D01*
X0125877Y0064287D01*
X0125877Y0063419D02*
X0126744Y0062552D01*
X0128479Y0062552D01*
X0128463Y0058489D02*
X0128463Y0055019D01*
X0129330Y0054152D01*
X0131033Y0055019D02*
X0131901Y0054152D01*
X0133635Y0054152D01*
X0134503Y0055019D01*
X0134503Y0056754D01*
X0133635Y0057622D01*
X0131901Y0057622D01*
X0131033Y0056754D01*
X0131033Y0055019D01*
X0129330Y0057622D02*
X0127596Y0057622D01*
X0125909Y0057622D02*
X0125909Y0054152D01*
X0123307Y0054152D01*
X0122439Y0055019D01*
X0122439Y0057622D01*
X0120752Y0057622D02*
X0120752Y0054152D01*
X0120752Y0056754D02*
X0117283Y0056754D01*
X0117283Y0057622D02*
X0117283Y0054152D01*
X0117283Y0050956D02*
X0119885Y0050956D01*
X0120752Y0050089D01*
X0120752Y0048354D01*
X0119885Y0047487D01*
X0117283Y0047487D01*
X0119018Y0047487D02*
X0120752Y0045752D01*
X0122439Y0046619D02*
X0123307Y0045752D01*
X0125041Y0045752D01*
X0125909Y0046619D01*
X0125909Y0048354D01*
X0125041Y0049222D01*
X0123307Y0049222D01*
X0122439Y0048354D01*
X0122439Y0046619D01*
X0124158Y0042556D02*
X0126760Y0042556D01*
X0127628Y0041689D01*
X0127628Y0040822D01*
X0126760Y0039954D01*
X0124158Y0039954D01*
X0124158Y0037352D02*
X0126760Y0037352D01*
X0127628Y0038219D01*
X0127628Y0039087D01*
X0126760Y0039954D01*
X0129314Y0039954D02*
X0130182Y0040822D01*
X0131917Y0040822D01*
X0132784Y0039954D01*
X0132784Y0038219D01*
X0131917Y0037352D01*
X0130182Y0037352D01*
X0129314Y0038219D01*
X0129314Y0039954D01*
X0134471Y0038219D02*
X0135338Y0039087D01*
X0137940Y0039087D01*
X0137940Y0039954D02*
X0137940Y0037352D01*
X0135338Y0037352D01*
X0134471Y0038219D01*
X0135338Y0040822D02*
X0137073Y0040822D01*
X0137940Y0039954D01*
X0139627Y0039087D02*
X0141362Y0040822D01*
X0142229Y0040822D01*
X0143924Y0039954D02*
X0144792Y0040822D01*
X0147394Y0040822D01*
X0147394Y0042556D02*
X0147394Y0037352D01*
X0144792Y0037352D01*
X0143924Y0038219D01*
X0143924Y0039954D01*
X0139627Y0040822D02*
X0139627Y0037352D01*
X0139643Y0045752D02*
X0138776Y0046619D01*
X0138776Y0050089D01*
X0137908Y0049222D02*
X0139643Y0049222D01*
X0141346Y0049222D02*
X0142213Y0049222D01*
X0142213Y0045752D01*
X0141346Y0045752D02*
X0143081Y0045752D01*
X0144784Y0046619D02*
X0145651Y0045752D01*
X0148253Y0045752D01*
X0149940Y0045752D02*
X0152542Y0045752D01*
X0153410Y0046619D01*
X0152542Y0047487D01*
X0150807Y0047487D01*
X0149940Y0048354D01*
X0150807Y0049222D01*
X0153410Y0049222D01*
X0155112Y0054152D02*
X0156847Y0057622D01*
X0158534Y0056754D02*
X0159401Y0057622D01*
X0161136Y0057622D01*
X0162004Y0056754D01*
X0162004Y0055887D01*
X0158534Y0055887D01*
X0158534Y0056754D02*
X0158534Y0055019D01*
X0159401Y0054152D01*
X0161136Y0054152D01*
X0161988Y0050956D02*
X0161988Y0045752D01*
X0165409Y0046619D02*
X0165409Y0048354D01*
X0166277Y0049222D01*
X0168011Y0049222D01*
X0168879Y0048354D01*
X0168879Y0047487D01*
X0165409Y0047487D01*
X0165409Y0046619D02*
X0166277Y0045752D01*
X0168011Y0045752D01*
X0170566Y0046619D02*
X0171433Y0047487D01*
X0174035Y0047487D01*
X0174035Y0048354D02*
X0174035Y0045752D01*
X0171433Y0045752D01*
X0170566Y0046619D01*
X0171433Y0049222D02*
X0173168Y0049222D01*
X0174035Y0048354D01*
X0175722Y0049222D02*
X0175722Y0045752D01*
X0177457Y0045752D02*
X0177457Y0048354D01*
X0178324Y0049222D01*
X0179192Y0048354D01*
X0179192Y0045752D01*
X0177457Y0048354D02*
X0176589Y0049222D01*
X0175722Y0049222D01*
X0174871Y0054152D02*
X0174003Y0055019D01*
X0174003Y0056754D01*
X0174871Y0057622D01*
X0176605Y0057622D01*
X0177473Y0056754D01*
X0177473Y0055887D01*
X0174003Y0055887D01*
X0172316Y0056754D02*
X0172316Y0058489D01*
X0171449Y0059356D01*
X0168847Y0059356D01*
X0168847Y0054152D01*
X0168847Y0055887D02*
X0171449Y0055887D01*
X0172316Y0056754D01*
X0170582Y0055887D02*
X0172316Y0054152D01*
X0174871Y0054152D02*
X0176605Y0054152D01*
X0179160Y0054152D02*
X0181762Y0054152D01*
X0182629Y0055019D01*
X0181762Y0055887D01*
X0180027Y0055887D01*
X0179160Y0056754D01*
X0180027Y0057622D01*
X0182629Y0057622D01*
X0184316Y0056754D02*
X0185183Y0057622D01*
X0186918Y0057622D01*
X0187786Y0056754D01*
X0187786Y0055887D01*
X0184316Y0055887D01*
X0184316Y0056754D02*
X0184316Y0055019D01*
X0185183Y0054152D01*
X0186918Y0054152D01*
X0189472Y0055019D02*
X0190340Y0055887D01*
X0192942Y0055887D01*
X0192942Y0056754D02*
X0192942Y0054152D01*
X0190340Y0054152D01*
X0189472Y0055019D01*
X0190340Y0057622D02*
X0192075Y0057622D01*
X0192942Y0056754D01*
X0194629Y0055887D02*
X0196364Y0057622D01*
X0197231Y0057622D01*
X0198926Y0056754D02*
X0198926Y0055019D01*
X0199793Y0054152D01*
X0202395Y0054152D01*
X0204082Y0054152D02*
X0204082Y0059356D01*
X0204950Y0057622D02*
X0206684Y0057622D01*
X0207552Y0056754D01*
X0207552Y0054152D01*
X0204082Y0056754D02*
X0204950Y0057622D01*
X0202395Y0057622D02*
X0199793Y0057622D01*
X0198926Y0056754D01*
X0194629Y0057622D02*
X0194629Y0054152D01*
X0193777Y0042556D02*
X0192910Y0041689D01*
X0193777Y0042556D02*
X0195512Y0042556D01*
X0196380Y0041689D01*
X0196380Y0040822D01*
X0195512Y0039954D01*
X0196380Y0039087D01*
X0196380Y0038219D01*
X0195512Y0037352D01*
X0193777Y0037352D01*
X0192910Y0038219D01*
X0194645Y0039954D02*
X0195512Y0039954D01*
X0198066Y0038219D02*
X0198934Y0038219D01*
X0198934Y0037352D01*
X0198066Y0037352D01*
X0198066Y0038219D01*
X0200645Y0038219D02*
X0204114Y0041689D01*
X0204114Y0038219D01*
X0203247Y0037352D01*
X0201512Y0037352D01*
X0200645Y0038219D01*
X0200645Y0041689D01*
X0201512Y0042556D01*
X0203247Y0042556D01*
X0204114Y0041689D01*
X0186043Y0038219D02*
X0186043Y0037352D01*
X0185175Y0037352D01*
X0185175Y0038219D01*
X0186043Y0038219D01*
X0183489Y0040822D02*
X0181754Y0037352D01*
X0180019Y0040822D01*
X0178332Y0039954D02*
X0177465Y0040822D01*
X0175730Y0040822D01*
X0174863Y0039954D01*
X0174863Y0038219D01*
X0175730Y0037352D01*
X0177465Y0037352D01*
X0178332Y0039087D02*
X0174863Y0039087D01*
X0173176Y0039954D02*
X0173176Y0041689D01*
X0172308Y0042556D01*
X0169706Y0042556D01*
X0169706Y0037352D01*
X0169706Y0039087D02*
X0172308Y0039087D01*
X0173176Y0039954D01*
X0171441Y0039087D02*
X0173176Y0037352D01*
X0178332Y0039087D02*
X0178332Y0039954D01*
X0162863Y0039954D02*
X0159393Y0039954D01*
X0157707Y0039954D02*
X0154237Y0039954D01*
X0148253Y0049222D02*
X0145651Y0049222D01*
X0144784Y0048354D01*
X0144784Y0046619D01*
X0142213Y0050956D02*
X0142213Y0051824D01*
X0142213Y0054152D02*
X0141346Y0055019D01*
X0141346Y0056754D01*
X0142213Y0057622D01*
X0143948Y0057622D01*
X0144816Y0056754D01*
X0144816Y0055019D01*
X0143948Y0054152D01*
X0142213Y0054152D01*
X0139659Y0054152D02*
X0139659Y0056754D01*
X0138792Y0057622D01*
X0137924Y0056754D01*
X0137924Y0054152D01*
X0136190Y0054152D02*
X0136190Y0057622D01*
X0137057Y0057622D01*
X0137924Y0056754D01*
X0135354Y0049222D02*
X0133619Y0049222D01*
X0132752Y0048354D01*
X0132752Y0046619D01*
X0133619Y0045752D01*
X0135354Y0045752D01*
X0136222Y0046619D01*
X0136222Y0048354D01*
X0135354Y0049222D01*
X0131065Y0048354D02*
X0130198Y0049222D01*
X0127596Y0049222D01*
X0127596Y0050956D02*
X0127596Y0045752D01*
X0130198Y0045752D01*
X0131065Y0046619D01*
X0131065Y0048354D01*
X0124158Y0042556D02*
X0124158Y0037352D01*
X0117307Y0040822D02*
X0116439Y0040822D01*
X0114705Y0039087D01*
X0114705Y0037352D02*
X0114705Y0040822D01*
X0113018Y0039954D02*
X0112150Y0040822D01*
X0110416Y0040822D01*
X0109548Y0039954D01*
X0109548Y0038219D01*
X0110416Y0037352D01*
X0112150Y0037352D01*
X0113018Y0038219D01*
X0113018Y0039954D01*
X0107861Y0040822D02*
X0105259Y0040822D01*
X0104392Y0039954D01*
X0105259Y0039087D01*
X0106994Y0039087D01*
X0107861Y0038219D01*
X0106994Y0037352D01*
X0104392Y0037352D01*
X0102705Y0038219D02*
X0101838Y0039087D01*
X0100103Y0039087D01*
X0099235Y0039954D01*
X0100103Y0040822D01*
X0102705Y0040822D01*
X0102705Y0038219D02*
X0101838Y0037352D01*
X0099235Y0037352D01*
X0097549Y0039087D02*
X0094079Y0039087D01*
X0094079Y0039954D02*
X0094946Y0040822D01*
X0096681Y0040822D01*
X0097549Y0039954D01*
X0097549Y0039087D01*
X0096681Y0037352D02*
X0094946Y0037352D01*
X0094079Y0038219D01*
X0094079Y0039954D01*
X0092392Y0040822D02*
X0089790Y0040822D01*
X0088923Y0039954D01*
X0088923Y0038219D01*
X0089790Y0037352D01*
X0092392Y0037352D01*
X0087236Y0038219D02*
X0087236Y0039954D01*
X0086368Y0040822D01*
X0084634Y0040822D01*
X0083766Y0039954D01*
X0083766Y0038219D01*
X0084634Y0037352D01*
X0086368Y0037352D01*
X0087236Y0038219D01*
X0082071Y0040822D02*
X0081204Y0040822D01*
X0079469Y0039087D01*
X0079469Y0037352D02*
X0079469Y0040822D01*
X0077782Y0041689D02*
X0077782Y0039954D01*
X0076915Y0039087D01*
X0074313Y0039087D01*
X0074313Y0037352D02*
X0074313Y0042556D01*
X0076915Y0042556D01*
X0077782Y0041689D01*
X0077782Y0045752D02*
X0075180Y0045752D01*
X0074313Y0046619D01*
X0074313Y0048354D01*
X0075180Y0049222D01*
X0077782Y0049222D01*
X0077782Y0050956D02*
X0077782Y0045752D01*
X0079469Y0046619D02*
X0079469Y0048354D01*
X0080337Y0049222D01*
X0082071Y0049222D01*
X0082939Y0048354D01*
X0082939Y0047487D01*
X0079469Y0047487D01*
X0079469Y0046619D02*
X0080337Y0045752D01*
X0082071Y0045752D01*
X0084626Y0045752D02*
X0084626Y0049222D01*
X0086360Y0049222D02*
X0084626Y0047487D01*
X0086360Y0049222D02*
X0087228Y0049222D01*
X0088923Y0049222D02*
X0088923Y0046619D01*
X0089790Y0045752D01*
X0090657Y0046619D01*
X0091525Y0045752D01*
X0092392Y0046619D01*
X0092392Y0049222D01*
X0094946Y0049222D02*
X0096681Y0049222D01*
X0097549Y0048354D01*
X0097549Y0045752D01*
X0094946Y0045752D01*
X0094079Y0046619D01*
X0094946Y0047487D01*
X0097549Y0047487D01*
X0099235Y0049222D02*
X0100970Y0049222D01*
X0100103Y0050089D02*
X0100103Y0046619D01*
X0100970Y0045752D01*
X0102673Y0046619D02*
X0102673Y0048354D01*
X0103540Y0049222D01*
X0105275Y0049222D01*
X0106143Y0048354D01*
X0106143Y0047487D01*
X0102673Y0047487D01*
X0102673Y0046619D02*
X0103540Y0045752D01*
X0105275Y0045752D01*
X0107829Y0045752D02*
X0107829Y0049222D01*
X0107829Y0047487D02*
X0109564Y0049222D01*
X0110432Y0049222D01*
X0117283Y0050956D02*
X0117283Y0045752D01*
X0117283Y0057622D02*
X0119018Y0059356D01*
X0120752Y0057622D01*
X0112158Y0063419D02*
X0111291Y0062552D01*
X0112158Y0063419D02*
X0112158Y0064287D01*
X0111291Y0065154D01*
X0109556Y0065154D01*
X0099251Y0056754D02*
X0097517Y0056754D01*
X0097517Y0054152D02*
X0097517Y0059356D01*
X0077782Y0064287D02*
X0074313Y0064287D01*
X0074313Y0065154D02*
X0074313Y0063419D01*
X0075180Y0062552D01*
X0076915Y0062552D01*
X0077782Y0064287D02*
X0077782Y0065154D01*
X0076915Y0066022D01*
X0075180Y0066022D01*
X0074313Y0065154D01*
X0072626Y0065154D02*
X0072626Y0062552D01*
X0072626Y0065154D02*
X0071759Y0066022D01*
X0070024Y0066022D01*
X0069156Y0065154D01*
X0069156Y0067756D02*
X0069156Y0062552D01*
X0065735Y0062552D02*
X0065735Y0067756D01*
X0064000Y0067756D02*
X0067470Y0067756D01*
X0067470Y0055019D02*
X0066602Y0054152D01*
X0064867Y0054152D01*
X0067470Y0050956D02*
X0067470Y0046619D01*
X0066602Y0045752D01*
X0064867Y0045752D01*
X0069156Y0045752D02*
X0069156Y0049222D01*
X0071759Y0049222D01*
X0072626Y0048354D01*
X0072626Y0045752D01*
X0071818Y0080852D02*
X0074153Y0080852D01*
X0075409Y0080852D02*
X0075409Y0084355D01*
X0077160Y0084355D01*
X0077744Y0083771D01*
X0077744Y0082603D01*
X0077160Y0082020D01*
X0075409Y0082020D01*
X0076577Y0082020D02*
X0077744Y0080852D01*
X0074153Y0084355D02*
X0071818Y0084355D01*
X0071818Y0080852D01*
X0071818Y0082603D02*
X0072986Y0082603D01*
X0070562Y0084355D02*
X0068227Y0084355D01*
X0069394Y0084355D02*
X0069394Y0080852D01*
X0066971Y0080852D02*
X0064636Y0080852D01*
X0064636Y0084355D01*
X0063409Y0084355D02*
X0062242Y0084355D01*
X0062826Y0084355D02*
X0062826Y0080852D01*
X0063409Y0080852D02*
X0062242Y0080852D01*
X0059818Y0082603D02*
X0058651Y0082603D01*
X0058651Y0080852D02*
X0058651Y0084355D01*
X0060986Y0084355D01*
X0057395Y0080268D02*
X0055060Y0080268D01*
X0053804Y0080852D02*
X0052636Y0082020D01*
X0053220Y0082020D02*
X0051468Y0082020D01*
X0051468Y0080852D02*
X0051468Y0084355D01*
X0053220Y0084355D01*
X0053804Y0083771D01*
X0053804Y0082603D01*
X0053220Y0082020D01*
X0057084Y0092602D02*
X0058251Y0092602D01*
X0058835Y0093186D01*
X0060091Y0092018D02*
X0062426Y0092018D01*
X0063682Y0092602D02*
X0063682Y0096105D01*
X0066017Y0096105D01*
X0067273Y0096105D02*
X0068441Y0096105D01*
X0067857Y0096105D02*
X0067857Y0092602D01*
X0067273Y0092602D02*
X0068441Y0092602D01*
X0069667Y0092602D02*
X0069667Y0096105D01*
X0069667Y0092602D02*
X0072003Y0092602D01*
X0074426Y0092602D02*
X0074426Y0096105D01*
X0073258Y0096105D02*
X0075594Y0096105D01*
X0076849Y0096105D02*
X0076849Y0092602D01*
X0079185Y0092602D01*
X0080440Y0092602D02*
X0080440Y0096105D01*
X0082192Y0096105D01*
X0082776Y0095521D01*
X0082776Y0094353D01*
X0082192Y0093770D01*
X0080440Y0093770D01*
X0081608Y0093770D02*
X0082776Y0092602D01*
X0079185Y0096105D02*
X0076849Y0096105D01*
X0076849Y0094353D02*
X0078017Y0094353D01*
X0064850Y0094353D02*
X0063682Y0094353D01*
X0058835Y0095521D02*
X0058251Y0096105D01*
X0057084Y0096105D01*
X0056500Y0095521D01*
X0056500Y0093186D01*
X0057084Y0092602D01*
X0034524Y0131444D02*
X0029920Y0131444D01*
X0034524Y0134513D01*
X0029920Y0134513D01*
X0031455Y0136048D02*
X0029920Y0137582D01*
X0031455Y0139117D01*
X0034524Y0139117D01*
X0034524Y0140651D02*
X0029920Y0140651D01*
X0034524Y0143721D01*
X0029920Y0143721D01*
X0030687Y0145255D02*
X0033757Y0145255D01*
X0034524Y0146023D01*
X0034524Y0147557D01*
X0033757Y0148325D01*
X0030687Y0148325D01*
X0029920Y0147557D01*
X0029920Y0146023D01*
X0030687Y0145255D01*
X0029920Y0149859D02*
X0029920Y0152929D01*
X0029920Y0154463D02*
X0029920Y0155998D01*
X0029920Y0155231D02*
X0034524Y0155231D01*
X0034524Y0155998D02*
X0034524Y0154463D01*
X0032222Y0151394D02*
X0032222Y0149859D01*
X0034524Y0149859D02*
X0029920Y0149859D01*
X0029920Y0157532D02*
X0029920Y0160602D01*
X0029920Y0159067D02*
X0034524Y0159067D01*
X0032222Y0139117D02*
X0032222Y0136048D01*
X0031455Y0136048D02*
X0034524Y0136048D01*
X0069867Y0171102D02*
X0069000Y0171969D01*
X0069867Y0171102D02*
X0071602Y0171102D01*
X0072470Y0171969D01*
X0072470Y0172837D01*
X0071602Y0173704D01*
X0069867Y0173704D01*
X0069000Y0174572D01*
X0069000Y0175439D01*
X0069867Y0176306D01*
X0071602Y0176306D01*
X0072470Y0175439D01*
X0074156Y0174572D02*
X0075891Y0174572D01*
X0075024Y0175439D02*
X0075024Y0171969D01*
X0075891Y0171102D01*
X0077594Y0171969D02*
X0078461Y0172837D01*
X0081064Y0172837D01*
X0081064Y0173704D02*
X0081064Y0171102D01*
X0078461Y0171102D01*
X0077594Y0171969D01*
X0078461Y0174572D02*
X0080196Y0174572D01*
X0081064Y0173704D01*
X0082750Y0172837D02*
X0084485Y0174572D01*
X0085353Y0174572D01*
X0087047Y0174572D02*
X0088782Y0174572D01*
X0087915Y0175439D02*
X0087915Y0171969D01*
X0088782Y0171102D01*
X0082750Y0171102D02*
X0082750Y0174572D01*
X0044000Y0247352D02*
X0044000Y0248219D01*
X0047470Y0251689D01*
X0047470Y0252556D01*
X0044000Y0252556D01*
X0044867Y0257352D02*
X0044000Y0258219D01*
X0044867Y0257352D02*
X0046602Y0257352D01*
X0047470Y0258219D01*
X0047470Y0259954D01*
X0046602Y0260822D01*
X0045735Y0260822D01*
X0044000Y0259954D01*
X0044000Y0262556D01*
X0047470Y0262556D01*
X0044000Y0267352D02*
X0044000Y0268219D01*
X0047470Y0271689D01*
X0047470Y0272556D01*
X0044000Y0272556D01*
X0044867Y0277352D02*
X0044000Y0278219D01*
X0044867Y0277352D02*
X0046602Y0277352D01*
X0047470Y0278219D01*
X0047470Y0279954D01*
X0046602Y0280822D01*
X0045735Y0280822D01*
X0044000Y0279954D01*
X0044000Y0282556D01*
X0047470Y0282556D01*
X0140896Y0364469D02*
X0140896Y0366204D01*
X0141763Y0367072D01*
X0142630Y0367072D01*
X0143498Y0366204D01*
X0144365Y0367072D01*
X0145233Y0367072D01*
X0146100Y0366204D01*
X0146100Y0364469D01*
X0145233Y0363602D01*
X0143498Y0365337D02*
X0143498Y0366204D01*
X0145233Y0368758D02*
X0145233Y0369626D01*
X0146100Y0369626D01*
X0146100Y0368758D01*
X0145233Y0368758D01*
X0145233Y0371337D02*
X0146100Y0372204D01*
X0146100Y0373939D01*
X0145233Y0374806D01*
X0144365Y0374806D01*
X0143498Y0373939D01*
X0143498Y0373071D01*
X0143498Y0373939D02*
X0142630Y0374806D01*
X0141763Y0374806D01*
X0140896Y0373939D01*
X0140896Y0372204D01*
X0141763Y0371337D01*
X0140896Y0376493D02*
X0144365Y0376493D01*
X0146100Y0378228D01*
X0144365Y0379963D01*
X0140896Y0379963D01*
X0155896Y0377384D02*
X0156763Y0375650D01*
X0158498Y0373915D01*
X0158498Y0376517D01*
X0159365Y0377384D01*
X0160233Y0377384D01*
X0161100Y0376517D01*
X0161100Y0374782D01*
X0160233Y0373915D01*
X0158498Y0373915D01*
X0160233Y0372228D02*
X0161100Y0371361D01*
X0161100Y0369626D01*
X0160233Y0368758D01*
X0156763Y0368758D01*
X0155896Y0369626D01*
X0155896Y0371361D01*
X0156763Y0372228D01*
X0156763Y0367072D02*
X0158498Y0367072D01*
X0159365Y0366204D01*
X0159365Y0363602D01*
X0161100Y0363602D02*
X0155896Y0363602D01*
X0155896Y0366204D01*
X0156763Y0367072D01*
X0141763Y0363602D02*
X0140896Y0364469D01*
X0170896Y0363602D02*
X0170896Y0366204D01*
X0171763Y0367072D01*
X0173498Y0367072D01*
X0174365Y0366204D01*
X0174365Y0363602D01*
X0176100Y0363602D02*
X0170896Y0363602D01*
X0171763Y0368758D02*
X0175233Y0368758D01*
X0176100Y0369626D01*
X0176100Y0371361D01*
X0175233Y0372228D01*
X0175233Y0373915D02*
X0171763Y0377384D01*
X0170896Y0377384D01*
X0170896Y0373915D01*
X0171763Y0372228D02*
X0170896Y0371361D01*
X0170896Y0369626D01*
X0171763Y0368758D01*
X0175233Y0373915D02*
X0176100Y0373915D01*
X0185896Y0376517D02*
X0188498Y0373915D01*
X0188498Y0377384D01*
X0191100Y0376517D02*
X0185896Y0376517D01*
X0187630Y0372228D02*
X0191100Y0372228D01*
X0188498Y0372228D02*
X0188498Y0368758D01*
X0187630Y0368758D02*
X0185896Y0370493D01*
X0187630Y0372228D01*
X0187630Y0368758D02*
X0191100Y0368758D01*
X0189365Y0366204D02*
X0189365Y0363602D01*
X0191100Y0363602D02*
X0185896Y0363602D01*
X0185896Y0366204D01*
X0186763Y0367072D01*
X0188498Y0367072D01*
X0189365Y0366204D01*
X0198396Y0366204D02*
X0198396Y0363602D01*
X0203600Y0363602D01*
X0201865Y0363602D02*
X0201865Y0366204D01*
X0200998Y0367072D01*
X0199263Y0367072D01*
X0198396Y0366204D01*
X0200130Y0368758D02*
X0198396Y0370493D01*
X0200130Y0372228D01*
X0203600Y0372228D01*
X0202733Y0373915D02*
X0203600Y0374782D01*
X0203600Y0376517D01*
X0202733Y0377384D01*
X0200998Y0377384D01*
X0200130Y0376517D01*
X0200130Y0375650D01*
X0200998Y0373915D01*
X0198396Y0373915D01*
X0198396Y0377384D01*
X0200998Y0372228D02*
X0200998Y0368758D01*
X0200130Y0368758D02*
X0203600Y0368758D01*
X0215896Y0369626D02*
X0216763Y0368758D01*
X0220233Y0368758D01*
X0221100Y0369626D01*
X0221100Y0371361D01*
X0220233Y0372228D01*
X0220233Y0373915D02*
X0221100Y0374782D01*
X0221100Y0376517D01*
X0220233Y0377384D01*
X0218498Y0377384D01*
X0217630Y0376517D01*
X0217630Y0375650D01*
X0218498Y0373915D01*
X0215896Y0373915D01*
X0215896Y0377384D01*
X0216763Y0372228D02*
X0215896Y0371361D01*
X0215896Y0369626D01*
X0216763Y0367072D02*
X0218498Y0367072D01*
X0219365Y0366204D01*
X0219365Y0363602D01*
X0221100Y0363602D02*
X0215896Y0363602D01*
X0215896Y0366204D01*
X0216763Y0367072D01*
X0230896Y0366204D02*
X0230896Y0363602D01*
X0236100Y0363602D01*
X0234365Y0363602D02*
X0234365Y0366204D01*
X0233498Y0367072D01*
X0231763Y0367072D01*
X0230896Y0366204D01*
X0231763Y0368758D02*
X0235233Y0368758D01*
X0236100Y0369626D01*
X0236100Y0371361D01*
X0235233Y0372228D01*
X0233498Y0373915D02*
X0233498Y0377384D01*
X0236100Y0376517D02*
X0230896Y0376517D01*
X0233498Y0373915D01*
X0231763Y0372228D02*
X0230896Y0371361D01*
X0230896Y0369626D01*
X0231763Y0368758D01*
X0360896Y0369852D02*
X0363498Y0369852D01*
X0362630Y0371587D01*
X0362630Y0372454D01*
X0363498Y0373322D01*
X0365233Y0373322D01*
X0366100Y0372454D01*
X0366100Y0370719D01*
X0365233Y0369852D01*
X0360896Y0369852D02*
X0360896Y0373322D01*
X0360896Y0375008D02*
X0364365Y0375008D01*
X0366100Y0376743D01*
X0364365Y0378478D01*
X0360896Y0378478D01*
X0184320Y0227994D02*
X0181064Y0224739D01*
X0179979Y0225824D02*
X0182149Y0223654D01*
X0182149Y0227994D02*
X0184320Y0227994D01*
X0181607Y0229622D02*
X0181607Y0230707D01*
X0180522Y0231792D01*
X0179437Y0231792D01*
X0177266Y0229622D01*
X0177266Y0228537D01*
X0178351Y0227452D01*
X0179437Y0227452D01*
X0175639Y0230165D02*
X0174553Y0231250D01*
X0175096Y0230707D02*
X0178351Y0233963D01*
X0177809Y0234505D02*
X0178894Y0233420D01*
X0163983Y0101291D02*
X0164850Y0100423D01*
X0164850Y0098689D01*
X0163983Y0097821D01*
X0164850Y0096134D02*
X0164850Y0092665D01*
X0164850Y0094400D02*
X0159646Y0094400D01*
X0161380Y0092665D01*
X0160513Y0090978D02*
X0159646Y0090111D01*
X0159646Y0088376D01*
X0160513Y0087508D01*
X0163983Y0087508D01*
X0164850Y0088376D01*
X0164850Y0090111D01*
X0163983Y0090978D01*
X0162248Y0085822D02*
X0160513Y0085822D01*
X0159646Y0084954D01*
X0159646Y0082352D01*
X0164850Y0082352D01*
X0163115Y0082352D02*
X0163115Y0084954D01*
X0162248Y0085822D01*
X0154850Y0087508D02*
X0154850Y0090111D01*
X0153983Y0090978D01*
X0153115Y0090978D01*
X0152248Y0090111D01*
X0152248Y0087508D01*
X0152248Y0085822D02*
X0153115Y0084954D01*
X0153115Y0082352D01*
X0154850Y0082352D02*
X0149646Y0082352D01*
X0149646Y0084954D01*
X0150513Y0085822D01*
X0152248Y0085822D01*
X0154850Y0087508D02*
X0149646Y0087508D01*
X0149646Y0090111D01*
X0150513Y0090978D01*
X0151380Y0090978D01*
X0152248Y0090111D01*
X0153115Y0092665D02*
X0152248Y0093532D01*
X0152248Y0095267D01*
X0153115Y0096134D01*
X0153983Y0096134D01*
X0154850Y0095267D01*
X0154850Y0093532D01*
X0153983Y0092665D01*
X0153115Y0092665D01*
X0152248Y0093532D02*
X0151380Y0092665D01*
X0150513Y0092665D01*
X0149646Y0093532D01*
X0149646Y0095267D01*
X0150513Y0096134D01*
X0151380Y0096134D01*
X0152248Y0095267D01*
X0159646Y0098689D02*
X0159646Y0100423D01*
X0160513Y0101291D01*
X0161380Y0101291D01*
X0162248Y0100423D01*
X0163115Y0101291D01*
X0163983Y0101291D01*
X0162248Y0100423D02*
X0162248Y0099556D01*
X0160513Y0097821D02*
X0159646Y0098689D01*
X0165417Y0068624D02*
X0165417Y0067756D01*
X0165417Y0066022D02*
X0165417Y0062552D01*
X0164550Y0062552D02*
X0166285Y0062552D01*
X0167987Y0062552D02*
X0170590Y0062552D01*
X0171457Y0063419D01*
X0170590Y0064287D01*
X0168855Y0064287D01*
X0167987Y0065154D01*
X0168855Y0066022D01*
X0171457Y0066022D01*
X0173144Y0066022D02*
X0174879Y0066022D01*
X0174011Y0066889D02*
X0174011Y0063419D01*
X0174879Y0062552D01*
X0176581Y0063419D02*
X0177449Y0062552D01*
X0180051Y0062552D01*
X0180051Y0061685D02*
X0179184Y0060817D01*
X0178316Y0060817D01*
X0180051Y0061685D02*
X0180051Y0066022D01*
X0176581Y0066022D02*
X0176581Y0063419D01*
X0165417Y0066022D02*
X0164550Y0066022D01*
X0162855Y0066022D02*
X0161988Y0066022D01*
X0160253Y0064287D01*
X0158566Y0064287D02*
X0155096Y0064287D01*
X0155096Y0065154D02*
X0155096Y0063419D01*
X0155964Y0062552D01*
X0157699Y0062552D01*
X0158566Y0064287D02*
X0158566Y0065154D01*
X0157699Y0066022D01*
X0155964Y0066022D01*
X0155096Y0065154D01*
X0153410Y0066022D02*
X0151675Y0062552D01*
X0149940Y0066022D01*
X0147370Y0066022D02*
X0147370Y0062552D01*
X0148237Y0062552D02*
X0146502Y0062552D01*
X0144816Y0062552D02*
X0144816Y0065154D01*
X0143948Y0066022D01*
X0141346Y0066022D01*
X0141346Y0062552D01*
X0139659Y0063419D02*
X0139659Y0067756D01*
X0136190Y0067756D02*
X0136190Y0063419D01*
X0137057Y0062552D01*
X0138792Y0062552D01*
X0139659Y0063419D01*
X0146502Y0066022D02*
X0147370Y0066022D01*
X0147370Y0067756D02*
X0147370Y0068624D01*
X0150807Y0060224D02*
X0150807Y0059356D01*
X0150807Y0057622D02*
X0150807Y0054152D01*
X0149940Y0054152D02*
X0151675Y0054152D01*
X0155112Y0054152D02*
X0153378Y0057622D01*
X0150807Y0057622D02*
X0149940Y0057622D01*
X0148237Y0057622D02*
X0146502Y0057622D01*
X0147370Y0058489D02*
X0147370Y0055019D01*
X0148237Y0054152D01*
X0160253Y0050956D02*
X0163722Y0050956D01*
X0160253Y0062552D02*
X0160253Y0066022D01*
D12*
X0367900Y0126320D02*
X0369218Y0125002D01*
X0371853Y0125002D01*
X0373171Y0126320D01*
X0373171Y0127638D01*
X0371853Y0128955D01*
X0369218Y0128955D01*
X0367900Y0130273D01*
X0367900Y0131591D01*
X0369218Y0132909D01*
X0371853Y0132909D01*
X0373171Y0131591D01*
X0375819Y0131591D02*
X0375819Y0130273D01*
X0377137Y0128955D01*
X0379772Y0128955D01*
X0381090Y0127638D01*
X0381090Y0126320D01*
X0379772Y0125002D01*
X0377137Y0125002D01*
X0375819Y0126320D01*
X0375819Y0131591D02*
X0377137Y0132909D01*
X0379772Y0132909D01*
X0381090Y0131591D01*
X0383738Y0132909D02*
X0383738Y0125002D01*
X0389009Y0125002D01*
X0390259Y0157502D02*
X0384988Y0157502D01*
X0384988Y0165409D01*
X0382340Y0164091D02*
X0382340Y0161455D01*
X0381022Y0160138D01*
X0377069Y0160138D01*
X0377069Y0157502D02*
X0377069Y0165409D01*
X0381022Y0165409D01*
X0382340Y0164091D01*
X0374421Y0164091D02*
X0373103Y0165409D01*
X0370468Y0165409D01*
X0369150Y0164091D01*
X0369150Y0162773D01*
X0370468Y0161455D01*
X0373103Y0161455D01*
X0374421Y0160138D01*
X0374421Y0158820D01*
X0373103Y0157502D01*
X0370468Y0157502D01*
X0369150Y0158820D01*
X0367900Y0190002D02*
X0367900Y0197909D01*
X0367900Y0193955D02*
X0373171Y0193955D01*
X0375819Y0195273D02*
X0377137Y0193955D01*
X0379772Y0193955D01*
X0381090Y0192638D01*
X0381090Y0191320D01*
X0379772Y0190002D01*
X0377137Y0190002D01*
X0375819Y0191320D01*
X0373171Y0190002D02*
X0373171Y0197909D01*
X0375819Y0196591D02*
X0375819Y0195273D01*
X0375819Y0196591D02*
X0377137Y0197909D01*
X0379772Y0197909D01*
X0381090Y0196591D01*
X0383738Y0197909D02*
X0389009Y0197909D01*
X0386373Y0193955D02*
X0383738Y0193955D01*
X0383738Y0190002D02*
X0383738Y0197909D01*
X0383738Y0221252D02*
X0383738Y0226523D01*
X0386373Y0229159D01*
X0389009Y0226523D01*
X0389009Y0221252D01*
X0389009Y0225205D02*
X0383738Y0225205D01*
X0381090Y0223888D02*
X0381090Y0222570D01*
X0379772Y0221252D01*
X0377137Y0221252D01*
X0375819Y0222570D01*
X0377137Y0225205D02*
X0379772Y0225205D01*
X0381090Y0223888D01*
X0381090Y0227841D02*
X0379772Y0229159D01*
X0377137Y0229159D01*
X0375819Y0227841D01*
X0375819Y0226523D01*
X0377137Y0225205D01*
X0373171Y0225205D02*
X0367900Y0225205D01*
X0367900Y0221252D02*
X0367900Y0229159D01*
X0373171Y0229159D02*
X0373171Y0221252D01*
X0374421Y0253752D02*
X0374421Y0261659D01*
X0377069Y0261659D02*
X0381022Y0261659D01*
X0382340Y0260341D01*
X0382340Y0257705D01*
X0381022Y0256388D01*
X0377069Y0256388D01*
X0377069Y0253752D02*
X0377069Y0261659D01*
X0374421Y0257705D02*
X0369150Y0257705D01*
X0369150Y0253752D02*
X0369150Y0261659D01*
X0384988Y0261659D02*
X0384988Y0253752D01*
X0384988Y0257705D02*
X0387623Y0257705D01*
X0384988Y0261659D02*
X0390259Y0261659D01*
X0390259Y0286252D02*
X0390259Y0291523D01*
X0387623Y0294159D01*
X0384988Y0291523D01*
X0384988Y0286252D01*
X0384988Y0290205D02*
X0390259Y0290205D01*
X0382340Y0290205D02*
X0381022Y0288888D01*
X0377069Y0288888D01*
X0377069Y0286252D02*
X0377069Y0294159D01*
X0381022Y0294159D01*
X0382340Y0292841D01*
X0382340Y0290205D01*
X0374421Y0290205D02*
X0369150Y0290205D01*
X0369150Y0286252D02*
X0369150Y0294159D01*
X0374421Y0294159D02*
X0374421Y0286252D01*
X0371853Y0318752D02*
X0369218Y0318752D01*
X0367900Y0320070D01*
X0369218Y0322705D02*
X0371853Y0322705D01*
X0373171Y0321388D01*
X0373171Y0320070D01*
X0371853Y0318752D01*
X0375819Y0320070D02*
X0375819Y0324023D01*
X0373171Y0325341D02*
X0371853Y0326659D01*
X0369218Y0326659D01*
X0367900Y0325341D01*
X0367900Y0324023D01*
X0369218Y0322705D01*
X0375819Y0320070D02*
X0377137Y0318752D01*
X0378454Y0320070D01*
X0379772Y0318752D01*
X0381090Y0320070D01*
X0381090Y0324023D01*
X0383738Y0324023D02*
X0383738Y0318752D01*
X0383738Y0322705D02*
X0389009Y0322705D01*
X0389009Y0324023D02*
X0389009Y0318752D01*
X0389009Y0324023D02*
X0386373Y0326659D01*
X0383738Y0324023D01*
X0384988Y0351252D02*
X0384988Y0359159D01*
X0390259Y0359159D01*
X0387623Y0355205D02*
X0384988Y0355205D01*
X0382340Y0356523D02*
X0382340Y0352570D01*
X0381022Y0351252D01*
X0379704Y0352570D01*
X0378387Y0351252D01*
X0377069Y0352570D01*
X0377069Y0356523D01*
X0374421Y0357841D02*
X0373103Y0359159D01*
X0370468Y0359159D01*
X0369150Y0357841D01*
X0369150Y0356523D01*
X0370468Y0355205D01*
X0373103Y0355205D01*
X0374421Y0353888D01*
X0374421Y0352570D01*
X0373103Y0351252D01*
X0370468Y0351252D01*
X0369150Y0352570D01*
D13*
X0076925Y0162152D03*
X0076925Y0152152D03*
X0076925Y0142152D03*
X0076925Y0132152D03*
D14*
X0042550Y0105902D02*
X0042553Y0106147D01*
X0042562Y0106393D01*
X0042577Y0106638D01*
X0042598Y0106882D01*
X0042625Y0107126D01*
X0042658Y0107369D01*
X0042697Y0107612D01*
X0042742Y0107853D01*
X0042793Y0108093D01*
X0042850Y0108332D01*
X0042912Y0108569D01*
X0042981Y0108805D01*
X0043055Y0109039D01*
X0043135Y0109271D01*
X0043220Y0109501D01*
X0043311Y0109729D01*
X0043408Y0109954D01*
X0043510Y0110178D01*
X0043618Y0110398D01*
X0043731Y0110616D01*
X0043849Y0110831D01*
X0043973Y0111043D01*
X0044101Y0111252D01*
X0044235Y0111458D01*
X0044374Y0111660D01*
X0044518Y0111859D01*
X0044667Y0112054D01*
X0044820Y0112246D01*
X0044978Y0112434D01*
X0045140Y0112618D01*
X0045308Y0112797D01*
X0045479Y0112973D01*
X0045655Y0113144D01*
X0045834Y0113312D01*
X0046018Y0113474D01*
X0046206Y0113632D01*
X0046398Y0113785D01*
X0046593Y0113934D01*
X0046792Y0114078D01*
X0046994Y0114217D01*
X0047200Y0114351D01*
X0047409Y0114479D01*
X0047621Y0114603D01*
X0047836Y0114721D01*
X0048054Y0114834D01*
X0048274Y0114942D01*
X0048498Y0115044D01*
X0048723Y0115141D01*
X0048951Y0115232D01*
X0049181Y0115317D01*
X0049413Y0115397D01*
X0049647Y0115471D01*
X0049883Y0115540D01*
X0050120Y0115602D01*
X0050359Y0115659D01*
X0050599Y0115710D01*
X0050840Y0115755D01*
X0051083Y0115794D01*
X0051326Y0115827D01*
X0051570Y0115854D01*
X0051814Y0115875D01*
X0052059Y0115890D01*
X0052305Y0115899D01*
X0052550Y0115902D01*
X0052795Y0115899D01*
X0053041Y0115890D01*
X0053286Y0115875D01*
X0053530Y0115854D01*
X0053774Y0115827D01*
X0054017Y0115794D01*
X0054260Y0115755D01*
X0054501Y0115710D01*
X0054741Y0115659D01*
X0054980Y0115602D01*
X0055217Y0115540D01*
X0055453Y0115471D01*
X0055687Y0115397D01*
X0055919Y0115317D01*
X0056149Y0115232D01*
X0056377Y0115141D01*
X0056602Y0115044D01*
X0056826Y0114942D01*
X0057046Y0114834D01*
X0057264Y0114721D01*
X0057479Y0114603D01*
X0057691Y0114479D01*
X0057900Y0114351D01*
X0058106Y0114217D01*
X0058308Y0114078D01*
X0058507Y0113934D01*
X0058702Y0113785D01*
X0058894Y0113632D01*
X0059082Y0113474D01*
X0059266Y0113312D01*
X0059445Y0113144D01*
X0059621Y0112973D01*
X0059792Y0112797D01*
X0059960Y0112618D01*
X0060122Y0112434D01*
X0060280Y0112246D01*
X0060433Y0112054D01*
X0060582Y0111859D01*
X0060726Y0111660D01*
X0060865Y0111458D01*
X0060999Y0111252D01*
X0061127Y0111043D01*
X0061251Y0110831D01*
X0061369Y0110616D01*
X0061482Y0110398D01*
X0061590Y0110178D01*
X0061692Y0109954D01*
X0061789Y0109729D01*
X0061880Y0109501D01*
X0061965Y0109271D01*
X0062045Y0109039D01*
X0062119Y0108805D01*
X0062188Y0108569D01*
X0062250Y0108332D01*
X0062307Y0108093D01*
X0062358Y0107853D01*
X0062403Y0107612D01*
X0062442Y0107369D01*
X0062475Y0107126D01*
X0062502Y0106882D01*
X0062523Y0106638D01*
X0062538Y0106393D01*
X0062547Y0106147D01*
X0062550Y0105902D01*
X0062547Y0105657D01*
X0062538Y0105411D01*
X0062523Y0105166D01*
X0062502Y0104922D01*
X0062475Y0104678D01*
X0062442Y0104435D01*
X0062403Y0104192D01*
X0062358Y0103951D01*
X0062307Y0103711D01*
X0062250Y0103472D01*
X0062188Y0103235D01*
X0062119Y0102999D01*
X0062045Y0102765D01*
X0061965Y0102533D01*
X0061880Y0102303D01*
X0061789Y0102075D01*
X0061692Y0101850D01*
X0061590Y0101626D01*
X0061482Y0101406D01*
X0061369Y0101188D01*
X0061251Y0100973D01*
X0061127Y0100761D01*
X0060999Y0100552D01*
X0060865Y0100346D01*
X0060726Y0100144D01*
X0060582Y0099945D01*
X0060433Y0099750D01*
X0060280Y0099558D01*
X0060122Y0099370D01*
X0059960Y0099186D01*
X0059792Y0099007D01*
X0059621Y0098831D01*
X0059445Y0098660D01*
X0059266Y0098492D01*
X0059082Y0098330D01*
X0058894Y0098172D01*
X0058702Y0098019D01*
X0058507Y0097870D01*
X0058308Y0097726D01*
X0058106Y0097587D01*
X0057900Y0097453D01*
X0057691Y0097325D01*
X0057479Y0097201D01*
X0057264Y0097083D01*
X0057046Y0096970D01*
X0056826Y0096862D01*
X0056602Y0096760D01*
X0056377Y0096663D01*
X0056149Y0096572D01*
X0055919Y0096487D01*
X0055687Y0096407D01*
X0055453Y0096333D01*
X0055217Y0096264D01*
X0054980Y0096202D01*
X0054741Y0096145D01*
X0054501Y0096094D01*
X0054260Y0096049D01*
X0054017Y0096010D01*
X0053774Y0095977D01*
X0053530Y0095950D01*
X0053286Y0095929D01*
X0053041Y0095914D01*
X0052795Y0095905D01*
X0052550Y0095902D01*
X0052305Y0095905D01*
X0052059Y0095914D01*
X0051814Y0095929D01*
X0051570Y0095950D01*
X0051326Y0095977D01*
X0051083Y0096010D01*
X0050840Y0096049D01*
X0050599Y0096094D01*
X0050359Y0096145D01*
X0050120Y0096202D01*
X0049883Y0096264D01*
X0049647Y0096333D01*
X0049413Y0096407D01*
X0049181Y0096487D01*
X0048951Y0096572D01*
X0048723Y0096663D01*
X0048498Y0096760D01*
X0048274Y0096862D01*
X0048054Y0096970D01*
X0047836Y0097083D01*
X0047621Y0097201D01*
X0047409Y0097325D01*
X0047200Y0097453D01*
X0046994Y0097587D01*
X0046792Y0097726D01*
X0046593Y0097870D01*
X0046398Y0098019D01*
X0046206Y0098172D01*
X0046018Y0098330D01*
X0045834Y0098492D01*
X0045655Y0098660D01*
X0045479Y0098831D01*
X0045308Y0099007D01*
X0045140Y0099186D01*
X0044978Y0099370D01*
X0044820Y0099558D01*
X0044667Y0099750D01*
X0044518Y0099945D01*
X0044374Y0100144D01*
X0044235Y0100346D01*
X0044101Y0100552D01*
X0043973Y0100761D01*
X0043849Y0100973D01*
X0043731Y0101188D01*
X0043618Y0101406D01*
X0043510Y0101626D01*
X0043408Y0101850D01*
X0043311Y0102075D01*
X0043220Y0102303D01*
X0043135Y0102533D01*
X0043055Y0102765D01*
X0042981Y0102999D01*
X0042912Y0103235D01*
X0042850Y0103472D01*
X0042793Y0103711D01*
X0042742Y0103951D01*
X0042697Y0104192D01*
X0042658Y0104435D01*
X0042625Y0104678D01*
X0042598Y0104922D01*
X0042577Y0105166D01*
X0042562Y0105411D01*
X0042553Y0105657D01*
X0042550Y0105902D01*
X0047550Y0112902D02*
X0049550Y0112902D01*
X0048550Y0111902D02*
X0048550Y0113902D01*
X0045800Y0084652D02*
X0051800Y0084652D01*
X0051860Y0084650D01*
X0051921Y0084645D01*
X0051980Y0084636D01*
X0052039Y0084623D01*
X0052098Y0084607D01*
X0052155Y0084587D01*
X0052210Y0084564D01*
X0052265Y0084537D01*
X0052317Y0084508D01*
X0052368Y0084475D01*
X0052417Y0084439D01*
X0052463Y0084401D01*
X0052507Y0084359D01*
X0052549Y0084315D01*
X0052587Y0084269D01*
X0052623Y0084220D01*
X0052656Y0084169D01*
X0052685Y0084117D01*
X0052712Y0084062D01*
X0052735Y0084007D01*
X0052755Y0083950D01*
X0052771Y0083891D01*
X0052784Y0083832D01*
X0052793Y0083773D01*
X0052798Y0083712D01*
X0052800Y0083652D01*
X0052800Y0082152D01*
X0052300Y0081652D01*
X0052300Y0067652D01*
X0052800Y0067152D01*
X0052800Y0065652D01*
X0052798Y0065592D01*
X0052793Y0065531D01*
X0052784Y0065472D01*
X0052771Y0065413D01*
X0052755Y0065354D01*
X0052735Y0065297D01*
X0052712Y0065242D01*
X0052685Y0065187D01*
X0052656Y0065135D01*
X0052623Y0065084D01*
X0052587Y0065035D01*
X0052549Y0064989D01*
X0052507Y0064945D01*
X0052463Y0064903D01*
X0052417Y0064865D01*
X0052368Y0064829D01*
X0052317Y0064796D01*
X0052265Y0064767D01*
X0052210Y0064740D01*
X0052155Y0064717D01*
X0052098Y0064697D01*
X0052039Y0064681D01*
X0051980Y0064668D01*
X0051921Y0064659D01*
X0051860Y0064654D01*
X0051800Y0064652D01*
X0045800Y0064652D01*
X0045740Y0064654D01*
X0045679Y0064659D01*
X0045620Y0064668D01*
X0045561Y0064681D01*
X0045502Y0064697D01*
X0045445Y0064717D01*
X0045390Y0064740D01*
X0045335Y0064767D01*
X0045283Y0064796D01*
X0045232Y0064829D01*
X0045183Y0064865D01*
X0045137Y0064903D01*
X0045093Y0064945D01*
X0045051Y0064989D01*
X0045013Y0065035D01*
X0044977Y0065084D01*
X0044944Y0065135D01*
X0044915Y0065187D01*
X0044888Y0065242D01*
X0044865Y0065297D01*
X0044845Y0065354D01*
X0044829Y0065413D01*
X0044816Y0065472D01*
X0044807Y0065531D01*
X0044802Y0065592D01*
X0044800Y0065652D01*
X0044800Y0067152D01*
X0045300Y0067652D01*
X0045300Y0081652D01*
X0044800Y0082152D01*
X0044800Y0083652D01*
X0044802Y0083712D01*
X0044807Y0083773D01*
X0044816Y0083832D01*
X0044829Y0083891D01*
X0044845Y0083950D01*
X0044865Y0084007D01*
X0044888Y0084062D01*
X0044915Y0084117D01*
X0044944Y0084169D01*
X0044977Y0084220D01*
X0045013Y0084269D01*
X0045051Y0084315D01*
X0045093Y0084359D01*
X0045137Y0084401D01*
X0045183Y0084439D01*
X0045232Y0084475D01*
X0045283Y0084508D01*
X0045335Y0084537D01*
X0045390Y0084564D01*
X0045445Y0084587D01*
X0045502Y0084607D01*
X0045561Y0084623D01*
X0045620Y0084636D01*
X0045679Y0084645D01*
X0045740Y0084650D01*
X0045800Y0084652D01*
X0113324Y0132109D02*
X0113324Y0135609D01*
X0113324Y0145609D01*
X0113324Y0149109D01*
X0121324Y0152609D02*
X0122324Y0152609D01*
X0122324Y0153609D01*
X0128324Y0153609D01*
X0128324Y0152609D01*
X0129324Y0152609D01*
X0137324Y0149109D02*
X0137324Y0145109D01*
X0137324Y0135609D01*
X0137324Y0132109D01*
X0129324Y0128609D02*
X0128324Y0128609D01*
X0128324Y0127609D01*
X0122324Y0127609D01*
X0122324Y0128609D01*
X0121324Y0128609D01*
X0124324Y0140609D02*
X0124326Y0140672D01*
X0124332Y0140734D01*
X0124342Y0140796D01*
X0124355Y0140858D01*
X0124373Y0140918D01*
X0124394Y0140977D01*
X0124419Y0141035D01*
X0124448Y0141091D01*
X0124480Y0141145D01*
X0124515Y0141197D01*
X0124553Y0141246D01*
X0124595Y0141294D01*
X0124639Y0141338D01*
X0124687Y0141380D01*
X0124736Y0141418D01*
X0124788Y0141453D01*
X0124842Y0141485D01*
X0124898Y0141514D01*
X0124956Y0141539D01*
X0125015Y0141560D01*
X0125075Y0141578D01*
X0125137Y0141591D01*
X0125199Y0141601D01*
X0125261Y0141607D01*
X0125324Y0141609D01*
X0125387Y0141607D01*
X0125449Y0141601D01*
X0125511Y0141591D01*
X0125573Y0141578D01*
X0125633Y0141560D01*
X0125692Y0141539D01*
X0125750Y0141514D01*
X0125806Y0141485D01*
X0125860Y0141453D01*
X0125912Y0141418D01*
X0125961Y0141380D01*
X0126009Y0141338D01*
X0126053Y0141294D01*
X0126095Y0141246D01*
X0126133Y0141197D01*
X0126168Y0141145D01*
X0126200Y0141091D01*
X0126229Y0141035D01*
X0126254Y0140977D01*
X0126275Y0140918D01*
X0126293Y0140858D01*
X0126306Y0140796D01*
X0126316Y0140734D01*
X0126322Y0140672D01*
X0126324Y0140609D01*
X0126322Y0140546D01*
X0126316Y0140484D01*
X0126306Y0140422D01*
X0126293Y0140360D01*
X0126275Y0140300D01*
X0126254Y0140241D01*
X0126229Y0140183D01*
X0126200Y0140127D01*
X0126168Y0140073D01*
X0126133Y0140021D01*
X0126095Y0139972D01*
X0126053Y0139924D01*
X0126009Y0139880D01*
X0125961Y0139838D01*
X0125912Y0139800D01*
X0125860Y0139765D01*
X0125806Y0139733D01*
X0125750Y0139704D01*
X0125692Y0139679D01*
X0125633Y0139658D01*
X0125573Y0139640D01*
X0125511Y0139627D01*
X0125449Y0139617D01*
X0125387Y0139611D01*
X0125324Y0139609D01*
X0125261Y0139611D01*
X0125199Y0139617D01*
X0125137Y0139627D01*
X0125075Y0139640D01*
X0125015Y0139658D01*
X0124956Y0139679D01*
X0124898Y0139704D01*
X0124842Y0139733D01*
X0124788Y0139765D01*
X0124736Y0139800D01*
X0124687Y0139838D01*
X0124639Y0139880D01*
X0124595Y0139924D01*
X0124553Y0139972D01*
X0124515Y0140021D01*
X0124480Y0140073D01*
X0124448Y0140127D01*
X0124419Y0140183D01*
X0124394Y0140241D01*
X0124373Y0140300D01*
X0124355Y0140360D01*
X0124342Y0140422D01*
X0124332Y0140484D01*
X0124326Y0140546D01*
X0124324Y0140609D01*
X0118324Y0140609D02*
X0118326Y0140781D01*
X0118332Y0140952D01*
X0118343Y0141124D01*
X0118358Y0141295D01*
X0118377Y0141466D01*
X0118400Y0141636D01*
X0118427Y0141806D01*
X0118459Y0141975D01*
X0118494Y0142143D01*
X0118534Y0142310D01*
X0118578Y0142476D01*
X0118625Y0142641D01*
X0118677Y0142805D01*
X0118733Y0142967D01*
X0118793Y0143128D01*
X0118857Y0143288D01*
X0118925Y0143446D01*
X0118996Y0143602D01*
X0119071Y0143756D01*
X0119151Y0143909D01*
X0119233Y0144059D01*
X0119320Y0144208D01*
X0119410Y0144354D01*
X0119504Y0144498D01*
X0119601Y0144640D01*
X0119702Y0144779D01*
X0119806Y0144916D01*
X0119913Y0145050D01*
X0120024Y0145181D01*
X0120137Y0145310D01*
X0120254Y0145436D01*
X0120374Y0145559D01*
X0120497Y0145679D01*
X0120623Y0145796D01*
X0120752Y0145909D01*
X0120883Y0146020D01*
X0121017Y0146127D01*
X0121154Y0146231D01*
X0121293Y0146332D01*
X0121435Y0146429D01*
X0121579Y0146523D01*
X0121725Y0146613D01*
X0121874Y0146700D01*
X0122024Y0146782D01*
X0122177Y0146862D01*
X0122331Y0146937D01*
X0122487Y0147008D01*
X0122645Y0147076D01*
X0122805Y0147140D01*
X0122966Y0147200D01*
X0123128Y0147256D01*
X0123292Y0147308D01*
X0123457Y0147355D01*
X0123623Y0147399D01*
X0123790Y0147439D01*
X0123958Y0147474D01*
X0124127Y0147506D01*
X0124297Y0147533D01*
X0124467Y0147556D01*
X0124638Y0147575D01*
X0124809Y0147590D01*
X0124981Y0147601D01*
X0125152Y0147607D01*
X0125324Y0147609D01*
X0125496Y0147607D01*
X0125667Y0147601D01*
X0125839Y0147590D01*
X0126010Y0147575D01*
X0126181Y0147556D01*
X0126351Y0147533D01*
X0126521Y0147506D01*
X0126690Y0147474D01*
X0126858Y0147439D01*
X0127025Y0147399D01*
X0127191Y0147355D01*
X0127356Y0147308D01*
X0127520Y0147256D01*
X0127682Y0147200D01*
X0127843Y0147140D01*
X0128003Y0147076D01*
X0128161Y0147008D01*
X0128317Y0146937D01*
X0128471Y0146862D01*
X0128624Y0146782D01*
X0128774Y0146700D01*
X0128923Y0146613D01*
X0129069Y0146523D01*
X0129213Y0146429D01*
X0129355Y0146332D01*
X0129494Y0146231D01*
X0129631Y0146127D01*
X0129765Y0146020D01*
X0129896Y0145909D01*
X0130025Y0145796D01*
X0130151Y0145679D01*
X0130274Y0145559D01*
X0130394Y0145436D01*
X0130511Y0145310D01*
X0130624Y0145181D01*
X0130735Y0145050D01*
X0130842Y0144916D01*
X0130946Y0144779D01*
X0131047Y0144640D01*
X0131144Y0144498D01*
X0131238Y0144354D01*
X0131328Y0144208D01*
X0131415Y0144059D01*
X0131497Y0143909D01*
X0131577Y0143756D01*
X0131652Y0143602D01*
X0131723Y0143446D01*
X0131791Y0143288D01*
X0131855Y0143128D01*
X0131915Y0142967D01*
X0131971Y0142805D01*
X0132023Y0142641D01*
X0132070Y0142476D01*
X0132114Y0142310D01*
X0132154Y0142143D01*
X0132189Y0141975D01*
X0132221Y0141806D01*
X0132248Y0141636D01*
X0132271Y0141466D01*
X0132290Y0141295D01*
X0132305Y0141124D01*
X0132316Y0140952D01*
X0132322Y0140781D01*
X0132324Y0140609D01*
X0132322Y0140437D01*
X0132316Y0140266D01*
X0132305Y0140094D01*
X0132290Y0139923D01*
X0132271Y0139752D01*
X0132248Y0139582D01*
X0132221Y0139412D01*
X0132189Y0139243D01*
X0132154Y0139075D01*
X0132114Y0138908D01*
X0132070Y0138742D01*
X0132023Y0138577D01*
X0131971Y0138413D01*
X0131915Y0138251D01*
X0131855Y0138090D01*
X0131791Y0137930D01*
X0131723Y0137772D01*
X0131652Y0137616D01*
X0131577Y0137462D01*
X0131497Y0137309D01*
X0131415Y0137159D01*
X0131328Y0137010D01*
X0131238Y0136864D01*
X0131144Y0136720D01*
X0131047Y0136578D01*
X0130946Y0136439D01*
X0130842Y0136302D01*
X0130735Y0136168D01*
X0130624Y0136037D01*
X0130511Y0135908D01*
X0130394Y0135782D01*
X0130274Y0135659D01*
X0130151Y0135539D01*
X0130025Y0135422D01*
X0129896Y0135309D01*
X0129765Y0135198D01*
X0129631Y0135091D01*
X0129494Y0134987D01*
X0129355Y0134886D01*
X0129213Y0134789D01*
X0129069Y0134695D01*
X0128923Y0134605D01*
X0128774Y0134518D01*
X0128624Y0134436D01*
X0128471Y0134356D01*
X0128317Y0134281D01*
X0128161Y0134210D01*
X0128003Y0134142D01*
X0127843Y0134078D01*
X0127682Y0134018D01*
X0127520Y0133962D01*
X0127356Y0133910D01*
X0127191Y0133863D01*
X0127025Y0133819D01*
X0126858Y0133779D01*
X0126690Y0133744D01*
X0126521Y0133712D01*
X0126351Y0133685D01*
X0126181Y0133662D01*
X0126010Y0133643D01*
X0125839Y0133628D01*
X0125667Y0133617D01*
X0125496Y0133611D01*
X0125324Y0133609D01*
X0125152Y0133611D01*
X0124981Y0133617D01*
X0124809Y0133628D01*
X0124638Y0133643D01*
X0124467Y0133662D01*
X0124297Y0133685D01*
X0124127Y0133712D01*
X0123958Y0133744D01*
X0123790Y0133779D01*
X0123623Y0133819D01*
X0123457Y0133863D01*
X0123292Y0133910D01*
X0123128Y0133962D01*
X0122966Y0134018D01*
X0122805Y0134078D01*
X0122645Y0134142D01*
X0122487Y0134210D01*
X0122331Y0134281D01*
X0122177Y0134356D01*
X0122024Y0134436D01*
X0121874Y0134518D01*
X0121725Y0134605D01*
X0121579Y0134695D01*
X0121435Y0134789D01*
X0121293Y0134886D01*
X0121154Y0134987D01*
X0121017Y0135091D01*
X0120883Y0135198D01*
X0120752Y0135309D01*
X0120623Y0135422D01*
X0120497Y0135539D01*
X0120374Y0135659D01*
X0120254Y0135782D01*
X0120137Y0135908D01*
X0120024Y0136037D01*
X0119913Y0136168D01*
X0119806Y0136302D01*
X0119702Y0136439D01*
X0119601Y0136578D01*
X0119504Y0136720D01*
X0119410Y0136864D01*
X0119320Y0137010D01*
X0119233Y0137159D01*
X0119151Y0137309D01*
X0119071Y0137462D01*
X0118996Y0137616D01*
X0118925Y0137772D01*
X0118857Y0137930D01*
X0118793Y0138090D01*
X0118733Y0138251D01*
X0118677Y0138413D01*
X0118625Y0138577D01*
X0118578Y0138742D01*
X0118534Y0138908D01*
X0118494Y0139075D01*
X0118459Y0139243D01*
X0118427Y0139412D01*
X0118400Y0139582D01*
X0118377Y0139752D01*
X0118358Y0139923D01*
X0118343Y0140094D01*
X0118332Y0140266D01*
X0118326Y0140437D01*
X0118324Y0140609D01*
X0074596Y0191877D02*
X0070596Y0191877D01*
X0061096Y0191877D01*
X0057596Y0191877D01*
X0054096Y0199877D02*
X0054096Y0200877D01*
X0053096Y0200877D01*
X0053096Y0206877D01*
X0054096Y0206877D01*
X0054096Y0207877D01*
X0057596Y0215877D02*
X0061096Y0215877D01*
X0071096Y0215877D01*
X0074596Y0215877D01*
X0078096Y0207877D02*
X0078096Y0206877D01*
X0079096Y0206877D01*
X0079096Y0200877D01*
X0078096Y0200877D01*
X0078096Y0199877D01*
X0065096Y0203877D02*
X0065098Y0203940D01*
X0065104Y0204002D01*
X0065114Y0204064D01*
X0065127Y0204126D01*
X0065145Y0204186D01*
X0065166Y0204245D01*
X0065191Y0204303D01*
X0065220Y0204359D01*
X0065252Y0204413D01*
X0065287Y0204465D01*
X0065325Y0204514D01*
X0065367Y0204562D01*
X0065411Y0204606D01*
X0065459Y0204648D01*
X0065508Y0204686D01*
X0065560Y0204721D01*
X0065614Y0204753D01*
X0065670Y0204782D01*
X0065728Y0204807D01*
X0065787Y0204828D01*
X0065847Y0204846D01*
X0065909Y0204859D01*
X0065971Y0204869D01*
X0066033Y0204875D01*
X0066096Y0204877D01*
X0066159Y0204875D01*
X0066221Y0204869D01*
X0066283Y0204859D01*
X0066345Y0204846D01*
X0066405Y0204828D01*
X0066464Y0204807D01*
X0066522Y0204782D01*
X0066578Y0204753D01*
X0066632Y0204721D01*
X0066684Y0204686D01*
X0066733Y0204648D01*
X0066781Y0204606D01*
X0066825Y0204562D01*
X0066867Y0204514D01*
X0066905Y0204465D01*
X0066940Y0204413D01*
X0066972Y0204359D01*
X0067001Y0204303D01*
X0067026Y0204245D01*
X0067047Y0204186D01*
X0067065Y0204126D01*
X0067078Y0204064D01*
X0067088Y0204002D01*
X0067094Y0203940D01*
X0067096Y0203877D01*
X0067094Y0203814D01*
X0067088Y0203752D01*
X0067078Y0203690D01*
X0067065Y0203628D01*
X0067047Y0203568D01*
X0067026Y0203509D01*
X0067001Y0203451D01*
X0066972Y0203395D01*
X0066940Y0203341D01*
X0066905Y0203289D01*
X0066867Y0203240D01*
X0066825Y0203192D01*
X0066781Y0203148D01*
X0066733Y0203106D01*
X0066684Y0203068D01*
X0066632Y0203033D01*
X0066578Y0203001D01*
X0066522Y0202972D01*
X0066464Y0202947D01*
X0066405Y0202926D01*
X0066345Y0202908D01*
X0066283Y0202895D01*
X0066221Y0202885D01*
X0066159Y0202879D01*
X0066096Y0202877D01*
X0066033Y0202879D01*
X0065971Y0202885D01*
X0065909Y0202895D01*
X0065847Y0202908D01*
X0065787Y0202926D01*
X0065728Y0202947D01*
X0065670Y0202972D01*
X0065614Y0203001D01*
X0065560Y0203033D01*
X0065508Y0203068D01*
X0065459Y0203106D01*
X0065411Y0203148D01*
X0065367Y0203192D01*
X0065325Y0203240D01*
X0065287Y0203289D01*
X0065252Y0203341D01*
X0065220Y0203395D01*
X0065191Y0203451D01*
X0065166Y0203509D01*
X0065145Y0203568D01*
X0065127Y0203628D01*
X0065114Y0203690D01*
X0065104Y0203752D01*
X0065098Y0203814D01*
X0065096Y0203877D01*
X0059096Y0203877D02*
X0059098Y0204049D01*
X0059104Y0204220D01*
X0059115Y0204392D01*
X0059130Y0204563D01*
X0059149Y0204734D01*
X0059172Y0204904D01*
X0059199Y0205074D01*
X0059231Y0205243D01*
X0059266Y0205411D01*
X0059306Y0205578D01*
X0059350Y0205744D01*
X0059397Y0205909D01*
X0059449Y0206073D01*
X0059505Y0206235D01*
X0059565Y0206396D01*
X0059629Y0206556D01*
X0059697Y0206714D01*
X0059768Y0206870D01*
X0059843Y0207024D01*
X0059923Y0207177D01*
X0060005Y0207327D01*
X0060092Y0207476D01*
X0060182Y0207622D01*
X0060276Y0207766D01*
X0060373Y0207908D01*
X0060474Y0208047D01*
X0060578Y0208184D01*
X0060685Y0208318D01*
X0060796Y0208449D01*
X0060909Y0208578D01*
X0061026Y0208704D01*
X0061146Y0208827D01*
X0061269Y0208947D01*
X0061395Y0209064D01*
X0061524Y0209177D01*
X0061655Y0209288D01*
X0061789Y0209395D01*
X0061926Y0209499D01*
X0062065Y0209600D01*
X0062207Y0209697D01*
X0062351Y0209791D01*
X0062497Y0209881D01*
X0062646Y0209968D01*
X0062796Y0210050D01*
X0062949Y0210130D01*
X0063103Y0210205D01*
X0063259Y0210276D01*
X0063417Y0210344D01*
X0063577Y0210408D01*
X0063738Y0210468D01*
X0063900Y0210524D01*
X0064064Y0210576D01*
X0064229Y0210623D01*
X0064395Y0210667D01*
X0064562Y0210707D01*
X0064730Y0210742D01*
X0064899Y0210774D01*
X0065069Y0210801D01*
X0065239Y0210824D01*
X0065410Y0210843D01*
X0065581Y0210858D01*
X0065753Y0210869D01*
X0065924Y0210875D01*
X0066096Y0210877D01*
X0066268Y0210875D01*
X0066439Y0210869D01*
X0066611Y0210858D01*
X0066782Y0210843D01*
X0066953Y0210824D01*
X0067123Y0210801D01*
X0067293Y0210774D01*
X0067462Y0210742D01*
X0067630Y0210707D01*
X0067797Y0210667D01*
X0067963Y0210623D01*
X0068128Y0210576D01*
X0068292Y0210524D01*
X0068454Y0210468D01*
X0068615Y0210408D01*
X0068775Y0210344D01*
X0068933Y0210276D01*
X0069089Y0210205D01*
X0069243Y0210130D01*
X0069396Y0210050D01*
X0069546Y0209968D01*
X0069695Y0209881D01*
X0069841Y0209791D01*
X0069985Y0209697D01*
X0070127Y0209600D01*
X0070266Y0209499D01*
X0070403Y0209395D01*
X0070537Y0209288D01*
X0070668Y0209177D01*
X0070797Y0209064D01*
X0070923Y0208947D01*
X0071046Y0208827D01*
X0071166Y0208704D01*
X0071283Y0208578D01*
X0071396Y0208449D01*
X0071507Y0208318D01*
X0071614Y0208184D01*
X0071718Y0208047D01*
X0071819Y0207908D01*
X0071916Y0207766D01*
X0072010Y0207622D01*
X0072100Y0207476D01*
X0072187Y0207327D01*
X0072269Y0207177D01*
X0072349Y0207024D01*
X0072424Y0206870D01*
X0072495Y0206714D01*
X0072563Y0206556D01*
X0072627Y0206396D01*
X0072687Y0206235D01*
X0072743Y0206073D01*
X0072795Y0205909D01*
X0072842Y0205744D01*
X0072886Y0205578D01*
X0072926Y0205411D01*
X0072961Y0205243D01*
X0072993Y0205074D01*
X0073020Y0204904D01*
X0073043Y0204734D01*
X0073062Y0204563D01*
X0073077Y0204392D01*
X0073088Y0204220D01*
X0073094Y0204049D01*
X0073096Y0203877D01*
X0073094Y0203705D01*
X0073088Y0203534D01*
X0073077Y0203362D01*
X0073062Y0203191D01*
X0073043Y0203020D01*
X0073020Y0202850D01*
X0072993Y0202680D01*
X0072961Y0202511D01*
X0072926Y0202343D01*
X0072886Y0202176D01*
X0072842Y0202010D01*
X0072795Y0201845D01*
X0072743Y0201681D01*
X0072687Y0201519D01*
X0072627Y0201358D01*
X0072563Y0201198D01*
X0072495Y0201040D01*
X0072424Y0200884D01*
X0072349Y0200730D01*
X0072269Y0200577D01*
X0072187Y0200427D01*
X0072100Y0200278D01*
X0072010Y0200132D01*
X0071916Y0199988D01*
X0071819Y0199846D01*
X0071718Y0199707D01*
X0071614Y0199570D01*
X0071507Y0199436D01*
X0071396Y0199305D01*
X0071283Y0199176D01*
X0071166Y0199050D01*
X0071046Y0198927D01*
X0070923Y0198807D01*
X0070797Y0198690D01*
X0070668Y0198577D01*
X0070537Y0198466D01*
X0070403Y0198359D01*
X0070266Y0198255D01*
X0070127Y0198154D01*
X0069985Y0198057D01*
X0069841Y0197963D01*
X0069695Y0197873D01*
X0069546Y0197786D01*
X0069396Y0197704D01*
X0069243Y0197624D01*
X0069089Y0197549D01*
X0068933Y0197478D01*
X0068775Y0197410D01*
X0068615Y0197346D01*
X0068454Y0197286D01*
X0068292Y0197230D01*
X0068128Y0197178D01*
X0067963Y0197131D01*
X0067797Y0197087D01*
X0067630Y0197047D01*
X0067462Y0197012D01*
X0067293Y0196980D01*
X0067123Y0196953D01*
X0066953Y0196930D01*
X0066782Y0196911D01*
X0066611Y0196896D01*
X0066439Y0196885D01*
X0066268Y0196879D01*
X0066096Y0196877D01*
X0065924Y0196879D01*
X0065753Y0196885D01*
X0065581Y0196896D01*
X0065410Y0196911D01*
X0065239Y0196930D01*
X0065069Y0196953D01*
X0064899Y0196980D01*
X0064730Y0197012D01*
X0064562Y0197047D01*
X0064395Y0197087D01*
X0064229Y0197131D01*
X0064064Y0197178D01*
X0063900Y0197230D01*
X0063738Y0197286D01*
X0063577Y0197346D01*
X0063417Y0197410D01*
X0063259Y0197478D01*
X0063103Y0197549D01*
X0062949Y0197624D01*
X0062796Y0197704D01*
X0062646Y0197786D01*
X0062497Y0197873D01*
X0062351Y0197963D01*
X0062207Y0198057D01*
X0062065Y0198154D01*
X0061926Y0198255D01*
X0061789Y0198359D01*
X0061655Y0198466D01*
X0061524Y0198577D01*
X0061395Y0198690D01*
X0061269Y0198807D01*
X0061146Y0198927D01*
X0061026Y0199050D01*
X0060909Y0199176D01*
X0060796Y0199305D01*
X0060685Y0199436D01*
X0060578Y0199570D01*
X0060474Y0199707D01*
X0060373Y0199846D01*
X0060276Y0199988D01*
X0060182Y0200132D01*
X0060092Y0200278D01*
X0060005Y0200427D01*
X0059923Y0200577D01*
X0059843Y0200730D01*
X0059768Y0200884D01*
X0059697Y0201040D01*
X0059629Y0201198D01*
X0059565Y0201358D01*
X0059505Y0201519D01*
X0059449Y0201681D01*
X0059397Y0201845D01*
X0059350Y0202010D01*
X0059306Y0202176D01*
X0059266Y0202343D01*
X0059231Y0202511D01*
X0059199Y0202680D01*
X0059172Y0202850D01*
X0059149Y0203020D01*
X0059130Y0203191D01*
X0059115Y0203362D01*
X0059104Y0203534D01*
X0059098Y0203705D01*
X0059096Y0203877D01*
X0062300Y0241652D02*
X0049300Y0241652D01*
X0049300Y0287652D01*
X0062300Y0287652D01*
X0075300Y0287652D01*
X0075300Y0285652D01*
X0062300Y0285652D01*
X0062300Y0287652D01*
X0061300Y0282652D02*
X0076300Y0282652D01*
X0076300Y0276652D01*
X0061300Y0276652D01*
X0061300Y0282652D01*
X0061300Y0272652D02*
X0076300Y0272652D01*
X0076300Y0266652D01*
X0061300Y0266652D01*
X0061300Y0272652D01*
X0061300Y0262652D02*
X0076300Y0262652D01*
X0076300Y0256652D01*
X0061300Y0256652D01*
X0061300Y0262652D01*
X0061300Y0252652D02*
X0076300Y0252652D01*
X0076300Y0246652D01*
X0061300Y0246652D01*
X0061300Y0252652D01*
X0062300Y0243652D02*
X0062300Y0241652D01*
X0075300Y0241652D01*
X0088300Y0241652D01*
X0088300Y0287652D01*
X0075300Y0287652D01*
X0075300Y0243652D02*
X0062300Y0243652D01*
X0075300Y0243652D02*
X0075300Y0241652D01*
X0175191Y0141132D02*
X0199191Y0141132D01*
X0199351Y0141130D01*
X0199510Y0141124D01*
X0199669Y0141114D01*
X0199828Y0141101D01*
X0199987Y0141083D01*
X0200145Y0141062D01*
X0200302Y0141036D01*
X0200459Y0141007D01*
X0200615Y0140974D01*
X0200770Y0140937D01*
X0200925Y0140897D01*
X0201078Y0140852D01*
X0201230Y0140804D01*
X0201381Y0140752D01*
X0201530Y0140696D01*
X0201678Y0140637D01*
X0201825Y0140574D01*
X0201970Y0140508D01*
X0202113Y0140438D01*
X0202255Y0140364D01*
X0202395Y0140288D01*
X0202533Y0140207D01*
X0202668Y0140124D01*
X0202802Y0140037D01*
X0202934Y0139946D01*
X0203063Y0139853D01*
X0203190Y0139756D01*
X0203315Y0139657D01*
X0203437Y0139554D01*
X0203556Y0139448D01*
X0203673Y0139340D01*
X0203787Y0139228D01*
X0203899Y0139114D01*
X0204007Y0138997D01*
X0204113Y0138878D01*
X0204216Y0138756D01*
X0204315Y0138631D01*
X0204412Y0138504D01*
X0204505Y0138375D01*
X0204596Y0138243D01*
X0204683Y0138109D01*
X0204766Y0137974D01*
X0204847Y0137836D01*
X0204923Y0137696D01*
X0204997Y0137554D01*
X0205067Y0137411D01*
X0205133Y0137266D01*
X0205196Y0137119D01*
X0205255Y0136971D01*
X0205311Y0136822D01*
X0205363Y0136671D01*
X0205411Y0136519D01*
X0205456Y0136366D01*
X0205496Y0136211D01*
X0205533Y0136056D01*
X0205566Y0135900D01*
X0205595Y0135743D01*
X0205621Y0135586D01*
X0205642Y0135428D01*
X0205660Y0135269D01*
X0205673Y0135110D01*
X0205683Y0134951D01*
X0205689Y0134792D01*
X0205691Y0134632D01*
X0205689Y0134472D01*
X0205683Y0134313D01*
X0205673Y0134154D01*
X0205660Y0133995D01*
X0205642Y0133836D01*
X0205621Y0133678D01*
X0205595Y0133521D01*
X0205566Y0133364D01*
X0205533Y0133208D01*
X0205496Y0133053D01*
X0205456Y0132898D01*
X0205411Y0132745D01*
X0205363Y0132593D01*
X0205311Y0132442D01*
X0205255Y0132293D01*
X0205196Y0132145D01*
X0205133Y0131998D01*
X0205067Y0131853D01*
X0204997Y0131710D01*
X0204923Y0131568D01*
X0204847Y0131428D01*
X0204766Y0131290D01*
X0204683Y0131155D01*
X0204596Y0131021D01*
X0204505Y0130889D01*
X0204412Y0130760D01*
X0204315Y0130633D01*
X0204216Y0130508D01*
X0204113Y0130386D01*
X0204007Y0130267D01*
X0203899Y0130150D01*
X0203787Y0130036D01*
X0203673Y0129924D01*
X0203556Y0129816D01*
X0203437Y0129710D01*
X0203315Y0129607D01*
X0203190Y0129508D01*
X0203063Y0129411D01*
X0202934Y0129318D01*
X0202802Y0129227D01*
X0202668Y0129140D01*
X0202533Y0129057D01*
X0202395Y0128976D01*
X0202255Y0128900D01*
X0202113Y0128826D01*
X0201970Y0128756D01*
X0201825Y0128690D01*
X0201678Y0128627D01*
X0201530Y0128568D01*
X0201381Y0128512D01*
X0201230Y0128460D01*
X0201078Y0128412D01*
X0200925Y0128367D01*
X0200770Y0128327D01*
X0200615Y0128290D01*
X0200459Y0128257D01*
X0200302Y0128228D01*
X0200145Y0128202D01*
X0199987Y0128181D01*
X0199828Y0128163D01*
X0199669Y0128150D01*
X0199510Y0128140D01*
X0199351Y0128134D01*
X0199191Y0128132D01*
X0175191Y0128132D01*
X0175031Y0128134D01*
X0174872Y0128140D01*
X0174713Y0128150D01*
X0174554Y0128163D01*
X0174395Y0128181D01*
X0174237Y0128202D01*
X0174080Y0128228D01*
X0173923Y0128257D01*
X0173767Y0128290D01*
X0173612Y0128327D01*
X0173457Y0128367D01*
X0173304Y0128412D01*
X0173152Y0128460D01*
X0173001Y0128512D01*
X0172852Y0128568D01*
X0172704Y0128627D01*
X0172557Y0128690D01*
X0172412Y0128756D01*
X0172269Y0128826D01*
X0172127Y0128900D01*
X0171987Y0128976D01*
X0171849Y0129057D01*
X0171714Y0129140D01*
X0171580Y0129227D01*
X0171448Y0129318D01*
X0171319Y0129411D01*
X0171192Y0129508D01*
X0171067Y0129607D01*
X0170945Y0129710D01*
X0170826Y0129816D01*
X0170709Y0129924D01*
X0170595Y0130036D01*
X0170483Y0130150D01*
X0170375Y0130267D01*
X0170269Y0130386D01*
X0170166Y0130508D01*
X0170067Y0130633D01*
X0169970Y0130760D01*
X0169877Y0130889D01*
X0169786Y0131021D01*
X0169699Y0131155D01*
X0169616Y0131290D01*
X0169535Y0131428D01*
X0169459Y0131568D01*
X0169385Y0131710D01*
X0169315Y0131853D01*
X0169249Y0131998D01*
X0169186Y0132145D01*
X0169127Y0132293D01*
X0169071Y0132442D01*
X0169019Y0132593D01*
X0168971Y0132745D01*
X0168926Y0132898D01*
X0168886Y0133053D01*
X0168849Y0133208D01*
X0168816Y0133364D01*
X0168787Y0133521D01*
X0168761Y0133678D01*
X0168740Y0133836D01*
X0168722Y0133995D01*
X0168709Y0134154D01*
X0168699Y0134313D01*
X0168693Y0134472D01*
X0168691Y0134632D01*
X0168693Y0134792D01*
X0168699Y0134951D01*
X0168709Y0135110D01*
X0168722Y0135269D01*
X0168740Y0135428D01*
X0168761Y0135586D01*
X0168787Y0135743D01*
X0168816Y0135900D01*
X0168849Y0136056D01*
X0168886Y0136211D01*
X0168926Y0136366D01*
X0168971Y0136519D01*
X0169019Y0136671D01*
X0169071Y0136822D01*
X0169127Y0136971D01*
X0169186Y0137119D01*
X0169249Y0137266D01*
X0169315Y0137411D01*
X0169385Y0137554D01*
X0169459Y0137696D01*
X0169535Y0137836D01*
X0169616Y0137974D01*
X0169699Y0138109D01*
X0169786Y0138243D01*
X0169877Y0138375D01*
X0169970Y0138504D01*
X0170067Y0138631D01*
X0170166Y0138756D01*
X0170269Y0138878D01*
X0170375Y0138997D01*
X0170483Y0139114D01*
X0170595Y0139228D01*
X0170709Y0139340D01*
X0170826Y0139448D01*
X0170945Y0139554D01*
X0171067Y0139657D01*
X0171192Y0139756D01*
X0171319Y0139853D01*
X0171448Y0139946D01*
X0171580Y0140037D01*
X0171714Y0140124D01*
X0171849Y0140207D01*
X0171987Y0140288D01*
X0172127Y0140364D01*
X0172269Y0140438D01*
X0172412Y0140508D01*
X0172557Y0140574D01*
X0172704Y0140637D01*
X0172852Y0140696D01*
X0173001Y0140752D01*
X0173152Y0140804D01*
X0173304Y0140852D01*
X0173457Y0140897D01*
X0173612Y0140937D01*
X0173767Y0140974D01*
X0173923Y0141007D01*
X0174080Y0141036D01*
X0174237Y0141062D01*
X0174395Y0141083D01*
X0174554Y0141101D01*
X0174713Y0141114D01*
X0174872Y0141124D01*
X0175031Y0141130D01*
X0175191Y0141132D01*
X0182191Y0134632D02*
X0184691Y0134632D01*
X0184691Y0131632D01*
X0186191Y0131632D02*
X0186191Y0137632D01*
X0188191Y0137632D01*
X0188191Y0131632D01*
X0186191Y0131632D01*
X0184691Y0134632D02*
X0184691Y0137632D01*
X0189691Y0137632D02*
X0189691Y0134632D01*
X0192191Y0134632D01*
X0189691Y0134632D02*
X0189691Y0131632D01*
X0304800Y0135302D02*
X0327800Y0135302D01*
X0327800Y0155302D01*
X0320300Y0155302D01*
X0320298Y0155176D01*
X0320292Y0155051D01*
X0320282Y0154926D01*
X0320268Y0154801D01*
X0320251Y0154676D01*
X0320229Y0154552D01*
X0320204Y0154429D01*
X0320174Y0154307D01*
X0320141Y0154186D01*
X0320104Y0154066D01*
X0320064Y0153947D01*
X0320019Y0153830D01*
X0319971Y0153713D01*
X0319919Y0153599D01*
X0319864Y0153486D01*
X0319805Y0153375D01*
X0319743Y0153266D01*
X0319677Y0153159D01*
X0319608Y0153054D01*
X0319536Y0152951D01*
X0319461Y0152850D01*
X0319382Y0152752D01*
X0319300Y0152657D01*
X0319216Y0152564D01*
X0319128Y0152474D01*
X0319038Y0152386D01*
X0318945Y0152302D01*
X0318850Y0152220D01*
X0318752Y0152141D01*
X0318651Y0152066D01*
X0318548Y0151994D01*
X0318443Y0151925D01*
X0318336Y0151859D01*
X0318227Y0151797D01*
X0318116Y0151738D01*
X0318003Y0151683D01*
X0317889Y0151631D01*
X0317772Y0151583D01*
X0317655Y0151538D01*
X0317536Y0151498D01*
X0317416Y0151461D01*
X0317295Y0151428D01*
X0317173Y0151398D01*
X0317050Y0151373D01*
X0316926Y0151351D01*
X0316801Y0151334D01*
X0316676Y0151320D01*
X0316551Y0151310D01*
X0316426Y0151304D01*
X0316300Y0151302D01*
X0316174Y0151304D01*
X0316049Y0151310D01*
X0315924Y0151320D01*
X0315799Y0151334D01*
X0315674Y0151351D01*
X0315550Y0151373D01*
X0315427Y0151398D01*
X0315305Y0151428D01*
X0315184Y0151461D01*
X0315064Y0151498D01*
X0314945Y0151538D01*
X0314828Y0151583D01*
X0314711Y0151631D01*
X0314597Y0151683D01*
X0314484Y0151738D01*
X0314373Y0151797D01*
X0314264Y0151859D01*
X0314157Y0151925D01*
X0314052Y0151994D01*
X0313949Y0152066D01*
X0313848Y0152141D01*
X0313750Y0152220D01*
X0313655Y0152302D01*
X0313562Y0152386D01*
X0313472Y0152474D01*
X0313384Y0152564D01*
X0313300Y0152657D01*
X0313218Y0152752D01*
X0313139Y0152850D01*
X0313064Y0152951D01*
X0312992Y0153054D01*
X0312923Y0153159D01*
X0312857Y0153266D01*
X0312795Y0153375D01*
X0312736Y0153486D01*
X0312681Y0153599D01*
X0312629Y0153713D01*
X0312581Y0153830D01*
X0312536Y0153947D01*
X0312496Y0154066D01*
X0312459Y0154186D01*
X0312426Y0154307D01*
X0312396Y0154429D01*
X0312371Y0154552D01*
X0312349Y0154676D01*
X0312332Y0154801D01*
X0312318Y0154926D01*
X0312308Y0155051D01*
X0312302Y0155176D01*
X0312300Y0155302D01*
X0304800Y0155302D01*
X0304800Y0135302D01*
X0304800Y0123102D02*
X0312300Y0123102D01*
X0312302Y0122976D01*
X0312308Y0122851D01*
X0312318Y0122726D01*
X0312332Y0122601D01*
X0312349Y0122476D01*
X0312371Y0122352D01*
X0312396Y0122229D01*
X0312426Y0122107D01*
X0312459Y0121986D01*
X0312496Y0121866D01*
X0312536Y0121747D01*
X0312581Y0121630D01*
X0312629Y0121513D01*
X0312681Y0121399D01*
X0312736Y0121286D01*
X0312795Y0121175D01*
X0312857Y0121066D01*
X0312923Y0120959D01*
X0312992Y0120854D01*
X0313064Y0120751D01*
X0313139Y0120650D01*
X0313218Y0120552D01*
X0313300Y0120457D01*
X0313384Y0120364D01*
X0313472Y0120274D01*
X0313562Y0120186D01*
X0313655Y0120102D01*
X0313750Y0120020D01*
X0313848Y0119941D01*
X0313949Y0119866D01*
X0314052Y0119794D01*
X0314157Y0119725D01*
X0314264Y0119659D01*
X0314373Y0119597D01*
X0314484Y0119538D01*
X0314597Y0119483D01*
X0314711Y0119431D01*
X0314828Y0119383D01*
X0314945Y0119338D01*
X0315064Y0119298D01*
X0315184Y0119261D01*
X0315305Y0119228D01*
X0315427Y0119198D01*
X0315550Y0119173D01*
X0315674Y0119151D01*
X0315799Y0119134D01*
X0315924Y0119120D01*
X0316049Y0119110D01*
X0316174Y0119104D01*
X0316300Y0119102D01*
X0316426Y0119104D01*
X0316551Y0119110D01*
X0316676Y0119120D01*
X0316801Y0119134D01*
X0316926Y0119151D01*
X0317050Y0119173D01*
X0317173Y0119198D01*
X0317295Y0119228D01*
X0317416Y0119261D01*
X0317536Y0119298D01*
X0317655Y0119338D01*
X0317772Y0119383D01*
X0317889Y0119431D01*
X0318003Y0119483D01*
X0318116Y0119538D01*
X0318227Y0119597D01*
X0318336Y0119659D01*
X0318443Y0119725D01*
X0318548Y0119794D01*
X0318651Y0119866D01*
X0318752Y0119941D01*
X0318850Y0120020D01*
X0318945Y0120102D01*
X0319038Y0120186D01*
X0319128Y0120274D01*
X0319216Y0120364D01*
X0319300Y0120457D01*
X0319382Y0120552D01*
X0319461Y0120650D01*
X0319536Y0120751D01*
X0319608Y0120854D01*
X0319677Y0120959D01*
X0319743Y0121066D01*
X0319805Y0121175D01*
X0319864Y0121286D01*
X0319919Y0121399D01*
X0319971Y0121513D01*
X0320019Y0121630D01*
X0320064Y0121747D01*
X0320104Y0121866D01*
X0320141Y0121986D01*
X0320174Y0122107D01*
X0320204Y0122229D01*
X0320229Y0122352D01*
X0320251Y0122476D01*
X0320268Y0122601D01*
X0320282Y0122726D01*
X0320292Y0122851D01*
X0320298Y0122976D01*
X0320300Y0123102D01*
X0327800Y0123102D01*
X0327800Y0103102D01*
X0304800Y0103102D01*
X0304800Y0123102D01*
X0304800Y0090902D02*
X0312300Y0090902D01*
X0312302Y0090776D01*
X0312308Y0090651D01*
X0312318Y0090526D01*
X0312332Y0090401D01*
X0312349Y0090276D01*
X0312371Y0090152D01*
X0312396Y0090029D01*
X0312426Y0089907D01*
X0312459Y0089786D01*
X0312496Y0089666D01*
X0312536Y0089547D01*
X0312581Y0089430D01*
X0312629Y0089313D01*
X0312681Y0089199D01*
X0312736Y0089086D01*
X0312795Y0088975D01*
X0312857Y0088866D01*
X0312923Y0088759D01*
X0312992Y0088654D01*
X0313064Y0088551D01*
X0313139Y0088450D01*
X0313218Y0088352D01*
X0313300Y0088257D01*
X0313384Y0088164D01*
X0313472Y0088074D01*
X0313562Y0087986D01*
X0313655Y0087902D01*
X0313750Y0087820D01*
X0313848Y0087741D01*
X0313949Y0087666D01*
X0314052Y0087594D01*
X0314157Y0087525D01*
X0314264Y0087459D01*
X0314373Y0087397D01*
X0314484Y0087338D01*
X0314597Y0087283D01*
X0314711Y0087231D01*
X0314828Y0087183D01*
X0314945Y0087138D01*
X0315064Y0087098D01*
X0315184Y0087061D01*
X0315305Y0087028D01*
X0315427Y0086998D01*
X0315550Y0086973D01*
X0315674Y0086951D01*
X0315799Y0086934D01*
X0315924Y0086920D01*
X0316049Y0086910D01*
X0316174Y0086904D01*
X0316300Y0086902D01*
X0316426Y0086904D01*
X0316551Y0086910D01*
X0316676Y0086920D01*
X0316801Y0086934D01*
X0316926Y0086951D01*
X0317050Y0086973D01*
X0317173Y0086998D01*
X0317295Y0087028D01*
X0317416Y0087061D01*
X0317536Y0087098D01*
X0317655Y0087138D01*
X0317772Y0087183D01*
X0317889Y0087231D01*
X0318003Y0087283D01*
X0318116Y0087338D01*
X0318227Y0087397D01*
X0318336Y0087459D01*
X0318443Y0087525D01*
X0318548Y0087594D01*
X0318651Y0087666D01*
X0318752Y0087741D01*
X0318850Y0087820D01*
X0318945Y0087902D01*
X0319038Y0087986D01*
X0319128Y0088074D01*
X0319216Y0088164D01*
X0319300Y0088257D01*
X0319382Y0088352D01*
X0319461Y0088450D01*
X0319536Y0088551D01*
X0319608Y0088654D01*
X0319677Y0088759D01*
X0319743Y0088866D01*
X0319805Y0088975D01*
X0319864Y0089086D01*
X0319919Y0089199D01*
X0319971Y0089313D01*
X0320019Y0089430D01*
X0320064Y0089547D01*
X0320104Y0089666D01*
X0320141Y0089786D01*
X0320174Y0089907D01*
X0320204Y0090029D01*
X0320229Y0090152D01*
X0320251Y0090276D01*
X0320268Y0090401D01*
X0320282Y0090526D01*
X0320292Y0090651D01*
X0320298Y0090776D01*
X0320300Y0090902D01*
X0327800Y0090902D01*
X0327800Y0070902D01*
X0304800Y0070902D01*
X0304800Y0090902D01*
X0310395Y0060627D02*
X0351395Y0060627D01*
X0351395Y0047027D01*
X0346795Y0042527D01*
X0310395Y0042527D01*
X0310395Y0060627D01*
X0369100Y0089770D02*
X0370168Y0088702D01*
X0372303Y0088702D01*
X0373370Y0089770D01*
X0373370Y0090837D01*
X0372303Y0091905D01*
X0370168Y0091905D01*
X0369100Y0092972D01*
X0369100Y0094040D01*
X0370168Y0095107D01*
X0372303Y0095107D01*
X0373370Y0094040D01*
X0375545Y0092972D02*
X0378748Y0092972D01*
X0379816Y0091905D01*
X0379816Y0089770D01*
X0378748Y0088702D01*
X0375545Y0088702D01*
X0375545Y0086567D02*
X0375545Y0092972D01*
X0381991Y0089770D02*
X0383059Y0088702D01*
X0386261Y0088702D01*
X0386261Y0091905D01*
X0385194Y0092972D01*
X0383059Y0092972D01*
X0383059Y0090837D02*
X0386261Y0090837D01*
X0388436Y0090837D02*
X0390572Y0092972D01*
X0391639Y0092972D01*
X0393808Y0091905D02*
X0394875Y0092972D01*
X0397010Y0092972D01*
X0398078Y0091905D01*
X0398078Y0090837D01*
X0393808Y0090837D01*
X0393808Y0089770D02*
X0393808Y0091905D01*
X0393808Y0089770D02*
X0394875Y0088702D01*
X0397010Y0088702D01*
X0388436Y0088702D02*
X0388436Y0092972D01*
X0383059Y0090837D02*
X0381991Y0089770D01*
X0327800Y0167502D02*
X0304800Y0167502D01*
X0304800Y0187502D01*
X0312300Y0187502D01*
X0312302Y0187376D01*
X0312308Y0187251D01*
X0312318Y0187126D01*
X0312332Y0187001D01*
X0312349Y0186876D01*
X0312371Y0186752D01*
X0312396Y0186629D01*
X0312426Y0186507D01*
X0312459Y0186386D01*
X0312496Y0186266D01*
X0312536Y0186147D01*
X0312581Y0186030D01*
X0312629Y0185913D01*
X0312681Y0185799D01*
X0312736Y0185686D01*
X0312795Y0185575D01*
X0312857Y0185466D01*
X0312923Y0185359D01*
X0312992Y0185254D01*
X0313064Y0185151D01*
X0313139Y0185050D01*
X0313218Y0184952D01*
X0313300Y0184857D01*
X0313384Y0184764D01*
X0313472Y0184674D01*
X0313562Y0184586D01*
X0313655Y0184502D01*
X0313750Y0184420D01*
X0313848Y0184341D01*
X0313949Y0184266D01*
X0314052Y0184194D01*
X0314157Y0184125D01*
X0314264Y0184059D01*
X0314373Y0183997D01*
X0314484Y0183938D01*
X0314597Y0183883D01*
X0314711Y0183831D01*
X0314828Y0183783D01*
X0314945Y0183738D01*
X0315064Y0183698D01*
X0315184Y0183661D01*
X0315305Y0183628D01*
X0315427Y0183598D01*
X0315550Y0183573D01*
X0315674Y0183551D01*
X0315799Y0183534D01*
X0315924Y0183520D01*
X0316049Y0183510D01*
X0316174Y0183504D01*
X0316300Y0183502D01*
X0316426Y0183504D01*
X0316551Y0183510D01*
X0316676Y0183520D01*
X0316801Y0183534D01*
X0316926Y0183551D01*
X0317050Y0183573D01*
X0317173Y0183598D01*
X0317295Y0183628D01*
X0317416Y0183661D01*
X0317536Y0183698D01*
X0317655Y0183738D01*
X0317772Y0183783D01*
X0317889Y0183831D01*
X0318003Y0183883D01*
X0318116Y0183938D01*
X0318227Y0183997D01*
X0318336Y0184059D01*
X0318443Y0184125D01*
X0318548Y0184194D01*
X0318651Y0184266D01*
X0318752Y0184341D01*
X0318850Y0184420D01*
X0318945Y0184502D01*
X0319038Y0184586D01*
X0319128Y0184674D01*
X0319216Y0184764D01*
X0319300Y0184857D01*
X0319382Y0184952D01*
X0319461Y0185050D01*
X0319536Y0185151D01*
X0319608Y0185254D01*
X0319677Y0185359D01*
X0319743Y0185466D01*
X0319805Y0185575D01*
X0319864Y0185686D01*
X0319919Y0185799D01*
X0319971Y0185913D01*
X0320019Y0186030D01*
X0320064Y0186147D01*
X0320104Y0186266D01*
X0320141Y0186386D01*
X0320174Y0186507D01*
X0320204Y0186629D01*
X0320229Y0186752D01*
X0320251Y0186876D01*
X0320268Y0187001D01*
X0320282Y0187126D01*
X0320292Y0187251D01*
X0320298Y0187376D01*
X0320300Y0187502D01*
X0327800Y0187502D01*
X0327800Y0167502D01*
X0327800Y0199702D02*
X0304800Y0199702D01*
X0304800Y0219702D01*
X0312300Y0219702D01*
X0312302Y0219576D01*
X0312308Y0219451D01*
X0312318Y0219326D01*
X0312332Y0219201D01*
X0312349Y0219076D01*
X0312371Y0218952D01*
X0312396Y0218829D01*
X0312426Y0218707D01*
X0312459Y0218586D01*
X0312496Y0218466D01*
X0312536Y0218347D01*
X0312581Y0218230D01*
X0312629Y0218113D01*
X0312681Y0217999D01*
X0312736Y0217886D01*
X0312795Y0217775D01*
X0312857Y0217666D01*
X0312923Y0217559D01*
X0312992Y0217454D01*
X0313064Y0217351D01*
X0313139Y0217250D01*
X0313218Y0217152D01*
X0313300Y0217057D01*
X0313384Y0216964D01*
X0313472Y0216874D01*
X0313562Y0216786D01*
X0313655Y0216702D01*
X0313750Y0216620D01*
X0313848Y0216541D01*
X0313949Y0216466D01*
X0314052Y0216394D01*
X0314157Y0216325D01*
X0314264Y0216259D01*
X0314373Y0216197D01*
X0314484Y0216138D01*
X0314597Y0216083D01*
X0314711Y0216031D01*
X0314828Y0215983D01*
X0314945Y0215938D01*
X0315064Y0215898D01*
X0315184Y0215861D01*
X0315305Y0215828D01*
X0315427Y0215798D01*
X0315550Y0215773D01*
X0315674Y0215751D01*
X0315799Y0215734D01*
X0315924Y0215720D01*
X0316049Y0215710D01*
X0316174Y0215704D01*
X0316300Y0215702D01*
X0316426Y0215704D01*
X0316551Y0215710D01*
X0316676Y0215720D01*
X0316801Y0215734D01*
X0316926Y0215751D01*
X0317050Y0215773D01*
X0317173Y0215798D01*
X0317295Y0215828D01*
X0317416Y0215861D01*
X0317536Y0215898D01*
X0317655Y0215938D01*
X0317772Y0215983D01*
X0317889Y0216031D01*
X0318003Y0216083D01*
X0318116Y0216138D01*
X0318227Y0216197D01*
X0318336Y0216259D01*
X0318443Y0216325D01*
X0318548Y0216394D01*
X0318651Y0216466D01*
X0318752Y0216541D01*
X0318850Y0216620D01*
X0318945Y0216702D01*
X0319038Y0216786D01*
X0319128Y0216874D01*
X0319216Y0216964D01*
X0319300Y0217057D01*
X0319382Y0217152D01*
X0319461Y0217250D01*
X0319536Y0217351D01*
X0319608Y0217454D01*
X0319677Y0217559D01*
X0319743Y0217666D01*
X0319805Y0217775D01*
X0319864Y0217886D01*
X0319919Y0217999D01*
X0319971Y0218113D01*
X0320019Y0218230D01*
X0320064Y0218347D01*
X0320104Y0218466D01*
X0320141Y0218586D01*
X0320174Y0218707D01*
X0320204Y0218829D01*
X0320229Y0218952D01*
X0320251Y0219076D01*
X0320268Y0219201D01*
X0320282Y0219326D01*
X0320292Y0219451D01*
X0320298Y0219576D01*
X0320300Y0219702D01*
X0327800Y0219702D01*
X0327800Y0199702D01*
X0327800Y0231902D02*
X0304800Y0231902D01*
X0304800Y0251902D01*
X0312300Y0251902D01*
X0312302Y0251776D01*
X0312308Y0251651D01*
X0312318Y0251526D01*
X0312332Y0251401D01*
X0312349Y0251276D01*
X0312371Y0251152D01*
X0312396Y0251029D01*
X0312426Y0250907D01*
X0312459Y0250786D01*
X0312496Y0250666D01*
X0312536Y0250547D01*
X0312581Y0250430D01*
X0312629Y0250313D01*
X0312681Y0250199D01*
X0312736Y0250086D01*
X0312795Y0249975D01*
X0312857Y0249866D01*
X0312923Y0249759D01*
X0312992Y0249654D01*
X0313064Y0249551D01*
X0313139Y0249450D01*
X0313218Y0249352D01*
X0313300Y0249257D01*
X0313384Y0249164D01*
X0313472Y0249074D01*
X0313562Y0248986D01*
X0313655Y0248902D01*
X0313750Y0248820D01*
X0313848Y0248741D01*
X0313949Y0248666D01*
X0314052Y0248594D01*
X0314157Y0248525D01*
X0314264Y0248459D01*
X0314373Y0248397D01*
X0314484Y0248338D01*
X0314597Y0248283D01*
X0314711Y0248231D01*
X0314828Y0248183D01*
X0314945Y0248138D01*
X0315064Y0248098D01*
X0315184Y0248061D01*
X0315305Y0248028D01*
X0315427Y0247998D01*
X0315550Y0247973D01*
X0315674Y0247951D01*
X0315799Y0247934D01*
X0315924Y0247920D01*
X0316049Y0247910D01*
X0316174Y0247904D01*
X0316300Y0247902D01*
X0316426Y0247904D01*
X0316551Y0247910D01*
X0316676Y0247920D01*
X0316801Y0247934D01*
X0316926Y0247951D01*
X0317050Y0247973D01*
X0317173Y0247998D01*
X0317295Y0248028D01*
X0317416Y0248061D01*
X0317536Y0248098D01*
X0317655Y0248138D01*
X0317772Y0248183D01*
X0317889Y0248231D01*
X0318003Y0248283D01*
X0318116Y0248338D01*
X0318227Y0248397D01*
X0318336Y0248459D01*
X0318443Y0248525D01*
X0318548Y0248594D01*
X0318651Y0248666D01*
X0318752Y0248741D01*
X0318850Y0248820D01*
X0318945Y0248902D01*
X0319038Y0248986D01*
X0319128Y0249074D01*
X0319216Y0249164D01*
X0319300Y0249257D01*
X0319382Y0249352D01*
X0319461Y0249450D01*
X0319536Y0249551D01*
X0319608Y0249654D01*
X0319677Y0249759D01*
X0319743Y0249866D01*
X0319805Y0249975D01*
X0319864Y0250086D01*
X0319919Y0250199D01*
X0319971Y0250313D01*
X0320019Y0250430D01*
X0320064Y0250547D01*
X0320104Y0250666D01*
X0320141Y0250786D01*
X0320174Y0250907D01*
X0320204Y0251029D01*
X0320229Y0251152D01*
X0320251Y0251276D01*
X0320268Y0251401D01*
X0320282Y0251526D01*
X0320292Y0251651D01*
X0320298Y0251776D01*
X0320300Y0251902D01*
X0327800Y0251902D01*
X0327800Y0231902D01*
X0327800Y0264102D02*
X0304800Y0264102D01*
X0304800Y0284102D01*
X0312300Y0284102D01*
X0312302Y0283976D01*
X0312308Y0283851D01*
X0312318Y0283726D01*
X0312332Y0283601D01*
X0312349Y0283476D01*
X0312371Y0283352D01*
X0312396Y0283229D01*
X0312426Y0283107D01*
X0312459Y0282986D01*
X0312496Y0282866D01*
X0312536Y0282747D01*
X0312581Y0282630D01*
X0312629Y0282513D01*
X0312681Y0282399D01*
X0312736Y0282286D01*
X0312795Y0282175D01*
X0312857Y0282066D01*
X0312923Y0281959D01*
X0312992Y0281854D01*
X0313064Y0281751D01*
X0313139Y0281650D01*
X0313218Y0281552D01*
X0313300Y0281457D01*
X0313384Y0281364D01*
X0313472Y0281274D01*
X0313562Y0281186D01*
X0313655Y0281102D01*
X0313750Y0281020D01*
X0313848Y0280941D01*
X0313949Y0280866D01*
X0314052Y0280794D01*
X0314157Y0280725D01*
X0314264Y0280659D01*
X0314373Y0280597D01*
X0314484Y0280538D01*
X0314597Y0280483D01*
X0314711Y0280431D01*
X0314828Y0280383D01*
X0314945Y0280338D01*
X0315064Y0280298D01*
X0315184Y0280261D01*
X0315305Y0280228D01*
X0315427Y0280198D01*
X0315550Y0280173D01*
X0315674Y0280151D01*
X0315799Y0280134D01*
X0315924Y0280120D01*
X0316049Y0280110D01*
X0316174Y0280104D01*
X0316300Y0280102D01*
X0316426Y0280104D01*
X0316551Y0280110D01*
X0316676Y0280120D01*
X0316801Y0280134D01*
X0316926Y0280151D01*
X0317050Y0280173D01*
X0317173Y0280198D01*
X0317295Y0280228D01*
X0317416Y0280261D01*
X0317536Y0280298D01*
X0317655Y0280338D01*
X0317772Y0280383D01*
X0317889Y0280431D01*
X0318003Y0280483D01*
X0318116Y0280538D01*
X0318227Y0280597D01*
X0318336Y0280659D01*
X0318443Y0280725D01*
X0318548Y0280794D01*
X0318651Y0280866D01*
X0318752Y0280941D01*
X0318850Y0281020D01*
X0318945Y0281102D01*
X0319038Y0281186D01*
X0319128Y0281274D01*
X0319216Y0281364D01*
X0319300Y0281457D01*
X0319382Y0281552D01*
X0319461Y0281650D01*
X0319536Y0281751D01*
X0319608Y0281854D01*
X0319677Y0281959D01*
X0319743Y0282066D01*
X0319805Y0282175D01*
X0319864Y0282286D01*
X0319919Y0282399D01*
X0319971Y0282513D01*
X0320019Y0282630D01*
X0320064Y0282747D01*
X0320104Y0282866D01*
X0320141Y0282986D01*
X0320174Y0283107D01*
X0320204Y0283229D01*
X0320229Y0283352D01*
X0320251Y0283476D01*
X0320268Y0283601D01*
X0320282Y0283726D01*
X0320292Y0283851D01*
X0320298Y0283976D01*
X0320300Y0284102D01*
X0327800Y0284102D01*
X0327800Y0264102D01*
X0327800Y0296302D02*
X0304800Y0296302D01*
X0304800Y0316302D01*
X0312300Y0316302D01*
X0312302Y0316176D01*
X0312308Y0316051D01*
X0312318Y0315926D01*
X0312332Y0315801D01*
X0312349Y0315676D01*
X0312371Y0315552D01*
X0312396Y0315429D01*
X0312426Y0315307D01*
X0312459Y0315186D01*
X0312496Y0315066D01*
X0312536Y0314947D01*
X0312581Y0314830D01*
X0312629Y0314713D01*
X0312681Y0314599D01*
X0312736Y0314486D01*
X0312795Y0314375D01*
X0312857Y0314266D01*
X0312923Y0314159D01*
X0312992Y0314054D01*
X0313064Y0313951D01*
X0313139Y0313850D01*
X0313218Y0313752D01*
X0313300Y0313657D01*
X0313384Y0313564D01*
X0313472Y0313474D01*
X0313562Y0313386D01*
X0313655Y0313302D01*
X0313750Y0313220D01*
X0313848Y0313141D01*
X0313949Y0313066D01*
X0314052Y0312994D01*
X0314157Y0312925D01*
X0314264Y0312859D01*
X0314373Y0312797D01*
X0314484Y0312738D01*
X0314597Y0312683D01*
X0314711Y0312631D01*
X0314828Y0312583D01*
X0314945Y0312538D01*
X0315064Y0312498D01*
X0315184Y0312461D01*
X0315305Y0312428D01*
X0315427Y0312398D01*
X0315550Y0312373D01*
X0315674Y0312351D01*
X0315799Y0312334D01*
X0315924Y0312320D01*
X0316049Y0312310D01*
X0316174Y0312304D01*
X0316300Y0312302D01*
X0316426Y0312304D01*
X0316551Y0312310D01*
X0316676Y0312320D01*
X0316801Y0312334D01*
X0316926Y0312351D01*
X0317050Y0312373D01*
X0317173Y0312398D01*
X0317295Y0312428D01*
X0317416Y0312461D01*
X0317536Y0312498D01*
X0317655Y0312538D01*
X0317772Y0312583D01*
X0317889Y0312631D01*
X0318003Y0312683D01*
X0318116Y0312738D01*
X0318227Y0312797D01*
X0318336Y0312859D01*
X0318443Y0312925D01*
X0318548Y0312994D01*
X0318651Y0313066D01*
X0318752Y0313141D01*
X0318850Y0313220D01*
X0318945Y0313302D01*
X0319038Y0313386D01*
X0319128Y0313474D01*
X0319216Y0313564D01*
X0319300Y0313657D01*
X0319382Y0313752D01*
X0319461Y0313850D01*
X0319536Y0313951D01*
X0319608Y0314054D01*
X0319677Y0314159D01*
X0319743Y0314266D01*
X0319805Y0314375D01*
X0319864Y0314486D01*
X0319919Y0314599D01*
X0319971Y0314713D01*
X0320019Y0314830D01*
X0320064Y0314947D01*
X0320104Y0315066D01*
X0320141Y0315186D01*
X0320174Y0315307D01*
X0320204Y0315429D01*
X0320229Y0315552D01*
X0320251Y0315676D01*
X0320268Y0315801D01*
X0320282Y0315926D01*
X0320292Y0316051D01*
X0320298Y0316176D01*
X0320300Y0316302D01*
X0327800Y0316302D01*
X0327800Y0296302D01*
X0327800Y0328502D02*
X0304800Y0328502D01*
X0304800Y0348502D01*
X0312300Y0348502D01*
X0312302Y0348376D01*
X0312308Y0348251D01*
X0312318Y0348126D01*
X0312332Y0348001D01*
X0312349Y0347876D01*
X0312371Y0347752D01*
X0312396Y0347629D01*
X0312426Y0347507D01*
X0312459Y0347386D01*
X0312496Y0347266D01*
X0312536Y0347147D01*
X0312581Y0347030D01*
X0312629Y0346913D01*
X0312681Y0346799D01*
X0312736Y0346686D01*
X0312795Y0346575D01*
X0312857Y0346466D01*
X0312923Y0346359D01*
X0312992Y0346254D01*
X0313064Y0346151D01*
X0313139Y0346050D01*
X0313218Y0345952D01*
X0313300Y0345857D01*
X0313384Y0345764D01*
X0313472Y0345674D01*
X0313562Y0345586D01*
X0313655Y0345502D01*
X0313750Y0345420D01*
X0313848Y0345341D01*
X0313949Y0345266D01*
X0314052Y0345194D01*
X0314157Y0345125D01*
X0314264Y0345059D01*
X0314373Y0344997D01*
X0314484Y0344938D01*
X0314597Y0344883D01*
X0314711Y0344831D01*
X0314828Y0344783D01*
X0314945Y0344738D01*
X0315064Y0344698D01*
X0315184Y0344661D01*
X0315305Y0344628D01*
X0315427Y0344598D01*
X0315550Y0344573D01*
X0315674Y0344551D01*
X0315799Y0344534D01*
X0315924Y0344520D01*
X0316049Y0344510D01*
X0316174Y0344504D01*
X0316300Y0344502D01*
X0316426Y0344504D01*
X0316551Y0344510D01*
X0316676Y0344520D01*
X0316801Y0344534D01*
X0316926Y0344551D01*
X0317050Y0344573D01*
X0317173Y0344598D01*
X0317295Y0344628D01*
X0317416Y0344661D01*
X0317536Y0344698D01*
X0317655Y0344738D01*
X0317772Y0344783D01*
X0317889Y0344831D01*
X0318003Y0344883D01*
X0318116Y0344938D01*
X0318227Y0344997D01*
X0318336Y0345059D01*
X0318443Y0345125D01*
X0318548Y0345194D01*
X0318651Y0345266D01*
X0318752Y0345341D01*
X0318850Y0345420D01*
X0318945Y0345502D01*
X0319038Y0345586D01*
X0319128Y0345674D01*
X0319216Y0345764D01*
X0319300Y0345857D01*
X0319382Y0345952D01*
X0319461Y0346050D01*
X0319536Y0346151D01*
X0319608Y0346254D01*
X0319677Y0346359D01*
X0319743Y0346466D01*
X0319805Y0346575D01*
X0319864Y0346686D01*
X0319919Y0346799D01*
X0319971Y0346913D01*
X0320019Y0347030D01*
X0320064Y0347147D01*
X0320104Y0347266D01*
X0320141Y0347386D01*
X0320174Y0347507D01*
X0320204Y0347629D01*
X0320229Y0347752D01*
X0320251Y0347876D01*
X0320268Y0348001D01*
X0320282Y0348126D01*
X0320292Y0348251D01*
X0320298Y0348376D01*
X0320300Y0348502D01*
X0327800Y0348502D01*
X0327800Y0328502D01*
X0120724Y0349187D02*
X0119857Y0350054D01*
X0120290Y0350054D02*
X0118989Y0350054D01*
X0118989Y0349187D02*
X0118989Y0351789D01*
X0120290Y0351789D01*
X0120724Y0351356D01*
X0120724Y0350488D01*
X0120290Y0350054D01*
X0117778Y0349621D02*
X0117778Y0351356D01*
X0117344Y0351789D01*
X0116476Y0351789D01*
X0116043Y0351356D01*
X0116043Y0349621D01*
X0116476Y0349187D01*
X0117344Y0349187D01*
X0117778Y0349621D01*
X0114831Y0351789D02*
X0113096Y0351789D01*
X0113964Y0351789D02*
X0113964Y0349187D01*
X0111884Y0349621D02*
X0111451Y0349187D01*
X0110583Y0349187D01*
X0110150Y0349621D01*
X0110150Y0351356D01*
X0110583Y0351789D01*
X0111451Y0351789D01*
X0111884Y0351356D01*
X0108938Y0351789D02*
X0107203Y0351789D01*
X0107203Y0349187D01*
X0108938Y0349187D01*
X0108071Y0350488D02*
X0107203Y0350488D01*
X0105991Y0349187D02*
X0105991Y0351789D01*
X0104257Y0351789D02*
X0105991Y0349187D01*
X0104257Y0349187D02*
X0104257Y0351789D01*
X0103045Y0351789D02*
X0103045Y0349187D01*
X0101310Y0351789D01*
X0101310Y0349187D01*
X0100098Y0349621D02*
X0100098Y0351356D01*
X0099665Y0351789D01*
X0098797Y0351789D01*
X0098364Y0351356D01*
X0098364Y0349621D01*
X0098797Y0349187D01*
X0099665Y0349187D01*
X0100098Y0349621D01*
X0097152Y0349621D02*
X0096718Y0349187D01*
X0095851Y0349187D01*
X0095417Y0349621D01*
X0095417Y0351356D01*
X0095851Y0351789D01*
X0096718Y0351789D01*
X0097152Y0351356D01*
X0094205Y0348753D02*
X0092471Y0348753D01*
X0091259Y0349621D02*
X0090825Y0349187D01*
X0089524Y0349187D01*
X0089524Y0351789D01*
X0090825Y0351789D01*
X0091259Y0351356D01*
X0091259Y0350922D01*
X0090825Y0350488D01*
X0089524Y0350488D01*
X0088312Y0350054D02*
X0088312Y0349621D01*
X0087879Y0349187D01*
X0087011Y0349187D01*
X0086578Y0349621D01*
X0087011Y0350488D02*
X0087879Y0350488D01*
X0088312Y0350054D01*
X0088312Y0351356D02*
X0087879Y0351789D01*
X0087011Y0351789D01*
X0086578Y0351356D01*
X0086578Y0350922D01*
X0087011Y0350488D01*
X0085366Y0349621D02*
X0085366Y0351789D01*
X0083631Y0351789D02*
X0083631Y0349621D01*
X0084065Y0349187D01*
X0084932Y0349187D01*
X0085366Y0349621D01*
X0090825Y0350488D02*
X0091259Y0350054D01*
X0091259Y0349621D01*
D15*
X0041829Y0314698D02*
X0041829Y0182808D01*
X0006789Y0182808D01*
X0006789Y0314698D01*
X0041829Y0314698D01*
X0142936Y0228677D02*
X0180379Y0266120D01*
X0217822Y0228677D01*
X0180379Y0191234D01*
X0142936Y0228677D01*
D16*
X0154350Y0228677D02*
X0180379Y0254706D01*
X0206408Y0228677D01*
X0180379Y0202648D01*
X0154350Y0228677D01*
X0040844Y0183792D02*
X0040844Y0313714D01*
X0019309Y0313714D01*
X0007774Y0293753D02*
X0007774Y0183792D01*
X0040844Y0183792D01*
D17*
X0184689Y0198820D02*
X0184691Y0198864D01*
X0184697Y0198908D01*
X0184707Y0198951D01*
X0184720Y0198993D01*
X0184738Y0199033D01*
X0184759Y0199072D01*
X0184783Y0199109D01*
X0184810Y0199144D01*
X0184841Y0199176D01*
X0184874Y0199205D01*
X0184910Y0199231D01*
X0184948Y0199253D01*
X0184988Y0199272D01*
X0185029Y0199288D01*
X0185072Y0199300D01*
X0185115Y0199308D01*
X0185159Y0199312D01*
X0185203Y0199312D01*
X0185247Y0199308D01*
X0185290Y0199300D01*
X0185333Y0199288D01*
X0185374Y0199272D01*
X0185414Y0199253D01*
X0185452Y0199231D01*
X0185488Y0199205D01*
X0185521Y0199176D01*
X0185552Y0199144D01*
X0185579Y0199109D01*
X0185603Y0199072D01*
X0185624Y0199033D01*
X0185642Y0198993D01*
X0185655Y0198951D01*
X0185665Y0198908D01*
X0185671Y0198864D01*
X0185673Y0198820D01*
X0185671Y0198776D01*
X0185665Y0198732D01*
X0185655Y0198689D01*
X0185642Y0198647D01*
X0185624Y0198607D01*
X0185603Y0198568D01*
X0185579Y0198531D01*
X0185552Y0198496D01*
X0185521Y0198464D01*
X0185488Y0198435D01*
X0185452Y0198409D01*
X0185414Y0198387D01*
X0185374Y0198368D01*
X0185333Y0198352D01*
X0185290Y0198340D01*
X0185247Y0198332D01*
X0185203Y0198328D01*
X0185159Y0198328D01*
X0185115Y0198332D01*
X0185072Y0198340D01*
X0185029Y0198352D01*
X0184988Y0198368D01*
X0184948Y0198387D01*
X0184910Y0198409D01*
X0184874Y0198435D01*
X0184841Y0198464D01*
X0184810Y0198496D01*
X0184783Y0198531D01*
X0184759Y0198568D01*
X0184738Y0198607D01*
X0184720Y0198647D01*
X0184707Y0198689D01*
X0184697Y0198732D01*
X0184691Y0198776D01*
X0184689Y0198820D01*
D18*
X0191313Y0153245D02*
X0191313Y0148245D01*
X0173233Y0147983D02*
X0173233Y0152983D01*
X0175090Y0112354D02*
X0170090Y0112354D01*
X0167590Y0109854D01*
X0165090Y0112354D01*
X0160090Y0112354D01*
X0157590Y0109854D01*
X0155090Y0112354D01*
X0150090Y0112354D01*
X0147590Y0109854D01*
X0147590Y0104854D01*
X0150090Y0102354D01*
X0155090Y0102354D01*
X0157590Y0104854D01*
X0160090Y0102354D01*
X0165090Y0102354D01*
X0167590Y0104854D01*
X0170090Y0102354D01*
X0175090Y0102354D01*
X0177590Y0104854D01*
X0177590Y0109854D01*
X0175090Y0112354D01*
X0249050Y0125902D02*
X0250050Y0125902D01*
X0250050Y0128902D01*
X0270050Y0128902D01*
X0270050Y0125902D01*
X0271050Y0125902D01*
X0270050Y0125902D02*
X0270050Y0122902D01*
X0250050Y0122902D01*
X0250050Y0125902D01*
X0265050Y0098802D02*
X0265050Y0095802D01*
X0264050Y0095802D01*
X0265050Y0095802D02*
X0265050Y0092802D01*
X0285050Y0092802D01*
X0285050Y0095802D01*
X0286050Y0095802D01*
X0285050Y0095802D02*
X0285050Y0098802D01*
X0265050Y0098802D01*
X0265050Y0157202D02*
X0265050Y0160202D01*
X0264050Y0160202D01*
X0265050Y0160202D02*
X0265050Y0163202D01*
X0285050Y0163202D01*
X0285050Y0160202D01*
X0286050Y0160202D01*
X0285050Y0160202D02*
X0285050Y0157202D01*
X0265050Y0157202D01*
X0265050Y0189402D02*
X0265050Y0192402D01*
X0264050Y0192402D01*
X0265050Y0192402D02*
X0265050Y0195402D01*
X0285050Y0195402D01*
X0285050Y0192402D01*
X0286050Y0192402D01*
X0285050Y0192402D02*
X0285050Y0189402D01*
X0265050Y0189402D01*
X0265050Y0221602D02*
X0265050Y0224602D01*
X0264050Y0224602D01*
X0265050Y0224602D02*
X0265050Y0227602D01*
X0285050Y0227602D01*
X0285050Y0224602D01*
X0286050Y0224602D01*
X0285050Y0224602D02*
X0285050Y0221602D01*
X0265050Y0221602D01*
X0265050Y0253802D02*
X0265050Y0256802D01*
X0264050Y0256802D01*
X0265050Y0256802D02*
X0265050Y0259802D01*
X0285050Y0259802D01*
X0285050Y0256802D01*
X0286050Y0256802D01*
X0285050Y0256802D02*
X0285050Y0253802D01*
X0265050Y0253802D01*
X0265050Y0286002D02*
X0265050Y0289002D01*
X0264050Y0289002D01*
X0265050Y0289002D02*
X0265050Y0292002D01*
X0285050Y0292002D01*
X0285050Y0289002D01*
X0286050Y0289002D01*
X0285050Y0289002D02*
X0285050Y0286002D01*
X0265050Y0286002D01*
X0265050Y0318202D02*
X0265050Y0321202D01*
X0264050Y0321202D01*
X0265050Y0321202D02*
X0265050Y0324202D01*
X0285050Y0324202D01*
X0285050Y0321202D01*
X0286050Y0321202D01*
X0285050Y0321202D02*
X0285050Y0318202D01*
X0265050Y0318202D01*
X0265050Y0350402D02*
X0265050Y0353402D01*
X0264050Y0353402D01*
X0265050Y0353402D02*
X0265050Y0356402D01*
X0285050Y0356402D01*
X0285050Y0353402D01*
X0286050Y0353402D01*
X0285050Y0353402D02*
X0285050Y0350402D01*
X0265050Y0350402D01*
X0216800Y0309652D02*
X0216800Y0289652D01*
X0213800Y0289652D01*
X0213800Y0288652D01*
X0213800Y0289652D02*
X0210800Y0289652D01*
X0210800Y0309652D01*
X0213800Y0309652D01*
X0213800Y0310652D01*
X0213800Y0309652D02*
X0216800Y0309652D01*
X0206800Y0309652D02*
X0206800Y0289652D01*
X0203800Y0289652D01*
X0203800Y0288652D01*
X0203800Y0289652D02*
X0200800Y0289652D01*
X0200800Y0309652D01*
X0203800Y0309652D01*
X0203800Y0310652D01*
X0203800Y0309652D02*
X0206800Y0309652D01*
X0196800Y0309652D02*
X0196800Y0289652D01*
X0193800Y0289652D01*
X0193800Y0288652D01*
X0193800Y0289652D02*
X0190800Y0289652D01*
X0190800Y0309652D01*
X0193800Y0309652D01*
X0193800Y0310652D01*
X0193800Y0309652D02*
X0196800Y0309652D01*
X0186800Y0309652D02*
X0186800Y0289652D01*
X0183800Y0289652D01*
X0183800Y0288652D01*
X0183800Y0289652D02*
X0180800Y0289652D01*
X0180800Y0309652D01*
X0183800Y0309652D01*
X0183800Y0310652D01*
X0183800Y0309652D02*
X0186800Y0309652D01*
X0169300Y0309652D02*
X0169300Y0289652D01*
X0166300Y0289652D01*
X0166300Y0288652D01*
X0166300Y0289652D02*
X0163300Y0289652D01*
X0163300Y0309652D01*
X0166300Y0309652D01*
X0166300Y0310652D01*
X0166300Y0309652D02*
X0169300Y0309652D01*
X0159300Y0309652D02*
X0159300Y0289652D01*
X0156300Y0289652D01*
X0156300Y0288652D01*
X0156300Y0289652D02*
X0153300Y0289652D01*
X0153300Y0309652D01*
X0156300Y0309652D01*
X0156300Y0310652D01*
X0156300Y0309652D02*
X0159300Y0309652D01*
X0146800Y0309652D02*
X0143800Y0309652D01*
X0143800Y0310652D01*
X0143800Y0309652D02*
X0140800Y0309652D01*
X0140800Y0289652D01*
X0143800Y0289652D01*
X0143800Y0288652D01*
X0143800Y0289652D02*
X0146800Y0289652D01*
X0146800Y0309652D01*
X0135550Y0309652D02*
X0132550Y0309652D01*
X0132550Y0310652D01*
X0132550Y0309652D02*
X0129550Y0309652D01*
X0129550Y0289652D01*
X0132550Y0289652D01*
X0132550Y0288652D01*
X0132550Y0289652D02*
X0135550Y0289652D01*
X0135550Y0309652D01*
X0132678Y0325784D02*
X0112678Y0325784D01*
X0112678Y0328784D01*
X0111678Y0328784D01*
X0112678Y0328784D02*
X0112678Y0331784D01*
X0132678Y0331784D01*
X0132678Y0328784D01*
X0133678Y0328784D01*
X0132678Y0328784D02*
X0132678Y0325784D01*
X0113990Y0364629D02*
X0110446Y0364629D01*
X0116746Y0374471D02*
X0116746Y0382739D01*
X0093124Y0364629D02*
X0089580Y0364629D01*
X0086824Y0374471D02*
X0086824Y0382739D01*
X0120226Y0221233D02*
X0120226Y0220233D01*
X0123226Y0220233D01*
X0123226Y0200233D01*
X0120226Y0200233D01*
X0120226Y0199233D01*
X0120226Y0200233D02*
X0117226Y0200233D01*
X0117226Y0220233D01*
X0120226Y0220233D01*
X0132065Y0219299D02*
X0135065Y0219299D01*
X0135065Y0220299D01*
X0135065Y0219299D02*
X0138065Y0219299D01*
X0138065Y0199299D01*
X0135065Y0199299D01*
X0135065Y0198299D01*
X0135065Y0199299D02*
X0132065Y0199299D01*
X0132065Y0219299D01*
X0338397Y0367917D02*
X0338397Y0370917D01*
X0337397Y0370917D01*
X0338397Y0370917D02*
X0338397Y0373917D01*
X0358397Y0373917D01*
X0358397Y0370917D01*
X0359397Y0370917D01*
X0358397Y0370917D02*
X0358397Y0367917D01*
X0338397Y0367917D01*
X0346300Y0339402D02*
X0346300Y0338402D01*
X0349300Y0338402D01*
X0349300Y0318402D01*
X0346300Y0318402D01*
X0346300Y0317402D01*
X0346300Y0318402D02*
X0343300Y0318402D01*
X0343300Y0338402D01*
X0346300Y0338402D01*
X0366300Y0340902D02*
X0368800Y0338402D01*
X0373800Y0338402D01*
X0376300Y0340902D01*
X0378800Y0338402D01*
X0383800Y0338402D01*
X0386300Y0340902D01*
X0388800Y0338402D01*
X0393800Y0338402D01*
X0396300Y0340902D01*
X0396300Y0345902D01*
X0393800Y0348402D01*
X0388800Y0348402D01*
X0386300Y0345902D01*
X0383800Y0348402D01*
X0378800Y0348402D01*
X0376300Y0345902D01*
X0373800Y0348402D01*
X0368800Y0348402D01*
X0366300Y0345902D01*
X0366300Y0340902D01*
X0368800Y0316202D02*
X0366300Y0313702D01*
X0366300Y0308702D01*
X0368800Y0306202D01*
X0373800Y0306202D01*
X0376300Y0308702D01*
X0378800Y0306202D01*
X0383800Y0306202D01*
X0386300Y0308702D01*
X0388800Y0306202D01*
X0393800Y0306202D01*
X0396300Y0308702D01*
X0396300Y0313702D01*
X0393800Y0316202D01*
X0388800Y0316202D01*
X0386300Y0313702D01*
X0383800Y0316202D01*
X0378800Y0316202D01*
X0376300Y0313702D01*
X0373800Y0316202D01*
X0368800Y0316202D01*
X0359300Y0305902D02*
X0356300Y0305902D01*
X0356300Y0306902D01*
X0356300Y0305902D02*
X0353300Y0305902D01*
X0353300Y0285902D01*
X0356300Y0285902D01*
X0356300Y0284902D01*
X0356300Y0285902D02*
X0359300Y0285902D01*
X0359300Y0305902D01*
X0368800Y0284002D02*
X0366300Y0281502D01*
X0366300Y0276502D01*
X0368800Y0274002D01*
X0373800Y0274002D01*
X0376300Y0276502D01*
X0378800Y0274002D01*
X0383800Y0274002D01*
X0386300Y0276502D01*
X0388800Y0274002D01*
X0393800Y0274002D01*
X0396300Y0276502D01*
X0396300Y0281502D01*
X0393800Y0284002D01*
X0388800Y0284002D01*
X0386300Y0281502D01*
X0383800Y0284002D01*
X0378800Y0284002D01*
X0376300Y0281502D01*
X0373800Y0284002D01*
X0368800Y0284002D01*
X0349300Y0274502D02*
X0346300Y0274502D01*
X0346300Y0275502D01*
X0346300Y0274502D02*
X0343300Y0274502D01*
X0343300Y0254502D01*
X0346300Y0254502D01*
X0346300Y0253502D01*
X0346300Y0254502D02*
X0349300Y0254502D01*
X0349300Y0274502D01*
X0368800Y0251802D02*
X0366300Y0249302D01*
X0366300Y0244302D01*
X0368800Y0241802D01*
X0373800Y0241802D01*
X0376300Y0244302D01*
X0378800Y0241802D01*
X0383800Y0241802D01*
X0386300Y0244302D01*
X0388800Y0241802D01*
X0393800Y0241802D01*
X0396300Y0244302D01*
X0396300Y0249302D01*
X0393800Y0251802D01*
X0388800Y0251802D01*
X0386300Y0249302D01*
X0383800Y0251802D01*
X0378800Y0251802D01*
X0376300Y0249302D01*
X0373800Y0251802D01*
X0368800Y0251802D01*
X0359300Y0242152D02*
X0356300Y0242152D01*
X0356300Y0243152D01*
X0356300Y0242152D02*
X0353300Y0242152D01*
X0353300Y0222152D01*
X0356300Y0222152D01*
X0356300Y0221152D01*
X0356300Y0222152D02*
X0359300Y0222152D01*
X0359300Y0242152D01*
X0368800Y0219602D02*
X0366300Y0217102D01*
X0366300Y0212102D01*
X0368800Y0209602D01*
X0373800Y0209602D01*
X0376300Y0212102D01*
X0378800Y0209602D01*
X0383800Y0209602D01*
X0386300Y0212102D01*
X0388800Y0209602D01*
X0393800Y0209602D01*
X0396300Y0212102D01*
X0396300Y0217102D01*
X0393800Y0219602D01*
X0388800Y0219602D01*
X0386300Y0217102D01*
X0383800Y0219602D01*
X0378800Y0219602D01*
X0376300Y0217102D01*
X0373800Y0219602D01*
X0368800Y0219602D01*
X0349300Y0210102D02*
X0346300Y0210102D01*
X0346300Y0211102D01*
X0346300Y0210102D02*
X0343300Y0210102D01*
X0343300Y0190102D01*
X0346300Y0190102D01*
X0346300Y0189102D01*
X0346300Y0190102D02*
X0349300Y0190102D01*
X0349300Y0210102D01*
X0368800Y0187402D02*
X0366300Y0184902D01*
X0366300Y0179902D01*
X0368800Y0177402D01*
X0373800Y0177402D01*
X0376300Y0179902D01*
X0378800Y0177402D01*
X0383800Y0177402D01*
X0386300Y0179902D01*
X0388800Y0177402D01*
X0393800Y0177402D01*
X0396300Y0179902D01*
X0396300Y0184902D01*
X0393800Y0187402D01*
X0388800Y0187402D01*
X0386300Y0184902D01*
X0383800Y0187402D01*
X0378800Y0187402D01*
X0376300Y0184902D01*
X0373800Y0187402D01*
X0368800Y0187402D01*
X0359300Y0177152D02*
X0356300Y0177152D01*
X0356300Y0178152D01*
X0356300Y0177152D02*
X0353300Y0177152D01*
X0353300Y0157152D01*
X0356300Y0157152D01*
X0356300Y0156152D01*
X0356300Y0157152D02*
X0359300Y0157152D01*
X0359300Y0177152D01*
X0368800Y0155202D02*
X0366300Y0152702D01*
X0366300Y0147702D01*
X0368800Y0145202D01*
X0373800Y0145202D01*
X0376300Y0147702D01*
X0378800Y0145202D01*
X0383800Y0145202D01*
X0386300Y0147702D01*
X0388800Y0145202D01*
X0393800Y0145202D01*
X0396300Y0147702D01*
X0396300Y0152702D01*
X0393800Y0155202D01*
X0388800Y0155202D01*
X0386300Y0152702D01*
X0383800Y0155202D01*
X0378800Y0155202D01*
X0376300Y0152702D01*
X0373800Y0155202D01*
X0368800Y0155202D01*
X0349300Y0144452D02*
X0346300Y0144452D01*
X0346300Y0145452D01*
X0346300Y0144452D02*
X0343300Y0144452D01*
X0343300Y0124452D01*
X0346300Y0124452D01*
X0346300Y0123452D01*
X0346300Y0124452D02*
X0349300Y0124452D01*
X0349300Y0144452D01*
X0368800Y0123002D02*
X0366300Y0120502D01*
X0366300Y0115502D01*
X0368800Y0113002D01*
X0373800Y0113002D01*
X0376300Y0115502D01*
X0378800Y0113002D01*
X0383800Y0113002D01*
X0386300Y0115502D01*
X0388800Y0113002D01*
X0393800Y0113002D01*
X0396300Y0115502D01*
X0396300Y0120502D01*
X0393800Y0123002D01*
X0388800Y0123002D01*
X0386300Y0120502D01*
X0383800Y0123002D01*
X0378800Y0123002D01*
X0376300Y0120502D01*
X0373800Y0123002D01*
X0368800Y0123002D01*
X0360550Y0113402D02*
X0357550Y0113402D01*
X0357550Y0114402D01*
X0357550Y0113402D02*
X0354550Y0113402D01*
X0354550Y0093402D01*
X0357550Y0093402D01*
X0357550Y0092402D01*
X0357550Y0093402D02*
X0360550Y0093402D01*
X0360550Y0113402D01*
X0368800Y0085802D02*
X0366300Y0083302D01*
X0366300Y0078302D01*
X0368800Y0075802D01*
X0373800Y0075802D01*
X0376300Y0078302D01*
X0378800Y0075802D01*
X0383800Y0075802D01*
X0386300Y0078302D01*
X0388800Y0075802D01*
X0393800Y0075802D01*
X0396300Y0078302D01*
X0396300Y0083302D01*
X0393800Y0085802D01*
X0388800Y0085802D01*
X0386300Y0083302D01*
X0383800Y0085802D01*
X0378800Y0085802D01*
X0376300Y0083302D01*
X0373800Y0085802D01*
X0368800Y0085802D01*
X0366300Y0055152D02*
X0366300Y0052152D01*
X0365300Y0052152D01*
X0366300Y0052152D02*
X0366300Y0049152D01*
X0386300Y0049152D01*
X0386300Y0052152D01*
X0387300Y0052152D01*
X0386300Y0052152D02*
X0386300Y0055152D01*
X0366300Y0055152D01*
D19*
X0148800Y0170951D02*
X0148800Y0184652D01*
X0133800Y0184652D01*
X0133800Y0189652D01*
X0118800Y0189652D01*
X0118800Y0184652D01*
X0105629Y0184652D01*
X0105629Y0170842D01*
X0105729Y0170894D02*
X0138838Y0170947D01*
X0148747Y0170894D02*
X0105729Y0170894D01*
X0118800Y0184652D02*
X0133800Y0184652D01*
X0109823Y0150277D02*
X0108322Y0150277D01*
X0108322Y0148776D01*
X0106821Y0150277D02*
X0106070Y0149527D01*
X0106070Y0148025D01*
X0106821Y0147275D01*
X0109823Y0147275D01*
X0110574Y0148025D01*
X0110574Y0149527D01*
X0109823Y0150277D01*
X0109823Y0145673D02*
X0106070Y0145673D01*
X0106070Y0142671D02*
X0109823Y0142671D01*
X0110574Y0143421D01*
X0110574Y0144923D01*
X0109823Y0145673D01*
X0109823Y0141069D02*
X0110574Y0140319D01*
X0110574Y0138067D01*
X0106070Y0138067D01*
X0106070Y0140319D01*
X0106821Y0141069D01*
X0107571Y0141069D01*
X0108322Y0140319D01*
X0108322Y0138067D01*
X0108322Y0140319D02*
X0109073Y0141069D01*
X0109823Y0141069D01*
X0110574Y0136465D02*
X0110574Y0133463D01*
X0106070Y0133463D01*
X0106070Y0136465D01*
X0108322Y0134964D02*
X0108322Y0133463D01*
X0106821Y0131862D02*
X0106070Y0131111D01*
X0106070Y0128859D01*
X0110574Y0128859D01*
X0110574Y0131111D01*
X0109823Y0131862D01*
X0106821Y0131862D01*
X0038661Y0115795D02*
X0038661Y0178551D01*
X0008110Y0178551D01*
X0008110Y0115795D01*
X0038661Y0115795D01*
X0054346Y0218627D02*
X0054346Y0223131D01*
X0056598Y0223131D01*
X0057349Y0222380D01*
X0057349Y0220879D01*
X0056598Y0220128D01*
X0054346Y0220128D01*
X0055847Y0220128D02*
X0057349Y0218627D01*
X0058950Y0218627D02*
X0061952Y0218627D01*
X0063554Y0219378D02*
X0064304Y0218627D01*
X0065806Y0218627D01*
X0066556Y0219378D01*
X0066556Y0220128D01*
X0065806Y0220879D01*
X0064304Y0220879D01*
X0063554Y0221630D01*
X0063554Y0222380D01*
X0064304Y0223131D01*
X0065806Y0223131D01*
X0066556Y0222380D01*
X0068158Y0223131D02*
X0068158Y0218627D01*
X0071160Y0218627D01*
X0069659Y0220879D02*
X0068158Y0220879D01*
X0068158Y0223131D02*
X0071160Y0223131D01*
X0072762Y0223131D02*
X0075764Y0223131D01*
X0074263Y0223131D02*
X0074263Y0218627D01*
X0061952Y0223131D02*
X0058950Y0223131D01*
X0058950Y0218627D01*
X0058950Y0220879D02*
X0060451Y0220879D01*
X0141925Y0393402D02*
X0145675Y0393402D01*
X0156925Y0393402D02*
X0160675Y0393402D01*
X0171925Y0393402D02*
X0175675Y0393402D01*
X0186925Y0393402D02*
X0190675Y0393402D01*
X0201925Y0393402D02*
X0205675Y0393402D01*
X0216925Y0393402D02*
X0220675Y0393402D01*
X0231925Y0393402D02*
X0235675Y0393402D01*
X0361081Y0393409D02*
X0364831Y0393409D01*
D20*
X0199191Y0143132D02*
X0175191Y0143132D01*
X0174984Y0143129D01*
X0174777Y0143122D01*
X0174571Y0143109D01*
X0174364Y0143092D01*
X0174159Y0143069D01*
X0173953Y0143041D01*
X0173749Y0143009D01*
X0173545Y0142971D01*
X0173343Y0142929D01*
X0173141Y0142881D01*
X0172941Y0142829D01*
X0172742Y0142772D01*
X0172545Y0142710D01*
X0172349Y0142643D01*
X0172155Y0142571D01*
X0171962Y0142495D01*
X0171772Y0142414D01*
X0171583Y0142328D01*
X0171397Y0142238D01*
X0171213Y0142144D01*
X0171031Y0142044D01*
X0170852Y0141941D01*
X0170675Y0141833D01*
X0170501Y0141721D01*
X0170330Y0141605D01*
X0170161Y0141484D01*
X0169996Y0141360D01*
X0169834Y0141231D01*
X0169675Y0141099D01*
X0169519Y0140963D01*
X0169366Y0140823D01*
X0169217Y0140679D01*
X0169072Y0140532D01*
X0168930Y0140381D01*
X0168792Y0140227D01*
X0168657Y0140069D01*
X0168527Y0139909D01*
X0168401Y0139745D01*
X0168278Y0139578D01*
X0168160Y0139408D01*
X0168045Y0139235D01*
X0167935Y0139060D01*
X0167830Y0138882D01*
X0167728Y0138701D01*
X0167632Y0138519D01*
X0167539Y0138333D01*
X0167451Y0138146D01*
X0167368Y0137956D01*
X0167289Y0137765D01*
X0167215Y0137572D01*
X0167146Y0137376D01*
X0167082Y0137180D01*
X0167022Y0136982D01*
X0166967Y0136782D01*
X0166917Y0136581D01*
X0166872Y0136379D01*
X0166832Y0136176D01*
X0166797Y0135972D01*
X0166767Y0135767D01*
X0166742Y0135562D01*
X0166722Y0135356D01*
X0166707Y0135149D01*
X0166697Y0134942D01*
X0166692Y0134735D01*
X0166692Y0134529D01*
X0166697Y0134322D01*
X0166707Y0134115D01*
X0166722Y0133908D01*
X0166742Y0133702D01*
X0166767Y0133497D01*
X0166797Y0133292D01*
X0166832Y0133088D01*
X0166872Y0132885D01*
X0166917Y0132683D01*
X0166967Y0132482D01*
X0167022Y0132282D01*
X0167082Y0132084D01*
X0167146Y0131888D01*
X0167215Y0131692D01*
X0167289Y0131499D01*
X0167368Y0131308D01*
X0167451Y0131118D01*
X0167539Y0130931D01*
X0167632Y0130745D01*
X0167728Y0130563D01*
X0167830Y0130382D01*
X0167935Y0130204D01*
X0168045Y0130029D01*
X0168160Y0129856D01*
X0168278Y0129686D01*
X0168401Y0129519D01*
X0168527Y0129355D01*
X0168657Y0129195D01*
X0168792Y0129037D01*
X0168930Y0128883D01*
X0169072Y0128732D01*
X0169217Y0128585D01*
X0169366Y0128441D01*
X0169519Y0128301D01*
X0169675Y0128165D01*
X0169834Y0128033D01*
X0169996Y0127904D01*
X0170161Y0127780D01*
X0170330Y0127659D01*
X0170501Y0127543D01*
X0170675Y0127431D01*
X0170852Y0127323D01*
X0171031Y0127220D01*
X0171213Y0127120D01*
X0171397Y0127026D01*
X0171583Y0126936D01*
X0171772Y0126850D01*
X0171962Y0126769D01*
X0172155Y0126693D01*
X0172349Y0126621D01*
X0172545Y0126554D01*
X0172742Y0126492D01*
X0172941Y0126435D01*
X0173141Y0126383D01*
X0173343Y0126335D01*
X0173545Y0126293D01*
X0173749Y0126255D01*
X0173953Y0126223D01*
X0174159Y0126195D01*
X0174364Y0126172D01*
X0174571Y0126155D01*
X0174777Y0126142D01*
X0174984Y0126135D01*
X0175191Y0126132D01*
X0199191Y0126132D01*
X0199398Y0126135D01*
X0199605Y0126142D01*
X0199811Y0126155D01*
X0200018Y0126172D01*
X0200223Y0126195D01*
X0200429Y0126223D01*
X0200633Y0126255D01*
X0200837Y0126293D01*
X0201039Y0126335D01*
X0201241Y0126383D01*
X0201441Y0126435D01*
X0201640Y0126492D01*
X0201837Y0126554D01*
X0202033Y0126621D01*
X0202227Y0126693D01*
X0202420Y0126769D01*
X0202610Y0126850D01*
X0202799Y0126936D01*
X0202985Y0127026D01*
X0203169Y0127120D01*
X0203351Y0127220D01*
X0203530Y0127323D01*
X0203707Y0127431D01*
X0203881Y0127543D01*
X0204052Y0127659D01*
X0204221Y0127780D01*
X0204386Y0127904D01*
X0204548Y0128033D01*
X0204707Y0128165D01*
X0204863Y0128301D01*
X0205016Y0128441D01*
X0205165Y0128585D01*
X0205310Y0128732D01*
X0205452Y0128883D01*
X0205590Y0129037D01*
X0205725Y0129195D01*
X0205855Y0129355D01*
X0205981Y0129519D01*
X0206104Y0129686D01*
X0206222Y0129856D01*
X0206337Y0130029D01*
X0206447Y0130204D01*
X0206552Y0130382D01*
X0206654Y0130563D01*
X0206750Y0130745D01*
X0206843Y0130931D01*
X0206931Y0131118D01*
X0207014Y0131308D01*
X0207093Y0131499D01*
X0207167Y0131692D01*
X0207236Y0131888D01*
X0207300Y0132084D01*
X0207360Y0132282D01*
X0207415Y0132482D01*
X0207465Y0132683D01*
X0207510Y0132885D01*
X0207550Y0133088D01*
X0207585Y0133292D01*
X0207615Y0133497D01*
X0207640Y0133702D01*
X0207660Y0133908D01*
X0207675Y0134115D01*
X0207685Y0134322D01*
X0207690Y0134529D01*
X0207690Y0134735D01*
X0207685Y0134942D01*
X0207675Y0135149D01*
X0207660Y0135356D01*
X0207640Y0135562D01*
X0207615Y0135767D01*
X0207585Y0135972D01*
X0207550Y0136176D01*
X0207510Y0136379D01*
X0207465Y0136581D01*
X0207415Y0136782D01*
X0207360Y0136982D01*
X0207300Y0137180D01*
X0207236Y0137376D01*
X0207167Y0137572D01*
X0207093Y0137765D01*
X0207014Y0137956D01*
X0206931Y0138146D01*
X0206843Y0138333D01*
X0206750Y0138519D01*
X0206654Y0138701D01*
X0206552Y0138882D01*
X0206447Y0139060D01*
X0206337Y0139235D01*
X0206222Y0139408D01*
X0206104Y0139578D01*
X0205981Y0139745D01*
X0205855Y0139909D01*
X0205725Y0140069D01*
X0205590Y0140227D01*
X0205452Y0140381D01*
X0205310Y0140532D01*
X0205165Y0140679D01*
X0205016Y0140823D01*
X0204863Y0140963D01*
X0204707Y0141099D01*
X0204548Y0141231D01*
X0204386Y0141360D01*
X0204221Y0141484D01*
X0204052Y0141605D01*
X0203881Y0141721D01*
X0203707Y0141833D01*
X0203530Y0141941D01*
X0203351Y0142044D01*
X0203169Y0142144D01*
X0202985Y0142238D01*
X0202799Y0142328D01*
X0202610Y0142414D01*
X0202420Y0142495D01*
X0202227Y0142571D01*
X0202033Y0142643D01*
X0201837Y0142710D01*
X0201640Y0142772D01*
X0201441Y0142829D01*
X0201241Y0142881D01*
X0201039Y0142929D01*
X0200837Y0142971D01*
X0200633Y0143009D01*
X0200429Y0143041D01*
X0200223Y0143069D01*
X0200018Y0143092D01*
X0199811Y0143109D01*
X0199605Y0143122D01*
X0199398Y0143129D01*
X0199191Y0143132D01*
D21*
X0137324Y0145109D02*
X0136324Y0145109D01*
X0136324Y0135609D01*
X0137324Y0135609D01*
X0114324Y0135609D02*
X0114324Y0145609D01*
X0113324Y0145609D01*
X0113324Y0135609D02*
X0114324Y0135609D01*
X0070596Y0191877D02*
X0070596Y0192877D01*
X0061096Y0192877D01*
X0061096Y0191877D01*
X0061096Y0214877D02*
X0071096Y0214877D01*
X0071096Y0215877D01*
X0061096Y0215877D02*
X0061096Y0214877D01*
D22*
X0069550Y0249652D03*
X0072050Y0249652D03*
X0074550Y0249652D03*
X0074550Y0259652D03*
X0072050Y0259652D03*
X0069550Y0259652D03*
X0069550Y0269652D03*
X0072050Y0269652D03*
X0074550Y0269652D03*
X0074550Y0279652D03*
X0072050Y0279652D03*
X0069550Y0279652D03*
D23*
X0048800Y0085402D03*
X0048800Y0063902D03*
M02*
